%TF.GenerationSoftware,KiCad,Pcbnew,(5.1.6-0-10_14)*%
%TF.CreationDate,2020-08-23T12:03:37+01:00*%
%TF.ProjectId,UVLedPanel_100mm_100mm,55564c65-6450-4616-9e65-6c5f3130306d,A*%
%TF.SameCoordinates,Original*%
%TF.FileFunction,Legend,Top*%
%TF.FilePolarity,Positive*%
%FSLAX46Y46*%
G04 Gerber Fmt 4.6, Leading zero omitted, Abs format (unit mm)*
G04 Created by KiCad (PCBNEW (5.1.6-0-10_14)) date 2020-08-23 12:03:37*
%MOMM*%
%LPD*%
G01*
G04 APERTURE LIST*
%ADD10C,0.200000*%
%ADD11C,0.120000*%
G04 APERTURE END LIST*
D10*
X196088095Y-61102857D02*
X197611904Y-61102857D01*
X196850000Y-61864761D02*
X196850000Y-60340952D01*
X196088095Y-53482857D02*
X197611904Y-53482857D01*
D11*
%TO.C,D16*%
X113970000Y-148450000D02*
X114770000Y-148450000D01*
X113970000Y-143800000D02*
X113970000Y-148450000D01*
X117170000Y-143800000D02*
X117170000Y-148450000D01*
%TO.C,D15*%
X117170000Y-113170000D02*
X116370000Y-113170000D01*
X117170000Y-117820000D02*
X117170000Y-113170000D01*
X113970000Y-117820000D02*
X113970000Y-113170000D01*
%TO.C,D14*%
X113970000Y-87490000D02*
X114770000Y-87490000D01*
X113970000Y-82840000D02*
X113970000Y-87490000D01*
X117170000Y-82840000D02*
X117170000Y-87490000D01*
%TO.C,D13*%
X117170000Y-52210000D02*
X116370000Y-52210000D01*
X117170000Y-56860000D02*
X117170000Y-52210000D01*
X113970000Y-56860000D02*
X113970000Y-52210000D01*
%TO.C,D12*%
X139370000Y-148450000D02*
X140170000Y-148450000D01*
X139370000Y-143800000D02*
X139370000Y-148450000D01*
X142570000Y-143800000D02*
X142570000Y-148450000D01*
%TO.C,D11*%
X142570000Y-113170000D02*
X141770000Y-113170000D01*
X142570000Y-117820000D02*
X142570000Y-113170000D01*
X139370000Y-117820000D02*
X139370000Y-113170000D01*
%TO.C,D10*%
X139370000Y-87490000D02*
X140170000Y-87490000D01*
X139370000Y-82840000D02*
X139370000Y-87490000D01*
X142570000Y-82840000D02*
X142570000Y-87490000D01*
%TO.C,D9*%
X142570000Y-52210000D02*
X141770000Y-52210000D01*
X142570000Y-56860000D02*
X142570000Y-52210000D01*
X139370000Y-56860000D02*
X139370000Y-52210000D01*
%TO.C,D8*%
X164770000Y-148450000D02*
X165570000Y-148450000D01*
X164770000Y-143800000D02*
X164770000Y-148450000D01*
X167970000Y-143800000D02*
X167970000Y-148450000D01*
%TO.C,D7*%
X167970000Y-113170000D02*
X167170000Y-113170000D01*
X167970000Y-117820000D02*
X167970000Y-113170000D01*
X164770000Y-117820000D02*
X164770000Y-113170000D01*
%TO.C,D6*%
X164770000Y-87490000D02*
X165570000Y-87490000D01*
X164770000Y-82840000D02*
X164770000Y-87490000D01*
X167970000Y-82840000D02*
X167970000Y-87490000D01*
%TO.C,D5*%
X167970000Y-52210000D02*
X167170000Y-52210000D01*
X167970000Y-56860000D02*
X167970000Y-52210000D01*
X164770000Y-56860000D02*
X164770000Y-52210000D01*
%TO.C,J2*%
X198460000Y-51140000D02*
X202860000Y-51140000D01*
X202860000Y-51140000D02*
X202860000Y-55540000D01*
X202860000Y-55540000D02*
X198460000Y-55540000D01*
X198460000Y-55540000D02*
X198460000Y-51140000D01*
%TO.C,J1*%
X198460000Y-58760000D02*
X202860000Y-58760000D01*
X202860000Y-58760000D02*
X202860000Y-63160000D01*
X202860000Y-63160000D02*
X198460000Y-63160000D01*
X198460000Y-63160000D02*
X198460000Y-58760000D01*
%TO.C,D4*%
X193370000Y-143800000D02*
X193370000Y-148450000D01*
X190170000Y-143800000D02*
X190170000Y-148450000D01*
X190170000Y-148450000D02*
X190970000Y-148450000D01*
%TO.C,D3*%
X190170000Y-117820000D02*
X190170000Y-113170000D01*
X193370000Y-117820000D02*
X193370000Y-113170000D01*
X193370000Y-113170000D02*
X192570000Y-113170000D01*
%TO.C,D2*%
X193370000Y-82840000D02*
X193370000Y-87490000D01*
X190170000Y-82840000D02*
X190170000Y-87490000D01*
X190170000Y-87490000D02*
X190970000Y-87490000D01*
%TO.C,D1*%
X190170000Y-56860000D02*
X190170000Y-52210000D01*
X193370000Y-56860000D02*
X193370000Y-52210000D01*
X193370000Y-52210000D02*
X192570000Y-52210000D01*
%TD*%
M02*
