<?xml version="1.0" standalone="no"?>
 <!DOCTYPE svg PUBLIC "-//W3C//DTD SVG 1.1//EN" 
 "http://www.w3.org/Graphics/SVG/1.1/DTD/svg11.dtd"> 
<svg xmlns="http://www.w3.org/2000/svg" version="1.1" 
    width="29.7002cm" height="21.0007cm" viewBox="0 0 116930 82680 ">
<title>SVG Picture created as LED_Driver-UV_LED_DRIVER_MODULE.svg date 2020/05/09 02:45:30 </title>
  <desc>Picture generated by Eeschema-SVG </desc>
<g style="fill:#000000; fill-opacity:1;stroke:#000000; stroke-opacity:1;
stroke-linecap:round; stroke-linejoin:round; "
 transform="translate(0 0) scale(1 1)">
</g>
<g style="fill:#000000; fill-opacity:0.0; 
stroke:#000000; stroke-width:-10; stroke-opacity:1; 
stroke-linecap:round; stroke-linejoin:round;">
</g>
<g style="fill:#840000; fill-opacity:0.0; 
stroke:#840000; stroke-width:-10; stroke-opacity:1; 
stroke-linecap:round; stroke-linejoin:round;">
</g>
<g style="fill:#840000; fill-opacity:0.0; 
stroke:#840000; stroke-width:100; stroke-opacity:1; 
stroke-linecap:round; stroke-linejoin:round;">
</g>
<g style="fill:#840000; fill-opacity:0.0; 
stroke:#840000; stroke-width:60; stroke-opacity:1; 
stroke-linecap:round; stroke-linejoin:round;">
<rect x="69690" y="65360" width="42520" height="12600" rx="0" />
</g>
<g style="fill:#840000; fill-opacity:0.0; 
stroke:#840000; stroke-width:100; stroke-opacity:1; 
stroke-linecap:round; stroke-linejoin:round;">
</g>
<g style="fill:#840000; fill-opacity:0.0; 
stroke:#840000; stroke-width:60; stroke-opacity:1; 
stroke-linecap:round; stroke-linejoin:round;">
<rect x="3940" y="3940" width="109050" height="74800" rx="0" />
</g>
<g style="fill:#840000; fill-opacity:0.0; 
stroke:#840000; stroke-width:100; stroke-opacity:1; 
stroke-linecap:round; stroke-linejoin:round;">
</g>
<g style="fill:#840000; fill-opacity:0.0; 
stroke:#840000; stroke-width:60; stroke-opacity:1; 
stroke-linecap:round; stroke-linejoin:round;">
<rect x="4720" y="4720" width="107490" height="73240" rx="0" />
</g>
<g style="fill:#840000; fill-opacity:0.0; 
stroke:#840000; stroke-width:100; stroke-opacity:1; 
stroke-linecap:round; stroke-linejoin:round;">
</g>
<g style="fill:#840000; fill-opacity:0.0; 
stroke:#840000; stroke-width:60; stroke-opacity:1; 
stroke-linecap:round; stroke-linejoin:round;">
<path d="M23620 4720
L23620 3940
" />
</g>
<g style="fill:#840000; fill-opacity:0.0; 
stroke:#840000; stroke-width:100; stroke-opacity:1; 
stroke-linecap:round; stroke-linejoin:round;">
</g>
<g style="fill:#840000; fill-opacity:0.0; 
stroke:#840000; stroke-width:60; stroke-opacity:1; 
stroke-linecap:round; stroke-linejoin:round;">
<path d="M43310 4720
L43310 3940
" />
</g>
<g style="fill:#840000; fill-opacity:0.0; 
stroke:#840000; stroke-width:100; stroke-opacity:1; 
stroke-linecap:round; stroke-linejoin:round;">
</g>
<g style="fill:#840000; fill-opacity:0.0; 
stroke:#840000; stroke-width:60; stroke-opacity:1; 
stroke-linecap:round; stroke-linejoin:round;">
<path d="M62990 4720
L62990 3940
" />
</g>
<g style="fill:#840000; fill-opacity:0.0; 
stroke:#840000; stroke-width:100; stroke-opacity:1; 
stroke-linecap:round; stroke-linejoin:round;">
</g>
<g style="fill:#840000; fill-opacity:0.0; 
stroke:#840000; stroke-width:60; stroke-opacity:1; 
stroke-linecap:round; stroke-linejoin:round;">
<path d="M82680 4720
L82680 3940
" />
</g>
<g style="fill:#840000; fill-opacity:0.0; 
stroke:#840000; stroke-width:100; stroke-opacity:1; 
stroke-linecap:round; stroke-linejoin:round;">
</g>
<g style="fill:#840000; fill-opacity:0.0; 
stroke:#840000; stroke-width:60; stroke-opacity:1; 
stroke-linecap:round; stroke-linejoin:round;">
<path d="M102360 4720
L102360 3940
" />
</g>
<g style="fill:#840000; fill-opacity:0.0; 
stroke:#840000; stroke-width:100; stroke-opacity:1; 
stroke-linecap:round; stroke-linejoin:round;">
</g>
<g style="fill:#840000; fill-opacity:0.0; 
stroke:#840000; stroke-width:60; stroke-opacity:1; 
stroke-linecap:round; stroke-linejoin:round;">
<text x="13780" y="4580"
textLength="550" font-size="680" lengthAdjust="spacingAndGlyphs"
text-anchor="start" opacity="0">1</text>
<path d="M14190 4560
L13900 4560
" />
<path d="M14050 4560
L14050 4050
L14000 4120
L13950 4170
L13900 4190
" />
</g>
<g style="fill:#840000; fill-opacity:0.0; 
stroke:#840000; stroke-width:100; stroke-opacity:1; 
stroke-linecap:round; stroke-linejoin:round;">
</g>
<g style="fill:#840000; fill-opacity:0.0; 
stroke:#840000; stroke-width:60; stroke-opacity:1; 
stroke-linecap:round; stroke-linejoin:round;">
<text x="33460" y="4580"
textLength="550" font-size="680" lengthAdjust="spacingAndGlyphs"
text-anchor="start" opacity="0">2</text>
<path d="M33580 4090
L33610 4070
L33660 4050
L33780 4050
L33830 4070
L33850 4090
L33870 4140
L33870 4190
L33850 4260
L33560 4560
L33870 4560
" />
</g>
<g style="fill:#840000; fill-opacity:0.0; 
stroke:#840000; stroke-width:100; stroke-opacity:1; 
stroke-linecap:round; stroke-linejoin:round;">
</g>
<g style="fill:#840000; fill-opacity:0.0; 
stroke:#840000; stroke-width:60; stroke-opacity:1; 
stroke-linecap:round; stroke-linejoin:round;">
<text x="53150" y="4580"
textLength="550" font-size="680" lengthAdjust="spacingAndGlyphs"
text-anchor="start" opacity="0">3</text>
<path d="M53250 4050
L53560 4050
L53390 4240
L53470 4240
L53520 4260
L53540 4290
L53560 4340
L53560 4460
L53540 4510
L53520 4530
L53470 4560
L53320 4560
L53270 4530
L53250 4510
" />
</g>
<g style="fill:#840000; fill-opacity:0.0; 
stroke:#840000; stroke-width:100; stroke-opacity:1; 
stroke-linecap:round; stroke-linejoin:round;">
</g>
<g style="fill:#840000; fill-opacity:0.0; 
stroke:#840000; stroke-width:60; stroke-opacity:1; 
stroke-linecap:round; stroke-linejoin:round;">
<text x="72830" y="4580"
textLength="550" font-size="680" lengthAdjust="spacingAndGlyphs"
text-anchor="start" opacity="0">4</text>
<path d="M73200 4220
L73200 4560
" />
<path d="M73070 4020
L72950 4390
L73270 4390
" />
</g>
<g style="fill:#840000; fill-opacity:0.0; 
stroke:#840000; stroke-width:100; stroke-opacity:1; 
stroke-linecap:round; stroke-linejoin:round;">
</g>
<g style="fill:#840000; fill-opacity:0.0; 
stroke:#840000; stroke-width:60; stroke-opacity:1; 
stroke-linecap:round; stroke-linejoin:round;">
<text x="92520" y="4580"
textLength="550" font-size="680" lengthAdjust="spacingAndGlyphs"
text-anchor="start" opacity="0">5</text>
<path d="M92910 4050
L92670 4050
L92640 4290
L92670 4260
L92720 4240
L92840 4240
L92890 4260
L92910 4290
L92930 4340
L92930 4460
L92910 4510
L92890 4530
L92840 4560
L92720 4560
L92670 4530
L92640 4510
" />
</g>
<g style="fill:#840000; fill-opacity:0.0; 
stroke:#840000; stroke-width:100; stroke-opacity:1; 
stroke-linecap:round; stroke-linejoin:round;">
</g>
<g style="fill:#840000; fill-opacity:0.0; 
stroke:#840000; stroke-width:60; stroke-opacity:1; 
stroke-linecap:round; stroke-linejoin:round;">
<text x="112200" y="4580"
textLength="550" font-size="680" lengthAdjust="spacingAndGlyphs"
text-anchor="start" opacity="0">6</text>
<path d="M112570 4050
L112470 4050
L112420 4070
L112400 4090
L112350 4170
L112320 4260
L112320 4460
L112350 4510
L112370 4530
L112420 4560
L112520 4560
L112570 4530
L112590 4510
L112610 4460
L112610 4340
L112590 4290
L112570 4260
L112520 4240
L112420 4240
L112370 4260
L112350 4290
L112320 4340
" />
</g>
<g style="fill:#840000; fill-opacity:0.0; 
stroke:#840000; stroke-width:100; stroke-opacity:1; 
stroke-linecap:round; stroke-linejoin:round;">
</g>
<g style="fill:#840000; fill-opacity:0.0; 
stroke:#840000; stroke-width:60; stroke-opacity:1; 
stroke-linecap:round; stroke-linejoin:round;">
<path d="M23620 77960
L23620 78740
" />
</g>
<g style="fill:#840000; fill-opacity:0.0; 
stroke:#840000; stroke-width:100; stroke-opacity:1; 
stroke-linecap:round; stroke-linejoin:round;">
</g>
<g style="fill:#840000; fill-opacity:0.0; 
stroke:#840000; stroke-width:60; stroke-opacity:1; 
stroke-linecap:round; stroke-linejoin:round;">
<path d="M43310 77960
L43310 78740
" />
</g>
<g style="fill:#840000; fill-opacity:0.0; 
stroke:#840000; stroke-width:100; stroke-opacity:1; 
stroke-linecap:round; stroke-linejoin:round;">
</g>
<g style="fill:#840000; fill-opacity:0.0; 
stroke:#840000; stroke-width:60; stroke-opacity:1; 
stroke-linecap:round; stroke-linejoin:round;">
<path d="M62990 77960
L62990 78740
" />
</g>
<g style="fill:#840000; fill-opacity:0.0; 
stroke:#840000; stroke-width:100; stroke-opacity:1; 
stroke-linecap:round; stroke-linejoin:round;">
</g>
<g style="fill:#840000; fill-opacity:0.0; 
stroke:#840000; stroke-width:60; stroke-opacity:1; 
stroke-linecap:round; stroke-linejoin:round;">
<path d="M82680 77960
L82680 78740
" />
</g>
<g style="fill:#840000; fill-opacity:0.0; 
stroke:#840000; stroke-width:100; stroke-opacity:1; 
stroke-linecap:round; stroke-linejoin:round;">
</g>
<g style="fill:#840000; fill-opacity:0.0; 
stroke:#840000; stroke-width:60; stroke-opacity:1; 
stroke-linecap:round; stroke-linejoin:round;">
<path d="M102360 77960
L102360 78740
" />
</g>
<g style="fill:#840000; fill-opacity:0.0; 
stroke:#840000; stroke-width:100; stroke-opacity:1; 
stroke-linecap:round; stroke-linejoin:round;">
</g>
<g style="fill:#840000; fill-opacity:0.0; 
stroke:#840000; stroke-width:60; stroke-opacity:1; 
stroke-linecap:round; stroke-linejoin:round;">
<text x="13780" y="78600"
textLength="550" font-size="680" lengthAdjust="spacingAndGlyphs"
text-anchor="start" opacity="0">1</text>
<path d="M14190 78580
L13900 78580
" />
<path d="M14050 78580
L14050 78070
L14000 78140
L13950 78190
L13900 78210
" />
</g>
<g style="fill:#840000; fill-opacity:0.0; 
stroke:#840000; stroke-width:100; stroke-opacity:1; 
stroke-linecap:round; stroke-linejoin:round;">
</g>
<g style="fill:#840000; fill-opacity:0.0; 
stroke:#840000; stroke-width:60; stroke-opacity:1; 
stroke-linecap:round; stroke-linejoin:round;">
<text x="33460" y="78600"
textLength="550" font-size="680" lengthAdjust="spacingAndGlyphs"
text-anchor="start" opacity="0">2</text>
<path d="M33580 78110
L33610 78090
L33660 78070
L33780 78070
L33830 78090
L33850 78110
L33870 78160
L33870 78210
L33850 78280
L33560 78580
L33870 78580
" />
</g>
<g style="fill:#840000; fill-opacity:0.0; 
stroke:#840000; stroke-width:100; stroke-opacity:1; 
stroke-linecap:round; stroke-linejoin:round;">
</g>
<g style="fill:#840000; fill-opacity:0.0; 
stroke:#840000; stroke-width:60; stroke-opacity:1; 
stroke-linecap:round; stroke-linejoin:round;">
<text x="53150" y="78600"
textLength="550" font-size="680" lengthAdjust="spacingAndGlyphs"
text-anchor="start" opacity="0">3</text>
<path d="M53250 78070
L53560 78070
L53390 78260
L53470 78260
L53520 78280
L53540 78310
L53560 78360
L53560 78480
L53540 78530
L53520 78550
L53470 78580
L53320 78580
L53270 78550
L53250 78530
" />
</g>
<g style="fill:#840000; fill-opacity:0.0; 
stroke:#840000; stroke-width:100; stroke-opacity:1; 
stroke-linecap:round; stroke-linejoin:round;">
</g>
<g style="fill:#840000; fill-opacity:0.0; 
stroke:#840000; stroke-width:60; stroke-opacity:1; 
stroke-linecap:round; stroke-linejoin:round;">
<text x="72830" y="78600"
textLength="550" font-size="680" lengthAdjust="spacingAndGlyphs"
text-anchor="start" opacity="0">4</text>
<path d="M73200 78240
L73200 78580
" />
<path d="M73070 78040
L72950 78410
L73270 78410
" />
</g>
<g style="fill:#840000; fill-opacity:0.0; 
stroke:#840000; stroke-width:100; stroke-opacity:1; 
stroke-linecap:round; stroke-linejoin:round;">
</g>
<g style="fill:#840000; fill-opacity:0.0; 
stroke:#840000; stroke-width:60; stroke-opacity:1; 
stroke-linecap:round; stroke-linejoin:round;">
<text x="92520" y="78600"
textLength="550" font-size="680" lengthAdjust="spacingAndGlyphs"
text-anchor="start" opacity="0">5</text>
<path d="M92910 78070
L92670 78070
L92640 78310
L92670 78280
L92720 78260
L92840 78260
L92890 78280
L92910 78310
L92930 78360
L92930 78480
L92910 78530
L92890 78550
L92840 78580
L92720 78580
L92670 78550
L92640 78530
" />
</g>
<g style="fill:#840000; fill-opacity:0.0; 
stroke:#840000; stroke-width:100; stroke-opacity:1; 
stroke-linecap:round; stroke-linejoin:round;">
</g>
<g style="fill:#840000; fill-opacity:0.0; 
stroke:#840000; stroke-width:60; stroke-opacity:1; 
stroke-linecap:round; stroke-linejoin:round;">
<text x="112200" y="78600"
textLength="550" font-size="680" lengthAdjust="spacingAndGlyphs"
text-anchor="start" opacity="0">6</text>
<path d="M112570 78070
L112470 78070
L112420 78090
L112400 78110
L112350 78190
L112320 78280
L112320 78480
L112350 78530
L112370 78550
L112420 78580
L112520 78580
L112570 78550
L112590 78530
L112610 78480
L112610 78360
L112590 78310
L112570 78280
L112520 78260
L112420 78260
L112370 78280
L112350 78310
L112320 78360
" />
</g>
<g style="fill:#840000; fill-opacity:0.0; 
stroke:#840000; stroke-width:100; stroke-opacity:1; 
stroke-linecap:round; stroke-linejoin:round;">
</g>
<g style="fill:#840000; fill-opacity:0.0; 
stroke:#840000; stroke-width:60; stroke-opacity:1; 
stroke-linecap:round; stroke-linejoin:round;">
<path d="M3940 23620
L4720 23620
" />
</g>
<g style="fill:#840000; fill-opacity:0.0; 
stroke:#840000; stroke-width:100; stroke-opacity:1; 
stroke-linecap:round; stroke-linejoin:round;">
</g>
<g style="fill:#840000; fill-opacity:0.0; 
stroke:#840000; stroke-width:60; stroke-opacity:1; 
stroke-linecap:round; stroke-linejoin:round;">
<path d="M3940 43310
L4720 43310
" />
</g>
<g style="fill:#840000; fill-opacity:0.0; 
stroke:#840000; stroke-width:100; stroke-opacity:1; 
stroke-linecap:round; stroke-linejoin:round;">
</g>
<g style="fill:#840000; fill-opacity:0.0; 
stroke:#840000; stroke-width:60; stroke-opacity:1; 
stroke-linecap:round; stroke-linejoin:round;">
<path d="M3940 62990
L4720 62990
" />
</g>
<g style="fill:#840000; fill-opacity:0.0; 
stroke:#840000; stroke-width:100; stroke-opacity:1; 
stroke-linecap:round; stroke-linejoin:round;">
</g>
<g style="fill:#840000; fill-opacity:0.0; 
stroke:#840000; stroke-width:60; stroke-opacity:1; 
stroke-linecap:round; stroke-linejoin:round;">
<text x="4330" y="14030"
textLength="500" font-size="680" lengthAdjust="spacingAndGlyphs"
text-anchor="middle" opacity="0">A</text>
<path d="M4200 13860
L4450 13860
" />
<path d="M4160 14010
L4330 13500
L4500 14010
" />
</g>
<g style="fill:#840000; fill-opacity:0.0; 
stroke:#840000; stroke-width:100; stroke-opacity:1; 
stroke-linecap:round; stroke-linejoin:round;">
</g>
<g style="fill:#840000; fill-opacity:0.0; 
stroke:#840000; stroke-width:60; stroke-opacity:1; 
stroke-linecap:round; stroke-linejoin:round;">
<text x="4330" y="33710"
textLength="570" font-size="680" lengthAdjust="spacingAndGlyphs"
text-anchor="middle" opacity="0">B</text>
<path d="M4360 33420
L4430 33440
L4460 33470
L4480 33520
L4480 33590
L4460 33640
L4430 33660
L4390 33690
L4190 33690
L4190 33180
L4360 33180
L4410 33200
L4430 33220
L4460 33270
L4460 33320
L4430 33370
L4410 33390
L4360 33420
L4190 33420
" />
</g>
<g style="fill:#840000; fill-opacity:0.0; 
stroke:#840000; stroke-width:100; stroke-opacity:1; 
stroke-linecap:round; stroke-linejoin:round;">
</g>
<g style="fill:#840000; fill-opacity:0.0; 
stroke:#840000; stroke-width:60; stroke-opacity:1; 
stroke-linecap:round; stroke-linejoin:round;">
<text x="4330" y="53400"
textLength="570" font-size="680" lengthAdjust="spacingAndGlyphs"
text-anchor="middle" opacity="0">C</text>
<path d="M4480 53330
L4460 53350
L4390 53380
L4340 53380
L4260 53350
L4220 53300
L4190 53250
L4170 53160
L4170 53080
L4190 52990
L4220 52940
L4260 52890
L4340 52870
L4390 52870
L4460 52890
L4480 52910
" />
</g>
<g style="fill:#840000; fill-opacity:0.0; 
stroke:#840000; stroke-width:100; stroke-opacity:1; 
stroke-linecap:round; stroke-linejoin:round;">
</g>
<g style="fill:#840000; fill-opacity:0.0; 
stroke:#840000; stroke-width:60; stroke-opacity:1; 
stroke-linecap:round; stroke-linejoin:round;">
<text x="4330" y="73080"
textLength="570" font-size="680" lengthAdjust="spacingAndGlyphs"
text-anchor="middle" opacity="0">D</text>
<path d="M4190 73060
L4190 72550
L4310 72550
L4390 72570
L4430 72620
L4460 72670
L4480 72760
L4480 72840
L4460 72930
L4430 72980
L4390 73030
L4310 73060
L4190 73060
" />
</g>
<g style="fill:#840000; fill-opacity:0.0; 
stroke:#840000; stroke-width:100; stroke-opacity:1; 
stroke-linecap:round; stroke-linejoin:round;">
</g>
<g style="fill:#840000; fill-opacity:0.0; 
stroke:#840000; stroke-width:60; stroke-opacity:1; 
stroke-linecap:round; stroke-linejoin:round;">
<path d="M112990 23620
L112210 23620
" />
</g>
<g style="fill:#840000; fill-opacity:0.0; 
stroke:#840000; stroke-width:100; stroke-opacity:1; 
stroke-linecap:round; stroke-linejoin:round;">
</g>
<g style="fill:#840000; fill-opacity:0.0; 
stroke:#840000; stroke-width:60; stroke-opacity:1; 
stroke-linecap:round; stroke-linejoin:round;">
<path d="M112990 43310
L112210 43310
" />
</g>
<g style="fill:#840000; fill-opacity:0.0; 
stroke:#840000; stroke-width:100; stroke-opacity:1; 
stroke-linecap:round; stroke-linejoin:round;">
</g>
<g style="fill:#840000; fill-opacity:0.0; 
stroke:#840000; stroke-width:60; stroke-opacity:1; 
stroke-linecap:round; stroke-linejoin:round;">
<path d="M112990 62990
L112210 62990
" />
</g>
<g style="fill:#840000; fill-opacity:0.0; 
stroke:#840000; stroke-width:100; stroke-opacity:1; 
stroke-linecap:round; stroke-linejoin:round;">
</g>
<g style="fill:#840000; fill-opacity:0.0; 
stroke:#840000; stroke-width:60; stroke-opacity:1; 
stroke-linecap:round; stroke-linejoin:round;">
<text x="112600" y="14030"
textLength="500" font-size="680" lengthAdjust="spacingAndGlyphs"
text-anchor="middle" opacity="0">A</text>
<path d="M112470 13860
L112720 13860
" />
<path d="M112430 14010
L112600 13500
L112770 14010
" />
</g>
<g style="fill:#840000; fill-opacity:0.0; 
stroke:#840000; stroke-width:100; stroke-opacity:1; 
stroke-linecap:round; stroke-linejoin:round;">
</g>
<g style="fill:#840000; fill-opacity:0.0; 
stroke:#840000; stroke-width:60; stroke-opacity:1; 
stroke-linecap:round; stroke-linejoin:round;">
<text x="112600" y="33710"
textLength="570" font-size="680" lengthAdjust="spacingAndGlyphs"
text-anchor="middle" opacity="0">B</text>
<path d="M112630 33420
L112700 33440
L112730 33470
L112750 33520
L112750 33590
L112730 33640
L112700 33660
L112660 33690
L112460 33690
L112460 33180
L112630 33180
L112680 33200
L112700 33220
L112730 33270
L112730 33320
L112700 33370
L112680 33390
L112630 33420
L112460 33420
" />
</g>
<g style="fill:#840000; fill-opacity:0.0; 
stroke:#840000; stroke-width:100; stroke-opacity:1; 
stroke-linecap:round; stroke-linejoin:round;">
</g>
<g style="fill:#840000; fill-opacity:0.0; 
stroke:#840000; stroke-width:60; stroke-opacity:1; 
stroke-linecap:round; stroke-linejoin:round;">
<text x="112600" y="53400"
textLength="570" font-size="680" lengthAdjust="spacingAndGlyphs"
text-anchor="middle" opacity="0">C</text>
<path d="M112750 53330
L112730 53350
L112660 53380
L112610 53380
L112530 53350
L112490 53300
L112460 53250
L112440 53160
L112440 53080
L112460 52990
L112490 52940
L112530 52890
L112610 52870
L112660 52870
L112730 52890
L112750 52910
" />
</g>
<g style="fill:#840000; fill-opacity:0.0; 
stroke:#840000; stroke-width:100; stroke-opacity:1; 
stroke-linecap:round; stroke-linejoin:round;">
</g>
<g style="fill:#840000; fill-opacity:0.0; 
stroke:#840000; stroke-width:60; stroke-opacity:1; 
stroke-linecap:round; stroke-linejoin:round;">
<text x="112600" y="73080"
textLength="570" font-size="680" lengthAdjust="spacingAndGlyphs"
text-anchor="middle" opacity="0">D</text>
<path d="M112460 73060
L112460 72550
L112580 72550
L112660 72570
L112700 72620
L112730 72670
L112750 72760
L112750 72840
L112730 72930
L112700 72980
L112660 73030
L112580 73060
L112460 73060
" />
</g>
<g style="fill:#840000; fill-opacity:0.0; 
stroke:#840000; stroke-width:100; stroke-opacity:1; 
stroke-linecap:round; stroke-linejoin:round;">
</g>
<g style="fill:#840000; fill-opacity:0.0; 
stroke:#840000; stroke-width:60; stroke-opacity:1; 
stroke-linecap:round; stroke-linejoin:round;">
<text x="78740" y="76320"
textLength="2760" font-size="780" lengthAdjust="spacingAndGlyphs"
text-anchor="start" opacity="0">Date: </text>
<path d="M78910 76290
L78910 75700
L79050 75700
L79130 75730
L79190 75790
L79210 75840
L79240 75950
L79240 76040
L79210 76150
L79190 76210
L79130 76260
L79050 76290
L78910 76290
" />
<path d="M79750 76290
L79750 75980
L79720 75930
L79660 75900
L79550 75900
L79500 75930
" />
<path d="M79750 76260
L79690 76290
L79550 76290
L79500 76260
L79470 76210
L79470 76150
L79500 76100
L79550 76070
L79690 76070
L79750 76040
" />
<path d="M79950 75900
L80170 75900
" />
<path d="M80030 75700
L80030 76210
L80060 76260
L80110 76290
L80170 76290
" />
<path d="M80590 76260
L80540 76290
L80420 76290
L80370 76260
L80340 76210
L80340 75980
L80370 75930
L80420 75900
L80540 75900
L80590 75930
L80620 75980
L80620 76040
L80340 76100
" />
<path d="M80870 76240
L80900 76260
L80870 76290
L80840 76260
L80870 76240
L80870 76290
" />
<path d="M80870 75930
L80900 75950
L80870 75980
L80840 75950
L80870 75930
L80870 75980
" />
</g>
<g style="fill:#840000; fill-opacity:0.0; 
stroke:#840000; stroke-width:100; stroke-opacity:1; 
stroke-linecap:round; stroke-linejoin:round;">
</g>
<g style="fill:#840000; fill-opacity:0.0; 
stroke:#840000; stroke-width:60; stroke-opacity:1; 
stroke-linecap:round; stroke-linejoin:round;">
<path d="M69690 76580
L112210 76580
" />
</g>
<g style="fill:#840000; fill-opacity:0.0; 
stroke:#840000; stroke-width:100; stroke-opacity:1; 
stroke-linecap:round; stroke-linejoin:round;">
</g>
<g style="fill:#840000; fill-opacity:0.0; 
stroke:#840000; stroke-width:60; stroke-opacity:1; 
stroke-linecap:round; stroke-linejoin:round;">
<text x="70080" y="77420"
textLength="23550" font-size="780" lengthAdjust="spacingAndGlyphs"
text-anchor="start" opacity="0">KiCad E.D.A.  kicad 5.1.5-52549c5~86~ubuntu18.04.1</text>
<path d="M70250 77390
L70250 76800
" />
<path d="M70580 77390
L70330 77050
" />
<path d="M70580 76800
L70250 77140
" />
<path d="M70840 77390
L70840 77000
" />
<path d="M70840 76800
L70810 76830
L70840 76860
L70860 76830
L70840 76800
L70840 76860
" />
<path d="M71450 77340
L71430 77360
L71340 77390
L71290 77390
L71200 77360
L71140 77310
L71120 77250
L71090 77140
L71090 77050
L71120 76940
L71140 76890
L71200 76830
L71290 76800
L71340 76800
L71430 76830
L71450 76860
" />
<path d="M71960 77390
L71960 77080
L71930 77030
L71880 77000
L71760 77000
L71710 77030
" />
<path d="M71960 77360
L71900 77390
L71760 77390
L71710 77360
L71680 77310
L71680 77250
L71710 77200
L71760 77170
L71900 77170
L71960 77140
" />
<path d="M72490 77390
L72490 76800
" />
<path d="M72490 77360
L72440 77390
L72320 77390
L72270 77360
L72240 77340
L72210 77280
L72210 77110
L72240 77050
L72270 77030
L72320 77000
L72440 77000
L72490 77030
" />
<path d="M73220 77080
L73420 77080
" />
<path d="M73500 77390
L73220 77390
L73220 76800
L73500 76800
" />
<path d="M73760 77340
L73790 77360
L73760 77390
L73730 77360
L73760 77340
L73760 77390
" />
<path d="M74040 77390
L74040 76800
L74180 76800
L74260 76830
L74320 76890
L74350 76940
L74380 77050
L74380 77140
L74350 77250
L74320 77310
L74260 77360
L74180 77390
L74040 77390
" />
<path d="M74630 77340
L74660 77360
L74630 77390
L74600 77360
L74630 77340
L74630 77390
" />
<path d="M74880 77220
L75160 77220
" />
<path d="M74830 77390
L75020 76800
L75220 77390
" />
<path d="M75420 77340
L75440 77360
L75420 77390
L75390 77360
L75420 77340
L75420 77390
" />
<path d="M76600 77390
L76600 76800
" />
<path d="M76650 77170
L76820 77390
" />
<path d="M76820 77000
L76600 77220
" />
<path d="M77070 77390
L77070 77000
" />
<path d="M77070 76800
L77040 76830
L77070 76860
L77100 76830
L77070 76800
L77070 76860
" />
<path d="M77610 77360
L77550 77390
L77440 77390
L77380 77360
L77350 77340
L77330 77280
L77330 77110
L77350 77050
L77380 77030
L77440 77000
L77550 77000
L77610 77030
" />
<path d="M78110 77390
L78110 77080
L78080 77030
L78030 77000
L77920 77000
L77860 77030
" />
<path d="M78110 77360
L78060 77390
L77920 77390
L77860 77360
L77830 77310
L77830 77250
L77860 77200
L77920 77170
L78060 77170
L78110 77140
" />
<path d="M78650 77390
L78650 76800
" />
<path d="M78650 77360
L78590 77390
L78480 77390
L78420 77360
L78390 77340
L78370 77280
L78370 77110
L78390 77050
L78420 77030
L78480 77000
L78590 77000
L78650 77030
" />
<path d="M79660 76800
L79380 76800
L79350 77080
L79380 77050
L79430 77030
L79570 77030
L79630 77050
L79660 77080
L79690 77140
L79690 77280
L79660 77340
L79630 77360
L79570 77390
L79430 77390
L79380 77360
L79350 77340
" />
<path d="M79940 77340
L79970 77360
L79940 77390
L79910 77360
L79940 77340
L79940 77390
" />
<path d="M80530 77390
L80190 77390
" />
<path d="M80360 77390
L80360 76800
L80300 76890
L80250 76940
L80190 76970
" />
<path d="M80780 77340
L80810 77360
L80780 77390
L80750 77360
L80780 77340
L80780 77390
" />
<path d="M81340 76800
L81060 76800
L81030 77080
L81060 77050
L81120 77030
L81260 77030
L81320 77050
L81340 77080
L81370 77140
L81370 77280
L81340 77340
L81320 77360
L81260 77390
L81120 77390
L81060 77360
L81030 77340
" />
<path d="M81620 77170
L82070 77170
" />
<path d="M82640 76800
L82350 76800
L82330 77080
L82350 77050
L82410 77030
L82550 77030
L82610 77050
L82640 77080
L82660 77140
L82660 77280
L82640 77340
L82610 77360
L82550 77390
L82410 77390
L82350 77360
L82330 77340
" />
<path d="M82890 76860
L82920 76830
L82970 76800
L83110 76800
L83170 76830
L83200 76860
L83230 76910
L83230 76970
L83200 77050
L82860 77390
L83230 77390
" />
<path d="M83760 76800
L83480 76800
L83450 77080
L83480 77050
L83530 77030
L83680 77030
L83730 77050
L83760 77080
L83790 77140
L83790 77280
L83760 77340
L83730 77360
L83680 77390
L83530 77390
L83480 77360
L83450 77340
" />
<path d="M84290 77000
L84290 77390
" />
<path d="M84150 76770
L84010 77200
L84380 77200
" />
<path d="M84630 77390
L84740 77390
L84800 77360
L84830 77340
L84880 77250
L84910 77140
L84910 76910
L84880 76860
L84860 76830
L84800 76800
L84690 76800
L84630 76830
L84600 76860
L84570 76910
L84570 77050
L84600 77110
L84630 77140
L84690 77170
L84800 77170
L84860 77140
L84880 77110
L84910 77050
" />
<path d="M85420 77360
L85360 77390
L85250 77390
L85190 77360
L85160 77340
L85140 77280
L85140 77110
L85160 77050
L85190 77030
L85250 77000
L85360 77000
L85420 77030
" />
<path d="M85950 76800
L85670 76800
L85640 77080
L85670 77050
L85730 77030
L85870 77030
L85920 77050
L85950 77080
L85980 77140
L85980 77280
L85950 77340
L85920 77360
L85870 77390
L85730 77390
L85670 77360
L85640 77340
" />
<path d="M86090 76640
L86650 76640
" />
<path d="M86320 77050
L86260 77030
L86230 77000
L86200 76940
L86200 76910
L86230 76860
L86260 76830
L86320 76800
L86430 76800
L86480 76830
L86510 76860
L86540 76910
L86540 76940
L86510 77000
L86480 77030
L86430 77050
L86320 77050
L86260 77080
L86230 77110
L86200 77170
L86200 77280
L86230 77340
L86260 77360
L86320 77390
L86430 77390
L86480 77360
L86510 77340
L86540 77280
L86540 77170
L86510 77110
L86480 77080
L86430 77050
" />
<path d="M86650 76640
L87220 76640
" />
<path d="M87050 76800
L86930 76800
L86880 76830
L86850 76860
L86790 76940
L86770 77050
L86770 77280
L86790 77340
L86820 77360
L86880 77390
L86990 77390
L87050 77360
L87070 77340
L87100 77280
L87100 77140
L87070 77080
L87050 77050
L86990 77030
L86880 77030
L86820 77050
L86790 77080
L86770 77140
" />
<path d="M87610 77000
L87610 77390
" />
<path d="M87360 77000
L87360 77310
L87380 77360
L87440 77390
L87520 77390
L87580 77360
L87610 77340
" />
<path d="M87890 77390
L87890 76800
" />
<path d="M87890 77030
L87950 77000
L88060 77000
L88110 77030
L88140 77050
L88170 77110
L88170 77280
L88140 77340
L88110 77360
L88060 77390
L87950 77390
L87890 77360
" />
<path d="M88680 77000
L88680 77390
" />
<path d="M88420 77000
L88420 77310
L88450 77360
L88510 77390
L88590 77390
L88650 77360
L88680 77340
" />
<path d="M88960 77000
L88960 77390
" />
<path d="M88960 77050
L88990 77030
L89040 77000
L89130 77000
L89180 77030
L89210 77080
L89210 77390
" />
<path d="M89410 77000
L89630 77000
" />
<path d="M89490 76800
L89490 77310
L89520 77360
L89580 77390
L89630 77390
" />
<path d="M90080 77000
L90080 77390
" />
<path d="M89830 77000
L89830 77310
L89860 77360
L89910 77390
L90000 77390
L90050 77360
L90080 77340
" />
<path d="M90670 77390
L90330 77390
" />
<path d="M90500 77390
L90500 76800
L90450 76890
L90390 76940
L90330 76970
" />
<path d="M91010 77050
L90950 77030
L90920 77000
L90900 76940
L90900 76910
L90920 76860
L90950 76830
L91010 76800
L91120 76800
L91180 76830
L91200 76860
L91230 76910
L91230 76940
L91200 77000
L91180 77030
L91120 77050
L91010 77050
L90950 77080
L90920 77110
L90900 77170
L90900 77280
L90920 77340
L90950 77360
L91010 77390
L91120 77390
L91180 77360
L91200 77340
L91230 77280
L91230 77170
L91200 77110
L91180 77080
L91120 77050
" />
<path d="M91490 77340
L91510 77360
L91490 77390
L91460 77360
L91490 77340
L91490 77390
" />
<path d="M91880 76800
L91940 76800
L91990 76830
L92020 76860
L92050 76910
L92080 77030
L92080 77170
L92050 77280
L92020 77340
L91990 77360
L91940 77390
L91880 77390
L91820 77360
L91790 77340
L91770 77280
L91740 77170
L91740 77030
L91770 76910
L91790 76860
L91820 76830
L91880 76800
" />
<path d="M92580 77000
L92580 77390
" />
<path d="M92440 76770
L92300 77200
L92670 77200
" />
<path d="M92890 77340
L92920 77360
L92890 77390
L92860 77360
L92890 77340
L92890 77390
" />
<path d="M93480 77390
L93140 77390
" />
<path d="M93310 77390
L93310 76800
L93260 76890
L93200 76940
L93140 76970
" />
</g>
<g style="fill:#840000; fill-opacity:0.0; 
stroke:#840000; stroke-width:100; stroke-opacity:1; 
stroke-linecap:round; stroke-linejoin:round;">
</g>
<g style="fill:#840000; fill-opacity:0.0; 
stroke:#840000; stroke-width:60; stroke-opacity:1; 
stroke-linecap:round; stroke-linejoin:round;">
<path d="M69690 75400
L112210 75400
" />
</g>
<g style="fill:#840000; fill-opacity:0.0; 
stroke:#840000; stroke-width:100; stroke-opacity:1; 
stroke-linecap:round; stroke-linejoin:round;">
</g>
<g style="fill:#840000; fill-opacity:0.0; 
stroke:#840000; stroke-width:120; stroke-opacity:1; 
stroke-linecap:round; stroke-linejoin:round;">
<text x="103540" y="76320"
textLength="2340" font-size="780" lengthAdjust="spacingAndGlyphs"
text-anchor="start" opacity="0">Rev: </text>
<path d="M104090 76290
L103890 76010
" />
<path d="M103750 76290
L103750 75700
L103980 75700
L104030 75730
L104060 75760
L104090 75810
L104090 75900
L104060 75950
L104030 75980
L103980 76010
L103750 76010
" />
<path d="M104570 76260
L104510 76290
L104400 76290
L104340 76260
L104320 76210
L104320 75980
L104340 75930
L104400 75900
L104510 75900
L104570 75930
L104600 75980
L104600 76040
L104320 76100
" />
<path d="M104790 75900
L104930 76290
L105070 75900
" />
<path d="M105300 76240
L105330 76260
L105300 76290
L105270 76260
L105300 76240
L105300 76290
" />
<path d="M105300 75930
L105330 75950
L105300 75980
L105270 75950
L105300 75930
L105300 75980
" />
</g>
<g style="fill:#840000; fill-opacity:0.0; 
stroke:#840000; stroke-width:100; stroke-opacity:1; 
stroke-linecap:round; stroke-linejoin:round;">
</g>
<g style="fill:#840000; fill-opacity:0.0; 
stroke:#840000; stroke-width:60; stroke-opacity:1; 
stroke-linecap:round; stroke-linejoin:round;">
<text x="70080" y="76320"
textLength="3780" font-size="780" lengthAdjust="spacingAndGlyphs"
text-anchor="start" opacity="0">Size: A4</text>
<path d="M70220 76260
L70300 76290
L70440 76290
L70500 76260
L70530 76240
L70550 76180
L70550 76120
L70530 76070
L70500 76040
L70440 76010
L70330 75980
L70270 75950
L70250 75930
L70220 75870
L70220 75810
L70250 75760
L70270 75730
L70330 75700
L70470 75700
L70550 75730
" />
<path d="M70810 76290
L70810 75900
" />
<path d="M70810 75700
L70780 75730
L70810 75760
L70840 75730
L70810 75700
L70810 75760
" />
<path d="M71030 75900
L71340 75900
L71030 76290
L71340 76290
" />
<path d="M71790 76260
L71730 76290
L71620 76290
L71570 76260
L71540 76210
L71540 75980
L71570 75930
L71620 75900
L71730 75900
L71790 75930
L71820 75980
L71820 76040
L71540 76100
" />
<path d="M72070 76240
L72100 76260
L72070 76290
L72040 76260
L72070 76240
L72070 76290
" />
<path d="M72070 75930
L72100 75950
L72070 75980
L72040 75950
L72070 75930
L72070 75980
" />
<path d="M72770 76120
L73060 76120
" />
<path d="M72720 76290
L72910 75700
L73110 76290
" />
<path d="M73560 75900
L73560 76290
" />
<path d="M73420 75670
L73280 76100
L73650 76100
" />
</g>
<g style="fill:#840000; fill-opacity:0.0; 
stroke:#840000; stroke-width:100; stroke-opacity:1; 
stroke-linecap:round; stroke-linejoin:round;">
</g>
<g style="fill:#840000; fill-opacity:0.0; 
stroke:#840000; stroke-width:60; stroke-opacity:1; 
stroke-linecap:round; stroke-linejoin:round;">
<text x="103540" y="77420"
textLength="3350" font-size="780" lengthAdjust="spacingAndGlyphs"
text-anchor="start" opacity="0">Id: 2/2</text>
<path d="M103710 77390
L103710 76800
" />
<path d="M104240 77390
L104240 76800
" />
<path d="M104240 77360
L104180 77390
L104070 77390
L104010 77360
L103990 77340
L103960 77280
L103960 77110
L103990 77050
L104010 77030
L104070 77000
L104180 77000
L104240 77030
" />
<path d="M104520 77340
L104550 77360
L104520 77390
L104490 77360
L104520 77340
L104520 77390
" />
<path d="M104520 77030
L104550 77050
L104520 77080
L104490 77050
L104520 77030
L104520 77080
" />
<path d="M105220 76860
L105250 76830
L105310 76800
L105450 76800
L105500 76830
L105530 76860
L105560 76910
L105560 76970
L105530 77050
L105190 77390
L105560 77390
" />
<path d="M106230 76770
L105730 77530
" />
<path d="M106400 76860
L106430 76830
L106490 76800
L106630 76800
L106680 76830
L106710 76860
L106740 76910
L106740 76970
L106710 77050
L106370 77390
L106740 77390
" />
</g>
<g style="fill:#840000; fill-opacity:0.0; 
stroke:#840000; stroke-width:100; stroke-opacity:1; 
stroke-linecap:round; stroke-linejoin:round;">
</g>
<g style="fill:#840000; fill-opacity:0.0; 
stroke:#840000; stroke-width:60; stroke-opacity:1; 
stroke-linecap:round; stroke-linejoin:round;">
<path d="M69690 73820
L112210 73820
" />
</g>
<g style="fill:#840000; fill-opacity:0.0; 
stroke:#840000; stroke-width:100; stroke-opacity:1; 
stroke-linecap:round; stroke-linejoin:round;">
</g>
<g style="fill:#840000; fill-opacity:0.0; 
stroke:#840000; stroke-width:160; stroke-opacity:1; 
stroke-linecap:round; stroke-linejoin:round;">
<text x="70080" y="74920"
textLength="3710" font-size="1050" lengthAdjust="spacingAndGlyphs"
text-anchor="start" opacity="0">Title: </text>
<path d="M70360 74090
L70810 74090
" />
<path d="M70480 74880
L70580 74090
" />
<path d="M70970 74880
L71040 74360
" />
<path d="M71070 74090
L71030 74130
L71060 74170
L71110 74130
L71070 74090
L71060 74170
" />
<path d="M71300 74360
L71600 74360
" />
<path d="M71450 74090
L71360 74770
L71390 74840
L71460 74880
L71540 74880
" />
<path d="M71910 74880
L71840 74840
L71820 74770
L71900 74090
" />
<path d="M72520 74840
L72440 74880
L72290 74880
L72220 74840
L72190 74770
L72230 74470
L72280 74390
L72360 74360
L72510 74360
L72580 74390
L72610 74470
L72600 74540
L72210 74620
" />
<path d="M72900 74810
L72930 74840
L72890 74880
L72860 74840
L72900 74810
L72890 74880
" />
<path d="M72950 74390
L72990 74430
L72940 74470
L72910 74430
L72950 74390
L72940 74470
" />
</g>
<g style="fill:#840000; fill-opacity:0.0; 
stroke:#840000; stroke-width:100; stroke-opacity:1; 
stroke-linecap:round; stroke-linejoin:round;">
</g>
<g style="fill:#840000; fill-opacity:0.0; 
stroke:#840000; stroke-width:60; stroke-opacity:1; 
stroke-linecap:round; stroke-linejoin:round;">
<text x="70080" y="73400"
textLength="8950" font-size="780" lengthAdjust="spacingAndGlyphs"
text-anchor="start" opacity="0">File: LED_Driver.sch</text>
<path d="M70440 73060
L70250 73060
" />
<path d="M70250 73370
L70250 72780
L70530 72780
" />
<path d="M70750 73370
L70750 72980
" />
<path d="M70750 72780
L70720 72810
L70750 72840
L70780 72810
L70750 72780
L70750 72840
" />
<path d="M71120 73370
L71060 73340
L71030 73290
L71030 72780
" />
<path d="M71570 73340
L71510 73370
L71400 73370
L71340 73340
L71310 73290
L71310 73060
L71340 73010
L71400 72980
L71510 72980
L71570 73010
L71590 73060
L71590 73120
L71310 73180
" />
<path d="M71850 73320
L71880 73340
L71850 73370
L71820 73340
L71850 73320
L71850 73370
" />
<path d="M71850 73010
L71880 73030
L71850 73060
L71820 73030
L71850 73010
L71850 73060
" />
<path d="M72860 73370
L72580 73370
L72580 72780
" />
<path d="M73060 73060
L73250 73060
" />
<path d="M73340 73370
L73060 73370
L73060 72780
L73340 72780
" />
<path d="M73590 73370
L73590 72780
L73730 72780
L73810 72810
L73870 72870
L73900 72920
L73930 73030
L73930 73120
L73900 73230
L73870 73290
L73810 73340
L73730 73370
L73590 73370
" />
<path d="M74040 73430
L74490 73430
" />
<path d="M74630 73370
L74630 72780
L74770 72780
L74850 72810
L74910 72870
L74940 72920
L74970 73030
L74970 73120
L74940 73230
L74910 73290
L74850 73340
L74770 73370
L74630 73370
" />
<path d="M75220 73370
L75220 72980
" />
<path d="M75220 73090
L75250 73030
L75270 73010
L75330 72980
L75390 72980
" />
<path d="M75580 73370
L75580 72980
" />
<path d="M75580 72780
L75560 72810
L75580 72840
L75610 72810
L75580 72780
L75580 72840
" />
<path d="M75810 72980
L75950 73370
L76090 72980
" />
<path d="M76540 73340
L76480 73370
L76370 73370
L76310 73340
L76290 73290
L76290 73060
L76310 73010
L76370 72980
L76480 72980
L76540 73010
L76570 73060
L76570 73120
L76290 73180
" />
<path d="M76820 73370
L76820 72980
" />
<path d="M76820 73090
L76850 73030
L76880 73010
L76930 72980
L76990 72980
" />
<path d="M77190 73320
L77210 73340
L77190 73370
L77160 73340
L77190 73320
L77190 73370
" />
<path d="M77440 73340
L77490 73370
L77610 73370
L77660 73340
L77690 73290
L77690 73260
L77660 73200
L77610 73180
L77520 73180
L77470 73150
L77440 73090
L77440 73060
L77470 73010
L77520 72980
L77610 72980
L77660 73010
" />
<path d="M78200 73340
L78140 73370
L78030 73370
L77970 73340
L77940 73320
L77920 73260
L77920 73090
L77940 73030
L77970 73010
L78030 72980
L78140 72980
L78200 73010
" />
<path d="M78450 73370
L78450 72780
" />
<path d="M78700 73370
L78700 73060
L78670 73010
L78620 72980
L78530 72980
L78480 73010
L78450 73030
" />
</g>
<g style="fill:#840000; fill-opacity:0.0; 
stroke:#840000; stroke-width:100; stroke-opacity:1; 
stroke-linecap:round; stroke-linejoin:round;">
</g>
<g style="fill:#840000; fill-opacity:0.0; 
stroke:#840000; stroke-width:60; stroke-opacity:1; 
stroke-linecap:round; stroke-linejoin:round;">
<path d="M69690 71460
L112210 71460
" />
</g>
<g style="fill:#840000; fill-opacity:0.0; 
stroke:#840000; stroke-width:100; stroke-opacity:1; 
stroke-linecap:round; stroke-linejoin:round;">
</g>
<g style="fill:#840000; fill-opacity:0.0; 
stroke:#840000; stroke-width:60; stroke-opacity:1; 
stroke-linecap:round; stroke-linejoin:round;">
<text x="70080" y="72340"
textLength="15150" font-size="780" lengthAdjust="spacingAndGlyphs"
text-anchor="start" opacity="0">Sheet: /UV_LED_DRIVER_MODULE/</text>
<path d="M70220 72280
L70300 72310
L70440 72310
L70500 72280
L70530 72260
L70550 72200
L70550 72140
L70530 72090
L70500 72060
L70440 72030
L70330 72000
L70270 71970
L70250 71950
L70220 71890
L70220 71830
L70250 71780
L70270 71750
L70330 71720
L70470 71720
L70550 71750
" />
<path d="M70810 72310
L70810 71720
" />
<path d="M71060 72310
L71060 72000
L71030 71950
L70980 71920
L70890 71920
L70840 71950
L70810 71970
" />
<path d="M71570 72280
L71510 72310
L71400 72310
L71340 72280
L71310 72230
L71310 72000
L71340 71950
L71400 71920
L71510 71920
L71570 71950
L71590 72000
L71590 72060
L71310 72120
" />
<path d="M72070 72280
L72020 72310
L71900 72310
L71850 72280
L71820 72230
L71820 72000
L71850 71950
L71900 71920
L72020 71920
L72070 71950
L72100 72000
L72100 72060
L71820 72120
" />
<path d="M72270 71920
L72490 71920
" />
<path d="M72350 71720
L72350 72230
L72380 72280
L72440 72310
L72490 72310
" />
<path d="M72690 72260
L72720 72280
L72690 72310
L72660 72280
L72690 72260
L72690 72310
" />
<path d="M72690 71950
L72720 71970
L72690 72000
L72660 71970
L72690 71950
L72690 72000
" />
<path d="M73840 71690
L73340 72450
" />
<path d="M74040 71720
L74040 72200
L74070 72260
L74090 72280
L74150 72310
L74260 72310
L74320 72280
L74350 72260
L74380 72200
L74380 71720
" />
<path d="M74570 71720
L74770 72310
L74970 71720
" />
<path d="M75020 72370
L75470 72370
" />
<path d="M75890 72310
L75610 72310
L75610 71720
" />
<path d="M76090 72000
L76290 72000
" />
<path d="M76370 72310
L76090 72310
L76090 71720
L76370 71720
" />
<path d="M76620 72310
L76620 71720
L76760 71720
L76850 71750
L76900 71810
L76930 71860
L76960 71970
L76960 72060
L76930 72170
L76900 72230
L76850 72280
L76760 72310
L76620 72310
" />
<path d="M77070 72370
L77520 72370
" />
<path d="M77660 72310
L77660 71720
L77800 71720
L77890 71750
L77940 71810
L77970 71860
L78000 71970
L78000 72060
L77970 72170
L77940 72230
L77890 72280
L77800 72310
L77660 72310
" />
<path d="M78590 72310
L78390 72030
" />
<path d="M78250 72310
L78250 71720
L78480 71720
L78530 71750
L78560 71780
L78590 71830
L78590 71920
L78560 71970
L78530 72000
L78480 72030
L78250 72030
" />
<path d="M78840 72310
L78840 71720
" />
<path d="M79040 71720
L79240 72310
L79430 71720
" />
<path d="M79630 72000
L79830 72000
" />
<path d="M79910 72310
L79630 72310
L79630 71720
L79910 71720
" />
<path d="M80500 72310
L80300 72030
" />
<path d="M80160 72310
L80160 71720
L80390 71720
L80440 71750
L80470 71780
L80500 71830
L80500 71920
L80470 71970
L80440 72000
L80390 72030
L80160 72030
" />
<path d="M80610 72370
L81060 72370
" />
<path d="M81200 72310
L81200 71720
L81400 72140
L81600 71720
L81600 72310
" />
<path d="M81990 71720
L82100 71720
L82160 71750
L82210 71810
L82240 71920
L82240 72120
L82210 72230
L82160 72280
L82100 72310
L81990 72310
L81930 72280
L81880 72230
L81850 72120
L81850 71920
L81880 71810
L81930 71750
L81990 71720
" />
<path d="M82500 72310
L82500 71720
L82640 71720
L82720 71750
L82780 71810
L82800 71860
L82830 71970
L82830 72060
L82800 72170
L82780 72230
L82720 72280
L82640 72310
L82500 72310
" />
<path d="M83090 71720
L83090 72200
L83110 72260
L83140 72280
L83200 72310
L83310 72310
L83370 72280
L83390 72260
L83420 72200
L83420 71720
" />
<path d="M83980 72310
L83700 72310
L83700 71720
" />
<path d="M84180 72000
L84380 72000
" />
<path d="M84460 72310
L84180 72310
L84180 71720
L84460 71720
" />
<path d="M85140 71690
L84630 72450
" />
</g>
<g style="fill:#840000; fill-opacity:0.0; 
stroke:#840000; stroke-width:100; stroke-opacity:1; 
stroke-linecap:round; stroke-linejoin:round;">
</g>
<g style="fill:#840000; fill-opacity:0.0; 
stroke:#840000; stroke-width:60; stroke-opacity:1; 
stroke-linecap:round; stroke-linejoin:round;">
<path d="M77560 75400
L77560 76580
" />
</g>
<g style="fill:#840000; fill-opacity:0.0; 
stroke:#840000; stroke-width:100; stroke-opacity:1; 
stroke-linecap:round; stroke-linejoin:round;">
</g>
<g style="fill:#840000; fill-opacity:0.0; 
stroke:#840000; stroke-width:60; stroke-opacity:1; 
stroke-linecap:round; stroke-linejoin:round;">
<path d="M102760 75400
L102760 77960
" />
</g>
<g style="fill:#840000; fill-opacity:0.0; 
stroke:#840000; stroke-width:0; stroke-opacity:1; 
stroke-linecap:round; stroke-linejoin:round;">
<g >
</g>
<g style="fill:#840000; fill-opacity:0.0; 
stroke:#840000; stroke-width:100; stroke-opacity:1; 
stroke-linecap:round; stroke-linejoin:round;">
<rect x="61250" y="37850" width="2000" height="800" rx="0" />
</g>
<g style="fill:#840000; fill-opacity:0.0; 
stroke:#840000; stroke-width:60; stroke-opacity:1; 
stroke-linecap:round; stroke-linejoin:round;">
<path d="M63250 38250
L63750 38250
" />
<path d="M61250 38250
L60750 38250
" />
</g>
<g style="fill:#008484; fill-opacity:0.0; 
stroke:#008484; stroke-width:60; stroke-opacity:1; 
stroke-linecap:round; stroke-linejoin:round;">
<text x="62250" y="36450"
textLength="1040" font-size="660" lengthAdjust="spacingAndGlyphs"
text-anchor="middle" opacity="0">R1</text>
<path d="M62160 36420
L62000 36180
" />
<path d="M61880 36420
L61880 35920
L62070 35920
L62110 35950
L62140 35970
L62160 36020
L62160 36090
L62140 36140
L62110 36160
L62070 36180
L61880 36180
" />
<path d="M62640 36420
L62350 36420
" />
<path d="M62500 36420
L62500 35920
L62450 35990
L62400 36040
L62350 36060
" />
<text x="62250" y="37360"
textLength="1040" font-size="660" lengthAdjust="spacingAndGlyphs"
text-anchor="middle" opacity="0">1K</text>
<path d="M62140 37330
L61850 37330
" />
<path d="M62000 37330
L62000 36830
L61950 36900
L61900 36950
L61850 36970
" />
<path d="M62350 37330
L62350 36830
" />
<path d="M62640 37330
L62420 37050
" />
<path d="M62640 36830
L62350 37120
" />
</g>
</g>
<g style="fill:#008484; fill-opacity:0.0; 
stroke:#008484; stroke-width:0; stroke-opacity:1; 
stroke-linecap:round; stroke-linejoin:round;">
<g >
</g>
<g style="fill:#840000; fill-opacity:0.0; 
stroke:#840000; stroke-width:0; stroke-opacity:1; 
stroke-linecap:round; stroke-linejoin:round;">
</g>
<g style="fill:#840000; fill-opacity:0.0; 
stroke:#840000; stroke-width:60; stroke-opacity:1; 
stroke-linecap:round; stroke-linejoin:round;">
<rect x="52350" y="28350" width="1800" height="200" rx="0" />
</g>
<g style="fill:#840000; fill-opacity:1.0; 
stroke:#840000; stroke-width:60; stroke-opacity:1; 
stroke-linecap:round; stroke-linejoin:round;">
<rect x="52350" y="28950" width="1800" height="200" rx="0" />
</g>
<g style="fill:#840000; fill-opacity:0.0; 
stroke:#840000; stroke-width:60; stroke-opacity:1; 
stroke-linecap:round; stroke-linejoin:round;">
<path style="fill:#840000; fill-opacity:0.0; 
stroke:#840000; stroke-width:60; stroke-opacity:1; 
stroke-linecap:round; stroke-linejoin:round;fill:none"
d="M 52550,27850
52950,27850
" /> 
<path style="fill:#840000; fill-opacity:0.0; 
stroke:#840000; stroke-width:60; stroke-opacity:1; 
stroke-linecap:round; stroke-linejoin:round;fill:none"
d="M 52750,27650
52750,28050
" /> 
<path d="M53250 28350
L53250 27250
" />
<path d="M53250 29150
L53250 30250
" />
</g>
<g style="fill:#008484; fill-opacity:0.0; 
stroke:#008484; stroke-width:60; stroke-opacity:1; 
stroke-linecap:round; stroke-linejoin:round;">
<text x="54950" y="28560"
textLength="1040" font-size="660" lengthAdjust="spacingAndGlyphs"
text-anchor="middle" opacity="0">C1</text>
<path d="M54860 28480
L54840 28510
L54770 28530
L54720 28530
L54650 28510
L54600 28460
L54580 28410
L54550 28320
L54550 28250
L54580 28150
L54600 28100
L54650 28060
L54720 28030
L54770 28030
L54840 28060
L54860 28080
" />
<path d="M55340 28530
L55050 28530
" />
<path d="M55200 28530
L55200 28030
L55150 28100
L55100 28150
L55050 28170
" />
<text x="55140" y="29470"
textLength="1420" font-size="660" lengthAdjust="spacingAndGlyphs"
text-anchor="middle" opacity="0">1uF</text>
<path d="M54840 29440
L54550 29440
" />
<path d="M54690 29440
L54690 28940
L54650 29010
L54600 29060
L54550 29080
" />
<path d="M55270 29110
L55270 29440
" />
<path d="M55050 29110
L55050 29370
L55080 29420
L55120 29440
L55190 29440
L55240 29420
L55270 29390
" />
<path d="M55670 29180
L55500 29180
" />
<path d="M55500 29440
L55500 28940
L55740 28940
" />
</g>
</g>
<g style="fill:#008484; fill-opacity:0.0; 
stroke:#008484; stroke-width:0; stroke-opacity:1; 
stroke-linecap:round; stroke-linejoin:round;">
<g >
</g>
<g style="fill:#840000; fill-opacity:0.0; 
stroke:#840000; stroke-width:0; stroke-opacity:1; 
stroke-linecap:round; stroke-linejoin:round;">
</g>
<g style="fill:#840000; fill-opacity:0.0; 
stroke:#840000; stroke-width:60; stroke-opacity:1; 
stroke-linecap:round; stroke-linejoin:round;">
<path style="fill:#840000; fill-opacity:0.0; 
stroke:#840000; stroke-width:60; stroke-opacity:1; 
stroke-linecap:round; stroke-linejoin:round;fill:none"
d="M 53250,53750
53250,54250
53750,54250
53250,54750
52750,54250
53250,54250
" /> 
</g>
<g style="fill:#008484; fill-opacity:0.0; 
stroke:#008484; stroke-width:60; stroke-opacity:1; 
stroke-linecap:round; stroke-linejoin:round;">
<text x="53300" y="55750"
textLength="2060" font-size="660" lengthAdjust="spacingAndGlyphs"
text-anchor="middle" opacity="0">GNDS</text>
<path d="M52680 55250
L52630 55220
L52560 55220
L52490 55250
L52440 55290
L52410 55340
L52390 55440
L52390 55510
L52410 55600
L52440 55650
L52490 55700
L52560 55720
L52600 55720
L52680 55700
L52700 55670
L52700 55510
L52600 55510
" />
<path d="M52910 55720
L52910 55220
L53200 55720
L53200 55220
" />
<path d="M53440 55720
L53440 55220
L53560 55220
L53630 55250
L53680 55290
L53700 55340
L53720 55440
L53720 55510
L53700 55600
L53680 55650
L53630 55700
L53560 55720
L53440 55720
" />
<path d="M53910 55700
L53990 55720
L54100 55720
L54150 55700
L54180 55670
L54200 55630
L54200 55580
L54180 55530
L54150 55510
L54100 55480
L54010 55460
L53960 55440
L53940 55410
L53910 55360
L53910 55320
L53940 55270
L53960 55250
L54010 55220
L54130 55220
L54200 55250
" />
</g>
</g>
<g style="fill:#008484; fill-opacity:0.0; 
stroke:#008484; stroke-width:0; stroke-opacity:1; 
stroke-linecap:round; stroke-linejoin:round;">
<g >
</g>
<g style="fill:#840000; fill-opacity:0.0; 
stroke:#840000; stroke-width:0; stroke-opacity:1; 
stroke-linecap:round; stroke-linejoin:round;">
</g>
<g style="fill:#840000; fill-opacity:0.0; 
stroke:#840000; stroke-width:60; stroke-opacity:1; 
stroke-linecap:round; stroke-linejoin:round;">
<path style="fill:#840000; fill-opacity:0.0; 
stroke:#840000; stroke-width:60; stroke-opacity:1; 
stroke-linecap:round; stroke-linejoin:round;fill:none"
d="M 53250,31500
53250,32000
53750,32000
53250,32500
52750,32000
53250,32000
" /> 
</g>
<g style="fill:#008484; fill-opacity:0.0; 
stroke:#008484; stroke-width:60; stroke-opacity:1; 
stroke-linecap:round; stroke-linejoin:round;">
<text x="53300" y="33500"
textLength="2060" font-size="660" lengthAdjust="spacingAndGlyphs"
text-anchor="middle" opacity="0">GNDS</text>
<path d="M52680 33000
L52630 32970
L52560 32970
L52490 33000
L52440 33040
L52410 33090
L52390 33190
L52390 33260
L52410 33350
L52440 33400
L52490 33450
L52560 33470
L52600 33470
L52680 33450
L52700 33420
L52700 33260
L52600 33260
" />
<path d="M52910 33470
L52910 32970
L53200 33470
L53200 32970
" />
<path d="M53440 33470
L53440 32970
L53560 32970
L53630 33000
L53680 33040
L53700 33090
L53720 33190
L53720 33260
L53700 33350
L53680 33400
L53630 33450
L53560 33470
L53440 33470
" />
<path d="M53910 33450
L53990 33470
L54100 33470
L54150 33450
L54180 33420
L54200 33380
L54200 33330
L54180 33280
L54150 33260
L54100 33230
L54010 33210
L53960 33190
L53940 33160
L53910 33110
L53910 33070
L53940 33020
L53960 33000
L54010 32970
L54130 32970
L54200 33000
" />
</g>
</g>
<g style="fill:#008484; fill-opacity:0.0; 
stroke:#008484; stroke-width:0; stroke-opacity:1; 
stroke-linecap:round; stroke-linejoin:round;">
<g >
</g>
<g style="fill:#840000; fill-opacity:0.0; 
stroke:#840000; stroke-width:0; stroke-opacity:1; 
stroke-linecap:round; stroke-linejoin:round;">
</g>
<g style="fill:#840000; fill-opacity:0.0; 
stroke:#840000; stroke-width:100; stroke-opacity:1; 
stroke-linecap:round; stroke-linejoin:round;">
<rect x="73350" y="46750" width="800" height="2000" rx="0" />
</g>
<g style="fill:#840000; fill-opacity:0.0; 
stroke:#840000; stroke-width:60; stroke-opacity:1; 
stroke-linecap:round; stroke-linejoin:round;">
<path d="M73750 46750
L73750 46250
" />
<path d="M73750 48750
L73750 49250
" />
</g>
<g style="fill:#008484; fill-opacity:0.0; 
stroke:#008484; stroke-width:60; stroke-opacity:1; 
stroke-linecap:round; stroke-linejoin:round;">
<text x="74970" y="47560"
textLength="1040" font-size="660" lengthAdjust="spacingAndGlyphs"
text-anchor="middle" opacity="0">R4</text>
<path d="M74880 47530
L74720 47290
" />
<path d="M74600 47530
L74600 47030
L74790 47030
L74830 47060
L74860 47080
L74880 47130
L74880 47200
L74860 47250
L74830 47270
L74790 47290
L74600 47290
" />
<path d="M75310 47200
L75310 47530
" />
<path d="M75190 47010
L75070 47360
L75380 47360
" />
<text x="74970" y="48470"
textLength="1040" font-size="660" lengthAdjust="spacingAndGlyphs"
text-anchor="middle" opacity="0">1R</text>
<path d="M74860 48440
L74570 48440
" />
<path d="M74720 48440
L74720 47940
L74670 48010
L74620 48060
L74570 48080
" />
<path d="M75360 48440
L75190 48200
" />
<path d="M75070 48440
L75070 47940
L75260 47940
L75310 47970
L75330 47990
L75360 48040
L75360 48110
L75330 48160
L75310 48180
L75260 48200
L75070 48200
" />
</g>
</g>
<g style="fill:#008484; fill-opacity:0.0; 
stroke:#008484; stroke-width:0; stroke-opacity:1; 
stroke-linecap:round; stroke-linejoin:round;">
<g >
</g>
<g style="fill:#840000; fill-opacity:0.0; 
stroke:#840000; stroke-width:0; stroke-opacity:1; 
stroke-linecap:round; stroke-linejoin:round;">
</g>
<g style="fill:#840000; fill-opacity:0.0; 
stroke:#840000; stroke-width:200; stroke-opacity:1; 
stroke-linecap:round; stroke-linejoin:round;">
<path style="fill:#840000; fill-opacity:0.0; 
stroke:#840000; stroke-width:200; stroke-opacity:1; 
stroke-linecap:round; stroke-linejoin:round;fill:none"
d="M 52450,45550
54050,45550
" /> 
<path style="fill:#840000; fill-opacity:0.0; 
stroke:#840000; stroke-width:200; stroke-opacity:1; 
stroke-linecap:round; stroke-linejoin:round;fill:none"
d="M 52450,44950
54050,44950
" /> 
</g>
<g style="fill:#840000; fill-opacity:0.0; 
stroke:#840000; stroke-width:60; stroke-opacity:1; 
stroke-linecap:round; stroke-linejoin:round;">
<path d="M53250 44850
L53250 43750
" />
<path d="M53250 45650
L53250 46750
" />
</g>
<g style="fill:#008484; fill-opacity:0.0; 
stroke:#008484; stroke-width:60; stroke-opacity:1; 
stroke-linecap:round; stroke-linejoin:round;">
<text x="54920" y="45060"
textLength="1040" font-size="660" lengthAdjust="spacingAndGlyphs"
text-anchor="middle" opacity="0">C2</text>
<path d="M54830 44980
L54810 45010
L54740 45030
L54690 45030
L54620 45010
L54570 44960
L54550 44910
L54520 44820
L54520 44750
L54550 44650
L54570 44600
L54620 44560
L54690 44530
L54740 44530
L54810 44560
L54830 44580
" />
<path d="M55020 44580
L55050 44560
L55090 44530
L55210 44530
L55260 44560
L55280 44580
L55310 44630
L55310 44670
L55280 44750
L55000 45030
L55310 45030
" />
<text x="55580" y="45970"
textLength="2370" font-size="660" lengthAdjust="spacingAndGlyphs"
text-anchor="middle" opacity="0">100nF</text>
<path d="M54800 45940
L54520 45940
" />
<path d="M54660 45940
L54660 45440
L54610 45510
L54560 45560
L54520 45580
" />
<path d="M55110 45440
L55160 45440
L55210 45470
L55230 45490
L55250 45540
L55280 45630
L55280 45750
L55250 45850
L55230 45890
L55210 45920
L55160 45940
L55110 45940
L55060 45920
L55040 45890
L55020 45850
L54990 45750
L54990 45630
L55020 45540
L55040 45490
L55060 45470
L55110 45440
" />
<path d="M55590 45440
L55630 45440
L55680 45470
L55710 45490
L55730 45540
L55750 45630
L55750 45750
L55730 45850
L55710 45890
L55680 45920
L55630 45940
L55590 45940
L55540 45920
L55520 45890
L55490 45850
L55470 45750
L55470 45630
L55490 45540
L55520 45490
L55540 45470
L55590 45440
" />
<path d="M55970 45610
L55970 45940
" />
<path d="M55970 45660
L55990 45630
L56040 45610
L56110 45610
L56160 45630
L56180 45680
L56180 45940
" />
<path d="M56590 45680
L56420 45680
" />
<path d="M56420 45940
L56420 45440
L56660 45440
" />
</g>
</g>
<g style="fill:#008484; fill-opacity:0.0; 
stroke:#008484; stroke-width:0; stroke-opacity:1; 
stroke-linecap:round; stroke-linejoin:round;">
<g >
</g>
<g style="fill:#840000; fill-opacity:0.0; 
stroke:#840000; stroke-width:0; stroke-opacity:1; 
stroke-linecap:round; stroke-linejoin:round;">
</g>
<g style="fill:#840000; fill-opacity:0.0; 
stroke:#840000; stroke-width:60; stroke-opacity:1; 
stroke-linecap:round; stroke-linejoin:round;">
<path style="fill:#840000; fill-opacity:0.0; 
stroke:#840000; stroke-width:60; stroke-opacity:1; 
stroke-linecap:round; stroke-linejoin:round;fill:none"
d="M 44250,53750
44250,54250
44750,54250
44250,54750
43750,54250
44250,54250
" /> 
</g>
<g style="fill:#008484; fill-opacity:0.0; 
stroke:#008484; stroke-width:60; stroke-opacity:1; 
stroke-linecap:round; stroke-linejoin:round;">
<text x="44300" y="55750"
textLength="2060" font-size="660" lengthAdjust="spacingAndGlyphs"
text-anchor="middle" opacity="0">GNDS</text>
<path d="M43680 55250
L43630 55220
L43560 55220
L43490 55250
L43440 55290
L43410 55340
L43390 55440
L43390 55510
L43410 55600
L43440 55650
L43490 55700
L43560 55720
L43600 55720
L43680 55700
L43700 55670
L43700 55510
L43600 55510
" />
<path d="M43910 55720
L43910 55220
L44200 55720
L44200 55220
" />
<path d="M44440 55720
L44440 55220
L44560 55220
L44630 55250
L44680 55290
L44700 55340
L44720 55440
L44720 55510
L44700 55600
L44680 55650
L44630 55700
L44560 55720
L44440 55720
" />
<path d="M44910 55700
L44990 55720
L45100 55720
L45150 55700
L45180 55670
L45200 55630
L45200 55580
L45180 55530
L45150 55510
L45100 55480
L45010 55460
L44960 55440
L44940 55410
L44910 55360
L44910 55320
L44940 55270
L44960 55250
L45010 55220
L45130 55220
L45200 55250
" />
</g>
</g>
<g style="fill:#008484; fill-opacity:0.0; 
stroke:#008484; stroke-width:0; stroke-opacity:1; 
stroke-linecap:round; stroke-linejoin:round;">
<g >
</g>
<g style="fill:#840000; fill-opacity:0.0; 
stroke:#840000; stroke-width:0; stroke-opacity:1; 
stroke-linecap:round; stroke-linejoin:round;">
</g>
<g style="fill:#FFFFC2; fill-opacity:0.0; 
stroke:#FFFFC2; stroke-width:0; stroke-opacity:1; 
stroke-linecap:round; stroke-linejoin:round;">
</g>
<g style="fill:#FFFFC2; fill-opacity:0.6; 
stroke:#FFFFC2; stroke-width:0; stroke-opacity:1; 
stroke-linecap:round; stroke-linejoin:round;">
<rect x="42250" y="36250" width="5000" height="4000" rx="0" />
</g>
<g style="fill:#840000; fill-opacity:0.6; 
stroke:#840000; stroke-width:0; stroke-opacity:1; 
stroke-linecap:round; stroke-linejoin:round;">
</g>
<g style="fill:#840000; fill-opacity:0.0; 
stroke:#840000; stroke-width:100; stroke-opacity:1; 
stroke-linecap:round; stroke-linejoin:round;">
<rect x="42250" y="36250" width="5000" height="4000" rx="0" />
<rect x="42250" y="36250" width="5000" height="4000" rx="0" />
</g>
<g style="fill:#840000; fill-opacity:0.0; 
stroke:#840000; stroke-width:60; stroke-opacity:1; 
stroke-linecap:round; stroke-linejoin:round;">
<path d="M44250 36250
L44250 35250
" />
</g>
<g style="fill:#008484; fill-opacity:0.0; 
stroke:#008484; stroke-width:60; stroke-opacity:1; 
stroke-linecap:round; stroke-linejoin:round;">
<g transform="rotate(-90 44250 36450)">
<text x="44250" y="36700"
textLength="1390" font-size="660" lengthAdjust="spacingAndGlyphs"
text-anchor="end" opacity="0">Vdd</text>
</g>
<path d="M43970 37760
L44470 37590
L43970 37430
" />
<path d="M44470 37050
L43970 37050
" />
<path d="M44450 37050
L44470 37090
L44470 37190
L44450 37240
L44420 37260
L44380 37280
L44230 37280
L44190 37260
L44160 37240
L44140 37190
L44140 37090
L44160 37050
" />
<path d="M44470 36590
L43970 36590
" />
<path d="M44450 36590
L44470 36640
L44470 36740
L44450 36780
L44420 36810
L44380 36830
L44230 36830
L44190 36810
L44160 36780
L44140 36740
L44140 36640
L44160 36590
" />
</g>
<g style="fill:#840000; fill-opacity:0.0; 
stroke:#840000; stroke-width:60; stroke-opacity:1; 
stroke-linecap:round; stroke-linejoin:round;">
<g transform="rotate(-90 44150 35750)">
<text x="44150" y="35750"
textLength="540" font-size="660" lengthAdjust="spacingAndGlyphs"
text-anchor="middle" opacity="0">2</text>
</g>
<path d="M43670 35890
L43650 35860
L43620 35820
L43620 35700
L43650 35650
L43670 35630
L43720 35600
L43760 35600
L43840 35630
L44120 35910
L44120 35600
" />
<path d="M42250 38250
L41250 38250
" />
</g>
<g style="fill:#008484; fill-opacity:0.0; 
stroke:#008484; stroke-width:60; stroke-opacity:1; 
stroke-linecap:round; stroke-linejoin:round;">
<text x="42450" y="38500"
textLength="820" font-size="660" lengthAdjust="spacingAndGlyphs"
text-anchor="start" opacity="0">IN</text>
<path d="M42590 38470
L42590 37970
" />
<path d="M42830 38470
L42830 37970
L43120 38470
L43120 37970
" />
</g>
<g style="fill:#840000; fill-opacity:0.0; 
stroke:#840000; stroke-width:60; stroke-opacity:1; 
stroke-linecap:round; stroke-linejoin:round;">
<text x="41750" y="38150"
textLength="540" font-size="660" lengthAdjust="spacingAndGlyphs"
text-anchor="middle" opacity="0">3</text>
<path d="M41580 37620
L41890 37620
L41720 37810
L41790 37810
L41840 37840
L41860 37860
L41890 37910
L41890 38030
L41860 38070
L41840 38100
L41790 38120
L41650 38120
L41600 38100
L41580 38070
" />
<path d="M44250 40250
L44250 41250
" />
</g>
<g style="fill:#008484; fill-opacity:0.0; 
stroke:#008484; stroke-width:60; stroke-opacity:1; 
stroke-linecap:round; stroke-linejoin:round;">
<g transform="rotate(-90 44250 40050)">
<text x="44250" y="40300"
textLength="1580" font-size="660" lengthAdjust="spacingAndGlyphs"
text-anchor="start" opacity="0">GND</text>
</g>
<path d="M44000 39630
L43970 39680
L43970 39750
L44000 39820
L44040 39870
L44090 39900
L44190 39920
L44260 39920
L44350 39900
L44400 39870
L44450 39820
L44470 39750
L44470 39710
L44450 39630
L44420 39610
L44260 39610
L44260 39710
" />
<path d="M44470 39400
L43970 39400
L44470 39110
L43970 39110
" />
<path d="M44470 38870
L43970 38870
L43970 38750
L44000 38680
L44040 38630
L44090 38610
L44190 38590
L44260 38590
L44350 38610
L44400 38630
L44450 38680
L44470 38750
L44470 38870
" />
</g>
<g style="fill:#840000; fill-opacity:0.0; 
stroke:#840000; stroke-width:60; stroke-opacity:1; 
stroke-linecap:round; stroke-linejoin:round;">
<g transform="rotate(-90 44150 40750)">
<text x="44150" y="40750"
textLength="540" font-size="660" lengthAdjust="spacingAndGlyphs"
text-anchor="middle" opacity="0">4</text>
</g>
<path d="M43790 40650
L44120 40650
" />
<path d="M43600 40770
L43950 40890
L43950 40580
" />
<path d="M47250 38250
L48250 38250
" />
</g>
<g style="fill:#008484; fill-opacity:0.0; 
stroke:#008484; stroke-width:60; stroke-opacity:1; 
stroke-linecap:round; stroke-linejoin:round;">
<text x="47050" y="38500"
textLength="1490" font-size="660" lengthAdjust="spacingAndGlyphs"
text-anchor="end" opacity="0">OUT</text>
<path d="M45800 37970
L45900 37970
L45940 38000
L45990 38040
L46020 38140
L46020 38300
L45990 38400
L45940 38450
L45900 38470
L45800 38470
L45750 38450
L45710 38400
L45680 38300
L45680 38140
L45710 38040
L45750 38000
L45800 37970
" />
<path d="M46230 37970
L46230 38380
L46250 38420
L46280 38450
L46320 38470
L46420 38470
L46470 38450
L46490 38420
L46520 38380
L46520 37970
" />
<path d="M46680 37970
L46970 37970
" />
<path d="M46820 38470
L46820 37970
" />
</g>
<g style="fill:#840000; fill-opacity:0.0; 
stroke:#840000; stroke-width:60; stroke-opacity:1; 
stroke-linecap:round; stroke-linejoin:round;">
<text x="47750" y="38150"
textLength="540" font-size="660" lengthAdjust="spacingAndGlyphs"
text-anchor="middle" opacity="0">5</text>
<path d="M47860 37620
L47630 37620
L47600 37860
L47630 37840
L47670 37810
L47790 37810
L47840 37840
L47860 37860
L47890 37910
L47890 38030
L47860 38070
L47840 38100
L47790 38120
L47670 38120
L47630 38100
L47600 38070
" />
</g>
<g style="fill:#008484; fill-opacity:0.0; 
stroke:#008484; stroke-width:60; stroke-opacity:1; 
stroke-linecap:round; stroke-linejoin:round;">
<text x="39780" y="35020"
textLength="1060" font-size="660" lengthAdjust="spacingAndGlyphs"
text-anchor="middle" opacity="0">U1</text>
<path d="M39390 34490
L39390 34900
L39420 34940
L39440 34970
L39490 34990
L39580 34990
L39630 34970
L39660 34940
L39680 34900
L39680 34490
" />
<path d="M40180 34990
L39890 34990
" />
<path d="M40040 34990
L40040 34490
L39990 34560
L39940 34610
L39890 34630
" />
<text x="40770" y="35770"
textLength="3540" font-size="660" lengthAdjust="spacingAndGlyphs"
text-anchor="middle" opacity="0">MCP1416</text>
<path d="M39150 35740
L39150 35240
L39310 35600
L39480 35240
L39480 35740
" />
<path d="M40000 35690
L39980 35720
L39910 35740
L39860 35740
L39790 35720
L39740 35670
L39720 35620
L39690 35530
L39690 35460
L39720 35360
L39740 35310
L39790 35270
L39860 35240
L39910 35240
L39980 35270
L40000 35290
" />
<path d="M40220 35740
L40220 35240
L40410 35240
L40460 35270
L40480 35290
L40500 35340
L40500 35410
L40480 35460
L40460 35480
L40410 35500
L40220 35500
" />
<path d="M40980 35740
L40690 35740
" />
<path d="M40840 35740
L40840 35240
L40790 35310
L40740 35360
L40690 35380
" />
<path d="M41410 35410
L41410 35740
" />
<path d="M41290 35220
L41170 35570
L41480 35570
" />
<path d="M41930 35740
L41650 35740
" />
<path d="M41790 35740
L41790 35240
L41740 35310
L41690 35360
L41650 35380
" />
<path d="M42360 35240
L42270 35240
L42220 35270
L42190 35290
L42150 35360
L42120 35460
L42120 35650
L42150 35690
L42170 35720
L42220 35740
L42310 35740
L42360 35720
L42380 35690
L42410 35650
L42410 35530
L42380 35480
L42360 35460
L42310 35430
L42220 35430
L42170 35460
L42150 35480
L42120 35530
" />
</g>
</g>
<g style="fill:#008484; fill-opacity:0.0; 
stroke:#008484; stroke-width:0; stroke-opacity:1; 
stroke-linecap:round; stroke-linejoin:round;">
<g >
</g>
<g style="fill:#840000; fill-opacity:0.0; 
stroke:#840000; stroke-width:0; stroke-opacity:1; 
stroke-linecap:round; stroke-linejoin:round;">
</g>
<g style="fill:#840000; fill-opacity:0.0; 
stroke:#840000; stroke-width:60; stroke-opacity:1; 
stroke-linecap:round; stroke-linejoin:round;">
<path style="fill:#840000; fill-opacity:0.0; 
stroke:#840000; stroke-width:60; stroke-opacity:1; 
stroke-linecap:round; stroke-linejoin:round;fill:none"
d="M 72250,53750
72250,54250
72750,54250
72250,54750
71750,54250
72250,54250
" /> 
</g>
<g style="fill:#008484; fill-opacity:0.0; 
stroke:#008484; stroke-width:60; stroke-opacity:1; 
stroke-linecap:round; stroke-linejoin:round;">
<text x="72300" y="55750"
textLength="2060" font-size="660" lengthAdjust="spacingAndGlyphs"
text-anchor="middle" opacity="0">GNDS</text>
<path d="M71680 55250
L71630 55220
L71560 55220
L71490 55250
L71440 55290
L71410 55340
L71390 55440
L71390 55510
L71410 55600
L71440 55650
L71490 55700
L71560 55720
L71600 55720
L71680 55700
L71700 55670
L71700 55510
L71600 55510
" />
<path d="M71910 55720
L71910 55220
L72200 55720
L72200 55220
" />
<path d="M72440 55720
L72440 55220
L72560 55220
L72630 55250
L72680 55290
L72700 55340
L72720 55440
L72720 55510
L72700 55600
L72680 55650
L72630 55700
L72560 55720
L72440 55720
" />
<path d="M72910 55700
L72990 55720
L73100 55720
L73150 55700
L73180 55670
L73200 55630
L73200 55580
L73180 55530
L73150 55510
L73100 55480
L73010 55460
L72960 55440
L72940 55410
L72910 55360
L72910 55320
L72940 55270
L72960 55250
L73010 55220
L73130 55220
L73200 55250
" />
</g>
</g>
<g style="fill:#008484; fill-opacity:0.0; 
stroke:#008484; stroke-width:0; stroke-opacity:1; 
stroke-linecap:round; stroke-linejoin:round;">
<g >
</g>
<g style="fill:#840000; fill-opacity:0.0; 
stroke:#840000; stroke-width:0; stroke-opacity:1; 
stroke-linecap:round; stroke-linejoin:round;">
</g>
<g style="fill:#840000; fill-opacity:0.0; 
stroke:#840000; stroke-width:60; stroke-opacity:1; 
stroke-linecap:round; stroke-linejoin:round;">
<path style="fill:#840000; fill-opacity:0.0; 
stroke:#840000; stroke-width:60; stroke-opacity:1; 
stroke-linecap:round; stroke-linejoin:round;fill:none"
d="M 34500,53750
34500,54250
35000,54250
34500,54750
34000,54250
34500,54250
" /> 
</g>
<g style="fill:#008484; fill-opacity:0.0; 
stroke:#008484; stroke-width:60; stroke-opacity:1; 
stroke-linecap:round; stroke-linejoin:round;">
<text x="34550" y="55750"
textLength="2060" font-size="660" lengthAdjust="spacingAndGlyphs"
text-anchor="middle" opacity="0">GNDS</text>
<path d="M33930 55250
L33880 55220
L33810 55220
L33740 55250
L33690 55290
L33660 55340
L33640 55440
L33640 55510
L33660 55600
L33690 55650
L33740 55700
L33810 55720
L33850 55720
L33930 55700
L33950 55670
L33950 55510
L33850 55510
" />
<path d="M34160 55720
L34160 55220
L34450 55720
L34450 55220
" />
<path d="M34690 55720
L34690 55220
L34810 55220
L34880 55250
L34930 55290
L34950 55340
L34970 55440
L34970 55510
L34950 55600
L34930 55650
L34880 55700
L34810 55720
L34690 55720
" />
<path d="M35160 55700
L35240 55720
L35350 55720
L35400 55700
L35430 55670
L35450 55630
L35450 55580
L35430 55530
L35400 55510
L35350 55480
L35260 55460
L35210 55440
L35190 55410
L35160 55360
L35160 55320
L35190 55270
L35210 55250
L35260 55220
L35380 55220
L35450 55250
" />
</g>
</g>
<g style="fill:#008484; fill-opacity:0.0; 
stroke:#008484; stroke-width:0; stroke-opacity:1; 
stroke-linecap:round; stroke-linejoin:round;">
<g >
</g>
<g style="fill:#840000; fill-opacity:0.0; 
stroke:#840000; stroke-width:0; stroke-opacity:1; 
stroke-linecap:round; stroke-linejoin:round;">
</g>
<g style="fill:#840000; fill-opacity:0.0; 
stroke:#840000; stroke-width:100; stroke-opacity:1; 
stroke-linecap:round; stroke-linejoin:round;">
<circle cx="71900" cy="38250" r="1100" /> 
</g>
<g style="fill:#840000; fill-opacity:1.0; 
stroke:#840000; stroke-width:60; stroke-opacity:1; 
stroke-linecap:round; stroke-linejoin:round;">
<circle cx="72250" cy="38950" r="100" /> 
<circle cx="72250" cy="37550" r="100" /> 
</g>
<g style="fill:#840000; fill-opacity:0.0; 
stroke:#840000; stroke-width:60; stroke-opacity:1; 
stroke-linecap:round; stroke-linejoin:round;">
<path style="fill:#840000; fill-opacity:0.0; 
stroke:#840000; stroke-width:60; stroke-opacity:1; 
stroke-linecap:round; stroke-linejoin:round;fill:none"
d="M 71350,38250
70250,38250
" /> 
</g>
<g style="fill:#840000; fill-opacity:0.0; 
stroke:#840000; stroke-width:100; stroke-opacity:1; 
stroke-linecap:round; stroke-linejoin:round;">
<path style="fill:#840000; fill-opacity:0.0; 
stroke:#840000; stroke-width:100; stroke-opacity:1; 
stroke-linecap:round; stroke-linejoin:round;fill:none"
d="M 71350,37500
71350,39000
" /> 
<path style="fill:#840000; fill-opacity:0.0; 
stroke:#840000; stroke-width:100; stroke-opacity:1; 
stroke-linecap:round; stroke-linejoin:round;fill:none"
d="M 71550,38750
71550,39150
" /> 
<path style="fill:#840000; fill-opacity:0.0; 
stroke:#840000; stroke-width:100; stroke-opacity:1; 
stroke-linecap:round; stroke-linejoin:round;fill:none"
d="M 71550,38050
71550,38450
" /> 
<path style="fill:#840000; fill-opacity:0.0; 
stroke:#840000; stroke-width:100; stroke-opacity:1; 
stroke-linecap:round; stroke-linejoin:round;fill:none"
d="M 71550,37350
71550,37750
" /> 
</g>
<g style="fill:#840000; fill-opacity:0.0; 
stroke:#840000; stroke-width:60; stroke-opacity:1; 
stroke-linecap:round; stroke-linejoin:round;">
<path style="fill:#840000; fill-opacity:0.0; 
stroke:#840000; stroke-width:60; stroke-opacity:1; 
stroke-linecap:round; stroke-linejoin:round;fill:none"
d="M 72250,37250
72250,37550
" /> 
<path style="fill:#840000; fill-opacity:0.0; 
stroke:#840000; stroke-width:60; stroke-opacity:1; 
stroke-linecap:round; stroke-linejoin:round;fill:none"
d="M 72250,39250
72250,38250
71550,38250
" /> 
<path style="fill:#840000; fill-opacity:0.0; 
stroke:#840000; stroke-width:60; stroke-opacity:1; 
stroke-linecap:round; stroke-linejoin:round;fill:none"
d="M 71550,38950
72550,38950
72550,37550
71550,37550
" /> 
</g>
<g style="fill:#840000; fill-opacity:1.0; 
stroke:#840000; stroke-width:60; stroke-opacity:1; 
stroke-linecap:round; stroke-linejoin:round;">
<path style="fill:#840000; fill-opacity:1.0; 
stroke:#840000; stroke-width:60; stroke-opacity:1; 
stroke-linecap:round; stroke-linejoin:round;fill-rule:evenodd;"
d="M 71650,38250
72050,38100
72050,38400
Z" /> 
</g>
<g style="fill:#840000; fill-opacity:0.0; 
stroke:#840000; stroke-width:60; stroke-opacity:1; 
stroke-linecap:round; stroke-linejoin:round;">
<path style="fill:#840000; fill-opacity:0.0; 
stroke:#840000; stroke-width:60; stroke-opacity:1; 
stroke-linecap:round; stroke-linejoin:round;fill:none"
d="M 72350,38050
72400,38100
72700,38100
72750,38150
" /> 
<path style="fill:#840000; fill-opacity:0.0; 
stroke:#840000; stroke-width:60; stroke-opacity:1; 
stroke-linecap:round; stroke-linejoin:round;fill:none"
d="M 72550,38100
72400,38350
72700,38350
Z" /> 
<path d="M70250 38250
L69250 38250
" />
<text x="69750" y="38850"
textLength="540" font-size="660" lengthAdjust="spacingAndGlyphs"
text-anchor="middle" opacity="0">1</text>
<path d="M69890 38820
L69600 38820
" />
<path d="M69750 38820
L69750 38320
L69700 38390
L69650 38440
L69600 38460
" />
<path d="M72250 37250
L72250 36250
" />
<g transform="rotate(-90 72350 36750)">
<text x="72350" y="37250"
textLength="540" font-size="660" lengthAdjust="spacingAndGlyphs"
text-anchor="middle" opacity="0">2</text>
</g>
<path d="M72370 36890
L72350 36860
L72320 36820
L72320 36700
L72350 36650
L72370 36630
L72420 36600
L72460 36600
L72540 36630
L72820 36910
L72820 36600
" />
<path d="M72250 39250
L72250 40250
" />
<g transform="rotate(-90 72350 39750)">
<text x="72350" y="40250"
textLength="540" font-size="660" lengthAdjust="spacingAndGlyphs"
text-anchor="middle" opacity="0">3</text>
</g>
<path d="M72320 39910
L72320 39600
L72510 39770
L72510 39700
L72540 39650
L72560 39630
L72610 39600
L72730 39600
L72770 39630
L72800 39650
L72820 39700
L72820 39840
L72800 39890
L72770 39910
" />
</g>
<g style="fill:#008484; fill-opacity:0.0; 
stroke:#008484; stroke-width:60; stroke-opacity:1; 
stroke-linecap:round; stroke-linejoin:round;">
<text x="73830" y="38060"
textLength="1060" font-size="660" lengthAdjust="spacingAndGlyphs"
text-anchor="middle" opacity="0">Q1</text>
<path d="M73780 38080
L73730 38060
L73680 38010
L73610 37940
L73560 37910
L73520 37910
" />
<path d="M73540 38030
L73490 38010
L73440 37960
L73420 37860
L73420 37700
L73440 37600
L73490 37560
L73540 37530
L73630 37530
L73680 37560
L73730 37600
L73750 37700
L73750 37860
L73730 37960
L73680 38010
L73630 38030
L73540 38030
" />
<path d="M74230 38030
L73940 38030
" />
<path d="M74090 38030
L74090 37530
L74040 37600
L73990 37650
L73940 37670
" />
<text x="75490" y="38970"
textLength="4390" font-size="660" lengthAdjust="spacingAndGlyphs"
text-anchor="middle" opacity="0">NTD60N02R</text>
<path d="M73440 38940
L73440 38440
L73720 38940
L73720 38440
" />
<path d="M73890 38440
L74180 38440
" />
<path d="M74030 38940
L74030 38440
" />
<path d="M74340 38940
L74340 38440
L74460 38440
L74530 38470
L74580 38510
L74600 38560
L74630 38660
L74630 38730
L74600 38820
L74580 38870
L74530 38920
L74460 38940
L74340 38940
" />
<path d="M75060 38440
L74960 38440
L74910 38470
L74890 38490
L74840 38560
L74820 38660
L74820 38850
L74840 38890
L74870 38920
L74910 38940
L75010 38940
L75060 38920
L75080 38890
L75100 38850
L75100 38730
L75080 38680
L75060 38660
L75010 38630
L74910 38630
L74870 38660
L74840 38680
L74820 38730
" />
<path d="M75410 38440
L75460 38440
L75510 38470
L75530 38490
L75560 38540
L75580 38630
L75580 38750
L75560 38850
L75530 38890
L75510 38920
L75460 38940
L75410 38940
L75370 38920
L75340 38890
L75320 38850
L75290 38750
L75290 38630
L75320 38540
L75340 38490
L75370 38470
L75410 38440
" />
<path d="M75790 38940
L75790 38440
L76080 38940
L76080 38440
" />
<path d="M76410 38440
L76460 38440
L76510 38470
L76530 38490
L76560 38540
L76580 38630
L76580 38750
L76560 38850
L76530 38890
L76510 38920
L76460 38940
L76410 38940
L76370 38920
L76340 38890
L76320 38850
L76290 38750
L76290 38630
L76320 38540
L76340 38490
L76370 38470
L76410 38440
" />
<path d="M76770 38490
L76790 38470
L76840 38440
L76960 38440
L77010 38470
L77030 38490
L77060 38540
L77060 38580
L77030 38660
L76750 38940
L77060 38940
" />
<path d="M77560 38940
L77390 38700
" />
<path d="M77270 38940
L77270 38440
L77460 38440
L77510 38470
L77530 38490
L77560 38540
L77560 38610
L77530 38660
L77510 38680
L77460 38700
L77270 38700
" />
</g>
</g>
<g style="fill:#008484; fill-opacity:0.0; 
stroke:#008484; stroke-width:0; stroke-opacity:1; 
stroke-linecap:round; stroke-linejoin:round;">
<g >
</g>
<g style="fill:#840000; fill-opacity:0.0; 
stroke:#840000; stroke-width:0; stroke-opacity:1; 
stroke-linecap:round; stroke-linejoin:round;">
</g>
<g style="fill:#840000; fill-opacity:0.0; 
stroke:#840000; stroke-width:100; stroke-opacity:1; 
stroke-linecap:round; stroke-linejoin:round;">
<rect x="34100" y="45750" width="800" height="2000" rx="0" />
</g>
<g style="fill:#840000; fill-opacity:0.0; 
stroke:#840000; stroke-width:60; stroke-opacity:1; 
stroke-linecap:round; stroke-linejoin:round;">
<path d="M34500 47750
L34500 48250
" />
<path d="M34500 45750
L34500 45250
" />
</g>
<g style="fill:#008484; fill-opacity:0.0; 
stroke:#008484; stroke-width:60; stroke-opacity:1; 
stroke-linecap:round; stroke-linejoin:round;">
<text x="35720" y="46510"
textLength="1040" font-size="660" lengthAdjust="spacingAndGlyphs"
text-anchor="middle" opacity="0">R2</text>
<path d="M35630 46480
L35470 46240
" />
<path d="M35350 46480
L35350 45980
L35540 45980
L35580 46010
L35610 46030
L35630 46080
L35630 46150
L35610 46200
L35580 46220
L35540 46240
L35350 46240
" />
<path d="M35820 46030
L35850 46010
L35890 45980
L36010 45980
L36060 46010
L36080 46030
L36110 46080
L36110 46120
L36080 46200
L35800 46480
L36110 46480
" />
<text x="35950" y="47420"
textLength="1510" font-size="660" lengthAdjust="spacingAndGlyphs"
text-anchor="middle" opacity="0">10K</text>
<path d="M35600 47390
L35310 47390
" />
<path d="M35460 47390
L35460 46890
L35410 46960
L35360 47010
L35310 47030
" />
<path d="M35910 46890
L35960 46890
L36000 46920
L36030 46940
L36050 46990
L36080 47080
L36080 47200
L36050 47300
L36030 47340
L36000 47370
L35960 47390
L35910 47390
L35860 47370
L35840 47340
L35810 47300
L35790 47200
L35790 47080
L35810 46990
L35840 46940
L35860 46920
L35910 46890
" />
<path d="M36290 47390
L36290 46890
" />
<path d="M36580 47390
L36360 47110
" />
<path d="M36580 46890
L36290 47180
" />
</g>
</g>
<g style="fill:#008484; fill-opacity:0.0; 
stroke:#008484; stroke-width:0; stroke-opacity:1; 
stroke-linecap:round; stroke-linejoin:round;">
<g >
</g>
<g style="fill:#840000; fill-opacity:0.0; 
stroke:#840000; stroke-width:0; stroke-opacity:1; 
stroke-linecap:round; stroke-linejoin:round;">
</g>
<g style="fill:#840000; fill-opacity:0.0; 
stroke:#840000; stroke-width:100; stroke-opacity:1; 
stroke-linecap:round; stroke-linejoin:round;">
<rect x="70600" y="46750" width="800" height="2000" rx="0" />
</g>
<g style="fill:#840000; fill-opacity:0.0; 
stroke:#840000; stroke-width:60; stroke-opacity:1; 
stroke-linecap:round; stroke-linejoin:round;">
<path d="M71000 46750
L71000 46250
" />
<path d="M71000 48750
L71000 49250
" />
</g>
<g style="fill:#008484; fill-opacity:0.0; 
stroke:#008484; stroke-width:60; stroke-opacity:1; 
stroke-linecap:round; stroke-linejoin:round;">
<text x="72220" y="47560"
textLength="1040" font-size="660" lengthAdjust="spacingAndGlyphs"
text-anchor="middle" opacity="0">R3</text>
<path d="M72130 47530
L71970 47290
" />
<path d="M71850 47530
L71850 47030
L72040 47030
L72080 47060
L72110 47080
L72130 47130
L72130 47200
L72110 47250
L72080 47270
L72040 47290
L71850 47290
" />
<path d="M72300 47030
L72610 47030
L72440 47220
L72510 47220
L72560 47250
L72580 47270
L72610 47320
L72610 47440
L72580 47480
L72560 47510
L72510 47530
L72370 47530
L72320 47510
L72300 47480
" />
<text x="72220" y="48470"
textLength="1040" font-size="660" lengthAdjust="spacingAndGlyphs"
text-anchor="middle" opacity="0">1R</text>
<path d="M72110 48440
L71820 48440
" />
<path d="M71970 48440
L71970 47940
L71920 48010
L71870 48060
L71820 48080
" />
<path d="M72610 48440
L72440 48200
" />
<path d="M72320 48440
L72320 47940
L72510 47940
L72560 47970
L72580 47990
L72610 48040
L72610 48110
L72580 48160
L72560 48180
L72510 48200
L72320 48200
" />
</g>
</g>
<g style="fill:#008484; fill-opacity:0.0; 
stroke:#008484; stroke-width:60; stroke-opacity:1; 
stroke-linecap:round; stroke-linejoin:round;">
</g>
<g style="fill:#008400; fill-opacity:0.0; 
stroke:#008400; stroke-width:60; stroke-opacity:1; 
stroke-linecap:round; stroke-linejoin:round;">
<path d="M73750 46250
L73750 45000
" />
<path d="M53250 27250
L53250 26000
" />
<path d="M53250 26000
L44250 26000
" />
<path d="M44250 26000
L44250 35250
" />
<path d="M53250 30250
L53250 31500
" />
<path d="M72250 24250
L72250 36250
" />
<path d="M71000 50500
L71000 49250
" />
<path d="M73750 50500
L72250 50500
" />
<path d="M73750 45000
L72250 45000
" />
<path d="M71000 45000
L71000 46250
" />
<path d="M34500 45250
L34500 38250
" />
<path d="M72250 40250
L72250 45000
" />
<path d="M72250 45000
L71000 45000
" />
<path d="M73750 49250
L73750 50500
" />
<path d="M72250 53750
L72250 50500
" />
<path d="M72250 50500
L71000 50500
" />
<path d="M72500 17500
L72500 21000
" />
<path d="M72500 21000
L78000 21000
" />
<path d="M53250 46750
L53250 53750
" />
<path d="M53250 43750
L53250 38250
" />
<path d="M53250 38250
L60750 38250
" />
<path d="M44250 17250
L44250 26000
" />
<path d="M44250 41250
L44250 53750
" />
<path d="M63750 38250
L69250 38250
" />
<path d="M48250 38250
L53250 38250
" />
<path d="M34500 48250
L34500 53750
" />
<path d="M41250 38250
L34500 38250
" />
<path d="M27500 38250
L34500 38250
" />
<path d="M72250 24250
L78000 24250
" />
</g>
<g style="fill:#848400; fill-opacity:0.0; 
stroke:#848400; stroke-width:60; stroke-opacity:1; 
stroke-linecap:round; stroke-linejoin:round;">
<g transform="rotate(-90 44250 16650)">
<text x="44250" y="16900"
textLength="1490" font-size="660" lengthAdjust="spacingAndGlyphs"
text-anchor="start" opacity="0">VPP</text>
</g>
<path d="M43970 16570
L44470 16400
L43970 16230
" />
<path d="M44470 16070
L43970 16070
L43970 15880
L44000 15830
L44020 15810
L44070 15780
L44140 15780
L44190 15810
L44210 15830
L44230 15880
L44230 16070
" />
<path d="M44470 15570
L43970 15570
L43970 15380
L44000 15330
L44020 15310
L44070 15280
L44140 15280
L44190 15310
L44210 15330
L44230 15380
L44230 15570
" />
</g>
<g style="fill:#848400; fill-opacity:0.0; 
stroke:#848400; stroke-width:100; stroke-opacity:1; 
stroke-linecap:round; stroke-linejoin:round;">
<path style="fill:#848400; fill-opacity:0.0; 
stroke:#848400; stroke-width:100; stroke-opacity:1; 
stroke-linecap:round; stroke-linejoin:round;fill:none"
d="M 44250,17250
44500,17000
44500,16750
44000,16750
44000,17000
Z" /> 
</g>
<g style="fill:#848400; fill-opacity:0.0; 
stroke:#848400; stroke-width:60; stroke-opacity:1; 
stroke-linecap:round; stroke-linejoin:round;">
<text x="26900" y="38500"
textLength="3580" font-size="660" lengthAdjust="spacingAndGlyphs"
text-anchor="end" opacity="0">LED_CTRL</text>
<path d="M23700 38470
L23460 38470
L23460 37970
" />
<path d="M23870 38210
L24030 38210
" />
<path d="M24100 38470
L23870 38470
L23870 37970
L24100 37970
" />
<path d="M24320 38470
L24320 37970
L24440 37970
L24510 38000
L24560 38040
L24580 38090
L24600 38190
L24600 38260
L24580 38350
L24560 38400
L24510 38450
L24440 38470
L24320 38470
" />
<path d="M24700 38520
L25080 38520
" />
<path d="M25480 38420
L25460 38450
L25390 38470
L25340 38470
L25270 38450
L25220 38400
L25200 38350
L25170 38260
L25170 38190
L25200 38090
L25220 38040
L25270 38000
L25340 37970
L25390 37970
L25460 38000
L25480 38020
" />
<path d="M25630 37970
L25910 37970
" />
<path d="M25770 38470
L25770 37970
" />
<path d="M26370 38470
L26200 38230
" />
<path d="M26080 38470
L26080 37970
L26270 37970
L26320 38000
L26340 38020
L26370 38070
L26370 38140
L26340 38190
L26320 38210
L26270 38230
L26080 38230
" />
<path d="M26820 38470
L26580 38470
L26580 37970
" />
</g>
<g style="fill:#848400; fill-opacity:0.0; 
stroke:#848400; stroke-width:100; stroke-opacity:1; 
stroke-linecap:round; stroke-linejoin:round;">
<path style="fill:#848400; fill-opacity:0.0; 
stroke:#848400; stroke-width:100; stroke-opacity:1; 
stroke-linecap:round; stroke-linejoin:round;fill:none"
d="M 27500,38250
27250,38000
27000,38000
27000,38500
27250,38500
Z" /> 
</g>
<g style="fill:#848400; fill-opacity:0.0; 
stroke:#848400; stroke-width:60; stroke-opacity:1; 
stroke-linecap:round; stroke-linejoin:round;">
<text x="78600" y="21250"
textLength="6040" font-size="660" lengthAdjust="spacingAndGlyphs"
text-anchor="start" opacity="0">LED_ANODE_OUT</text>
<path d="M78980 21220
L78740 21220
L78740 20720
" />
<path d="M79150 20960
L79320 20960
" />
<path d="M79390 21220
L79150 21220
L79150 20720
L79390 20720
" />
<path d="M79600 21220
L79600 20720
L79720 20720
L79790 20750
L79840 20790
L79860 20840
L79890 20940
L79890 21010
L79860 21100
L79840 21150
L79790 21200
L79720 21220
L79600 21220
" />
<path d="M79980 21270
L80360 21270
" />
<path d="M80460 21080
L80700 21080
" />
<path d="M80410 21220
L80580 20720
L80740 21220
" />
<path d="M80910 21220
L80910 20720
L81200 21220
L81200 20720
" />
<path d="M81530 20720
L81630 20720
L81670 20750
L81720 20790
L81740 20890
L81740 21050
L81720 21150
L81670 21200
L81630 21220
L81530 21220
L81480 21200
L81430 21150
L81410 21050
L81410 20890
L81430 20790
L81480 20750
L81530 20720
" />
<path d="M81960 21220
L81960 20720
L82080 20720
L82150 20750
L82200 20790
L82220 20840
L82240 20940
L82240 21010
L82220 21100
L82200 21150
L82150 21200
L82080 21220
L81960 21220
" />
<path d="M82460 20960
L82630 20960
" />
<path d="M82700 21220
L82460 21220
L82460 20720
L82700 20720
" />
<path d="M82790 21270
L83170 21270
" />
<path d="M83390 20720
L83480 20720
L83530 20750
L83580 20790
L83600 20890
L83600 21050
L83580 21150
L83530 21200
L83480 21220
L83390 21220
L83340 21200
L83290 21150
L83270 21050
L83270 20890
L83290 20790
L83340 20750
L83390 20720
" />
<path d="M83820 20720
L83820 21130
L83840 21170
L83860 21200
L83910 21220
L84010 21220
L84050 21200
L84080 21170
L84100 21130
L84100 20720
" />
<path d="M84270 20720
L84550 20720
" />
<path d="M84410 21220
L84410 20720
" />
</g>
<g style="fill:#848400; fill-opacity:0.0; 
stroke:#848400; stroke-width:100; stroke-opacity:1; 
stroke-linecap:round; stroke-linejoin:round;">
<path style="fill:#848400; fill-opacity:0.0; 
stroke:#848400; stroke-width:100; stroke-opacity:1; 
stroke-linecap:round; stroke-linejoin:round;fill:none"
d="M 78000,21000
78250,21250
78500,21250
78500,20750
78250,20750
Z" /> 
</g>
<g style="fill:#848400; fill-opacity:0.0; 
stroke:#848400; stroke-width:60; stroke-opacity:1; 
stroke-linecap:round; stroke-linejoin:round;">
<text x="78600" y="24500"
textLength="6920" font-size="660" lengthAdjust="spacingAndGlyphs"
text-anchor="start" opacity="0">LED_CATHODE_OUT</text>
<path d="M78980 24470
L78740 24470
L78740 23970
" />
<path d="M79150 24210
L79320 24210
" />
<path d="M79390 24470
L79150 24470
L79150 23970
L79390 23970
" />
<path d="M79600 24470
L79600 23970
L79720 23970
L79790 24000
L79840 24040
L79860 24090
L79890 24190
L79890 24260
L79860 24350
L79840 24400
L79790 24450
L79720 24470
L79600 24470
" />
<path d="M79980 24520
L80360 24520
" />
<path d="M80770 24420
L80740 24450
L80670 24470
L80630 24470
L80550 24450
L80510 24400
L80480 24350
L80460 24260
L80460 24190
L80480 24090
L80510 24040
L80550 24000
L80630 23970
L80670 23970
L80740 24000
L80770 24020
" />
<path d="M80960 24330
L81200 24330
" />
<path d="M80910 24470
L81080 23970
L81240 24470
" />
<path d="M81340 23970
L81630 23970
" />
<path d="M81480 24470
L81480 23970
" />
<path d="M81790 24470
L81790 23970
" />
<path d="M81790 24210
L82080 24210
" />
<path d="M82080 24470
L82080 23970
" />
<path d="M82410 23970
L82510 23970
L82550 24000
L82600 24040
L82630 24140
L82630 24300
L82600 24400
L82550 24450
L82510 24470
L82410 24470
L82360 24450
L82320 24400
L82290 24300
L82290 24140
L82320 24040
L82360 24000
L82410 23970
" />
<path d="M82840 24470
L82840 23970
L82960 23970
L83030 24000
L83080 24040
L83100 24090
L83130 24190
L83130 24260
L83100 24350
L83080 24400
L83030 24450
L82960 24470
L82840 24470
" />
<path d="M83340 24210
L83510 24210
" />
<path d="M83580 24470
L83340 24470
L83340 23970
L83580 23970
" />
<path d="M83670 24520
L84050 24520
" />
<path d="M84270 23970
L84360 23970
L84410 24000
L84460 24040
L84480 24140
L84480 24300
L84460 24400
L84410 24450
L84360 24470
L84270 24470
L84220 24450
L84170 24400
L84150 24300
L84150 24140
L84170 24040
L84220 24000
L84270 23970
" />
<path d="M84700 23970
L84700 24380
L84720 24420
L84740 24450
L84790 24470
L84890 24470
L84930 24450
L84960 24420
L84980 24380
L84980 23970
" />
<path d="M85150 23970
L85430 23970
" />
<path d="M85290 24470
L85290 23970
" />
</g>
<g style="fill:#848400; fill-opacity:0.0; 
stroke:#848400; stroke-width:100; stroke-opacity:1; 
stroke-linecap:round; stroke-linejoin:round;">
<path style="fill:#848400; fill-opacity:0.0; 
stroke:#848400; stroke-width:100; stroke-opacity:1; 
stroke-linecap:round; stroke-linejoin:round;fill:none"
d="M 78000,24250
78250,24500
78500,24500
78500,24000
78250,24000
Z" /> 
</g>
<g style="fill:#848400; fill-opacity:0.0; 
stroke:#848400; stroke-width:60; stroke-opacity:1; 
stroke-linecap:round; stroke-linejoin:round;">
<g transform="rotate(-90 72500 16900)">
<text x="72500" y="17150"
textLength="1490" font-size="660" lengthAdjust="spacingAndGlyphs"
text-anchor="start" opacity="0">VPP</text>
</g>
<path d="M72220 16820
L72720 16650
L72220 16480
" />
<path d="M72720 16320
L72220 16320
L72220 16130
L72250 16080
L72270 16060
L72320 16030
L72390 16030
L72440 16060
L72460 16080
L72480 16130
L72480 16320
" />
<path d="M72720 15820
L72220 15820
L72220 15630
L72250 15580
L72270 15560
L72320 15530
L72390 15530
L72440 15560
L72460 15580
L72480 15630
L72480 15820
" />
</g>
<g style="fill:#848400; fill-opacity:0.0; 
stroke:#848400; stroke-width:100; stroke-opacity:1; 
stroke-linecap:round; stroke-linejoin:round;">
<path style="fill:#848400; fill-opacity:0.0; 
stroke:#848400; stroke-width:100; stroke-opacity:1; 
stroke-linecap:round; stroke-linejoin:round;fill:none"
d="M 72500,17500
72750,17250
72750,17000
72250,17000
72250,17250
Z" /> 
</g>
<g style="fill:#848400; fill-opacity:0.0; 
stroke:#848400; stroke-width:0; stroke-opacity:1; 
stroke-linecap:round; stroke-linejoin:round;">
</g>
<g style="fill:#008400; fill-opacity:0.0; 
stroke:#008400; stroke-width:0; stroke-opacity:1; 
stroke-linecap:round; stroke-linejoin:round;">
</g>
<g style="fill:#008400; fill-opacity:1.0; 
stroke:#008400; stroke-width:100; stroke-opacity:1; 
stroke-linecap:round; stroke-linejoin:round;">
<circle cx="72250" cy="45000" r="200" /> 
</g>
<g style="fill:#008400; fill-opacity:1.0; 
stroke:#008400; stroke-width:0; stroke-opacity:1; 
stroke-linecap:round; stroke-linejoin:round;">
</g>
<g style="fill:#008400; fill-opacity:1.0; 
stroke:#008400; stroke-width:100; stroke-opacity:1; 
stroke-linecap:round; stroke-linejoin:round;">
<circle cx="34500" cy="38250" r="200" /> 
</g>
<g style="fill:#008400; fill-opacity:1.0; 
stroke:#008400; stroke-width:0; stroke-opacity:1; 
stroke-linecap:round; stroke-linejoin:round;">
</g>
<g style="fill:#008400; fill-opacity:1.0; 
stroke:#008400; stroke-width:100; stroke-opacity:1; 
stroke-linecap:round; stroke-linejoin:round;">
<circle cx="72250" cy="50500" r="200" /> 
</g>
<g style="fill:#008400; fill-opacity:1.0; 
stroke:#008400; stroke-width:0; stroke-opacity:1; 
stroke-linecap:round; stroke-linejoin:round;">
</g>
<g style="fill:#008400; fill-opacity:1.0; 
stroke:#008400; stroke-width:100; stroke-opacity:1; 
stroke-linecap:round; stroke-linejoin:round;">
<circle cx="53250" cy="38250" r="200" /> 
</g>
<g style="fill:#008400; fill-opacity:1.0; 
stroke:#008400; stroke-width:0; stroke-opacity:1; 
stroke-linecap:round; stroke-linejoin:round;">
</g>
<g style="fill:#008400; fill-opacity:1.0; 
stroke:#008400; stroke-width:100; stroke-opacity:1; 
stroke-linecap:round; stroke-linejoin:round;">
<circle cx="44250" cy="26000" r="200" /> 
</g> 
</svg>
