<?xml version="1.0" standalone="no"?>
 <!DOCTYPE svg PUBLIC "-//W3C//DTD SVG 1.1//EN" 
 "http://www.w3.org/Graphics/SVG/1.1/DTD/svg11.dtd"> 
<svg xmlns="http://www.w3.org/2000/svg" version="1.1" 
    width="29.7002cm" height="21.0007cm" viewBox="0 0 116930 82680 ">
<title>SVG Picture created as UV_LED_Driver.svg date 2020/04/25 12:12:16 </title>
  <desc>Picture generated by Eeschema-SVG </desc>
<g style="fill:#000000; fill-opacity:1;stroke:#000000; stroke-opacity:1;
stroke-linecap:round; stroke-linejoin:round; "
 transform="translate(0 0) scale(1 1)">
</g>
<g style="fill:#000000; fill-opacity:0.0; 
stroke:#000000; stroke-width:-10; stroke-opacity:1; 
stroke-linecap:round; stroke-linejoin:round;">
</g>
<g style="fill:#840000; fill-opacity:0.0; 
stroke:#840000; stroke-width:-10; stroke-opacity:1; 
stroke-linecap:round; stroke-linejoin:round;">
</g>
<g style="fill:#840000; fill-opacity:0.0; 
stroke:#840000; stroke-width:100; stroke-opacity:1; 
stroke-linecap:round; stroke-linejoin:round;">
</g>
<g style="fill:#840000; fill-opacity:0.0; 
stroke:#840000; stroke-width:60; stroke-opacity:1; 
stroke-linecap:round; stroke-linejoin:round;">
<rect x="69690" y="65360" width="42520" height="12600" rx="0" />
</g>
<g style="fill:#840000; fill-opacity:0.0; 
stroke:#840000; stroke-width:100; stroke-opacity:1; 
stroke-linecap:round; stroke-linejoin:round;">
</g>
<g style="fill:#840000; fill-opacity:0.0; 
stroke:#840000; stroke-width:60; stroke-opacity:1; 
stroke-linecap:round; stroke-linejoin:round;">
<rect x="3940" y="3940" width="109050" height="74800" rx="0" />
</g>
<g style="fill:#840000; fill-opacity:0.0; 
stroke:#840000; stroke-width:100; stroke-opacity:1; 
stroke-linecap:round; stroke-linejoin:round;">
</g>
<g style="fill:#840000; fill-opacity:0.0; 
stroke:#840000; stroke-width:60; stroke-opacity:1; 
stroke-linecap:round; stroke-linejoin:round;">
<rect x="4720" y="4720" width="107490" height="73240" rx="0" />
</g>
<g style="fill:#840000; fill-opacity:0.0; 
stroke:#840000; stroke-width:100; stroke-opacity:1; 
stroke-linecap:round; stroke-linejoin:round;">
</g>
<g style="fill:#840000; fill-opacity:0.0; 
stroke:#840000; stroke-width:60; stroke-opacity:1; 
stroke-linecap:round; stroke-linejoin:round;">
<path d="M23620 4720
L23620 3940
" />
</g>
<g style="fill:#840000; fill-opacity:0.0; 
stroke:#840000; stroke-width:100; stroke-opacity:1; 
stroke-linecap:round; stroke-linejoin:round;">
</g>
<g style="fill:#840000; fill-opacity:0.0; 
stroke:#840000; stroke-width:60; stroke-opacity:1; 
stroke-linecap:round; stroke-linejoin:round;">
<path d="M43310 4720
L43310 3940
" />
</g>
<g style="fill:#840000; fill-opacity:0.0; 
stroke:#840000; stroke-width:100; stroke-opacity:1; 
stroke-linecap:round; stroke-linejoin:round;">
</g>
<g style="fill:#840000; fill-opacity:0.0; 
stroke:#840000; stroke-width:60; stroke-opacity:1; 
stroke-linecap:round; stroke-linejoin:round;">
<path d="M62990 4720
L62990 3940
" />
</g>
<g style="fill:#840000; fill-opacity:0.0; 
stroke:#840000; stroke-width:100; stroke-opacity:1; 
stroke-linecap:round; stroke-linejoin:round;">
</g>
<g style="fill:#840000; fill-opacity:0.0; 
stroke:#840000; stroke-width:60; stroke-opacity:1; 
stroke-linecap:round; stroke-linejoin:round;">
<path d="M82680 4720
L82680 3940
" />
</g>
<g style="fill:#840000; fill-opacity:0.0; 
stroke:#840000; stroke-width:100; stroke-opacity:1; 
stroke-linecap:round; stroke-linejoin:round;">
</g>
<g style="fill:#840000; fill-opacity:0.0; 
stroke:#840000; stroke-width:60; stroke-opacity:1; 
stroke-linecap:round; stroke-linejoin:round;">
<path d="M102360 4720
L102360 3940
" />
</g>
<g style="fill:#840000; fill-opacity:0.0; 
stroke:#840000; stroke-width:100; stroke-opacity:1; 
stroke-linecap:round; stroke-linejoin:round;">
</g>
<g style="fill:#840000; fill-opacity:0.0; 
stroke:#840000; stroke-width:60; stroke-opacity:1; 
stroke-linecap:round; stroke-linejoin:round;">
<text x="13780" y="4580"
textLength="550" font-size="680" lengthAdjust="spacingAndGlyphs"
text-anchor="start" opacity="0">1</text>
<path d="M14190 4560
L13900 4560
" />
<path d="M14050 4560
L14050 4050
L14000 4120
L13950 4170
L13900 4190
" />
</g>
<g style="fill:#840000; fill-opacity:0.0; 
stroke:#840000; stroke-width:100; stroke-opacity:1; 
stroke-linecap:round; stroke-linejoin:round;">
</g>
<g style="fill:#840000; fill-opacity:0.0; 
stroke:#840000; stroke-width:60; stroke-opacity:1; 
stroke-linecap:round; stroke-linejoin:round;">
<text x="33460" y="4580"
textLength="550" font-size="680" lengthAdjust="spacingAndGlyphs"
text-anchor="start" opacity="0">2</text>
<path d="M33580 4090
L33610 4070
L33660 4050
L33780 4050
L33830 4070
L33850 4090
L33870 4140
L33870 4190
L33850 4260
L33560 4560
L33870 4560
" />
</g>
<g style="fill:#840000; fill-opacity:0.0; 
stroke:#840000; stroke-width:100; stroke-opacity:1; 
stroke-linecap:round; stroke-linejoin:round;">
</g>
<g style="fill:#840000; fill-opacity:0.0; 
stroke:#840000; stroke-width:60; stroke-opacity:1; 
stroke-linecap:round; stroke-linejoin:round;">
<text x="53150" y="4580"
textLength="550" font-size="680" lengthAdjust="spacingAndGlyphs"
text-anchor="start" opacity="0">3</text>
<path d="M53250 4050
L53560 4050
L53390 4240
L53470 4240
L53520 4260
L53540 4290
L53560 4340
L53560 4460
L53540 4510
L53520 4530
L53470 4560
L53320 4560
L53270 4530
L53250 4510
" />
</g>
<g style="fill:#840000; fill-opacity:0.0; 
stroke:#840000; stroke-width:100; stroke-opacity:1; 
stroke-linecap:round; stroke-linejoin:round;">
</g>
<g style="fill:#840000; fill-opacity:0.0; 
stroke:#840000; stroke-width:60; stroke-opacity:1; 
stroke-linecap:round; stroke-linejoin:round;">
<text x="72830" y="4580"
textLength="550" font-size="680" lengthAdjust="spacingAndGlyphs"
text-anchor="start" opacity="0">4</text>
<path d="M73200 4220
L73200 4560
" />
<path d="M73070 4020
L72950 4390
L73270 4390
" />
</g>
<g style="fill:#840000; fill-opacity:0.0; 
stroke:#840000; stroke-width:100; stroke-opacity:1; 
stroke-linecap:round; stroke-linejoin:round;">
</g>
<g style="fill:#840000; fill-opacity:0.0; 
stroke:#840000; stroke-width:60; stroke-opacity:1; 
stroke-linecap:round; stroke-linejoin:round;">
<text x="92520" y="4580"
textLength="550" font-size="680" lengthAdjust="spacingAndGlyphs"
text-anchor="start" opacity="0">5</text>
<path d="M92910 4050
L92670 4050
L92640 4290
L92670 4260
L92720 4240
L92840 4240
L92890 4260
L92910 4290
L92930 4340
L92930 4460
L92910 4510
L92890 4530
L92840 4560
L92720 4560
L92670 4530
L92640 4510
" />
</g>
<g style="fill:#840000; fill-opacity:0.0; 
stroke:#840000; stroke-width:100; stroke-opacity:1; 
stroke-linecap:round; stroke-linejoin:round;">
</g>
<g style="fill:#840000; fill-opacity:0.0; 
stroke:#840000; stroke-width:60; stroke-opacity:1; 
stroke-linecap:round; stroke-linejoin:round;">
<text x="112200" y="4580"
textLength="550" font-size="680" lengthAdjust="spacingAndGlyphs"
text-anchor="start" opacity="0">6</text>
<path d="M112570 4050
L112470 4050
L112420 4070
L112400 4090
L112350 4170
L112320 4260
L112320 4460
L112350 4510
L112370 4530
L112420 4560
L112520 4560
L112570 4530
L112590 4510
L112610 4460
L112610 4340
L112590 4290
L112570 4260
L112520 4240
L112420 4240
L112370 4260
L112350 4290
L112320 4340
" />
</g>
<g style="fill:#840000; fill-opacity:0.0; 
stroke:#840000; stroke-width:100; stroke-opacity:1; 
stroke-linecap:round; stroke-linejoin:round;">
</g>
<g style="fill:#840000; fill-opacity:0.0; 
stroke:#840000; stroke-width:60; stroke-opacity:1; 
stroke-linecap:round; stroke-linejoin:round;">
<path d="M23620 77960
L23620 78740
" />
</g>
<g style="fill:#840000; fill-opacity:0.0; 
stroke:#840000; stroke-width:100; stroke-opacity:1; 
stroke-linecap:round; stroke-linejoin:round;">
</g>
<g style="fill:#840000; fill-opacity:0.0; 
stroke:#840000; stroke-width:60; stroke-opacity:1; 
stroke-linecap:round; stroke-linejoin:round;">
<path d="M43310 77960
L43310 78740
" />
</g>
<g style="fill:#840000; fill-opacity:0.0; 
stroke:#840000; stroke-width:100; stroke-opacity:1; 
stroke-linecap:round; stroke-linejoin:round;">
</g>
<g style="fill:#840000; fill-opacity:0.0; 
stroke:#840000; stroke-width:60; stroke-opacity:1; 
stroke-linecap:round; stroke-linejoin:round;">
<path d="M62990 77960
L62990 78740
" />
</g>
<g style="fill:#840000; fill-opacity:0.0; 
stroke:#840000; stroke-width:100; stroke-opacity:1; 
stroke-linecap:round; stroke-linejoin:round;">
</g>
<g style="fill:#840000; fill-opacity:0.0; 
stroke:#840000; stroke-width:60; stroke-opacity:1; 
stroke-linecap:round; stroke-linejoin:round;">
<path d="M82680 77960
L82680 78740
" />
</g>
<g style="fill:#840000; fill-opacity:0.0; 
stroke:#840000; stroke-width:100; stroke-opacity:1; 
stroke-linecap:round; stroke-linejoin:round;">
</g>
<g style="fill:#840000; fill-opacity:0.0; 
stroke:#840000; stroke-width:60; stroke-opacity:1; 
stroke-linecap:round; stroke-linejoin:round;">
<path d="M102360 77960
L102360 78740
" />
</g>
<g style="fill:#840000; fill-opacity:0.0; 
stroke:#840000; stroke-width:100; stroke-opacity:1; 
stroke-linecap:round; stroke-linejoin:round;">
</g>
<g style="fill:#840000; fill-opacity:0.0; 
stroke:#840000; stroke-width:60; stroke-opacity:1; 
stroke-linecap:round; stroke-linejoin:round;">
<text x="13780" y="78600"
textLength="550" font-size="680" lengthAdjust="spacingAndGlyphs"
text-anchor="start" opacity="0">1</text>
<path d="M14190 78580
L13900 78580
" />
<path d="M14050 78580
L14050 78070
L14000 78140
L13950 78190
L13900 78210
" />
</g>
<g style="fill:#840000; fill-opacity:0.0; 
stroke:#840000; stroke-width:100; stroke-opacity:1; 
stroke-linecap:round; stroke-linejoin:round;">
</g>
<g style="fill:#840000; fill-opacity:0.0; 
stroke:#840000; stroke-width:60; stroke-opacity:1; 
stroke-linecap:round; stroke-linejoin:round;">
<text x="33460" y="78600"
textLength="550" font-size="680" lengthAdjust="spacingAndGlyphs"
text-anchor="start" opacity="0">2</text>
<path d="M33580 78110
L33610 78090
L33660 78070
L33780 78070
L33830 78090
L33850 78110
L33870 78160
L33870 78210
L33850 78280
L33560 78580
L33870 78580
" />
</g>
<g style="fill:#840000; fill-opacity:0.0; 
stroke:#840000; stroke-width:100; stroke-opacity:1; 
stroke-linecap:round; stroke-linejoin:round;">
</g>
<g style="fill:#840000; fill-opacity:0.0; 
stroke:#840000; stroke-width:60; stroke-opacity:1; 
stroke-linecap:round; stroke-linejoin:round;">
<text x="53150" y="78600"
textLength="550" font-size="680" lengthAdjust="spacingAndGlyphs"
text-anchor="start" opacity="0">3</text>
<path d="M53250 78070
L53560 78070
L53390 78260
L53470 78260
L53520 78280
L53540 78310
L53560 78360
L53560 78480
L53540 78530
L53520 78550
L53470 78580
L53320 78580
L53270 78550
L53250 78530
" />
</g>
<g style="fill:#840000; fill-opacity:0.0; 
stroke:#840000; stroke-width:100; stroke-opacity:1; 
stroke-linecap:round; stroke-linejoin:round;">
</g>
<g style="fill:#840000; fill-opacity:0.0; 
stroke:#840000; stroke-width:60; stroke-opacity:1; 
stroke-linecap:round; stroke-linejoin:round;">
<text x="72830" y="78600"
textLength="550" font-size="680" lengthAdjust="spacingAndGlyphs"
text-anchor="start" opacity="0">4</text>
<path d="M73200 78240
L73200 78580
" />
<path d="M73070 78040
L72950 78410
L73270 78410
" />
</g>
<g style="fill:#840000; fill-opacity:0.0; 
stroke:#840000; stroke-width:100; stroke-opacity:1; 
stroke-linecap:round; stroke-linejoin:round;">
</g>
<g style="fill:#840000; fill-opacity:0.0; 
stroke:#840000; stroke-width:60; stroke-opacity:1; 
stroke-linecap:round; stroke-linejoin:round;">
<text x="92520" y="78600"
textLength="550" font-size="680" lengthAdjust="spacingAndGlyphs"
text-anchor="start" opacity="0">5</text>
<path d="M92910 78070
L92670 78070
L92640 78310
L92670 78280
L92720 78260
L92840 78260
L92890 78280
L92910 78310
L92930 78360
L92930 78480
L92910 78530
L92890 78550
L92840 78580
L92720 78580
L92670 78550
L92640 78530
" />
</g>
<g style="fill:#840000; fill-opacity:0.0; 
stroke:#840000; stroke-width:100; stroke-opacity:1; 
stroke-linecap:round; stroke-linejoin:round;">
</g>
<g style="fill:#840000; fill-opacity:0.0; 
stroke:#840000; stroke-width:60; stroke-opacity:1; 
stroke-linecap:round; stroke-linejoin:round;">
<text x="112200" y="78600"
textLength="550" font-size="680" lengthAdjust="spacingAndGlyphs"
text-anchor="start" opacity="0">6</text>
<path d="M112570 78070
L112470 78070
L112420 78090
L112400 78110
L112350 78190
L112320 78280
L112320 78480
L112350 78530
L112370 78550
L112420 78580
L112520 78580
L112570 78550
L112590 78530
L112610 78480
L112610 78360
L112590 78310
L112570 78280
L112520 78260
L112420 78260
L112370 78280
L112350 78310
L112320 78360
" />
</g>
<g style="fill:#840000; fill-opacity:0.0; 
stroke:#840000; stroke-width:100; stroke-opacity:1; 
stroke-linecap:round; stroke-linejoin:round;">
</g>
<g style="fill:#840000; fill-opacity:0.0; 
stroke:#840000; stroke-width:60; stroke-opacity:1; 
stroke-linecap:round; stroke-linejoin:round;">
<path d="M3940 23620
L4720 23620
" />
</g>
<g style="fill:#840000; fill-opacity:0.0; 
stroke:#840000; stroke-width:100; stroke-opacity:1; 
stroke-linecap:round; stroke-linejoin:round;">
</g>
<g style="fill:#840000; fill-opacity:0.0; 
stroke:#840000; stroke-width:60; stroke-opacity:1; 
stroke-linecap:round; stroke-linejoin:round;">
<path d="M3940 43310
L4720 43310
" />
</g>
<g style="fill:#840000; fill-opacity:0.0; 
stroke:#840000; stroke-width:100; stroke-opacity:1; 
stroke-linecap:round; stroke-linejoin:round;">
</g>
<g style="fill:#840000; fill-opacity:0.0; 
stroke:#840000; stroke-width:60; stroke-opacity:1; 
stroke-linecap:round; stroke-linejoin:round;">
<path d="M3940 62990
L4720 62990
" />
</g>
<g style="fill:#840000; fill-opacity:0.0; 
stroke:#840000; stroke-width:100; stroke-opacity:1; 
stroke-linecap:round; stroke-linejoin:round;">
</g>
<g style="fill:#840000; fill-opacity:0.0; 
stroke:#840000; stroke-width:60; stroke-opacity:1; 
stroke-linecap:round; stroke-linejoin:round;">
<text x="4330" y="14030"
textLength="500" font-size="680" lengthAdjust="spacingAndGlyphs"
text-anchor="middle" opacity="0">A</text>
<path d="M4200 13860
L4450 13860
" />
<path d="M4160 14010
L4330 13500
L4500 14010
" />
</g>
<g style="fill:#840000; fill-opacity:0.0; 
stroke:#840000; stroke-width:100; stroke-opacity:1; 
stroke-linecap:round; stroke-linejoin:round;">
</g>
<g style="fill:#840000; fill-opacity:0.0; 
stroke:#840000; stroke-width:60; stroke-opacity:1; 
stroke-linecap:round; stroke-linejoin:round;">
<text x="4330" y="33710"
textLength="570" font-size="680" lengthAdjust="spacingAndGlyphs"
text-anchor="middle" opacity="0">B</text>
<path d="M4360 33420
L4430 33440
L4460 33470
L4480 33520
L4480 33590
L4460 33640
L4430 33660
L4390 33690
L4190 33690
L4190 33180
L4360 33180
L4410 33200
L4430 33220
L4460 33270
L4460 33320
L4430 33370
L4410 33390
L4360 33420
L4190 33420
" />
</g>
<g style="fill:#840000; fill-opacity:0.0; 
stroke:#840000; stroke-width:100; stroke-opacity:1; 
stroke-linecap:round; stroke-linejoin:round;">
</g>
<g style="fill:#840000; fill-opacity:0.0; 
stroke:#840000; stroke-width:60; stroke-opacity:1; 
stroke-linecap:round; stroke-linejoin:round;">
<text x="4330" y="53400"
textLength="570" font-size="680" lengthAdjust="spacingAndGlyphs"
text-anchor="middle" opacity="0">C</text>
<path d="M4480 53330
L4460 53350
L4390 53380
L4340 53380
L4260 53350
L4220 53300
L4190 53250
L4170 53160
L4170 53080
L4190 52990
L4220 52940
L4260 52890
L4340 52870
L4390 52870
L4460 52890
L4480 52910
" />
</g>
<g style="fill:#840000; fill-opacity:0.0; 
stroke:#840000; stroke-width:100; stroke-opacity:1; 
stroke-linecap:round; stroke-linejoin:round;">
</g>
<g style="fill:#840000; fill-opacity:0.0; 
stroke:#840000; stroke-width:60; stroke-opacity:1; 
stroke-linecap:round; stroke-linejoin:round;">
<text x="4330" y="73080"
textLength="570" font-size="680" lengthAdjust="spacingAndGlyphs"
text-anchor="middle" opacity="0">D</text>
<path d="M4190 73060
L4190 72550
L4310 72550
L4390 72570
L4430 72620
L4460 72670
L4480 72760
L4480 72840
L4460 72930
L4430 72980
L4390 73030
L4310 73060
L4190 73060
" />
</g>
<g style="fill:#840000; fill-opacity:0.0; 
stroke:#840000; stroke-width:100; stroke-opacity:1; 
stroke-linecap:round; stroke-linejoin:round;">
</g>
<g style="fill:#840000; fill-opacity:0.0; 
stroke:#840000; stroke-width:60; stroke-opacity:1; 
stroke-linecap:round; stroke-linejoin:round;">
<path d="M112990 23620
L112210 23620
" />
</g>
<g style="fill:#840000; fill-opacity:0.0; 
stroke:#840000; stroke-width:100; stroke-opacity:1; 
stroke-linecap:round; stroke-linejoin:round;">
</g>
<g style="fill:#840000; fill-opacity:0.0; 
stroke:#840000; stroke-width:60; stroke-opacity:1; 
stroke-linecap:round; stroke-linejoin:round;">
<path d="M112990 43310
L112210 43310
" />
</g>
<g style="fill:#840000; fill-opacity:0.0; 
stroke:#840000; stroke-width:100; stroke-opacity:1; 
stroke-linecap:round; stroke-linejoin:round;">
</g>
<g style="fill:#840000; fill-opacity:0.0; 
stroke:#840000; stroke-width:60; stroke-opacity:1; 
stroke-linecap:round; stroke-linejoin:round;">
<path d="M112990 62990
L112210 62990
" />
</g>
<g style="fill:#840000; fill-opacity:0.0; 
stroke:#840000; stroke-width:100; stroke-opacity:1; 
stroke-linecap:round; stroke-linejoin:round;">
</g>
<g style="fill:#840000; fill-opacity:0.0; 
stroke:#840000; stroke-width:60; stroke-opacity:1; 
stroke-linecap:round; stroke-linejoin:round;">
<text x="112600" y="14030"
textLength="500" font-size="680" lengthAdjust="spacingAndGlyphs"
text-anchor="middle" opacity="0">A</text>
<path d="M112470 13860
L112720 13860
" />
<path d="M112430 14010
L112600 13500
L112770 14010
" />
</g>
<g style="fill:#840000; fill-opacity:0.0; 
stroke:#840000; stroke-width:100; stroke-opacity:1; 
stroke-linecap:round; stroke-linejoin:round;">
</g>
<g style="fill:#840000; fill-opacity:0.0; 
stroke:#840000; stroke-width:60; stroke-opacity:1; 
stroke-linecap:round; stroke-linejoin:round;">
<text x="112600" y="33710"
textLength="570" font-size="680" lengthAdjust="spacingAndGlyphs"
text-anchor="middle" opacity="0">B</text>
<path d="M112630 33420
L112700 33440
L112730 33470
L112750 33520
L112750 33590
L112730 33640
L112700 33660
L112660 33690
L112460 33690
L112460 33180
L112630 33180
L112680 33200
L112700 33220
L112730 33270
L112730 33320
L112700 33370
L112680 33390
L112630 33420
L112460 33420
" />
</g>
<g style="fill:#840000; fill-opacity:0.0; 
stroke:#840000; stroke-width:100; stroke-opacity:1; 
stroke-linecap:round; stroke-linejoin:round;">
</g>
<g style="fill:#840000; fill-opacity:0.0; 
stroke:#840000; stroke-width:60; stroke-opacity:1; 
stroke-linecap:round; stroke-linejoin:round;">
<text x="112600" y="53400"
textLength="570" font-size="680" lengthAdjust="spacingAndGlyphs"
text-anchor="middle" opacity="0">C</text>
<path d="M112750 53330
L112730 53350
L112660 53380
L112610 53380
L112530 53350
L112490 53300
L112460 53250
L112440 53160
L112440 53080
L112460 52990
L112490 52940
L112530 52890
L112610 52870
L112660 52870
L112730 52890
L112750 52910
" />
</g>
<g style="fill:#840000; fill-opacity:0.0; 
stroke:#840000; stroke-width:100; stroke-opacity:1; 
stroke-linecap:round; stroke-linejoin:round;">
</g>
<g style="fill:#840000; fill-opacity:0.0; 
stroke:#840000; stroke-width:60; stroke-opacity:1; 
stroke-linecap:round; stroke-linejoin:round;">
<text x="112600" y="73080"
textLength="570" font-size="680" lengthAdjust="spacingAndGlyphs"
text-anchor="middle" opacity="0">D</text>
<path d="M112460 73060
L112460 72550
L112580 72550
L112660 72570
L112700 72620
L112730 72670
L112750 72760
L112750 72840
L112730 72930
L112700 72980
L112660 73030
L112580 73060
L112460 73060
" />
</g>
<g style="fill:#840000; fill-opacity:0.0; 
stroke:#840000; stroke-width:100; stroke-opacity:1; 
stroke-linecap:round; stroke-linejoin:round;">
</g>
<g style="fill:#840000; fill-opacity:0.0; 
stroke:#840000; stroke-width:60; stroke-opacity:1; 
stroke-linecap:round; stroke-linejoin:round;">
<text x="78740" y="76320"
textLength="2760" font-size="780" lengthAdjust="spacingAndGlyphs"
text-anchor="start" opacity="0">Date: </text>
<path d="M78910 76290
L78910 75700
L79050 75700
L79130 75730
L79190 75790
L79210 75840
L79240 75950
L79240 76040
L79210 76150
L79190 76210
L79130 76260
L79050 76290
L78910 76290
" />
<path d="M79750 76290
L79750 75980
L79720 75930
L79660 75900
L79550 75900
L79500 75930
" />
<path d="M79750 76260
L79690 76290
L79550 76290
L79500 76260
L79470 76210
L79470 76150
L79500 76100
L79550 76070
L79690 76070
L79750 76040
" />
<path d="M79950 75900
L80170 75900
" />
<path d="M80030 75700
L80030 76210
L80060 76260
L80110 76290
L80170 76290
" />
<path d="M80590 76260
L80540 76290
L80420 76290
L80370 76260
L80340 76210
L80340 75980
L80370 75930
L80420 75900
L80540 75900
L80590 75930
L80620 75980
L80620 76040
L80340 76100
" />
<path d="M80870 76240
L80900 76260
L80870 76290
L80840 76260
L80870 76240
L80870 76290
" />
<path d="M80870 75930
L80900 75950
L80870 75980
L80840 75950
L80870 75930
L80870 75980
" />
</g>
<g style="fill:#840000; fill-opacity:0.0; 
stroke:#840000; stroke-width:100; stroke-opacity:1; 
stroke-linecap:round; stroke-linejoin:round;">
</g>
<g style="fill:#840000; fill-opacity:0.0; 
stroke:#840000; stroke-width:60; stroke-opacity:1; 
stroke-linecap:round; stroke-linejoin:round;">
<path d="M69690 76580
L112210 76580
" />
</g>
<g style="fill:#840000; fill-opacity:0.0; 
stroke:#840000; stroke-width:100; stroke-opacity:1; 
stroke-linecap:round; stroke-linejoin:round;">
</g>
<g style="fill:#840000; fill-opacity:0.0; 
stroke:#840000; stroke-width:60; stroke-opacity:1; 
stroke-linecap:round; stroke-linejoin:round;">
<text x="70080" y="77420"
textLength="23550" font-size="780" lengthAdjust="spacingAndGlyphs"
text-anchor="start" opacity="0">KiCad E.D.A.  kicad 5.1.5-52549c5~86~ubuntu18.04.1</text>
<path d="M70250 77390
L70250 76800
" />
<path d="M70580 77390
L70330 77050
" />
<path d="M70580 76800
L70250 77140
" />
<path d="M70840 77390
L70840 77000
" />
<path d="M70840 76800
L70810 76830
L70840 76860
L70860 76830
L70840 76800
L70840 76860
" />
<path d="M71450 77340
L71430 77360
L71340 77390
L71290 77390
L71200 77360
L71140 77310
L71120 77250
L71090 77140
L71090 77050
L71120 76940
L71140 76890
L71200 76830
L71290 76800
L71340 76800
L71430 76830
L71450 76860
" />
<path d="M71960 77390
L71960 77080
L71930 77030
L71880 77000
L71760 77000
L71710 77030
" />
<path d="M71960 77360
L71900 77390
L71760 77390
L71710 77360
L71680 77310
L71680 77250
L71710 77200
L71760 77170
L71900 77170
L71960 77140
" />
<path d="M72490 77390
L72490 76800
" />
<path d="M72490 77360
L72440 77390
L72320 77390
L72270 77360
L72240 77340
L72210 77280
L72210 77110
L72240 77050
L72270 77030
L72320 77000
L72440 77000
L72490 77030
" />
<path d="M73220 77080
L73420 77080
" />
<path d="M73500 77390
L73220 77390
L73220 76800
L73500 76800
" />
<path d="M73760 77340
L73790 77360
L73760 77390
L73730 77360
L73760 77340
L73760 77390
" />
<path d="M74040 77390
L74040 76800
L74180 76800
L74260 76830
L74320 76890
L74350 76940
L74380 77050
L74380 77140
L74350 77250
L74320 77310
L74260 77360
L74180 77390
L74040 77390
" />
<path d="M74630 77340
L74660 77360
L74630 77390
L74600 77360
L74630 77340
L74630 77390
" />
<path d="M74880 77220
L75160 77220
" />
<path d="M74830 77390
L75020 76800
L75220 77390
" />
<path d="M75420 77340
L75440 77360
L75420 77390
L75390 77360
L75420 77340
L75420 77390
" />
<path d="M76600 77390
L76600 76800
" />
<path d="M76650 77170
L76820 77390
" />
<path d="M76820 77000
L76600 77220
" />
<path d="M77070 77390
L77070 77000
" />
<path d="M77070 76800
L77040 76830
L77070 76860
L77100 76830
L77070 76800
L77070 76860
" />
<path d="M77610 77360
L77550 77390
L77440 77390
L77380 77360
L77350 77340
L77330 77280
L77330 77110
L77350 77050
L77380 77030
L77440 77000
L77550 77000
L77610 77030
" />
<path d="M78110 77390
L78110 77080
L78080 77030
L78030 77000
L77920 77000
L77860 77030
" />
<path d="M78110 77360
L78060 77390
L77920 77390
L77860 77360
L77830 77310
L77830 77250
L77860 77200
L77920 77170
L78060 77170
L78110 77140
" />
<path d="M78650 77390
L78650 76800
" />
<path d="M78650 77360
L78590 77390
L78480 77390
L78420 77360
L78390 77340
L78370 77280
L78370 77110
L78390 77050
L78420 77030
L78480 77000
L78590 77000
L78650 77030
" />
<path d="M79660 76800
L79380 76800
L79350 77080
L79380 77050
L79430 77030
L79570 77030
L79630 77050
L79660 77080
L79690 77140
L79690 77280
L79660 77340
L79630 77360
L79570 77390
L79430 77390
L79380 77360
L79350 77340
" />
<path d="M79940 77340
L79970 77360
L79940 77390
L79910 77360
L79940 77340
L79940 77390
" />
<path d="M80530 77390
L80190 77390
" />
<path d="M80360 77390
L80360 76800
L80300 76890
L80250 76940
L80190 76970
" />
<path d="M80780 77340
L80810 77360
L80780 77390
L80750 77360
L80780 77340
L80780 77390
" />
<path d="M81340 76800
L81060 76800
L81030 77080
L81060 77050
L81120 77030
L81260 77030
L81320 77050
L81340 77080
L81370 77140
L81370 77280
L81340 77340
L81320 77360
L81260 77390
L81120 77390
L81060 77360
L81030 77340
" />
<path d="M81620 77170
L82070 77170
" />
<path d="M82640 76800
L82350 76800
L82330 77080
L82350 77050
L82410 77030
L82550 77030
L82610 77050
L82640 77080
L82660 77140
L82660 77280
L82640 77340
L82610 77360
L82550 77390
L82410 77390
L82350 77360
L82330 77340
" />
<path d="M82890 76860
L82920 76830
L82970 76800
L83110 76800
L83170 76830
L83200 76860
L83230 76910
L83230 76970
L83200 77050
L82860 77390
L83230 77390
" />
<path d="M83760 76800
L83480 76800
L83450 77080
L83480 77050
L83530 77030
L83680 77030
L83730 77050
L83760 77080
L83790 77140
L83790 77280
L83760 77340
L83730 77360
L83680 77390
L83530 77390
L83480 77360
L83450 77340
" />
<path d="M84290 77000
L84290 77390
" />
<path d="M84150 76770
L84010 77200
L84380 77200
" />
<path d="M84630 77390
L84740 77390
L84800 77360
L84830 77340
L84880 77250
L84910 77140
L84910 76910
L84880 76860
L84860 76830
L84800 76800
L84690 76800
L84630 76830
L84600 76860
L84570 76910
L84570 77050
L84600 77110
L84630 77140
L84690 77170
L84800 77170
L84860 77140
L84880 77110
L84910 77050
" />
<path d="M85420 77360
L85360 77390
L85250 77390
L85190 77360
L85160 77340
L85140 77280
L85140 77110
L85160 77050
L85190 77030
L85250 77000
L85360 77000
L85420 77030
" />
<path d="M85950 76800
L85670 76800
L85640 77080
L85670 77050
L85730 77030
L85870 77030
L85920 77050
L85950 77080
L85980 77140
L85980 77280
L85950 77340
L85920 77360
L85870 77390
L85730 77390
L85670 77360
L85640 77340
" />
<path d="M86090 76640
L86650 76640
" />
<path d="M86320 77050
L86260 77030
L86230 77000
L86200 76940
L86200 76910
L86230 76860
L86260 76830
L86320 76800
L86430 76800
L86480 76830
L86510 76860
L86540 76910
L86540 76940
L86510 77000
L86480 77030
L86430 77050
L86320 77050
L86260 77080
L86230 77110
L86200 77170
L86200 77280
L86230 77340
L86260 77360
L86320 77390
L86430 77390
L86480 77360
L86510 77340
L86540 77280
L86540 77170
L86510 77110
L86480 77080
L86430 77050
" />
<path d="M86650 76640
L87220 76640
" />
<path d="M87050 76800
L86930 76800
L86880 76830
L86850 76860
L86790 76940
L86770 77050
L86770 77280
L86790 77340
L86820 77360
L86880 77390
L86990 77390
L87050 77360
L87070 77340
L87100 77280
L87100 77140
L87070 77080
L87050 77050
L86990 77030
L86880 77030
L86820 77050
L86790 77080
L86770 77140
" />
<path d="M87610 77000
L87610 77390
" />
<path d="M87360 77000
L87360 77310
L87380 77360
L87440 77390
L87520 77390
L87580 77360
L87610 77340
" />
<path d="M87890 77390
L87890 76800
" />
<path d="M87890 77030
L87950 77000
L88060 77000
L88110 77030
L88140 77050
L88170 77110
L88170 77280
L88140 77340
L88110 77360
L88060 77390
L87950 77390
L87890 77360
" />
<path d="M88680 77000
L88680 77390
" />
<path d="M88420 77000
L88420 77310
L88450 77360
L88510 77390
L88590 77390
L88650 77360
L88680 77340
" />
<path d="M88960 77000
L88960 77390
" />
<path d="M88960 77050
L88990 77030
L89040 77000
L89130 77000
L89180 77030
L89210 77080
L89210 77390
" />
<path d="M89410 77000
L89630 77000
" />
<path d="M89490 76800
L89490 77310
L89520 77360
L89580 77390
L89630 77390
" />
<path d="M90080 77000
L90080 77390
" />
<path d="M89830 77000
L89830 77310
L89860 77360
L89910 77390
L90000 77390
L90050 77360
L90080 77340
" />
<path d="M90670 77390
L90330 77390
" />
<path d="M90500 77390
L90500 76800
L90450 76890
L90390 76940
L90330 76970
" />
<path d="M91010 77050
L90950 77030
L90920 77000
L90900 76940
L90900 76910
L90920 76860
L90950 76830
L91010 76800
L91120 76800
L91180 76830
L91200 76860
L91230 76910
L91230 76940
L91200 77000
L91180 77030
L91120 77050
L91010 77050
L90950 77080
L90920 77110
L90900 77170
L90900 77280
L90920 77340
L90950 77360
L91010 77390
L91120 77390
L91180 77360
L91200 77340
L91230 77280
L91230 77170
L91200 77110
L91180 77080
L91120 77050
" />
<path d="M91490 77340
L91510 77360
L91490 77390
L91460 77360
L91490 77340
L91490 77390
" />
<path d="M91880 76800
L91940 76800
L91990 76830
L92020 76860
L92050 76910
L92080 77030
L92080 77170
L92050 77280
L92020 77340
L91990 77360
L91940 77390
L91880 77390
L91820 77360
L91790 77340
L91770 77280
L91740 77170
L91740 77030
L91770 76910
L91790 76860
L91820 76830
L91880 76800
" />
<path d="M92580 77000
L92580 77390
" />
<path d="M92440 76770
L92300 77200
L92670 77200
" />
<path d="M92890 77340
L92920 77360
L92890 77390
L92860 77360
L92890 77340
L92890 77390
" />
<path d="M93480 77390
L93140 77390
" />
<path d="M93310 77390
L93310 76800
L93260 76890
L93200 76940
L93140 76970
" />
</g>
<g style="fill:#840000; fill-opacity:0.0; 
stroke:#840000; stroke-width:100; stroke-opacity:1; 
stroke-linecap:round; stroke-linejoin:round;">
</g>
<g style="fill:#840000; fill-opacity:0.0; 
stroke:#840000; stroke-width:60; stroke-opacity:1; 
stroke-linecap:round; stroke-linejoin:round;">
<path d="M69690 75400
L112210 75400
" />
</g>
<g style="fill:#840000; fill-opacity:0.0; 
stroke:#840000; stroke-width:100; stroke-opacity:1; 
stroke-linecap:round; stroke-linejoin:round;">
</g>
<g style="fill:#840000; fill-opacity:0.0; 
stroke:#840000; stroke-width:120; stroke-opacity:1; 
stroke-linecap:round; stroke-linejoin:round;">
<text x="103540" y="76320"
textLength="2340" font-size="780" lengthAdjust="spacingAndGlyphs"
text-anchor="start" opacity="0">Rev: </text>
<path d="M104090 76290
L103890 76010
" />
<path d="M103750 76290
L103750 75700
L103980 75700
L104030 75730
L104060 75760
L104090 75810
L104090 75900
L104060 75950
L104030 75980
L103980 76010
L103750 76010
" />
<path d="M104570 76260
L104510 76290
L104400 76290
L104340 76260
L104320 76210
L104320 75980
L104340 75930
L104400 75900
L104510 75900
L104570 75930
L104600 75980
L104600 76040
L104320 76100
" />
<path d="M104790 75900
L104930 76290
L105070 75900
" />
<path d="M105300 76240
L105330 76260
L105300 76290
L105270 76260
L105300 76240
L105300 76290
" />
<path d="M105300 75930
L105330 75950
L105300 75980
L105270 75950
L105300 75930
L105300 75980
" />
</g>
<g style="fill:#840000; fill-opacity:0.0; 
stroke:#840000; stroke-width:100; stroke-opacity:1; 
stroke-linecap:round; stroke-linejoin:round;">
</g>
<g style="fill:#840000; fill-opacity:0.0; 
stroke:#840000; stroke-width:60; stroke-opacity:1; 
stroke-linecap:round; stroke-linejoin:round;">
<text x="70080" y="76320"
textLength="3780" font-size="780" lengthAdjust="spacingAndGlyphs"
text-anchor="start" opacity="0">Size: A4</text>
<path d="M70220 76260
L70300 76290
L70440 76290
L70500 76260
L70530 76240
L70550 76180
L70550 76120
L70530 76070
L70500 76040
L70440 76010
L70330 75980
L70270 75950
L70250 75930
L70220 75870
L70220 75810
L70250 75760
L70270 75730
L70330 75700
L70470 75700
L70550 75730
" />
<path d="M70810 76290
L70810 75900
" />
<path d="M70810 75700
L70780 75730
L70810 75760
L70840 75730
L70810 75700
L70810 75760
" />
<path d="M71030 75900
L71340 75900
L71030 76290
L71340 76290
" />
<path d="M71790 76260
L71730 76290
L71620 76290
L71570 76260
L71540 76210
L71540 75980
L71570 75930
L71620 75900
L71730 75900
L71790 75930
L71820 75980
L71820 76040
L71540 76100
" />
<path d="M72070 76240
L72100 76260
L72070 76290
L72040 76260
L72070 76240
L72070 76290
" />
<path d="M72070 75930
L72100 75950
L72070 75980
L72040 75950
L72070 75930
L72070 75980
" />
<path d="M72770 76120
L73060 76120
" />
<path d="M72720 76290
L72910 75700
L73110 76290
" />
<path d="M73560 75900
L73560 76290
" />
<path d="M73420 75670
L73280 76100
L73650 76100
" />
</g>
<g style="fill:#840000; fill-opacity:0.0; 
stroke:#840000; stroke-width:100; stroke-opacity:1; 
stroke-linecap:round; stroke-linejoin:round;">
</g>
<g style="fill:#840000; fill-opacity:0.0; 
stroke:#840000; stroke-width:60; stroke-opacity:1; 
stroke-linecap:round; stroke-linejoin:round;">
<text x="103540" y="77420"
textLength="3350" font-size="780" lengthAdjust="spacingAndGlyphs"
text-anchor="start" opacity="0">Id: 1/2</text>
<path d="M103710 77390
L103710 76800
" />
<path d="M104240 77390
L104240 76800
" />
<path d="M104240 77360
L104180 77390
L104070 77390
L104010 77360
L103990 77340
L103960 77280
L103960 77110
L103990 77050
L104010 77030
L104070 77000
L104180 77000
L104240 77030
" />
<path d="M104520 77340
L104550 77360
L104520 77390
L104490 77360
L104520 77340
L104520 77390
" />
<path d="M104520 77030
L104550 77050
L104520 77080
L104490 77050
L104520 77030
L104520 77080
" />
<path d="M105560 77390
L105220 77390
" />
<path d="M105390 77390
L105390 76800
L105340 76890
L105280 76940
L105220 76970
" />
<path d="M106230 76770
L105730 77530
" />
<path d="M106400 76860
L106430 76830
L106490 76800
L106630 76800
L106680 76830
L106710 76860
L106740 76910
L106740 76970
L106710 77050
L106370 77390
L106740 77390
" />
</g>
<g style="fill:#840000; fill-opacity:0.0; 
stroke:#840000; stroke-width:100; stroke-opacity:1; 
stroke-linecap:round; stroke-linejoin:round;">
</g>
<g style="fill:#840000; fill-opacity:0.0; 
stroke:#840000; stroke-width:60; stroke-opacity:1; 
stroke-linecap:round; stroke-linejoin:round;">
<path d="M69690 73820
L112210 73820
" />
</g>
<g style="fill:#840000; fill-opacity:0.0; 
stroke:#840000; stroke-width:100; stroke-opacity:1; 
stroke-linecap:round; stroke-linejoin:round;">
</g>
<g style="fill:#840000; fill-opacity:0.0; 
stroke:#840000; stroke-width:160; stroke-opacity:1; 
stroke-linecap:round; stroke-linejoin:round;">
<text x="70080" y="74920"
textLength="3710" font-size="1050" lengthAdjust="spacingAndGlyphs"
text-anchor="start" opacity="0">Title: </text>
<path d="M70360 74090
L70810 74090
" />
<path d="M70480 74880
L70580 74090
" />
<path d="M70970 74880
L71040 74360
" />
<path d="M71070 74090
L71030 74130
L71060 74170
L71110 74130
L71070 74090
L71060 74170
" />
<path d="M71300 74360
L71600 74360
" />
<path d="M71450 74090
L71360 74770
L71390 74840
L71460 74880
L71540 74880
" />
<path d="M71910 74880
L71840 74840
L71820 74770
L71900 74090
" />
<path d="M72520 74840
L72440 74880
L72290 74880
L72220 74840
L72190 74770
L72230 74470
L72280 74390
L72360 74360
L72510 74360
L72580 74390
L72610 74470
L72600 74540
L72210 74620
" />
<path d="M72900 74810
L72930 74840
L72890 74880
L72860 74840
L72900 74810
L72890 74880
" />
<path d="M72950 74390
L72990 74430
L72940 74470
L72910 74430
L72950 74390
L72940 74470
" />
</g>
<g style="fill:#840000; fill-opacity:0.0; 
stroke:#840000; stroke-width:100; stroke-opacity:1; 
stroke-linecap:round; stroke-linejoin:round;">
</g>
<g style="fill:#840000; fill-opacity:0.0; 
stroke:#840000; stroke-width:60; stroke-opacity:1; 
stroke-linecap:round; stroke-linejoin:round;">
<text x="70080" y="73400"
textLength="10520" font-size="780" lengthAdjust="spacingAndGlyphs"
text-anchor="start" opacity="0">File: UV_LED_Driver.sch</text>
<path d="M70440 73060
L70250 73060
" />
<path d="M70250 73370
L70250 72780
L70530 72780
" />
<path d="M70750 73370
L70750 72980
" />
<path d="M70750 72780
L70720 72810
L70750 72840
L70780 72810
L70750 72780
L70750 72840
" />
<path d="M71120 73370
L71060 73340
L71030 73290
L71030 72780
" />
<path d="M71570 73340
L71510 73370
L71400 73370
L71340 73340
L71310 73290
L71310 73060
L71340 73010
L71400 72980
L71510 72980
L71570 73010
L71590 73060
L71590 73120
L71310 73180
" />
<path d="M71850 73320
L71880 73340
L71850 73370
L71820 73340
L71850 73320
L71850 73370
" />
<path d="M71850 73010
L71880 73030
L71850 73060
L71820 73030
L71850 73010
L71850 73060
" />
<path d="M72580 72780
L72580 73260
L72610 73320
L72630 73340
L72690 73370
L72800 73370
L72860 73340
L72890 73320
L72910 73260
L72910 72780
" />
<path d="M73110 72780
L73310 73370
L73500 72780
" />
<path d="M73560 73430
L74010 73430
" />
<path d="M74430 73370
L74150 73370
L74150 72780
" />
<path d="M74630 73060
L74830 73060
" />
<path d="M74910 73370
L74630 73370
L74630 72780
L74910 72780
" />
<path d="M75160 73370
L75160 72780
L75300 72780
L75390 72810
L75440 72870
L75470 72920
L75500 73030
L75500 73120
L75470 73230
L75440 73290
L75390 73340
L75300 73370
L75160 73370
" />
<path d="M75610 73430
L76060 73430
" />
<path d="M76200 73370
L76200 72780
L76340 72780
L76430 72810
L76480 72870
L76510 72920
L76540 73030
L76540 73120
L76510 73230
L76480 73290
L76430 73340
L76340 73370
L76200 73370
" />
<path d="M76790 73370
L76790 72980
" />
<path d="M76790 73090
L76820 73030
L76850 73010
L76900 72980
L76960 72980
" />
<path d="M77160 73370
L77160 72980
" />
<path d="M77160 72780
L77130 72810
L77160 72840
L77190 72810
L77160 72780
L77160 72840
" />
<path d="M77380 72980
L77520 73370
L77660 72980
" />
<path d="M78110 73340
L78060 73370
L77940 73370
L77890 73340
L77860 73290
L77860 73060
L77890 73010
L77940 72980
L78060 72980
L78110 73010
L78140 73060
L78140 73120
L77860 73180
" />
<path d="M78390 73370
L78390 72980
" />
<path d="M78390 73090
L78420 73030
L78450 73010
L78510 72980
L78560 72980
" />
<path d="M78760 73320
L78790 73340
L78760 73370
L78730 73340
L78760 73320
L78760 73370
" />
<path d="M79010 73340
L79070 73370
L79180 73370
L79240 73340
L79260 73290
L79260 73260
L79240 73200
L79180 73180
L79100 73180
L79040 73150
L79010 73090
L79010 73060
L79040 73010
L79100 72980
L79180 72980
L79240 73010
" />
<path d="M79770 73340
L79710 73370
L79600 73370
L79550 73340
L79520 73320
L79490 73260
L79490 73090
L79520 73030
L79550 73010
L79600 72980
L79710 72980
L79770 73010
" />
<path d="M80020 73370
L80020 72780
" />
<path d="M80280 73370
L80280 73060
L80250 73010
L80190 72980
L80110 72980
L80050 73010
L80020 73030
" />
</g>
<g style="fill:#840000; fill-opacity:0.0; 
stroke:#840000; stroke-width:100; stroke-opacity:1; 
stroke-linecap:round; stroke-linejoin:round;">
</g>
<g style="fill:#840000; fill-opacity:0.0; 
stroke:#840000; stroke-width:60; stroke-opacity:1; 
stroke-linecap:round; stroke-linejoin:round;">
<path d="M69690 71460
L112210 71460
" />
</g>
<g style="fill:#840000; fill-opacity:0.0; 
stroke:#840000; stroke-width:100; stroke-opacity:1; 
stroke-linecap:round; stroke-linejoin:round;">
</g>
<g style="fill:#840000; fill-opacity:0.0; 
stroke:#840000; stroke-width:60; stroke-opacity:1; 
stroke-linecap:round; stroke-linejoin:round;">
<text x="70080" y="72340"
textLength="3850" font-size="780" lengthAdjust="spacingAndGlyphs"
text-anchor="start" opacity="0">Sheet: /</text>
<path d="M70220 72280
L70300 72310
L70440 72310
L70500 72280
L70530 72260
L70550 72200
L70550 72140
L70530 72090
L70500 72060
L70440 72030
L70330 72000
L70270 71970
L70250 71950
L70220 71890
L70220 71830
L70250 71780
L70270 71750
L70330 71720
L70470 71720
L70550 71750
" />
<path d="M70810 72310
L70810 71720
" />
<path d="M71060 72310
L71060 72000
L71030 71950
L70980 71920
L70890 71920
L70840 71950
L70810 71970
" />
<path d="M71570 72280
L71510 72310
L71400 72310
L71340 72280
L71310 72230
L71310 72000
L71340 71950
L71400 71920
L71510 71920
L71570 71950
L71590 72000
L71590 72060
L71310 72120
" />
<path d="M72070 72280
L72020 72310
L71900 72310
L71850 72280
L71820 72230
L71820 72000
L71850 71950
L71900 71920
L72020 71920
L72070 71950
L72100 72000
L72100 72060
L71820 72120
" />
<path d="M72270 71920
L72490 71920
" />
<path d="M72350 71720
L72350 72230
L72380 72280
L72440 72310
L72490 72310
" />
<path d="M72690 72260
L72720 72280
L72690 72310
L72660 72280
L72690 72260
L72690 72310
" />
<path d="M72690 71950
L72720 71970
L72690 72000
L72660 71970
L72690 71950
L72690 72000
" />
<path d="M73840 71690
L73340 72450
" />
</g>
<g style="fill:#840000; fill-opacity:0.0; 
stroke:#840000; stroke-width:100; stroke-opacity:1; 
stroke-linecap:round; stroke-linejoin:round;">
</g>
<g style="fill:#840000; fill-opacity:0.0; 
stroke:#840000; stroke-width:60; stroke-opacity:1; 
stroke-linecap:round; stroke-linejoin:round;">
<path d="M77560 75400
L77560 76580
" />
</g>
<g style="fill:#840000; fill-opacity:0.0; 
stroke:#840000; stroke-width:100; stroke-opacity:1; 
stroke-linecap:round; stroke-linejoin:round;">
</g>
<g style="fill:#840000; fill-opacity:0.0; 
stroke:#840000; stroke-width:60; stroke-opacity:1; 
stroke-linecap:round; stroke-linejoin:round;">
<path d="M102760 75400
L102760 77960
" />
</g>
<g style="fill:#840084; fill-opacity:0.0; 
stroke:#840084; stroke-width:60; stroke-opacity:1; 
stroke-linecap:round; stroke-linejoin:round;">
<path d="M27000 29250
L44750 29250
L44750 40000
L27000 40000
L27000 29250
" />
</g>
<g style="fill:#008484; fill-opacity:0.0; 
stroke:#008484; stroke-width:60; stroke-opacity:1; 
stroke-linecap:round; stroke-linejoin:round;">
</g>
<g style="fill:#000000; fill-opacity:0.0; 
stroke:#000000; stroke-width:60; stroke-opacity:1; 
stroke-linecap:round; stroke-linejoin:round;">
<text x="27000" y="29210"
textLength="11800" font-size="660" lengthAdjust="spacingAndGlyphs"
text-anchor="start" opacity="0">Sheet: UV_LED_DRIVER_MODULE</text>
<path d="M27120 29160
L27190 29180
L27310 29180
L27360 29160
L27380 29130
L27410 29090
L27410 29040
L27380 28990
L27360 28970
L27310 28940
L27220 28920
L27170 28900
L27140 28870
L27120 28820
L27120 28780
L27140 28730
L27170 28710
L27220 28680
L27330 28680
L27410 28710
" />
<path d="M27620 29180
L27620 28680
" />
<path d="M27830 29180
L27830 28920
L27810 28870
L27760 28850
L27690 28850
L27640 28870
L27620 28900
" />
<path d="M28260 29160
L28220 29180
L28120 29180
L28070 29160
L28050 29110
L28050 28920
L28070 28870
L28120 28850
L28220 28850
L28260 28870
L28290 28920
L28290 28970
L28050 29010
" />
<path d="M28690 29160
L28640 29180
L28550 29180
L28500 29160
L28480 29110
L28480 28920
L28500 28870
L28550 28850
L28640 28850
L28690 28870
L28720 28920
L28720 28970
L28480 29010
" />
<path d="M28860 28850
L29050 28850
" />
<path d="M28930 28680
L28930 29110
L28950 29160
L29000 29180
L29050 29180
" />
<path d="M29220 29130
L29240 29160
L29220 29180
L29190 29160
L29220 29130
L29220 29180
" />
<path d="M29220 28870
L29240 28900
L29220 28920
L29190 28900
L29220 28870
L29220 28920
" />
<path d="M29830 28680
L29830 29090
L29860 29130
L29880 29160
L29930 29180
L30030 29180
L30070 29160
L30100 29130
L30120 29090
L30120 28680
" />
<path d="M30290 28680
L30450 29180
L30620 28680
" />
<path d="M30670 29230
L31050 29230
" />
<path d="M31410 29180
L31170 29180
L31170 28680
" />
<path d="M31570 28920
L31740 28920
" />
<path d="M31810 29180
L31570 29180
L31570 28680
L31810 28680
" />
<path d="M32030 29180
L32030 28680
L32140 28680
L32220 28710
L32260 28750
L32290 28800
L32310 28900
L32310 28970
L32290 29060
L32260 29110
L32220 29160
L32140 29180
L32030 29180
" />
<path d="M32410 29230
L32790 29230
" />
<path d="M32910 29180
L32910 28680
L33030 28680
L33100 28710
L33140 28750
L33170 28800
L33190 28900
L33190 28970
L33170 29060
L33140 29110
L33100 29160
L33030 29180
L32910 29180
" />
<path d="M33690 29180
L33530 28940
" />
<path d="M33410 29180
L33410 28680
L33600 28680
L33640 28710
L33670 28730
L33690 28780
L33690 28850
L33670 28900
L33640 28920
L33600 28940
L33410 28940
" />
<path d="M33910 29180
L33910 28680
" />
<path d="M34070 28680
L34240 29180
L34410 28680
" />
<path d="M34570 28920
L34740 28920
" />
<path d="M34810 29180
L34570 29180
L34570 28680
L34810 28680
" />
<path d="M35310 29180
L35140 28940
" />
<path d="M35030 29180
L35030 28680
L35220 28680
L35260 28710
L35290 28730
L35310 28780
L35310 28850
L35290 28900
L35260 28920
L35220 28940
L35030 28940
" />
<path d="M35410 29230
L35790 29230
" />
<path d="M35910 29180
L35910 28680
L36070 29040
L36240 28680
L36240 29180
" />
<path d="M36570 28680
L36670 28680
L36720 28710
L36760 28750
L36790 28850
L36790 29010
L36760 29110
L36720 29160
L36670 29180
L36570 29180
L36530 29160
L36480 29110
L36450 29010
L36450 28850
L36480 28750
L36530 28710
L36570 28680
" />
<path d="M37000 29180
L37000 28680
L37120 28680
L37190 28710
L37240 28750
L37260 28800
L37290 28900
L37290 28970
L37260 29060
L37240 29110
L37190 29160
L37120 29180
L37000 29180
" />
<path d="M37500 28680
L37500 29090
L37530 29130
L37550 29160
L37600 29180
L37690 29180
L37740 29160
L37760 29130
L37790 29090
L37790 28680
" />
<path d="M38260 29180
L38030 29180
L38030 28680
" />
<path d="M38430 28920
L38600 28920
" />
<path d="M38670 29180
L38430 29180
L38430 28680
L38670 28680
" />
</g>
<g style="fill:#848400; fill-opacity:0.0; 
stroke:#848400; stroke-width:60; stroke-opacity:1; 
stroke-linecap:round; stroke-linejoin:round;">
</g>
<g style="fill:#000000; fill-opacity:0.0; 
stroke:#000000; stroke-width:60; stroke-opacity:1; 
stroke-linecap:round; stroke-linejoin:round;">
<text x="27000" y="40540"
textLength="8460" font-size="660" lengthAdjust="spacingAndGlyphs"
text-anchor="start" opacity="0">File: ../LED_Driver.sch</text>
<path d="M27310 40250
L27140 40250
" />
<path d="M27140 40510
L27140 40010
L27380 40010
" />
<path d="M27570 40510
L27570 40180
" />
<path d="M27570 40010
L27550 40040
L27570 40060
L27600 40040
L27570 40010
L27570 40060
" />
<path d="M27880 40510
L27830 40490
L27810 40440
L27810 40010
" />
<path d="M28260 40490
L28220 40510
L28120 40510
L28070 40490
L28050 40440
L28050 40250
L28070 40200
L28120 40180
L28220 40180
L28260 40200
L28290 40250
L28290 40300
L28050 40340
" />
<path d="M28500 40460
L28530 40490
L28500 40510
L28480 40490
L28500 40460
L28500 40510
" />
<path d="M28500 40200
L28530 40230
L28500 40250
L28480 40230
L28500 40200
L28500 40250
" />
<path d="M29120 40460
L29140 40490
L29120 40510
L29100 40490
L29120 40460
L29120 40510
" />
<path d="M29360 40460
L29380 40490
L29360 40510
L29330 40490
L29360 40460
L29360 40510
" />
<path d="M29950 39990
L29530 40630
" />
<path d="M30360 40510
L30120 40510
L30120 40010
" />
<path d="M30530 40250
L30690 40250
" />
<path d="M30760 40510
L30530 40510
L30530 40010
L30760 40010
" />
<path d="M30980 40510
L30980 40010
L31100 40010
L31170 40040
L31220 40080
L31240 40130
L31260 40230
L31260 40300
L31240 40390
L31220 40440
L31170 40490
L31100 40510
L30980 40510
" />
<path d="M31360 40560
L31740 40560
" />
<path d="M31860 40510
L31860 40010
L31980 40010
L32050 40040
L32100 40080
L32120 40130
L32140 40230
L32140 40300
L32120 40390
L32100 40440
L32050 40490
L31980 40510
L31860 40510
" />
<path d="M32360 40510
L32360 40180
" />
<path d="M32360 40270
L32380 40230
L32410 40200
L32450 40180
L32500 40180
" />
<path d="M32670 40510
L32670 40180
" />
<path d="M32670 40010
L32640 40040
L32670 40060
L32690 40040
L32670 40010
L32670 40060
" />
<path d="M32860 40180
L32980 40510
L33100 40180
" />
<path d="M33480 40490
L33430 40510
L33330 40510
L33290 40490
L33260 40440
L33260 40250
L33290 40200
L33330 40180
L33430 40180
L33480 40200
L33500 40250
L33500 40300
L33260 40340
" />
<path d="M33720 40510
L33720 40180
" />
<path d="M33720 40270
L33740 40230
L33760 40200
L33810 40180
L33860 40180
" />
<path d="M34030 40460
L34050 40490
L34030 40510
L34000 40490
L34030 40460
L34030 40510
" />
<path d="M34240 40490
L34290 40510
L34380 40510
L34430 40490
L34450 40440
L34450 40420
L34430 40370
L34380 40340
L34310 40340
L34260 40320
L34240 40270
L34240 40250
L34260 40200
L34310 40180
L34380 40180
L34430 40200
" />
<path d="M34880 40490
L34830 40510
L34740 40510
L34690 40490
L34670 40460
L34640 40420
L34640 40270
L34670 40230
L34690 40200
L34740 40180
L34830 40180
L34880 40200
" />
<path d="M35100 40510
L35100 40010
" />
<path d="M35310 40510
L35310 40250
L35290 40200
L35240 40180
L35170 40180
L35120 40200
L35100 40230
" />
</g>
<g style="fill:#840084; fill-opacity:0.0; 
stroke:#840084; stroke-width:60; stroke-opacity:1; 
stroke-linecap:round; stroke-linejoin:round;">
</g>
<g style="fill:#848400; fill-opacity:0.0; 
stroke:#848400; stroke-width:60; stroke-opacity:1; 
stroke-linecap:round; stroke-linejoin:round;">
<text x="44150" y="32500"
textLength="1580" font-size="660" lengthAdjust="spacingAndGlyphs"
text-anchor="end" opacity="0">+5V</text>
<path d="M42710 32280
L43090 32280
" />
<path d="M42900 32470
L42900 32090
" />
<path d="M43570 31970
L43330 31970
L43310 32210
L43330 32190
L43380 32160
L43500 32160
L43540 32190
L43570 32210
L43590 32260
L43590 32380
L43570 32420
L43540 32450
L43500 32470
L43380 32470
L43330 32450
L43310 32420
" />
<path d="M43730 31970
L43900 32470
L44070 31970
" />
</g>
<g style="fill:#848400; fill-opacity:0.0; 
stroke:#848400; stroke-width:100; stroke-opacity:1; 
stroke-linecap:round; stroke-linejoin:round;">
<path style="fill:#848400; fill-opacity:0.0; 
stroke:#848400; stroke-width:100; stroke-opacity:1; 
stroke-linecap:round; stroke-linejoin:round;fill:none"
d="M 44250,32250
44500,32500
44750,32500
44750,32000
44500,32000
Z" /> 
</g>
<g style="fill:#848400; fill-opacity:0.0; 
stroke:#848400; stroke-width:60; stroke-opacity:1; 
stroke-linecap:round; stroke-linejoin:round;">
<text x="44150" y="36250"
textLength="3580" font-size="660" lengthAdjust="spacingAndGlyphs"
text-anchor="end" opacity="0">LED_CTRL</text>
<path d="M40950 36220
L40710 36220
L40710 35720
" />
<path d="M41120 35960
L41280 35960
" />
<path d="M41350 36220
L41120 36220
L41120 35720
L41350 35720
" />
<path d="M41570 36220
L41570 35720
L41690 35720
L41760 35750
L41810 35790
L41830 35840
L41850 35940
L41850 36010
L41830 36100
L41810 36150
L41760 36200
L41690 36220
L41570 36220
" />
<path d="M41950 36270
L42330 36270
" />
<path d="M42730 36170
L42710 36200
L42640 36220
L42590 36220
L42520 36200
L42470 36150
L42450 36100
L42420 36010
L42420 35940
L42450 35840
L42470 35790
L42520 35750
L42590 35720
L42640 35720
L42710 35750
L42730 35770
" />
<path d="M42880 35720
L43160 35720
" />
<path d="M43020 36220
L43020 35720
" />
<path d="M43620 36220
L43450 35980
" />
<path d="M43330 36220
L43330 35720
L43520 35720
L43570 35750
L43590 35770
L43620 35820
L43620 35890
L43590 35940
L43570 35960
L43520 35980
L43330 35980
" />
<path d="M44070 36220
L43830 36220
L43830 35720
" />
</g>
<g style="fill:#848400; fill-opacity:0.0; 
stroke:#848400; stroke-width:100; stroke-opacity:1; 
stroke-linecap:round; stroke-linejoin:round;">
<path style="fill:#848400; fill-opacity:0.0; 
stroke:#848400; stroke-width:100; stroke-opacity:1; 
stroke-linecap:round; stroke-linejoin:round;fill:none"
d="M 44250,36000
44500,36250
44750,36250
44750,35750
44500,35750
Z" /> 
</g>
<g style="fill:#848400; fill-opacity:0.0; 
stroke:#848400; stroke-width:0; stroke-opacity:1; 
stroke-linecap:round; stroke-linejoin:round;">
<g >
</g>
<g style="fill:#840000; fill-opacity:0.0; 
stroke:#840000; stroke-width:0; stroke-opacity:1; 
stroke-linecap:round; stroke-linejoin:round;">
</g>
<g style="fill:#840000; fill-opacity:0.0; 
stroke:#840000; stroke-width:60; stroke-opacity:1; 
stroke-linecap:round; stroke-linejoin:round;">
<path style="fill:#840000; fill-opacity:0.0; 
stroke:#840000; stroke-width:60; stroke-opacity:1; 
stroke-linecap:round; stroke-linejoin:round;fill:none"
d="M 54500,57750
54500,58250
55000,58250
54500,58750
54000,58250
54500,58250
" /> 
</g>
<g style="fill:#008484; fill-opacity:0.0; 
stroke:#008484; stroke-width:60; stroke-opacity:1; 
stroke-linecap:round; stroke-linejoin:round;">
<text x="54550" y="59750"
textLength="2060" font-size="660" lengthAdjust="spacingAndGlyphs"
text-anchor="middle" opacity="0">GNDS</text>
<path d="M53930 59250
L53880 59220
L53810 59220
L53740 59250
L53690 59290
L53660 59340
L53640 59440
L53640 59510
L53660 59600
L53690 59650
L53740 59700
L53810 59720
L53850 59720
L53930 59700
L53950 59670
L53950 59510
L53850 59510
" />
<path d="M54160 59720
L54160 59220
L54450 59720
L54450 59220
" />
<path d="M54690 59720
L54690 59220
L54810 59220
L54880 59250
L54930 59290
L54950 59340
L54970 59440
L54970 59510
L54950 59600
L54930 59650
L54880 59700
L54810 59720
L54690 59720
" />
<path d="M55160 59700
L55240 59720
L55350 59720
L55400 59700
L55430 59670
L55450 59630
L55450 59580
L55430 59530
L55400 59510
L55350 59480
L55260 59460
L55210 59440
L55190 59410
L55160 59360
L55160 59320
L55190 59270
L55210 59250
L55260 59220
L55380 59220
L55450 59250
" />
</g>
</g>
<g style="fill:#008484; fill-opacity:0.0; 
stroke:#008484; stroke-width:0; stroke-opacity:1; 
stroke-linecap:round; stroke-linejoin:round;">
<g >
</g>
<g style="fill:#840000; fill-opacity:0.0; 
stroke:#840000; stroke-width:0; stroke-opacity:1; 
stroke-linecap:round; stroke-linejoin:round;">
</g>
<g style="fill:#840000; fill-opacity:0.0; 
stroke:#840000; stroke-width:60; stroke-opacity:1; 
stroke-linecap:round; stroke-linejoin:round;">
<path style="fill:#840000; fill-opacity:0.0; 
stroke:#840000; stroke-width:60; stroke-opacity:1; 
stroke-linecap:round; stroke-linejoin:round;fill:none"
d="M 49450,27000
49750,26500
" /> 
<path style="fill:#840000; fill-opacity:0.0; 
stroke:#840000; stroke-width:60; stroke-opacity:1; 
stroke-linecap:round; stroke-linejoin:round;fill:none"
d="M 49750,27500
49750,26500
" /> 
<path style="fill:#840000; fill-opacity:0.0; 
stroke:#840000; stroke-width:60; stroke-opacity:1; 
stroke-linecap:round; stroke-linejoin:round;fill:none"
d="M 49750,26500
50050,27000
" /> 
</g>
<g style="fill:#008484; fill-opacity:0.0; 
stroke:#008484; stroke-width:60; stroke-opacity:1; 
stroke-linecap:round; stroke-linejoin:round;">
<text x="49900" y="26040"
textLength="1580" font-size="660" lengthAdjust="spacingAndGlyphs"
text-anchor="middle" opacity="0">+5V</text>
<path d="M49250 25820
L49630 25820
" />
<path d="M49440 26010
L49440 25630
" />
<path d="M50110 25510
L49870 25510
L49850 25750
L49870 25730
L49920 25700
L50040 25700
L50090 25730
L50110 25750
L50130 25800
L50130 25920
L50110 25960
L50090 25990
L50040 26010
L49920 26010
L49870 25990
L49850 25960
" />
<path d="M50280 25510
L50440 26010
L50610 25510
" />
</g>
</g>
<g style="fill:#008484; fill-opacity:0.0; 
stroke:#008484; stroke-width:0; stroke-opacity:1; 
stroke-linecap:round; stroke-linejoin:round;">
<g >
</g>
<g style="fill:#840000; fill-opacity:0.0; 
stroke:#840000; stroke-width:0; stroke-opacity:1; 
stroke-linecap:round; stroke-linejoin:round;">
</g>
<g style="fill:#840000; fill-opacity:0.0; 
stroke:#840000; stroke-width:60; stroke-opacity:1; 
stroke-linecap:round; stroke-linejoin:round;">
<path style="fill:#840000; fill-opacity:0.0; 
stroke:#840000; stroke-width:60; stroke-opacity:1; 
stroke-linecap:round; stroke-linejoin:round;fill:none"
d="M 60700,29500
61000,29000
" /> 
<path style="fill:#840000; fill-opacity:0.0; 
stroke:#840000; stroke-width:60; stroke-opacity:1; 
stroke-linecap:round; stroke-linejoin:round;fill:none"
d="M 61000,30000
61000,29000
" /> 
<path style="fill:#840000; fill-opacity:0.0; 
stroke:#840000; stroke-width:60; stroke-opacity:1; 
stroke-linecap:round; stroke-linejoin:round;fill:none"
d="M 61000,29000
61300,29500
" /> 
</g>
<g style="fill:#008484; fill-opacity:0.0; 
stroke:#008484; stroke-width:60; stroke-opacity:1; 
stroke-linecap:round; stroke-linejoin:round;">
<text x="61150" y="28540"
textLength="1580" font-size="660" lengthAdjust="spacingAndGlyphs"
text-anchor="middle" opacity="0">+5V</text>
<path d="M60500 28320
L60880 28320
" />
<path d="M60690 28510
L60690 28130
" />
<path d="M61360 28010
L61120 28010
L61100 28250
L61120 28230
L61170 28200
L61290 28200
L61340 28230
L61360 28250
L61380 28300
L61380 28420
L61360 28460
L61340 28490
L61290 28510
L61170 28510
L61120 28490
L61100 28460
" />
<path d="M61530 28010
L61690 28510
L61860 28010
" />
</g>
</g>
<g style="fill:#008484; fill-opacity:0.0; 
stroke:#008484; stroke-width:0; stroke-opacity:1; 
stroke-linecap:round; stroke-linejoin:round;">
<g >
</g>
<g style="fill:#840000; fill-opacity:0.0; 
stroke:#840000; stroke-width:0; stroke-opacity:1; 
stroke-linecap:round; stroke-linejoin:round;">
</g>
<g style="fill:#FFFFC2; fill-opacity:0.0; 
stroke:#FFFFC2; stroke-width:0; stroke-opacity:1; 
stroke-linecap:round; stroke-linejoin:round;">
</g>
<g style="fill:#FFFFC2; fill-opacity:0.6; 
stroke:#FFFFC2; stroke-width:0; stroke-opacity:1; 
stroke-linecap:round; stroke-linejoin:round;">
<rect x="69250" y="32250" width="2000" height="6000" rx="0" />
</g>
<g style="fill:#840000; fill-opacity:0.6; 
stroke:#840000; stroke-width:0; stroke-opacity:1; 
stroke-linecap:round; stroke-linejoin:round;">
</g>
<g style="fill:#840000; fill-opacity:0.0; 
stroke:#840000; stroke-width:100; stroke-opacity:1; 
stroke-linecap:round; stroke-linejoin:round;">
<rect x="69250" y="32250" width="2000" height="6000" rx="0" />
</g>
<g style="fill:#840000; fill-opacity:0.0; 
stroke:#840000; stroke-width:60; stroke-opacity:1; 
stroke-linecap:round; stroke-linejoin:round;">
<rect x="69250" y="36700" width="500" height="100" rx="0" />
<rect x="69250" y="37700" width="500" height="100" rx="0" />
<rect x="69250" y="35700" width="500" height="100" rx="0" />
<rect x="69250" y="33700" width="500" height="100" rx="0" />
<rect x="69250" y="32700" width="500" height="100" rx="0" />
</g>
<g style="fill:#840000; fill-opacity:0.0; 
stroke:#840000; stroke-width:100; stroke-opacity:1; 
stroke-linecap:round; stroke-linejoin:round;">
<rect x="69250" y="32250" width="2000" height="6000" rx="0" />
</g>
<g style="fill:#840000; fill-opacity:0.0; 
stroke:#840000; stroke-width:60; stroke-opacity:1; 
stroke-linecap:round; stroke-linejoin:round;">
<rect x="69250" y="34700" width="500" height="100" rx="0" />
<rect x="70750" y="36700" width="500" height="100" rx="0" />
<rect x="70750" y="37700" width="500" height="100" rx="0" />
<rect x="70750" y="35700" width="500" height="100" rx="0" />
<rect x="70750" y="33700" width="500" height="100" rx="0" />
<rect x="70750" y="32700" width="500" height="100" rx="0" />
<rect x="70750" y="34700" width="500" height="100" rx="0" />
<path d="M69250 32750
L67750 32750
" />
<text x="68500" y="32650"
textLength="540" font-size="660" lengthAdjust="spacingAndGlyphs"
text-anchor="middle" opacity="0">1</text>
<path d="M68640 32620
L68350 32620
" />
<path d="M68500 32620
L68500 32120
L68450 32190
L68400 32240
L68350 32260
" />
<path d="M71250 36750
L72750 36750
" />
<text x="72000" y="36650"
textLength="1010" font-size="660" lengthAdjust="spacingAndGlyphs"
text-anchor="middle" opacity="0">10</text>
<path d="M71900 36620
L71610 36620
" />
<path d="M71760 36620
L71760 36120
L71710 36190
L71660 36240
L71610 36260
" />
<path d="M72210 36120
L72260 36120
L72300 36150
L72330 36170
L72350 36220
L72380 36310
L72380 36430
L72350 36530
L72330 36570
L72300 36600
L72260 36620
L72210 36620
L72160 36600
L72140 36570
L72110 36530
L72090 36430
L72090 36310
L72110 36220
L72140 36170
L72160 36150
L72210 36120
" />
<path d="M69250 37750
L67750 37750
" />
<text x="68500" y="37650"
textLength="1010" font-size="660" lengthAdjust="spacingAndGlyphs"
text-anchor="middle" opacity="0">11</text>
<path d="M68400 37620
L68110 37620
" />
<path d="M68260 37620
L68260 37120
L68210 37190
L68160 37240
L68110 37260
" />
<path d="M68880 37620
L68590 37620
" />
<path d="M68730 37620
L68730 37120
L68690 37190
L68640 37240
L68590 37260
" />
<path d="M71250 37750
L72750 37750
" />
<text x="72000" y="37650"
textLength="1010" font-size="660" lengthAdjust="spacingAndGlyphs"
text-anchor="middle" opacity="0">12</text>
<path d="M71900 37620
L71610 37620
" />
<path d="M71760 37620
L71760 37120
L71710 37190
L71660 37240
L71610 37260
" />
<path d="M72090 37170
L72110 37150
L72160 37120
L72280 37120
L72330 37150
L72350 37170
L72380 37220
L72380 37260
L72350 37340
L72070 37620
L72380 37620
" />
<path d="M71250 32750
L72750 32750
" />
<text x="72000" y="32650"
textLength="540" font-size="660" lengthAdjust="spacingAndGlyphs"
text-anchor="middle" opacity="0">2</text>
<path d="M71850 32170
L71880 32150
L71920 32120
L72040 32120
L72090 32150
L72110 32170
L72140 32220
L72140 32260
L72110 32340
L71830 32620
L72140 32620
" />
<path d="M69250 33750
L67750 33750
" />
<text x="68500" y="33650"
textLength="540" font-size="660" lengthAdjust="spacingAndGlyphs"
text-anchor="middle" opacity="0">3</text>
<path d="M68330 33120
L68640 33120
L68470 33310
L68540 33310
L68590 33340
L68610 33360
L68640 33410
L68640 33530
L68610 33570
L68590 33600
L68540 33620
L68400 33620
L68350 33600
L68330 33570
" />
<path d="M71250 33750
L72750 33750
" />
<text x="72000" y="33650"
textLength="540" font-size="660" lengthAdjust="spacingAndGlyphs"
text-anchor="middle" opacity="0">4</text>
<path d="M72090 33290
L72090 33620
" />
<path d="M71970 33100
L71850 33450
L72160 33450
" />
<path d="M69250 34750
L67750 34750
" />
<text x="68500" y="34650"
textLength="540" font-size="660" lengthAdjust="spacingAndGlyphs"
text-anchor="middle" opacity="0">5</text>
<path d="M68610 34120
L68380 34120
L68350 34360
L68380 34340
L68420 34310
L68540 34310
L68590 34340
L68610 34360
L68640 34410
L68640 34530
L68610 34570
L68590 34600
L68540 34620
L68420 34620
L68380 34600
L68350 34570
" />
<path d="M71250 34750
L72750 34750
" />
<text x="72000" y="34650"
textLength="540" font-size="660" lengthAdjust="spacingAndGlyphs"
text-anchor="middle" opacity="0">6</text>
<path d="M72090 34120
L72000 34120
L71950 34150
L71920 34170
L71880 34240
L71850 34340
L71850 34530
L71880 34570
L71900 34600
L71950 34620
L72040 34620
L72090 34600
L72110 34570
L72140 34530
L72140 34410
L72110 34360
L72090 34340
L72040 34310
L71950 34310
L71900 34340
L71880 34360
L71850 34410
" />
<path d="M69250 35750
L67750 35750
" />
<text x="68500" y="35650"
textLength="540" font-size="660" lengthAdjust="spacingAndGlyphs"
text-anchor="middle" opacity="0">7</text>
<path d="M68330 35120
L68660 35120
L68450 35620
" />
<path d="M71250 35750
L72750 35750
" />
<text x="72000" y="35650"
textLength="540" font-size="660" lengthAdjust="spacingAndGlyphs"
text-anchor="middle" opacity="0">8</text>
<path d="M71950 35340
L71900 35310
L71880 35290
L71850 35240
L71850 35220
L71880 35170
L71900 35150
L71950 35120
L72040 35120
L72090 35150
L72110 35170
L72140 35220
L72140 35240
L72110 35290
L72090 35310
L72040 35340
L71950 35340
L71900 35360
L71880 35380
L71850 35430
L71850 35530
L71880 35570
L71900 35600
L71950 35620
L72040 35620
L72090 35600
L72110 35570
L72140 35530
L72140 35430
L72110 35380
L72090 35360
L72040 35340
" />
<path d="M69250 36750
L67750 36750
" />
<text x="68500" y="36650"
textLength="540" font-size="660" lengthAdjust="spacingAndGlyphs"
text-anchor="middle" opacity="0">9</text>
<path d="M68400 36620
L68500 36620
L68540 36600
L68570 36570
L68610 36500
L68640 36410
L68640 36220
L68610 36170
L68590 36150
L68540 36120
L68450 36120
L68400 36150
L68380 36170
L68350 36220
L68350 36340
L68380 36380
L68400 36410
L68450 36430
L68540 36430
L68590 36410
L68610 36380
L68640 36340
" />
</g>
<g style="fill:#008484; fill-opacity:0.0; 
stroke:#008484; stroke-width:60; stroke-opacity:1; 
stroke-linecap:round; stroke-linejoin:round;">
<text x="70250" y="30850"
textLength="920" font-size="660" lengthAdjust="spacingAndGlyphs"
text-anchor="middle" opacity="0">J1</text>
<path d="M70080 30320
L70080 30680
L70050 30750
L70010 30800
L69940 30820
L69890 30820
" />
<path d="M70580 30820
L70290 30820
" />
<path d="M70440 30820
L70440 30320
L70390 30390
L70340 30440
L70290 30460
" />
<text x="70250" y="31760"
textLength="8510" font-size="660" lengthAdjust="spacingAndGlyphs"
text-anchor="middle" opacity="0">Conn_02x06_Odd_Even</text>
<path d="M66420 31680
L66400 31710
L66330 31730
L66280 31730
L66210 31710
L66160 31660
L66140 31610
L66110 31520
L66110 31450
L66140 31350
L66160 31300
L66210 31260
L66280 31230
L66330 31230
L66400 31260
L66420 31280
" />
<path d="M66710 31730
L66660 31710
L66640 31680
L66610 31640
L66610 31490
L66640 31450
L66660 31420
L66710 31400
L66780 31400
L66830 31420
L66850 31450
L66880 31490
L66880 31640
L66850 31680
L66830 31710
L66780 31730
L66710 31730
" />
<path d="M67090 31400
L67090 31730
" />
<path d="M67090 31450
L67110 31420
L67160 31400
L67230 31400
L67280 31420
L67300 31470
L67300 31730
" />
<path d="M67540 31400
L67540 31730
" />
<path d="M67540 31450
L67570 31420
L67610 31400
L67690 31400
L67730 31420
L67760 31470
L67760 31730
" />
<path d="M67880 31780
L68260 31780
" />
<path d="M68470 31230
L68520 31230
L68570 31260
L68590 31280
L68610 31330
L68640 31420
L68640 31540
L68610 31640
L68590 31680
L68570 31710
L68520 31730
L68470 31730
L68420 31710
L68400 31680
L68380 31640
L68350 31540
L68350 31420
L68380 31330
L68400 31280
L68420 31260
L68470 31230
" />
<path d="M68830 31280
L68850 31260
L68900 31230
L69020 31230
L69070 31260
L69090 31280
L69110 31330
L69110 31370
L69090 31450
L68800 31730
L69110 31730
" />
<path d="M69280 31730
L69540 31400
" />
<path d="M69280 31400
L69540 31730
" />
<path d="M69830 31230
L69880 31230
L69920 31260
L69950 31280
L69970 31330
L70000 31420
L70000 31540
L69970 31640
L69950 31680
L69920 31710
L69880 31730
L69830 31730
L69780 31710
L69760 31680
L69730 31640
L69710 31540
L69710 31420
L69730 31330
L69760 31280
L69780 31260
L69830 31230
" />
<path d="M70420 31230
L70330 31230
L70280 31260
L70260 31280
L70210 31350
L70190 31450
L70190 31640
L70210 31680
L70230 31710
L70280 31730
L70380 31730
L70420 31710
L70450 31680
L70470 31640
L70470 31520
L70450 31470
L70420 31450
L70380 31420
L70280 31420
L70230 31450
L70210 31470
L70190 31520
" />
<path d="M70570 31780
L70950 31780
" />
<path d="M71160 31230
L71260 31230
L71300 31260
L71350 31300
L71380 31400
L71380 31560
L71350 31660
L71300 31710
L71260 31730
L71160 31730
L71110 31710
L71070 31660
L71040 31560
L71040 31400
L71070 31300
L71110 31260
L71160 31230
" />
<path d="M71800 31730
L71800 31230
" />
<path d="M71800 31710
L71760 31730
L71660 31730
L71610 31710
L71590 31680
L71570 31640
L71570 31490
L71590 31450
L71610 31420
L71660 31400
L71760 31400
L71800 31420
" />
<path d="M72260 31730
L72260 31230
" />
<path d="M72260 31710
L72210 31730
L72110 31730
L72070 31710
L72040 31680
L72020 31640
L72020 31490
L72040 31450
L72070 31420
L72110 31400
L72210 31400
L72260 31420
" />
<path d="M72380 31780
L72760 31780
" />
<path d="M72880 31470
L73040 31470
" />
<path d="M73110 31730
L72880 31730
L72880 31230
L73110 31230
" />
<path d="M73280 31400
L73400 31730
L73520 31400
" />
<path d="M73900 31710
L73850 31730
L73760 31730
L73710 31710
L73690 31660
L73690 31470
L73710 31420
L73760 31400
L73850 31400
L73900 31420
L73920 31470
L73920 31520
L73690 31560
" />
<path d="M74140 31400
L74140 31730
" />
<path d="M74140 31450
L74160 31420
L74210 31400
L74280 31400
L74330 31420
L74350 31470
L74350 31730
" />
</g>
</g>
<g style="fill:#008484; fill-opacity:0.0; 
stroke:#008484; stroke-width:0; stroke-opacity:1; 
stroke-linecap:round; stroke-linejoin:round;">
<g >
</g>
<g style="fill:#840000; fill-opacity:0.0; 
stroke:#840000; stroke-width:0; stroke-opacity:1; 
stroke-linecap:round; stroke-linejoin:round;">
</g>
<g style="fill:#840000; fill-opacity:0.0; 
stroke:#840000; stroke-width:60; stroke-opacity:1; 
stroke-linecap:round; stroke-linejoin:round;">
<path style="fill:#840000; fill-opacity:0.0; 
stroke:#840000; stroke-width:60; stroke-opacity:1; 
stroke-linecap:round; stroke-linejoin:round;fill:none"
d="M 59200,52250
59500,51750
" /> 
<path style="fill:#840000; fill-opacity:0.0; 
stroke:#840000; stroke-width:60; stroke-opacity:1; 
stroke-linecap:round; stroke-linejoin:round;fill:none"
d="M 59500,52750
59500,51750
" /> 
<path style="fill:#840000; fill-opacity:0.0; 
stroke:#840000; stroke-width:60; stroke-opacity:1; 
stroke-linecap:round; stroke-linejoin:round;fill:none"
d="M 59500,51750
59800,52250
" /> 
</g>
<g style="fill:#008484; fill-opacity:0.0; 
stroke:#008484; stroke-width:60; stroke-opacity:1; 
stroke-linecap:round; stroke-linejoin:round;">
<text x="59650" y="51290"
textLength="1580" font-size="660" lengthAdjust="spacingAndGlyphs"
text-anchor="middle" opacity="0">+5V</text>
<path d="M59000 51070
L59380 51070
" />
<path d="M59190 51260
L59190 50880
" />
<path d="M59860 50760
L59620 50760
L59600 51000
L59620 50980
L59670 50950
L59790 50950
L59840 50980
L59860 51000
L59880 51050
L59880 51170
L59860 51210
L59840 51240
L59790 51260
L59670 51260
L59620 51240
L59600 51210
" />
<path d="M60030 50760
L60190 51260
L60360 50760
" />
</g>
</g>
<g style="fill:#008484; fill-opacity:0.0; 
stroke:#008484; stroke-width:0; stroke-opacity:1; 
stroke-linecap:round; stroke-linejoin:round;">
<g >
</g>
<g style="fill:#840000; fill-opacity:0.0; 
stroke:#840000; stroke-width:0; stroke-opacity:1; 
stroke-linecap:round; stroke-linejoin:round;">
</g>
<g style="fill:#840000; fill-opacity:0.0; 
stroke:#840000; stroke-width:60; stroke-opacity:1; 
stroke-linecap:round; stroke-linejoin:round;">
<path style="fill:#840000; fill-opacity:0.0; 
stroke:#840000; stroke-width:60; stroke-opacity:1; 
stroke-linecap:round; stroke-linejoin:round;fill:none"
d="M 59500,57750
59500,58250
59900,58500
59500,58750
59100,58500
59500,58250
" /> 
<path d="M59500 57750
L59500 57750
" />
</g>
<g style="fill:#008484; fill-opacity:0.0; 
stroke:#008484; stroke-width:60; stroke-opacity:1; 
stroke-linecap:round; stroke-linejoin:round;">
<text x="59490" y="59700"
textLength="3770" font-size="660" lengthAdjust="spacingAndGlyphs"
text-anchor="middle" opacity="0">PWR_FLAG</text>
<path d="M57750 59670
L57750 59170
L57940 59170
L57990 59200
L58010 59220
L58030 59270
L58030 59340
L58010 59390
L57990 59410
L57940 59430
L57750 59430
" />
<path d="M58200 59170
L58320 59670
L58410 59310
L58510 59670
L58630 59170
" />
<path d="M59100 59670
L58940 59430
" />
<path d="M58820 59670
L58820 59170
L59010 59170
L59060 59200
L59080 59220
L59100 59270
L59100 59340
L59080 59390
L59060 59410
L59010 59430
L58820 59430
" />
<path d="M59200 59720
L59580 59720
" />
<path d="M59870 59410
L59700 59410
" />
<path d="M59700 59670
L59700 59170
L59940 59170
" />
<path d="M60370 59670
L60130 59670
L60130 59170
" />
<path d="M60510 59530
L60750 59530
" />
<path d="M60460 59670
L60630 59170
L60790 59670
" />
<path d="M61220 59200
L61180 59170
L61100 59170
L61030 59200
L60990 59240
L60960 59290
L60940 59390
L60940 59460
L60960 59550
L60990 59600
L61030 59650
L61100 59670
L61150 59670
L61220 59650
L61250 59620
L61250 59460
L61150 59460
" />
</g>
</g>
<g style="fill:#008484; fill-opacity:0.0; 
stroke:#008484; stroke-width:0; stroke-opacity:1; 
stroke-linecap:round; stroke-linejoin:round;">
<g >
</g>
<g style="fill:#840000; fill-opacity:0.0; 
stroke:#840000; stroke-width:0; stroke-opacity:1; 
stroke-linecap:round; stroke-linejoin:round;">
</g>
<g style="fill:#840000; fill-opacity:0.0; 
stroke:#840000; stroke-width:60; stroke-opacity:1; 
stroke-linecap:round; stroke-linejoin:round;">
<path style="fill:#840000; fill-opacity:0.0; 
stroke:#840000; stroke-width:60; stroke-opacity:1; 
stroke-linecap:round; stroke-linejoin:round;fill:none"
d="M 54500,52750
54500,52250
54100,52000
54500,51750
54900,52000
54500,52250
" /> 
<path d="M54500 52750
L54500 52750
" />
</g>
<g style="fill:#008484; fill-opacity:0.0; 
stroke:#008484; stroke-width:60; stroke-opacity:1; 
stroke-linecap:round; stroke-linejoin:round;">
<text x="54500" y="51290"
textLength="3770" font-size="660" lengthAdjust="spacingAndGlyphs"
text-anchor="middle" opacity="0">PWR_FLAG</text>
<path d="M52760 51260
L52760 50760
L52950 50760
L53000 50790
L53020 50810
L53040 50860
L53040 50930
L53020 50980
L53000 51000
L52950 51020
L52760 51020
" />
<path d="M53210 50760
L53330 51260
L53420 50900
L53520 51260
L53640 50760
" />
<path d="M54110 51260
L53950 51020
" />
<path d="M53830 51260
L53830 50760
L54020 50760
L54070 50790
L54090 50810
L54110 50860
L54110 50930
L54090 50980
L54070 51000
L54020 51020
L53830 51020
" />
<path d="M54210 51310
L54590 51310
" />
<path d="M54880 51000
L54710 51000
" />
<path d="M54710 51260
L54710 50760
L54950 50760
" />
<path d="M55380 51260
L55140 51260
L55140 50760
" />
<path d="M55520 51120
L55760 51120
" />
<path d="M55470 51260
L55640 50760
L55800 51260
" />
<path d="M56230 50790
L56190 50760
L56110 50760
L56040 50790
L56000 50830
L55970 50880
L55950 50980
L55950 51050
L55970 51140
L56000 51190
L56040 51240
L56110 51260
L56160 51260
L56230 51240
L56260 51210
L56260 51050
L56160 51050
" />
</g>
</g>
<g style="fill:#008484; fill-opacity:0.0; 
stroke:#008484; stroke-width:0; stroke-opacity:1; 
stroke-linecap:round; stroke-linejoin:round;">
<g >
</g>
<g style="fill:#840000; fill-opacity:0.0; 
stroke:#840000; stroke-width:0; stroke-opacity:1; 
stroke-linecap:round; stroke-linejoin:round;">
</g>
<g style="fill:#840000; fill-opacity:0.0; 
stroke:#840000; stroke-width:60; stroke-opacity:1; 
stroke-linecap:round; stroke-linejoin:round;">
<path style="fill:#840000; fill-opacity:0.0; 
stroke:#840000; stroke-width:60; stroke-opacity:1; 
stroke-linecap:round; stroke-linejoin:round;fill:none"
d="M 79500,41500
79500,42000
80000,42000
79500,42500
79000,42000
79500,42000
" /> 
</g>
<g style="fill:#008484; fill-opacity:0.0; 
stroke:#008484; stroke-width:60; stroke-opacity:1; 
stroke-linecap:round; stroke-linejoin:round;">
<text x="79550" y="43500"
textLength="2060" font-size="660" lengthAdjust="spacingAndGlyphs"
text-anchor="middle" opacity="0">GNDS</text>
<path d="M78930 43000
L78880 42970
L78810 42970
L78740 43000
L78690 43040
L78660 43090
L78640 43190
L78640 43260
L78660 43350
L78690 43400
L78740 43450
L78810 43470
L78850 43470
L78930 43450
L78950 43420
L78950 43260
L78850 43260
" />
<path d="M79160 43470
L79160 42970
L79450 43470
L79450 42970
" />
<path d="M79690 43470
L79690 42970
L79810 42970
L79880 43000
L79930 43040
L79950 43090
L79970 43190
L79970 43260
L79950 43350
L79930 43400
L79880 43450
L79810 43470
L79690 43470
" />
<path d="M80160 43450
L80240 43470
L80350 43470
L80400 43450
L80430 43420
L80450 43380
L80450 43330
L80430 43280
L80400 43260
L80350 43230
L80260 43210
L80210 43190
L80190 43160
L80160 43110
L80160 43070
L80190 43020
L80210 43000
L80260 42970
L80380 42970
L80450 43000
" />
</g>
</g>
<g style="fill:#008484; fill-opacity:0.0; 
stroke:#008484; stroke-width:0; stroke-opacity:1; 
stroke-linecap:round; stroke-linejoin:round;">
<g >
</g>
<g style="fill:#840000; fill-opacity:0.0; 
stroke:#840000; stroke-width:0; stroke-opacity:1; 
stroke-linecap:round; stroke-linejoin:round;">
</g>
<g style="fill:#840000; fill-opacity:0.0; 
stroke:#840000; stroke-width:60; stroke-opacity:1; 
stroke-linecap:round; stroke-linejoin:round;">
<path style="fill:#840000; fill-opacity:0.0; 
stroke:#840000; stroke-width:60; stroke-opacity:1; 
stroke-linecap:round; stroke-linejoin:round;fill:none"
d="M 79200,28500
79500,28000
" /> 
<path style="fill:#840000; fill-opacity:0.0; 
stroke:#840000; stroke-width:60; stroke-opacity:1; 
stroke-linecap:round; stroke-linejoin:round;fill:none"
d="M 79500,29000
79500,28000
" /> 
<path style="fill:#840000; fill-opacity:0.0; 
stroke:#840000; stroke-width:60; stroke-opacity:1; 
stroke-linecap:round; stroke-linejoin:round;fill:none"
d="M 79500,28000
79800,28500
" /> 
</g>
<g style="fill:#008484; fill-opacity:0.0; 
stroke:#008484; stroke-width:60; stroke-opacity:1; 
stroke-linecap:round; stroke-linejoin:round;">
<text x="79650" y="27540"
textLength="1580" font-size="660" lengthAdjust="spacingAndGlyphs"
text-anchor="middle" opacity="0">+5V</text>
<path d="M79000 27320
L79380 27320
" />
<path d="M79190 27510
L79190 27130
" />
<path d="M79860 27010
L79620 27010
L79600 27250
L79620 27230
L79670 27200
L79790 27200
L79840 27230
L79860 27250
L79880 27300
L79880 27420
L79860 27460
L79840 27490
L79790 27510
L79670 27510
L79620 27490
L79600 27460
" />
<path d="M80030 27010
L80190 27510
L80360 27010
" />
</g>
</g>
<g style="fill:#008484; fill-opacity:0.0; 
stroke:#008484; stroke-width:0; stroke-opacity:1; 
stroke-linecap:round; stroke-linejoin:round;">
<g >
</g>
<g style="fill:#840000; fill-opacity:0.0; 
stroke:#840000; stroke-width:0; stroke-opacity:1; 
stroke-linecap:round; stroke-linejoin:round;">
</g>
<g style="fill:#840000; fill-opacity:0.0; 
stroke:#840000; stroke-width:60; stroke-opacity:1; 
stroke-linecap:round; stroke-linejoin:round;">
<path style="fill:#840000; fill-opacity:0.0; 
stroke:#840000; stroke-width:60; stroke-opacity:1; 
stroke-linecap:round; stroke-linejoin:round;fill:none"
d="M 61000,41000
61000,41500
61500,41500
61000,42000
60500,41500
61000,41500
" /> 
</g>
<g style="fill:#008484; fill-opacity:0.0; 
stroke:#008484; stroke-width:60; stroke-opacity:1; 
stroke-linecap:round; stroke-linejoin:round;">
<text x="61050" y="43000"
textLength="2060" font-size="660" lengthAdjust="spacingAndGlyphs"
text-anchor="middle" opacity="0">GNDS</text>
<path d="M60430 42500
L60380 42470
L60310 42470
L60240 42500
L60190 42540
L60160 42590
L60140 42690
L60140 42760
L60160 42850
L60190 42900
L60240 42950
L60310 42970
L60350 42970
L60430 42950
L60450 42920
L60450 42760
L60350 42760
" />
<path d="M60660 42970
L60660 42470
L60950 42970
L60950 42470
" />
<path d="M61190 42970
L61190 42470
L61310 42470
L61380 42500
L61430 42540
L61450 42590
L61470 42690
L61470 42760
L61450 42850
L61430 42900
L61380 42950
L61310 42970
L61190 42970
" />
<path d="M61660 42950
L61740 42970
L61850 42970
L61900 42950
L61930 42920
L61950 42880
L61950 42830
L61930 42780
L61900 42760
L61850 42730
L61760 42710
L61710 42690
L61690 42660
L61660 42610
L61660 42570
L61690 42520
L61710 42500
L61760 42470
L61880 42470
L61950 42500
" />
</g>
</g>
<g style="fill:#008484; fill-opacity:0.0; 
stroke:#008484; stroke-width:60; stroke-opacity:1; 
stroke-linecap:round; stroke-linejoin:round;">
</g>
<g style="fill:#008400; fill-opacity:0.0; 
stroke:#008400; stroke-width:60; stroke-opacity:1; 
stroke-linecap:round; stroke-linejoin:round;">
<path d="M61000 32750
L61000 30000
" />
<path d="M44750 32250
L49750 32250
" />
<path d="M79500 33750
L79500 32750
" />
<path d="M79500 32750
L79500 29000
" />
<path d="M61000 35750
L61000 36750
" />
<path d="M61000 36750
L61000 41000
" />
<path d="M79500 34750
L79500 35750
" />
<path d="M79500 35750
L79500 36750
" />
<path d="M79500 36750
L79500 41500
" />
<path d="M59500 52750
L59500 57750
" />
<path d="M54500 52750
L54500 57750
" />
<path d="M44750 36000
L49750 36000
" />
<path d="M67750 34750
L61000 34750
" />
<path d="M67750 35750
L61000 35750
" />
<path d="M67750 36750
L61000 36750
" />
<path d="M67750 33750
L61000 33750
" />
<path d="M67750 37750
L64000 37750
" />
<path d="M61000 33750
L61000 32750
" />
<path d="M79500 32750
L72750 32750
" />
<path d="M79500 33750
L72750 33750
" />
<path d="M79500 34750
L72750 34750
" />
<path d="M67750 32750
L61000 32750
" />
<path d="M79500 35750
L72750 35750
" />
<path d="M79500 36750
L72750 36750
" />
<path d="M76000 37750
L72750 37750
" />
<path d="M61000 34750
L61000 33750
" />
<path d="M49750 32250
L49750 27500
" />
</g>
<g style="fill:#000000; fill-opacity:0.0; 
stroke:#000000; stroke-width:60; stroke-opacity:1; 
stroke-linecap:round; stroke-linejoin:round;">
<text x="49750" y="35900"
textLength="3040" font-size="660" lengthAdjust="spacingAndGlyphs"
text-anchor="end" opacity="0">UV_PWM</text>
<path d="M46860 35370
L46860 35780
L46880 35820
L46910 35850
L46950 35870
L47050 35870
L47100 35850
L47120 35820
L47140 35780
L47140 35370
" />
<path d="M47310 35370
L47480 35870
L47640 35370
" />
<path d="M47690 35920
L48070 35920
" />
<path d="M48190 35870
L48190 35370
L48380 35370
L48430 35400
L48450 35420
L48480 35470
L48480 35540
L48450 35590
L48430 35610
L48380 35630
L48190 35630
" />
<path d="M48640 35370
L48760 35870
L48860 35510
L48950 35870
L49070 35370
" />
<path d="M49260 35870
L49260 35370
L49430 35730
L49600 35370
L49600 35870
" />
<text x="64000" y="37650"
textLength="3040" font-size="660" lengthAdjust="spacingAndGlyphs"
text-anchor="start" opacity="0">UV_PWM</text>
<path d="M64140 37120
L64140 37530
L64170 37570
L64190 37600
L64240 37620
L64330 37620
L64380 37600
L64410 37570
L64430 37530
L64430 37120
" />
<path d="M64600 37120
L64760 37620
L64930 37120
" />
<path d="M64980 37670
L65360 37670
" />
<path d="M65480 37620
L65480 37120
L65670 37120
L65720 37150
L65740 37170
L65760 37220
L65760 37290
L65740 37340
L65720 37360
L65670 37380
L65480 37380
" />
<path d="M65930 37120
L66050 37620
L66140 37260
L66240 37620
L66360 37120
" />
<path d="M66550 37620
L66550 37120
L66720 37480
L66880 37120
L66880 37620
" />
</g>
<g style="fill:#000000; fill-opacity:0.0; 
stroke:#000000; stroke-width:0; stroke-opacity:1; 
stroke-linecap:round; stroke-linejoin:round;">
</g>
<g style="fill:#008400; fill-opacity:0.0; 
stroke:#008400; stroke-width:0; stroke-opacity:1; 
stroke-linecap:round; stroke-linejoin:round;">
</g>
<g style="fill:#008400; fill-opacity:1.0; 
stroke:#008400; stroke-width:100; stroke-opacity:1; 
stroke-linecap:round; stroke-linejoin:round;">
<circle cx="79500" cy="35750" r="200" /> 
</g>
<g style="fill:#008400; fill-opacity:1.0; 
stroke:#008400; stroke-width:0; stroke-opacity:1; 
stroke-linecap:round; stroke-linejoin:round;">
</g>
<g style="fill:#008400; fill-opacity:1.0; 
stroke:#008400; stroke-width:100; stroke-opacity:1; 
stroke-linecap:round; stroke-linejoin:round;">
<circle cx="79500" cy="36750" r="200" /> 
</g>
<g style="fill:#008400; fill-opacity:1.0; 
stroke:#008400; stroke-width:0; stroke-opacity:1; 
stroke-linecap:round; stroke-linejoin:round;">
</g>
<g style="fill:#008400; fill-opacity:1.0; 
stroke:#008400; stroke-width:100; stroke-opacity:1; 
stroke-linecap:round; stroke-linejoin:round;">
<circle cx="61000" cy="36750" r="200" /> 
</g>
<g style="fill:#008400; fill-opacity:1.0; 
stroke:#008400; stroke-width:0; stroke-opacity:1; 
stroke-linecap:round; stroke-linejoin:round;">
</g>
<g style="fill:#008400; fill-opacity:1.0; 
stroke:#008400; stroke-width:100; stroke-opacity:1; 
stroke-linecap:round; stroke-linejoin:round;">
<circle cx="79500" cy="32750" r="200" /> 
</g>
<g style="fill:#008400; fill-opacity:1.0; 
stroke:#008400; stroke-width:0; stroke-opacity:1; 
stroke-linecap:round; stroke-linejoin:round;">
</g>
<g style="fill:#008400; fill-opacity:1.0; 
stroke:#008400; stroke-width:100; stroke-opacity:1; 
stroke-linecap:round; stroke-linejoin:round;">
<circle cx="61000" cy="33750" r="200" /> 
</g>
<g style="fill:#008400; fill-opacity:1.0; 
stroke:#008400; stroke-width:0; stroke-opacity:1; 
stroke-linecap:round; stroke-linejoin:round;">
</g>
<g style="fill:#008400; fill-opacity:1.0; 
stroke:#008400; stroke-width:100; stroke-opacity:1; 
stroke-linecap:round; stroke-linejoin:round;">
<circle cx="61000" cy="32750" r="200" /> 
</g>
<g style="fill:#008400; fill-opacity:1.0; 
stroke:#008400; stroke-width:60; stroke-opacity:1; 
stroke-linecap:round; stroke-linejoin:round;">
</g>
<g style="fill:#000084; fill-opacity:1.0; 
stroke:#000084; stroke-width:60; stroke-opacity:1; 
stroke-linecap:round; stroke-linejoin:round;">
</g>
<g style="fill:#000084; fill-opacity:0.0; 
stroke:#000084; stroke-width:60; stroke-opacity:1; 
stroke-linecap:round; stroke-linejoin:round;">
<path d="M75760 37510
L76240 37990
" />
<path d="M76240 37510
L75760 37990
" />
</g> 
</svg>
