<?xml version="1.0" standalone="no"?>
 <!DOCTYPE svg PUBLIC "-//W3C//DTD SVG 1.1//EN" 
 "http://www.w3.org/Graphics/SVG/1.1/DTD/svg11.dtd"> 
<svg xmlns="http://www.w3.org/2000/svg" version="1.1" 
    width="29.7002cm" height="21.0007cm" viewBox="0 0 116930 82680 ">
<title>SVG Picture created as Controller.svg date 2020/04/25 12:18:15 </title>
  <desc>Picture generated by Eeschema-SVG </desc>
<g style="fill:#000000; fill-opacity:1;stroke:#000000; stroke-opacity:1;
stroke-linecap:round; stroke-linejoin:round; "
 transform="translate(0 0) scale(1 1)">
</g>
<g style="fill:#000000; fill-opacity:0.0; 
stroke:#000000; stroke-width:-10; stroke-opacity:1; 
stroke-linecap:round; stroke-linejoin:round;">
</g>
<g style="fill:#840000; fill-opacity:0.0; 
stroke:#840000; stroke-width:-10; stroke-opacity:1; 
stroke-linecap:round; stroke-linejoin:round;">
</g>
<g style="fill:#840000; fill-opacity:0.0; 
stroke:#840000; stroke-width:100; stroke-opacity:1; 
stroke-linecap:round; stroke-linejoin:round;">
</g>
<g style="fill:#840000; fill-opacity:0.0; 
stroke:#840000; stroke-width:60; stroke-opacity:1; 
stroke-linecap:round; stroke-linejoin:round;">
<rect x="69690" y="65360" width="42520" height="12600" rx="0" />
</g>
<g style="fill:#840000; fill-opacity:0.0; 
stroke:#840000; stroke-width:100; stroke-opacity:1; 
stroke-linecap:round; stroke-linejoin:round;">
</g>
<g style="fill:#840000; fill-opacity:0.0; 
stroke:#840000; stroke-width:60; stroke-opacity:1; 
stroke-linecap:round; stroke-linejoin:round;">
<rect x="3940" y="3940" width="109050" height="74800" rx="0" />
</g>
<g style="fill:#840000; fill-opacity:0.0; 
stroke:#840000; stroke-width:100; stroke-opacity:1; 
stroke-linecap:round; stroke-linejoin:round;">
</g>
<g style="fill:#840000; fill-opacity:0.0; 
stroke:#840000; stroke-width:60; stroke-opacity:1; 
stroke-linecap:round; stroke-linejoin:round;">
<rect x="4720" y="4720" width="107490" height="73240" rx="0" />
</g>
<g style="fill:#840000; fill-opacity:0.0; 
stroke:#840000; stroke-width:100; stroke-opacity:1; 
stroke-linecap:round; stroke-linejoin:round;">
</g>
<g style="fill:#840000; fill-opacity:0.0; 
stroke:#840000; stroke-width:60; stroke-opacity:1; 
stroke-linecap:round; stroke-linejoin:round;">
<path d="M23620 4720
L23620 3940
" />
</g>
<g style="fill:#840000; fill-opacity:0.0; 
stroke:#840000; stroke-width:100; stroke-opacity:1; 
stroke-linecap:round; stroke-linejoin:round;">
</g>
<g style="fill:#840000; fill-opacity:0.0; 
stroke:#840000; stroke-width:60; stroke-opacity:1; 
stroke-linecap:round; stroke-linejoin:round;">
<path d="M43310 4720
L43310 3940
" />
</g>
<g style="fill:#840000; fill-opacity:0.0; 
stroke:#840000; stroke-width:100; stroke-opacity:1; 
stroke-linecap:round; stroke-linejoin:round;">
</g>
<g style="fill:#840000; fill-opacity:0.0; 
stroke:#840000; stroke-width:60; stroke-opacity:1; 
stroke-linecap:round; stroke-linejoin:round;">
<path d="M62990 4720
L62990 3940
" />
</g>
<g style="fill:#840000; fill-opacity:0.0; 
stroke:#840000; stroke-width:100; stroke-opacity:1; 
stroke-linecap:round; stroke-linejoin:round;">
</g>
<g style="fill:#840000; fill-opacity:0.0; 
stroke:#840000; stroke-width:60; stroke-opacity:1; 
stroke-linecap:round; stroke-linejoin:round;">
<path d="M82680 4720
L82680 3940
" />
</g>
<g style="fill:#840000; fill-opacity:0.0; 
stroke:#840000; stroke-width:100; stroke-opacity:1; 
stroke-linecap:round; stroke-linejoin:round;">
</g>
<g style="fill:#840000; fill-opacity:0.0; 
stroke:#840000; stroke-width:60; stroke-opacity:1; 
stroke-linecap:round; stroke-linejoin:round;">
<path d="M102360 4720
L102360 3940
" />
</g>
<g style="fill:#840000; fill-opacity:0.0; 
stroke:#840000; stroke-width:100; stroke-opacity:1; 
stroke-linecap:round; stroke-linejoin:round;">
</g>
<g style="fill:#840000; fill-opacity:0.0; 
stroke:#840000; stroke-width:60; stroke-opacity:1; 
stroke-linecap:round; stroke-linejoin:round;">
<text x="13780" y="4580"
textLength="550" font-size="680" lengthAdjust="spacingAndGlyphs"
text-anchor="start" opacity="0">1</text>
<path d="M14190 4560
L13900 4560
" />
<path d="M14050 4560
L14050 4050
L14000 4120
L13950 4170
L13900 4190
" />
</g>
<g style="fill:#840000; fill-opacity:0.0; 
stroke:#840000; stroke-width:100; stroke-opacity:1; 
stroke-linecap:round; stroke-linejoin:round;">
</g>
<g style="fill:#840000; fill-opacity:0.0; 
stroke:#840000; stroke-width:60; stroke-opacity:1; 
stroke-linecap:round; stroke-linejoin:round;">
<text x="33460" y="4580"
textLength="550" font-size="680" lengthAdjust="spacingAndGlyphs"
text-anchor="start" opacity="0">2</text>
<path d="M33580 4090
L33610 4070
L33660 4050
L33780 4050
L33830 4070
L33850 4090
L33870 4140
L33870 4190
L33850 4260
L33560 4560
L33870 4560
" />
</g>
<g style="fill:#840000; fill-opacity:0.0; 
stroke:#840000; stroke-width:100; stroke-opacity:1; 
stroke-linecap:round; stroke-linejoin:round;">
</g>
<g style="fill:#840000; fill-opacity:0.0; 
stroke:#840000; stroke-width:60; stroke-opacity:1; 
stroke-linecap:round; stroke-linejoin:round;">
<text x="53150" y="4580"
textLength="550" font-size="680" lengthAdjust="spacingAndGlyphs"
text-anchor="start" opacity="0">3</text>
<path d="M53250 4050
L53560 4050
L53390 4240
L53470 4240
L53520 4260
L53540 4290
L53560 4340
L53560 4460
L53540 4510
L53520 4530
L53470 4560
L53320 4560
L53270 4530
L53250 4510
" />
</g>
<g style="fill:#840000; fill-opacity:0.0; 
stroke:#840000; stroke-width:100; stroke-opacity:1; 
stroke-linecap:round; stroke-linejoin:round;">
</g>
<g style="fill:#840000; fill-opacity:0.0; 
stroke:#840000; stroke-width:60; stroke-opacity:1; 
stroke-linecap:round; stroke-linejoin:round;">
<text x="72830" y="4580"
textLength="550" font-size="680" lengthAdjust="spacingAndGlyphs"
text-anchor="start" opacity="0">4</text>
<path d="M73200 4220
L73200 4560
" />
<path d="M73070 4020
L72950 4390
L73270 4390
" />
</g>
<g style="fill:#840000; fill-opacity:0.0; 
stroke:#840000; stroke-width:100; stroke-opacity:1; 
stroke-linecap:round; stroke-linejoin:round;">
</g>
<g style="fill:#840000; fill-opacity:0.0; 
stroke:#840000; stroke-width:60; stroke-opacity:1; 
stroke-linecap:round; stroke-linejoin:round;">
<text x="92520" y="4580"
textLength="550" font-size="680" lengthAdjust="spacingAndGlyphs"
text-anchor="start" opacity="0">5</text>
<path d="M92910 4050
L92670 4050
L92640 4290
L92670 4260
L92720 4240
L92840 4240
L92890 4260
L92910 4290
L92930 4340
L92930 4460
L92910 4510
L92890 4530
L92840 4560
L92720 4560
L92670 4530
L92640 4510
" />
</g>
<g style="fill:#840000; fill-opacity:0.0; 
stroke:#840000; stroke-width:100; stroke-opacity:1; 
stroke-linecap:round; stroke-linejoin:round;">
</g>
<g style="fill:#840000; fill-opacity:0.0; 
stroke:#840000; stroke-width:60; stroke-opacity:1; 
stroke-linecap:round; stroke-linejoin:round;">
<text x="112200" y="4580"
textLength="550" font-size="680" lengthAdjust="spacingAndGlyphs"
text-anchor="start" opacity="0">6</text>
<path d="M112570 4050
L112470 4050
L112420 4070
L112400 4090
L112350 4170
L112320 4260
L112320 4460
L112350 4510
L112370 4530
L112420 4560
L112520 4560
L112570 4530
L112590 4510
L112610 4460
L112610 4340
L112590 4290
L112570 4260
L112520 4240
L112420 4240
L112370 4260
L112350 4290
L112320 4340
" />
</g>
<g style="fill:#840000; fill-opacity:0.0; 
stroke:#840000; stroke-width:100; stroke-opacity:1; 
stroke-linecap:round; stroke-linejoin:round;">
</g>
<g style="fill:#840000; fill-opacity:0.0; 
stroke:#840000; stroke-width:60; stroke-opacity:1; 
stroke-linecap:round; stroke-linejoin:round;">
<path d="M23620 77960
L23620 78740
" />
</g>
<g style="fill:#840000; fill-opacity:0.0; 
stroke:#840000; stroke-width:100; stroke-opacity:1; 
stroke-linecap:round; stroke-linejoin:round;">
</g>
<g style="fill:#840000; fill-opacity:0.0; 
stroke:#840000; stroke-width:60; stroke-opacity:1; 
stroke-linecap:round; stroke-linejoin:round;">
<path d="M43310 77960
L43310 78740
" />
</g>
<g style="fill:#840000; fill-opacity:0.0; 
stroke:#840000; stroke-width:100; stroke-opacity:1; 
stroke-linecap:round; stroke-linejoin:round;">
</g>
<g style="fill:#840000; fill-opacity:0.0; 
stroke:#840000; stroke-width:60; stroke-opacity:1; 
stroke-linecap:round; stroke-linejoin:round;">
<path d="M62990 77960
L62990 78740
" />
</g>
<g style="fill:#840000; fill-opacity:0.0; 
stroke:#840000; stroke-width:100; stroke-opacity:1; 
stroke-linecap:round; stroke-linejoin:round;">
</g>
<g style="fill:#840000; fill-opacity:0.0; 
stroke:#840000; stroke-width:60; stroke-opacity:1; 
stroke-linecap:round; stroke-linejoin:round;">
<path d="M82680 77960
L82680 78740
" />
</g>
<g style="fill:#840000; fill-opacity:0.0; 
stroke:#840000; stroke-width:100; stroke-opacity:1; 
stroke-linecap:round; stroke-linejoin:round;">
</g>
<g style="fill:#840000; fill-opacity:0.0; 
stroke:#840000; stroke-width:60; stroke-opacity:1; 
stroke-linecap:round; stroke-linejoin:round;">
<path d="M102360 77960
L102360 78740
" />
</g>
<g style="fill:#840000; fill-opacity:0.0; 
stroke:#840000; stroke-width:100; stroke-opacity:1; 
stroke-linecap:round; stroke-linejoin:round;">
</g>
<g style="fill:#840000; fill-opacity:0.0; 
stroke:#840000; stroke-width:60; stroke-opacity:1; 
stroke-linecap:round; stroke-linejoin:round;">
<text x="13780" y="78600"
textLength="550" font-size="680" lengthAdjust="spacingAndGlyphs"
text-anchor="start" opacity="0">1</text>
<path d="M14190 78580
L13900 78580
" />
<path d="M14050 78580
L14050 78070
L14000 78140
L13950 78190
L13900 78210
" />
</g>
<g style="fill:#840000; fill-opacity:0.0; 
stroke:#840000; stroke-width:100; stroke-opacity:1; 
stroke-linecap:round; stroke-linejoin:round;">
</g>
<g style="fill:#840000; fill-opacity:0.0; 
stroke:#840000; stroke-width:60; stroke-opacity:1; 
stroke-linecap:round; stroke-linejoin:round;">
<text x="33460" y="78600"
textLength="550" font-size="680" lengthAdjust="spacingAndGlyphs"
text-anchor="start" opacity="0">2</text>
<path d="M33580 78110
L33610 78090
L33660 78070
L33780 78070
L33830 78090
L33850 78110
L33870 78160
L33870 78210
L33850 78280
L33560 78580
L33870 78580
" />
</g>
<g style="fill:#840000; fill-opacity:0.0; 
stroke:#840000; stroke-width:100; stroke-opacity:1; 
stroke-linecap:round; stroke-linejoin:round;">
</g>
<g style="fill:#840000; fill-opacity:0.0; 
stroke:#840000; stroke-width:60; stroke-opacity:1; 
stroke-linecap:round; stroke-linejoin:round;">
<text x="53150" y="78600"
textLength="550" font-size="680" lengthAdjust="spacingAndGlyphs"
text-anchor="start" opacity="0">3</text>
<path d="M53250 78070
L53560 78070
L53390 78260
L53470 78260
L53520 78280
L53540 78310
L53560 78360
L53560 78480
L53540 78530
L53520 78550
L53470 78580
L53320 78580
L53270 78550
L53250 78530
" />
</g>
<g style="fill:#840000; fill-opacity:0.0; 
stroke:#840000; stroke-width:100; stroke-opacity:1; 
stroke-linecap:round; stroke-linejoin:round;">
</g>
<g style="fill:#840000; fill-opacity:0.0; 
stroke:#840000; stroke-width:60; stroke-opacity:1; 
stroke-linecap:round; stroke-linejoin:round;">
<text x="72830" y="78600"
textLength="550" font-size="680" lengthAdjust="spacingAndGlyphs"
text-anchor="start" opacity="0">4</text>
<path d="M73200 78240
L73200 78580
" />
<path d="M73070 78040
L72950 78410
L73270 78410
" />
</g>
<g style="fill:#840000; fill-opacity:0.0; 
stroke:#840000; stroke-width:100; stroke-opacity:1; 
stroke-linecap:round; stroke-linejoin:round;">
</g>
<g style="fill:#840000; fill-opacity:0.0; 
stroke:#840000; stroke-width:60; stroke-opacity:1; 
stroke-linecap:round; stroke-linejoin:round;">
<text x="92520" y="78600"
textLength="550" font-size="680" lengthAdjust="spacingAndGlyphs"
text-anchor="start" opacity="0">5</text>
<path d="M92910 78070
L92670 78070
L92640 78310
L92670 78280
L92720 78260
L92840 78260
L92890 78280
L92910 78310
L92930 78360
L92930 78480
L92910 78530
L92890 78550
L92840 78580
L92720 78580
L92670 78550
L92640 78530
" />
</g>
<g style="fill:#840000; fill-opacity:0.0; 
stroke:#840000; stroke-width:100; stroke-opacity:1; 
stroke-linecap:round; stroke-linejoin:round;">
</g>
<g style="fill:#840000; fill-opacity:0.0; 
stroke:#840000; stroke-width:60; stroke-opacity:1; 
stroke-linecap:round; stroke-linejoin:round;">
<text x="112200" y="78600"
textLength="550" font-size="680" lengthAdjust="spacingAndGlyphs"
text-anchor="start" opacity="0">6</text>
<path d="M112570 78070
L112470 78070
L112420 78090
L112400 78110
L112350 78190
L112320 78280
L112320 78480
L112350 78530
L112370 78550
L112420 78580
L112520 78580
L112570 78550
L112590 78530
L112610 78480
L112610 78360
L112590 78310
L112570 78280
L112520 78260
L112420 78260
L112370 78280
L112350 78310
L112320 78360
" />
</g>
<g style="fill:#840000; fill-opacity:0.0; 
stroke:#840000; stroke-width:100; stroke-opacity:1; 
stroke-linecap:round; stroke-linejoin:round;">
</g>
<g style="fill:#840000; fill-opacity:0.0; 
stroke:#840000; stroke-width:60; stroke-opacity:1; 
stroke-linecap:round; stroke-linejoin:round;">
<path d="M3940 23620
L4720 23620
" />
</g>
<g style="fill:#840000; fill-opacity:0.0; 
stroke:#840000; stroke-width:100; stroke-opacity:1; 
stroke-linecap:round; stroke-linejoin:round;">
</g>
<g style="fill:#840000; fill-opacity:0.0; 
stroke:#840000; stroke-width:60; stroke-opacity:1; 
stroke-linecap:round; stroke-linejoin:round;">
<path d="M3940 43310
L4720 43310
" />
</g>
<g style="fill:#840000; fill-opacity:0.0; 
stroke:#840000; stroke-width:100; stroke-opacity:1; 
stroke-linecap:round; stroke-linejoin:round;">
</g>
<g style="fill:#840000; fill-opacity:0.0; 
stroke:#840000; stroke-width:60; stroke-opacity:1; 
stroke-linecap:round; stroke-linejoin:round;">
<path d="M3940 62990
L4720 62990
" />
</g>
<g style="fill:#840000; fill-opacity:0.0; 
stroke:#840000; stroke-width:100; stroke-opacity:1; 
stroke-linecap:round; stroke-linejoin:round;">
</g>
<g style="fill:#840000; fill-opacity:0.0; 
stroke:#840000; stroke-width:60; stroke-opacity:1; 
stroke-linecap:round; stroke-linejoin:round;">
<text x="4330" y="14030"
textLength="500" font-size="680" lengthAdjust="spacingAndGlyphs"
text-anchor="middle" opacity="0">A</text>
<path d="M4200 13860
L4450 13860
" />
<path d="M4160 14010
L4330 13500
L4500 14010
" />
</g>
<g style="fill:#840000; fill-opacity:0.0; 
stroke:#840000; stroke-width:100; stroke-opacity:1; 
stroke-linecap:round; stroke-linejoin:round;">
</g>
<g style="fill:#840000; fill-opacity:0.0; 
stroke:#840000; stroke-width:60; stroke-opacity:1; 
stroke-linecap:round; stroke-linejoin:round;">
<text x="4330" y="33710"
textLength="570" font-size="680" lengthAdjust="spacingAndGlyphs"
text-anchor="middle" opacity="0">B</text>
<path d="M4360 33420
L4430 33440
L4460 33470
L4480 33520
L4480 33590
L4460 33640
L4430 33660
L4390 33690
L4190 33690
L4190 33180
L4360 33180
L4410 33200
L4430 33220
L4460 33270
L4460 33320
L4430 33370
L4410 33390
L4360 33420
L4190 33420
" />
</g>
<g style="fill:#840000; fill-opacity:0.0; 
stroke:#840000; stroke-width:100; stroke-opacity:1; 
stroke-linecap:round; stroke-linejoin:round;">
</g>
<g style="fill:#840000; fill-opacity:0.0; 
stroke:#840000; stroke-width:60; stroke-opacity:1; 
stroke-linecap:round; stroke-linejoin:round;">
<text x="4330" y="53400"
textLength="570" font-size="680" lengthAdjust="spacingAndGlyphs"
text-anchor="middle" opacity="0">C</text>
<path d="M4480 53330
L4460 53350
L4390 53380
L4340 53380
L4260 53350
L4220 53300
L4190 53250
L4170 53160
L4170 53080
L4190 52990
L4220 52940
L4260 52890
L4340 52870
L4390 52870
L4460 52890
L4480 52910
" />
</g>
<g style="fill:#840000; fill-opacity:0.0; 
stroke:#840000; stroke-width:100; stroke-opacity:1; 
stroke-linecap:round; stroke-linejoin:round;">
</g>
<g style="fill:#840000; fill-opacity:0.0; 
stroke:#840000; stroke-width:60; stroke-opacity:1; 
stroke-linecap:round; stroke-linejoin:round;">
<text x="4330" y="73080"
textLength="570" font-size="680" lengthAdjust="spacingAndGlyphs"
text-anchor="middle" opacity="0">D</text>
<path d="M4190 73060
L4190 72550
L4310 72550
L4390 72570
L4430 72620
L4460 72670
L4480 72760
L4480 72840
L4460 72930
L4430 72980
L4390 73030
L4310 73060
L4190 73060
" />
</g>
<g style="fill:#840000; fill-opacity:0.0; 
stroke:#840000; stroke-width:100; stroke-opacity:1; 
stroke-linecap:round; stroke-linejoin:round;">
</g>
<g style="fill:#840000; fill-opacity:0.0; 
stroke:#840000; stroke-width:60; stroke-opacity:1; 
stroke-linecap:round; stroke-linejoin:round;">
<path d="M112990 23620
L112210 23620
" />
</g>
<g style="fill:#840000; fill-opacity:0.0; 
stroke:#840000; stroke-width:100; stroke-opacity:1; 
stroke-linecap:round; stroke-linejoin:round;">
</g>
<g style="fill:#840000; fill-opacity:0.0; 
stroke:#840000; stroke-width:60; stroke-opacity:1; 
stroke-linecap:round; stroke-linejoin:round;">
<path d="M112990 43310
L112210 43310
" />
</g>
<g style="fill:#840000; fill-opacity:0.0; 
stroke:#840000; stroke-width:100; stroke-opacity:1; 
stroke-linecap:round; stroke-linejoin:round;">
</g>
<g style="fill:#840000; fill-opacity:0.0; 
stroke:#840000; stroke-width:60; stroke-opacity:1; 
stroke-linecap:round; stroke-linejoin:round;">
<path d="M112990 62990
L112210 62990
" />
</g>
<g style="fill:#840000; fill-opacity:0.0; 
stroke:#840000; stroke-width:100; stroke-opacity:1; 
stroke-linecap:round; stroke-linejoin:round;">
</g>
<g style="fill:#840000; fill-opacity:0.0; 
stroke:#840000; stroke-width:60; stroke-opacity:1; 
stroke-linecap:round; stroke-linejoin:round;">
<text x="112600" y="14030"
textLength="500" font-size="680" lengthAdjust="spacingAndGlyphs"
text-anchor="middle" opacity="0">A</text>
<path d="M112470 13860
L112720 13860
" />
<path d="M112430 14010
L112600 13500
L112770 14010
" />
</g>
<g style="fill:#840000; fill-opacity:0.0; 
stroke:#840000; stroke-width:100; stroke-opacity:1; 
stroke-linecap:round; stroke-linejoin:round;">
</g>
<g style="fill:#840000; fill-opacity:0.0; 
stroke:#840000; stroke-width:60; stroke-opacity:1; 
stroke-linecap:round; stroke-linejoin:round;">
<text x="112600" y="33710"
textLength="570" font-size="680" lengthAdjust="spacingAndGlyphs"
text-anchor="middle" opacity="0">B</text>
<path d="M112630 33420
L112700 33440
L112730 33470
L112750 33520
L112750 33590
L112730 33640
L112700 33660
L112660 33690
L112460 33690
L112460 33180
L112630 33180
L112680 33200
L112700 33220
L112730 33270
L112730 33320
L112700 33370
L112680 33390
L112630 33420
L112460 33420
" />
</g>
<g style="fill:#840000; fill-opacity:0.0; 
stroke:#840000; stroke-width:100; stroke-opacity:1; 
stroke-linecap:round; stroke-linejoin:round;">
</g>
<g style="fill:#840000; fill-opacity:0.0; 
stroke:#840000; stroke-width:60; stroke-opacity:1; 
stroke-linecap:round; stroke-linejoin:round;">
<text x="112600" y="53400"
textLength="570" font-size="680" lengthAdjust="spacingAndGlyphs"
text-anchor="middle" opacity="0">C</text>
<path d="M112750 53330
L112730 53350
L112660 53380
L112610 53380
L112530 53350
L112490 53300
L112460 53250
L112440 53160
L112440 53080
L112460 52990
L112490 52940
L112530 52890
L112610 52870
L112660 52870
L112730 52890
L112750 52910
" />
</g>
<g style="fill:#840000; fill-opacity:0.0; 
stroke:#840000; stroke-width:100; stroke-opacity:1; 
stroke-linecap:round; stroke-linejoin:round;">
</g>
<g style="fill:#840000; fill-opacity:0.0; 
stroke:#840000; stroke-width:60; stroke-opacity:1; 
stroke-linecap:round; stroke-linejoin:round;">
<text x="112600" y="73080"
textLength="570" font-size="680" lengthAdjust="spacingAndGlyphs"
text-anchor="middle" opacity="0">D</text>
<path d="M112460 73060
L112460 72550
L112580 72550
L112660 72570
L112700 72620
L112730 72670
L112750 72760
L112750 72840
L112730 72930
L112700 72980
L112660 73030
L112580 73060
L112460 73060
" />
</g>
<g style="fill:#840000; fill-opacity:0.0; 
stroke:#840000; stroke-width:100; stroke-opacity:1; 
stroke-linecap:round; stroke-linejoin:round;">
</g>
<g style="fill:#840000; fill-opacity:0.0; 
stroke:#840000; stroke-width:60; stroke-opacity:1; 
stroke-linecap:round; stroke-linejoin:round;">
<text x="78740" y="76320"
textLength="2760" font-size="780" lengthAdjust="spacingAndGlyphs"
text-anchor="start" opacity="0">Date: </text>
<path d="M78910 76290
L78910 75700
L79050 75700
L79130 75730
L79190 75790
L79210 75840
L79240 75950
L79240 76040
L79210 76150
L79190 76210
L79130 76260
L79050 76290
L78910 76290
" />
<path d="M79750 76290
L79750 75980
L79720 75930
L79660 75900
L79550 75900
L79500 75930
" />
<path d="M79750 76260
L79690 76290
L79550 76290
L79500 76260
L79470 76210
L79470 76150
L79500 76100
L79550 76070
L79690 76070
L79750 76040
" />
<path d="M79950 75900
L80170 75900
" />
<path d="M80030 75700
L80030 76210
L80060 76260
L80110 76290
L80170 76290
" />
<path d="M80590 76260
L80540 76290
L80420 76290
L80370 76260
L80340 76210
L80340 75980
L80370 75930
L80420 75900
L80540 75900
L80590 75930
L80620 75980
L80620 76040
L80340 76100
" />
<path d="M80870 76240
L80900 76260
L80870 76290
L80840 76260
L80870 76240
L80870 76290
" />
<path d="M80870 75930
L80900 75950
L80870 75980
L80840 75950
L80870 75930
L80870 75980
" />
</g>
<g style="fill:#840000; fill-opacity:0.0; 
stroke:#840000; stroke-width:100; stroke-opacity:1; 
stroke-linecap:round; stroke-linejoin:round;">
</g>
<g style="fill:#840000; fill-opacity:0.0; 
stroke:#840000; stroke-width:60; stroke-opacity:1; 
stroke-linecap:round; stroke-linejoin:round;">
<path d="M69690 76580
L112210 76580
" />
</g>
<g style="fill:#840000; fill-opacity:0.0; 
stroke:#840000; stroke-width:100; stroke-opacity:1; 
stroke-linecap:round; stroke-linejoin:round;">
</g>
<g style="fill:#840000; fill-opacity:0.0; 
stroke:#840000; stroke-width:60; stroke-opacity:1; 
stroke-linecap:round; stroke-linejoin:round;">
<text x="70080" y="77420"
textLength="23550" font-size="780" lengthAdjust="spacingAndGlyphs"
text-anchor="start" opacity="0">KiCad E.D.A.  kicad 5.1.5-52549c5~86~ubuntu18.04.1</text>
<path d="M70250 77390
L70250 76800
" />
<path d="M70580 77390
L70330 77050
" />
<path d="M70580 76800
L70250 77140
" />
<path d="M70840 77390
L70840 77000
" />
<path d="M70840 76800
L70810 76830
L70840 76860
L70860 76830
L70840 76800
L70840 76860
" />
<path d="M71450 77340
L71430 77360
L71340 77390
L71290 77390
L71200 77360
L71140 77310
L71120 77250
L71090 77140
L71090 77050
L71120 76940
L71140 76890
L71200 76830
L71290 76800
L71340 76800
L71430 76830
L71450 76860
" />
<path d="M71960 77390
L71960 77080
L71930 77030
L71880 77000
L71760 77000
L71710 77030
" />
<path d="M71960 77360
L71900 77390
L71760 77390
L71710 77360
L71680 77310
L71680 77250
L71710 77200
L71760 77170
L71900 77170
L71960 77140
" />
<path d="M72490 77390
L72490 76800
" />
<path d="M72490 77360
L72440 77390
L72320 77390
L72270 77360
L72240 77340
L72210 77280
L72210 77110
L72240 77050
L72270 77030
L72320 77000
L72440 77000
L72490 77030
" />
<path d="M73220 77080
L73420 77080
" />
<path d="M73500 77390
L73220 77390
L73220 76800
L73500 76800
" />
<path d="M73760 77340
L73790 77360
L73760 77390
L73730 77360
L73760 77340
L73760 77390
" />
<path d="M74040 77390
L74040 76800
L74180 76800
L74260 76830
L74320 76890
L74350 76940
L74380 77050
L74380 77140
L74350 77250
L74320 77310
L74260 77360
L74180 77390
L74040 77390
" />
<path d="M74630 77340
L74660 77360
L74630 77390
L74600 77360
L74630 77340
L74630 77390
" />
<path d="M74880 77220
L75160 77220
" />
<path d="M74830 77390
L75020 76800
L75220 77390
" />
<path d="M75420 77340
L75440 77360
L75420 77390
L75390 77360
L75420 77340
L75420 77390
" />
<path d="M76600 77390
L76600 76800
" />
<path d="M76650 77170
L76820 77390
" />
<path d="M76820 77000
L76600 77220
" />
<path d="M77070 77390
L77070 77000
" />
<path d="M77070 76800
L77040 76830
L77070 76860
L77100 76830
L77070 76800
L77070 76860
" />
<path d="M77610 77360
L77550 77390
L77440 77390
L77380 77360
L77350 77340
L77330 77280
L77330 77110
L77350 77050
L77380 77030
L77440 77000
L77550 77000
L77610 77030
" />
<path d="M78110 77390
L78110 77080
L78080 77030
L78030 77000
L77920 77000
L77860 77030
" />
<path d="M78110 77360
L78060 77390
L77920 77390
L77860 77360
L77830 77310
L77830 77250
L77860 77200
L77920 77170
L78060 77170
L78110 77140
" />
<path d="M78650 77390
L78650 76800
" />
<path d="M78650 77360
L78590 77390
L78480 77390
L78420 77360
L78390 77340
L78370 77280
L78370 77110
L78390 77050
L78420 77030
L78480 77000
L78590 77000
L78650 77030
" />
<path d="M79660 76800
L79380 76800
L79350 77080
L79380 77050
L79430 77030
L79570 77030
L79630 77050
L79660 77080
L79690 77140
L79690 77280
L79660 77340
L79630 77360
L79570 77390
L79430 77390
L79380 77360
L79350 77340
" />
<path d="M79940 77340
L79970 77360
L79940 77390
L79910 77360
L79940 77340
L79940 77390
" />
<path d="M80530 77390
L80190 77390
" />
<path d="M80360 77390
L80360 76800
L80300 76890
L80250 76940
L80190 76970
" />
<path d="M80780 77340
L80810 77360
L80780 77390
L80750 77360
L80780 77340
L80780 77390
" />
<path d="M81340 76800
L81060 76800
L81030 77080
L81060 77050
L81120 77030
L81260 77030
L81320 77050
L81340 77080
L81370 77140
L81370 77280
L81340 77340
L81320 77360
L81260 77390
L81120 77390
L81060 77360
L81030 77340
" />
<path d="M81620 77170
L82070 77170
" />
<path d="M82640 76800
L82350 76800
L82330 77080
L82350 77050
L82410 77030
L82550 77030
L82610 77050
L82640 77080
L82660 77140
L82660 77280
L82640 77340
L82610 77360
L82550 77390
L82410 77390
L82350 77360
L82330 77340
" />
<path d="M82890 76860
L82920 76830
L82970 76800
L83110 76800
L83170 76830
L83200 76860
L83230 76910
L83230 76970
L83200 77050
L82860 77390
L83230 77390
" />
<path d="M83760 76800
L83480 76800
L83450 77080
L83480 77050
L83530 77030
L83680 77030
L83730 77050
L83760 77080
L83790 77140
L83790 77280
L83760 77340
L83730 77360
L83680 77390
L83530 77390
L83480 77360
L83450 77340
" />
<path d="M84290 77000
L84290 77390
" />
<path d="M84150 76770
L84010 77200
L84380 77200
" />
<path d="M84630 77390
L84740 77390
L84800 77360
L84830 77340
L84880 77250
L84910 77140
L84910 76910
L84880 76860
L84860 76830
L84800 76800
L84690 76800
L84630 76830
L84600 76860
L84570 76910
L84570 77050
L84600 77110
L84630 77140
L84690 77170
L84800 77170
L84860 77140
L84880 77110
L84910 77050
" />
<path d="M85420 77360
L85360 77390
L85250 77390
L85190 77360
L85160 77340
L85140 77280
L85140 77110
L85160 77050
L85190 77030
L85250 77000
L85360 77000
L85420 77030
" />
<path d="M85950 76800
L85670 76800
L85640 77080
L85670 77050
L85730 77030
L85870 77030
L85920 77050
L85950 77080
L85980 77140
L85980 77280
L85950 77340
L85920 77360
L85870 77390
L85730 77390
L85670 77360
L85640 77340
" />
<path d="M86090 76640
L86650 76640
" />
<path d="M86320 77050
L86260 77030
L86230 77000
L86200 76940
L86200 76910
L86230 76860
L86260 76830
L86320 76800
L86430 76800
L86480 76830
L86510 76860
L86540 76910
L86540 76940
L86510 77000
L86480 77030
L86430 77050
L86320 77050
L86260 77080
L86230 77110
L86200 77170
L86200 77280
L86230 77340
L86260 77360
L86320 77390
L86430 77390
L86480 77360
L86510 77340
L86540 77280
L86540 77170
L86510 77110
L86480 77080
L86430 77050
" />
<path d="M86650 76640
L87220 76640
" />
<path d="M87050 76800
L86930 76800
L86880 76830
L86850 76860
L86790 76940
L86770 77050
L86770 77280
L86790 77340
L86820 77360
L86880 77390
L86990 77390
L87050 77360
L87070 77340
L87100 77280
L87100 77140
L87070 77080
L87050 77050
L86990 77030
L86880 77030
L86820 77050
L86790 77080
L86770 77140
" />
<path d="M87610 77000
L87610 77390
" />
<path d="M87360 77000
L87360 77310
L87380 77360
L87440 77390
L87520 77390
L87580 77360
L87610 77340
" />
<path d="M87890 77390
L87890 76800
" />
<path d="M87890 77030
L87950 77000
L88060 77000
L88110 77030
L88140 77050
L88170 77110
L88170 77280
L88140 77340
L88110 77360
L88060 77390
L87950 77390
L87890 77360
" />
<path d="M88680 77000
L88680 77390
" />
<path d="M88420 77000
L88420 77310
L88450 77360
L88510 77390
L88590 77390
L88650 77360
L88680 77340
" />
<path d="M88960 77000
L88960 77390
" />
<path d="M88960 77050
L88990 77030
L89040 77000
L89130 77000
L89180 77030
L89210 77080
L89210 77390
" />
<path d="M89410 77000
L89630 77000
" />
<path d="M89490 76800
L89490 77310
L89520 77360
L89580 77390
L89630 77390
" />
<path d="M90080 77000
L90080 77390
" />
<path d="M89830 77000
L89830 77310
L89860 77360
L89910 77390
L90000 77390
L90050 77360
L90080 77340
" />
<path d="M90670 77390
L90330 77390
" />
<path d="M90500 77390
L90500 76800
L90450 76890
L90390 76940
L90330 76970
" />
<path d="M91010 77050
L90950 77030
L90920 77000
L90900 76940
L90900 76910
L90920 76860
L90950 76830
L91010 76800
L91120 76800
L91180 76830
L91200 76860
L91230 76910
L91230 76940
L91200 77000
L91180 77030
L91120 77050
L91010 77050
L90950 77080
L90920 77110
L90900 77170
L90900 77280
L90920 77340
L90950 77360
L91010 77390
L91120 77390
L91180 77360
L91200 77340
L91230 77280
L91230 77170
L91200 77110
L91180 77080
L91120 77050
" />
<path d="M91490 77340
L91510 77360
L91490 77390
L91460 77360
L91490 77340
L91490 77390
" />
<path d="M91880 76800
L91940 76800
L91990 76830
L92020 76860
L92050 76910
L92080 77030
L92080 77170
L92050 77280
L92020 77340
L91990 77360
L91940 77390
L91880 77390
L91820 77360
L91790 77340
L91770 77280
L91740 77170
L91740 77030
L91770 76910
L91790 76860
L91820 76830
L91880 76800
" />
<path d="M92580 77000
L92580 77390
" />
<path d="M92440 76770
L92300 77200
L92670 77200
" />
<path d="M92890 77340
L92920 77360
L92890 77390
L92860 77360
L92890 77340
L92890 77390
" />
<path d="M93480 77390
L93140 77390
" />
<path d="M93310 77390
L93310 76800
L93260 76890
L93200 76940
L93140 76970
" />
</g>
<g style="fill:#840000; fill-opacity:0.0; 
stroke:#840000; stroke-width:100; stroke-opacity:1; 
stroke-linecap:round; stroke-linejoin:round;">
</g>
<g style="fill:#840000; fill-opacity:0.0; 
stroke:#840000; stroke-width:60; stroke-opacity:1; 
stroke-linecap:round; stroke-linejoin:round;">
<path d="M69690 75400
L112210 75400
" />
</g>
<g style="fill:#840000; fill-opacity:0.0; 
stroke:#840000; stroke-width:100; stroke-opacity:1; 
stroke-linecap:round; stroke-linejoin:round;">
</g>
<g style="fill:#840000; fill-opacity:0.0; 
stroke:#840000; stroke-width:120; stroke-opacity:1; 
stroke-linecap:round; stroke-linejoin:round;">
<text x="103540" y="76320"
textLength="2340" font-size="780" lengthAdjust="spacingAndGlyphs"
text-anchor="start" opacity="0">Rev: </text>
<path d="M104090 76290
L103890 76010
" />
<path d="M103750 76290
L103750 75700
L103980 75700
L104030 75730
L104060 75760
L104090 75810
L104090 75900
L104060 75950
L104030 75980
L103980 76010
L103750 76010
" />
<path d="M104570 76260
L104510 76290
L104400 76290
L104340 76260
L104320 76210
L104320 75980
L104340 75930
L104400 75900
L104510 75900
L104570 75930
L104600 75980
L104600 76040
L104320 76100
" />
<path d="M104790 75900
L104930 76290
L105070 75900
" />
<path d="M105300 76240
L105330 76260
L105300 76290
L105270 76260
L105300 76240
L105300 76290
" />
<path d="M105300 75930
L105330 75950
L105300 75980
L105270 75950
L105300 75930
L105300 75980
" />
</g>
<g style="fill:#840000; fill-opacity:0.0; 
stroke:#840000; stroke-width:100; stroke-opacity:1; 
stroke-linecap:round; stroke-linejoin:round;">
</g>
<g style="fill:#840000; fill-opacity:0.0; 
stroke:#840000; stroke-width:60; stroke-opacity:1; 
stroke-linecap:round; stroke-linejoin:round;">
<text x="70080" y="76320"
textLength="3780" font-size="780" lengthAdjust="spacingAndGlyphs"
text-anchor="start" opacity="0">Size: A4</text>
<path d="M70220 76260
L70300 76290
L70440 76290
L70500 76260
L70530 76240
L70550 76180
L70550 76120
L70530 76070
L70500 76040
L70440 76010
L70330 75980
L70270 75950
L70250 75930
L70220 75870
L70220 75810
L70250 75760
L70270 75730
L70330 75700
L70470 75700
L70550 75730
" />
<path d="M70810 76290
L70810 75900
" />
<path d="M70810 75700
L70780 75730
L70810 75760
L70840 75730
L70810 75700
L70810 75760
" />
<path d="M71030 75900
L71340 75900
L71030 76290
L71340 76290
" />
<path d="M71790 76260
L71730 76290
L71620 76290
L71570 76260
L71540 76210
L71540 75980
L71570 75930
L71620 75900
L71730 75900
L71790 75930
L71820 75980
L71820 76040
L71540 76100
" />
<path d="M72070 76240
L72100 76260
L72070 76290
L72040 76260
L72070 76240
L72070 76290
" />
<path d="M72070 75930
L72100 75950
L72070 75980
L72040 75950
L72070 75930
L72070 75980
" />
<path d="M72770 76120
L73060 76120
" />
<path d="M72720 76290
L72910 75700
L73110 76290
" />
<path d="M73560 75900
L73560 76290
" />
<path d="M73420 75670
L73280 76100
L73650 76100
" />
</g>
<g style="fill:#840000; fill-opacity:0.0; 
stroke:#840000; stroke-width:100; stroke-opacity:1; 
stroke-linecap:round; stroke-linejoin:round;">
</g>
<g style="fill:#840000; fill-opacity:0.0; 
stroke:#840000; stroke-width:60; stroke-opacity:1; 
stroke-linecap:round; stroke-linejoin:round;">
<text x="103540" y="77420"
textLength="3350" font-size="780" lengthAdjust="spacingAndGlyphs"
text-anchor="start" opacity="0">Id: 1/2</text>
<path d="M103710 77390
L103710 76800
" />
<path d="M104240 77390
L104240 76800
" />
<path d="M104240 77360
L104180 77390
L104070 77390
L104010 77360
L103990 77340
L103960 77280
L103960 77110
L103990 77050
L104010 77030
L104070 77000
L104180 77000
L104240 77030
" />
<path d="M104520 77340
L104550 77360
L104520 77390
L104490 77360
L104520 77340
L104520 77390
" />
<path d="M104520 77030
L104550 77050
L104520 77080
L104490 77050
L104520 77030
L104520 77080
" />
<path d="M105560 77390
L105220 77390
" />
<path d="M105390 77390
L105390 76800
L105340 76890
L105280 76940
L105220 76970
" />
<path d="M106230 76770
L105730 77530
" />
<path d="M106400 76860
L106430 76830
L106490 76800
L106630 76800
L106680 76830
L106710 76860
L106740 76910
L106740 76970
L106710 77050
L106370 77390
L106740 77390
" />
</g>
<g style="fill:#840000; fill-opacity:0.0; 
stroke:#840000; stroke-width:100; stroke-opacity:1; 
stroke-linecap:round; stroke-linejoin:round;">
</g>
<g style="fill:#840000; fill-opacity:0.0; 
stroke:#840000; stroke-width:60; stroke-opacity:1; 
stroke-linecap:round; stroke-linejoin:round;">
<path d="M69690 73820
L112210 73820
" />
</g>
<g style="fill:#840000; fill-opacity:0.0; 
stroke:#840000; stroke-width:100; stroke-opacity:1; 
stroke-linecap:round; stroke-linejoin:round;">
</g>
<g style="fill:#840000; fill-opacity:0.0; 
stroke:#840000; stroke-width:160; stroke-opacity:1; 
stroke-linecap:round; stroke-linejoin:round;">
<text x="70080" y="74920"
textLength="3710" font-size="1050" lengthAdjust="spacingAndGlyphs"
text-anchor="start" opacity="0">Title: </text>
<path d="M70360 74090
L70810 74090
" />
<path d="M70480 74880
L70580 74090
" />
<path d="M70970 74880
L71040 74360
" />
<path d="M71070 74090
L71030 74130
L71060 74170
L71110 74130
L71070 74090
L71060 74170
" />
<path d="M71300 74360
L71600 74360
" />
<path d="M71450 74090
L71360 74770
L71390 74840
L71460 74880
L71540 74880
" />
<path d="M71910 74880
L71840 74840
L71820 74770
L71900 74090
" />
<path d="M72520 74840
L72440 74880
L72290 74880
L72220 74840
L72190 74770
L72230 74470
L72280 74390
L72360 74360
L72510 74360
L72580 74390
L72610 74470
L72600 74540
L72210 74620
" />
<path d="M72900 74810
L72930 74840
L72890 74880
L72860 74840
L72900 74810
L72890 74880
" />
<path d="M72950 74390
L72990 74430
L72940 74470
L72910 74430
L72950 74390
L72940 74470
" />
</g>
<g style="fill:#840000; fill-opacity:0.0; 
stroke:#840000; stroke-width:100; stroke-opacity:1; 
stroke-linecap:round; stroke-linejoin:round;">
</g>
<g style="fill:#840000; fill-opacity:0.0; 
stroke:#840000; stroke-width:60; stroke-opacity:1; 
stroke-linecap:round; stroke-linejoin:round;">
<text x="70080" y="73400"
textLength="8720" font-size="780" lengthAdjust="spacingAndGlyphs"
text-anchor="start" opacity="0">File: Controller.sch</text>
<path d="M70440 73060
L70250 73060
" />
<path d="M70250 73370
L70250 72780
L70530 72780
" />
<path d="M70750 73370
L70750 72980
" />
<path d="M70750 72780
L70720 72810
L70750 72840
L70780 72810
L70750 72780
L70750 72840
" />
<path d="M71120 73370
L71060 73340
L71030 73290
L71030 72780
" />
<path d="M71570 73340
L71510 73370
L71400 73370
L71340 73340
L71310 73290
L71310 73060
L71340 73010
L71400 72980
L71510 72980
L71570 73010
L71590 73060
L71590 73120
L71310 73180
" />
<path d="M71850 73320
L71880 73340
L71850 73370
L71820 73340
L71850 73320
L71850 73370
" />
<path d="M71850 73010
L71880 73030
L71850 73060
L71820 73030
L71850 73010
L71850 73060
" />
<path d="M72910 73320
L72890 73340
L72800 73370
L72750 73370
L72660 73340
L72610 73290
L72580 73230
L72550 73120
L72550 73030
L72580 72920
L72610 72870
L72660 72810
L72750 72780
L72800 72780
L72890 72810
L72910 72840
" />
<path d="M73250 73370
L73200 73340
L73170 73320
L73140 73260
L73140 73090
L73170 73030
L73200 73010
L73250 72980
L73340 72980
L73390 73010
L73420 73030
L73450 73090
L73450 73260
L73420 73320
L73390 73340
L73340 73370
L73250 73370
" />
<path d="M73700 72980
L73700 73370
" />
<path d="M73700 73030
L73730 73010
L73790 72980
L73870 72980
L73930 73010
L73950 73060
L73950 73370
" />
<path d="M74150 72980
L74380 72980
" />
<path d="M74240 72780
L74240 73290
L74260 73340
L74320 73370
L74380 73370
" />
<path d="M74570 73370
L74570 72980
" />
<path d="M74570 73090
L74600 73030
L74630 73010
L74680 72980
L74740 72980
" />
<path d="M75020 73370
L74970 73340
L74940 73320
L74910 73260
L74910 73090
L74940 73030
L74970 73010
L75020 72980
L75110 72980
L75160 73010
L75190 73030
L75220 73090
L75220 73260
L75190 73320
L75160 73340
L75110 73370
L75020 73370
" />
<path d="M75560 73370
L75500 73340
L75470 73290
L75470 72780
" />
<path d="M75860 73370
L75810 73340
L75780 73290
L75780 72780
" />
<path d="M76310 73340
L76260 73370
L76150 73370
L76090 73340
L76060 73290
L76060 73060
L76090 73010
L76150 72980
L76260 72980
L76310 73010
L76340 73060
L76340 73120
L76060 73180
" />
<path d="M76600 73370
L76600 72980
" />
<path d="M76600 73090
L76620 73030
L76650 73010
L76710 72980
L76760 72980
" />
<path d="M76960 73320
L76990 73340
L76960 73370
L76930 73340
L76960 73320
L76960 73370
" />
<path d="M77210 73340
L77270 73370
L77380 73370
L77440 73340
L77470 73290
L77470 73260
L77440 73200
L77380 73180
L77300 73180
L77240 73150
L77210 73090
L77210 73060
L77240 73010
L77300 72980
L77380 72980
L77440 73010
" />
<path d="M77970 73340
L77920 73370
L77800 73370
L77750 73340
L77720 73320
L77690 73260
L77690 73090
L77720 73030
L77750 73010
L77800 72980
L77920 72980
L77970 73010
" />
<path d="M78220 73370
L78220 72780
" />
<path d="M78480 73370
L78480 73060
L78450 73010
L78390 72980
L78310 72980
L78250 73010
L78220 73030
" />
</g>
<g style="fill:#840000; fill-opacity:0.0; 
stroke:#840000; stroke-width:100; stroke-opacity:1; 
stroke-linecap:round; stroke-linejoin:round;">
</g>
<g style="fill:#840000; fill-opacity:0.0; 
stroke:#840000; stroke-width:60; stroke-opacity:1; 
stroke-linecap:round; stroke-linejoin:round;">
<path d="M69690 71460
L112210 71460
" />
</g>
<g style="fill:#840000; fill-opacity:0.0; 
stroke:#840000; stroke-width:100; stroke-opacity:1; 
stroke-linecap:round; stroke-linejoin:round;">
</g>
<g style="fill:#840000; fill-opacity:0.0; 
stroke:#840000; stroke-width:60; stroke-opacity:1; 
stroke-linecap:round; stroke-linejoin:round;">
<text x="70080" y="72340"
textLength="3850" font-size="780" lengthAdjust="spacingAndGlyphs"
text-anchor="start" opacity="0">Sheet: /</text>
<path d="M70220 72280
L70300 72310
L70440 72310
L70500 72280
L70530 72260
L70550 72200
L70550 72140
L70530 72090
L70500 72060
L70440 72030
L70330 72000
L70270 71970
L70250 71950
L70220 71890
L70220 71830
L70250 71780
L70270 71750
L70330 71720
L70470 71720
L70550 71750
" />
<path d="M70810 72310
L70810 71720
" />
<path d="M71060 72310
L71060 72000
L71030 71950
L70980 71920
L70890 71920
L70840 71950
L70810 71970
" />
<path d="M71570 72280
L71510 72310
L71400 72310
L71340 72280
L71310 72230
L71310 72000
L71340 71950
L71400 71920
L71510 71920
L71570 71950
L71590 72000
L71590 72060
L71310 72120
" />
<path d="M72070 72280
L72020 72310
L71900 72310
L71850 72280
L71820 72230
L71820 72000
L71850 71950
L71900 71920
L72020 71920
L72070 71950
L72100 72000
L72100 72060
L71820 72120
" />
<path d="M72270 71920
L72490 71920
" />
<path d="M72350 71720
L72350 72230
L72380 72280
L72440 72310
L72490 72310
" />
<path d="M72690 72260
L72720 72280
L72690 72310
L72660 72280
L72690 72260
L72690 72310
" />
<path d="M72690 71950
L72720 71970
L72690 72000
L72660 71970
L72690 71950
L72690 72000
" />
<path d="M73840 71690
L73340 72450
" />
</g>
<g style="fill:#840000; fill-opacity:0.0; 
stroke:#840000; stroke-width:100; stroke-opacity:1; 
stroke-linecap:round; stroke-linejoin:round;">
</g>
<g style="fill:#840000; fill-opacity:0.0; 
stroke:#840000; stroke-width:60; stroke-opacity:1; 
stroke-linecap:round; stroke-linejoin:round;">
<path d="M77560 75400
L77560 76580
" />
</g>
<g style="fill:#840000; fill-opacity:0.0; 
stroke:#840000; stroke-width:100; stroke-opacity:1; 
stroke-linecap:round; stroke-linejoin:round;">
</g>
<g style="fill:#840000; fill-opacity:0.0; 
stroke:#840000; stroke-width:60; stroke-opacity:1; 
stroke-linecap:round; stroke-linejoin:round;">
<path d="M102760 75400
L102760 77960
" />
</g>
<g style="fill:#840084; fill-opacity:0.0; 
stroke:#840084; stroke-width:60; stroke-opacity:1; 
stroke-linecap:round; stroke-linejoin:round;">
<path d="M39250 23250
L58000 23250
L58000 40250
L39250 40250
L39250 23250
" />
</g>
<g style="fill:#008484; fill-opacity:0.0; 
stroke:#008484; stroke-width:60; stroke-opacity:1; 
stroke-linecap:round; stroke-linejoin:round;">
</g>
<g style="fill:#000000; fill-opacity:0.0; 
stroke:#000000; stroke-width:60; stroke-opacity:1; 
stroke-linecap:round; stroke-linejoin:round;">
<text x="39250" y="23210"
textLength="11200" font-size="660" lengthAdjust="spacingAndGlyphs"
text-anchor="start" opacity="0">Sheet: LED_Controller_Module</text>
<path d="M39370 23160
L39440 23180
L39560 23180
L39610 23160
L39630 23130
L39660 23090
L39660 23040
L39630 22990
L39610 22970
L39560 22940
L39470 22920
L39420 22900
L39390 22870
L39370 22820
L39370 22780
L39390 22730
L39420 22710
L39470 22680
L39580 22680
L39660 22710
" />
<path d="M39870 23180
L39870 22680
" />
<path d="M40080 23180
L40080 22920
L40060 22870
L40010 22850
L39940 22850
L39890 22870
L39870 22900
" />
<path d="M40510 23160
L40470 23180
L40370 23180
L40320 23160
L40300 23110
L40300 22920
L40320 22870
L40370 22850
L40470 22850
L40510 22870
L40540 22920
L40540 22970
L40300 23010
" />
<path d="M40940 23160
L40890 23180
L40800 23180
L40750 23160
L40730 23110
L40730 22920
L40750 22870
L40800 22850
L40890 22850
L40940 22870
L40970 22920
L40970 22970
L40730 23010
" />
<path d="M41110 22850
L41300 22850
" />
<path d="M41180 22680
L41180 23110
L41200 23160
L41250 23180
L41300 23180
" />
<path d="M41470 23130
L41490 23160
L41470 23180
L41440 23160
L41470 23130
L41470 23180
" />
<path d="M41470 22870
L41490 22900
L41470 22920
L41440 22900
L41470 22870
L41470 22920
" />
<path d="M42320 23180
L42080 23180
L42080 22680
" />
<path d="M42490 22920
L42660 22920
" />
<path d="M42730 23180
L42490 23180
L42490 22680
L42730 22680
" />
<path d="M42940 23180
L42940 22680
L43060 22680
L43130 22710
L43180 22750
L43200 22800
L43230 22900
L43230 22970
L43200 23060
L43180 23110
L43130 23160
L43060 23180
L42940 23180
" />
<path d="M43320 23230
L43700 23230
" />
<path d="M44110 23130
L44080 23160
L44010 23180
L43970 23180
L43890 23160
L43850 23110
L43820 23060
L43800 22970
L43800 22900
L43820 22800
L43850 22750
L43890 22710
L43970 22680
L44010 22680
L44080 22710
L44110 22730
" />
<path d="M44390 23180
L44350 23160
L44320 23130
L44300 23090
L44300 22940
L44320 22900
L44350 22870
L44390 22850
L44470 22850
L44510 22870
L44540 22900
L44560 22940
L44560 23090
L44540 23130
L44510 23160
L44470 23180
L44390 23180
" />
<path d="M44780 22850
L44780 23180
" />
<path d="M44780 22900
L44800 22870
L44850 22850
L44920 22850
L44970 22870
L44990 22920
L44990 23180
" />
<path d="M45160 22850
L45350 22850
" />
<path d="M45230 22680
L45230 23110
L45250 23160
L45300 23180
L45350 23180
" />
<path d="M45510 23180
L45510 22850
" />
<path d="M45510 22940
L45540 22900
L45560 22870
L45610 22850
L45660 22850
" />
<path d="M45890 23180
L45850 23160
L45820 23130
L45800 23090
L45800 22940
L45820 22900
L45850 22870
L45890 22850
L45970 22850
L46010 22870
L46040 22900
L46060 22940
L46060 23090
L46040 23130
L46010 23160
L45970 23180
L45890 23180
" />
<path d="M46350 23180
L46300 23160
L46280 23110
L46280 22680
" />
<path d="M46610 23180
L46560 23160
L46540 23110
L46540 22680
" />
<path d="M46990 23160
L46940 23180
L46850 23180
L46800 23160
L46780 23110
L46780 22920
L46800 22870
L46850 22850
L46940 22850
L46990 22870
L47010 22920
L47010 22970
L46780 23010
" />
<path d="M47230 23180
L47230 22850
" />
<path d="M47230 22940
L47250 22900
L47280 22870
L47320 22850
L47370 22850
" />
<path d="M47420 23230
L47800 23230
" />
<path d="M47920 23180
L47920 22680
L48080 23040
L48250 22680
L48250 23180
" />
<path d="M48560 23180
L48510 23160
L48490 23130
L48470 23090
L48470 22940
L48490 22900
L48510 22870
L48560 22850
L48630 22850
L48680 22870
L48700 22900
L48730 22940
L48730 23090
L48700 23130
L48680 23160
L48630 23180
L48560 23180
" />
<path d="M49160 23180
L49160 22680
" />
<path d="M49160 23160
L49110 23180
L49010 23180
L48970 23160
L48940 23130
L48920 23090
L48920 22940
L48940 22900
L48970 22870
L49010 22850
L49110 22850
L49160 22870
" />
<path d="M49610 22850
L49610 23180
" />
<path d="M49390 22850
L49390 23110
L49420 23160
L49470 23180
L49540 23180
L49580 23160
L49610 23130
" />
<path d="M49920 23180
L49870 23160
L49850 23110
L49850 22680
" />
<path d="M50300 23160
L50250 23180
L50160 23180
L50110 23160
L50080 23110
L50080 22920
L50110 22870
L50160 22850
L50250 22850
L50300 22870
L50320 22920
L50320 22970
L50080 23010
" />
</g>
<g style="fill:#848400; fill-opacity:0.0; 
stroke:#848400; stroke-width:60; stroke-opacity:1; 
stroke-linecap:round; stroke-linejoin:round;">
</g>
<g style="fill:#000000; fill-opacity:0.0; 
stroke:#000000; stroke-width:60; stroke-opacity:1; 
stroke-linecap:round; stroke-linejoin:round;">
<text x="39250" y="40790"
textLength="9010" font-size="660" lengthAdjust="spacingAndGlyphs"
text-anchor="start" opacity="0">File: LED_Controller.sch</text>
<path d="M39560 40500
L39390 40500
" />
<path d="M39390 40760
L39390 40260
L39630 40260
" />
<path d="M39820 40760
L39820 40430
" />
<path d="M39820 40260
L39800 40290
L39820 40310
L39850 40290
L39820 40260
L39820 40310
" />
<path d="M40130 40760
L40080 40740
L40060 40690
L40060 40260
" />
<path d="M40510 40740
L40470 40760
L40370 40760
L40320 40740
L40300 40690
L40300 40500
L40320 40450
L40370 40430
L40470 40430
L40510 40450
L40540 40500
L40540 40550
L40300 40590
" />
<path d="M40750 40710
L40780 40740
L40750 40760
L40730 40740
L40750 40710
L40750 40760
" />
<path d="M40750 40450
L40780 40480
L40750 40500
L40730 40480
L40750 40450
L40750 40500
" />
<path d="M41610 40760
L41370 40760
L41370 40260
" />
<path d="M41780 40500
L41940 40500
" />
<path d="M42010 40760
L41780 40760
L41780 40260
L42010 40260
" />
<path d="M42230 40760
L42230 40260
L42350 40260
L42420 40290
L42470 40330
L42490 40380
L42510 40480
L42510 40550
L42490 40640
L42470 40690
L42420 40740
L42350 40760
L42230 40760
" />
<path d="M42610 40810
L42990 40810
" />
<path d="M43390 40710
L43370 40740
L43300 40760
L43250 40760
L43180 40740
L43130 40690
L43110 40640
L43080 40550
L43080 40480
L43110 40380
L43130 40330
L43180 40290
L43250 40260
L43300 40260
L43370 40290
L43390 40310
" />
<path d="M43680 40760
L43630 40740
L43610 40710
L43580 40670
L43580 40520
L43610 40480
L43630 40450
L43680 40430
L43750 40430
L43800 40450
L43820 40480
L43850 40520
L43850 40670
L43820 40710
L43800 40740
L43750 40760
L43680 40760
" />
<path d="M44060 40430
L44060 40760
" />
<path d="M44060 40480
L44080 40450
L44130 40430
L44200 40430
L44250 40450
L44280 40500
L44280 40760
" />
<path d="M44440 40430
L44630 40430
" />
<path d="M44510 40260
L44510 40690
L44540 40740
L44580 40760
L44630 40760
" />
<path d="M44800 40760
L44800 40430
" />
<path d="M44800 40520
L44820 40480
L44850 40450
L44890 40430
L44940 40430
" />
<path d="M45180 40760
L45130 40740
L45110 40710
L45080 40670
L45080 40520
L45110 40480
L45130 40450
L45180 40430
L45250 40430
L45300 40450
L45320 40480
L45350 40520
L45350 40670
L45320 40710
L45300 40740
L45250 40760
L45180 40760
" />
<path d="M45630 40760
L45580 40740
L45560 40690
L45560 40260
" />
<path d="M45890 40760
L45850 40740
L45820 40690
L45820 40260
" />
<path d="M46280 40740
L46230 40760
L46130 40760
L46080 40740
L46060 40690
L46060 40500
L46080 40450
L46130 40430
L46230 40430
L46280 40450
L46300 40500
L46300 40550
L46060 40590
" />
<path d="M46510 40760
L46510 40430
" />
<path d="M46510 40520
L46540 40480
L46560 40450
L46610 40430
L46660 40430
" />
<path d="M46820 40710
L46850 40740
L46820 40760
L46800 40740
L46820 40710
L46820 40760
" />
<path d="M47040 40740
L47080 40760
L47180 40760
L47230 40740
L47250 40690
L47250 40670
L47230 40620
L47180 40590
L47110 40590
L47060 40570
L47040 40520
L47040 40500
L47060 40450
L47110 40430
L47180 40430
L47230 40450
" />
<path d="M47680 40740
L47630 40760
L47540 40760
L47490 40740
L47470 40710
L47440 40670
L47440 40520
L47470 40480
L47490 40450
L47540 40430
L47630 40430
L47680 40450
" />
<path d="M47890 40760
L47890 40260
" />
<path d="M48110 40760
L48110 40500
L48080 40450
L48040 40430
L47970 40430
L47920 40450
L47890 40480
" />
</g>
<g style="fill:#840084; fill-opacity:0.0; 
stroke:#840084; stroke-width:60; stroke-opacity:1; 
stroke-linecap:round; stroke-linejoin:round;">
</g>
<g style="fill:#848400; fill-opacity:0.0; 
stroke:#848400; stroke-width:60; stroke-opacity:1; 
stroke-linecap:round; stroke-linejoin:round;">
<text x="57400" y="29250"
textLength="4770" font-size="660" lengthAdjust="spacingAndGlyphs"
text-anchor="end" opacity="0">UV_LED_PWM</text>
<path d="M52770 28720
L52770 29130
L52790 29170
L52820 29200
L52870 29220
L52960 29220
L53010 29200
L53030 29170
L53060 29130
L53060 28720
" />
<path d="M53220 28720
L53390 29220
L53560 28720
" />
<path d="M53600 29270
L53980 29270
" />
<path d="M54340 29220
L54100 29220
L54100 28720
" />
<path d="M54510 28960
L54670 28960
" />
<path d="M54750 29220
L54510 29220
L54510 28720
L54750 28720
" />
<path d="M54960 29220
L54960 28720
L55080 28720
L55150 28750
L55200 28790
L55220 28840
L55250 28940
L55250 29010
L55220 29100
L55200 29150
L55150 29200
L55080 29220
L54960 29220
" />
<path d="M55340 29270
L55720 29270
" />
<path d="M55840 29220
L55840 28720
L56030 28720
L56080 28750
L56100 28770
L56130 28820
L56130 28890
L56100 28940
L56080 28960
L56030 28980
L55840 28980
" />
<path d="M56290 28720
L56410 29220
L56510 28860
L56600 29220
L56720 28720
" />
<path d="M56910 29220
L56910 28720
L57080 29080
L57250 28720
L57250 29220
" />
</g>
<g style="fill:#848400; fill-opacity:0.0; 
stroke:#848400; stroke-width:100; stroke-opacity:1; 
stroke-linecap:round; stroke-linejoin:round;">
<path style="fill:#848400; fill-opacity:0.0; 
stroke:#848400; stroke-width:100; stroke-opacity:1; 
stroke-linecap:round; stroke-linejoin:round;fill:none"
d="M 57500,29000
57750,29250
58000,29250
58000,28750
57750,28750
Z" /> 
</g>
<g style="fill:#848400; fill-opacity:0.0; 
stroke:#848400; stroke-width:60; stroke-opacity:1; 
stroke-linecap:round; stroke-linejoin:round;">
<text x="57400" y="33250"
textLength="3440" font-size="660" lengthAdjust="spacingAndGlyphs"
text-anchor="end" opacity="0">LED_PWM</text>
<path d="M54340 33220
L54100 33220
L54100 32720
" />
<path d="M54510 32960
L54670 32960
" />
<path d="M54750 33220
L54510 33220
L54510 32720
L54750 32720
" />
<path d="M54960 33220
L54960 32720
L55080 32720
L55150 32750
L55200 32790
L55220 32840
L55250 32940
L55250 33010
L55220 33100
L55200 33150
L55150 33200
L55080 33220
L54960 33220
" />
<path d="M55340 33270
L55720 33270
" />
<path d="M55840 33220
L55840 32720
L56030 32720
L56080 32750
L56100 32770
L56130 32820
L56130 32890
L56100 32940
L56080 32960
L56030 32980
L55840 32980
" />
<path d="M56290 32720
L56410 33220
L56510 32860
L56600 33220
L56720 32720
" />
<path d="M56910 33220
L56910 32720
L57080 33080
L57250 32720
L57250 33220
" />
</g>
<g style="fill:#848400; fill-opacity:0.0; 
stroke:#848400; stroke-width:100; stroke-opacity:1; 
stroke-linecap:round; stroke-linejoin:round;">
<path style="fill:#848400; fill-opacity:0.0; 
stroke:#848400; stroke-width:100; stroke-opacity:1; 
stroke-linecap:round; stroke-linejoin:round;fill:none"
d="M 57500,33000
57750,33250
58000,33250
58000,32750
57750,32750
Z" /> 
</g>
<g style="fill:#848400; fill-opacity:0.0; 
stroke:#848400; stroke-width:60; stroke-opacity:1; 
stroke-linecap:round; stroke-linejoin:round;">
<text x="57400" y="27000"
textLength="960" font-size="660" lengthAdjust="spacingAndGlyphs"
text-anchor="end" opacity="0">5V</text>
<path d="M56820 26470
L56580 26470
L56560 26710
L56580 26690
L56630 26660
L56750 26660
L56790 26690
L56820 26710
L56840 26760
L56840 26880
L56820 26920
L56790 26950
L56750 26970
L56630 26970
L56580 26950
L56560 26920
" />
<path d="M56980 26470
L57150 26970
L57320 26470
" />
</g>
<g style="fill:#848400; fill-opacity:0.0; 
stroke:#848400; stroke-width:100; stroke-opacity:1; 
stroke-linecap:round; stroke-linejoin:round;">
<path style="fill:#848400; fill-opacity:0.0; 
stroke:#848400; stroke-width:100; stroke-opacity:1; 
stroke-linecap:round; stroke-linejoin:round;fill:none"
d="M 57500,26750
57750,27000
58000,27000
58000,26500
57750,26500
Z" /> 
</g>
<g style="fill:#848400; fill-opacity:0.0; 
stroke:#848400; stroke-width:60; stroke-opacity:1; 
stroke-linecap:round; stroke-linejoin:round;">
<text x="57400" y="36250"
textLength="1440" font-size="660" lengthAdjust="spacingAndGlyphs"
text-anchor="end" opacity="0">3V3</text>
<path d="M56060 35720
L56370 35720
L56200 35910
L56270 35910
L56320 35940
L56340 35960
L56370 36010
L56370 36130
L56340 36170
L56320 36200
L56270 36220
L56130 36220
L56080 36200
L56060 36170
" />
<path d="M56510 35720
L56670 36220
L56840 35720
" />
<path d="M56960 35720
L57270 35720
L57100 35910
L57170 35910
L57220 35940
L57250 35960
L57270 36010
L57270 36130
L57250 36170
L57220 36200
L57170 36220
L57030 36220
L56980 36200
L56960 36170
" />
</g>
<g style="fill:#848400; fill-opacity:0.0; 
stroke:#848400; stroke-width:100; stroke-opacity:1; 
stroke-linecap:round; stroke-linejoin:round;">
<path style="fill:#848400; fill-opacity:0.0; 
stroke:#848400; stroke-width:100; stroke-opacity:1; 
stroke-linecap:round; stroke-linejoin:round;fill:none"
d="M 57500,36000
57750,36250
58000,36250
58000,35750
57750,35750
Z" /> 
</g>
<g style="fill:#848400; fill-opacity:0.0; 
stroke:#848400; stroke-width:0; stroke-opacity:1; 
stroke-linecap:round; stroke-linejoin:round;">
<g >
</g>
<g style="fill:#840000; fill-opacity:0.0; 
stroke:#840000; stroke-width:0; stroke-opacity:1; 
stroke-linecap:round; stroke-linejoin:round;">
</g>
<g style="fill:#FFFFC2; fill-opacity:0.0; 
stroke:#FFFFC2; stroke-width:0; stroke-opacity:1; 
stroke-linecap:round; stroke-linejoin:round;">
</g>
<g style="fill:#FFFFC2; fill-opacity:0.6; 
stroke:#FFFFC2; stroke-width:0; stroke-opacity:1; 
stroke-linecap:round; stroke-linejoin:round;">
<rect x="86750" y="29250" width="2000" height="6000" rx="0" />
</g>
<g style="fill:#840000; fill-opacity:0.6; 
stroke:#840000; stroke-width:0; stroke-opacity:1; 
stroke-linecap:round; stroke-linejoin:round;">
</g>
<g style="fill:#840000; fill-opacity:0.0; 
stroke:#840000; stroke-width:100; stroke-opacity:1; 
stroke-linecap:round; stroke-linejoin:round;">
<rect x="86750" y="29250" width="2000" height="6000" rx="0" />
</g>
<g style="fill:#840000; fill-opacity:0.0; 
stroke:#840000; stroke-width:60; stroke-opacity:1; 
stroke-linecap:round; stroke-linejoin:round;">
<rect x="86750" y="33700" width="500" height="100" rx="0" />
<rect x="86750" y="34700" width="500" height="100" rx="0" />
<rect x="86750" y="32700" width="500" height="100" rx="0" />
<rect x="86750" y="30700" width="500" height="100" rx="0" />
<rect x="86750" y="29700" width="500" height="100" rx="0" />
</g>
<g style="fill:#840000; fill-opacity:0.0; 
stroke:#840000; stroke-width:100; stroke-opacity:1; 
stroke-linecap:round; stroke-linejoin:round;">
<rect x="86750" y="29250" width="2000" height="6000" rx="0" />
</g>
<g style="fill:#840000; fill-opacity:0.0; 
stroke:#840000; stroke-width:60; stroke-opacity:1; 
stroke-linecap:round; stroke-linejoin:round;">
<rect x="86750" y="31700" width="500" height="100" rx="0" />
<rect x="88250" y="33700" width="500" height="100" rx="0" />
<rect x="88250" y="34700" width="500" height="100" rx="0" />
<rect x="88250" y="32700" width="500" height="100" rx="0" />
<rect x="88250" y="30700" width="500" height="100" rx="0" />
<rect x="88250" y="29700" width="500" height="100" rx="0" />
<rect x="88250" y="31700" width="500" height="100" rx="0" />
<path d="M86750 29750
L85250 29750
" />
<text x="86000" y="29650"
textLength="540" font-size="660" lengthAdjust="spacingAndGlyphs"
text-anchor="middle" opacity="0">1</text>
<path d="M86140 29620
L85850 29620
" />
<path d="M86000 29620
L86000 29120
L85950 29190
L85900 29240
L85850 29260
" />
<path d="M88750 33750
L90250 33750
" />
<text x="89500" y="33650"
textLength="1010" font-size="660" lengthAdjust="spacingAndGlyphs"
text-anchor="middle" opacity="0">10</text>
<path d="M89400 33620
L89110 33620
" />
<path d="M89260 33620
L89260 33120
L89210 33190
L89160 33240
L89110 33260
" />
<path d="M89710 33120
L89760 33120
L89800 33150
L89830 33170
L89850 33220
L89880 33310
L89880 33430
L89850 33530
L89830 33570
L89800 33600
L89760 33620
L89710 33620
L89660 33600
L89640 33570
L89610 33530
L89590 33430
L89590 33310
L89610 33220
L89640 33170
L89660 33150
L89710 33120
" />
<path d="M86750 34750
L85250 34750
" />
<text x="86000" y="34650"
textLength="1010" font-size="660" lengthAdjust="spacingAndGlyphs"
text-anchor="middle" opacity="0">11</text>
<path d="M85900 34620
L85610 34620
" />
<path d="M85760 34620
L85760 34120
L85710 34190
L85660 34240
L85610 34260
" />
<path d="M86380 34620
L86090 34620
" />
<path d="M86230 34620
L86230 34120
L86190 34190
L86140 34240
L86090 34260
" />
<path d="M88750 34750
L90250 34750
" />
<text x="89500" y="34650"
textLength="1010" font-size="660" lengthAdjust="spacingAndGlyphs"
text-anchor="middle" opacity="0">12</text>
<path d="M89400 34620
L89110 34620
" />
<path d="M89260 34620
L89260 34120
L89210 34190
L89160 34240
L89110 34260
" />
<path d="M89590 34170
L89610 34150
L89660 34120
L89780 34120
L89830 34150
L89850 34170
L89880 34220
L89880 34260
L89850 34340
L89570 34620
L89880 34620
" />
<path d="M88750 29750
L90250 29750
" />
<text x="89500" y="29650"
textLength="540" font-size="660" lengthAdjust="spacingAndGlyphs"
text-anchor="middle" opacity="0">2</text>
<path d="M89350 29170
L89380 29150
L89420 29120
L89540 29120
L89590 29150
L89610 29170
L89640 29220
L89640 29260
L89610 29340
L89330 29620
L89640 29620
" />
<path d="M86750 30750
L85250 30750
" />
<text x="86000" y="30650"
textLength="540" font-size="660" lengthAdjust="spacingAndGlyphs"
text-anchor="middle" opacity="0">3</text>
<path d="M85830 30120
L86140 30120
L85970 30310
L86040 30310
L86090 30340
L86110 30360
L86140 30410
L86140 30530
L86110 30570
L86090 30600
L86040 30620
L85900 30620
L85850 30600
L85830 30570
" />
<path d="M88750 30750
L90250 30750
" />
<text x="89500" y="30650"
textLength="540" font-size="660" lengthAdjust="spacingAndGlyphs"
text-anchor="middle" opacity="0">4</text>
<path d="M89590 30290
L89590 30620
" />
<path d="M89470 30100
L89350 30450
L89660 30450
" />
<path d="M86750 31750
L85250 31750
" />
<text x="86000" y="31650"
textLength="540" font-size="660" lengthAdjust="spacingAndGlyphs"
text-anchor="middle" opacity="0">5</text>
<path d="M86110 31120
L85880 31120
L85850 31360
L85880 31340
L85920 31310
L86040 31310
L86090 31340
L86110 31360
L86140 31410
L86140 31530
L86110 31570
L86090 31600
L86040 31620
L85920 31620
L85880 31600
L85850 31570
" />
<path d="M88750 31750
L90250 31750
" />
<text x="89500" y="31650"
textLength="540" font-size="660" lengthAdjust="spacingAndGlyphs"
text-anchor="middle" opacity="0">6</text>
<path d="M89590 31120
L89500 31120
L89450 31150
L89420 31170
L89380 31240
L89350 31340
L89350 31530
L89380 31570
L89400 31600
L89450 31620
L89540 31620
L89590 31600
L89610 31570
L89640 31530
L89640 31410
L89610 31360
L89590 31340
L89540 31310
L89450 31310
L89400 31340
L89380 31360
L89350 31410
" />
<path d="M86750 32750
L85250 32750
" />
<text x="86000" y="32650"
textLength="540" font-size="660" lengthAdjust="spacingAndGlyphs"
text-anchor="middle" opacity="0">7</text>
<path d="M85830 32120
L86160 32120
L85950 32620
" />
<path d="M88750 32750
L90250 32750
" />
<text x="89500" y="32650"
textLength="540" font-size="660" lengthAdjust="spacingAndGlyphs"
text-anchor="middle" opacity="0">8</text>
<path d="M89450 32340
L89400 32310
L89380 32290
L89350 32240
L89350 32220
L89380 32170
L89400 32150
L89450 32120
L89540 32120
L89590 32150
L89610 32170
L89640 32220
L89640 32240
L89610 32290
L89590 32310
L89540 32340
L89450 32340
L89400 32360
L89380 32380
L89350 32430
L89350 32530
L89380 32570
L89400 32600
L89450 32620
L89540 32620
L89590 32600
L89610 32570
L89640 32530
L89640 32430
L89610 32380
L89590 32360
L89540 32340
" />
<path d="M86750 33750
L85250 33750
" />
<text x="86000" y="33650"
textLength="540" font-size="660" lengthAdjust="spacingAndGlyphs"
text-anchor="middle" opacity="0">9</text>
<path d="M85900 33620
L86000 33620
L86040 33600
L86070 33570
L86110 33500
L86140 33410
L86140 33220
L86110 33170
L86090 33150
L86040 33120
L85950 33120
L85900 33150
L85880 33170
L85850 33220
L85850 33340
L85880 33380
L85900 33410
L85950 33430
L86040 33430
L86090 33410
L86110 33380
L86140 33340
" />
</g>
<g style="fill:#008484; fill-opacity:0.0; 
stroke:#008484; stroke-width:60; stroke-opacity:1; 
stroke-linecap:round; stroke-linejoin:round;">
<text x="87750" y="27850"
textLength="920" font-size="660" lengthAdjust="spacingAndGlyphs"
text-anchor="middle" opacity="0">J3</text>
<path d="M87580 27320
L87580 27680
L87550 27750
L87510 27800
L87440 27820
L87390 27820
" />
<path d="M87770 27320
L88080 27320
L87910 27510
L87980 27510
L88030 27540
L88050 27560
L88080 27610
L88080 27730
L88050 27770
L88030 27800
L87980 27820
L87840 27820
L87790 27800
L87770 27770
" />
<text x="87750" y="28760"
textLength="8510" font-size="660" lengthAdjust="spacingAndGlyphs"
text-anchor="middle" opacity="0">Conn_02x06_Odd_Even</text>
<path d="M83920 28680
L83900 28710
L83830 28730
L83780 28730
L83710 28710
L83660 28660
L83640 28610
L83610 28520
L83610 28450
L83640 28350
L83660 28300
L83710 28260
L83780 28230
L83830 28230
L83900 28260
L83920 28280
" />
<path d="M84210 28730
L84160 28710
L84140 28680
L84110 28640
L84110 28490
L84140 28450
L84160 28420
L84210 28400
L84280 28400
L84330 28420
L84350 28450
L84380 28490
L84380 28640
L84350 28680
L84330 28710
L84280 28730
L84210 28730
" />
<path d="M84590 28400
L84590 28730
" />
<path d="M84590 28450
L84610 28420
L84660 28400
L84730 28400
L84780 28420
L84800 28470
L84800 28730
" />
<path d="M85040 28400
L85040 28730
" />
<path d="M85040 28450
L85070 28420
L85110 28400
L85190 28400
L85230 28420
L85260 28470
L85260 28730
" />
<path d="M85380 28780
L85760 28780
" />
<path d="M85970 28230
L86020 28230
L86070 28260
L86090 28280
L86110 28330
L86140 28420
L86140 28540
L86110 28640
L86090 28680
L86070 28710
L86020 28730
L85970 28730
L85920 28710
L85900 28680
L85880 28640
L85850 28540
L85850 28420
L85880 28330
L85900 28280
L85920 28260
L85970 28230
" />
<path d="M86330 28280
L86350 28260
L86400 28230
L86520 28230
L86570 28260
L86590 28280
L86610 28330
L86610 28370
L86590 28450
L86300 28730
L86610 28730
" />
<path d="M86780 28730
L87040 28400
" />
<path d="M86780 28400
L87040 28730
" />
<path d="M87330 28230
L87380 28230
L87420 28260
L87450 28280
L87470 28330
L87500 28420
L87500 28540
L87470 28640
L87450 28680
L87420 28710
L87380 28730
L87330 28730
L87280 28710
L87260 28680
L87230 28640
L87210 28540
L87210 28420
L87230 28330
L87260 28280
L87280 28260
L87330 28230
" />
<path d="M87920 28230
L87830 28230
L87780 28260
L87760 28280
L87710 28350
L87690 28450
L87690 28640
L87710 28680
L87730 28710
L87780 28730
L87880 28730
L87920 28710
L87950 28680
L87970 28640
L87970 28520
L87950 28470
L87920 28450
L87880 28420
L87780 28420
L87730 28450
L87710 28470
L87690 28520
" />
<path d="M88070 28780
L88450 28780
" />
<path d="M88660 28230
L88760 28230
L88800 28260
L88850 28300
L88880 28400
L88880 28560
L88850 28660
L88800 28710
L88760 28730
L88660 28730
L88610 28710
L88570 28660
L88540 28560
L88540 28400
L88570 28300
L88610 28260
L88660 28230
" />
<path d="M89300 28730
L89300 28230
" />
<path d="M89300 28710
L89260 28730
L89160 28730
L89110 28710
L89090 28680
L89070 28640
L89070 28490
L89090 28450
L89110 28420
L89160 28400
L89260 28400
L89300 28420
" />
<path d="M89760 28730
L89760 28230
" />
<path d="M89760 28710
L89710 28730
L89610 28730
L89570 28710
L89540 28680
L89520 28640
L89520 28490
L89540 28450
L89570 28420
L89610 28400
L89710 28400
L89760 28420
" />
<path d="M89880 28780
L90260 28780
" />
<path d="M90380 28470
L90540 28470
" />
<path d="M90610 28730
L90380 28730
L90380 28230
L90610 28230
" />
<path d="M90780 28400
L90900 28730
L91020 28400
" />
<path d="M91400 28710
L91350 28730
L91260 28730
L91210 28710
L91190 28660
L91190 28470
L91210 28420
L91260 28400
L91350 28400
L91400 28420
L91420 28470
L91420 28520
L91190 28560
" />
<path d="M91640 28400
L91640 28730
" />
<path d="M91640 28450
L91660 28420
L91710 28400
L91780 28400
L91830 28420
L91850 28470
L91850 28730
" />
</g>
</g>
<g style="fill:#008484; fill-opacity:0.0; 
stroke:#008484; stroke-width:0; stroke-opacity:1; 
stroke-linecap:round; stroke-linejoin:round;">
<g >
</g>
<g style="fill:#840000; fill-opacity:0.0; 
stroke:#840000; stroke-width:0; stroke-opacity:1; 
stroke-linecap:round; stroke-linejoin:round;">
</g>
<g style="fill:#840000; fill-opacity:0.0; 
stroke:#840000; stroke-width:60; stroke-opacity:1; 
stroke-linecap:round; stroke-linejoin:round;">
<path style="fill:#840000; fill-opacity:0.0; 
stroke:#840000; stroke-width:60; stroke-opacity:1; 
stroke-linecap:round; stroke-linejoin:round;fill:none"
d="M 75700,50750
76000,50250
" /> 
<path style="fill:#840000; fill-opacity:0.0; 
stroke:#840000; stroke-width:60; stroke-opacity:1; 
stroke-linecap:round; stroke-linejoin:round;fill:none"
d="M 76000,51250
76000,50250
" /> 
<path style="fill:#840000; fill-opacity:0.0; 
stroke:#840000; stroke-width:60; stroke-opacity:1; 
stroke-linecap:round; stroke-linejoin:round;fill:none"
d="M 76000,50250
76300,50750
" /> 
</g>
<g style="fill:#008484; fill-opacity:0.0; 
stroke:#008484; stroke-width:60; stroke-opacity:1; 
stroke-linecap:round; stroke-linejoin:round;">
<text x="76150" y="49790"
textLength="1580" font-size="660" lengthAdjust="spacingAndGlyphs"
text-anchor="middle" opacity="0">+5V</text>
<path d="M75500 49570
L75880 49570
" />
<path d="M75690 49760
L75690 49380
" />
<path d="M76360 49260
L76120 49260
L76100 49500
L76120 49480
L76170 49450
L76290 49450
L76340 49480
L76360 49500
L76380 49550
L76380 49670
L76360 49710
L76340 49740
L76290 49760
L76170 49760
L76120 49740
L76100 49710
" />
<path d="M76530 49260
L76690 49760
L76860 49260
" />
</g>
</g>
<g style="fill:#008484; fill-opacity:0.0; 
stroke:#008484; stroke-width:0; stroke-opacity:1; 
stroke-linecap:round; stroke-linejoin:round;">
<g >
</g>
<g style="fill:#840000; fill-opacity:0.0; 
stroke:#840000; stroke-width:0; stroke-opacity:1; 
stroke-linecap:round; stroke-linejoin:round;">
</g>
<g style="fill:#840000; fill-opacity:0.0; 
stroke:#840000; stroke-width:60; stroke-opacity:1; 
stroke-linecap:round; stroke-linejoin:round;">
<path style="fill:#840000; fill-opacity:0.0; 
stroke:#840000; stroke-width:60; stroke-opacity:1; 
stroke-linecap:round; stroke-linejoin:round;fill:none"
d="M 71000,56250
71000,56750
71500,56750
71000,57250
70500,56750
71000,56750
" /> 
</g>
<g style="fill:#008484; fill-opacity:0.0; 
stroke:#008484; stroke-width:60; stroke-opacity:1; 
stroke-linecap:round; stroke-linejoin:round;">
<text x="71050" y="58250"
textLength="2060" font-size="660" lengthAdjust="spacingAndGlyphs"
text-anchor="middle" opacity="0">GNDS</text>
<path d="M70430 57750
L70380 57720
L70310 57720
L70240 57750
L70190 57790
L70160 57840
L70140 57940
L70140 58010
L70160 58100
L70190 58150
L70240 58200
L70310 58220
L70350 58220
L70430 58200
L70450 58170
L70450 58010
L70350 58010
" />
<path d="M70660 58220
L70660 57720
L70950 58220
L70950 57720
" />
<path d="M71190 58220
L71190 57720
L71310 57720
L71380 57750
L71430 57790
L71450 57840
L71470 57940
L71470 58010
L71450 58100
L71430 58150
L71380 58200
L71310 58220
L71190 58220
" />
<path d="M71660 58200
L71740 58220
L71850 58220
L71900 58200
L71930 58170
L71950 58130
L71950 58080
L71930 58030
L71900 58010
L71850 57980
L71760 57960
L71710 57940
L71690 57910
L71660 57860
L71660 57820
L71690 57770
L71710 57750
L71760 57720
L71880 57720
L71950 57750
" />
</g>
</g>
<g style="fill:#008484; fill-opacity:0.0; 
stroke:#008484; stroke-width:0; stroke-opacity:1; 
stroke-linecap:round; stroke-linejoin:round;">
<g >
</g>
<g style="fill:#840000; fill-opacity:0.0; 
stroke:#840000; stroke-width:0; stroke-opacity:1; 
stroke-linecap:round; stroke-linejoin:round;">
</g>
<g style="fill:#840000; fill-opacity:0.0; 
stroke:#840000; stroke-width:60; stroke-opacity:1; 
stroke-linecap:round; stroke-linejoin:round;">
<path style="fill:#840000; fill-opacity:0.0; 
stroke:#840000; stroke-width:60; stroke-opacity:1; 
stroke-linecap:round; stroke-linejoin:round;fill:none"
d="M 77450,22750
77750,22250
" /> 
<path style="fill:#840000; fill-opacity:0.0; 
stroke:#840000; stroke-width:60; stroke-opacity:1; 
stroke-linecap:round; stroke-linejoin:round;fill:none"
d="M 77750,23250
77750,22250
" /> 
<path style="fill:#840000; fill-opacity:0.0; 
stroke:#840000; stroke-width:60; stroke-opacity:1; 
stroke-linecap:round; stroke-linejoin:round;fill:none"
d="M 77750,22250
78050,22750
" /> 
</g>
<g style="fill:#008484; fill-opacity:0.0; 
stroke:#008484; stroke-width:60; stroke-opacity:1; 
stroke-linecap:round; stroke-linejoin:round;">
<text x="77900" y="21790"
textLength="1580" font-size="660" lengthAdjust="spacingAndGlyphs"
text-anchor="middle" opacity="0">+5V</text>
<path d="M77250 21570
L77630 21570
" />
<path d="M77440 21760
L77440 21380
" />
<path d="M78110 21260
L77870 21260
L77850 21500
L77870 21480
L77920 21450
L78040 21450
L78090 21480
L78110 21500
L78130 21550
L78130 21670
L78110 21710
L78090 21740
L78040 21760
L77920 21760
L77870 21740
L77850 21710
" />
<path d="M78280 21260
L78440 21760
L78610 21260
" />
</g>
</g>
<g style="fill:#008484; fill-opacity:0.0; 
stroke:#008484; stroke-width:0; stroke-opacity:1; 
stroke-linecap:round; stroke-linejoin:round;">
<g >
</g>
<g style="fill:#840000; fill-opacity:0.0; 
stroke:#840000; stroke-width:0; stroke-opacity:1; 
stroke-linecap:round; stroke-linejoin:round;">
</g>
<g style="fill:#840000; fill-opacity:0.0; 
stroke:#840000; stroke-width:60; stroke-opacity:1; 
stroke-linecap:round; stroke-linejoin:round;">
<path style="fill:#840000; fill-opacity:0.0; 
stroke:#840000; stroke-width:60; stroke-opacity:1; 
stroke-linecap:round; stroke-linejoin:round;fill:none"
d="M 76000,56250
76000,56750
76400,57000
76000,57250
75600,57000
76000,56750
" /> 
<path d="M76000 56250
L76000 56250
" />
</g>
<g style="fill:#008484; fill-opacity:0.0; 
stroke:#008484; stroke-width:60; stroke-opacity:1; 
stroke-linecap:round; stroke-linejoin:round;">
<text x="75990" y="58200"
textLength="3770" font-size="660" lengthAdjust="spacingAndGlyphs"
text-anchor="middle" opacity="0">PWR_FLAG</text>
<path d="M74250 58170
L74250 57670
L74440 57670
L74490 57700
L74510 57720
L74530 57770
L74530 57840
L74510 57890
L74490 57910
L74440 57930
L74250 57930
" />
<path d="M74700 57670
L74820 58170
L74910 57810
L75010 58170
L75130 57670
" />
<path d="M75600 58170
L75440 57930
" />
<path d="M75320 58170
L75320 57670
L75510 57670
L75560 57700
L75580 57720
L75600 57770
L75600 57840
L75580 57890
L75560 57910
L75510 57930
L75320 57930
" />
<path d="M75700 58220
L76080 58220
" />
<path d="M76370 57910
L76200 57910
" />
<path d="M76200 58170
L76200 57670
L76440 57670
" />
<path d="M76870 58170
L76630 58170
L76630 57670
" />
<path d="M77010 58030
L77250 58030
" />
<path d="M76960 58170
L77130 57670
L77290 58170
" />
<path d="M77720 57700
L77680 57670
L77600 57670
L77530 57700
L77490 57740
L77460 57790
L77440 57890
L77440 57960
L77460 58050
L77490 58100
L77530 58150
L77600 58170
L77650 58170
L77720 58150
L77750 58120
L77750 57960
L77650 57960
" />
</g>
</g>
<g style="fill:#008484; fill-opacity:0.0; 
stroke:#008484; stroke-width:0; stroke-opacity:1; 
stroke-linecap:round; stroke-linejoin:round;">
<g >
</g>
<g style="fill:#840000; fill-opacity:0.0; 
stroke:#840000; stroke-width:0; stroke-opacity:1; 
stroke-linecap:round; stroke-linejoin:round;">
</g>
<g style="fill:#840000; fill-opacity:0.0; 
stroke:#840000; stroke-width:60; stroke-opacity:1; 
stroke-linecap:round; stroke-linejoin:round;">
<path style="fill:#840000; fill-opacity:0.0; 
stroke:#840000; stroke-width:60; stroke-opacity:1; 
stroke-linecap:round; stroke-linejoin:round;fill:none"
d="M 71000,51250
71000,50750
70600,50500
71000,50250
71400,50500
71000,50750
" /> 
<path d="M71000 51250
L71000 51250
" />
</g>
<g style="fill:#008484; fill-opacity:0.0; 
stroke:#008484; stroke-width:60; stroke-opacity:1; 
stroke-linecap:round; stroke-linejoin:round;">
<text x="71000" y="49790"
textLength="3770" font-size="660" lengthAdjust="spacingAndGlyphs"
text-anchor="middle" opacity="0">PWR_FLAG</text>
<path d="M69260 49760
L69260 49260
L69450 49260
L69500 49290
L69520 49310
L69540 49360
L69540 49430
L69520 49480
L69500 49500
L69450 49520
L69260 49520
" />
<path d="M69710 49260
L69830 49760
L69920 49400
L70020 49760
L70140 49260
" />
<path d="M70610 49760
L70450 49520
" />
<path d="M70330 49760
L70330 49260
L70520 49260
L70570 49290
L70590 49310
L70610 49360
L70610 49430
L70590 49480
L70570 49500
L70520 49520
L70330 49520
" />
<path d="M70710 49810
L71090 49810
" />
<path d="M71380 49500
L71210 49500
" />
<path d="M71210 49760
L71210 49260
L71450 49260
" />
<path d="M71880 49760
L71640 49760
L71640 49260
" />
<path d="M72020 49620
L72260 49620
" />
<path d="M71970 49760
L72140 49260
L72300 49760
" />
<path d="M72730 49290
L72690 49260
L72610 49260
L72540 49290
L72500 49330
L72470 49380
L72450 49480
L72450 49550
L72470 49640
L72500 49690
L72540 49740
L72610 49760
L72660 49760
L72730 49740
L72760 49710
L72760 49550
L72660 49550
" />
</g>
</g>
<g style="fill:#008484; fill-opacity:0.0; 
stroke:#008484; stroke-width:0; stroke-opacity:1; 
stroke-linecap:round; stroke-linejoin:round;">
<g >
</g>
<g style="fill:#840000; fill-opacity:0.0; 
stroke:#840000; stroke-width:0; stroke-opacity:1; 
stroke-linecap:round; stroke-linejoin:round;">
</g>
<g style="fill:#840000; fill-opacity:0.0; 
stroke:#840000; stroke-width:60; stroke-opacity:1; 
stroke-linecap:round; stroke-linejoin:round;">
<path style="fill:#840000; fill-opacity:0.0; 
stroke:#840000; stroke-width:60; stroke-opacity:1; 
stroke-linecap:round; stroke-linejoin:round;fill:none"
d="M 97750,39000
97750,39500
98250,39500
97750,40000
97250,39500
97750,39500
" /> 
</g>
<g style="fill:#008484; fill-opacity:0.0; 
stroke:#008484; stroke-width:60; stroke-opacity:1; 
stroke-linecap:round; stroke-linejoin:round;">
<text x="97800" y="41000"
textLength="2060" font-size="660" lengthAdjust="spacingAndGlyphs"
text-anchor="middle" opacity="0">GNDS</text>
<path d="M97180 40500
L97130 40470
L97060 40470
L96990 40500
L96940 40540
L96910 40590
L96890 40690
L96890 40760
L96910 40850
L96940 40900
L96990 40950
L97060 40970
L97100 40970
L97180 40950
L97200 40920
L97200 40760
L97100 40760
" />
<path d="M97410 40970
L97410 40470
L97700 40970
L97700 40470
" />
<path d="M97940 40970
L97940 40470
L98060 40470
L98130 40500
L98180 40540
L98200 40590
L98220 40690
L98220 40760
L98200 40850
L98180 40900
L98130 40950
L98060 40970
L97940 40970
" />
<path d="M98410 40950
L98490 40970
L98600 40970
L98650 40950
L98680 40920
L98700 40880
L98700 40830
L98680 40780
L98650 40760
L98600 40730
L98510 40710
L98460 40690
L98440 40660
L98410 40610
L98410 40570
L98440 40520
L98460 40500
L98510 40470
L98630 40470
L98700 40500
" />
</g>
</g>
<g style="fill:#008484; fill-opacity:0.0; 
stroke:#008484; stroke-width:0; stroke-opacity:1; 
stroke-linecap:round; stroke-linejoin:round;">
<g >
</g>
<g style="fill:#840000; fill-opacity:0.0; 
stroke:#840000; stroke-width:0; stroke-opacity:1; 
stroke-linecap:round; stroke-linejoin:round;">
</g>
<g style="fill:#840000; fill-opacity:0.0; 
stroke:#840000; stroke-width:60; stroke-opacity:1; 
stroke-linecap:round; stroke-linejoin:round;">
<path style="fill:#840000; fill-opacity:0.0; 
stroke:#840000; stroke-width:60; stroke-opacity:1; 
stroke-linecap:round; stroke-linejoin:round;fill:none"
d="M 63200,23000
63500,22500
" /> 
<path style="fill:#840000; fill-opacity:0.0; 
stroke:#840000; stroke-width:60; stroke-opacity:1; 
stroke-linecap:round; stroke-linejoin:round;fill:none"
d="M 63500,23500
63500,22500
" /> 
<path style="fill:#840000; fill-opacity:0.0; 
stroke:#840000; stroke-width:60; stroke-opacity:1; 
stroke-linecap:round; stroke-linejoin:round;fill:none"
d="M 63500,22500
63800,23000
" /> 
</g>
<g style="fill:#008484; fill-opacity:0.0; 
stroke:#008484; stroke-width:60; stroke-opacity:1; 
stroke-linecap:round; stroke-linejoin:round;">
<text x="63650" y="22040"
textLength="1580" font-size="660" lengthAdjust="spacingAndGlyphs"
text-anchor="middle" opacity="0">+5V</text>
<path d="M63000 21820
L63380 21820
" />
<path d="M63190 22010
L63190 21630
" />
<path d="M63860 21510
L63620 21510
L63600 21750
L63620 21730
L63670 21700
L63790 21700
L63840 21730
L63860 21750
L63880 21800
L63880 21920
L63860 21960
L63840 21990
L63790 22010
L63670 22010
L63620 21990
L63600 21960
" />
<path d="M64030 21510
L64190 22010
L64360 21510
" />
</g>
</g>
<g style="fill:#008484; fill-opacity:0.0; 
stroke:#008484; stroke-width:0; stroke-opacity:1; 
stroke-linecap:round; stroke-linejoin:round;">
<g >
</g>
<g style="fill:#840000; fill-opacity:0.0; 
stroke:#840000; stroke-width:0; stroke-opacity:1; 
stroke-linecap:round; stroke-linejoin:round;">
</g>
<g style="fill:#840000; fill-opacity:0.0; 
stroke:#840000; stroke-width:60; stroke-opacity:1; 
stroke-linecap:round; stroke-linejoin:round;">
<path style="fill:#840000; fill-opacity:0.0; 
stroke:#840000; stroke-width:60; stroke-opacity:1; 
stroke-linecap:round; stroke-linejoin:round;fill:none"
d="M 97450,22750
97750,22250
" /> 
<path style="fill:#840000; fill-opacity:0.0; 
stroke:#840000; stroke-width:60; stroke-opacity:1; 
stroke-linecap:round; stroke-linejoin:round;fill:none"
d="M 97750,23250
97750,22250
" /> 
<path style="fill:#840000; fill-opacity:0.0; 
stroke:#840000; stroke-width:60; stroke-opacity:1; 
stroke-linecap:round; stroke-linejoin:round;fill:none"
d="M 97750,22250
98050,22750
" /> 
</g>
<g style="fill:#008484; fill-opacity:0.0; 
stroke:#008484; stroke-width:60; stroke-opacity:1; 
stroke-linecap:round; stroke-linejoin:round;">
<text x="97900" y="21790"
textLength="1580" font-size="660" lengthAdjust="spacingAndGlyphs"
text-anchor="middle" opacity="0">+5V</text>
<path d="M97250 21570
L97630 21570
" />
<path d="M97440 21760
L97440 21380
" />
<path d="M98110 21260
L97870 21260
L97850 21500
L97870 21480
L97920 21450
L98040 21450
L98090 21480
L98110 21500
L98130 21550
L98130 21670
L98110 21710
L98090 21740
L98040 21760
L97920 21760
L97870 21740
L97850 21710
" />
<path d="M98280 21260
L98440 21760
L98610 21260
" />
</g>
</g>
<g style="fill:#008484; fill-opacity:0.0; 
stroke:#008484; stroke-width:0; stroke-opacity:1; 
stroke-linecap:round; stroke-linejoin:round;">
<g >
</g>
<g style="fill:#840000; fill-opacity:0.0; 
stroke:#840000; stroke-width:0; stroke-opacity:1; 
stroke-linecap:round; stroke-linejoin:round;">
</g>
<g style="fill:#840000; fill-opacity:0.0; 
stroke:#840000; stroke-width:60; stroke-opacity:1; 
stroke-linecap:round; stroke-linejoin:round;">
<path style="fill:#840000; fill-opacity:0.0; 
stroke:#840000; stroke-width:60; stroke-opacity:1; 
stroke-linecap:round; stroke-linejoin:round;fill:none"
d="M 77750,39000
77750,39500
78250,39500
77750,40000
77250,39500
77750,39500
" /> 
</g>
<g style="fill:#008484; fill-opacity:0.0; 
stroke:#008484; stroke-width:60; stroke-opacity:1; 
stroke-linecap:round; stroke-linejoin:round;">
<text x="77800" y="41000"
textLength="2060" font-size="660" lengthAdjust="spacingAndGlyphs"
text-anchor="middle" opacity="0">GNDS</text>
<path d="M77180 40500
L77130 40470
L77060 40470
L76990 40500
L76940 40540
L76910 40590
L76890 40690
L76890 40760
L76910 40850
L76940 40900
L76990 40950
L77060 40970
L77100 40970
L77180 40950
L77200 40920
L77200 40760
L77100 40760
" />
<path d="M77410 40970
L77410 40470
L77700 40970
L77700 40470
" />
<path d="M77940 40970
L77940 40470
L78060 40470
L78130 40500
L78180 40540
L78200 40590
L78220 40690
L78220 40760
L78200 40850
L78180 40900
L78130 40950
L78060 40970
L77940 40970
" />
<path d="M78410 40950
L78490 40970
L78600 40970
L78650 40950
L78680 40920
L78700 40880
L78700 40830
L78680 40780
L78650 40760
L78600 40730
L78510 40710
L78460 40690
L78440 40660
L78410 40610
L78410 40570
L78440 40520
L78460 40500
L78510 40470
L78630 40470
L78700 40500
" />
</g>
</g>
<g style="fill:#008484; fill-opacity:0.0; 
stroke:#008484; stroke-width:60; stroke-opacity:1; 
stroke-linecap:round; stroke-linejoin:round;">
</g>
<g style="fill:#008400; fill-opacity:0.0; 
stroke:#008400; stroke-width:60; stroke-opacity:1; 
stroke-linecap:round; stroke-linejoin:round;">
<path d="M77750 30750
L77750 29750
" />
<path d="M85250 29750
L77750 29750
" />
<path d="M77750 23250
L77750 29750
" />
<path d="M97750 23250
L97750 29750
" />
<path d="M97750 29750
L97750 30750
" />
<path d="M77750 32750
L77750 33750
" />
<path d="M77750 33750
L77750 39000
" />
<path d="M97750 31750
L97750 32750
" />
<path d="M97750 32750
L97750 33750
" />
<path d="M97750 33750
L97750 39000
" />
<path d="M76000 51250
L76000 56250
" />
<path d="M71000 56250
L71000 51250
" />
<path d="M63500 29000
L58000 29000
" />
<path d="M97750 29750
L90250 29750
" />
<path d="M97750 30750
L90250 30750
" />
<path d="M85250 34750
L79750 34750
" />
<path d="M97750 31750
L90250 31750
" />
<path d="M97750 32750
L90250 32750
" />
<path d="M97750 33750
L90250 33750
" />
<path d="M85250 33750
L77750 33750
" />
<path d="M95750 34750
L90250 34750
" />
<path d="M85250 32750
L77750 32750
" />
<path d="M63500 33000
L58000 33000
" />
<path d="M63500 26750
L58000 26750
" />
<path d="M85250 31750
L77750 31750
" />
<path d="M63500 26750
L63500 23500
" />
<path d="M77750 31750
L77750 30750
" />
<path d="M85250 30750
L77750 30750
" />
</g>
<g style="fill:#000000; fill-opacity:0.0; 
stroke:#000000; stroke-width:60; stroke-opacity:1; 
stroke-linecap:round; stroke-linejoin:round;">
<text x="63500" y="28900"
textLength="3040" font-size="660" lengthAdjust="spacingAndGlyphs"
text-anchor="end" opacity="0">UV_PWM</text>
<path d="M60610 28370
L60610 28780
L60630 28820
L60660 28850
L60700 28870
L60800 28870
L60850 28850
L60870 28820
L60890 28780
L60890 28370
" />
<path d="M61060 28370
L61230 28870
L61390 28370
" />
<path d="M61440 28920
L61820 28920
" />
<path d="M61940 28870
L61940 28370
L62130 28370
L62180 28400
L62200 28420
L62230 28470
L62230 28540
L62200 28590
L62180 28610
L62130 28630
L61940 28630
" />
<path d="M62390 28370
L62510 28870
L62610 28510
L62700 28870
L62820 28370
" />
<path d="M63010 28870
L63010 28370
L63180 28730
L63350 28370
L63350 28870
" />
<text x="63500" y="32900"
textLength="3440" font-size="660" lengthAdjust="spacingAndGlyphs"
text-anchor="end" opacity="0">LED_PWM</text>
<path d="M60440 32870
L60200 32870
L60200 32370
" />
<path d="M60610 32610
L60770 32610
" />
<path d="M60850 32870
L60610 32870
L60610 32370
L60850 32370
" />
<path d="M61060 32870
L61060 32370
L61180 32370
L61250 32400
L61300 32440
L61320 32490
L61350 32590
L61350 32660
L61320 32750
L61300 32800
L61250 32850
L61180 32870
L61060 32870
" />
<path d="M61440 32920
L61820 32920
" />
<path d="M61940 32870
L61940 32370
L62130 32370
L62180 32400
L62200 32420
L62230 32470
L62230 32540
L62200 32590
L62180 32610
L62130 32630
L61940 32630
" />
<path d="M62390 32370
L62510 32870
L62610 32510
L62700 32870
L62820 32370
" />
<path d="M63010 32870
L63010 32370
L63180 32730
L63350 32370
L63350 32870
" />
<text x="79750" y="34650"
textLength="3040" font-size="660" lengthAdjust="spacingAndGlyphs"
text-anchor="start" opacity="0">UV_PWM</text>
<path d="M79890 34120
L79890 34530
L79920 34570
L79940 34600
L79990 34620
L80080 34620
L80130 34600
L80160 34570
L80180 34530
L80180 34120
" />
<path d="M80350 34120
L80510 34620
L80680 34120
" />
<path d="M80730 34670
L81110 34670
" />
<path d="M81230 34620
L81230 34120
L81420 34120
L81470 34150
L81490 34170
L81510 34220
L81510 34290
L81490 34340
L81470 34360
L81420 34380
L81230 34380
" />
<path d="M81680 34120
L81800 34620
L81890 34260
L81990 34620
L82110 34120
" />
<path d="M82300 34620
L82300 34120
L82470 34480
L82630 34120
L82630 34620
" />
<text x="95750" y="34650"
textLength="3440" font-size="660" lengthAdjust="spacingAndGlyphs"
text-anchor="end" opacity="0">LED_PWM</text>
<path d="M92690 34620
L92450 34620
L92450 34120
" />
<path d="M92860 34360
L93020 34360
" />
<path d="M93100 34620
L92860 34620
L92860 34120
L93100 34120
" />
<path d="M93310 34620
L93310 34120
L93430 34120
L93500 34150
L93550 34190
L93570 34240
L93600 34340
L93600 34410
L93570 34500
L93550 34550
L93500 34600
L93430 34620
L93310 34620
" />
<path d="M93690 34670
L94070 34670
" />
<path d="M94190 34620
L94190 34120
L94380 34120
L94430 34150
L94450 34170
L94480 34220
L94480 34290
L94450 34340
L94430 34360
L94380 34380
L94190 34380
" />
<path d="M94640 34120
L94760 34620
L94860 34260
L94950 34620
L95070 34120
" />
<path d="M95260 34620
L95260 34120
L95430 34480
L95600 34120
L95600 34620
" />
</g>
<g style="fill:#0000C2; fill-opacity:0.0; 
stroke:#0000C2; stroke-width:60; stroke-opacity:1; 
stroke-linecap:round; stroke-linejoin:round;">
<text x="59250" y="36150"
textLength="6230" font-size="660" lengthAdjust="spacingAndGlyphs"
text-anchor="start" opacity="0">NOT CONNECTED</text>
<path d="M59390 36120
L59390 35620
L59680 36120
L59680 35620
" />
<path d="M60010 35620
L60110 35620
L60160 35650
L60200 35690
L60230 35790
L60230 35950
L60200 36050
L60160 36100
L60110 36120
L60010 36120
L59970 36100
L59920 36050
L59890 35950
L59890 35790
L59920 35690
L59970 35650
L60010 35620
" />
<path d="M60370 35620
L60660 35620
" />
<path d="M60510 36120
L60510 35620
" />
<path d="M61490 36070
L61470 36100
L61390 36120
L61350 36120
L61280 36100
L61230 36050
L61200 36000
L61180 35910
L61180 35840
L61200 35740
L61230 35690
L61280 35650
L61350 35620
L61390 35620
L61470 35650
L61490 35670
" />
<path d="M61800 35620
L61890 35620
L61940 35650
L61990 35690
L62010 35790
L62010 35950
L61990 36050
L61940 36100
L61890 36120
L61800 36120
L61750 36100
L61700 36050
L61680 35950
L61680 35790
L61700 35690
L61750 35650
L61800 35620
" />
<path d="M62230 36120
L62230 35620
L62510 36120
L62510 35620
" />
<path d="M62750 36120
L62750 35620
L63040 36120
L63040 35620
" />
<path d="M63280 35860
L63440 35860
" />
<path d="M63510 36120
L63280 36120
L63280 35620
L63510 35620
" />
<path d="M64010 36070
L63990 36100
L63920 36120
L63870 36120
L63800 36100
L63750 36050
L63730 36000
L63700 35910
L63700 35840
L63730 35740
L63750 35690
L63800 35650
L63870 35620
L63920 35620
L63990 35650
L64010 35670
" />
<path d="M64160 35620
L64440 35620
" />
<path d="M64300 36120
L64300 35620
" />
<path d="M64610 35860
L64780 35860
" />
<path d="M64850 36120
L64610 36120
L64610 35620
L64850 35620
" />
<path d="M65060 36120
L65060 35620
L65180 35620
L65250 35650
L65300 35690
L65320 35740
L65350 35840
L65350 35910
L65320 36000
L65300 36050
L65250 36100
L65180 36120
L65060 36120
" />
</g>
<g style="fill:#0000C2; fill-opacity:0.0; 
stroke:#0000C2; stroke-width:0; stroke-opacity:1; 
stroke-linecap:round; stroke-linejoin:round;">
</g>
<g style="fill:#008400; fill-opacity:0.0; 
stroke:#008400; stroke-width:0; stroke-opacity:1; 
stroke-linecap:round; stroke-linejoin:round;">
</g>
<g style="fill:#008400; fill-opacity:1.0; 
stroke:#008400; stroke-width:100; stroke-opacity:1; 
stroke-linecap:round; stroke-linejoin:round;">
<circle cx="97750" cy="33750" r="200" /> 
</g>
<g style="fill:#008400; fill-opacity:1.0; 
stroke:#008400; stroke-width:0; stroke-opacity:1; 
stroke-linecap:round; stroke-linejoin:round;">
</g>
<g style="fill:#008400; fill-opacity:1.0; 
stroke:#008400; stroke-width:100; stroke-opacity:1; 
stroke-linecap:round; stroke-linejoin:round;">
<circle cx="97750" cy="32750" r="200" /> 
</g>
<g style="fill:#008400; fill-opacity:1.0; 
stroke:#008400; stroke-width:0; stroke-opacity:1; 
stroke-linecap:round; stroke-linejoin:round;">
</g>
<g style="fill:#008400; fill-opacity:1.0; 
stroke:#008400; stroke-width:100; stroke-opacity:1; 
stroke-linecap:round; stroke-linejoin:round;">
<circle cx="77750" cy="33750" r="200" /> 
</g>
<g style="fill:#008400; fill-opacity:1.0; 
stroke:#008400; stroke-width:0; stroke-opacity:1; 
stroke-linecap:round; stroke-linejoin:round;">
</g>
<g style="fill:#008400; fill-opacity:1.0; 
stroke:#008400; stroke-width:100; stroke-opacity:1; 
stroke-linecap:round; stroke-linejoin:round;">
<circle cx="97750" cy="29750" r="200" /> 
</g>
<g style="fill:#008400; fill-opacity:1.0; 
stroke:#008400; stroke-width:0; stroke-opacity:1; 
stroke-linecap:round; stroke-linejoin:round;">
</g>
<g style="fill:#008400; fill-opacity:1.0; 
stroke:#008400; stroke-width:100; stroke-opacity:1; 
stroke-linecap:round; stroke-linejoin:round;">
<circle cx="77750" cy="29750" r="200" /> 
</g>
<g style="fill:#008400; fill-opacity:1.0; 
stroke:#008400; stroke-width:0; stroke-opacity:1; 
stroke-linecap:round; stroke-linejoin:round;">
</g>
<g style="fill:#008400; fill-opacity:1.0; 
stroke:#008400; stroke-width:100; stroke-opacity:1; 
stroke-linecap:round; stroke-linejoin:round;">
<circle cx="77750" cy="30750" r="200" /> 
</g> 
</svg>
