<?xml version="1.0" standalone="no"?>
 <!DOCTYPE svg PUBLIC "-//W3C//DTD SVG 1.1//EN" 
 "http://www.w3.org/Graphics/SVG/1.1/DTD/svg11.dtd"> 
<svg xmlns="http://www.w3.org/2000/svg" version="1.1" 
    width="29.7002cm" height="21.0007cm" viewBox="0 0 116930 82680 ">
<title>SVG Picture created as RotaryEncoderNoSwitch-LED_Controller_Module-RotaryEncoderNoSwitch.svg date 2020/05/09 02:45:42 </title>
  <desc>Picture generated by Eeschema-SVG </desc>
<g style="fill:#000000; fill-opacity:1;stroke:#000000; stroke-opacity:1;
stroke-linecap:round; stroke-linejoin:round; "
 transform="translate(0 0) scale(1 1)">
</g>
<g style="fill:#000000; fill-opacity:0.0; 
stroke:#000000; stroke-width:-10; stroke-opacity:1; 
stroke-linecap:round; stroke-linejoin:round;">
</g>
<g style="fill:#840000; fill-opacity:0.0; 
stroke:#840000; stroke-width:-10; stroke-opacity:1; 
stroke-linecap:round; stroke-linejoin:round;">
</g>
<g style="fill:#840000; fill-opacity:0.0; 
stroke:#840000; stroke-width:100; stroke-opacity:1; 
stroke-linecap:round; stroke-linejoin:round;">
</g>
<g style="fill:#840000; fill-opacity:0.0; 
stroke:#840000; stroke-width:60; stroke-opacity:1; 
stroke-linecap:round; stroke-linejoin:round;">
<rect x="69690" y="65360" width="42520" height="12600" rx="0" />
</g>
<g style="fill:#840000; fill-opacity:0.0; 
stroke:#840000; stroke-width:100; stroke-opacity:1; 
stroke-linecap:round; stroke-linejoin:round;">
</g>
<g style="fill:#840000; fill-opacity:0.0; 
stroke:#840000; stroke-width:60; stroke-opacity:1; 
stroke-linecap:round; stroke-linejoin:round;">
<rect x="3940" y="3940" width="109050" height="74800" rx="0" />
</g>
<g style="fill:#840000; fill-opacity:0.0; 
stroke:#840000; stroke-width:100; stroke-opacity:1; 
stroke-linecap:round; stroke-linejoin:round;">
</g>
<g style="fill:#840000; fill-opacity:0.0; 
stroke:#840000; stroke-width:60; stroke-opacity:1; 
stroke-linecap:round; stroke-linejoin:round;">
<rect x="4720" y="4720" width="107490" height="73240" rx="0" />
</g>
<g style="fill:#840000; fill-opacity:0.0; 
stroke:#840000; stroke-width:100; stroke-opacity:1; 
stroke-linecap:round; stroke-linejoin:round;">
</g>
<g style="fill:#840000; fill-opacity:0.0; 
stroke:#840000; stroke-width:60; stroke-opacity:1; 
stroke-linecap:round; stroke-linejoin:round;">
<path d="M23620 4720
L23620 3940
" />
</g>
<g style="fill:#840000; fill-opacity:0.0; 
stroke:#840000; stroke-width:100; stroke-opacity:1; 
stroke-linecap:round; stroke-linejoin:round;">
</g>
<g style="fill:#840000; fill-opacity:0.0; 
stroke:#840000; stroke-width:60; stroke-opacity:1; 
stroke-linecap:round; stroke-linejoin:round;">
<path d="M43310 4720
L43310 3940
" />
</g>
<g style="fill:#840000; fill-opacity:0.0; 
stroke:#840000; stroke-width:100; stroke-opacity:1; 
stroke-linecap:round; stroke-linejoin:round;">
</g>
<g style="fill:#840000; fill-opacity:0.0; 
stroke:#840000; stroke-width:60; stroke-opacity:1; 
stroke-linecap:round; stroke-linejoin:round;">
<path d="M62990 4720
L62990 3940
" />
</g>
<g style="fill:#840000; fill-opacity:0.0; 
stroke:#840000; stroke-width:100; stroke-opacity:1; 
stroke-linecap:round; stroke-linejoin:round;">
</g>
<g style="fill:#840000; fill-opacity:0.0; 
stroke:#840000; stroke-width:60; stroke-opacity:1; 
stroke-linecap:round; stroke-linejoin:round;">
<path d="M82680 4720
L82680 3940
" />
</g>
<g style="fill:#840000; fill-opacity:0.0; 
stroke:#840000; stroke-width:100; stroke-opacity:1; 
stroke-linecap:round; stroke-linejoin:round;">
</g>
<g style="fill:#840000; fill-opacity:0.0; 
stroke:#840000; stroke-width:60; stroke-opacity:1; 
stroke-linecap:round; stroke-linejoin:round;">
<path d="M102360 4720
L102360 3940
" />
</g>
<g style="fill:#840000; fill-opacity:0.0; 
stroke:#840000; stroke-width:100; stroke-opacity:1; 
stroke-linecap:round; stroke-linejoin:round;">
</g>
<g style="fill:#840000; fill-opacity:0.0; 
stroke:#840000; stroke-width:60; stroke-opacity:1; 
stroke-linecap:round; stroke-linejoin:round;">
<text x="13780" y="4580"
textLength="550" font-size="680" lengthAdjust="spacingAndGlyphs"
text-anchor="start" opacity="0">1</text>
<path d="M14190 4560
L13900 4560
" />
<path d="M14050 4560
L14050 4050
L14000 4120
L13950 4170
L13900 4190
" />
</g>
<g style="fill:#840000; fill-opacity:0.0; 
stroke:#840000; stroke-width:100; stroke-opacity:1; 
stroke-linecap:round; stroke-linejoin:round;">
</g>
<g style="fill:#840000; fill-opacity:0.0; 
stroke:#840000; stroke-width:60; stroke-opacity:1; 
stroke-linecap:round; stroke-linejoin:round;">
<text x="33460" y="4580"
textLength="550" font-size="680" lengthAdjust="spacingAndGlyphs"
text-anchor="start" opacity="0">2</text>
<path d="M33580 4090
L33610 4070
L33660 4050
L33780 4050
L33830 4070
L33850 4090
L33870 4140
L33870 4190
L33850 4260
L33560 4560
L33870 4560
" />
</g>
<g style="fill:#840000; fill-opacity:0.0; 
stroke:#840000; stroke-width:100; stroke-opacity:1; 
stroke-linecap:round; stroke-linejoin:round;">
</g>
<g style="fill:#840000; fill-opacity:0.0; 
stroke:#840000; stroke-width:60; stroke-opacity:1; 
stroke-linecap:round; stroke-linejoin:round;">
<text x="53150" y="4580"
textLength="550" font-size="680" lengthAdjust="spacingAndGlyphs"
text-anchor="start" opacity="0">3</text>
<path d="M53250 4050
L53560 4050
L53390 4240
L53470 4240
L53520 4260
L53540 4290
L53560 4340
L53560 4460
L53540 4510
L53520 4530
L53470 4560
L53320 4560
L53270 4530
L53250 4510
" />
</g>
<g style="fill:#840000; fill-opacity:0.0; 
stroke:#840000; stroke-width:100; stroke-opacity:1; 
stroke-linecap:round; stroke-linejoin:round;">
</g>
<g style="fill:#840000; fill-opacity:0.0; 
stroke:#840000; stroke-width:60; stroke-opacity:1; 
stroke-linecap:round; stroke-linejoin:round;">
<text x="72830" y="4580"
textLength="550" font-size="680" lengthAdjust="spacingAndGlyphs"
text-anchor="start" opacity="0">4</text>
<path d="M73200 4220
L73200 4560
" />
<path d="M73070 4020
L72950 4390
L73270 4390
" />
</g>
<g style="fill:#840000; fill-opacity:0.0; 
stroke:#840000; stroke-width:100; stroke-opacity:1; 
stroke-linecap:round; stroke-linejoin:round;">
</g>
<g style="fill:#840000; fill-opacity:0.0; 
stroke:#840000; stroke-width:60; stroke-opacity:1; 
stroke-linecap:round; stroke-linejoin:round;">
<text x="92520" y="4580"
textLength="550" font-size="680" lengthAdjust="spacingAndGlyphs"
text-anchor="start" opacity="0">5</text>
<path d="M92910 4050
L92670 4050
L92640 4290
L92670 4260
L92720 4240
L92840 4240
L92890 4260
L92910 4290
L92930 4340
L92930 4460
L92910 4510
L92890 4530
L92840 4560
L92720 4560
L92670 4530
L92640 4510
" />
</g>
<g style="fill:#840000; fill-opacity:0.0; 
stroke:#840000; stroke-width:100; stroke-opacity:1; 
stroke-linecap:round; stroke-linejoin:round;">
</g>
<g style="fill:#840000; fill-opacity:0.0; 
stroke:#840000; stroke-width:60; stroke-opacity:1; 
stroke-linecap:round; stroke-linejoin:round;">
<text x="112200" y="4580"
textLength="550" font-size="680" lengthAdjust="spacingAndGlyphs"
text-anchor="start" opacity="0">6</text>
<path d="M112570 4050
L112470 4050
L112420 4070
L112400 4090
L112350 4170
L112320 4260
L112320 4460
L112350 4510
L112370 4530
L112420 4560
L112520 4560
L112570 4530
L112590 4510
L112610 4460
L112610 4340
L112590 4290
L112570 4260
L112520 4240
L112420 4240
L112370 4260
L112350 4290
L112320 4340
" />
</g>
<g style="fill:#840000; fill-opacity:0.0; 
stroke:#840000; stroke-width:100; stroke-opacity:1; 
stroke-linecap:round; stroke-linejoin:round;">
</g>
<g style="fill:#840000; fill-opacity:0.0; 
stroke:#840000; stroke-width:60; stroke-opacity:1; 
stroke-linecap:round; stroke-linejoin:round;">
<path d="M23620 77960
L23620 78740
" />
</g>
<g style="fill:#840000; fill-opacity:0.0; 
stroke:#840000; stroke-width:100; stroke-opacity:1; 
stroke-linecap:round; stroke-linejoin:round;">
</g>
<g style="fill:#840000; fill-opacity:0.0; 
stroke:#840000; stroke-width:60; stroke-opacity:1; 
stroke-linecap:round; stroke-linejoin:round;">
<path d="M43310 77960
L43310 78740
" />
</g>
<g style="fill:#840000; fill-opacity:0.0; 
stroke:#840000; stroke-width:100; stroke-opacity:1; 
stroke-linecap:round; stroke-linejoin:round;">
</g>
<g style="fill:#840000; fill-opacity:0.0; 
stroke:#840000; stroke-width:60; stroke-opacity:1; 
stroke-linecap:round; stroke-linejoin:round;">
<path d="M62990 77960
L62990 78740
" />
</g>
<g style="fill:#840000; fill-opacity:0.0; 
stroke:#840000; stroke-width:100; stroke-opacity:1; 
stroke-linecap:round; stroke-linejoin:round;">
</g>
<g style="fill:#840000; fill-opacity:0.0; 
stroke:#840000; stroke-width:60; stroke-opacity:1; 
stroke-linecap:round; stroke-linejoin:round;">
<path d="M82680 77960
L82680 78740
" />
</g>
<g style="fill:#840000; fill-opacity:0.0; 
stroke:#840000; stroke-width:100; stroke-opacity:1; 
stroke-linecap:round; stroke-linejoin:round;">
</g>
<g style="fill:#840000; fill-opacity:0.0; 
stroke:#840000; stroke-width:60; stroke-opacity:1; 
stroke-linecap:round; stroke-linejoin:round;">
<path d="M102360 77960
L102360 78740
" />
</g>
<g style="fill:#840000; fill-opacity:0.0; 
stroke:#840000; stroke-width:100; stroke-opacity:1; 
stroke-linecap:round; stroke-linejoin:round;">
</g>
<g style="fill:#840000; fill-opacity:0.0; 
stroke:#840000; stroke-width:60; stroke-opacity:1; 
stroke-linecap:round; stroke-linejoin:round;">
<text x="13780" y="78600"
textLength="550" font-size="680" lengthAdjust="spacingAndGlyphs"
text-anchor="start" opacity="0">1</text>
<path d="M14190 78580
L13900 78580
" />
<path d="M14050 78580
L14050 78070
L14000 78140
L13950 78190
L13900 78210
" />
</g>
<g style="fill:#840000; fill-opacity:0.0; 
stroke:#840000; stroke-width:100; stroke-opacity:1; 
stroke-linecap:round; stroke-linejoin:round;">
</g>
<g style="fill:#840000; fill-opacity:0.0; 
stroke:#840000; stroke-width:60; stroke-opacity:1; 
stroke-linecap:round; stroke-linejoin:round;">
<text x="33460" y="78600"
textLength="550" font-size="680" lengthAdjust="spacingAndGlyphs"
text-anchor="start" opacity="0">2</text>
<path d="M33580 78110
L33610 78090
L33660 78070
L33780 78070
L33830 78090
L33850 78110
L33870 78160
L33870 78210
L33850 78280
L33560 78580
L33870 78580
" />
</g>
<g style="fill:#840000; fill-opacity:0.0; 
stroke:#840000; stroke-width:100; stroke-opacity:1; 
stroke-linecap:round; stroke-linejoin:round;">
</g>
<g style="fill:#840000; fill-opacity:0.0; 
stroke:#840000; stroke-width:60; stroke-opacity:1; 
stroke-linecap:round; stroke-linejoin:round;">
<text x="53150" y="78600"
textLength="550" font-size="680" lengthAdjust="spacingAndGlyphs"
text-anchor="start" opacity="0">3</text>
<path d="M53250 78070
L53560 78070
L53390 78260
L53470 78260
L53520 78280
L53540 78310
L53560 78360
L53560 78480
L53540 78530
L53520 78550
L53470 78580
L53320 78580
L53270 78550
L53250 78530
" />
</g>
<g style="fill:#840000; fill-opacity:0.0; 
stroke:#840000; stroke-width:100; stroke-opacity:1; 
stroke-linecap:round; stroke-linejoin:round;">
</g>
<g style="fill:#840000; fill-opacity:0.0; 
stroke:#840000; stroke-width:60; stroke-opacity:1; 
stroke-linecap:round; stroke-linejoin:round;">
<text x="72830" y="78600"
textLength="550" font-size="680" lengthAdjust="spacingAndGlyphs"
text-anchor="start" opacity="0">4</text>
<path d="M73200 78240
L73200 78580
" />
<path d="M73070 78040
L72950 78410
L73270 78410
" />
</g>
<g style="fill:#840000; fill-opacity:0.0; 
stroke:#840000; stroke-width:100; stroke-opacity:1; 
stroke-linecap:round; stroke-linejoin:round;">
</g>
<g style="fill:#840000; fill-opacity:0.0; 
stroke:#840000; stroke-width:60; stroke-opacity:1; 
stroke-linecap:round; stroke-linejoin:round;">
<text x="92520" y="78600"
textLength="550" font-size="680" lengthAdjust="spacingAndGlyphs"
text-anchor="start" opacity="0">5</text>
<path d="M92910 78070
L92670 78070
L92640 78310
L92670 78280
L92720 78260
L92840 78260
L92890 78280
L92910 78310
L92930 78360
L92930 78480
L92910 78530
L92890 78550
L92840 78580
L92720 78580
L92670 78550
L92640 78530
" />
</g>
<g style="fill:#840000; fill-opacity:0.0; 
stroke:#840000; stroke-width:100; stroke-opacity:1; 
stroke-linecap:round; stroke-linejoin:round;">
</g>
<g style="fill:#840000; fill-opacity:0.0; 
stroke:#840000; stroke-width:60; stroke-opacity:1; 
stroke-linecap:round; stroke-linejoin:round;">
<text x="112200" y="78600"
textLength="550" font-size="680" lengthAdjust="spacingAndGlyphs"
text-anchor="start" opacity="0">6</text>
<path d="M112570 78070
L112470 78070
L112420 78090
L112400 78110
L112350 78190
L112320 78280
L112320 78480
L112350 78530
L112370 78550
L112420 78580
L112520 78580
L112570 78550
L112590 78530
L112610 78480
L112610 78360
L112590 78310
L112570 78280
L112520 78260
L112420 78260
L112370 78280
L112350 78310
L112320 78360
" />
</g>
<g style="fill:#840000; fill-opacity:0.0; 
stroke:#840000; stroke-width:100; stroke-opacity:1; 
stroke-linecap:round; stroke-linejoin:round;">
</g>
<g style="fill:#840000; fill-opacity:0.0; 
stroke:#840000; stroke-width:60; stroke-opacity:1; 
stroke-linecap:round; stroke-linejoin:round;">
<path d="M3940 23620
L4720 23620
" />
</g>
<g style="fill:#840000; fill-opacity:0.0; 
stroke:#840000; stroke-width:100; stroke-opacity:1; 
stroke-linecap:round; stroke-linejoin:round;">
</g>
<g style="fill:#840000; fill-opacity:0.0; 
stroke:#840000; stroke-width:60; stroke-opacity:1; 
stroke-linecap:round; stroke-linejoin:round;">
<path d="M3940 43310
L4720 43310
" />
</g>
<g style="fill:#840000; fill-opacity:0.0; 
stroke:#840000; stroke-width:100; stroke-opacity:1; 
stroke-linecap:round; stroke-linejoin:round;">
</g>
<g style="fill:#840000; fill-opacity:0.0; 
stroke:#840000; stroke-width:60; stroke-opacity:1; 
stroke-linecap:round; stroke-linejoin:round;">
<path d="M3940 62990
L4720 62990
" />
</g>
<g style="fill:#840000; fill-opacity:0.0; 
stroke:#840000; stroke-width:100; stroke-opacity:1; 
stroke-linecap:round; stroke-linejoin:round;">
</g>
<g style="fill:#840000; fill-opacity:0.0; 
stroke:#840000; stroke-width:60; stroke-opacity:1; 
stroke-linecap:round; stroke-linejoin:round;">
<text x="4330" y="14030"
textLength="500" font-size="680" lengthAdjust="spacingAndGlyphs"
text-anchor="middle" opacity="0">A</text>
<path d="M4200 13860
L4450 13860
" />
<path d="M4160 14010
L4330 13500
L4500 14010
" />
</g>
<g style="fill:#840000; fill-opacity:0.0; 
stroke:#840000; stroke-width:100; stroke-opacity:1; 
stroke-linecap:round; stroke-linejoin:round;">
</g>
<g style="fill:#840000; fill-opacity:0.0; 
stroke:#840000; stroke-width:60; stroke-opacity:1; 
stroke-linecap:round; stroke-linejoin:round;">
<text x="4330" y="33710"
textLength="570" font-size="680" lengthAdjust="spacingAndGlyphs"
text-anchor="middle" opacity="0">B</text>
<path d="M4360 33420
L4430 33440
L4460 33470
L4480 33520
L4480 33590
L4460 33640
L4430 33660
L4390 33690
L4190 33690
L4190 33180
L4360 33180
L4410 33200
L4430 33220
L4460 33270
L4460 33320
L4430 33370
L4410 33390
L4360 33420
L4190 33420
" />
</g>
<g style="fill:#840000; fill-opacity:0.0; 
stroke:#840000; stroke-width:100; stroke-opacity:1; 
stroke-linecap:round; stroke-linejoin:round;">
</g>
<g style="fill:#840000; fill-opacity:0.0; 
stroke:#840000; stroke-width:60; stroke-opacity:1; 
stroke-linecap:round; stroke-linejoin:round;">
<text x="4330" y="53400"
textLength="570" font-size="680" lengthAdjust="spacingAndGlyphs"
text-anchor="middle" opacity="0">C</text>
<path d="M4480 53330
L4460 53350
L4390 53380
L4340 53380
L4260 53350
L4220 53300
L4190 53250
L4170 53160
L4170 53080
L4190 52990
L4220 52940
L4260 52890
L4340 52870
L4390 52870
L4460 52890
L4480 52910
" />
</g>
<g style="fill:#840000; fill-opacity:0.0; 
stroke:#840000; stroke-width:100; stroke-opacity:1; 
stroke-linecap:round; stroke-linejoin:round;">
</g>
<g style="fill:#840000; fill-opacity:0.0; 
stroke:#840000; stroke-width:60; stroke-opacity:1; 
stroke-linecap:round; stroke-linejoin:round;">
<text x="4330" y="73080"
textLength="570" font-size="680" lengthAdjust="spacingAndGlyphs"
text-anchor="middle" opacity="0">D</text>
<path d="M4190 73060
L4190 72550
L4310 72550
L4390 72570
L4430 72620
L4460 72670
L4480 72760
L4480 72840
L4460 72930
L4430 72980
L4390 73030
L4310 73060
L4190 73060
" />
</g>
<g style="fill:#840000; fill-opacity:0.0; 
stroke:#840000; stroke-width:100; stroke-opacity:1; 
stroke-linecap:round; stroke-linejoin:round;">
</g>
<g style="fill:#840000; fill-opacity:0.0; 
stroke:#840000; stroke-width:60; stroke-opacity:1; 
stroke-linecap:round; stroke-linejoin:round;">
<path d="M112990 23620
L112210 23620
" />
</g>
<g style="fill:#840000; fill-opacity:0.0; 
stroke:#840000; stroke-width:100; stroke-opacity:1; 
stroke-linecap:round; stroke-linejoin:round;">
</g>
<g style="fill:#840000; fill-opacity:0.0; 
stroke:#840000; stroke-width:60; stroke-opacity:1; 
stroke-linecap:round; stroke-linejoin:round;">
<path d="M112990 43310
L112210 43310
" />
</g>
<g style="fill:#840000; fill-opacity:0.0; 
stroke:#840000; stroke-width:100; stroke-opacity:1; 
stroke-linecap:round; stroke-linejoin:round;">
</g>
<g style="fill:#840000; fill-opacity:0.0; 
stroke:#840000; stroke-width:60; stroke-opacity:1; 
stroke-linecap:round; stroke-linejoin:round;">
<path d="M112990 62990
L112210 62990
" />
</g>
<g style="fill:#840000; fill-opacity:0.0; 
stroke:#840000; stroke-width:100; stroke-opacity:1; 
stroke-linecap:round; stroke-linejoin:round;">
</g>
<g style="fill:#840000; fill-opacity:0.0; 
stroke:#840000; stroke-width:60; stroke-opacity:1; 
stroke-linecap:round; stroke-linejoin:round;">
<text x="112600" y="14030"
textLength="500" font-size="680" lengthAdjust="spacingAndGlyphs"
text-anchor="middle" opacity="0">A</text>
<path d="M112470 13860
L112720 13860
" />
<path d="M112430 14010
L112600 13500
L112770 14010
" />
</g>
<g style="fill:#840000; fill-opacity:0.0; 
stroke:#840000; stroke-width:100; stroke-opacity:1; 
stroke-linecap:round; stroke-linejoin:round;">
</g>
<g style="fill:#840000; fill-opacity:0.0; 
stroke:#840000; stroke-width:60; stroke-opacity:1; 
stroke-linecap:round; stroke-linejoin:round;">
<text x="112600" y="33710"
textLength="570" font-size="680" lengthAdjust="spacingAndGlyphs"
text-anchor="middle" opacity="0">B</text>
<path d="M112630 33420
L112700 33440
L112730 33470
L112750 33520
L112750 33590
L112730 33640
L112700 33660
L112660 33690
L112460 33690
L112460 33180
L112630 33180
L112680 33200
L112700 33220
L112730 33270
L112730 33320
L112700 33370
L112680 33390
L112630 33420
L112460 33420
" />
</g>
<g style="fill:#840000; fill-opacity:0.0; 
stroke:#840000; stroke-width:100; stroke-opacity:1; 
stroke-linecap:round; stroke-linejoin:round;">
</g>
<g style="fill:#840000; fill-opacity:0.0; 
stroke:#840000; stroke-width:60; stroke-opacity:1; 
stroke-linecap:round; stroke-linejoin:round;">
<text x="112600" y="53400"
textLength="570" font-size="680" lengthAdjust="spacingAndGlyphs"
text-anchor="middle" opacity="0">C</text>
<path d="M112750 53330
L112730 53350
L112660 53380
L112610 53380
L112530 53350
L112490 53300
L112460 53250
L112440 53160
L112440 53080
L112460 52990
L112490 52940
L112530 52890
L112610 52870
L112660 52870
L112730 52890
L112750 52910
" />
</g>
<g style="fill:#840000; fill-opacity:0.0; 
stroke:#840000; stroke-width:100; stroke-opacity:1; 
stroke-linecap:round; stroke-linejoin:round;">
</g>
<g style="fill:#840000; fill-opacity:0.0; 
stroke:#840000; stroke-width:60; stroke-opacity:1; 
stroke-linecap:round; stroke-linejoin:round;">
<text x="112600" y="73080"
textLength="570" font-size="680" lengthAdjust="spacingAndGlyphs"
text-anchor="middle" opacity="0">D</text>
<path d="M112460 73060
L112460 72550
L112580 72550
L112660 72570
L112700 72620
L112730 72670
L112750 72760
L112750 72840
L112730 72930
L112700 72980
L112660 73030
L112580 73060
L112460 73060
" />
</g>
<g style="fill:#840000; fill-opacity:0.0; 
stroke:#840000; stroke-width:100; stroke-opacity:1; 
stroke-linecap:round; stroke-linejoin:round;">
</g>
<g style="fill:#840000; fill-opacity:0.0; 
stroke:#840000; stroke-width:60; stroke-opacity:1; 
stroke-linecap:round; stroke-linejoin:round;">
<text x="78740" y="76320"
textLength="2760" font-size="780" lengthAdjust="spacingAndGlyphs"
text-anchor="start" opacity="0">Date: </text>
<path d="M78910 76290
L78910 75700
L79050 75700
L79130 75730
L79190 75790
L79210 75840
L79240 75950
L79240 76040
L79210 76150
L79190 76210
L79130 76260
L79050 76290
L78910 76290
" />
<path d="M79750 76290
L79750 75980
L79720 75930
L79660 75900
L79550 75900
L79500 75930
" />
<path d="M79750 76260
L79690 76290
L79550 76290
L79500 76260
L79470 76210
L79470 76150
L79500 76100
L79550 76070
L79690 76070
L79750 76040
" />
<path d="M79950 75900
L80170 75900
" />
<path d="M80030 75700
L80030 76210
L80060 76260
L80110 76290
L80170 76290
" />
<path d="M80590 76260
L80540 76290
L80420 76290
L80370 76260
L80340 76210
L80340 75980
L80370 75930
L80420 75900
L80540 75900
L80590 75930
L80620 75980
L80620 76040
L80340 76100
" />
<path d="M80870 76240
L80900 76260
L80870 76290
L80840 76260
L80870 76240
L80870 76290
" />
<path d="M80870 75930
L80900 75950
L80870 75980
L80840 75950
L80870 75930
L80870 75980
" />
</g>
<g style="fill:#840000; fill-opacity:0.0; 
stroke:#840000; stroke-width:100; stroke-opacity:1; 
stroke-linecap:round; stroke-linejoin:round;">
</g>
<g style="fill:#840000; fill-opacity:0.0; 
stroke:#840000; stroke-width:60; stroke-opacity:1; 
stroke-linecap:round; stroke-linejoin:round;">
<path d="M69690 76580
L112210 76580
" />
</g>
<g style="fill:#840000; fill-opacity:0.0; 
stroke:#840000; stroke-width:100; stroke-opacity:1; 
stroke-linecap:round; stroke-linejoin:round;">
</g>
<g style="fill:#840000; fill-opacity:0.0; 
stroke:#840000; stroke-width:60; stroke-opacity:1; 
stroke-linecap:round; stroke-linejoin:round;">
<text x="70080" y="77420"
textLength="23550" font-size="780" lengthAdjust="spacingAndGlyphs"
text-anchor="start" opacity="0">KiCad E.D.A.  kicad 5.1.5-52549c5~86~ubuntu18.04.1</text>
<path d="M70250 77390
L70250 76800
" />
<path d="M70580 77390
L70330 77050
" />
<path d="M70580 76800
L70250 77140
" />
<path d="M70840 77390
L70840 77000
" />
<path d="M70840 76800
L70810 76830
L70840 76860
L70860 76830
L70840 76800
L70840 76860
" />
<path d="M71450 77340
L71430 77360
L71340 77390
L71290 77390
L71200 77360
L71140 77310
L71120 77250
L71090 77140
L71090 77050
L71120 76940
L71140 76890
L71200 76830
L71290 76800
L71340 76800
L71430 76830
L71450 76860
" />
<path d="M71960 77390
L71960 77080
L71930 77030
L71880 77000
L71760 77000
L71710 77030
" />
<path d="M71960 77360
L71900 77390
L71760 77390
L71710 77360
L71680 77310
L71680 77250
L71710 77200
L71760 77170
L71900 77170
L71960 77140
" />
<path d="M72490 77390
L72490 76800
" />
<path d="M72490 77360
L72440 77390
L72320 77390
L72270 77360
L72240 77340
L72210 77280
L72210 77110
L72240 77050
L72270 77030
L72320 77000
L72440 77000
L72490 77030
" />
<path d="M73220 77080
L73420 77080
" />
<path d="M73500 77390
L73220 77390
L73220 76800
L73500 76800
" />
<path d="M73760 77340
L73790 77360
L73760 77390
L73730 77360
L73760 77340
L73760 77390
" />
<path d="M74040 77390
L74040 76800
L74180 76800
L74260 76830
L74320 76890
L74350 76940
L74380 77050
L74380 77140
L74350 77250
L74320 77310
L74260 77360
L74180 77390
L74040 77390
" />
<path d="M74630 77340
L74660 77360
L74630 77390
L74600 77360
L74630 77340
L74630 77390
" />
<path d="M74880 77220
L75160 77220
" />
<path d="M74830 77390
L75020 76800
L75220 77390
" />
<path d="M75420 77340
L75440 77360
L75420 77390
L75390 77360
L75420 77340
L75420 77390
" />
<path d="M76600 77390
L76600 76800
" />
<path d="M76650 77170
L76820 77390
" />
<path d="M76820 77000
L76600 77220
" />
<path d="M77070 77390
L77070 77000
" />
<path d="M77070 76800
L77040 76830
L77070 76860
L77100 76830
L77070 76800
L77070 76860
" />
<path d="M77610 77360
L77550 77390
L77440 77390
L77380 77360
L77350 77340
L77330 77280
L77330 77110
L77350 77050
L77380 77030
L77440 77000
L77550 77000
L77610 77030
" />
<path d="M78110 77390
L78110 77080
L78080 77030
L78030 77000
L77920 77000
L77860 77030
" />
<path d="M78110 77360
L78060 77390
L77920 77390
L77860 77360
L77830 77310
L77830 77250
L77860 77200
L77920 77170
L78060 77170
L78110 77140
" />
<path d="M78650 77390
L78650 76800
" />
<path d="M78650 77360
L78590 77390
L78480 77390
L78420 77360
L78390 77340
L78370 77280
L78370 77110
L78390 77050
L78420 77030
L78480 77000
L78590 77000
L78650 77030
" />
<path d="M79660 76800
L79380 76800
L79350 77080
L79380 77050
L79430 77030
L79570 77030
L79630 77050
L79660 77080
L79690 77140
L79690 77280
L79660 77340
L79630 77360
L79570 77390
L79430 77390
L79380 77360
L79350 77340
" />
<path d="M79940 77340
L79970 77360
L79940 77390
L79910 77360
L79940 77340
L79940 77390
" />
<path d="M80530 77390
L80190 77390
" />
<path d="M80360 77390
L80360 76800
L80300 76890
L80250 76940
L80190 76970
" />
<path d="M80780 77340
L80810 77360
L80780 77390
L80750 77360
L80780 77340
L80780 77390
" />
<path d="M81340 76800
L81060 76800
L81030 77080
L81060 77050
L81120 77030
L81260 77030
L81320 77050
L81340 77080
L81370 77140
L81370 77280
L81340 77340
L81320 77360
L81260 77390
L81120 77390
L81060 77360
L81030 77340
" />
<path d="M81620 77170
L82070 77170
" />
<path d="M82640 76800
L82350 76800
L82330 77080
L82350 77050
L82410 77030
L82550 77030
L82610 77050
L82640 77080
L82660 77140
L82660 77280
L82640 77340
L82610 77360
L82550 77390
L82410 77390
L82350 77360
L82330 77340
" />
<path d="M82890 76860
L82920 76830
L82970 76800
L83110 76800
L83170 76830
L83200 76860
L83230 76910
L83230 76970
L83200 77050
L82860 77390
L83230 77390
" />
<path d="M83760 76800
L83480 76800
L83450 77080
L83480 77050
L83530 77030
L83680 77030
L83730 77050
L83760 77080
L83790 77140
L83790 77280
L83760 77340
L83730 77360
L83680 77390
L83530 77390
L83480 77360
L83450 77340
" />
<path d="M84290 77000
L84290 77390
" />
<path d="M84150 76770
L84010 77200
L84380 77200
" />
<path d="M84630 77390
L84740 77390
L84800 77360
L84830 77340
L84880 77250
L84910 77140
L84910 76910
L84880 76860
L84860 76830
L84800 76800
L84690 76800
L84630 76830
L84600 76860
L84570 76910
L84570 77050
L84600 77110
L84630 77140
L84690 77170
L84800 77170
L84860 77140
L84880 77110
L84910 77050
" />
<path d="M85420 77360
L85360 77390
L85250 77390
L85190 77360
L85160 77340
L85140 77280
L85140 77110
L85160 77050
L85190 77030
L85250 77000
L85360 77000
L85420 77030
" />
<path d="M85950 76800
L85670 76800
L85640 77080
L85670 77050
L85730 77030
L85870 77030
L85920 77050
L85950 77080
L85980 77140
L85980 77280
L85950 77340
L85920 77360
L85870 77390
L85730 77390
L85670 77360
L85640 77340
" />
<path d="M86090 76640
L86650 76640
" />
<path d="M86320 77050
L86260 77030
L86230 77000
L86200 76940
L86200 76910
L86230 76860
L86260 76830
L86320 76800
L86430 76800
L86480 76830
L86510 76860
L86540 76910
L86540 76940
L86510 77000
L86480 77030
L86430 77050
L86320 77050
L86260 77080
L86230 77110
L86200 77170
L86200 77280
L86230 77340
L86260 77360
L86320 77390
L86430 77390
L86480 77360
L86510 77340
L86540 77280
L86540 77170
L86510 77110
L86480 77080
L86430 77050
" />
<path d="M86650 76640
L87220 76640
" />
<path d="M87050 76800
L86930 76800
L86880 76830
L86850 76860
L86790 76940
L86770 77050
L86770 77280
L86790 77340
L86820 77360
L86880 77390
L86990 77390
L87050 77360
L87070 77340
L87100 77280
L87100 77140
L87070 77080
L87050 77050
L86990 77030
L86880 77030
L86820 77050
L86790 77080
L86770 77140
" />
<path d="M87610 77000
L87610 77390
" />
<path d="M87360 77000
L87360 77310
L87380 77360
L87440 77390
L87520 77390
L87580 77360
L87610 77340
" />
<path d="M87890 77390
L87890 76800
" />
<path d="M87890 77030
L87950 77000
L88060 77000
L88110 77030
L88140 77050
L88170 77110
L88170 77280
L88140 77340
L88110 77360
L88060 77390
L87950 77390
L87890 77360
" />
<path d="M88680 77000
L88680 77390
" />
<path d="M88420 77000
L88420 77310
L88450 77360
L88510 77390
L88590 77390
L88650 77360
L88680 77340
" />
<path d="M88960 77000
L88960 77390
" />
<path d="M88960 77050
L88990 77030
L89040 77000
L89130 77000
L89180 77030
L89210 77080
L89210 77390
" />
<path d="M89410 77000
L89630 77000
" />
<path d="M89490 76800
L89490 77310
L89520 77360
L89580 77390
L89630 77390
" />
<path d="M90080 77000
L90080 77390
" />
<path d="M89830 77000
L89830 77310
L89860 77360
L89910 77390
L90000 77390
L90050 77360
L90080 77340
" />
<path d="M90670 77390
L90330 77390
" />
<path d="M90500 77390
L90500 76800
L90450 76890
L90390 76940
L90330 76970
" />
<path d="M91010 77050
L90950 77030
L90920 77000
L90900 76940
L90900 76910
L90920 76860
L90950 76830
L91010 76800
L91120 76800
L91180 76830
L91200 76860
L91230 76910
L91230 76940
L91200 77000
L91180 77030
L91120 77050
L91010 77050
L90950 77080
L90920 77110
L90900 77170
L90900 77280
L90920 77340
L90950 77360
L91010 77390
L91120 77390
L91180 77360
L91200 77340
L91230 77280
L91230 77170
L91200 77110
L91180 77080
L91120 77050
" />
<path d="M91490 77340
L91510 77360
L91490 77390
L91460 77360
L91490 77340
L91490 77390
" />
<path d="M91880 76800
L91940 76800
L91990 76830
L92020 76860
L92050 76910
L92080 77030
L92080 77170
L92050 77280
L92020 77340
L91990 77360
L91940 77390
L91880 77390
L91820 77360
L91790 77340
L91770 77280
L91740 77170
L91740 77030
L91770 76910
L91790 76860
L91820 76830
L91880 76800
" />
<path d="M92580 77000
L92580 77390
" />
<path d="M92440 76770
L92300 77200
L92670 77200
" />
<path d="M92890 77340
L92920 77360
L92890 77390
L92860 77360
L92890 77340
L92890 77390
" />
<path d="M93480 77390
L93140 77390
" />
<path d="M93310 77390
L93310 76800
L93260 76890
L93200 76940
L93140 76970
" />
</g>
<g style="fill:#840000; fill-opacity:0.0; 
stroke:#840000; stroke-width:100; stroke-opacity:1; 
stroke-linecap:round; stroke-linejoin:round;">
</g>
<g style="fill:#840000; fill-opacity:0.0; 
stroke:#840000; stroke-width:60; stroke-opacity:1; 
stroke-linecap:round; stroke-linejoin:round;">
<path d="M69690 75400
L112210 75400
" />
</g>
<g style="fill:#840000; fill-opacity:0.0; 
stroke:#840000; stroke-width:100; stroke-opacity:1; 
stroke-linecap:round; stroke-linejoin:round;">
</g>
<g style="fill:#840000; fill-opacity:0.0; 
stroke:#840000; stroke-width:120; stroke-opacity:1; 
stroke-linecap:round; stroke-linejoin:round;">
<text x="103540" y="76320"
textLength="2340" font-size="780" lengthAdjust="spacingAndGlyphs"
text-anchor="start" opacity="0">Rev: </text>
<path d="M104090 76290
L103890 76010
" />
<path d="M103750 76290
L103750 75700
L103980 75700
L104030 75730
L104060 75760
L104090 75810
L104090 75900
L104060 75950
L104030 75980
L103980 76010
L103750 76010
" />
<path d="M104570 76260
L104510 76290
L104400 76290
L104340 76260
L104320 76210
L104320 75980
L104340 75930
L104400 75900
L104510 75900
L104570 75930
L104600 75980
L104600 76040
L104320 76100
" />
<path d="M104790 75900
L104930 76290
L105070 75900
" />
<path d="M105300 76240
L105330 76260
L105300 76290
L105270 76260
L105300 76240
L105300 76290
" />
<path d="M105300 75930
L105330 75950
L105300 75980
L105270 75950
L105300 75930
L105300 75980
" />
</g>
<g style="fill:#840000; fill-opacity:0.0; 
stroke:#840000; stroke-width:100; stroke-opacity:1; 
stroke-linecap:round; stroke-linejoin:round;">
</g>
<g style="fill:#840000; fill-opacity:0.0; 
stroke:#840000; stroke-width:60; stroke-opacity:1; 
stroke-linecap:round; stroke-linejoin:round;">
<text x="70080" y="76320"
textLength="3780" font-size="780" lengthAdjust="spacingAndGlyphs"
text-anchor="start" opacity="0">Size: A4</text>
<path d="M70220 76260
L70300 76290
L70440 76290
L70500 76260
L70530 76240
L70550 76180
L70550 76120
L70530 76070
L70500 76040
L70440 76010
L70330 75980
L70270 75950
L70250 75930
L70220 75870
L70220 75810
L70250 75760
L70270 75730
L70330 75700
L70470 75700
L70550 75730
" />
<path d="M70810 76290
L70810 75900
" />
<path d="M70810 75700
L70780 75730
L70810 75760
L70840 75730
L70810 75700
L70810 75760
" />
<path d="M71030 75900
L71340 75900
L71030 76290
L71340 76290
" />
<path d="M71790 76260
L71730 76290
L71620 76290
L71570 76260
L71540 76210
L71540 75980
L71570 75930
L71620 75900
L71730 75900
L71790 75930
L71820 75980
L71820 76040
L71540 76100
" />
<path d="M72070 76240
L72100 76260
L72070 76290
L72040 76260
L72070 76240
L72070 76290
" />
<path d="M72070 75930
L72100 75950
L72070 75980
L72040 75950
L72070 75930
L72070 75980
" />
<path d="M72770 76120
L73060 76120
" />
<path d="M72720 76290
L72910 75700
L73110 76290
" />
<path d="M73560 75900
L73560 76290
" />
<path d="M73420 75670
L73280 76100
L73650 76100
" />
</g>
<g style="fill:#840000; fill-opacity:0.0; 
stroke:#840000; stroke-width:100; stroke-opacity:1; 
stroke-linecap:round; stroke-linejoin:round;">
</g>
<g style="fill:#840000; fill-opacity:0.0; 
stroke:#840000; stroke-width:60; stroke-opacity:1; 
stroke-linecap:round; stroke-linejoin:round;">
<text x="103540" y="77420"
textLength="3350" font-size="780" lengthAdjust="spacingAndGlyphs"
text-anchor="start" opacity="0">Id: 3/3</text>
<path d="M103710 77390
L103710 76800
" />
<path d="M104240 77390
L104240 76800
" />
<path d="M104240 77360
L104180 77390
L104070 77390
L104010 77360
L103990 77340
L103960 77280
L103960 77110
L103990 77050
L104010 77030
L104070 77000
L104180 77000
L104240 77030
" />
<path d="M104520 77340
L104550 77360
L104520 77390
L104490 77360
L104520 77340
L104520 77390
" />
<path d="M104520 77030
L104550 77050
L104520 77080
L104490 77050
L104520 77030
L104520 77080
" />
<path d="M105190 76800
L105560 76800
L105360 77030
L105450 77030
L105500 77050
L105530 77080
L105560 77140
L105560 77280
L105530 77340
L105500 77360
L105450 77390
L105280 77390
L105220 77360
L105190 77340
" />
<path d="M106230 76770
L105730 77530
" />
<path d="M106370 76800
L106740 76800
L106540 77030
L106630 77030
L106680 77050
L106710 77080
L106740 77140
L106740 77280
L106710 77340
L106680 77360
L106630 77390
L106460 77390
L106400 77360
L106370 77340
" />
</g>
<g style="fill:#840000; fill-opacity:0.0; 
stroke:#840000; stroke-width:100; stroke-opacity:1; 
stroke-linecap:round; stroke-linejoin:round;">
</g>
<g style="fill:#840000; fill-opacity:0.0; 
stroke:#840000; stroke-width:60; stroke-opacity:1; 
stroke-linecap:round; stroke-linejoin:round;">
<path d="M69690 73820
L112210 73820
" />
</g>
<g style="fill:#840000; fill-opacity:0.0; 
stroke:#840000; stroke-width:100; stroke-opacity:1; 
stroke-linecap:round; stroke-linejoin:round;">
</g>
<g style="fill:#840000; fill-opacity:0.0; 
stroke:#840000; stroke-width:160; stroke-opacity:1; 
stroke-linecap:round; stroke-linejoin:round;">
<text x="70080" y="74920"
textLength="3710" font-size="1050" lengthAdjust="spacingAndGlyphs"
text-anchor="start" opacity="0">Title: </text>
<path d="M70360 74090
L70810 74090
" />
<path d="M70480 74880
L70580 74090
" />
<path d="M70970 74880
L71040 74360
" />
<path d="M71070 74090
L71030 74130
L71060 74170
L71110 74130
L71070 74090
L71060 74170
" />
<path d="M71300 74360
L71600 74360
" />
<path d="M71450 74090
L71360 74770
L71390 74840
L71460 74880
L71540 74880
" />
<path d="M71910 74880
L71840 74840
L71820 74770
L71900 74090
" />
<path d="M72520 74840
L72440 74880
L72290 74880
L72220 74840
L72190 74770
L72230 74470
L72280 74390
L72360 74360
L72510 74360
L72580 74390
L72610 74470
L72600 74540
L72210 74620
" />
<path d="M72900 74810
L72930 74840
L72890 74880
L72860 74840
L72900 74810
L72890 74880
" />
<path d="M72950 74390
L72990 74430
L72940 74470
L72910 74430
L72950 74390
L72940 74470
" />
</g>
<g style="fill:#840000; fill-opacity:0.0; 
stroke:#840000; stroke-width:100; stroke-opacity:1; 
stroke-linecap:round; stroke-linejoin:round;">
</g>
<g style="fill:#840000; fill-opacity:0.0; 
stroke:#840000; stroke-width:60; stroke-opacity:1; 
stroke-linecap:round; stroke-linejoin:round;">
<text x="70080" y="73400"
textLength="14650" font-size="780" lengthAdjust="spacingAndGlyphs"
text-anchor="start" opacity="0">File: RotaryEncoderNoSwitch.sch</text>
<path d="M70440 73060
L70250 73060
" />
<path d="M70250 73370
L70250 72780
L70530 72780
" />
<path d="M70750 73370
L70750 72980
" />
<path d="M70750 72780
L70720 72810
L70750 72840
L70780 72810
L70750 72780
L70750 72840
" />
<path d="M71120 73370
L71060 73340
L71030 73290
L71030 72780
" />
<path d="M71570 73340
L71510 73370
L71400 73370
L71340 73340
L71310 73290
L71310 73060
L71340 73010
L71400 72980
L71510 72980
L71570 73010
L71590 73060
L71590 73120
L71310 73180
" />
<path d="M71850 73320
L71880 73340
L71850 73370
L71820 73340
L71850 73320
L71850 73370
" />
<path d="M71850 73010
L71880 73030
L71850 73060
L71820 73030
L71850 73010
L71850 73060
" />
<path d="M72910 73370
L72720 73090
" />
<path d="M72580 73370
L72580 72780
L72800 72780
L72860 72810
L72890 72840
L72910 72890
L72910 72980
L72890 73030
L72860 73060
L72800 73090
L72580 73090
" />
<path d="M73250 73370
L73200 73340
L73170 73320
L73140 73260
L73140 73090
L73170 73030
L73200 73010
L73250 72980
L73340 72980
L73390 73010
L73420 73030
L73450 73090
L73450 73260
L73420 73320
L73390 73340
L73340 73370
L73250 73370
" />
<path d="M73620 72980
L73840 72980
" />
<path d="M73700 72780
L73700 73290
L73730 73340
L73790 73370
L73840 73370
" />
<path d="M74290 73370
L74290 73060
L74260 73010
L74210 72980
L74090 72980
L74040 73010
" />
<path d="M74290 73340
L74240 73370
L74090 73370
L74040 73340
L74010 73290
L74010 73230
L74040 73180
L74090 73150
L74240 73150
L74290 73120
" />
<path d="M74570 73370
L74570 72980
" />
<path d="M74570 73090
L74600 73030
L74630 73010
L74680 72980
L74740 72980
" />
<path d="M74880 72980
L75020 73370
" />
<path d="M75160 72980
L75020 73370
L74970 73510
L74940 73540
L74880 73570
" />
<path d="M75390 73060
L75580 73060
" />
<path d="M75670 73370
L75390 73370
L75390 72780
L75670 72780
" />
<path d="M75920 72980
L75920 73370
" />
<path d="M75920 73030
L75950 73010
L76010 72980
L76090 72980
L76150 73010
L76170 73060
L76170 73370
" />
<path d="M76710 73340
L76650 73370
L76540 73370
L76480 73340
L76450 73320
L76430 73260
L76430 73090
L76450 73030
L76480 73010
L76540 72980
L76650 72980
L76710 73010
" />
<path d="M77040 73370
L76990 73340
L76960 73320
L76930 73260
L76930 73090
L76960 73030
L76990 73010
L77040 72980
L77130 72980
L77190 73010
L77210 73030
L77240 73090
L77240 73260
L77210 73320
L77190 73340
L77130 73370
L77040 73370
" />
<path d="M77750 73370
L77750 72780
" />
<path d="M77750 73340
L77690 73370
L77580 73370
L77520 73340
L77490 73320
L77470 73260
L77470 73090
L77490 73030
L77520 73010
L77580 72980
L77690 72980
L77750 73010
" />
<path d="M78250 73340
L78200 73370
L78080 73370
L78030 73340
L78000 73290
L78000 73060
L78030 73010
L78080 72980
L78200 72980
L78250 73010
L78280 73060
L78280 73120
L78000 73180
" />
<path d="M78530 73370
L78530 72980
" />
<path d="M78530 73090
L78560 73030
L78590 73010
L78650 72980
L78700 72980
" />
<path d="M78900 73370
L78900 72780
L79240 73370
L79240 72780
" />
<path d="M79600 73370
L79550 73340
L79520 73320
L79490 73260
L79490 73090
L79520 73030
L79550 73010
L79600 72980
L79690 72980
L79740 73010
L79770 73030
L79800 73090
L79800 73260
L79770 73320
L79740 73340
L79690 73370
L79600 73370
" />
<path d="M80020 73340
L80110 73370
L80250 73370
L80300 73340
L80330 73320
L80360 73260
L80360 73200
L80330 73150
L80300 73120
L80250 73090
L80140 73060
L80080 73030
L80050 73010
L80020 72950
L80020 72890
L80050 72840
L80080 72810
L80140 72780
L80280 72780
L80360 72810
" />
<path d="M80560 72980
L80670 73370
L80780 73090
L80890 73370
L81010 72980
" />
<path d="M81230 73370
L81230 72980
" />
<path d="M81230 72780
L81200 72810
L81230 72840
L81260 72810
L81230 72780
L81230 72840
" />
<path d="M81430 72980
L81650 72980
" />
<path d="M81510 72780
L81510 73290
L81540 73340
L81600 73370
L81650 73370
" />
<path d="M82100 73340
L82050 73370
L81930 73370
L81880 73340
L81850 73320
L81820 73260
L81820 73090
L81850 73030
L81880 73010
L81930 72980
L82050 72980
L82100 73010
" />
<path d="M82350 73370
L82350 72780
" />
<path d="M82610 73370
L82610 73060
L82580 73010
L82520 72980
L82440 72980
L82380 73010
L82350 73030
" />
<path d="M82890 73320
L82920 73340
L82890 73370
L82860 73340
L82890 73320
L82890 73370
" />
<path d="M83140 73340
L83200 73370
L83310 73370
L83370 73340
L83390 73290
L83390 73260
L83370 73200
L83310 73180
L83230 73180
L83170 73150
L83140 73090
L83140 73060
L83170 73010
L83230 72980
L83310 72980
L83370 73010
" />
<path d="M83900 73340
L83840 73370
L83730 73370
L83680 73340
L83650 73320
L83620 73260
L83620 73090
L83650 73030
L83680 73010
L83730 72980
L83840 72980
L83900 73010
" />
<path d="M84150 73370
L84150 72780
" />
<path d="M84410 73370
L84410 73060
L84380 73010
L84320 72980
L84240 72980
L84180 73010
L84150 73030
" />
</g>
<g style="fill:#840000; fill-opacity:0.0; 
stroke:#840000; stroke-width:100; stroke-opacity:1; 
stroke-linecap:round; stroke-linejoin:round;">
</g>
<g style="fill:#840000; fill-opacity:0.0; 
stroke:#840000; stroke-width:60; stroke-opacity:1; 
stroke-linecap:round; stroke-linejoin:round;">
<path d="M69690 71460
L112210 71460
" />
</g>
<g style="fill:#840000; fill-opacity:0.0; 
stroke:#840000; stroke-width:100; stroke-opacity:1; 
stroke-linecap:round; stroke-linejoin:round;">
</g>
<g style="fill:#840000; fill-opacity:0.0; 
stroke:#840000; stroke-width:60; stroke-opacity:1; 
stroke-linecap:round; stroke-linejoin:round;">
<text x="70080" y="72340"
textLength="25370" font-size="780" lengthAdjust="spacingAndGlyphs"
text-anchor="start" opacity="0">Sheet: /LED_Controller_Module/RotaryEncoderNoSwitch/</text>
<path d="M70220 72280
L70300 72310
L70440 72310
L70500 72280
L70530 72260
L70550 72200
L70550 72140
L70530 72090
L70500 72060
L70440 72030
L70330 72000
L70270 71970
L70250 71950
L70220 71890
L70220 71830
L70250 71780
L70270 71750
L70330 71720
L70470 71720
L70550 71750
" />
<path d="M70810 72310
L70810 71720
" />
<path d="M71060 72310
L71060 72000
L71030 71950
L70980 71920
L70890 71920
L70840 71950
L70810 71970
" />
<path d="M71570 72280
L71510 72310
L71400 72310
L71340 72280
L71310 72230
L71310 72000
L71340 71950
L71400 71920
L71510 71920
L71570 71950
L71590 72000
L71590 72060
L71310 72120
" />
<path d="M72070 72280
L72020 72310
L71900 72310
L71850 72280
L71820 72230
L71820 72000
L71850 71950
L71900 71920
L72020 71920
L72070 71950
L72100 72000
L72100 72060
L71820 72120
" />
<path d="M72270 71920
L72490 71920
" />
<path d="M72350 71720
L72350 72230
L72380 72280
L72440 72310
L72490 72310
" />
<path d="M72690 72260
L72720 72280
L72690 72310
L72660 72280
L72690 72260
L72690 72310
" />
<path d="M72690 71950
L72720 71970
L72690 72000
L72660 71970
L72690 71950
L72690 72000
" />
<path d="M73840 71690
L73340 72450
" />
<path d="M74320 72310
L74040 72310
L74040 71720
" />
<path d="M74520 72000
L74710 72000
" />
<path d="M74800 72310
L74520 72310
L74520 71720
L74800 71720
" />
<path d="M75050 72310
L75050 71720
L75190 71720
L75270 71750
L75330 71810
L75360 71860
L75390 71970
L75390 72060
L75360 72170
L75330 72230
L75270 72280
L75190 72310
L75050 72310
" />
<path d="M75500 72370
L75950 72370
" />
<path d="M76430 72260
L76400 72280
L76310 72310
L76260 72310
L76170 72280
L76120 72230
L76090 72170
L76060 72060
L76060 71970
L76090 71860
L76120 71810
L76170 71750
L76260 71720
L76310 71720
L76400 71750
L76430 71780
" />
<path d="M76760 72310
L76710 72280
L76680 72260
L76650 72200
L76650 72030
L76680 71970
L76710 71950
L76760 71920
L76850 71920
L76900 71950
L76930 71970
L76960 72030
L76960 72200
L76930 72260
L76900 72280
L76850 72310
L76760 72310
" />
<path d="M77210 71920
L77210 72310
" />
<path d="M77210 71970
L77240 71950
L77300 71920
L77380 71920
L77440 71950
L77470 72000
L77470 72310
" />
<path d="M77660 71920
L77890 71920
" />
<path d="M77750 71720
L77750 72230
L77780 72280
L77830 72310
L77890 72310
" />
<path d="M78080 72310
L78080 71920
" />
<path d="M78080 72030
L78110 71970
L78140 71950
L78200 71920
L78250 71920
" />
<path d="M78530 72310
L78480 72280
L78450 72260
L78420 72200
L78420 72030
L78450 71970
L78480 71950
L78530 71920
L78620 71920
L78670 71950
L78700 71970
L78730 72030
L78730 72200
L78700 72260
L78670 72280
L78620 72310
L78530 72310
" />
<path d="M79070 72310
L79010 72280
L78980 72230
L78980 71720
" />
<path d="M79380 72310
L79320 72280
L79290 72230
L79290 71720
" />
<path d="M79830 72280
L79770 72310
L79660 72310
L79600 72280
L79570 72230
L79570 72000
L79600 71950
L79660 71920
L79770 71920
L79830 71950
L79850 72000
L79850 72060
L79570 72120
" />
<path d="M80110 72310
L80110 71920
" />
<path d="M80110 72030
L80140 71970
L80160 71950
L80220 71920
L80280 71920
" />
<path d="M80330 72370
L80780 72370
" />
<path d="M80920 72310
L80920 71720
L81120 72140
L81320 71720
L81320 72310
" />
<path d="M81680 72310
L81620 72280
L81600 72260
L81570 72200
L81570 72030
L81600 71970
L81620 71950
L81680 71920
L81760 71920
L81820 71950
L81850 71970
L81880 72030
L81880 72200
L81850 72260
L81820 72280
L81760 72310
L81680 72310
" />
<path d="M82380 72310
L82380 71720
" />
<path d="M82380 72280
L82330 72310
L82210 72310
L82160 72280
L82130 72260
L82100 72200
L82100 72030
L82130 71970
L82160 71950
L82210 71920
L82330 71920
L82380 71950
" />
<path d="M82920 71920
L82920 72310
" />
<path d="M82660 71920
L82660 72230
L82690 72280
L82750 72310
L82830 72310
L82890 72280
L82920 72260
" />
<path d="M83280 72310
L83230 72280
L83200 72230
L83200 71720
" />
<path d="M83730 72280
L83680 72310
L83560 72310
L83510 72280
L83480 72230
L83480 72000
L83510 71950
L83560 71920
L83680 71920
L83730 71950
L83760 72000
L83760 72060
L83480 72120
" />
<path d="M84430 71690
L83930 72450
" />
<path d="M84970 72310
L84770 72030
" />
<path d="M84630 72310
L84630 71720
L84860 71720
L84910 71750
L84940 71780
L84970 71830
L84970 71920
L84940 71970
L84910 72000
L84860 72030
L84630 72030
" />
<path d="M85300 72310
L85250 72280
L85220 72260
L85190 72200
L85190 72030
L85220 71970
L85250 71950
L85300 71920
L85390 71920
L85450 71950
L85470 71970
L85500 72030
L85500 72200
L85470 72260
L85450 72280
L85390 72310
L85300 72310
" />
<path d="M85670 71920
L85890 71920
" />
<path d="M85750 71720
L85750 72230
L85780 72280
L85840 72310
L85890 72310
" />
<path d="M86340 72310
L86340 72000
L86320 71950
L86260 71920
L86150 71920
L86090 71950
" />
<path d="M86340 72280
L86290 72310
L86150 72310
L86090 72280
L86060 72230
L86060 72170
L86090 72120
L86150 72090
L86290 72090
L86340 72060
" />
<path d="M86630 72310
L86630 71920
" />
<path d="M86630 72030
L86650 71970
L86680 71950
L86740 71920
L86790 71920
" />
<path d="M86930 71920
L87070 72310
" />
<path d="M87220 71920
L87070 72310
L87020 72450
L86990 72480
L86930 72510
" />
<path d="M87440 72000
L87640 72000
" />
<path d="M87720 72310
L87440 72310
L87440 71720
L87720 71720
" />
<path d="M87970 71920
L87970 72310
" />
<path d="M87970 71970
L88000 71950
L88060 71920
L88140 71920
L88200 71950
L88230 72000
L88230 72310
" />
<path d="M88760 72280
L88700 72310
L88590 72310
L88540 72280
L88510 72260
L88480 72200
L88480 72030
L88510 71970
L88540 71950
L88590 71920
L88700 71920
L88760 71950
" />
<path d="M89100 72310
L89040 72280
L89010 72260
L88990 72200
L88990 72030
L89010 71970
L89040 71950
L89100 71920
L89180 71920
L89240 71950
L89270 71970
L89290 72030
L89290 72200
L89270 72260
L89240 72280
L89180 72310
L89100 72310
" />
<path d="M89800 72310
L89800 71720
" />
<path d="M89800 72280
L89740 72310
L89630 72310
L89580 72280
L89550 72260
L89520 72200
L89520 72030
L89550 71970
L89580 71950
L89630 71920
L89740 71920
L89800 71950
" />
<path d="M90310 72280
L90250 72310
L90140 72310
L90080 72280
L90050 72230
L90050 72000
L90080 71950
L90140 71920
L90250 71920
L90310 71950
L90330 72000
L90330 72060
L90050 72120
" />
<path d="M90590 72310
L90590 71920
" />
<path d="M90590 72030
L90610 71970
L90640 71950
L90700 71920
L90760 71920
" />
<path d="M90950 72310
L90950 71720
L91290 72310
L91290 71720
" />
<path d="M91650 72310
L91600 72280
L91570 72260
L91540 72200
L91540 72030
L91570 71970
L91600 71950
L91650 71920
L91740 71920
L91790 71950
L91820 71970
L91850 72030
L91850 72200
L91820 72260
L91790 72280
L91740 72310
L91650 72310
" />
<path d="M92080 72280
L92160 72310
L92300 72310
L92360 72280
L92380 72260
L92410 72200
L92410 72140
L92380 72090
L92360 72060
L92300 72030
L92190 72000
L92130 71970
L92100 71950
L92080 71890
L92080 71830
L92100 71780
L92130 71750
L92190 71720
L92330 71720
L92410 71750
" />
<path d="M92610 71920
L92720 72310
L92830 72030
L92950 72310
L93060 71920
" />
<path d="M93280 72310
L93280 71920
" />
<path d="M93280 71720
L93260 71750
L93280 71780
L93310 71750
L93280 71720
L93280 71780
" />
<path d="M93480 71920
L93710 71920
" />
<path d="M93560 71720
L93560 72230
L93590 72280
L93650 72310
L93710 72310
" />
<path d="M94150 72280
L94100 72310
L93990 72310
L93930 72280
L93900 72260
L93870 72200
L93870 72030
L93900 71970
L93930 71950
L93990 71920
L94100 71920
L94150 71950
" />
<path d="M94410 72310
L94410 71720
" />
<path d="M94660 72310
L94660 72000
L94630 71950
L94580 71920
L94490 71920
L94440 71950
L94410 71970
" />
<path d="M95360 71690
L94860 72450
" />
</g>
<g style="fill:#840000; fill-opacity:0.0; 
stroke:#840000; stroke-width:100; stroke-opacity:1; 
stroke-linecap:round; stroke-linejoin:round;">
</g>
<g style="fill:#840000; fill-opacity:0.0; 
stroke:#840000; stroke-width:60; stroke-opacity:1; 
stroke-linecap:round; stroke-linejoin:round;">
<path d="M77560 75400
L77560 76580
" />
</g>
<g style="fill:#840000; fill-opacity:0.0; 
stroke:#840000; stroke-width:100; stroke-opacity:1; 
stroke-linecap:round; stroke-linejoin:round;">
</g>
<g style="fill:#840000; fill-opacity:0.0; 
stroke:#840000; stroke-width:60; stroke-opacity:1; 
stroke-linecap:round; stroke-linejoin:round;">
<path d="M102760 75400
L102760 77960
" />
</g>
<g style="fill:#840000; fill-opacity:0.0; 
stroke:#840000; stroke-width:0; stroke-opacity:1; 
stroke-linecap:round; stroke-linejoin:round;">
<g >
</g>
<g style="fill:#FFFFC2; fill-opacity:0.0; 
stroke:#FFFFC2; stroke-width:0; stroke-opacity:1; 
stroke-linecap:round; stroke-linejoin:round;">
</g>
<g style="fill:#FFFFC2; fill-opacity:0.6; 
stroke:#FFFFC2; stroke-width:0; stroke-opacity:1; 
stroke-linecap:round; stroke-linejoin:round;">
<rect x="57500" y="36000" width="4000" height="4000" rx="0" />
</g>
<g style="fill:#840000; fill-opacity:0.6; 
stroke:#840000; stroke-width:0; stroke-opacity:1; 
stroke-linecap:round; stroke-linejoin:round;">
</g>
<g style="fill:#840000; fill-opacity:0.0; 
stroke:#840000; stroke-width:100; stroke-opacity:1; 
stroke-linecap:round; stroke-linejoin:round;">
<rect x="57500" y="36000" width="4000" height="4000" rx="0" />
<path d="M60600 38148.1 A1080 1080 0.0 0 0 58440 38148.1 " />
</g>
<g style="fill:#840000; fill-opacity:1.0; 
stroke:#840000; stroke-width:60; stroke-opacity:1; 
stroke-linecap:round; stroke-linejoin:round;">
<circle cx="59500" cy="39500" r="100" /> 
</g>
<g style="fill:#840000; fill-opacity:0.0; 
stroke:#840000; stroke-width:100; stroke-opacity:1; 
stroke-linecap:round; stroke-linejoin:round;">
<circle cx="59500" cy="38150" r="750" /> 
<rect x="57500" y="36000" width="4000" height="4000" rx="0" />
<path style="fill:#840000; fill-opacity:0.0; 
stroke:#840000; stroke-width:100; stroke-opacity:1; 
stroke-linecap:round; stroke-linejoin:round;fill:none"
d="M 60200,38250
58800,38250
" /> 
<path style="fill:#840000; fill-opacity:0.0; 
stroke:#840000; stroke-width:100; stroke-opacity:1; 
stroke-linecap:round; stroke-linejoin:round;fill:none"
d="M 60200,38150
58800,38150
" /> 
<path style="fill:#840000; fill-opacity:0.0; 
stroke:#840000; stroke-width:100; stroke-opacity:1; 
stroke-linecap:round; stroke-linejoin:round;fill:none"
d="M 58800,38050
60200,38050
" /> 
</g>
<g style="fill:#840000; fill-opacity:0.0; 
stroke:#840000; stroke-width:60; stroke-opacity:1; 
stroke-linecap:round; stroke-linejoin:round;">
<path style="fill:#840000; fill-opacity:0.0; 
stroke:#840000; stroke-width:60; stroke-opacity:1; 
stroke-linecap:round; stroke-linejoin:round;fill:none"
d="M 60500,40000
60500,39500
60300,39500
" /> 
<path style="fill:#840000; fill-opacity:0.0; 
stroke:#840000; stroke-width:60; stroke-opacity:1; 
stroke-linecap:round; stroke-linejoin:round;fill:none"
d="M 58500,40000
58500,39500
58700,39500
" /> 
</g>
<g style="fill:#840000; fill-opacity:0.0; 
stroke:#840000; stroke-width:100; stroke-opacity:1; 
stroke-linecap:round; stroke-linejoin:round;">
<path style="fill:#840000; fill-opacity:0.0; 
stroke:#840000; stroke-width:100; stroke-opacity:1; 
stroke-linecap:round; stroke-linejoin:round;fill:none"
d="M 60700,37900
60600,38200
60450,37950
" /> 
<path style="fill:#840000; fill-opacity:0.0; 
stroke:#840000; stroke-width:100; stroke-opacity:1; 
stroke-linecap:round; stroke-linejoin:round;fill:none"
d="M 58350,37900
58450,38200
58600,37950
" /> 
</g>
<g style="fill:#840000; fill-opacity:0.0; 
stroke:#840000; stroke-width:60; stroke-opacity:1; 
stroke-linecap:round; stroke-linejoin:round;">
<path style="fill:#840000; fill-opacity:0.0; 
stroke:#840000; stroke-width:60; stroke-opacity:1; 
stroke-linecap:round; stroke-linejoin:round;fill:none"
d="M 59500,40000
59500,39500
59900,39500
60300,39300
" /> 
<path style="fill:#840000; fill-opacity:0.0; 
stroke:#840000; stroke-width:60; stroke-opacity:1; 
stroke-linecap:round; stroke-linejoin:round;fill:none"
d="M 59500,39700
59500,39500
59100,39500
58700,39300
" /> 
<path d="M58500 40000
L58500 41000
" />
<g transform="rotate(-90 58400 40500)">
<text x="58400" y="40500"
textLength="540" font-size="660" lengthAdjust="spacingAndGlyphs"
text-anchor="middle" opacity="0">1</text>
</g>
<path d="M58370 40350
L58370 40640
" />
<path d="M58370 40500
L57870 40500
L57940 40540
L57990 40590
L58010 40640
" />
<path d="M59500 40000
L59500 41000
" />
<g transform="rotate(-90 59400 40500)">
<text x="59400" y="40500"
textLength="540" font-size="660" lengthAdjust="spacingAndGlyphs"
text-anchor="middle" opacity="0">2</text>
</g>
<path d="M58920 40640
L58900 40610
L58870 40570
L58870 40450
L58900 40400
L58920 40380
L58970 40350
L59010 40350
L59090 40380
L59370 40660
L59370 40350
" />
<path d="M60500 40000
L60500 41000
" />
<g transform="rotate(-90 60400 40500)">
<text x="60400" y="40500"
textLength="540" font-size="660" lengthAdjust="spacingAndGlyphs"
text-anchor="middle" opacity="0">3</text>
</g>
<path d="M59870 40660
L59870 40350
L60060 40520
L60060 40450
L60090 40400
L60110 40380
L60160 40350
L60280 40350
L60320 40380
L60350 40400
L60370 40450
L60370 40590
L60350 40640
L60320 40660
" />
</g>
<g style="fill:#008484; fill-opacity:0.0; 
stroke:#008484; stroke-width:60; stroke-opacity:1; 
stroke-linecap:round; stroke-linejoin:round;">
<text x="59540" y="34970"
textLength="1580" font-size="660" lengthAdjust="spacingAndGlyphs"
text-anchor="middle" opacity="0">SW2</text>
<path d="M58870 34920
L58940 34940
L59060 34940
L59110 34920
L59130 34890
L59150 34850
L59150 34800
L59130 34750
L59110 34730
L59060 34700
L58960 34680
L58920 34660
L58890 34630
L58870 34580
L58870 34540
L58890 34490
L58920 34470
L58960 34440
L59080 34440
L59150 34470
" />
<path d="M59320 34440
L59440 34940
L59540 34580
L59630 34940
L59750 34440
" />
<path d="M59920 34490
L59940 34470
L59990 34440
L60110 34440
L60150 34470
L60180 34490
L60200 34540
L60200 34580
L60180 34660
L59890 34940
L60200 34940
" />
<text x="59400" y="35720"
textLength="5800" font-size="660" lengthAdjust="spacingAndGlyphs"
text-anchor="middle" opacity="0">Rotary_Encoder</text>
<path d="M56930 35690
L56760 35450
" />
<path d="M56650 35690
L56650 35190
L56840 35190
L56880 35220
L56910 35240
L56930 35290
L56930 35360
L56910 35410
L56880 35430
L56840 35450
L56650 35450
" />
<path d="M57220 35690
L57170 35670
L57150 35640
L57120 35600
L57120 35450
L57150 35410
L57170 35380
L57220 35360
L57290 35360
L57340 35380
L57360 35410
L57380 35450
L57380 35600
L57360 35640
L57340 35670
L57290 35690
L57220 35690
" />
<path d="M57530 35360
L57720 35360
" />
<path d="M57600 35190
L57600 35620
L57620 35670
L57670 35690
L57720 35690
" />
<path d="M58100 35690
L58100 35430
L58070 35380
L58030 35360
L57930 35360
L57880 35380
" />
<path d="M58100 35670
L58050 35690
L57930 35690
L57880 35670
L57860 35620
L57860 35570
L57880 35520
L57930 35500
L58050 35500
L58100 35480
" />
<path d="M58340 35690
L58340 35360
" />
<path d="M58340 35450
L58360 35410
L58380 35380
L58430 35360
L58480 35360
" />
<path d="M58600 35360
L58720 35690
" />
<path d="M58840 35360
L58720 35690
L58670 35810
L58650 35830
L58600 35860
" />
<path d="M58910 35740
L59290 35740
" />
<path d="M59410 35430
L59570 35430
" />
<path d="M59650 35690
L59410 35690
L59410 35190
L59650 35190
" />
<path d="M59860 35360
L59860 35690
" />
<path d="M59860 35410
L59880 35380
L59930 35360
L60000 35360
L60050 35380
L60070 35430
L60070 35690
" />
<path d="M60530 35670
L60480 35690
L60380 35690
L60340 35670
L60310 35640
L60290 35600
L60290 35450
L60310 35410
L60340 35380
L60380 35360
L60480 35360
L60530 35380
" />
<path d="M60810 35690
L60760 35670
L60740 35640
L60720 35600
L60720 35450
L60740 35410
L60760 35380
L60810 35360
L60880 35360
L60930 35380
L60950 35410
L60980 35450
L60980 35600
L60950 35640
L60930 35670
L60880 35690
L60810 35690
" />
<path d="M61410 35690
L61410 35190
" />
<path d="M61410 35670
L61360 35690
L61260 35690
L61220 35670
L61190 35640
L61170 35600
L61170 35450
L61190 35410
L61220 35380
L61260 35360
L61360 35360
L61410 35380
" />
<path d="M61840 35670
L61790 35690
L61690 35690
L61650 35670
L61620 35620
L61620 35430
L61650 35380
L61690 35360
L61790 35360
L61840 35380
L61860 35430
L61860 35480
L61620 35520
" />
<path d="M62070 35690
L62070 35360
" />
<path d="M62070 35450
L62100 35410
L62120 35380
L62170 35360
L62220 35360
" />
</g>
</g>
<g style="fill:#008484; fill-opacity:0.0; 
stroke:#008484; stroke-width:0; stroke-opacity:1; 
stroke-linecap:round; stroke-linejoin:round;">
<g >
</g>
<g style="fill:#840000; fill-opacity:0.0; 
stroke:#840000; stroke-width:0; stroke-opacity:1; 
stroke-linecap:round; stroke-linejoin:round;">
</g>
<g style="fill:#840000; fill-opacity:0.0; 
stroke:#840000; stroke-width:60; stroke-opacity:1; 
stroke-linecap:round; stroke-linejoin:round;">
<path style="fill:#840000; fill-opacity:0.0; 
stroke:#840000; stroke-width:60; stroke-opacity:1; 
stroke-linecap:round; stroke-linejoin:round;fill:none"
d="M 59500,51000
59500,51500
60000,51500
59500,52000
59000,51500
59500,51500
" /> 
</g>
<g style="fill:#008484; fill-opacity:0.0; 
stroke:#008484; stroke-width:60; stroke-opacity:1; 
stroke-linecap:round; stroke-linejoin:round;">
<text x="59550" y="53000"
textLength="2060" font-size="660" lengthAdjust="spacingAndGlyphs"
text-anchor="middle" opacity="0">GNDS</text>
<path d="M58930 52500
L58880 52470
L58810 52470
L58740 52500
L58690 52540
L58660 52590
L58640 52690
L58640 52760
L58660 52850
L58690 52900
L58740 52950
L58810 52970
L58850 52970
L58930 52950
L58950 52920
L58950 52760
L58850 52760
" />
<path d="M59160 52970
L59160 52470
L59450 52970
L59450 52470
" />
<path d="M59690 52970
L59690 52470
L59810 52470
L59880 52500
L59930 52540
L59950 52590
L59970 52690
L59970 52760
L59950 52850
L59930 52900
L59880 52950
L59810 52970
L59690 52970
" />
<path d="M60160 52950
L60240 52970
L60350 52970
L60400 52950
L60430 52920
L60450 52880
L60450 52830
L60430 52780
L60400 52760
L60350 52730
L60260 52710
L60210 52690
L60190 52660
L60160 52610
L60160 52570
L60190 52520
L60210 52500
L60260 52470
L60380 52470
L60450 52500
" />
</g>
</g>
<g style="fill:#008484; fill-opacity:0.0; 
stroke:#008484; stroke-width:0; stroke-opacity:1; 
stroke-linecap:round; stroke-linejoin:round;">
<g >
</g>
<g style="fill:#840000; fill-opacity:0.0; 
stroke:#840000; stroke-width:0; stroke-opacity:1; 
stroke-linecap:round; stroke-linejoin:round;">
</g>
<g style="fill:#840000; fill-opacity:0.0; 
stroke:#840000; stroke-width:100; stroke-opacity:1; 
stroke-linecap:round; stroke-linejoin:round;">
<rect x="53350" y="40500" width="800" height="2000" rx="0" />
</g>
<g style="fill:#840000; fill-opacity:0.0; 
stroke:#840000; stroke-width:60; stroke-opacity:1; 
stroke-linecap:round; stroke-linejoin:round;">
<path d="M53750 40500
L53750 40000
" />
<path d="M53750 42500
L53750 43000
" />
</g>
<g style="fill:#008484; fill-opacity:0.0; 
stroke:#008484; stroke-width:60; stroke-opacity:1; 
stroke-linecap:round; stroke-linejoin:round;">
<text x="54970" y="41310"
textLength="1040" font-size="660" lengthAdjust="spacingAndGlyphs"
text-anchor="middle" opacity="0">R2</text>
<path d="M54880 41280
L54720 41040
" />
<path d="M54600 41280
L54600 40780
L54790 40780
L54830 40810
L54860 40830
L54880 40880
L54880 40950
L54860 41000
L54830 41020
L54790 41040
L54600 41040
" />
<path d="M55070 40830
L55100 40810
L55140 40780
L55260 40780
L55310 40810
L55330 40830
L55360 40880
L55360 40920
L55330 41000
L55050 41280
L55360 41280
" />
<text x="55200" y="42220"
textLength="1510" font-size="660" lengthAdjust="spacingAndGlyphs"
text-anchor="middle" opacity="0">10K</text>
<path d="M54850 42190
L54560 42190
" />
<path d="M54710 42190
L54710 41690
L54660 41760
L54610 41810
L54560 41830
" />
<path d="M55160 41690
L55210 41690
L55250 41720
L55280 41740
L55300 41790
L55330 41880
L55330 42000
L55300 42100
L55280 42140
L55250 42170
L55210 42190
L55160 42190
L55110 42170
L55090 42140
L55060 42100
L55040 42000
L55040 41880
L55060 41790
L55090 41740
L55110 41720
L55160 41690
" />
<path d="M55540 42190
L55540 41690
" />
<path d="M55830 42190
L55610 41910
" />
<path d="M55830 41690
L55540 41980
" />
</g>
</g>
<g style="fill:#008484; fill-opacity:0.0; 
stroke:#008484; stroke-width:0; stroke-opacity:1; 
stroke-linecap:round; stroke-linejoin:round;">
<g >
</g>
<g style="fill:#840000; fill-opacity:0.0; 
stroke:#840000; stroke-width:0; stroke-opacity:1; 
stroke-linecap:round; stroke-linejoin:round;">
</g>
<g style="fill:#840000; fill-opacity:0.0; 
stroke:#840000; stroke-width:100; stroke-opacity:1; 
stroke-linecap:round; stroke-linejoin:round;">
<rect x="65100" y="40500" width="800" height="2000" rx="0" />
</g>
<g style="fill:#840000; fill-opacity:0.0; 
stroke:#840000; stroke-width:60; stroke-opacity:1; 
stroke-linecap:round; stroke-linejoin:round;">
<path d="M65500 40500
L65500 40000
" />
<path d="M65500 42500
L65500 43000
" />
</g>
<g style="fill:#008484; fill-opacity:0.0; 
stroke:#008484; stroke-width:60; stroke-opacity:1; 
stroke-linecap:round; stroke-linejoin:round;">
<text x="66720" y="41310"
textLength="1040" font-size="660" lengthAdjust="spacingAndGlyphs"
text-anchor="middle" opacity="0">R3</text>
<path d="M66630 41280
L66470 41040
" />
<path d="M66350 41280
L66350 40780
L66540 40780
L66580 40810
L66610 40830
L66630 40880
L66630 40950
L66610 41000
L66580 41020
L66540 41040
L66350 41040
" />
<path d="M66800 40780
L67110 40780
L66940 40970
L67010 40970
L67060 41000
L67080 41020
L67110 41070
L67110 41190
L67080 41230
L67060 41260
L67010 41280
L66870 41280
L66820 41260
L66800 41230
" />
<text x="66950" y="42220"
textLength="1510" font-size="660" lengthAdjust="spacingAndGlyphs"
text-anchor="middle" opacity="0">10K</text>
<path d="M66600 42190
L66310 42190
" />
<path d="M66460 42190
L66460 41690
L66410 41760
L66360 41810
L66310 41830
" />
<path d="M66910 41690
L66960 41690
L67000 41720
L67030 41740
L67050 41790
L67080 41880
L67080 42000
L67050 42100
L67030 42140
L67000 42170
L66960 42190
L66910 42190
L66860 42170
L66840 42140
L66810 42100
L66790 42000
L66790 41880
L66810 41790
L66840 41740
L66860 41720
L66910 41690
" />
<path d="M67290 42190
L67290 41690
" />
<path d="M67580 42190
L67360 41910
" />
<path d="M67580 41690
L67290 41980
" />
</g>
</g>
<g style="fill:#008484; fill-opacity:0.0; 
stroke:#008484; stroke-width:60; stroke-opacity:1; 
stroke-linecap:round; stroke-linejoin:round;">
</g>
<g style="fill:#008400; fill-opacity:0.0; 
stroke:#008400; stroke-width:60; stroke-opacity:1; 
stroke-linecap:round; stroke-linejoin:round;">
<path d="M53750 40000
L53750 31750
" />
<path d="M59500 31750
L65500 31750
" />
<path d="M59500 31750
L59500 29750
" />
<path d="M65500 45500
L69500 45500
" />
<path d="M53750 31750
L59500 31750
" />
<path d="M65500 40000
L65500 31750
" />
<path d="M65500 43000
L65500 45500
" />
<path d="M58500 41000
L58500 45500
" />
<path d="M53750 45500
L50250 45500
" />
<path d="M53750 43000
L53750 45500
" />
<path d="M59500 41000
L59500 51000
" />
<path d="M60500 45500
L65500 45500
" />
<path d="M60500 41000
L60500 45500
" />
<path d="M58500 45500
L53750 45500
" />
</g>
<g style="fill:#848400; fill-opacity:0.0; 
stroke:#848400; stroke-width:60; stroke-opacity:1; 
stroke-linecap:round; stroke-linejoin:round;">
<text x="70100" y="45750"
textLength="4060" font-size="660" lengthAdjust="spacingAndGlyphs"
text-anchor="start" opacity="0">ENC_PIN_B</text>
<path d="M70240 45460
L70410 45460
" />
<path d="M70480 45720
L70240 45720
L70240 45220
L70480 45220
" />
<path d="M70700 45720
L70700 45220
L70980 45720
L70980 45220
" />
<path d="M71510 45670
L71480 45700
L71410 45720
L71360 45720
L71290 45700
L71240 45650
L71220 45600
L71200 45510
L71200 45440
L71220 45340
L71240 45290
L71290 45250
L71360 45220
L71410 45220
L71480 45250
L71510 45270
" />
<path d="M71600 45770
L71980 45770
" />
<path d="M72100 45720
L72100 45220
L72290 45220
L72340 45250
L72360 45270
L72390 45320
L72390 45390
L72360 45440
L72340 45460
L72290 45480
L72100 45480
" />
<path d="M72600 45720
L72600 45220
" />
<path d="M72840 45720
L72840 45220
L73130 45720
L73130 45220
" />
<path d="M73240 45770
L73630 45770
" />
<path d="M73910 45460
L73980 45480
L74010 45510
L74030 45550
L74030 45630
L74010 45670
L73980 45700
L73930 45720
L73740 45720
L73740 45220
L73910 45220
L73960 45250
L73980 45270
L74010 45320
L74010 45360
L73980 45410
L73960 45440
L73910 45460
L73740 45460
" />
</g>
<g style="fill:#848400; fill-opacity:0.0; 
stroke:#848400; stroke-width:100; stroke-opacity:1; 
stroke-linecap:round; stroke-linejoin:round;">
<path style="fill:#848400; fill-opacity:0.0; 
stroke:#848400; stroke-width:100; stroke-opacity:1; 
stroke-linecap:round; stroke-linejoin:round;fill:none"
d="M 69500,45500
69750,45750
70000,45750
70000,45250
69750,45250
Z" /> 
</g>
<g style="fill:#848400; fill-opacity:0.0; 
stroke:#848400; stroke-width:60; stroke-opacity:1; 
stroke-linecap:round; stroke-linejoin:round;">
<text x="49650" y="45750"
textLength="3990" font-size="660" lengthAdjust="spacingAndGlyphs"
text-anchor="end" opacity="0">ENC_PIN_A</text>
<path d="M45810 45460
L45970 45460
" />
<path d="M46040 45720
L45810 45720
L45810 45220
L46040 45220
" />
<path d="M46260 45720
L46260 45220
L46540 45720
L46540 45220
" />
<path d="M47070 45670
L47040 45700
L46970 45720
L46920 45720
L46850 45700
L46810 45650
L46780 45600
L46760 45510
L46760 45440
L46780 45340
L46810 45290
L46850 45250
L46920 45220
L46970 45220
L47040 45250
L47070 45270
" />
<path d="M47160 45770
L47540 45770
" />
<path d="M47660 45720
L47660 45220
L47850 45220
L47900 45250
L47920 45270
L47950 45320
L47950 45390
L47920 45440
L47900 45460
L47850 45480
L47660 45480
" />
<path d="M48160 45720
L48160 45220
" />
<path d="M48400 45720
L48400 45220
L48690 45720
L48690 45220
" />
<path d="M48810 45770
L49190 45770
" />
<path d="M49280 45580
L49520 45580
" />
<path d="M49230 45720
L49400 45220
L49570 45720
" />
</g>
<g style="fill:#848400; fill-opacity:0.0; 
stroke:#848400; stroke-width:100; stroke-opacity:1; 
stroke-linecap:round; stroke-linejoin:round;">
<path style="fill:#848400; fill-opacity:0.0; 
stroke:#848400; stroke-width:100; stroke-opacity:1; 
stroke-linecap:round; stroke-linejoin:round;fill:none"
d="M 50250,45500
50000,45250
49750,45250
49750,45750
50000,45750
Z" /> 
</g>
<g style="fill:#848400; fill-opacity:0.0; 
stroke:#848400; stroke-width:60; stroke-opacity:1; 
stroke-linecap:round; stroke-linejoin:round;">
<g transform="rotate(-90 59500 29150)">
<text x="59500" y="29400"
textLength="3300" font-size="660" lengthAdjust="spacingAndGlyphs"
text-anchor="start" opacity="0">3V3_ENC</text>
</g>
<path d="M59220 29040
L59220 28730
L59410 28900
L59410 28830
L59440 28780
L59460 28760
L59510 28730
L59630 28730
L59670 28760
L59700 28780
L59720 28830
L59720 28970
L59700 29020
L59670 29040
" />
<path d="M59220 28590
L59720 28420
L59220 28260
" />
<path d="M59220 28140
L59220 27830
L59410 28000
L59410 27920
L59440 27880
L59460 27850
L59510 27830
L59630 27830
L59670 27850
L59700 27880
L59720 27920
L59720 28070
L59700 28120
L59670 28140
" />
<path d="M59770 27730
L59770 27350
" />
<path d="M59460 27230
L59460 27070
" />
<path d="M59720 27000
L59720 27230
L59220 27230
L59220 27000
" />
<path d="M59720 26780
L59220 26780
L59720 26500
L59220 26500
" />
<path d="M59670 25970
L59700 26000
L59720 26070
L59720 26120
L59700 26190
L59650 26230
L59600 26260
L59510 26280
L59440 26280
L59340 26260
L59290 26230
L59250 26190
L59220 26120
L59220 26070
L59250 26000
L59270 25970
" />
</g>
<g style="fill:#848400; fill-opacity:0.0; 
stroke:#848400; stroke-width:100; stroke-opacity:1; 
stroke-linecap:round; stroke-linejoin:round;">
<path style="fill:#848400; fill-opacity:0.0; 
stroke:#848400; stroke-width:100; stroke-opacity:1; 
stroke-linecap:round; stroke-linejoin:round;fill:none"
d="M 59500,29750
59750,29500
59750,29250
59250,29250
59250,29500
Z" /> 
</g>
<g style="fill:#848400; fill-opacity:0.0; 
stroke:#848400; stroke-width:0; stroke-opacity:1; 
stroke-linecap:round; stroke-linejoin:round;">
</g>
<g style="fill:#008400; fill-opacity:0.0; 
stroke:#008400; stroke-width:0; stroke-opacity:1; 
stroke-linecap:round; stroke-linejoin:round;">
</g>
<g style="fill:#008400; fill-opacity:1.0; 
stroke:#008400; stroke-width:100; stroke-opacity:1; 
stroke-linecap:round; stroke-linejoin:round;">
<circle cx="53750" cy="45500" r="200" /> 
</g>
<g style="fill:#008400; fill-opacity:1.0; 
stroke:#008400; stroke-width:0; stroke-opacity:1; 
stroke-linecap:round; stroke-linejoin:round;">
</g>
<g style="fill:#008400; fill-opacity:1.0; 
stroke:#008400; stroke-width:100; stroke-opacity:1; 
stroke-linecap:round; stroke-linejoin:round;">
<circle cx="65500" cy="45500" r="200" /> 
</g>
<g style="fill:#008400; fill-opacity:1.0; 
stroke:#008400; stroke-width:0; stroke-opacity:1; 
stroke-linecap:round; stroke-linejoin:round;">
</g>
<g style="fill:#008400; fill-opacity:1.0; 
stroke:#008400; stroke-width:100; stroke-opacity:1; 
stroke-linecap:round; stroke-linejoin:round;">
<circle cx="59500" cy="31750" r="200" /> 
</g> 
</svg>
