<?xml version="1.0" standalone="no"?>
 <!DOCTYPE svg PUBLIC "-//W3C//DTD SVG 1.1//EN" 
 "http://www.w3.org/Graphics/SVG/1.1/DTD/svg11.dtd"> 
<svg xmlns="http://www.w3.org/2000/svg" version="1.1" 
    width="29.7002cm" height="21.0007cm" viewBox="0 0 116930 82680 ">
<title>SVG Picture created as STD_LED_Driver.svg date 2020/05/09 02:45:57 </title>
  <desc>Picture generated by Eeschema-SVG </desc>
<g style="fill:#000000; fill-opacity:1;stroke:#000000; stroke-opacity:1;
stroke-linecap:round; stroke-linejoin:round; "
 transform="translate(0 0) scale(1 1)">
</g>
<g style="fill:#000000; fill-opacity:0.0; 
stroke:#000000; stroke-width:-10; stroke-opacity:1; 
stroke-linecap:round; stroke-linejoin:round;">
</g>
<g style="fill:#840000; fill-opacity:0.0; 
stroke:#840000; stroke-width:-10; stroke-opacity:1; 
stroke-linecap:round; stroke-linejoin:round;">
</g>
<g style="fill:#840000; fill-opacity:0.0; 
stroke:#840000; stroke-width:100; stroke-opacity:1; 
stroke-linecap:round; stroke-linejoin:round;">
</g>
<g style="fill:#840000; fill-opacity:0.0; 
stroke:#840000; stroke-width:60; stroke-opacity:1; 
stroke-linecap:round; stroke-linejoin:round;">
<rect x="69690" y="65360" width="42520" height="12600" rx="0" />
</g>
<g style="fill:#840000; fill-opacity:0.0; 
stroke:#840000; stroke-width:100; stroke-opacity:1; 
stroke-linecap:round; stroke-linejoin:round;">
</g>
<g style="fill:#840000; fill-opacity:0.0; 
stroke:#840000; stroke-width:60; stroke-opacity:1; 
stroke-linecap:round; stroke-linejoin:round;">
<rect x="3940" y="3940" width="109050" height="74800" rx="0" />
</g>
<g style="fill:#840000; fill-opacity:0.0; 
stroke:#840000; stroke-width:100; stroke-opacity:1; 
stroke-linecap:round; stroke-linejoin:round;">
</g>
<g style="fill:#840000; fill-opacity:0.0; 
stroke:#840000; stroke-width:60; stroke-opacity:1; 
stroke-linecap:round; stroke-linejoin:round;">
<rect x="4720" y="4720" width="107490" height="73240" rx="0" />
</g>
<g style="fill:#840000; fill-opacity:0.0; 
stroke:#840000; stroke-width:100; stroke-opacity:1; 
stroke-linecap:round; stroke-linejoin:round;">
</g>
<g style="fill:#840000; fill-opacity:0.0; 
stroke:#840000; stroke-width:60; stroke-opacity:1; 
stroke-linecap:round; stroke-linejoin:round;">
<path d="M23620 4720
L23620 3940
" />
</g>
<g style="fill:#840000; fill-opacity:0.0; 
stroke:#840000; stroke-width:100; stroke-opacity:1; 
stroke-linecap:round; stroke-linejoin:round;">
</g>
<g style="fill:#840000; fill-opacity:0.0; 
stroke:#840000; stroke-width:60; stroke-opacity:1; 
stroke-linecap:round; stroke-linejoin:round;">
<path d="M43310 4720
L43310 3940
" />
</g>
<g style="fill:#840000; fill-opacity:0.0; 
stroke:#840000; stroke-width:100; stroke-opacity:1; 
stroke-linecap:round; stroke-linejoin:round;">
</g>
<g style="fill:#840000; fill-opacity:0.0; 
stroke:#840000; stroke-width:60; stroke-opacity:1; 
stroke-linecap:round; stroke-linejoin:round;">
<path d="M62990 4720
L62990 3940
" />
</g>
<g style="fill:#840000; fill-opacity:0.0; 
stroke:#840000; stroke-width:100; stroke-opacity:1; 
stroke-linecap:round; stroke-linejoin:round;">
</g>
<g style="fill:#840000; fill-opacity:0.0; 
stroke:#840000; stroke-width:60; stroke-opacity:1; 
stroke-linecap:round; stroke-linejoin:round;">
<path d="M82680 4720
L82680 3940
" />
</g>
<g style="fill:#840000; fill-opacity:0.0; 
stroke:#840000; stroke-width:100; stroke-opacity:1; 
stroke-linecap:round; stroke-linejoin:round;">
</g>
<g style="fill:#840000; fill-opacity:0.0; 
stroke:#840000; stroke-width:60; stroke-opacity:1; 
stroke-linecap:round; stroke-linejoin:round;">
<path d="M102360 4720
L102360 3940
" />
</g>
<g style="fill:#840000; fill-opacity:0.0; 
stroke:#840000; stroke-width:100; stroke-opacity:1; 
stroke-linecap:round; stroke-linejoin:round;">
</g>
<g style="fill:#840000; fill-opacity:0.0; 
stroke:#840000; stroke-width:60; stroke-opacity:1; 
stroke-linecap:round; stroke-linejoin:round;">
<text x="13780" y="4580"
textLength="550" font-size="680" lengthAdjust="spacingAndGlyphs"
text-anchor="start" opacity="0">1</text>
<path d="M14190 4560
L13900 4560
" />
<path d="M14050 4560
L14050 4050
L14000 4120
L13950 4170
L13900 4190
" />
</g>
<g style="fill:#840000; fill-opacity:0.0; 
stroke:#840000; stroke-width:100; stroke-opacity:1; 
stroke-linecap:round; stroke-linejoin:round;">
</g>
<g style="fill:#840000; fill-opacity:0.0; 
stroke:#840000; stroke-width:60; stroke-opacity:1; 
stroke-linecap:round; stroke-linejoin:round;">
<text x="33460" y="4580"
textLength="550" font-size="680" lengthAdjust="spacingAndGlyphs"
text-anchor="start" opacity="0">2</text>
<path d="M33580 4090
L33610 4070
L33660 4050
L33780 4050
L33830 4070
L33850 4090
L33870 4140
L33870 4190
L33850 4260
L33560 4560
L33870 4560
" />
</g>
<g style="fill:#840000; fill-opacity:0.0; 
stroke:#840000; stroke-width:100; stroke-opacity:1; 
stroke-linecap:round; stroke-linejoin:round;">
</g>
<g style="fill:#840000; fill-opacity:0.0; 
stroke:#840000; stroke-width:60; stroke-opacity:1; 
stroke-linecap:round; stroke-linejoin:round;">
<text x="53150" y="4580"
textLength="550" font-size="680" lengthAdjust="spacingAndGlyphs"
text-anchor="start" opacity="0">3</text>
<path d="M53250 4050
L53560 4050
L53390 4240
L53470 4240
L53520 4260
L53540 4290
L53560 4340
L53560 4460
L53540 4510
L53520 4530
L53470 4560
L53320 4560
L53270 4530
L53250 4510
" />
</g>
<g style="fill:#840000; fill-opacity:0.0; 
stroke:#840000; stroke-width:100; stroke-opacity:1; 
stroke-linecap:round; stroke-linejoin:round;">
</g>
<g style="fill:#840000; fill-opacity:0.0; 
stroke:#840000; stroke-width:60; stroke-opacity:1; 
stroke-linecap:round; stroke-linejoin:round;">
<text x="72830" y="4580"
textLength="550" font-size="680" lengthAdjust="spacingAndGlyphs"
text-anchor="start" opacity="0">4</text>
<path d="M73200 4220
L73200 4560
" />
<path d="M73070 4020
L72950 4390
L73270 4390
" />
</g>
<g style="fill:#840000; fill-opacity:0.0; 
stroke:#840000; stroke-width:100; stroke-opacity:1; 
stroke-linecap:round; stroke-linejoin:round;">
</g>
<g style="fill:#840000; fill-opacity:0.0; 
stroke:#840000; stroke-width:60; stroke-opacity:1; 
stroke-linecap:round; stroke-linejoin:round;">
<text x="92520" y="4580"
textLength="550" font-size="680" lengthAdjust="spacingAndGlyphs"
text-anchor="start" opacity="0">5</text>
<path d="M92910 4050
L92670 4050
L92640 4290
L92670 4260
L92720 4240
L92840 4240
L92890 4260
L92910 4290
L92930 4340
L92930 4460
L92910 4510
L92890 4530
L92840 4560
L92720 4560
L92670 4530
L92640 4510
" />
</g>
<g style="fill:#840000; fill-opacity:0.0; 
stroke:#840000; stroke-width:100; stroke-opacity:1; 
stroke-linecap:round; stroke-linejoin:round;">
</g>
<g style="fill:#840000; fill-opacity:0.0; 
stroke:#840000; stroke-width:60; stroke-opacity:1; 
stroke-linecap:round; stroke-linejoin:round;">
<text x="112200" y="4580"
textLength="550" font-size="680" lengthAdjust="spacingAndGlyphs"
text-anchor="start" opacity="0">6</text>
<path d="M112570 4050
L112470 4050
L112420 4070
L112400 4090
L112350 4170
L112320 4260
L112320 4460
L112350 4510
L112370 4530
L112420 4560
L112520 4560
L112570 4530
L112590 4510
L112610 4460
L112610 4340
L112590 4290
L112570 4260
L112520 4240
L112420 4240
L112370 4260
L112350 4290
L112320 4340
" />
</g>
<g style="fill:#840000; fill-opacity:0.0; 
stroke:#840000; stroke-width:100; stroke-opacity:1; 
stroke-linecap:round; stroke-linejoin:round;">
</g>
<g style="fill:#840000; fill-opacity:0.0; 
stroke:#840000; stroke-width:60; stroke-opacity:1; 
stroke-linecap:round; stroke-linejoin:round;">
<path d="M23620 77960
L23620 78740
" />
</g>
<g style="fill:#840000; fill-opacity:0.0; 
stroke:#840000; stroke-width:100; stroke-opacity:1; 
stroke-linecap:round; stroke-linejoin:round;">
</g>
<g style="fill:#840000; fill-opacity:0.0; 
stroke:#840000; stroke-width:60; stroke-opacity:1; 
stroke-linecap:round; stroke-linejoin:round;">
<path d="M43310 77960
L43310 78740
" />
</g>
<g style="fill:#840000; fill-opacity:0.0; 
stroke:#840000; stroke-width:100; stroke-opacity:1; 
stroke-linecap:round; stroke-linejoin:round;">
</g>
<g style="fill:#840000; fill-opacity:0.0; 
stroke:#840000; stroke-width:60; stroke-opacity:1; 
stroke-linecap:round; stroke-linejoin:round;">
<path d="M62990 77960
L62990 78740
" />
</g>
<g style="fill:#840000; fill-opacity:0.0; 
stroke:#840000; stroke-width:100; stroke-opacity:1; 
stroke-linecap:round; stroke-linejoin:round;">
</g>
<g style="fill:#840000; fill-opacity:0.0; 
stroke:#840000; stroke-width:60; stroke-opacity:1; 
stroke-linecap:round; stroke-linejoin:round;">
<path d="M82680 77960
L82680 78740
" />
</g>
<g style="fill:#840000; fill-opacity:0.0; 
stroke:#840000; stroke-width:100; stroke-opacity:1; 
stroke-linecap:round; stroke-linejoin:round;">
</g>
<g style="fill:#840000; fill-opacity:0.0; 
stroke:#840000; stroke-width:60; stroke-opacity:1; 
stroke-linecap:round; stroke-linejoin:round;">
<path d="M102360 77960
L102360 78740
" />
</g>
<g style="fill:#840000; fill-opacity:0.0; 
stroke:#840000; stroke-width:100; stroke-opacity:1; 
stroke-linecap:round; stroke-linejoin:round;">
</g>
<g style="fill:#840000; fill-opacity:0.0; 
stroke:#840000; stroke-width:60; stroke-opacity:1; 
stroke-linecap:round; stroke-linejoin:round;">
<text x="13780" y="78600"
textLength="550" font-size="680" lengthAdjust="spacingAndGlyphs"
text-anchor="start" opacity="0">1</text>
<path d="M14190 78580
L13900 78580
" />
<path d="M14050 78580
L14050 78070
L14000 78140
L13950 78190
L13900 78210
" />
</g>
<g style="fill:#840000; fill-opacity:0.0; 
stroke:#840000; stroke-width:100; stroke-opacity:1; 
stroke-linecap:round; stroke-linejoin:round;">
</g>
<g style="fill:#840000; fill-opacity:0.0; 
stroke:#840000; stroke-width:60; stroke-opacity:1; 
stroke-linecap:round; stroke-linejoin:round;">
<text x="33460" y="78600"
textLength="550" font-size="680" lengthAdjust="spacingAndGlyphs"
text-anchor="start" opacity="0">2</text>
<path d="M33580 78110
L33610 78090
L33660 78070
L33780 78070
L33830 78090
L33850 78110
L33870 78160
L33870 78210
L33850 78280
L33560 78580
L33870 78580
" />
</g>
<g style="fill:#840000; fill-opacity:0.0; 
stroke:#840000; stroke-width:100; stroke-opacity:1; 
stroke-linecap:round; stroke-linejoin:round;">
</g>
<g style="fill:#840000; fill-opacity:0.0; 
stroke:#840000; stroke-width:60; stroke-opacity:1; 
stroke-linecap:round; stroke-linejoin:round;">
<text x="53150" y="78600"
textLength="550" font-size="680" lengthAdjust="spacingAndGlyphs"
text-anchor="start" opacity="0">3</text>
<path d="M53250 78070
L53560 78070
L53390 78260
L53470 78260
L53520 78280
L53540 78310
L53560 78360
L53560 78480
L53540 78530
L53520 78550
L53470 78580
L53320 78580
L53270 78550
L53250 78530
" />
</g>
<g style="fill:#840000; fill-opacity:0.0; 
stroke:#840000; stroke-width:100; stroke-opacity:1; 
stroke-linecap:round; stroke-linejoin:round;">
</g>
<g style="fill:#840000; fill-opacity:0.0; 
stroke:#840000; stroke-width:60; stroke-opacity:1; 
stroke-linecap:round; stroke-linejoin:round;">
<text x="72830" y="78600"
textLength="550" font-size="680" lengthAdjust="spacingAndGlyphs"
text-anchor="start" opacity="0">4</text>
<path d="M73200 78240
L73200 78580
" />
<path d="M73070 78040
L72950 78410
L73270 78410
" />
</g>
<g style="fill:#840000; fill-opacity:0.0; 
stroke:#840000; stroke-width:100; stroke-opacity:1; 
stroke-linecap:round; stroke-linejoin:round;">
</g>
<g style="fill:#840000; fill-opacity:0.0; 
stroke:#840000; stroke-width:60; stroke-opacity:1; 
stroke-linecap:round; stroke-linejoin:round;">
<text x="92520" y="78600"
textLength="550" font-size="680" lengthAdjust="spacingAndGlyphs"
text-anchor="start" opacity="0">5</text>
<path d="M92910 78070
L92670 78070
L92640 78310
L92670 78280
L92720 78260
L92840 78260
L92890 78280
L92910 78310
L92930 78360
L92930 78480
L92910 78530
L92890 78550
L92840 78580
L92720 78580
L92670 78550
L92640 78530
" />
</g>
<g style="fill:#840000; fill-opacity:0.0; 
stroke:#840000; stroke-width:100; stroke-opacity:1; 
stroke-linecap:round; stroke-linejoin:round;">
</g>
<g style="fill:#840000; fill-opacity:0.0; 
stroke:#840000; stroke-width:60; stroke-opacity:1; 
stroke-linecap:round; stroke-linejoin:round;">
<text x="112200" y="78600"
textLength="550" font-size="680" lengthAdjust="spacingAndGlyphs"
text-anchor="start" opacity="0">6</text>
<path d="M112570 78070
L112470 78070
L112420 78090
L112400 78110
L112350 78190
L112320 78280
L112320 78480
L112350 78530
L112370 78550
L112420 78580
L112520 78580
L112570 78550
L112590 78530
L112610 78480
L112610 78360
L112590 78310
L112570 78280
L112520 78260
L112420 78260
L112370 78280
L112350 78310
L112320 78360
" />
</g>
<g style="fill:#840000; fill-opacity:0.0; 
stroke:#840000; stroke-width:100; stroke-opacity:1; 
stroke-linecap:round; stroke-linejoin:round;">
</g>
<g style="fill:#840000; fill-opacity:0.0; 
stroke:#840000; stroke-width:60; stroke-opacity:1; 
stroke-linecap:round; stroke-linejoin:round;">
<path d="M3940 23620
L4720 23620
" />
</g>
<g style="fill:#840000; fill-opacity:0.0; 
stroke:#840000; stroke-width:100; stroke-opacity:1; 
stroke-linecap:round; stroke-linejoin:round;">
</g>
<g style="fill:#840000; fill-opacity:0.0; 
stroke:#840000; stroke-width:60; stroke-opacity:1; 
stroke-linecap:round; stroke-linejoin:round;">
<path d="M3940 43310
L4720 43310
" />
</g>
<g style="fill:#840000; fill-opacity:0.0; 
stroke:#840000; stroke-width:100; stroke-opacity:1; 
stroke-linecap:round; stroke-linejoin:round;">
</g>
<g style="fill:#840000; fill-opacity:0.0; 
stroke:#840000; stroke-width:60; stroke-opacity:1; 
stroke-linecap:round; stroke-linejoin:round;">
<path d="M3940 62990
L4720 62990
" />
</g>
<g style="fill:#840000; fill-opacity:0.0; 
stroke:#840000; stroke-width:100; stroke-opacity:1; 
stroke-linecap:round; stroke-linejoin:round;">
</g>
<g style="fill:#840000; fill-opacity:0.0; 
stroke:#840000; stroke-width:60; stroke-opacity:1; 
stroke-linecap:round; stroke-linejoin:round;">
<text x="4330" y="14030"
textLength="500" font-size="680" lengthAdjust="spacingAndGlyphs"
text-anchor="middle" opacity="0">A</text>
<path d="M4200 13860
L4450 13860
" />
<path d="M4160 14010
L4330 13500
L4500 14010
" />
</g>
<g style="fill:#840000; fill-opacity:0.0; 
stroke:#840000; stroke-width:100; stroke-opacity:1; 
stroke-linecap:round; stroke-linejoin:round;">
</g>
<g style="fill:#840000; fill-opacity:0.0; 
stroke:#840000; stroke-width:60; stroke-opacity:1; 
stroke-linecap:round; stroke-linejoin:round;">
<text x="4330" y="33710"
textLength="570" font-size="680" lengthAdjust="spacingAndGlyphs"
text-anchor="middle" opacity="0">B</text>
<path d="M4360 33420
L4430 33440
L4460 33470
L4480 33520
L4480 33590
L4460 33640
L4430 33660
L4390 33690
L4190 33690
L4190 33180
L4360 33180
L4410 33200
L4430 33220
L4460 33270
L4460 33320
L4430 33370
L4410 33390
L4360 33420
L4190 33420
" />
</g>
<g style="fill:#840000; fill-opacity:0.0; 
stroke:#840000; stroke-width:100; stroke-opacity:1; 
stroke-linecap:round; stroke-linejoin:round;">
</g>
<g style="fill:#840000; fill-opacity:0.0; 
stroke:#840000; stroke-width:60; stroke-opacity:1; 
stroke-linecap:round; stroke-linejoin:round;">
<text x="4330" y="53400"
textLength="570" font-size="680" lengthAdjust="spacingAndGlyphs"
text-anchor="middle" opacity="0">C</text>
<path d="M4480 53330
L4460 53350
L4390 53380
L4340 53380
L4260 53350
L4220 53300
L4190 53250
L4170 53160
L4170 53080
L4190 52990
L4220 52940
L4260 52890
L4340 52870
L4390 52870
L4460 52890
L4480 52910
" />
</g>
<g style="fill:#840000; fill-opacity:0.0; 
stroke:#840000; stroke-width:100; stroke-opacity:1; 
stroke-linecap:round; stroke-linejoin:round;">
</g>
<g style="fill:#840000; fill-opacity:0.0; 
stroke:#840000; stroke-width:60; stroke-opacity:1; 
stroke-linecap:round; stroke-linejoin:round;">
<text x="4330" y="73080"
textLength="570" font-size="680" lengthAdjust="spacingAndGlyphs"
text-anchor="middle" opacity="0">D</text>
<path d="M4190 73060
L4190 72550
L4310 72550
L4390 72570
L4430 72620
L4460 72670
L4480 72760
L4480 72840
L4460 72930
L4430 72980
L4390 73030
L4310 73060
L4190 73060
" />
</g>
<g style="fill:#840000; fill-opacity:0.0; 
stroke:#840000; stroke-width:100; stroke-opacity:1; 
stroke-linecap:round; stroke-linejoin:round;">
</g>
<g style="fill:#840000; fill-opacity:0.0; 
stroke:#840000; stroke-width:60; stroke-opacity:1; 
stroke-linecap:round; stroke-linejoin:round;">
<path d="M112990 23620
L112210 23620
" />
</g>
<g style="fill:#840000; fill-opacity:0.0; 
stroke:#840000; stroke-width:100; stroke-opacity:1; 
stroke-linecap:round; stroke-linejoin:round;">
</g>
<g style="fill:#840000; fill-opacity:0.0; 
stroke:#840000; stroke-width:60; stroke-opacity:1; 
stroke-linecap:round; stroke-linejoin:round;">
<path d="M112990 43310
L112210 43310
" />
</g>
<g style="fill:#840000; fill-opacity:0.0; 
stroke:#840000; stroke-width:100; stroke-opacity:1; 
stroke-linecap:round; stroke-linejoin:round;">
</g>
<g style="fill:#840000; fill-opacity:0.0; 
stroke:#840000; stroke-width:60; stroke-opacity:1; 
stroke-linecap:round; stroke-linejoin:round;">
<path d="M112990 62990
L112210 62990
" />
</g>
<g style="fill:#840000; fill-opacity:0.0; 
stroke:#840000; stroke-width:100; stroke-opacity:1; 
stroke-linecap:round; stroke-linejoin:round;">
</g>
<g style="fill:#840000; fill-opacity:0.0; 
stroke:#840000; stroke-width:60; stroke-opacity:1; 
stroke-linecap:round; stroke-linejoin:round;">
<text x="112600" y="14030"
textLength="500" font-size="680" lengthAdjust="spacingAndGlyphs"
text-anchor="middle" opacity="0">A</text>
<path d="M112470 13860
L112720 13860
" />
<path d="M112430 14010
L112600 13500
L112770 14010
" />
</g>
<g style="fill:#840000; fill-opacity:0.0; 
stroke:#840000; stroke-width:100; stroke-opacity:1; 
stroke-linecap:round; stroke-linejoin:round;">
</g>
<g style="fill:#840000; fill-opacity:0.0; 
stroke:#840000; stroke-width:60; stroke-opacity:1; 
stroke-linecap:round; stroke-linejoin:round;">
<text x="112600" y="33710"
textLength="570" font-size="680" lengthAdjust="spacingAndGlyphs"
text-anchor="middle" opacity="0">B</text>
<path d="M112630 33420
L112700 33440
L112730 33470
L112750 33520
L112750 33590
L112730 33640
L112700 33660
L112660 33690
L112460 33690
L112460 33180
L112630 33180
L112680 33200
L112700 33220
L112730 33270
L112730 33320
L112700 33370
L112680 33390
L112630 33420
L112460 33420
" />
</g>
<g style="fill:#840000; fill-opacity:0.0; 
stroke:#840000; stroke-width:100; stroke-opacity:1; 
stroke-linecap:round; stroke-linejoin:round;">
</g>
<g style="fill:#840000; fill-opacity:0.0; 
stroke:#840000; stroke-width:60; stroke-opacity:1; 
stroke-linecap:round; stroke-linejoin:round;">
<text x="112600" y="53400"
textLength="570" font-size="680" lengthAdjust="spacingAndGlyphs"
text-anchor="middle" opacity="0">C</text>
<path d="M112750 53330
L112730 53350
L112660 53380
L112610 53380
L112530 53350
L112490 53300
L112460 53250
L112440 53160
L112440 53080
L112460 52990
L112490 52940
L112530 52890
L112610 52870
L112660 52870
L112730 52890
L112750 52910
" />
</g>
<g style="fill:#840000; fill-opacity:0.0; 
stroke:#840000; stroke-width:100; stroke-opacity:1; 
stroke-linecap:round; stroke-linejoin:round;">
</g>
<g style="fill:#840000; fill-opacity:0.0; 
stroke:#840000; stroke-width:60; stroke-opacity:1; 
stroke-linecap:round; stroke-linejoin:round;">
<text x="112600" y="73080"
textLength="570" font-size="680" lengthAdjust="spacingAndGlyphs"
text-anchor="middle" opacity="0">D</text>
<path d="M112460 73060
L112460 72550
L112580 72550
L112660 72570
L112700 72620
L112730 72670
L112750 72760
L112750 72840
L112730 72930
L112700 72980
L112660 73030
L112580 73060
L112460 73060
" />
</g>
<g style="fill:#840000; fill-opacity:0.0; 
stroke:#840000; stroke-width:100; stroke-opacity:1; 
stroke-linecap:round; stroke-linejoin:round;">
</g>
<g style="fill:#840000; fill-opacity:0.0; 
stroke:#840000; stroke-width:60; stroke-opacity:1; 
stroke-linecap:round; stroke-linejoin:round;">
<text x="78740" y="76320"
textLength="2760" font-size="780" lengthAdjust="spacingAndGlyphs"
text-anchor="start" opacity="0">Date: </text>
<path d="M78910 76290
L78910 75700
L79050 75700
L79130 75730
L79190 75790
L79210 75840
L79240 75950
L79240 76040
L79210 76150
L79190 76210
L79130 76260
L79050 76290
L78910 76290
" />
<path d="M79750 76290
L79750 75980
L79720 75930
L79660 75900
L79550 75900
L79500 75930
" />
<path d="M79750 76260
L79690 76290
L79550 76290
L79500 76260
L79470 76210
L79470 76150
L79500 76100
L79550 76070
L79690 76070
L79750 76040
" />
<path d="M79950 75900
L80170 75900
" />
<path d="M80030 75700
L80030 76210
L80060 76260
L80110 76290
L80170 76290
" />
<path d="M80590 76260
L80540 76290
L80420 76290
L80370 76260
L80340 76210
L80340 75980
L80370 75930
L80420 75900
L80540 75900
L80590 75930
L80620 75980
L80620 76040
L80340 76100
" />
<path d="M80870 76240
L80900 76260
L80870 76290
L80840 76260
L80870 76240
L80870 76290
" />
<path d="M80870 75930
L80900 75950
L80870 75980
L80840 75950
L80870 75930
L80870 75980
" />
</g>
<g style="fill:#840000; fill-opacity:0.0; 
stroke:#840000; stroke-width:100; stroke-opacity:1; 
stroke-linecap:round; stroke-linejoin:round;">
</g>
<g style="fill:#840000; fill-opacity:0.0; 
stroke:#840000; stroke-width:60; stroke-opacity:1; 
stroke-linecap:round; stroke-linejoin:round;">
<path d="M69690 76580
L112210 76580
" />
</g>
<g style="fill:#840000; fill-opacity:0.0; 
stroke:#840000; stroke-width:100; stroke-opacity:1; 
stroke-linecap:round; stroke-linejoin:round;">
</g>
<g style="fill:#840000; fill-opacity:0.0; 
stroke:#840000; stroke-width:60; stroke-opacity:1; 
stroke-linecap:round; stroke-linejoin:round;">
<text x="70080" y="77420"
textLength="23550" font-size="780" lengthAdjust="spacingAndGlyphs"
text-anchor="start" opacity="0">KiCad E.D.A.  kicad 5.1.5-52549c5~86~ubuntu18.04.1</text>
<path d="M70250 77390
L70250 76800
" />
<path d="M70580 77390
L70330 77050
" />
<path d="M70580 76800
L70250 77140
" />
<path d="M70840 77390
L70840 77000
" />
<path d="M70840 76800
L70810 76830
L70840 76860
L70860 76830
L70840 76800
L70840 76860
" />
<path d="M71450 77340
L71430 77360
L71340 77390
L71290 77390
L71200 77360
L71140 77310
L71120 77250
L71090 77140
L71090 77050
L71120 76940
L71140 76890
L71200 76830
L71290 76800
L71340 76800
L71430 76830
L71450 76860
" />
<path d="M71960 77390
L71960 77080
L71930 77030
L71880 77000
L71760 77000
L71710 77030
" />
<path d="M71960 77360
L71900 77390
L71760 77390
L71710 77360
L71680 77310
L71680 77250
L71710 77200
L71760 77170
L71900 77170
L71960 77140
" />
<path d="M72490 77390
L72490 76800
" />
<path d="M72490 77360
L72440 77390
L72320 77390
L72270 77360
L72240 77340
L72210 77280
L72210 77110
L72240 77050
L72270 77030
L72320 77000
L72440 77000
L72490 77030
" />
<path d="M73220 77080
L73420 77080
" />
<path d="M73500 77390
L73220 77390
L73220 76800
L73500 76800
" />
<path d="M73760 77340
L73790 77360
L73760 77390
L73730 77360
L73760 77340
L73760 77390
" />
<path d="M74040 77390
L74040 76800
L74180 76800
L74260 76830
L74320 76890
L74350 76940
L74380 77050
L74380 77140
L74350 77250
L74320 77310
L74260 77360
L74180 77390
L74040 77390
" />
<path d="M74630 77340
L74660 77360
L74630 77390
L74600 77360
L74630 77340
L74630 77390
" />
<path d="M74880 77220
L75160 77220
" />
<path d="M74830 77390
L75020 76800
L75220 77390
" />
<path d="M75420 77340
L75440 77360
L75420 77390
L75390 77360
L75420 77340
L75420 77390
" />
<path d="M76600 77390
L76600 76800
" />
<path d="M76650 77170
L76820 77390
" />
<path d="M76820 77000
L76600 77220
" />
<path d="M77070 77390
L77070 77000
" />
<path d="M77070 76800
L77040 76830
L77070 76860
L77100 76830
L77070 76800
L77070 76860
" />
<path d="M77610 77360
L77550 77390
L77440 77390
L77380 77360
L77350 77340
L77330 77280
L77330 77110
L77350 77050
L77380 77030
L77440 77000
L77550 77000
L77610 77030
" />
<path d="M78110 77390
L78110 77080
L78080 77030
L78030 77000
L77920 77000
L77860 77030
" />
<path d="M78110 77360
L78060 77390
L77920 77390
L77860 77360
L77830 77310
L77830 77250
L77860 77200
L77920 77170
L78060 77170
L78110 77140
" />
<path d="M78650 77390
L78650 76800
" />
<path d="M78650 77360
L78590 77390
L78480 77390
L78420 77360
L78390 77340
L78370 77280
L78370 77110
L78390 77050
L78420 77030
L78480 77000
L78590 77000
L78650 77030
" />
<path d="M79660 76800
L79380 76800
L79350 77080
L79380 77050
L79430 77030
L79570 77030
L79630 77050
L79660 77080
L79690 77140
L79690 77280
L79660 77340
L79630 77360
L79570 77390
L79430 77390
L79380 77360
L79350 77340
" />
<path d="M79940 77340
L79970 77360
L79940 77390
L79910 77360
L79940 77340
L79940 77390
" />
<path d="M80530 77390
L80190 77390
" />
<path d="M80360 77390
L80360 76800
L80300 76890
L80250 76940
L80190 76970
" />
<path d="M80780 77340
L80810 77360
L80780 77390
L80750 77360
L80780 77340
L80780 77390
" />
<path d="M81340 76800
L81060 76800
L81030 77080
L81060 77050
L81120 77030
L81260 77030
L81320 77050
L81340 77080
L81370 77140
L81370 77280
L81340 77340
L81320 77360
L81260 77390
L81120 77390
L81060 77360
L81030 77340
" />
<path d="M81620 77170
L82070 77170
" />
<path d="M82640 76800
L82350 76800
L82330 77080
L82350 77050
L82410 77030
L82550 77030
L82610 77050
L82640 77080
L82660 77140
L82660 77280
L82640 77340
L82610 77360
L82550 77390
L82410 77390
L82350 77360
L82330 77340
" />
<path d="M82890 76860
L82920 76830
L82970 76800
L83110 76800
L83170 76830
L83200 76860
L83230 76910
L83230 76970
L83200 77050
L82860 77390
L83230 77390
" />
<path d="M83760 76800
L83480 76800
L83450 77080
L83480 77050
L83530 77030
L83680 77030
L83730 77050
L83760 77080
L83790 77140
L83790 77280
L83760 77340
L83730 77360
L83680 77390
L83530 77390
L83480 77360
L83450 77340
" />
<path d="M84290 77000
L84290 77390
" />
<path d="M84150 76770
L84010 77200
L84380 77200
" />
<path d="M84630 77390
L84740 77390
L84800 77360
L84830 77340
L84880 77250
L84910 77140
L84910 76910
L84880 76860
L84860 76830
L84800 76800
L84690 76800
L84630 76830
L84600 76860
L84570 76910
L84570 77050
L84600 77110
L84630 77140
L84690 77170
L84800 77170
L84860 77140
L84880 77110
L84910 77050
" />
<path d="M85420 77360
L85360 77390
L85250 77390
L85190 77360
L85160 77340
L85140 77280
L85140 77110
L85160 77050
L85190 77030
L85250 77000
L85360 77000
L85420 77030
" />
<path d="M85950 76800
L85670 76800
L85640 77080
L85670 77050
L85730 77030
L85870 77030
L85920 77050
L85950 77080
L85980 77140
L85980 77280
L85950 77340
L85920 77360
L85870 77390
L85730 77390
L85670 77360
L85640 77340
" />
<path d="M86090 76640
L86650 76640
" />
<path d="M86320 77050
L86260 77030
L86230 77000
L86200 76940
L86200 76910
L86230 76860
L86260 76830
L86320 76800
L86430 76800
L86480 76830
L86510 76860
L86540 76910
L86540 76940
L86510 77000
L86480 77030
L86430 77050
L86320 77050
L86260 77080
L86230 77110
L86200 77170
L86200 77280
L86230 77340
L86260 77360
L86320 77390
L86430 77390
L86480 77360
L86510 77340
L86540 77280
L86540 77170
L86510 77110
L86480 77080
L86430 77050
" />
<path d="M86650 76640
L87220 76640
" />
<path d="M87050 76800
L86930 76800
L86880 76830
L86850 76860
L86790 76940
L86770 77050
L86770 77280
L86790 77340
L86820 77360
L86880 77390
L86990 77390
L87050 77360
L87070 77340
L87100 77280
L87100 77140
L87070 77080
L87050 77050
L86990 77030
L86880 77030
L86820 77050
L86790 77080
L86770 77140
" />
<path d="M87610 77000
L87610 77390
" />
<path d="M87360 77000
L87360 77310
L87380 77360
L87440 77390
L87520 77390
L87580 77360
L87610 77340
" />
<path d="M87890 77390
L87890 76800
" />
<path d="M87890 77030
L87950 77000
L88060 77000
L88110 77030
L88140 77050
L88170 77110
L88170 77280
L88140 77340
L88110 77360
L88060 77390
L87950 77390
L87890 77360
" />
<path d="M88680 77000
L88680 77390
" />
<path d="M88420 77000
L88420 77310
L88450 77360
L88510 77390
L88590 77390
L88650 77360
L88680 77340
" />
<path d="M88960 77000
L88960 77390
" />
<path d="M88960 77050
L88990 77030
L89040 77000
L89130 77000
L89180 77030
L89210 77080
L89210 77390
" />
<path d="M89410 77000
L89630 77000
" />
<path d="M89490 76800
L89490 77310
L89520 77360
L89580 77390
L89630 77390
" />
<path d="M90080 77000
L90080 77390
" />
<path d="M89830 77000
L89830 77310
L89860 77360
L89910 77390
L90000 77390
L90050 77360
L90080 77340
" />
<path d="M90670 77390
L90330 77390
" />
<path d="M90500 77390
L90500 76800
L90450 76890
L90390 76940
L90330 76970
" />
<path d="M91010 77050
L90950 77030
L90920 77000
L90900 76940
L90900 76910
L90920 76860
L90950 76830
L91010 76800
L91120 76800
L91180 76830
L91200 76860
L91230 76910
L91230 76940
L91200 77000
L91180 77030
L91120 77050
L91010 77050
L90950 77080
L90920 77110
L90900 77170
L90900 77280
L90920 77340
L90950 77360
L91010 77390
L91120 77390
L91180 77360
L91200 77340
L91230 77280
L91230 77170
L91200 77110
L91180 77080
L91120 77050
" />
<path d="M91490 77340
L91510 77360
L91490 77390
L91460 77360
L91490 77340
L91490 77390
" />
<path d="M91880 76800
L91940 76800
L91990 76830
L92020 76860
L92050 76910
L92080 77030
L92080 77170
L92050 77280
L92020 77340
L91990 77360
L91940 77390
L91880 77390
L91820 77360
L91790 77340
L91770 77280
L91740 77170
L91740 77030
L91770 76910
L91790 76860
L91820 76830
L91880 76800
" />
<path d="M92580 77000
L92580 77390
" />
<path d="M92440 76770
L92300 77200
L92670 77200
" />
<path d="M92890 77340
L92920 77360
L92890 77390
L92860 77360
L92890 77340
L92890 77390
" />
<path d="M93480 77390
L93140 77390
" />
<path d="M93310 77390
L93310 76800
L93260 76890
L93200 76940
L93140 76970
" />
</g>
<g style="fill:#840000; fill-opacity:0.0; 
stroke:#840000; stroke-width:100; stroke-opacity:1; 
stroke-linecap:round; stroke-linejoin:round;">
</g>
<g style="fill:#840000; fill-opacity:0.0; 
stroke:#840000; stroke-width:60; stroke-opacity:1; 
stroke-linecap:round; stroke-linejoin:round;">
<path d="M69690 75400
L112210 75400
" />
</g>
<g style="fill:#840000; fill-opacity:0.0; 
stroke:#840000; stroke-width:100; stroke-opacity:1; 
stroke-linecap:round; stroke-linejoin:round;">
</g>
<g style="fill:#840000; fill-opacity:0.0; 
stroke:#840000; stroke-width:120; stroke-opacity:1; 
stroke-linecap:round; stroke-linejoin:round;">
<text x="103540" y="76320"
textLength="2340" font-size="780" lengthAdjust="spacingAndGlyphs"
text-anchor="start" opacity="0">Rev: </text>
<path d="M104090 76290
L103890 76010
" />
<path d="M103750 76290
L103750 75700
L103980 75700
L104030 75730
L104060 75760
L104090 75810
L104090 75900
L104060 75950
L104030 75980
L103980 76010
L103750 76010
" />
<path d="M104570 76260
L104510 76290
L104400 76290
L104340 76260
L104320 76210
L104320 75980
L104340 75930
L104400 75900
L104510 75900
L104570 75930
L104600 75980
L104600 76040
L104320 76100
" />
<path d="M104790 75900
L104930 76290
L105070 75900
" />
<path d="M105300 76240
L105330 76260
L105300 76290
L105270 76260
L105300 76240
L105300 76290
" />
<path d="M105300 75930
L105330 75950
L105300 75980
L105270 75950
L105300 75930
L105300 75980
" />
</g>
<g style="fill:#840000; fill-opacity:0.0; 
stroke:#840000; stroke-width:100; stroke-opacity:1; 
stroke-linecap:round; stroke-linejoin:round;">
</g>
<g style="fill:#840000; fill-opacity:0.0; 
stroke:#840000; stroke-width:60; stroke-opacity:1; 
stroke-linecap:round; stroke-linejoin:round;">
<text x="70080" y="76320"
textLength="3780" font-size="780" lengthAdjust="spacingAndGlyphs"
text-anchor="start" opacity="0">Size: A4</text>
<path d="M70220 76260
L70300 76290
L70440 76290
L70500 76260
L70530 76240
L70550 76180
L70550 76120
L70530 76070
L70500 76040
L70440 76010
L70330 75980
L70270 75950
L70250 75930
L70220 75870
L70220 75810
L70250 75760
L70270 75730
L70330 75700
L70470 75700
L70550 75730
" />
<path d="M70810 76290
L70810 75900
" />
<path d="M70810 75700
L70780 75730
L70810 75760
L70840 75730
L70810 75700
L70810 75760
" />
<path d="M71030 75900
L71340 75900
L71030 76290
L71340 76290
" />
<path d="M71790 76260
L71730 76290
L71620 76290
L71570 76260
L71540 76210
L71540 75980
L71570 75930
L71620 75900
L71730 75900
L71790 75930
L71820 75980
L71820 76040
L71540 76100
" />
<path d="M72070 76240
L72100 76260
L72070 76290
L72040 76260
L72070 76240
L72070 76290
" />
<path d="M72070 75930
L72100 75950
L72070 75980
L72040 75950
L72070 75930
L72070 75980
" />
<path d="M72770 76120
L73060 76120
" />
<path d="M72720 76290
L72910 75700
L73110 76290
" />
<path d="M73560 75900
L73560 76290
" />
<path d="M73420 75670
L73280 76100
L73650 76100
" />
</g>
<g style="fill:#840000; fill-opacity:0.0; 
stroke:#840000; stroke-width:100; stroke-opacity:1; 
stroke-linecap:round; stroke-linejoin:round;">
</g>
<g style="fill:#840000; fill-opacity:0.0; 
stroke:#840000; stroke-width:60; stroke-opacity:1; 
stroke-linecap:round; stroke-linejoin:round;">
<text x="103540" y="77420"
textLength="3350" font-size="780" lengthAdjust="spacingAndGlyphs"
text-anchor="start" opacity="0">Id: 1/2</text>
<path d="M103710 77390
L103710 76800
" />
<path d="M104240 77390
L104240 76800
" />
<path d="M104240 77360
L104180 77390
L104070 77390
L104010 77360
L103990 77340
L103960 77280
L103960 77110
L103990 77050
L104010 77030
L104070 77000
L104180 77000
L104240 77030
" />
<path d="M104520 77340
L104550 77360
L104520 77390
L104490 77360
L104520 77340
L104520 77390
" />
<path d="M104520 77030
L104550 77050
L104520 77080
L104490 77050
L104520 77030
L104520 77080
" />
<path d="M105560 77390
L105220 77390
" />
<path d="M105390 77390
L105390 76800
L105340 76890
L105280 76940
L105220 76970
" />
<path d="M106230 76770
L105730 77530
" />
<path d="M106400 76860
L106430 76830
L106490 76800
L106630 76800
L106680 76830
L106710 76860
L106740 76910
L106740 76970
L106710 77050
L106370 77390
L106740 77390
" />
</g>
<g style="fill:#840000; fill-opacity:0.0; 
stroke:#840000; stroke-width:100; stroke-opacity:1; 
stroke-linecap:round; stroke-linejoin:round;">
</g>
<g style="fill:#840000; fill-opacity:0.0; 
stroke:#840000; stroke-width:60; stroke-opacity:1; 
stroke-linecap:round; stroke-linejoin:round;">
<path d="M69690 73820
L112210 73820
" />
</g>
<g style="fill:#840000; fill-opacity:0.0; 
stroke:#840000; stroke-width:100; stroke-opacity:1; 
stroke-linecap:round; stroke-linejoin:round;">
</g>
<g style="fill:#840000; fill-opacity:0.0; 
stroke:#840000; stroke-width:160; stroke-opacity:1; 
stroke-linecap:round; stroke-linejoin:round;">
<text x="70080" y="74920"
textLength="3710" font-size="1050" lengthAdjust="spacingAndGlyphs"
text-anchor="start" opacity="0">Title: </text>
<path d="M70360 74090
L70810 74090
" />
<path d="M70480 74880
L70580 74090
" />
<path d="M70970 74880
L71040 74360
" />
<path d="M71070 74090
L71030 74130
L71060 74170
L71110 74130
L71070 74090
L71060 74170
" />
<path d="M71300 74360
L71600 74360
" />
<path d="M71450 74090
L71360 74770
L71390 74840
L71460 74880
L71540 74880
" />
<path d="M71910 74880
L71840 74840
L71820 74770
L71900 74090
" />
<path d="M72520 74840
L72440 74880
L72290 74880
L72220 74840
L72190 74770
L72230 74470
L72280 74390
L72360 74360
L72510 74360
L72580 74390
L72610 74470
L72600 74540
L72210 74620
" />
<path d="M72900 74810
L72930 74840
L72890 74880
L72860 74840
L72900 74810
L72890 74880
" />
<path d="M72950 74390
L72990 74430
L72940 74470
L72910 74430
L72950 74390
L72940 74470
" />
</g>
<g style="fill:#840000; fill-opacity:0.0; 
stroke:#840000; stroke-width:100; stroke-opacity:1; 
stroke-linecap:round; stroke-linejoin:round;">
</g>
<g style="fill:#840000; fill-opacity:0.0; 
stroke:#840000; stroke-width:60; stroke-opacity:1; 
stroke-linecap:round; stroke-linejoin:round;">
<text x="70080" y="73400"
textLength="11000" font-size="780" lengthAdjust="spacingAndGlyphs"
text-anchor="start" opacity="0">File: STD_LED_Driver.sch</text>
<path d="M70440 73060
L70250 73060
" />
<path d="M70250 73370
L70250 72780
L70530 72780
" />
<path d="M70750 73370
L70750 72980
" />
<path d="M70750 72780
L70720 72810
L70750 72840
L70780 72810
L70750 72780
L70750 72840
" />
<path d="M71120 73370
L71060 73340
L71030 73290
L71030 72780
" />
<path d="M71570 73340
L71510 73370
L71400 73370
L71340 73340
L71310 73290
L71310 73060
L71340 73010
L71400 72980
L71510 72980
L71570 73010
L71590 73060
L71590 73120
L71310 73180
" />
<path d="M71850 73320
L71880 73340
L71850 73370
L71820 73340
L71850 73320
L71850 73370
" />
<path d="M71850 73010
L71880 73030
L71850 73060
L71820 73030
L71850 73010
L71850 73060
" />
<path d="M72550 73340
L72630 73370
L72770 73370
L72830 73340
L72860 73320
L72890 73260
L72890 73200
L72860 73150
L72830 73120
L72770 73090
L72660 73060
L72610 73030
L72580 73010
L72550 72950
L72550 72890
L72580 72840
L72610 72810
L72660 72780
L72800 72780
L72890 72810
" />
<path d="M73060 72780
L73390 72780
" />
<path d="M73220 73370
L73220 72780
" />
<path d="M73590 73370
L73590 72780
L73730 72780
L73810 72810
L73870 72870
L73900 72920
L73930 73030
L73930 73120
L73900 73230
L73870 73290
L73810 73340
L73730 73370
L73590 73370
" />
<path d="M74040 73430
L74490 73430
" />
<path d="M74910 73370
L74630 73370
L74630 72780
" />
<path d="M75110 73060
L75300 73060
" />
<path d="M75390 73370
L75110 73370
L75110 72780
L75390 72780
" />
<path d="M75640 73370
L75640 72780
L75780 72780
L75860 72810
L75920 72870
L75950 72920
L75980 73030
L75980 73120
L75950 73230
L75920 73290
L75860 73340
L75780 73370
L75640 73370
" />
<path d="M76090 73430
L76540 73430
" />
<path d="M76680 73370
L76680 72780
L76820 72780
L76900 72810
L76960 72870
L76990 72920
L77020 73030
L77020 73120
L76990 73230
L76960 73290
L76900 73340
L76820 73370
L76680 73370
" />
<path d="M77270 73370
L77270 72980
" />
<path d="M77270 73090
L77300 73030
L77330 73010
L77380 72980
L77440 72980
" />
<path d="M77630 73370
L77630 72980
" />
<path d="M77630 72780
L77610 72810
L77630 72840
L77660 72810
L77630 72780
L77630 72840
" />
<path d="M77860 72980
L78000 73370
L78140 72980
" />
<path d="M78590 73340
L78530 73370
L78420 73370
L78370 73340
L78340 73290
L78340 73060
L78370 73010
L78420 72980
L78530 72980
L78590 73010
L78620 73060
L78620 73120
L78340 73180
" />
<path d="M78870 73370
L78870 72980
" />
<path d="M78870 73090
L78900 73030
L78930 73010
L78980 72980
L79040 72980
" />
<path d="M79240 73320
L79260 73340
L79240 73370
L79210 73340
L79240 73320
L79240 73370
" />
<path d="M79490 73340
L79550 73370
L79660 73370
L79710 73340
L79740 73290
L79740 73260
L79710 73200
L79660 73180
L79570 73180
L79520 73150
L79490 73090
L79490 73060
L79520 73010
L79570 72980
L79660 72980
L79710 73010
" />
<path d="M80250 73340
L80190 73370
L80080 73370
L80020 73340
L79990 73320
L79970 73260
L79970 73090
L79990 73030
L80020 73010
L80080 72980
L80190 72980
L80250 73010
" />
<path d="M80500 73370
L80500 72780
" />
<path d="M80750 73370
L80750 73060
L80730 73010
L80670 72980
L80580 72980
L80530 73010
L80500 73030
" />
</g>
<g style="fill:#840000; fill-opacity:0.0; 
stroke:#840000; stroke-width:100; stroke-opacity:1; 
stroke-linecap:round; stroke-linejoin:round;">
</g>
<g style="fill:#840000; fill-opacity:0.0; 
stroke:#840000; stroke-width:60; stroke-opacity:1; 
stroke-linecap:round; stroke-linejoin:round;">
<path d="M69690 71460
L112210 71460
" />
</g>
<g style="fill:#840000; fill-opacity:0.0; 
stroke:#840000; stroke-width:100; stroke-opacity:1; 
stroke-linecap:round; stroke-linejoin:round;">
</g>
<g style="fill:#840000; fill-opacity:0.0; 
stroke:#840000; stroke-width:60; stroke-opacity:1; 
stroke-linecap:round; stroke-linejoin:round;">
<text x="70080" y="72340"
textLength="3850" font-size="780" lengthAdjust="spacingAndGlyphs"
text-anchor="start" opacity="0">Sheet: /</text>
<path d="M70220 72280
L70300 72310
L70440 72310
L70500 72280
L70530 72260
L70550 72200
L70550 72140
L70530 72090
L70500 72060
L70440 72030
L70330 72000
L70270 71970
L70250 71950
L70220 71890
L70220 71830
L70250 71780
L70270 71750
L70330 71720
L70470 71720
L70550 71750
" />
<path d="M70810 72310
L70810 71720
" />
<path d="M71060 72310
L71060 72000
L71030 71950
L70980 71920
L70890 71920
L70840 71950
L70810 71970
" />
<path d="M71570 72280
L71510 72310
L71400 72310
L71340 72280
L71310 72230
L71310 72000
L71340 71950
L71400 71920
L71510 71920
L71570 71950
L71590 72000
L71590 72060
L71310 72120
" />
<path d="M72070 72280
L72020 72310
L71900 72310
L71850 72280
L71820 72230
L71820 72000
L71850 71950
L71900 71920
L72020 71920
L72070 71950
L72100 72000
L72100 72060
L71820 72120
" />
<path d="M72270 71920
L72490 71920
" />
<path d="M72350 71720
L72350 72230
L72380 72280
L72440 72310
L72490 72310
" />
<path d="M72690 72260
L72720 72280
L72690 72310
L72660 72280
L72690 72260
L72690 72310
" />
<path d="M72690 71950
L72720 71970
L72690 72000
L72660 71970
L72690 71950
L72690 72000
" />
<path d="M73840 71690
L73340 72450
" />
</g>
<g style="fill:#840000; fill-opacity:0.0; 
stroke:#840000; stroke-width:100; stroke-opacity:1; 
stroke-linecap:round; stroke-linejoin:round;">
</g>
<g style="fill:#840000; fill-opacity:0.0; 
stroke:#840000; stroke-width:60; stroke-opacity:1; 
stroke-linecap:round; stroke-linejoin:round;">
<path d="M77560 75400
L77560 76580
" />
</g>
<g style="fill:#840000; fill-opacity:0.0; 
stroke:#840000; stroke-width:100; stroke-opacity:1; 
stroke-linecap:round; stroke-linejoin:round;">
</g>
<g style="fill:#840000; fill-opacity:0.0; 
stroke:#840000; stroke-width:60; stroke-opacity:1; 
stroke-linecap:round; stroke-linejoin:round;">
<path d="M102760 75400
L102760 77960
" />
</g>
<g style="fill:#840084; fill-opacity:0.0; 
stroke:#840084; stroke-width:60; stroke-opacity:1; 
stroke-linecap:round; stroke-linejoin:round;">
<path d="M23500 23500
L45750 23500
L45750 41500
L23500 41500
L23500 23500
" />
</g>
<g style="fill:#008484; fill-opacity:0.0; 
stroke:#008484; stroke-width:60; stroke-opacity:1; 
stroke-linecap:round; stroke-linejoin:round;">
</g>
<g style="fill:#000000; fill-opacity:0.0; 
stroke:#000000; stroke-width:60; stroke-opacity:1; 
stroke-linecap:round; stroke-linejoin:round;">
<text x="23500" y="23460"
textLength="12200" font-size="660" lengthAdjust="spacingAndGlyphs"
text-anchor="start" opacity="0">Sheet: STD_LED_DRIVER_MODULE</text>
<path d="M23620 23410
L23690 23430
L23810 23430
L23860 23410
L23880 23380
L23910 23340
L23910 23290
L23880 23240
L23860 23220
L23810 23190
L23720 23170
L23670 23150
L23640 23120
L23620 23070
L23620 23030
L23640 22980
L23670 22960
L23720 22930
L23830 22930
L23910 22960
" />
<path d="M24120 23430
L24120 22930
" />
<path d="M24330 23430
L24330 23170
L24310 23120
L24260 23100
L24190 23100
L24140 23120
L24120 23150
" />
<path d="M24760 23410
L24720 23430
L24620 23430
L24570 23410
L24550 23360
L24550 23170
L24570 23120
L24620 23100
L24720 23100
L24760 23120
L24790 23170
L24790 23220
L24550 23260
" />
<path d="M25190 23410
L25140 23430
L25050 23430
L25000 23410
L24980 23360
L24980 23170
L25000 23120
L25050 23100
L25140 23100
L25190 23120
L25220 23170
L25220 23220
L24980 23260
" />
<path d="M25360 23100
L25550 23100
" />
<path d="M25430 22930
L25430 23360
L25450 23410
L25500 23430
L25550 23430
" />
<path d="M25720 23380
L25740 23410
L25720 23430
L25690 23410
L25720 23380
L25720 23430
" />
<path d="M25720 23120
L25740 23150
L25720 23170
L25690 23150
L25720 23120
L25720 23170
" />
<path d="M26310 23410
L26380 23430
L26500 23430
L26550 23410
L26570 23380
L26600 23340
L26600 23290
L26570 23240
L26550 23220
L26500 23190
L26410 23170
L26360 23150
L26330 23120
L26310 23070
L26310 23030
L26330 22980
L26360 22960
L26410 22930
L26530 22930
L26600 22960
" />
<path d="M26740 22930
L27030 22930
" />
<path d="M26880 23430
L26880 22930
" />
<path d="M27190 23430
L27190 22930
L27310 22930
L27380 22960
L27430 23000
L27450 23050
L27480 23150
L27480 23220
L27450 23310
L27430 23360
L27380 23410
L27310 23430
L27190 23430
" />
<path d="M27570 23480
L27950 23480
" />
<path d="M28310 23430
L28070 23430
L28070 22930
" />
<path d="M28480 23170
L28640 23170
" />
<path d="M28720 23430
L28480 23430
L28480 22930
L28720 22930
" />
<path d="M28930 23430
L28930 22930
L29050 22930
L29120 22960
L29170 23000
L29190 23050
L29220 23150
L29220 23220
L29190 23310
L29170 23360
L29120 23410
L29050 23430
L28930 23430
" />
<path d="M29310 23480
L29690 23480
" />
<path d="M29810 23430
L29810 22930
L29930 22930
L30000 22960
L30050 23000
L30070 23050
L30100 23150
L30100 23220
L30070 23310
L30050 23360
L30000 23410
L29930 23430
L29810 23430
" />
<path d="M30600 23430
L30430 23190
" />
<path d="M30310 23430
L30310 22930
L30500 22930
L30550 22960
L30570 22980
L30600 23030
L30600 23100
L30570 23150
L30550 23170
L30500 23190
L30310 23190
" />
<path d="M30810 23430
L30810 22930
" />
<path d="M30980 22930
L31140 23430
L31310 22930
" />
<path d="M31480 23170
L31640 23170
" />
<path d="M31720 23430
L31480 23430
L31480 22930
L31720 22930
" />
<path d="M32220 23430
L32050 23190
" />
<path d="M31930 23430
L31930 22930
L32120 22930
L32170 22960
L32190 22980
L32220 23030
L32220 23100
L32190 23150
L32170 23170
L32120 23190
L31930 23190
" />
<path d="M32310 23480
L32690 23480
" />
<path d="M32810 23430
L32810 22930
L32980 23290
L33140 22930
L33140 23430
" />
<path d="M33480 22930
L33570 22930
L33620 22960
L33670 23000
L33690 23100
L33690 23260
L33670 23360
L33620 23410
L33570 23430
L33480 23430
L33430 23410
L33380 23360
L33360 23260
L33360 23100
L33380 23000
L33430 22960
L33480 22930
" />
<path d="M33910 23430
L33910 22930
L34030 22930
L34100 22960
L34140 23000
L34170 23050
L34190 23150
L34190 23220
L34170 23310
L34140 23360
L34100 23410
L34030 23430
L33910 23430
" />
<path d="M34410 22930
L34410 23340
L34430 23380
L34450 23410
L34500 23430
L34600 23430
L34640 23410
L34670 23380
L34690 23340
L34690 22930
" />
<path d="M35170 23430
L34930 23430
L34930 22930
" />
<path d="M35330 23170
L35500 23170
" />
<path d="M35570 23430
L35330 23430
L35330 22930
L35570 22930
" />
</g>
<g style="fill:#848400; fill-opacity:0.0; 
stroke:#848400; stroke-width:60; stroke-opacity:1; 
stroke-linecap:round; stroke-linejoin:round;">
</g>
<g style="fill:#000000; fill-opacity:0.0; 
stroke:#000000; stroke-width:60; stroke-opacity:1; 
stroke-linecap:round; stroke-linejoin:round;">
<text x="23500" y="42040"
textLength="8460" font-size="660" lengthAdjust="spacingAndGlyphs"
text-anchor="start" opacity="0">File: ../LED_Driver.sch</text>
<path d="M23810 41750
L23640 41750
" />
<path d="M23640 42010
L23640 41510
L23880 41510
" />
<path d="M24070 42010
L24070 41680
" />
<path d="M24070 41510
L24050 41540
L24070 41560
L24100 41540
L24070 41510
L24070 41560
" />
<path d="M24380 42010
L24330 41990
L24310 41940
L24310 41510
" />
<path d="M24760 41990
L24720 42010
L24620 42010
L24570 41990
L24550 41940
L24550 41750
L24570 41700
L24620 41680
L24720 41680
L24760 41700
L24790 41750
L24790 41800
L24550 41840
" />
<path d="M25000 41960
L25030 41990
L25000 42010
L24980 41990
L25000 41960
L25000 42010
" />
<path d="M25000 41700
L25030 41730
L25000 41750
L24980 41730
L25000 41700
L25000 41750
" />
<path d="M25620 41960
L25640 41990
L25620 42010
L25600 41990
L25620 41960
L25620 42010
" />
<path d="M25860 41960
L25880 41990
L25860 42010
L25830 41990
L25860 41960
L25860 42010
" />
<path d="M26450 41490
L26030 42130
" />
<path d="M26860 42010
L26620 42010
L26620 41510
" />
<path d="M27030 41750
L27190 41750
" />
<path d="M27260 42010
L27030 42010
L27030 41510
L27260 41510
" />
<path d="M27480 42010
L27480 41510
L27600 41510
L27670 41540
L27720 41580
L27740 41630
L27760 41730
L27760 41800
L27740 41890
L27720 41940
L27670 41990
L27600 42010
L27480 42010
" />
<path d="M27860 42060
L28240 42060
" />
<path d="M28360 42010
L28360 41510
L28480 41510
L28550 41540
L28600 41580
L28620 41630
L28640 41730
L28640 41800
L28620 41890
L28600 41940
L28550 41990
L28480 42010
L28360 42010
" />
<path d="M28860 42010
L28860 41680
" />
<path d="M28860 41770
L28880 41730
L28910 41700
L28950 41680
L29000 41680
" />
<path d="M29170 42010
L29170 41680
" />
<path d="M29170 41510
L29140 41540
L29170 41560
L29190 41540
L29170 41510
L29170 41560
" />
<path d="M29360 41680
L29480 42010
L29600 41680
" />
<path d="M29980 41990
L29930 42010
L29830 42010
L29790 41990
L29760 41940
L29760 41750
L29790 41700
L29830 41680
L29930 41680
L29980 41700
L30000 41750
L30000 41800
L29760 41840
" />
<path d="M30220 42010
L30220 41680
" />
<path d="M30220 41770
L30240 41730
L30260 41700
L30310 41680
L30360 41680
" />
<path d="M30530 41960
L30550 41990
L30530 42010
L30500 41990
L30530 41960
L30530 42010
" />
<path d="M30740 41990
L30790 42010
L30880 42010
L30930 41990
L30950 41940
L30950 41920
L30930 41870
L30880 41840
L30810 41840
L30760 41820
L30740 41770
L30740 41750
L30760 41700
L30810 41680
L30880 41680
L30930 41700
" />
<path d="M31380 41990
L31330 42010
L31240 42010
L31190 41990
L31170 41960
L31140 41920
L31140 41770
L31170 41730
L31190 41700
L31240 41680
L31330 41680
L31380 41700
" />
<path d="M31600 42010
L31600 41510
" />
<path d="M31810 42010
L31810 41750
L31790 41700
L31740 41680
L31670 41680
L31620 41700
L31600 41730
" />
</g>
<g style="fill:#840084; fill-opacity:0.0; 
stroke:#840084; stroke-width:60; stroke-opacity:1; 
stroke-linecap:round; stroke-linejoin:round;">
</g>
<g style="fill:#848400; fill-opacity:0.0; 
stroke:#848400; stroke-width:60; stroke-opacity:1; 
stroke-linecap:round; stroke-linejoin:round;">
<text x="45150" y="25500"
textLength="1580" font-size="660" lengthAdjust="spacingAndGlyphs"
text-anchor="end" opacity="0">+5V</text>
<path d="M43710 25280
L44090 25280
" />
<path d="M43900 25470
L43900 25090
" />
<path d="M44570 24970
L44330 24970
L44310 25210
L44330 25190
L44380 25160
L44500 25160
L44540 25190
L44570 25210
L44590 25260
L44590 25380
L44570 25420
L44540 25450
L44500 25470
L44380 25470
L44330 25450
L44310 25420
" />
<path d="M44730 24970
L44900 25470
L45070 24970
" />
</g>
<g style="fill:#848400; fill-opacity:0.0; 
stroke:#848400; stroke-width:100; stroke-opacity:1; 
stroke-linecap:round; stroke-linejoin:round;">
<path style="fill:#848400; fill-opacity:0.0; 
stroke:#848400; stroke-width:100; stroke-opacity:1; 
stroke-linecap:round; stroke-linejoin:round;fill:none"
d="M 45250,25250
45500,25500
45750,25500
45750,25000
45500,25000
Z" /> 
</g>
<g style="fill:#848400; fill-opacity:0.0; 
stroke:#848400; stroke-width:60; stroke-opacity:1; 
stroke-linecap:round; stroke-linejoin:round;">
<text x="45150" y="28750"
textLength="3580" font-size="660" lengthAdjust="spacingAndGlyphs"
text-anchor="end" opacity="0">LED_CTRL</text>
<path d="M41950 28720
L41710 28720
L41710 28220
" />
<path d="M42120 28460
L42280 28460
" />
<path d="M42350 28720
L42120 28720
L42120 28220
L42350 28220
" />
<path d="M42570 28720
L42570 28220
L42690 28220
L42760 28250
L42810 28290
L42830 28340
L42850 28440
L42850 28510
L42830 28600
L42810 28650
L42760 28700
L42690 28720
L42570 28720
" />
<path d="M42950 28770
L43330 28770
" />
<path d="M43730 28670
L43710 28700
L43640 28720
L43590 28720
L43520 28700
L43470 28650
L43450 28600
L43420 28510
L43420 28440
L43450 28340
L43470 28290
L43520 28250
L43590 28220
L43640 28220
L43710 28250
L43730 28270
" />
<path d="M43880 28220
L44160 28220
" />
<path d="M44020 28720
L44020 28220
" />
<path d="M44620 28720
L44450 28480
" />
<path d="M44330 28720
L44330 28220
L44520 28220
L44570 28250
L44590 28270
L44620 28320
L44620 28390
L44590 28440
L44570 28460
L44520 28480
L44330 28480
" />
<path d="M45070 28720
L44830 28720
L44830 28220
" />
</g>
<g style="fill:#848400; fill-opacity:0.0; 
stroke:#848400; stroke-width:100; stroke-opacity:1; 
stroke-linecap:round; stroke-linejoin:round;">
<path style="fill:#848400; fill-opacity:0.0; 
stroke:#848400; stroke-width:100; stroke-opacity:1; 
stroke-linecap:round; stroke-linejoin:round;fill:none"
d="M 45250,28500
45500,28750
45750,28750
45750,28250
45500,28250
Z" /> 
</g>
<g style="fill:#848400; fill-opacity:0.0; 
stroke:#848400; stroke-width:60; stroke-opacity:1; 
stroke-linecap:round; stroke-linejoin:round;">
<text x="45150" y="32500"
textLength="6040" font-size="660" lengthAdjust="spacingAndGlyphs"
text-anchor="end" opacity="0">LED_ANODE_OUT</text>
<path d="M39500 32470
L39260 32470
L39260 31970
" />
<path d="M39660 32210
L39830 32210
" />
<path d="M39900 32470
L39660 32470
L39660 31970
L39900 31970
" />
<path d="M40120 32470
L40120 31970
L40230 31970
L40310 32000
L40350 32040
L40380 32090
L40400 32190
L40400 32260
L40380 32350
L40350 32400
L40310 32450
L40230 32470
L40120 32470
" />
<path d="M40500 32520
L40880 32520
" />
<path d="M40970 32330
L41210 32330
" />
<path d="M40920 32470
L41090 31970
L41260 32470
" />
<path d="M41420 32470
L41420 31970
L41710 32470
L41710 31970
" />
<path d="M42040 31970
L42140 31970
L42190 32000
L42230 32040
L42260 32140
L42260 32300
L42230 32400
L42190 32450
L42140 32470
L42040 32470
L42000 32450
L41950 32400
L41920 32300
L41920 32140
L41950 32040
L42000 32000
L42040 31970
" />
<path d="M42470 32470
L42470 31970
L42590 31970
L42660 32000
L42710 32040
L42730 32090
L42760 32190
L42760 32260
L42730 32350
L42710 32400
L42660 32450
L42590 32470
L42470 32470
" />
<path d="M42970 32210
L43140 32210
" />
<path d="M43210 32470
L42970 32470
L42970 31970
L43210 31970
" />
<path d="M43310 32520
L43690 32520
" />
<path d="M43900 31970
L44000 31970
L44040 32000
L44090 32040
L44120 32140
L44120 32300
L44090 32400
L44040 32450
L44000 32470
L43900 32470
L43850 32450
L43810 32400
L43780 32300
L43780 32140
L43810 32040
L43850 32000
L43900 31970
" />
<path d="M44330 31970
L44330 32380
L44350 32420
L44380 32450
L44420 32470
L44520 32470
L44570 32450
L44590 32420
L44620 32380
L44620 31970
" />
<path d="M44780 31970
L45070 31970
" />
<path d="M44920 32470
L44920 31970
" />
</g>
<g style="fill:#848400; fill-opacity:0.0; 
stroke:#848400; stroke-width:100; stroke-opacity:1; 
stroke-linecap:round; stroke-linejoin:round;">
<path style="fill:#848400; fill-opacity:0.0; 
stroke:#848400; stroke-width:100; stroke-opacity:1; 
stroke-linecap:round; stroke-linejoin:round;fill:none"
d="M 45250,32250
45500,32500
45750,32500
45750,32000
45500,32000
Z" /> 
</g>
<g style="fill:#848400; fill-opacity:0.0; 
stroke:#848400; stroke-width:60; stroke-opacity:1; 
stroke-linecap:round; stroke-linejoin:round;">
<text x="45150" y="39500"
textLength="6920" font-size="660" lengthAdjust="spacingAndGlyphs"
text-anchor="end" opacity="0">LED_CATHODE_OUT</text>
<path d="M38620 39470
L38380 39470
L38380 38970
" />
<path d="M38780 39210
L38950 39210
" />
<path d="M39020 39470
L38780 39470
L38780 38970
L39020 38970
" />
<path d="M39230 39470
L39230 38970
L39350 38970
L39420 39000
L39470 39040
L39500 39090
L39520 39190
L39520 39260
L39500 39350
L39470 39400
L39420 39450
L39350 39470
L39230 39470
" />
<path d="M39620 39520
L40000 39520
" />
<path d="M40400 39420
L40380 39450
L40310 39470
L40260 39470
L40190 39450
L40140 39400
L40120 39350
L40090 39260
L40090 39190
L40120 39090
L40140 39040
L40190 39000
L40260 38970
L40310 38970
L40380 39000
L40400 39020
" />
<path d="M40590 39330
L40830 39330
" />
<path d="M40540 39470
L40710 38970
L40880 39470
" />
<path d="M40970 38970
L41260 38970
" />
<path d="M41120 39470
L41120 38970
" />
<path d="M41420 39470
L41420 38970
" />
<path d="M41420 39210
L41710 39210
" />
<path d="M41710 39470
L41710 38970
" />
<path d="M42040 38970
L42140 38970
L42190 39000
L42230 39040
L42260 39140
L42260 39300
L42230 39400
L42190 39450
L42140 39470
L42040 39470
L42000 39450
L41950 39400
L41920 39300
L41920 39140
L41950 39040
L42000 39000
L42040 38970
" />
<path d="M42470 39470
L42470 38970
L42590 38970
L42660 39000
L42710 39040
L42730 39090
L42760 39190
L42760 39260
L42730 39350
L42710 39400
L42660 39450
L42590 39470
L42470 39470
" />
<path d="M42970 39210
L43140 39210
" />
<path d="M43210 39470
L42970 39470
L42970 38970
L43210 38970
" />
<path d="M43310 39520
L43690 39520
" />
<path d="M43900 38970
L44000 38970
L44040 39000
L44090 39040
L44120 39140
L44120 39300
L44090 39400
L44040 39450
L44000 39470
L43900 39470
L43850 39450
L43810 39400
L43780 39300
L43780 39140
L43810 39040
L43850 39000
L43900 38970
" />
<path d="M44330 38970
L44330 39380
L44350 39420
L44380 39450
L44420 39470
L44520 39470
L44570 39450
L44590 39420
L44620 39380
L44620 38970
" />
<path d="M44780 38970
L45070 38970
" />
<path d="M44920 39470
L44920 38970
" />
</g>
<g style="fill:#848400; fill-opacity:0.0; 
stroke:#848400; stroke-width:100; stroke-opacity:1; 
stroke-linecap:round; stroke-linejoin:round;">
<path style="fill:#848400; fill-opacity:0.0; 
stroke:#848400; stroke-width:100; stroke-opacity:1; 
stroke-linecap:round; stroke-linejoin:round;fill:none"
d="M 45250,39250
45500,39500
45750,39500
45750,39000
45500,39000
Z" /> 
</g>
<g style="fill:#848400; fill-opacity:0.0; 
stroke:#848400; stroke-width:0; stroke-opacity:1; 
stroke-linecap:round; stroke-linejoin:round;">
<g >
</g>
<g style="fill:#840000; fill-opacity:0.0; 
stroke:#840000; stroke-width:0; stroke-opacity:1; 
stroke-linecap:round; stroke-linejoin:round;">
</g>
<g style="fill:#840000; fill-opacity:0.0; 
stroke:#840000; stroke-width:60; stroke-opacity:1; 
stroke-linecap:round; stroke-linejoin:round;">
<path style="fill:#840000; fill-opacity:0.0; 
stroke:#840000; stroke-width:60; stroke-opacity:1; 
stroke-linecap:round; stroke-linejoin:round;fill:none"
d="M 75750,59250
75750,59750
76150,60000
75750,60250
75350,60000
75750,59750
" /> 
<path d="M75750 59250
L75750 59250
" />
</g>
<g style="fill:#008484; fill-opacity:0.0; 
stroke:#008484; stroke-width:60; stroke-opacity:1; 
stroke-linecap:round; stroke-linejoin:round;">
<text x="75740" y="61200"
textLength="3770" font-size="660" lengthAdjust="spacingAndGlyphs"
text-anchor="middle" opacity="0">PWR_FLAG</text>
<path d="M74000 61170
L74000 60670
L74190 60670
L74240 60700
L74260 60720
L74280 60770
L74280 60840
L74260 60890
L74240 60910
L74190 60930
L74000 60930
" />
<path d="M74450 60670
L74570 61170
L74660 60810
L74760 61170
L74880 60670
" />
<path d="M75350 61170
L75190 60930
" />
<path d="M75070 61170
L75070 60670
L75260 60670
L75310 60700
L75330 60720
L75350 60770
L75350 60840
L75330 60890
L75310 60910
L75260 60930
L75070 60930
" />
<path d="M75450 61220
L75830 61220
" />
<path d="M76120 60910
L75950 60910
" />
<path d="M75950 61170
L75950 60670
L76190 60670
" />
<path d="M76620 61170
L76380 61170
L76380 60670
" />
<path d="M76760 61030
L77000 61030
" />
<path d="M76710 61170
L76880 60670
L77040 61170
" />
<path d="M77470 60700
L77430 60670
L77350 60670
L77280 60700
L77240 60740
L77210 60790
L77190 60890
L77190 60960
L77210 61050
L77240 61100
L77280 61150
L77350 61170
L77400 61170
L77470 61150
L77500 61120
L77500 60960
L77400 60960
" />
</g>
</g>
<g style="fill:#008484; fill-opacity:0.0; 
stroke:#008484; stroke-width:0; stroke-opacity:1; 
stroke-linecap:round; stroke-linejoin:round;">
<g >
</g>
<g style="fill:#840000; fill-opacity:0.0; 
stroke:#840000; stroke-width:0; stroke-opacity:1; 
stroke-linecap:round; stroke-linejoin:round;">
</g>
<g style="fill:#840000; fill-opacity:0.0; 
stroke:#840000; stroke-width:60; stroke-opacity:1; 
stroke-linecap:round; stroke-linejoin:round;">
<path style="fill:#840000; fill-opacity:0.0; 
stroke:#840000; stroke-width:60; stroke-opacity:1; 
stroke-linecap:round; stroke-linejoin:round;fill:none"
d="M 98950,23750
99250,23250
" /> 
<path style="fill:#840000; fill-opacity:0.0; 
stroke:#840000; stroke-width:60; stroke-opacity:1; 
stroke-linecap:round; stroke-linejoin:round;fill:none"
d="M 99250,24250
99250,23250
" /> 
<path style="fill:#840000; fill-opacity:0.0; 
stroke:#840000; stroke-width:60; stroke-opacity:1; 
stroke-linecap:round; stroke-linejoin:round;fill:none"
d="M 99250,23250
99550,23750
" /> 
</g>
<g style="fill:#008484; fill-opacity:0.0; 
stroke:#008484; stroke-width:60; stroke-opacity:1; 
stroke-linecap:round; stroke-linejoin:round;">
<text x="99400" y="22790"
textLength="1580" font-size="660" lengthAdjust="spacingAndGlyphs"
text-anchor="middle" opacity="0">+5V</text>
<path d="M98750 22570
L99130 22570
" />
<path d="M98940 22760
L98940 22380
" />
<path d="M99610 22260
L99370 22260
L99350 22500
L99370 22480
L99420 22450
L99540 22450
L99590 22480
L99610 22500
L99630 22550
L99630 22670
L99610 22710
L99590 22740
L99540 22760
L99420 22760
L99370 22740
L99350 22710
" />
<path d="M99780 22260
L99940 22760
L100110 22260
" />
</g>
</g>
<g style="fill:#008484; fill-opacity:0.0; 
stroke:#008484; stroke-width:0; stroke-opacity:1; 
stroke-linecap:round; stroke-linejoin:round;">
<g >
</g>
<g style="fill:#840000; fill-opacity:0.0; 
stroke:#840000; stroke-width:0; stroke-opacity:1; 
stroke-linecap:round; stroke-linejoin:round;">
</g>
<g style="fill:#840000; fill-opacity:0.0; 
stroke:#840000; stroke-width:60; stroke-opacity:1; 
stroke-linecap:round; stroke-linejoin:round;">
<path style="fill:#840000; fill-opacity:0.0; 
stroke:#840000; stroke-width:60; stroke-opacity:1; 
stroke-linecap:round; stroke-linejoin:round;fill:none"
d="M 80450,24750
80750,24250
" /> 
<path style="fill:#840000; fill-opacity:0.0; 
stroke:#840000; stroke-width:60; stroke-opacity:1; 
stroke-linecap:round; stroke-linejoin:round;fill:none"
d="M 80750,25250
80750,24250
" /> 
<path style="fill:#840000; fill-opacity:0.0; 
stroke:#840000; stroke-width:60; stroke-opacity:1; 
stroke-linecap:round; stroke-linejoin:round;fill:none"
d="M 80750,24250
81050,24750
" /> 
</g>
<g style="fill:#008484; fill-opacity:0.0; 
stroke:#008484; stroke-width:60; stroke-opacity:1; 
stroke-linecap:round; stroke-linejoin:round;">
<text x="80900" y="23790"
textLength="1580" font-size="660" lengthAdjust="spacingAndGlyphs"
text-anchor="middle" opacity="0">+5V</text>
<path d="M80250 23570
L80630 23570
" />
<path d="M80440 23760
L80440 23380
" />
<path d="M81110 23260
L80870 23260
L80850 23500
L80870 23480
L80920 23450
L81040 23450
L81090 23480
L81110 23500
L81130 23550
L81130 23670
L81110 23710
L81090 23740
L81040 23760
L80920 23760
L80870 23740
L80850 23710
" />
<path d="M81280 23260
L81440 23760
L81610 23260
" />
</g>
</g>
<g style="fill:#008484; fill-opacity:0.0; 
stroke:#008484; stroke-width:0; stroke-opacity:1; 
stroke-linecap:round; stroke-linejoin:round;">
<g >
</g>
<g style="fill:#840000; fill-opacity:0.0; 
stroke:#840000; stroke-width:0; stroke-opacity:1; 
stroke-linecap:round; stroke-linejoin:round;">
</g>
<g style="fill:#840000; fill-opacity:0.0; 
stroke:#840000; stroke-width:60; stroke-opacity:1; 
stroke-linecap:round; stroke-linejoin:round;">
<path style="fill:#840000; fill-opacity:0.0; 
stroke:#840000; stroke-width:60; stroke-opacity:1; 
stroke-linecap:round; stroke-linejoin:round;fill:none"
d="M 80750,40000
80750,40500
81250,40500
80750,41000
80250,40500
80750,40500
" /> 
</g>
<g style="fill:#008484; fill-opacity:0.0; 
stroke:#008484; stroke-width:60; stroke-opacity:1; 
stroke-linecap:round; stroke-linejoin:round;">
<text x="80800" y="42000"
textLength="2060" font-size="660" lengthAdjust="spacingAndGlyphs"
text-anchor="middle" opacity="0">GNDS</text>
<path d="M80180 41500
L80130 41470
L80060 41470
L79990 41500
L79940 41540
L79910 41590
L79890 41690
L79890 41760
L79910 41850
L79940 41900
L79990 41950
L80060 41970
L80100 41970
L80180 41950
L80200 41920
L80200 41760
L80100 41760
" />
<path d="M80410 41970
L80410 41470
L80700 41970
L80700 41470
" />
<path d="M80940 41970
L80940 41470
L81060 41470
L81130 41500
L81180 41540
L81200 41590
L81220 41690
L81220 41760
L81200 41850
L81180 41900
L81130 41950
L81060 41970
L80940 41970
" />
<path d="M81410 41950
L81490 41970
L81600 41970
L81650 41950
L81680 41920
L81700 41880
L81700 41830
L81680 41780
L81650 41760
L81600 41730
L81510 41710
L81460 41690
L81440 41660
L81410 41610
L81410 41570
L81440 41520
L81460 41500
L81510 41470
L81630 41470
L81700 41500
" />
</g>
</g>
<g style="fill:#008484; fill-opacity:0.0; 
stroke:#008484; stroke-width:0; stroke-opacity:1; 
stroke-linecap:round; stroke-linejoin:round;">
<g >
</g>
<g style="fill:#840000; fill-opacity:0.0; 
stroke:#840000; stroke-width:0; stroke-opacity:1; 
stroke-linecap:round; stroke-linejoin:round;">
</g>
<g style="fill:#840000; fill-opacity:0.0; 
stroke:#840000; stroke-width:60; stroke-opacity:1; 
stroke-linecap:round; stroke-linejoin:round;">
<path style="fill:#840000; fill-opacity:0.0; 
stroke:#840000; stroke-width:60; stroke-opacity:1; 
stroke-linecap:round; stroke-linejoin:round;fill:none"
d="M 99250,38000
99250,38500
99750,38500
99250,39000
98750,38500
99250,38500
" /> 
</g>
<g style="fill:#008484; fill-opacity:0.0; 
stroke:#008484; stroke-width:60; stroke-opacity:1; 
stroke-linecap:round; stroke-linejoin:round;">
<text x="99300" y="40000"
textLength="2060" font-size="660" lengthAdjust="spacingAndGlyphs"
text-anchor="middle" opacity="0">GNDS</text>
<path d="M98680 39500
L98630 39470
L98560 39470
L98490 39500
L98440 39540
L98410 39590
L98390 39690
L98390 39760
L98410 39850
L98440 39900
L98490 39950
L98560 39970
L98600 39970
L98680 39950
L98700 39920
L98700 39760
L98600 39760
" />
<path d="M98910 39970
L98910 39470
L99200 39970
L99200 39470
" />
<path d="M99440 39970
L99440 39470
L99560 39470
L99630 39500
L99680 39540
L99700 39590
L99720 39690
L99720 39760
L99700 39850
L99680 39900
L99630 39950
L99560 39970
L99440 39970
" />
<path d="M99910 39950
L99990 39970
L100100 39970
L100150 39950
L100180 39920
L100200 39880
L100200 39830
L100180 39780
L100150 39760
L100100 39730
L100010 39710
L99960 39690
L99940 39660
L99910 39610
L99910 39570
L99940 39520
L99960 39500
L100010 39470
L100130 39470
L100200 39500
" />
</g>
</g>
<g style="fill:#008484; fill-opacity:0.0; 
stroke:#008484; stroke-width:0; stroke-opacity:1; 
stroke-linecap:round; stroke-linejoin:round;">
<g >
</g>
<g style="fill:#840000; fill-opacity:0.0; 
stroke:#840000; stroke-width:0; stroke-opacity:1; 
stroke-linecap:round; stroke-linejoin:round;">
</g>
<g style="fill:#840000; fill-opacity:0.0; 
stroke:#840000; stroke-width:60; stroke-opacity:1; 
stroke-linecap:round; stroke-linejoin:round;">
<path style="fill:#840000; fill-opacity:0.0; 
stroke:#840000; stroke-width:60; stroke-opacity:1; 
stroke-linecap:round; stroke-linejoin:round;fill:none"
d="M 70750,54250
70750,53750
70350,53500
70750,53250
71150,53500
70750,53750
" /> 
<path d="M70750 54250
L70750 54250
" />
</g>
<g style="fill:#008484; fill-opacity:0.0; 
stroke:#008484; stroke-width:60; stroke-opacity:1; 
stroke-linecap:round; stroke-linejoin:round;">
<text x="70750" y="52790"
textLength="3770" font-size="660" lengthAdjust="spacingAndGlyphs"
text-anchor="middle" opacity="0">PWR_FLAG</text>
<path d="M69010 52760
L69010 52260
L69200 52260
L69250 52290
L69270 52310
L69290 52360
L69290 52430
L69270 52480
L69250 52500
L69200 52520
L69010 52520
" />
<path d="M69460 52260
L69580 52760
L69670 52400
L69770 52760
L69890 52260
" />
<path d="M70360 52760
L70200 52520
" />
<path d="M70080 52760
L70080 52260
L70270 52260
L70320 52290
L70340 52310
L70360 52360
L70360 52430
L70340 52480
L70320 52500
L70270 52520
L70080 52520
" />
<path d="M70460 52810
L70840 52810
" />
<path d="M71130 52500
L70960 52500
" />
<path d="M70960 52760
L70960 52260
L71200 52260
" />
<path d="M71630 52760
L71390 52760
L71390 52260
" />
<path d="M71770 52620
L72010 52620
" />
<path d="M71720 52760
L71890 52260
L72050 52760
" />
<path d="M72480 52290
L72440 52260
L72360 52260
L72290 52290
L72250 52330
L72220 52380
L72200 52480
L72200 52550
L72220 52640
L72250 52690
L72290 52740
L72360 52760
L72410 52760
L72480 52740
L72510 52710
L72510 52550
L72410 52550
" />
</g>
</g>
<g style="fill:#008484; fill-opacity:0.0; 
stroke:#008484; stroke-width:0; stroke-opacity:1; 
stroke-linecap:round; stroke-linejoin:round;">
<g >
</g>
<g style="fill:#840000; fill-opacity:0.0; 
stroke:#840000; stroke-width:0; stroke-opacity:1; 
stroke-linecap:round; stroke-linejoin:round;">
</g>
<g style="fill:#840000; fill-opacity:0.0; 
stroke:#840000; stroke-width:60; stroke-opacity:1; 
stroke-linecap:round; stroke-linejoin:round;">
<path style="fill:#840000; fill-opacity:0.0; 
stroke:#840000; stroke-width:60; stroke-opacity:1; 
stroke-linecap:round; stroke-linejoin:round;fill:none"
d="M 75450,53750
75750,53250
" /> 
<path style="fill:#840000; fill-opacity:0.0; 
stroke:#840000; stroke-width:60; stroke-opacity:1; 
stroke-linecap:round; stroke-linejoin:round;fill:none"
d="M 75750,54250
75750,53250
" /> 
<path style="fill:#840000; fill-opacity:0.0; 
stroke:#840000; stroke-width:60; stroke-opacity:1; 
stroke-linecap:round; stroke-linejoin:round;fill:none"
d="M 75750,53250
76050,53750
" /> 
</g>
<g style="fill:#008484; fill-opacity:0.0; 
stroke:#008484; stroke-width:60; stroke-opacity:1; 
stroke-linecap:round; stroke-linejoin:round;">
<text x="75900" y="52790"
textLength="1580" font-size="660" lengthAdjust="spacingAndGlyphs"
text-anchor="middle" opacity="0">+5V</text>
<path d="M75250 52570
L75630 52570
" />
<path d="M75440 52760
L75440 52380
" />
<path d="M76110 52260
L75870 52260
L75850 52500
L75870 52480
L75920 52450
L76040 52450
L76090 52480
L76110 52500
L76130 52550
L76130 52670
L76110 52710
L76090 52740
L76040 52760
L75920 52760
L75870 52740
L75850 52710
" />
<path d="M76280 52260
L76440 52760
L76610 52260
" />
</g>
</g>
<g style="fill:#008484; fill-opacity:0.0; 
stroke:#008484; stroke-width:0; stroke-opacity:1; 
stroke-linecap:round; stroke-linejoin:round;">
<g >
</g>
<g style="fill:#840000; fill-opacity:0.0; 
stroke:#840000; stroke-width:0; stroke-opacity:1; 
stroke-linecap:round; stroke-linejoin:round;">
</g>
<g style="fill:#840000; fill-opacity:0.0; 
stroke:#840000; stroke-width:60; stroke-opacity:1; 
stroke-linecap:round; stroke-linejoin:round;">
<path style="fill:#840000; fill-opacity:0.0; 
stroke:#840000; stroke-width:60; stroke-opacity:1; 
stroke-linecap:round; stroke-linejoin:round;fill:none"
d="M 70750,59250
70750,59750
71250,59750
70750,60250
70250,59750
70750,59750
" /> 
</g>
<g style="fill:#008484; fill-opacity:0.0; 
stroke:#008484; stroke-width:60; stroke-opacity:1; 
stroke-linecap:round; stroke-linejoin:round;">
<text x="70800" y="61250"
textLength="2060" font-size="660" lengthAdjust="spacingAndGlyphs"
text-anchor="middle" opacity="0">GNDS</text>
<path d="M70180 60750
L70130 60720
L70060 60720
L69990 60750
L69940 60790
L69910 60840
L69890 60940
L69890 61010
L69910 61100
L69940 61150
L69990 61200
L70060 61220
L70100 61220
L70180 61200
L70200 61170
L70200 61010
L70100 61010
" />
<path d="M70410 61220
L70410 60720
L70700 61220
L70700 60720
" />
<path d="M70940 61220
L70940 60720
L71060 60720
L71130 60750
L71180 60790
L71200 60840
L71220 60940
L71220 61010
L71200 61100
L71180 61150
L71130 61200
L71060 61220
L70940 61220
" />
<path d="M71410 61200
L71490 61220
L71600 61220
L71650 61200
L71680 61170
L71700 61130
L71700 61080
L71680 61030
L71650 61010
L71600 60980
L71510 60960
L71460 60940
L71440 60910
L71410 60860
L71410 60820
L71440 60770
L71460 60750
L71510 60720
L71630 60720
L71700 60750
" />
</g>
</g>
<g style="fill:#008484; fill-opacity:0.0; 
stroke:#008484; stroke-width:0; stroke-opacity:1; 
stroke-linecap:round; stroke-linejoin:round;">
<g >
</g>
<g style="fill:#840000; fill-opacity:0.0; 
stroke:#840000; stroke-width:0; stroke-opacity:1; 
stroke-linecap:round; stroke-linejoin:round;">
</g>
<g style="fill:#FFFFC2; fill-opacity:0.0; 
stroke:#FFFFC2; stroke-width:0; stroke-opacity:1; 
stroke-linecap:round; stroke-linejoin:round;">
</g>
<g style="fill:#FFFFC2; fill-opacity:0.6; 
stroke:#FFFFC2; stroke-width:0; stroke-opacity:1; 
stroke-linecap:round; stroke-linejoin:round;">
<rect x="89000" y="30000" width="2000" height="6000" rx="0" />
</g>
<g style="fill:#840000; fill-opacity:0.6; 
stroke:#840000; stroke-width:0; stroke-opacity:1; 
stroke-linecap:round; stroke-linejoin:round;">
</g>
<g style="fill:#840000; fill-opacity:0.0; 
stroke:#840000; stroke-width:100; stroke-opacity:1; 
stroke-linecap:round; stroke-linejoin:round;">
<rect x="89000" y="30000" width="2000" height="6000" rx="0" />
</g>
<g style="fill:#840000; fill-opacity:0.0; 
stroke:#840000; stroke-width:60; stroke-opacity:1; 
stroke-linecap:round; stroke-linejoin:round;">
<rect x="89000" y="34450" width="500" height="100" rx="0" />
<rect x="89000" y="35450" width="500" height="100" rx="0" />
<rect x="89000" y="33450" width="500" height="100" rx="0" />
<rect x="89000" y="31450" width="500" height="100" rx="0" />
<rect x="89000" y="30450" width="500" height="100" rx="0" />
</g>
<g style="fill:#840000; fill-opacity:0.0; 
stroke:#840000; stroke-width:100; stroke-opacity:1; 
stroke-linecap:round; stroke-linejoin:round;">
<rect x="89000" y="30000" width="2000" height="6000" rx="0" />
</g>
<g style="fill:#840000; fill-opacity:0.0; 
stroke:#840000; stroke-width:60; stroke-opacity:1; 
stroke-linecap:round; stroke-linejoin:round;">
<rect x="89000" y="32450" width="500" height="100" rx="0" />
<rect x="90500" y="34450" width="500" height="100" rx="0" />
<rect x="90500" y="35450" width="500" height="100" rx="0" />
<rect x="90500" y="33450" width="500" height="100" rx="0" />
<rect x="90500" y="31450" width="500" height="100" rx="0" />
<rect x="90500" y="30450" width="500" height="100" rx="0" />
<rect x="90500" y="32450" width="500" height="100" rx="0" />
<path d="M89000 30500
L87500 30500
" />
<text x="88250" y="30400"
textLength="540" font-size="660" lengthAdjust="spacingAndGlyphs"
text-anchor="middle" opacity="0">1</text>
<path d="M88390 30370
L88100 30370
" />
<path d="M88250 30370
L88250 29870
L88200 29940
L88150 29990
L88100 30010
" />
<path d="M91000 34500
L92500 34500
" />
<text x="91750" y="34400"
textLength="1010" font-size="660" lengthAdjust="spacingAndGlyphs"
text-anchor="middle" opacity="0">10</text>
<path d="M91650 34370
L91360 34370
" />
<path d="M91510 34370
L91510 33870
L91460 33940
L91410 33990
L91360 34010
" />
<path d="M91960 33870
L92010 33870
L92050 33900
L92080 33920
L92100 33970
L92130 34060
L92130 34180
L92100 34280
L92080 34320
L92050 34350
L92010 34370
L91960 34370
L91910 34350
L91890 34320
L91860 34280
L91840 34180
L91840 34060
L91860 33970
L91890 33920
L91910 33900
L91960 33870
" />
<path d="M89000 35500
L87500 35500
" />
<text x="88250" y="35400"
textLength="1010" font-size="660" lengthAdjust="spacingAndGlyphs"
text-anchor="middle" opacity="0">11</text>
<path d="M88150 35370
L87860 35370
" />
<path d="M88010 35370
L88010 34870
L87960 34940
L87910 34990
L87860 35010
" />
<path d="M88630 35370
L88340 35370
" />
<path d="M88480 35370
L88480 34870
L88440 34940
L88390 34990
L88340 35010
" />
<path d="M91000 35500
L92500 35500
" />
<text x="91750" y="35400"
textLength="1010" font-size="660" lengthAdjust="spacingAndGlyphs"
text-anchor="middle" opacity="0">12</text>
<path d="M91650 35370
L91360 35370
" />
<path d="M91510 35370
L91510 34870
L91460 34940
L91410 34990
L91360 35010
" />
<path d="M91840 34920
L91860 34900
L91910 34870
L92030 34870
L92080 34900
L92100 34920
L92130 34970
L92130 35010
L92100 35090
L91820 35370
L92130 35370
" />
<path d="M91000 30500
L92500 30500
" />
<text x="91750" y="30400"
textLength="540" font-size="660" lengthAdjust="spacingAndGlyphs"
text-anchor="middle" opacity="0">2</text>
<path d="M91600 29920
L91630 29900
L91670 29870
L91790 29870
L91840 29900
L91860 29920
L91890 29970
L91890 30010
L91860 30090
L91580 30370
L91890 30370
" />
<path d="M89000 31500
L87500 31500
" />
<text x="88250" y="31400"
textLength="540" font-size="660" lengthAdjust="spacingAndGlyphs"
text-anchor="middle" opacity="0">3</text>
<path d="M88080 30870
L88390 30870
L88220 31060
L88290 31060
L88340 31090
L88360 31110
L88390 31160
L88390 31280
L88360 31320
L88340 31350
L88290 31370
L88150 31370
L88100 31350
L88080 31320
" />
<path d="M91000 31500
L92500 31500
" />
<text x="91750" y="31400"
textLength="540" font-size="660" lengthAdjust="spacingAndGlyphs"
text-anchor="middle" opacity="0">4</text>
<path d="M91840 31040
L91840 31370
" />
<path d="M91720 30850
L91600 31200
L91910 31200
" />
<path d="M89000 32500
L87500 32500
" />
<text x="88250" y="32400"
textLength="540" font-size="660" lengthAdjust="spacingAndGlyphs"
text-anchor="middle" opacity="0">5</text>
<path d="M88360 31870
L88130 31870
L88100 32110
L88130 32090
L88170 32060
L88290 32060
L88340 32090
L88360 32110
L88390 32160
L88390 32280
L88360 32320
L88340 32350
L88290 32370
L88170 32370
L88130 32350
L88100 32320
" />
<path d="M91000 32500
L92500 32500
" />
<text x="91750" y="32400"
textLength="540" font-size="660" lengthAdjust="spacingAndGlyphs"
text-anchor="middle" opacity="0">6</text>
<path d="M91840 31870
L91750 31870
L91700 31900
L91670 31920
L91630 31990
L91600 32090
L91600 32280
L91630 32320
L91650 32350
L91700 32370
L91790 32370
L91840 32350
L91860 32320
L91890 32280
L91890 32160
L91860 32110
L91840 32090
L91790 32060
L91700 32060
L91650 32090
L91630 32110
L91600 32160
" />
<path d="M89000 33500
L87500 33500
" />
<text x="88250" y="33400"
textLength="540" font-size="660" lengthAdjust="spacingAndGlyphs"
text-anchor="middle" opacity="0">7</text>
<path d="M88080 32870
L88410 32870
L88200 33370
" />
<path d="M91000 33500
L92500 33500
" />
<text x="91750" y="33400"
textLength="540" font-size="660" lengthAdjust="spacingAndGlyphs"
text-anchor="middle" opacity="0">8</text>
<path d="M91700 33090
L91650 33060
L91630 33040
L91600 32990
L91600 32970
L91630 32920
L91650 32900
L91700 32870
L91790 32870
L91840 32900
L91860 32920
L91890 32970
L91890 32990
L91860 33040
L91840 33060
L91790 33090
L91700 33090
L91650 33110
L91630 33130
L91600 33180
L91600 33280
L91630 33320
L91650 33350
L91700 33370
L91790 33370
L91840 33350
L91860 33320
L91890 33280
L91890 33180
L91860 33130
L91840 33110
L91790 33090
" />
<path d="M89000 34500
L87500 34500
" />
<text x="88250" y="34400"
textLength="540" font-size="660" lengthAdjust="spacingAndGlyphs"
text-anchor="middle" opacity="0">9</text>
<path d="M88150 34370
L88250 34370
L88290 34350
L88320 34320
L88360 34250
L88390 34160
L88390 33970
L88360 33920
L88340 33900
L88290 33870
L88200 33870
L88150 33900
L88130 33920
L88100 33970
L88100 34090
L88130 34130
L88150 34160
L88200 34180
L88290 34180
L88340 34160
L88360 34130
L88390 34090
" />
</g>
<g style="fill:#008484; fill-opacity:0.0; 
stroke:#008484; stroke-width:60; stroke-opacity:1; 
stroke-linecap:round; stroke-linejoin:round;">
<text x="90000" y="28600"
textLength="920" font-size="660" lengthAdjust="spacingAndGlyphs"
text-anchor="middle" opacity="0">J1</text>
<path d="M89830 28070
L89830 28430
L89800 28500
L89760 28550
L89690 28570
L89640 28570
" />
<path d="M90330 28570
L90040 28570
" />
<path d="M90190 28570
L90190 28070
L90140 28140
L90090 28190
L90040 28210
" />
<text x="90000" y="29510"
textLength="8510" font-size="660" lengthAdjust="spacingAndGlyphs"
text-anchor="middle" opacity="0">Conn_02x06_Odd_Even</text>
<path d="M86170 29430
L86150 29460
L86080 29480
L86030 29480
L85960 29460
L85910 29410
L85890 29360
L85860 29270
L85860 29200
L85890 29100
L85910 29050
L85960 29010
L86030 28980
L86080 28980
L86150 29010
L86170 29030
" />
<path d="M86460 29480
L86410 29460
L86390 29430
L86360 29390
L86360 29240
L86390 29200
L86410 29170
L86460 29150
L86530 29150
L86580 29170
L86600 29200
L86630 29240
L86630 29390
L86600 29430
L86580 29460
L86530 29480
L86460 29480
" />
<path d="M86840 29150
L86840 29480
" />
<path d="M86840 29200
L86860 29170
L86910 29150
L86980 29150
L87030 29170
L87050 29220
L87050 29480
" />
<path d="M87290 29150
L87290 29480
" />
<path d="M87290 29200
L87320 29170
L87360 29150
L87440 29150
L87480 29170
L87510 29220
L87510 29480
" />
<path d="M87630 29530
L88010 29530
" />
<path d="M88220 28980
L88270 28980
L88320 29010
L88340 29030
L88360 29080
L88390 29170
L88390 29290
L88360 29390
L88340 29430
L88320 29460
L88270 29480
L88220 29480
L88170 29460
L88150 29430
L88130 29390
L88100 29290
L88100 29170
L88130 29080
L88150 29030
L88170 29010
L88220 28980
" />
<path d="M88580 29030
L88600 29010
L88650 28980
L88770 28980
L88820 29010
L88840 29030
L88860 29080
L88860 29120
L88840 29200
L88550 29480
L88860 29480
" />
<path d="M89030 29480
L89290 29150
" />
<path d="M89030 29150
L89290 29480
" />
<path d="M89580 28980
L89630 28980
L89670 29010
L89700 29030
L89720 29080
L89750 29170
L89750 29290
L89720 29390
L89700 29430
L89670 29460
L89630 29480
L89580 29480
L89530 29460
L89510 29430
L89480 29390
L89460 29290
L89460 29170
L89480 29080
L89510 29030
L89530 29010
L89580 28980
" />
<path d="M90170 28980
L90080 28980
L90030 29010
L90010 29030
L89960 29100
L89940 29200
L89940 29390
L89960 29430
L89980 29460
L90030 29480
L90130 29480
L90170 29460
L90200 29430
L90220 29390
L90220 29270
L90200 29220
L90170 29200
L90130 29170
L90030 29170
L89980 29200
L89960 29220
L89940 29270
" />
<path d="M90320 29530
L90700 29530
" />
<path d="M90910 28980
L91010 28980
L91050 29010
L91100 29050
L91130 29150
L91130 29310
L91100 29410
L91050 29460
L91010 29480
L90910 29480
L90860 29460
L90820 29410
L90790 29310
L90790 29150
L90820 29050
L90860 29010
L90910 28980
" />
<path d="M91550 29480
L91550 28980
" />
<path d="M91550 29460
L91510 29480
L91410 29480
L91360 29460
L91340 29430
L91320 29390
L91320 29240
L91340 29200
L91360 29170
L91410 29150
L91510 29150
L91550 29170
" />
<path d="M92010 29480
L92010 28980
" />
<path d="M92010 29460
L91960 29480
L91860 29480
L91820 29460
L91790 29430
L91770 29390
L91770 29240
L91790 29200
L91820 29170
L91860 29150
L91960 29150
L92010 29170
" />
<path d="M92130 29530
L92510 29530
" />
<path d="M92630 29220
L92790 29220
" />
<path d="M92860 29480
L92630 29480
L92630 28980
L92860 28980
" />
<path d="M93030 29150
L93150 29480
L93270 29150
" />
<path d="M93650 29460
L93600 29480
L93510 29480
L93460 29460
L93440 29410
L93440 29220
L93460 29170
L93510 29150
L93600 29150
L93650 29170
L93670 29220
L93670 29270
L93440 29310
" />
<path d="M93890 29150
L93890 29480
" />
<path d="M93890 29200
L93910 29170
L93960 29150
L94030 29150
L94080 29170
L94100 29220
L94100 29480
" />
</g>
</g>
<g style="fill:#008484; fill-opacity:0.0; 
stroke:#008484; stroke-width:0; stroke-opacity:1; 
stroke-linecap:round; stroke-linejoin:round;">
<g >
</g>
<g style="fill:#840000; fill-opacity:0.0; 
stroke:#840000; stroke-width:0; stroke-opacity:1; 
stroke-linecap:round; stroke-linejoin:round;">
</g>
<g style="fill:#840000; fill-opacity:0.0; 
stroke:#840000; stroke-width:60; stroke-opacity:1; 
stroke-linecap:round; stroke-linejoin:round;">
<path style="fill:#840000; fill-opacity:0.0; 
stroke:#840000; stroke-width:60; stroke-opacity:1; 
stroke-linecap:round; stroke-linejoin:round;fill:none"
d="M 54750,37250
54750,36150
" /> 
</g>
<g style="fill:#840000; fill-opacity:0.0; 
stroke:#840000; stroke-width:80; stroke-opacity:1; 
stroke-linecap:round; stroke-linejoin:round;">
<path style="fill:#840000; fill-opacity:0.0; 
stroke:#840000; stroke-width:80; stroke-opacity:1; 
stroke-linecap:round; stroke-linejoin:round;fill:none"
d="M 55250,37200
54250,37200
" /> 
</g>
<g style="fill:#840000; fill-opacity:0.0; 
stroke:#840000; stroke-width:60; stroke-opacity:1; 
stroke-linecap:round; stroke-linejoin:round;">
<path style="fill:#840000; fill-opacity:0.0; 
stroke:#840000; stroke-width:60; stroke-opacity:1; 
stroke-linecap:round; stroke-linejoin:round;fill:none"
d="M 54750,35950
54750,36050
" /> 
<path style="fill:#840000; fill-opacity:0.0; 
stroke:#840000; stroke-width:60; stroke-opacity:1; 
stroke-linecap:round; stroke-linejoin:round;fill:none"
d="M 54750,35700
54750,35800
" /> 
<path style="fill:#840000; fill-opacity:0.0; 
stroke:#840000; stroke-width:60; stroke-opacity:1; 
stroke-linecap:round; stroke-linejoin:round;fill:none"
d="M 54750,35550
54750,35450
" /> 
<path style="fill:#840000; fill-opacity:0.0; 
stroke:#840000; stroke-width:60; stroke-opacity:1; 
stroke-linecap:round; stroke-linejoin:round;fill:none"
d="M 54750,35350
54750,34250
" /> 
</g>
<g style="fill:#840000; fill-opacity:0.0; 
stroke:#840000; stroke-width:80; stroke-opacity:1; 
stroke-linecap:round; stroke-linejoin:round;">
<path style="fill:#840000; fill-opacity:0.0; 
stroke:#840000; stroke-width:80; stroke-opacity:1; 
stroke-linecap:round; stroke-linejoin:round;fill:none"
d="M 55250,35300
54250,35300
" /> 
<path style="fill:#840000; fill-opacity:0.0; 
stroke:#840000; stroke-width:80; stroke-opacity:1; 
stroke-linecap:round; stroke-linejoin:round;fill:none"
d="M 55250,36200
54250,36200
54750,37200
Z" /> 
<path style="fill:#840000; fill-opacity:0.0; 
stroke:#840000; stroke-width:80; stroke-opacity:1; 
stroke-linecap:round; stroke-linejoin:round;fill:none"
d="M 55250,34300
54250,34300
54750,35300
Z" /> 
</g>
<g style="fill:#840000; fill-opacity:0.0; 
stroke:#840000; stroke-width:60; stroke-opacity:1; 
stroke-linecap:round; stroke-linejoin:round;">
<path style="fill:#840000; fill-opacity:0.0; 
stroke:#840000; stroke-width:60; stroke-opacity:1; 
stroke-linecap:round; stroke-linejoin:round;fill:none"
d="M 54200,37050
53600,36450
53600,36750
53600,36450
53900,36450
" /> 
<path style="fill:#840000; fill-opacity:0.0; 
stroke:#840000; stroke-width:60; stroke-opacity:1; 
stroke-linecap:round; stroke-linejoin:round;fill:none"
d="M 54200,36550
53600,35950
53600,36250
53600,35950
53900,35950
" /> 
<path style="fill:#840000; fill-opacity:0.0; 
stroke:#840000; stroke-width:60; stroke-opacity:1; 
stroke-linecap:round; stroke-linejoin:round;fill:none"
d="M 54200,35150
53600,34550
53600,34850
53600,34550
53900,34550
" /> 
<path style="fill:#840000; fill-opacity:0.0; 
stroke:#840000; stroke-width:60; stroke-opacity:1; 
stroke-linecap:round; stroke-linejoin:round;fill:none"
d="M 54200,34650
53600,34050
53600,34350
53600,34050
53900,34050
" /> 
<path d="M54750 37250
L54750 38250
" />
<g transform="rotate(-90 54650 37750)">
<text x="54650" y="37750"
textLength="540" font-size="660" lengthAdjust="spacingAndGlyphs"
text-anchor="middle" opacity="0">1</text>
</g>
<path d="M54620 37600
L54620 37890
" />
<path d="M54620 37750
L54120 37750
L54190 37790
L54240 37840
L54260 37890
" />
<path d="M54750 34250
L54750 33250
" />
<g transform="rotate(-90 54650 33750)">
<text x="54650" y="33750"
textLength="540" font-size="660" lengthAdjust="spacingAndGlyphs"
text-anchor="middle" opacity="0">2</text>
</g>
<path d="M54170 33890
L54150 33860
L54120 33820
L54120 33700
L54150 33650
L54170 33630
L54220 33600
L54260 33600
L54340 33630
L54620 33910
L54620 33600
" />
</g>
<g style="fill:#008484; fill-opacity:0.0; 
stroke:#008484; stroke-width:60; stroke-opacity:1; 
stroke-linecap:round; stroke-linejoin:round;">
<text x="56140" y="35510"
textLength="1040" font-size="660" lengthAdjust="spacingAndGlyphs"
text-anchor="middle" opacity="0">D1</text>
<path d="M55770 35480
L55770 34980
L55890 34980
L55960 35010
L56000 35050
L56030 35100
L56050 35200
L56050 35270
L56030 35360
L56000 35410
L55960 35460
L55890 35480
L55770 35480
" />
<path d="M56530 35480
L56240 35480
" />
<path d="M56390 35480
L56390 34980
L56340 35050
L56290 35100
L56240 35120
" />
<text x="57660" y="36420"
textLength="4080" font-size="660" lengthAdjust="spacingAndGlyphs"
text-anchor="middle" opacity="0">LED_Series</text>
<path d="M56000 36390
L55760 36390
L55760 35890
" />
<path d="M56170 36130
L56330 36130
" />
<path d="M56410 36390
L56170 36390
L56170 35890
L56410 35890
" />
<path d="M56620 36390
L56620 35890
L56740 35890
L56810 35920
L56860 35960
L56880 36010
L56910 36110
L56910 36180
L56880 36270
L56860 36320
L56810 36370
L56740 36390
L56620 36390
" />
<path d="M57000 36440
L57380 36440
" />
<path d="M57480 36370
L57550 36390
L57670 36390
L57710 36370
L57740 36340
L57760 36300
L57760 36250
L57740 36200
L57710 36180
L57670 36150
L57570 36130
L57520 36110
L57500 36080
L57480 36030
L57480 35990
L57500 35940
L57520 35920
L57570 35890
L57690 35890
L57760 35920
" />
<path d="M58170 36370
L58120 36390
L58020 36390
L57980 36370
L57950 36320
L57950 36130
L57980 36080
L58020 36060
L58120 36060
L58170 36080
L58190 36130
L58190 36180
L57950 36220
" />
<path d="M58410 36390
L58410 36060
" />
<path d="M58410 36150
L58430 36110
L58450 36080
L58500 36060
L58550 36060
" />
<path d="M58710 36390
L58710 36060
" />
<path d="M58710 35890
L58690 35920
L58710 35940
L58740 35920
L58710 35890
L58710 35940
" />
<path d="M59140 36370
L59100 36390
L59000 36390
L58950 36370
L58930 36320
L58930 36130
L58950 36080
L59000 36060
L59100 36060
L59140 36080
L59170 36130
L59170 36180
L58930 36220
" />
<path d="M59360 36370
L59410 36390
L59500 36390
L59550 36370
L59570 36320
L59570 36300
L59550 36250
L59500 36220
L59430 36220
L59380 36200
L59360 36150
L59360 36130
L59380 36080
L59430 36060
L59500 36060
L59550 36080
" />
</g>
</g>
<g style="fill:#008484; fill-opacity:0.0; 
stroke:#008484; stroke-width:0; stroke-opacity:1; 
stroke-linecap:round; stroke-linejoin:round;">
<g >
</g>
<g style="fill:#840000; fill-opacity:0.0; 
stroke:#840000; stroke-width:0; stroke-opacity:1; 
stroke-linecap:round; stroke-linejoin:round;">
</g>
<g style="fill:#840000; fill-opacity:0.0; 
stroke:#840000; stroke-width:60; stroke-opacity:1; 
stroke-linecap:round; stroke-linejoin:round;">
<path style="fill:#840000; fill-opacity:0.0; 
stroke:#840000; stroke-width:60; stroke-opacity:1; 
stroke-linecap:round; stroke-linejoin:round;fill:none"
d="M 50700,22000
51000,21500
" /> 
<path style="fill:#840000; fill-opacity:0.0; 
stroke:#840000; stroke-width:60; stroke-opacity:1; 
stroke-linecap:round; stroke-linejoin:round;fill:none"
d="M 51000,22500
51000,21500
" /> 
<path style="fill:#840000; fill-opacity:0.0; 
stroke:#840000; stroke-width:60; stroke-opacity:1; 
stroke-linecap:round; stroke-linejoin:round;fill:none"
d="M 51000,21500
51300,22000
" /> 
</g>
<g style="fill:#008484; fill-opacity:0.0; 
stroke:#008484; stroke-width:60; stroke-opacity:1; 
stroke-linecap:round; stroke-linejoin:round;">
<text x="51150" y="21040"
textLength="1580" font-size="660" lengthAdjust="spacingAndGlyphs"
text-anchor="middle" opacity="0">+5V</text>
<path d="M50500 20820
L50880 20820
" />
<path d="M50690 21010
L50690 20630
" />
<path d="M51360 20510
L51120 20510
L51100 20750
L51120 20730
L51170 20700
L51290 20700
L51340 20730
L51360 20750
L51380 20800
L51380 20920
L51360 20960
L51340 20990
L51290 21010
L51170 21010
L51120 20990
L51100 20960
" />
<path d="M51530 20510
L51690 21010
L51860 20510
" />
</g>
</g>
<g style="fill:#008484; fill-opacity:0.0; 
stroke:#008484; stroke-width:60; stroke-opacity:1; 
stroke-linecap:round; stroke-linejoin:round;">
</g>
<g style="fill:#008400; fill-opacity:0.0; 
stroke:#008400; stroke-width:60; stroke-opacity:1; 
stroke-linecap:round; stroke-linejoin:round;">
<path d="M70750 59250
L70750 54250
" />
<path d="M75750 54250
L75750 59250
" />
<path d="M45750 32250
L54750 32250
" />
<path d="M54750 38250
L54750 39250
" />
<path d="M99250 34500
L99250 38000
" />
<path d="M99250 33500
L99250 34500
" />
<path d="M45750 39250
L54750 39250
" />
<path d="M99250 32500
L99250 33500
" />
<path d="M80750 34500
L80750 40000
" />
<path d="M80750 33500
L80750 34500
" />
<path d="M99250 30500
L99250 24250
" />
<path d="M54750 33250
L54750 32250
" />
<path d="M99250 31500
L99250 30500
" />
<path d="M99250 31500
L92500 31500
" />
<path d="M45750 25250
L51000 25250
" />
<path d="M51000 25250
L51000 22500
" />
<path d="M45750 28500
L53250 28500
" />
<path d="M87500 30500
L80750 30500
" />
<path d="M87500 31500
L80750 31500
" />
<path d="M87500 32500
L80750 32500
" />
<path d="M87500 33500
L80750 33500
" />
<path d="M87500 34500
L80750 34500
" />
<path d="M87500 35500
L83500 35500
" />
<path d="M99250 30500
L92500 30500
" />
<path d="M80750 31500
L80750 30500
" />
<path d="M99250 32500
L92500 32500
" />
<path d="M99250 33500
L92500 33500
" />
<path d="M99250 34500
L92500 34500
" />
<path d="M96500 35500
L92500 35500
" />
<path d="M80750 32500
L80750 31500
" />
<path d="M80750 30500
L80750 25250
" />
</g>
<g style="fill:#000000; fill-opacity:0.0; 
stroke:#000000; stroke-width:60; stroke-opacity:1; 
stroke-linecap:round; stroke-linejoin:round;">
<text x="96500" y="35400"
textLength="3440" font-size="660" lengthAdjust="spacingAndGlyphs"
text-anchor="end" opacity="0">LED_PWM</text>
<path d="M93440 35370
L93200 35370
L93200 34870
" />
<path d="M93610 35110
L93770 35110
" />
<path d="M93850 35370
L93610 35370
L93610 34870
L93850 34870
" />
<path d="M94060 35370
L94060 34870
L94180 34870
L94250 34900
L94300 34940
L94320 34990
L94350 35090
L94350 35160
L94320 35250
L94300 35300
L94250 35350
L94180 35370
L94060 35370
" />
<path d="M94440 35420
L94820 35420
" />
<path d="M94940 35370
L94940 34870
L95130 34870
L95180 34900
L95200 34920
L95230 34970
L95230 35040
L95200 35090
L95180 35110
L95130 35130
L94940 35130
" />
<path d="M95390 34870
L95510 35370
L95610 35010
L95700 35370
L95820 34870
" />
<path d="M96010 35370
L96010 34870
L96180 35230
L96350 34870
L96350 35370
" />
<text x="53250" y="28400"
textLength="3440" font-size="660" lengthAdjust="spacingAndGlyphs"
text-anchor="end" opacity="0">LED_PWM</text>
<path d="M50190 28370
L49950 28370
L49950 27870
" />
<path d="M50360 28110
L50520 28110
" />
<path d="M50600 28370
L50360 28370
L50360 27870
L50600 27870
" />
<path d="M50810 28370
L50810 27870
L50930 27870
L51000 27900
L51050 27940
L51070 27990
L51100 28090
L51100 28160
L51070 28250
L51050 28300
L51000 28350
L50930 28370
L50810 28370
" />
<path d="M51190 28420
L51570 28420
" />
<path d="M51690 28370
L51690 27870
L51880 27870
L51930 27900
L51950 27920
L51980 27970
L51980 28040
L51950 28090
L51930 28110
L51880 28130
L51690 28130
" />
<path d="M52140 27870
L52260 28370
L52360 28010
L52450 28370
L52570 27870
" />
<path d="M52760 28370
L52760 27870
L52930 28230
L53100 27870
L53100 28370
" />
</g>
<g style="fill:#000000; fill-opacity:0.0; 
stroke:#000000; stroke-width:0; stroke-opacity:1; 
stroke-linecap:round; stroke-linejoin:round;">
</g>
<g style="fill:#008400; fill-opacity:0.0; 
stroke:#008400; stroke-width:0; stroke-opacity:1; 
stroke-linecap:round; stroke-linejoin:round;">
</g>
<g style="fill:#008400; fill-opacity:1.0; 
stroke:#008400; stroke-width:100; stroke-opacity:1; 
stroke-linecap:round; stroke-linejoin:round;">
<circle cx="99250" cy="34500" r="200" /> 
</g>
<g style="fill:#008400; fill-opacity:1.0; 
stroke:#008400; stroke-width:0; stroke-opacity:1; 
stroke-linecap:round; stroke-linejoin:round;">
</g>
<g style="fill:#008400; fill-opacity:1.0; 
stroke:#008400; stroke-width:100; stroke-opacity:1; 
stroke-linecap:round; stroke-linejoin:round;">
<circle cx="99250" cy="33500" r="200" /> 
</g>
<g style="fill:#008400; fill-opacity:1.0; 
stroke:#008400; stroke-width:0; stroke-opacity:1; 
stroke-linecap:round; stroke-linejoin:round;">
</g>
<g style="fill:#008400; fill-opacity:1.0; 
stroke:#008400; stroke-width:100; stroke-opacity:1; 
stroke-linecap:round; stroke-linejoin:round;">
<circle cx="80750" cy="34500" r="200" /> 
</g>
<g style="fill:#008400; fill-opacity:1.0; 
stroke:#008400; stroke-width:0; stroke-opacity:1; 
stroke-linecap:round; stroke-linejoin:round;">
</g>
<g style="fill:#008400; fill-opacity:1.0; 
stroke:#008400; stroke-width:100; stroke-opacity:1; 
stroke-linecap:round; stroke-linejoin:round;">
<circle cx="80750" cy="30500" r="200" /> 
</g>
<g style="fill:#008400; fill-opacity:1.0; 
stroke:#008400; stroke-width:0; stroke-opacity:1; 
stroke-linecap:round; stroke-linejoin:round;">
</g>
<g style="fill:#008400; fill-opacity:1.0; 
stroke:#008400; stroke-width:100; stroke-opacity:1; 
stroke-linecap:round; stroke-linejoin:round;">
<circle cx="99250" cy="30500" r="200" /> 
</g>
<g style="fill:#008400; fill-opacity:1.0; 
stroke:#008400; stroke-width:0; stroke-opacity:1; 
stroke-linecap:round; stroke-linejoin:round;">
</g>
<g style="fill:#008400; fill-opacity:1.0; 
stroke:#008400; stroke-width:100; stroke-opacity:1; 
stroke-linecap:round; stroke-linejoin:round;">
<circle cx="80750" cy="31500" r="200" /> 
</g>
<g style="fill:#008400; fill-opacity:1.0; 
stroke:#008400; stroke-width:60; stroke-opacity:1; 
stroke-linecap:round; stroke-linejoin:round;">
</g>
<g style="fill:#000084; fill-opacity:1.0; 
stroke:#000084; stroke-width:60; stroke-opacity:1; 
stroke-linecap:round; stroke-linejoin:round;">
</g>
<g style="fill:#000084; fill-opacity:0.0; 
stroke:#000084; stroke-width:60; stroke-opacity:1; 
stroke-linecap:round; stroke-linejoin:round;">
<path d="M83260 35260
L83740 35740
" />
<path d="M83740 35260
L83260 35740
" />
</g> 
</svg>
