M48
; DRILL file {KiCad 5.1.6-c6e7f7d~86~ubuntu18.04.1} date Sat Jun 27 17:21:02 2020
; FORMAT={-:-/ absolute / inch / decimal}
; #@! TF.CreationDate,2020-06-27T17:21:02+01:00
; #@! TF.GenerationSoftware,Kicad,Pcbnew,5.1.6-c6e7f7d~86~ubuntu18.04.1
; #@! TF.FileFunction,Plated,1,2,PTH
FMAT,2
INCH
T1C0.0157
T2C0.0394
T3C0.0709
%
G90
G05
T1
X6.14Y-2.37
X6.14Y-2.47
X6.14Y-2.57
X6.14Y-2.67
X6.14Y-2.77
X6.14Y-2.87
X6.24Y-2.37
X6.24Y-2.47
X6.24Y-2.57
X6.24Y-2.67
X6.24Y-2.77
X6.24Y-2.87
X6.34Y-2.37
X6.34Y-2.47
X6.34Y-2.57
X6.34Y-2.67
X6.34Y-2.77
X6.34Y-2.87
X6.44Y-2.37
X6.44Y-2.47
X6.44Y-2.57
X6.44Y-2.67
X6.44Y-2.77
X6.44Y-2.87
X6.54Y-2.37
X6.54Y-2.47
X6.54Y-2.87
X6.63Y-2.37
X6.63Y-2.47
X6.63Y-2.87
X6.73Y-2.37
X6.73Y-2.47
X6.73Y-2.87
T2
X7.215Y-2.565
X7.3425Y-2.6475
X7.5Y-2.83
X7.705Y-2.755
X6.915Y-3.36
X6.915Y-3.46
X7.015Y-3.36
X7.015Y-3.46
X7.115Y-3.36
X7.115Y-3.46
X7.215Y-3.36
X7.215Y-3.46
X7.315Y-3.36
X7.315Y-3.46
X7.415Y-3.36
X7.415Y-3.46
X7.515Y-3.36
X7.515Y-3.46
X7.615Y-3.36
X7.615Y-3.46
X6.22Y-3.28
X6.22Y-3.38
X6.32Y-3.28
X6.32Y-3.38
X6.42Y-3.28
X6.42Y-3.38
X6.52Y-3.28
X6.52Y-3.38
X6.62Y-3.28
X6.62Y-3.38
T3
X6.406Y-3.07
X6.6225Y-3.07
T0
M30
