G04 #@! TF.GenerationSoftware,KiCad,Pcbnew,5.1.6-c6e7f7d~86~ubuntu18.04.1*
G04 #@! TF.CreationDate,2020-06-27T17:21:00+01:00*
G04 #@! TF.ProjectId,UV_LED_Driver,55565f4c-4544-45f4-9472-697665722e6b,rev?*
G04 #@! TF.SameCoordinates,Original*
G04 #@! TF.FileFunction,Copper,L2,Bot*
G04 #@! TF.FilePolarity,Positive*
%FSLAX46Y46*%
G04 Gerber Fmt 4.6, Leading zero omitted, Abs format (unit mm)*
G04 Created by KiCad (PCBNEW 5.1.6-c6e7f7d~86~ubuntu18.04.1) date 2020-06-27 17:21:00*
%MOMM*%
%LPD*%
G01*
G04 APERTURE LIST*
G04 #@! TA.AperFunction,Profile*
%ADD10C,0.050000*%
G04 #@! TD*
G04 #@! TA.AperFunction,ComponentPad*
%ADD11O,3.700000X2.700000*%
G04 #@! TD*
G04 #@! TA.AperFunction,ComponentPad*
%ADD12O,1.700000X1.700000*%
G04 #@! TD*
G04 #@! TA.AperFunction,ComponentPad*
%ADD13R,1.700000X1.700000*%
G04 #@! TD*
G04 #@! TA.AperFunction,ViaPad*
%ADD14C,0.800000*%
G04 #@! TD*
G04 #@! TA.AperFunction,ViaPad*
%ADD15C,2.000000*%
G04 #@! TD*
G04 #@! TA.AperFunction,Conductor*
%ADD16C,0.254000*%
G04 #@! TD*
G04 APERTURE END LIST*
D10*
X203200000Y-58420000D02*
X203200000Y-92456000D01*
X148336000Y-58420000D02*
X203200000Y-58420000D01*
X148336000Y-92456000D02*
X148336000Y-58420000D01*
X203200000Y-92456000D02*
X148336000Y-92456000D01*
D11*
X168212400Y-77978000D03*
G04 #@! TA.AperFunction,ComponentPad*
G36*
G01*
X161112401Y-76628000D02*
X164312399Y-76628000D01*
G75*
G02*
X164562400Y-76878001I0J-250001D01*
G01*
X164562400Y-79077999D01*
G75*
G02*
X164312399Y-79328000I-250001J0D01*
G01*
X161112401Y-79328000D01*
G75*
G02*
X160862400Y-79077999I0J250001D01*
G01*
X160862400Y-76878001D01*
G75*
G02*
X161112401Y-76628000I250001J0D01*
G01*
G37*
G04 #@! TD.AperFunction*
D12*
X168148000Y-85852000D03*
X168148000Y-83312000D03*
X165608000Y-85852000D03*
X165608000Y-83312000D03*
X163068000Y-85852000D03*
X163068000Y-83312000D03*
X160528000Y-85852000D03*
X160528000Y-83312000D03*
X157988000Y-85852000D03*
D13*
X157988000Y-83312000D03*
D12*
X193421000Y-87884000D03*
X193421000Y-85344000D03*
X190881000Y-87884000D03*
X190881000Y-85344000D03*
X188341000Y-87884000D03*
X188341000Y-85344000D03*
X185801000Y-87884000D03*
X185801000Y-85344000D03*
X183261000Y-87884000D03*
X183261000Y-85344000D03*
X180721000Y-87884000D03*
X180721000Y-85344000D03*
X178181000Y-87884000D03*
X178181000Y-85344000D03*
X175641000Y-87884000D03*
D13*
X175641000Y-85344000D03*
D14*
X166116000Y-72898000D03*
X163576000Y-72898000D03*
X161036000Y-72898000D03*
X158496000Y-72898000D03*
X155956000Y-72898000D03*
X163576000Y-70358000D03*
X161036000Y-70358000D03*
X158496000Y-70358000D03*
X155956000Y-70358000D03*
X163576000Y-67818000D03*
X161036000Y-67818000D03*
X158496000Y-67818000D03*
X155956000Y-67818000D03*
X163576000Y-65278000D03*
X161036000Y-65278000D03*
X158496000Y-65278000D03*
X155956000Y-65278000D03*
X170942000Y-72898000D03*
X168402000Y-72898000D03*
X168402000Y-62738000D03*
X155956000Y-62738000D03*
X170942000Y-62738000D03*
X166116000Y-62738000D03*
X158496000Y-62738000D03*
X161036000Y-62738000D03*
X163576000Y-62738000D03*
X161036000Y-60198000D03*
X168402000Y-60198000D03*
X163576000Y-60198000D03*
X170942000Y-60198000D03*
X166116000Y-60198000D03*
X158496000Y-60198000D03*
X155956000Y-60198000D03*
D15*
X190500000Y-71882000D03*
X195707000Y-69977000D03*
X183261000Y-65151000D03*
X186499500Y-67246500D03*
D16*
G36*
X154101803Y-74690747D02*
G01*
X154114146Y-74813308D01*
X154150420Y-74932388D01*
X154209228Y-75042102D01*
X154288311Y-75138236D01*
X154384629Y-75217094D01*
X154494480Y-75275646D01*
X154613644Y-75311643D01*
X154737540Y-75323700D01*
X176530740Y-75298300D01*
X176653882Y-75286099D01*
X176773004Y-75249964D01*
X176882787Y-75191283D01*
X176979013Y-75112313D01*
X177057983Y-75016087D01*
X177116664Y-74906304D01*
X177152799Y-74787182D01*
X177165000Y-74663300D01*
X177165000Y-59080000D01*
X202540000Y-59080000D01*
X202540000Y-61287596D01*
X202386631Y-60917331D01*
X202142038Y-60551271D01*
X201830729Y-60239962D01*
X201464669Y-59995369D01*
X201057925Y-59826890D01*
X200626128Y-59741000D01*
X200185872Y-59741000D01*
X199754075Y-59826890D01*
X199347331Y-59995369D01*
X198981271Y-60239962D01*
X198669962Y-60551271D01*
X198425369Y-60917331D01*
X198256890Y-61324075D01*
X198171000Y-61755872D01*
X198171000Y-62196128D01*
X198256890Y-62627925D01*
X198425369Y-63034669D01*
X198669962Y-63400729D01*
X198981271Y-63712038D01*
X199347331Y-63956631D01*
X199754075Y-64125110D01*
X200185872Y-64211000D01*
X200626128Y-64211000D01*
X201057925Y-64125110D01*
X201464669Y-63956631D01*
X201830729Y-63712038D01*
X202142038Y-63400729D01*
X202386631Y-63034669D01*
X202540000Y-62664403D01*
X202540001Y-88211598D01*
X202386631Y-87841331D01*
X202142038Y-87475271D01*
X201830729Y-87163962D01*
X201464669Y-86919369D01*
X201057925Y-86750890D01*
X200626128Y-86665000D01*
X200185872Y-86665000D01*
X199754075Y-86750890D01*
X199347331Y-86919369D01*
X198981271Y-87163962D01*
X198669962Y-87475271D01*
X198425369Y-87841331D01*
X198256890Y-88248075D01*
X198171000Y-88679872D01*
X198171000Y-89120128D01*
X198256890Y-89551925D01*
X198425369Y-89958669D01*
X198669962Y-90324729D01*
X198981271Y-90636038D01*
X199347331Y-90880631D01*
X199754075Y-91049110D01*
X200185872Y-91135000D01*
X200626128Y-91135000D01*
X201057925Y-91049110D01*
X201464669Y-90880631D01*
X201830729Y-90636038D01*
X202142038Y-90324729D01*
X202386631Y-89958669D01*
X202540001Y-89588402D01*
X202540001Y-91796000D01*
X148996000Y-91796000D01*
X148996000Y-88679872D01*
X149149000Y-88679872D01*
X149149000Y-89120128D01*
X149234890Y-89551925D01*
X149403369Y-89958669D01*
X149647962Y-90324729D01*
X149959271Y-90636038D01*
X150325331Y-90880631D01*
X150732075Y-91049110D01*
X151163872Y-91135000D01*
X151604128Y-91135000D01*
X152035925Y-91049110D01*
X152442669Y-90880631D01*
X152808729Y-90636038D01*
X153120038Y-90324729D01*
X153364631Y-89958669D01*
X153533110Y-89551925D01*
X153619000Y-89120128D01*
X153619000Y-88679872D01*
X153533110Y-88248075D01*
X153364631Y-87841331D01*
X153120038Y-87475271D01*
X152808729Y-87163962D01*
X152442669Y-86919369D01*
X152035925Y-86750890D01*
X151604128Y-86665000D01*
X151163872Y-86665000D01*
X150732075Y-86750890D01*
X150325331Y-86919369D01*
X149959271Y-87163962D01*
X149647962Y-87475271D01*
X149403369Y-87841331D01*
X149234890Y-88248075D01*
X149149000Y-88679872D01*
X148996000Y-88679872D01*
X148996000Y-82462000D01*
X156499928Y-82462000D01*
X156499928Y-84162000D01*
X156512188Y-84286482D01*
X156548498Y-84406180D01*
X156607463Y-84516494D01*
X156686815Y-84613185D01*
X156783506Y-84692537D01*
X156893820Y-84751502D01*
X156966380Y-84773513D01*
X156834525Y-84905368D01*
X156672010Y-85148589D01*
X156560068Y-85418842D01*
X156503000Y-85705740D01*
X156503000Y-85998260D01*
X156560068Y-86285158D01*
X156672010Y-86555411D01*
X156834525Y-86798632D01*
X157041368Y-87005475D01*
X157284589Y-87167990D01*
X157554842Y-87279932D01*
X157841740Y-87337000D01*
X158134260Y-87337000D01*
X158421158Y-87279932D01*
X158691411Y-87167990D01*
X158934632Y-87005475D01*
X159141475Y-86798632D01*
X159258000Y-86624240D01*
X159374525Y-86798632D01*
X159581368Y-87005475D01*
X159824589Y-87167990D01*
X160094842Y-87279932D01*
X160381740Y-87337000D01*
X160674260Y-87337000D01*
X160961158Y-87279932D01*
X161231411Y-87167990D01*
X161474632Y-87005475D01*
X161681475Y-86798632D01*
X161798000Y-86624240D01*
X161914525Y-86798632D01*
X162121368Y-87005475D01*
X162364589Y-87167990D01*
X162634842Y-87279932D01*
X162921740Y-87337000D01*
X163214260Y-87337000D01*
X163501158Y-87279932D01*
X163771411Y-87167990D01*
X164014632Y-87005475D01*
X164221475Y-86798632D01*
X164338000Y-86624240D01*
X164454525Y-86798632D01*
X164661368Y-87005475D01*
X164904589Y-87167990D01*
X165174842Y-87279932D01*
X165461740Y-87337000D01*
X165754260Y-87337000D01*
X166041158Y-87279932D01*
X166311411Y-87167990D01*
X166554632Y-87005475D01*
X166761475Y-86798632D01*
X166878000Y-86624240D01*
X166994525Y-86798632D01*
X167201368Y-87005475D01*
X167444589Y-87167990D01*
X167714842Y-87279932D01*
X168001740Y-87337000D01*
X168294260Y-87337000D01*
X168581158Y-87279932D01*
X168851411Y-87167990D01*
X169094632Y-87005475D01*
X169301475Y-86798632D01*
X169463990Y-86555411D01*
X169575932Y-86285158D01*
X169633000Y-85998260D01*
X169633000Y-85705740D01*
X169575932Y-85418842D01*
X169463990Y-85148589D01*
X169301475Y-84905368D01*
X169094632Y-84698525D01*
X168920240Y-84582000D01*
X169051941Y-84494000D01*
X174152928Y-84494000D01*
X174152928Y-86194000D01*
X174165188Y-86318482D01*
X174201498Y-86438180D01*
X174260463Y-86548494D01*
X174339815Y-86645185D01*
X174436506Y-86724537D01*
X174546820Y-86783502D01*
X174619380Y-86805513D01*
X174487525Y-86937368D01*
X174325010Y-87180589D01*
X174213068Y-87450842D01*
X174156000Y-87737740D01*
X174156000Y-88030260D01*
X174213068Y-88317158D01*
X174325010Y-88587411D01*
X174487525Y-88830632D01*
X174694368Y-89037475D01*
X174937589Y-89199990D01*
X175207842Y-89311932D01*
X175494740Y-89369000D01*
X175787260Y-89369000D01*
X176074158Y-89311932D01*
X176344411Y-89199990D01*
X176587632Y-89037475D01*
X176794475Y-88830632D01*
X176911000Y-88656240D01*
X177027525Y-88830632D01*
X177234368Y-89037475D01*
X177477589Y-89199990D01*
X177747842Y-89311932D01*
X178034740Y-89369000D01*
X178327260Y-89369000D01*
X178614158Y-89311932D01*
X178884411Y-89199990D01*
X179127632Y-89037475D01*
X179334475Y-88830632D01*
X179451000Y-88656240D01*
X179567525Y-88830632D01*
X179774368Y-89037475D01*
X180017589Y-89199990D01*
X180287842Y-89311932D01*
X180574740Y-89369000D01*
X180867260Y-89369000D01*
X181154158Y-89311932D01*
X181424411Y-89199990D01*
X181667632Y-89037475D01*
X181874475Y-88830632D01*
X181991000Y-88656240D01*
X182107525Y-88830632D01*
X182314368Y-89037475D01*
X182557589Y-89199990D01*
X182827842Y-89311932D01*
X183114740Y-89369000D01*
X183407260Y-89369000D01*
X183694158Y-89311932D01*
X183964411Y-89199990D01*
X184207632Y-89037475D01*
X184414475Y-88830632D01*
X184531000Y-88656240D01*
X184647525Y-88830632D01*
X184854368Y-89037475D01*
X185097589Y-89199990D01*
X185367842Y-89311932D01*
X185654740Y-89369000D01*
X185947260Y-89369000D01*
X186234158Y-89311932D01*
X186504411Y-89199990D01*
X186747632Y-89037475D01*
X186954475Y-88830632D01*
X187116990Y-88587411D01*
X187228932Y-88317158D01*
X187286000Y-88030260D01*
X187286000Y-87737740D01*
X187228932Y-87450842D01*
X187116990Y-87180589D01*
X186954475Y-86937368D01*
X186747632Y-86730525D01*
X186573240Y-86614000D01*
X186747632Y-86497475D01*
X186954475Y-86290632D01*
X187071000Y-86116240D01*
X187187525Y-86290632D01*
X187394368Y-86497475D01*
X187637589Y-86659990D01*
X187907842Y-86771932D01*
X188194740Y-86829000D01*
X188487260Y-86829000D01*
X188774158Y-86771932D01*
X189044411Y-86659990D01*
X189287632Y-86497475D01*
X189494475Y-86290632D01*
X189656990Y-86047411D01*
X189768932Y-85777158D01*
X189826000Y-85490260D01*
X189826000Y-85197740D01*
X189768932Y-84910842D01*
X189656990Y-84640589D01*
X189494475Y-84397368D01*
X189287632Y-84190525D01*
X189044411Y-84028010D01*
X188774158Y-83916068D01*
X188487260Y-83859000D01*
X188194740Y-83859000D01*
X187907842Y-83916068D01*
X187637589Y-84028010D01*
X187394368Y-84190525D01*
X187187525Y-84397368D01*
X187071000Y-84571760D01*
X186954475Y-84397368D01*
X186747632Y-84190525D01*
X186504411Y-84028010D01*
X186234158Y-83916068D01*
X185947260Y-83859000D01*
X185654740Y-83859000D01*
X185367842Y-83916068D01*
X185097589Y-84028010D01*
X184854368Y-84190525D01*
X184647525Y-84397368D01*
X184531000Y-84571760D01*
X184414475Y-84397368D01*
X184207632Y-84190525D01*
X183964411Y-84028010D01*
X183694158Y-83916068D01*
X183407260Y-83859000D01*
X183114740Y-83859000D01*
X182827842Y-83916068D01*
X182557589Y-84028010D01*
X182314368Y-84190525D01*
X182107525Y-84397368D01*
X181991000Y-84571760D01*
X181874475Y-84397368D01*
X181667632Y-84190525D01*
X181424411Y-84028010D01*
X181154158Y-83916068D01*
X180867260Y-83859000D01*
X180574740Y-83859000D01*
X180287842Y-83916068D01*
X180017589Y-84028010D01*
X179774368Y-84190525D01*
X179567525Y-84397368D01*
X179451000Y-84571760D01*
X179334475Y-84397368D01*
X179127632Y-84190525D01*
X178884411Y-84028010D01*
X178614158Y-83916068D01*
X178327260Y-83859000D01*
X178034740Y-83859000D01*
X177747842Y-83916068D01*
X177477589Y-84028010D01*
X177234368Y-84190525D01*
X177102513Y-84322380D01*
X177080502Y-84249820D01*
X177021537Y-84139506D01*
X176942185Y-84042815D01*
X176845494Y-83963463D01*
X176735180Y-83904498D01*
X176615482Y-83868188D01*
X176491000Y-83855928D01*
X174791000Y-83855928D01*
X174666518Y-83868188D01*
X174546820Y-83904498D01*
X174436506Y-83963463D01*
X174339815Y-84042815D01*
X174260463Y-84139506D01*
X174201498Y-84249820D01*
X174165188Y-84369518D01*
X174152928Y-84494000D01*
X169051941Y-84494000D01*
X169094632Y-84465475D01*
X169301475Y-84258632D01*
X169463990Y-84015411D01*
X169575932Y-83745158D01*
X169633000Y-83458260D01*
X169633000Y-83165740D01*
X169575932Y-82878842D01*
X169463990Y-82608589D01*
X169301475Y-82365368D01*
X169094632Y-82158525D01*
X168851411Y-81996010D01*
X168581158Y-81884068D01*
X168294260Y-81827000D01*
X168001740Y-81827000D01*
X167714842Y-81884068D01*
X167444589Y-81996010D01*
X167201368Y-82158525D01*
X166994525Y-82365368D01*
X166878000Y-82539760D01*
X166761475Y-82365368D01*
X166554632Y-82158525D01*
X166311411Y-81996010D01*
X166041158Y-81884068D01*
X165754260Y-81827000D01*
X165461740Y-81827000D01*
X165174842Y-81884068D01*
X164904589Y-81996010D01*
X164661368Y-82158525D01*
X164454525Y-82365368D01*
X164338000Y-82539760D01*
X164221475Y-82365368D01*
X164014632Y-82158525D01*
X163771411Y-81996010D01*
X163501158Y-81884068D01*
X163214260Y-81827000D01*
X162921740Y-81827000D01*
X162634842Y-81884068D01*
X162364589Y-81996010D01*
X162121368Y-82158525D01*
X161914525Y-82365368D01*
X161798000Y-82539760D01*
X161681475Y-82365368D01*
X161474632Y-82158525D01*
X161231411Y-81996010D01*
X160961158Y-81884068D01*
X160674260Y-81827000D01*
X160381740Y-81827000D01*
X160094842Y-81884068D01*
X159824589Y-81996010D01*
X159581368Y-82158525D01*
X159449513Y-82290380D01*
X159427502Y-82217820D01*
X159368537Y-82107506D01*
X159289185Y-82010815D01*
X159192494Y-81931463D01*
X159082180Y-81872498D01*
X158962482Y-81836188D01*
X158838000Y-81823928D01*
X157138000Y-81823928D01*
X157013518Y-81836188D01*
X156893820Y-81872498D01*
X156783506Y-81931463D01*
X156686815Y-82010815D01*
X156607463Y-82107506D01*
X156548498Y-82217820D01*
X156512188Y-82337518D01*
X156499928Y-82462000D01*
X148996000Y-82462000D01*
X148996000Y-77767721D01*
X153277400Y-77767721D01*
X153277400Y-78188279D01*
X153359447Y-78600756D01*
X153520388Y-78989302D01*
X153754037Y-79338983D01*
X154051417Y-79636363D01*
X154401098Y-79870012D01*
X154789644Y-80030953D01*
X155202121Y-80113000D01*
X155622679Y-80113000D01*
X156035156Y-80030953D01*
X156423702Y-79870012D01*
X156773383Y-79636363D01*
X157070763Y-79338983D01*
X157304412Y-78989302D01*
X157465353Y-78600756D01*
X157547400Y-78188279D01*
X157547400Y-77767721D01*
X157465353Y-77355244D01*
X157304412Y-76966698D01*
X157245147Y-76878001D01*
X160224328Y-76878001D01*
X160224328Y-79077999D01*
X160241392Y-79251253D01*
X160291929Y-79417850D01*
X160373995Y-79571386D01*
X160484439Y-79705961D01*
X160619014Y-79816405D01*
X160772550Y-79898471D01*
X160939147Y-79949008D01*
X161112401Y-79966072D01*
X164312399Y-79966072D01*
X164485653Y-79949008D01*
X164652250Y-79898471D01*
X164805786Y-79816405D01*
X164940361Y-79705961D01*
X165050805Y-79571386D01*
X165132871Y-79417850D01*
X165183408Y-79251253D01*
X165200472Y-79077999D01*
X165200472Y-77978000D01*
X165717796Y-77978000D01*
X165756122Y-78367128D01*
X165869626Y-78741302D01*
X166053947Y-79086143D01*
X166302002Y-79388398D01*
X166604257Y-79636453D01*
X166949098Y-79820774D01*
X167323272Y-79934278D01*
X167614890Y-79963000D01*
X168809910Y-79963000D01*
X169101528Y-79934278D01*
X169475702Y-79820774D01*
X169820543Y-79636453D01*
X170122798Y-79388398D01*
X170370853Y-79086143D01*
X170555174Y-78741302D01*
X170668678Y-78367128D01*
X170707004Y-77978000D01*
X170668678Y-77588872D01*
X170555174Y-77214698D01*
X170370853Y-76869857D01*
X170122798Y-76567602D01*
X169820543Y-76319547D01*
X169475702Y-76135226D01*
X169101528Y-76021722D01*
X168809910Y-75993000D01*
X167614890Y-75993000D01*
X167323272Y-76021722D01*
X166949098Y-76135226D01*
X166604257Y-76319547D01*
X166302002Y-76567602D01*
X166053947Y-76869857D01*
X165869626Y-77214698D01*
X165756122Y-77588872D01*
X165717796Y-77978000D01*
X165200472Y-77978000D01*
X165200472Y-76878001D01*
X165183408Y-76704747D01*
X165132871Y-76538150D01*
X165050805Y-76384614D01*
X164940361Y-76250039D01*
X164805786Y-76139595D01*
X164652250Y-76057529D01*
X164485653Y-76006992D01*
X164312399Y-75989928D01*
X161112401Y-75989928D01*
X160939147Y-76006992D01*
X160772550Y-76057529D01*
X160619014Y-76139595D01*
X160484439Y-76250039D01*
X160373995Y-76384614D01*
X160291929Y-76538150D01*
X160241392Y-76704747D01*
X160224328Y-76878001D01*
X157245147Y-76878001D01*
X157070763Y-76617017D01*
X156773383Y-76319637D01*
X156423702Y-76085988D01*
X156035156Y-75925047D01*
X155622679Y-75843000D01*
X155202121Y-75843000D01*
X154789644Y-75925047D01*
X154401098Y-76085988D01*
X154051417Y-76319637D01*
X153754037Y-76617017D01*
X153520388Y-76966698D01*
X153359447Y-77355244D01*
X153277400Y-77767721D01*
X148996000Y-77767721D01*
X148996000Y-61755872D01*
X149149000Y-61755872D01*
X149149000Y-62196128D01*
X149234890Y-62627925D01*
X149403369Y-63034669D01*
X149647962Y-63400729D01*
X149959271Y-63712038D01*
X150325331Y-63956631D01*
X150732075Y-64125110D01*
X151163872Y-64211000D01*
X151604128Y-64211000D01*
X152035925Y-64125110D01*
X152442669Y-63956631D01*
X152808729Y-63712038D01*
X153120038Y-63400729D01*
X153364631Y-63034669D01*
X153533110Y-62627925D01*
X153619000Y-62196128D01*
X153619000Y-61755872D01*
X153533110Y-61324075D01*
X153364631Y-60917331D01*
X153120038Y-60551271D01*
X152808729Y-60239962D01*
X152442669Y-59995369D01*
X152035925Y-59826890D01*
X151604128Y-59741000D01*
X151163872Y-59741000D01*
X150732075Y-59826890D01*
X150325331Y-59995369D01*
X149959271Y-60239962D01*
X149647962Y-60551271D01*
X149403369Y-60917331D01*
X149234890Y-61324075D01*
X149149000Y-61755872D01*
X148996000Y-61755872D01*
X148996000Y-59080000D01*
X154051486Y-59080000D01*
X154101803Y-74690747D01*
G37*
X154101803Y-74690747D02*
X154114146Y-74813308D01*
X154150420Y-74932388D01*
X154209228Y-75042102D01*
X154288311Y-75138236D01*
X154384629Y-75217094D01*
X154494480Y-75275646D01*
X154613644Y-75311643D01*
X154737540Y-75323700D01*
X176530740Y-75298300D01*
X176653882Y-75286099D01*
X176773004Y-75249964D01*
X176882787Y-75191283D01*
X176979013Y-75112313D01*
X177057983Y-75016087D01*
X177116664Y-74906304D01*
X177152799Y-74787182D01*
X177165000Y-74663300D01*
X177165000Y-59080000D01*
X202540000Y-59080000D01*
X202540000Y-61287596D01*
X202386631Y-60917331D01*
X202142038Y-60551271D01*
X201830729Y-60239962D01*
X201464669Y-59995369D01*
X201057925Y-59826890D01*
X200626128Y-59741000D01*
X200185872Y-59741000D01*
X199754075Y-59826890D01*
X199347331Y-59995369D01*
X198981271Y-60239962D01*
X198669962Y-60551271D01*
X198425369Y-60917331D01*
X198256890Y-61324075D01*
X198171000Y-61755872D01*
X198171000Y-62196128D01*
X198256890Y-62627925D01*
X198425369Y-63034669D01*
X198669962Y-63400729D01*
X198981271Y-63712038D01*
X199347331Y-63956631D01*
X199754075Y-64125110D01*
X200185872Y-64211000D01*
X200626128Y-64211000D01*
X201057925Y-64125110D01*
X201464669Y-63956631D01*
X201830729Y-63712038D01*
X202142038Y-63400729D01*
X202386631Y-63034669D01*
X202540000Y-62664403D01*
X202540001Y-88211598D01*
X202386631Y-87841331D01*
X202142038Y-87475271D01*
X201830729Y-87163962D01*
X201464669Y-86919369D01*
X201057925Y-86750890D01*
X200626128Y-86665000D01*
X200185872Y-86665000D01*
X199754075Y-86750890D01*
X199347331Y-86919369D01*
X198981271Y-87163962D01*
X198669962Y-87475271D01*
X198425369Y-87841331D01*
X198256890Y-88248075D01*
X198171000Y-88679872D01*
X198171000Y-89120128D01*
X198256890Y-89551925D01*
X198425369Y-89958669D01*
X198669962Y-90324729D01*
X198981271Y-90636038D01*
X199347331Y-90880631D01*
X199754075Y-91049110D01*
X200185872Y-91135000D01*
X200626128Y-91135000D01*
X201057925Y-91049110D01*
X201464669Y-90880631D01*
X201830729Y-90636038D01*
X202142038Y-90324729D01*
X202386631Y-89958669D01*
X202540001Y-89588402D01*
X202540001Y-91796000D01*
X148996000Y-91796000D01*
X148996000Y-88679872D01*
X149149000Y-88679872D01*
X149149000Y-89120128D01*
X149234890Y-89551925D01*
X149403369Y-89958669D01*
X149647962Y-90324729D01*
X149959271Y-90636038D01*
X150325331Y-90880631D01*
X150732075Y-91049110D01*
X151163872Y-91135000D01*
X151604128Y-91135000D01*
X152035925Y-91049110D01*
X152442669Y-90880631D01*
X152808729Y-90636038D01*
X153120038Y-90324729D01*
X153364631Y-89958669D01*
X153533110Y-89551925D01*
X153619000Y-89120128D01*
X153619000Y-88679872D01*
X153533110Y-88248075D01*
X153364631Y-87841331D01*
X153120038Y-87475271D01*
X152808729Y-87163962D01*
X152442669Y-86919369D01*
X152035925Y-86750890D01*
X151604128Y-86665000D01*
X151163872Y-86665000D01*
X150732075Y-86750890D01*
X150325331Y-86919369D01*
X149959271Y-87163962D01*
X149647962Y-87475271D01*
X149403369Y-87841331D01*
X149234890Y-88248075D01*
X149149000Y-88679872D01*
X148996000Y-88679872D01*
X148996000Y-82462000D01*
X156499928Y-82462000D01*
X156499928Y-84162000D01*
X156512188Y-84286482D01*
X156548498Y-84406180D01*
X156607463Y-84516494D01*
X156686815Y-84613185D01*
X156783506Y-84692537D01*
X156893820Y-84751502D01*
X156966380Y-84773513D01*
X156834525Y-84905368D01*
X156672010Y-85148589D01*
X156560068Y-85418842D01*
X156503000Y-85705740D01*
X156503000Y-85998260D01*
X156560068Y-86285158D01*
X156672010Y-86555411D01*
X156834525Y-86798632D01*
X157041368Y-87005475D01*
X157284589Y-87167990D01*
X157554842Y-87279932D01*
X157841740Y-87337000D01*
X158134260Y-87337000D01*
X158421158Y-87279932D01*
X158691411Y-87167990D01*
X158934632Y-87005475D01*
X159141475Y-86798632D01*
X159258000Y-86624240D01*
X159374525Y-86798632D01*
X159581368Y-87005475D01*
X159824589Y-87167990D01*
X160094842Y-87279932D01*
X160381740Y-87337000D01*
X160674260Y-87337000D01*
X160961158Y-87279932D01*
X161231411Y-87167990D01*
X161474632Y-87005475D01*
X161681475Y-86798632D01*
X161798000Y-86624240D01*
X161914525Y-86798632D01*
X162121368Y-87005475D01*
X162364589Y-87167990D01*
X162634842Y-87279932D01*
X162921740Y-87337000D01*
X163214260Y-87337000D01*
X163501158Y-87279932D01*
X163771411Y-87167990D01*
X164014632Y-87005475D01*
X164221475Y-86798632D01*
X164338000Y-86624240D01*
X164454525Y-86798632D01*
X164661368Y-87005475D01*
X164904589Y-87167990D01*
X165174842Y-87279932D01*
X165461740Y-87337000D01*
X165754260Y-87337000D01*
X166041158Y-87279932D01*
X166311411Y-87167990D01*
X166554632Y-87005475D01*
X166761475Y-86798632D01*
X166878000Y-86624240D01*
X166994525Y-86798632D01*
X167201368Y-87005475D01*
X167444589Y-87167990D01*
X167714842Y-87279932D01*
X168001740Y-87337000D01*
X168294260Y-87337000D01*
X168581158Y-87279932D01*
X168851411Y-87167990D01*
X169094632Y-87005475D01*
X169301475Y-86798632D01*
X169463990Y-86555411D01*
X169575932Y-86285158D01*
X169633000Y-85998260D01*
X169633000Y-85705740D01*
X169575932Y-85418842D01*
X169463990Y-85148589D01*
X169301475Y-84905368D01*
X169094632Y-84698525D01*
X168920240Y-84582000D01*
X169051941Y-84494000D01*
X174152928Y-84494000D01*
X174152928Y-86194000D01*
X174165188Y-86318482D01*
X174201498Y-86438180D01*
X174260463Y-86548494D01*
X174339815Y-86645185D01*
X174436506Y-86724537D01*
X174546820Y-86783502D01*
X174619380Y-86805513D01*
X174487525Y-86937368D01*
X174325010Y-87180589D01*
X174213068Y-87450842D01*
X174156000Y-87737740D01*
X174156000Y-88030260D01*
X174213068Y-88317158D01*
X174325010Y-88587411D01*
X174487525Y-88830632D01*
X174694368Y-89037475D01*
X174937589Y-89199990D01*
X175207842Y-89311932D01*
X175494740Y-89369000D01*
X175787260Y-89369000D01*
X176074158Y-89311932D01*
X176344411Y-89199990D01*
X176587632Y-89037475D01*
X176794475Y-88830632D01*
X176911000Y-88656240D01*
X177027525Y-88830632D01*
X177234368Y-89037475D01*
X177477589Y-89199990D01*
X177747842Y-89311932D01*
X178034740Y-89369000D01*
X178327260Y-89369000D01*
X178614158Y-89311932D01*
X178884411Y-89199990D01*
X179127632Y-89037475D01*
X179334475Y-88830632D01*
X179451000Y-88656240D01*
X179567525Y-88830632D01*
X179774368Y-89037475D01*
X180017589Y-89199990D01*
X180287842Y-89311932D01*
X180574740Y-89369000D01*
X180867260Y-89369000D01*
X181154158Y-89311932D01*
X181424411Y-89199990D01*
X181667632Y-89037475D01*
X181874475Y-88830632D01*
X181991000Y-88656240D01*
X182107525Y-88830632D01*
X182314368Y-89037475D01*
X182557589Y-89199990D01*
X182827842Y-89311932D01*
X183114740Y-89369000D01*
X183407260Y-89369000D01*
X183694158Y-89311932D01*
X183964411Y-89199990D01*
X184207632Y-89037475D01*
X184414475Y-88830632D01*
X184531000Y-88656240D01*
X184647525Y-88830632D01*
X184854368Y-89037475D01*
X185097589Y-89199990D01*
X185367842Y-89311932D01*
X185654740Y-89369000D01*
X185947260Y-89369000D01*
X186234158Y-89311932D01*
X186504411Y-89199990D01*
X186747632Y-89037475D01*
X186954475Y-88830632D01*
X187116990Y-88587411D01*
X187228932Y-88317158D01*
X187286000Y-88030260D01*
X187286000Y-87737740D01*
X187228932Y-87450842D01*
X187116990Y-87180589D01*
X186954475Y-86937368D01*
X186747632Y-86730525D01*
X186573240Y-86614000D01*
X186747632Y-86497475D01*
X186954475Y-86290632D01*
X187071000Y-86116240D01*
X187187525Y-86290632D01*
X187394368Y-86497475D01*
X187637589Y-86659990D01*
X187907842Y-86771932D01*
X188194740Y-86829000D01*
X188487260Y-86829000D01*
X188774158Y-86771932D01*
X189044411Y-86659990D01*
X189287632Y-86497475D01*
X189494475Y-86290632D01*
X189656990Y-86047411D01*
X189768932Y-85777158D01*
X189826000Y-85490260D01*
X189826000Y-85197740D01*
X189768932Y-84910842D01*
X189656990Y-84640589D01*
X189494475Y-84397368D01*
X189287632Y-84190525D01*
X189044411Y-84028010D01*
X188774158Y-83916068D01*
X188487260Y-83859000D01*
X188194740Y-83859000D01*
X187907842Y-83916068D01*
X187637589Y-84028010D01*
X187394368Y-84190525D01*
X187187525Y-84397368D01*
X187071000Y-84571760D01*
X186954475Y-84397368D01*
X186747632Y-84190525D01*
X186504411Y-84028010D01*
X186234158Y-83916068D01*
X185947260Y-83859000D01*
X185654740Y-83859000D01*
X185367842Y-83916068D01*
X185097589Y-84028010D01*
X184854368Y-84190525D01*
X184647525Y-84397368D01*
X184531000Y-84571760D01*
X184414475Y-84397368D01*
X184207632Y-84190525D01*
X183964411Y-84028010D01*
X183694158Y-83916068D01*
X183407260Y-83859000D01*
X183114740Y-83859000D01*
X182827842Y-83916068D01*
X182557589Y-84028010D01*
X182314368Y-84190525D01*
X182107525Y-84397368D01*
X181991000Y-84571760D01*
X181874475Y-84397368D01*
X181667632Y-84190525D01*
X181424411Y-84028010D01*
X181154158Y-83916068D01*
X180867260Y-83859000D01*
X180574740Y-83859000D01*
X180287842Y-83916068D01*
X180017589Y-84028010D01*
X179774368Y-84190525D01*
X179567525Y-84397368D01*
X179451000Y-84571760D01*
X179334475Y-84397368D01*
X179127632Y-84190525D01*
X178884411Y-84028010D01*
X178614158Y-83916068D01*
X178327260Y-83859000D01*
X178034740Y-83859000D01*
X177747842Y-83916068D01*
X177477589Y-84028010D01*
X177234368Y-84190525D01*
X177102513Y-84322380D01*
X177080502Y-84249820D01*
X177021537Y-84139506D01*
X176942185Y-84042815D01*
X176845494Y-83963463D01*
X176735180Y-83904498D01*
X176615482Y-83868188D01*
X176491000Y-83855928D01*
X174791000Y-83855928D01*
X174666518Y-83868188D01*
X174546820Y-83904498D01*
X174436506Y-83963463D01*
X174339815Y-84042815D01*
X174260463Y-84139506D01*
X174201498Y-84249820D01*
X174165188Y-84369518D01*
X174152928Y-84494000D01*
X169051941Y-84494000D01*
X169094632Y-84465475D01*
X169301475Y-84258632D01*
X169463990Y-84015411D01*
X169575932Y-83745158D01*
X169633000Y-83458260D01*
X169633000Y-83165740D01*
X169575932Y-82878842D01*
X169463990Y-82608589D01*
X169301475Y-82365368D01*
X169094632Y-82158525D01*
X168851411Y-81996010D01*
X168581158Y-81884068D01*
X168294260Y-81827000D01*
X168001740Y-81827000D01*
X167714842Y-81884068D01*
X167444589Y-81996010D01*
X167201368Y-82158525D01*
X166994525Y-82365368D01*
X166878000Y-82539760D01*
X166761475Y-82365368D01*
X166554632Y-82158525D01*
X166311411Y-81996010D01*
X166041158Y-81884068D01*
X165754260Y-81827000D01*
X165461740Y-81827000D01*
X165174842Y-81884068D01*
X164904589Y-81996010D01*
X164661368Y-82158525D01*
X164454525Y-82365368D01*
X164338000Y-82539760D01*
X164221475Y-82365368D01*
X164014632Y-82158525D01*
X163771411Y-81996010D01*
X163501158Y-81884068D01*
X163214260Y-81827000D01*
X162921740Y-81827000D01*
X162634842Y-81884068D01*
X162364589Y-81996010D01*
X162121368Y-82158525D01*
X161914525Y-82365368D01*
X161798000Y-82539760D01*
X161681475Y-82365368D01*
X161474632Y-82158525D01*
X161231411Y-81996010D01*
X160961158Y-81884068D01*
X160674260Y-81827000D01*
X160381740Y-81827000D01*
X160094842Y-81884068D01*
X159824589Y-81996010D01*
X159581368Y-82158525D01*
X159449513Y-82290380D01*
X159427502Y-82217820D01*
X159368537Y-82107506D01*
X159289185Y-82010815D01*
X159192494Y-81931463D01*
X159082180Y-81872498D01*
X158962482Y-81836188D01*
X158838000Y-81823928D01*
X157138000Y-81823928D01*
X157013518Y-81836188D01*
X156893820Y-81872498D01*
X156783506Y-81931463D01*
X156686815Y-82010815D01*
X156607463Y-82107506D01*
X156548498Y-82217820D01*
X156512188Y-82337518D01*
X156499928Y-82462000D01*
X148996000Y-82462000D01*
X148996000Y-77767721D01*
X153277400Y-77767721D01*
X153277400Y-78188279D01*
X153359447Y-78600756D01*
X153520388Y-78989302D01*
X153754037Y-79338983D01*
X154051417Y-79636363D01*
X154401098Y-79870012D01*
X154789644Y-80030953D01*
X155202121Y-80113000D01*
X155622679Y-80113000D01*
X156035156Y-80030953D01*
X156423702Y-79870012D01*
X156773383Y-79636363D01*
X157070763Y-79338983D01*
X157304412Y-78989302D01*
X157465353Y-78600756D01*
X157547400Y-78188279D01*
X157547400Y-77767721D01*
X157465353Y-77355244D01*
X157304412Y-76966698D01*
X157245147Y-76878001D01*
X160224328Y-76878001D01*
X160224328Y-79077999D01*
X160241392Y-79251253D01*
X160291929Y-79417850D01*
X160373995Y-79571386D01*
X160484439Y-79705961D01*
X160619014Y-79816405D01*
X160772550Y-79898471D01*
X160939147Y-79949008D01*
X161112401Y-79966072D01*
X164312399Y-79966072D01*
X164485653Y-79949008D01*
X164652250Y-79898471D01*
X164805786Y-79816405D01*
X164940361Y-79705961D01*
X165050805Y-79571386D01*
X165132871Y-79417850D01*
X165183408Y-79251253D01*
X165200472Y-79077999D01*
X165200472Y-77978000D01*
X165717796Y-77978000D01*
X165756122Y-78367128D01*
X165869626Y-78741302D01*
X166053947Y-79086143D01*
X166302002Y-79388398D01*
X166604257Y-79636453D01*
X166949098Y-79820774D01*
X167323272Y-79934278D01*
X167614890Y-79963000D01*
X168809910Y-79963000D01*
X169101528Y-79934278D01*
X169475702Y-79820774D01*
X169820543Y-79636453D01*
X170122798Y-79388398D01*
X170370853Y-79086143D01*
X170555174Y-78741302D01*
X170668678Y-78367128D01*
X170707004Y-77978000D01*
X170668678Y-77588872D01*
X170555174Y-77214698D01*
X170370853Y-76869857D01*
X170122798Y-76567602D01*
X169820543Y-76319547D01*
X169475702Y-76135226D01*
X169101528Y-76021722D01*
X168809910Y-75993000D01*
X167614890Y-75993000D01*
X167323272Y-76021722D01*
X166949098Y-76135226D01*
X166604257Y-76319547D01*
X166302002Y-76567602D01*
X166053947Y-76869857D01*
X165869626Y-77214698D01*
X165756122Y-77588872D01*
X165717796Y-77978000D01*
X165200472Y-77978000D01*
X165200472Y-76878001D01*
X165183408Y-76704747D01*
X165132871Y-76538150D01*
X165050805Y-76384614D01*
X164940361Y-76250039D01*
X164805786Y-76139595D01*
X164652250Y-76057529D01*
X164485653Y-76006992D01*
X164312399Y-75989928D01*
X161112401Y-75989928D01*
X160939147Y-76006992D01*
X160772550Y-76057529D01*
X160619014Y-76139595D01*
X160484439Y-76250039D01*
X160373995Y-76384614D01*
X160291929Y-76538150D01*
X160241392Y-76704747D01*
X160224328Y-76878001D01*
X157245147Y-76878001D01*
X157070763Y-76617017D01*
X156773383Y-76319637D01*
X156423702Y-76085988D01*
X156035156Y-75925047D01*
X155622679Y-75843000D01*
X155202121Y-75843000D01*
X154789644Y-75925047D01*
X154401098Y-76085988D01*
X154051417Y-76319637D01*
X153754037Y-76617017D01*
X153520388Y-76966698D01*
X153359447Y-77355244D01*
X153277400Y-77767721D01*
X148996000Y-77767721D01*
X148996000Y-61755872D01*
X149149000Y-61755872D01*
X149149000Y-62196128D01*
X149234890Y-62627925D01*
X149403369Y-63034669D01*
X149647962Y-63400729D01*
X149959271Y-63712038D01*
X150325331Y-63956631D01*
X150732075Y-64125110D01*
X151163872Y-64211000D01*
X151604128Y-64211000D01*
X152035925Y-64125110D01*
X152442669Y-63956631D01*
X152808729Y-63712038D01*
X153120038Y-63400729D01*
X153364631Y-63034669D01*
X153533110Y-62627925D01*
X153619000Y-62196128D01*
X153619000Y-61755872D01*
X153533110Y-61324075D01*
X153364631Y-60917331D01*
X153120038Y-60551271D01*
X152808729Y-60239962D01*
X152442669Y-59995369D01*
X152035925Y-59826890D01*
X151604128Y-59741000D01*
X151163872Y-59741000D01*
X150732075Y-59826890D01*
X150325331Y-59995369D01*
X149959271Y-60239962D01*
X149647962Y-60551271D01*
X149403369Y-60917331D01*
X149234890Y-61324075D01*
X149149000Y-61755872D01*
X148996000Y-61755872D01*
X148996000Y-59080000D01*
X154051486Y-59080000D01*
X154101803Y-74690747D01*
G36*
X176403000Y-74536448D02*
G01*
X154863390Y-74561552D01*
X154813491Y-59080000D01*
X176403000Y-59080000D01*
X176403000Y-74536448D01*
G37*
X176403000Y-74536448D02*
X154863390Y-74561552D01*
X154813491Y-59080000D01*
X176403000Y-59080000D01*
X176403000Y-74536448D01*
M02*
