G04 #@! TF.GenerationSoftware,KiCad,Pcbnew,5.1.6-c6e7f7d~86~ubuntu18.04.1*
G04 #@! TF.CreationDate,2020-06-27T17:21:00+01:00*
G04 #@! TF.ProjectId,UV_LED_Driver,55565f4c-4544-45f4-9472-697665722e6b,rev?*
G04 #@! TF.SameCoordinates,Original*
G04 #@! TF.FileFunction,Legend,Bot*
G04 #@! TF.FilePolarity,Positive*
%FSLAX46Y46*%
G04 Gerber Fmt 4.6, Leading zero omitted, Abs format (unit mm)*
G04 Created by KiCad (PCBNEW 5.1.6-c6e7f7d~86~ubuntu18.04.1) date 2020-06-27 17:21:00*
%MOMM*%
%LPD*%
G01*
G04 APERTURE LIST*
%ADD10C,0.120000*%
%ADD11C,0.100000*%
%ADD12C,0.150000*%
G04 #@! TA.AperFunction,Profile*
%ADD13C,0.050000*%
G04 #@! TD*
G04 APERTURE END LIST*
D10*
X202438000Y-80441800D02*
X192278000Y-80441800D01*
X192278000Y-77089000D02*
X202438000Y-77089000D01*
D11*
X192443714Y-81591095D02*
X192938952Y-81591095D01*
X192672285Y-81286333D01*
X192786571Y-81286333D01*
X192862761Y-81248238D01*
X192900857Y-81210142D01*
X192938952Y-81133952D01*
X192938952Y-80943476D01*
X192900857Y-80867285D01*
X192862761Y-80829190D01*
X192786571Y-80791095D01*
X192558000Y-80791095D01*
X192481809Y-80829190D01*
X192443714Y-80867285D01*
X194234190Y-81324428D02*
X194234190Y-80791095D01*
X194043714Y-81629190D02*
X193853238Y-81057761D01*
X194348476Y-81057761D01*
X195643714Y-81591095D02*
X195262761Y-81591095D01*
X195224666Y-81210142D01*
X195262761Y-81248238D01*
X195338952Y-81286333D01*
X195529428Y-81286333D01*
X195605619Y-81248238D01*
X195643714Y-81210142D01*
X195681809Y-81133952D01*
X195681809Y-80943476D01*
X195643714Y-80867285D01*
X195605619Y-80829190D01*
X195529428Y-80791095D01*
X195338952Y-80791095D01*
X195262761Y-80829190D01*
X195224666Y-80867285D01*
X196519904Y-81591095D02*
X196786571Y-80791095D01*
X197053238Y-81591095D01*
X197319904Y-80791095D02*
X197319904Y-81591095D01*
X197624666Y-81591095D01*
X197700857Y-81553000D01*
X197738952Y-81514904D01*
X197777047Y-81438714D01*
X197777047Y-81324428D01*
X197738952Y-81248238D01*
X197700857Y-81210142D01*
X197624666Y-81172047D01*
X197319904Y-81172047D01*
X198119904Y-80791095D02*
X198119904Y-81591095D01*
X198424666Y-81591095D01*
X198500857Y-81553000D01*
X198538952Y-81514904D01*
X198577047Y-81438714D01*
X198577047Y-81324428D01*
X198538952Y-81248238D01*
X198500857Y-81210142D01*
X198424666Y-81172047D01*
X198119904Y-81172047D01*
X200558000Y-81553000D02*
X200481809Y-81591095D01*
X200367523Y-81591095D01*
X200253238Y-81553000D01*
X200177047Y-81476809D01*
X200138952Y-81400619D01*
X200100857Y-81248238D01*
X200100857Y-81133952D01*
X200138952Y-80981571D01*
X200177047Y-80905380D01*
X200253238Y-80829190D01*
X200367523Y-80791095D01*
X200443714Y-80791095D01*
X200558000Y-80829190D01*
X200596095Y-80867285D01*
X200596095Y-81133952D01*
X200443714Y-81133952D01*
X200938952Y-80791095D02*
X200938952Y-81591095D01*
X201396095Y-80791095D01*
X201396095Y-81591095D01*
X201777047Y-80791095D02*
X201777047Y-81591095D01*
X201967523Y-81591095D01*
X202081809Y-81553000D01*
X202158000Y-81476809D01*
X202196095Y-81400619D01*
X202234190Y-81248238D01*
X202234190Y-81133952D01*
X202196095Y-80981571D01*
X202158000Y-80905380D01*
X202081809Y-80829190D01*
X201967523Y-80791095D01*
X201777047Y-80791095D01*
X192685000Y-76688904D02*
X192723095Y-76727000D01*
X192799285Y-76765095D01*
X192989761Y-76765095D01*
X193065952Y-76727000D01*
X193104047Y-76688904D01*
X193142142Y-76612714D01*
X193142142Y-76536523D01*
X193104047Y-76422238D01*
X192646904Y-75965095D01*
X193142142Y-75965095D01*
X194513571Y-75965095D02*
X194056428Y-75965095D01*
X194285000Y-75965095D02*
X194285000Y-76765095D01*
X194208809Y-76650809D01*
X194132619Y-76574619D01*
X194056428Y-76536523D01*
X196570714Y-76765095D02*
X196837380Y-75965095D01*
X197104047Y-76765095D01*
X197370714Y-75965095D02*
X197370714Y-76765095D01*
X197675476Y-76765095D01*
X197751666Y-76727000D01*
X197789761Y-76688904D01*
X197827857Y-76612714D01*
X197827857Y-76498428D01*
X197789761Y-76422238D01*
X197751666Y-76384142D01*
X197675476Y-76346047D01*
X197370714Y-76346047D01*
X198170714Y-75965095D02*
X198170714Y-76765095D01*
X198475476Y-76765095D01*
X198551666Y-76727000D01*
X198589761Y-76688904D01*
X198627857Y-76612714D01*
X198627857Y-76498428D01*
X198589761Y-76422238D01*
X198551666Y-76384142D01*
X198475476Y-76346047D01*
X198170714Y-76346047D01*
X200608809Y-76727000D02*
X200532619Y-76765095D01*
X200418333Y-76765095D01*
X200304047Y-76727000D01*
X200227857Y-76650809D01*
X200189761Y-76574619D01*
X200151666Y-76422238D01*
X200151666Y-76307952D01*
X200189761Y-76155571D01*
X200227857Y-76079380D01*
X200304047Y-76003190D01*
X200418333Y-75965095D01*
X200494523Y-75965095D01*
X200608809Y-76003190D01*
X200646904Y-76041285D01*
X200646904Y-76307952D01*
X200494523Y-76307952D01*
X200989761Y-75965095D02*
X200989761Y-76765095D01*
X201446904Y-75965095D01*
X201446904Y-76765095D01*
X201827857Y-75965095D02*
X201827857Y-76765095D01*
X202018333Y-76765095D01*
X202132619Y-76727000D01*
X202208809Y-76650809D01*
X202246904Y-76574619D01*
X202285000Y-76422238D01*
X202285000Y-76307952D01*
X202246904Y-76155571D01*
X202208809Y-76079380D01*
X202132619Y-76003190D01*
X202018333Y-75965095D01*
X201827857Y-75965095D01*
D10*
X202057000Y-79502000D02*
G75*
G03*
X202057000Y-79502000I-127000J0D01*
G01*
X200787000Y-79502000D02*
G75*
G03*
X200787000Y-79502000I-127000J0D01*
G01*
X198120000Y-79502000D02*
G75*
G03*
X198120000Y-79502000I-127000J0D01*
G01*
X196850000Y-79502000D02*
G75*
G03*
X196850000Y-79502000I-127000J0D01*
G01*
X199390000Y-79502000D02*
G75*
G03*
X199390000Y-79502000I-127000J0D01*
G01*
X196850000Y-77978000D02*
G75*
G03*
X196850000Y-77978000I-127000J0D01*
G01*
X199390000Y-77978000D02*
G75*
G03*
X199390000Y-77978000I-127000J0D01*
G01*
X198120000Y-77978000D02*
G75*
G03*
X198120000Y-77978000I-127000J0D01*
G01*
X193040000Y-79502000D02*
G75*
G03*
X193040000Y-79502000I-127000J0D01*
G01*
X195580000Y-79502000D02*
G75*
G03*
X195580000Y-79502000I-127000J0D01*
G01*
X194310000Y-79502000D02*
G75*
G03*
X194310000Y-79502000I-127000J0D01*
G01*
X195580000Y-77978000D02*
G75*
G03*
X195580000Y-77978000I-127000J0D01*
G01*
X194310000Y-77978000D02*
G75*
G03*
X194310000Y-77978000I-127000J0D01*
G01*
X193040000Y-77978000D02*
G75*
G03*
X193040000Y-77978000I-127000J0D01*
G01*
X200787000Y-77978000D02*
G75*
G03*
X200787000Y-77978000I-127000J0D01*
G01*
X201930000Y-77978000D02*
G75*
G03*
X201930000Y-77978000I-127000J0D01*
G01*
X198628000Y-78867000D02*
X199898000Y-78867000D01*
X202438000Y-80441800D02*
X202438000Y-77089000D01*
X199898000Y-78867000D02*
X199898000Y-77089000D01*
X198628000Y-80441800D02*
X198628000Y-78867000D01*
X196088000Y-80441800D02*
X196088000Y-77089000D01*
X194818000Y-80441800D02*
X194818000Y-77089000D01*
X193548000Y-80441800D02*
X193548000Y-77089000D01*
X192278000Y-80441800D02*
X192278000Y-77089000D01*
D12*
X177157857Y-80748238D02*
X177300714Y-80700619D01*
X177538809Y-80700619D01*
X177634047Y-80748238D01*
X177681666Y-80795857D01*
X177729285Y-80891095D01*
X177729285Y-80986333D01*
X177681666Y-81081571D01*
X177634047Y-81129190D01*
X177538809Y-81176809D01*
X177348333Y-81224428D01*
X177253095Y-81272047D01*
X177205476Y-81319666D01*
X177157857Y-81414904D01*
X177157857Y-81510142D01*
X177205476Y-81605380D01*
X177253095Y-81653000D01*
X177348333Y-81700619D01*
X177586428Y-81700619D01*
X177729285Y-81653000D01*
X178157857Y-80700619D02*
X178157857Y-81700619D01*
X179157857Y-81653000D02*
X179062619Y-81700619D01*
X178919761Y-81700619D01*
X178776904Y-81653000D01*
X178681666Y-81557761D01*
X178634047Y-81462523D01*
X178586428Y-81272047D01*
X178586428Y-81129190D01*
X178634047Y-80938714D01*
X178681666Y-80843476D01*
X178776904Y-80748238D01*
X178919761Y-80700619D01*
X179015000Y-80700619D01*
X179157857Y-80748238D01*
X179205476Y-80795857D01*
X179205476Y-81129190D01*
X179015000Y-81129190D01*
X179634047Y-80700619D02*
X179634047Y-81700619D01*
X180205476Y-80700619D01*
X180205476Y-81700619D01*
X180634047Y-80986333D02*
X181110238Y-80986333D01*
X180538809Y-80700619D02*
X180872142Y-81700619D01*
X181205476Y-80700619D01*
X182015000Y-80700619D02*
X181538809Y-80700619D01*
X181538809Y-81700619D01*
X183062619Y-81748238D02*
X182205476Y-80462523D01*
X183395952Y-80700619D02*
X183395952Y-81700619D01*
X183776904Y-81700619D01*
X183872142Y-81653000D01*
X183919761Y-81605380D01*
X183967380Y-81510142D01*
X183967380Y-81367285D01*
X183919761Y-81272047D01*
X183872142Y-81224428D01*
X183776904Y-81176809D01*
X183395952Y-81176809D01*
X184300714Y-81700619D02*
X184538809Y-80700619D01*
X184729285Y-81414904D01*
X184919761Y-80700619D01*
X185157857Y-81700619D01*
X186110238Y-80700619D02*
X185776904Y-81176809D01*
X185538809Y-80700619D02*
X185538809Y-81700619D01*
X185919761Y-81700619D01*
X186015000Y-81653000D01*
X186062619Y-81605380D01*
X186110238Y-81510142D01*
X186110238Y-81367285D01*
X186062619Y-81272047D01*
X186015000Y-81224428D01*
X185919761Y-81176809D01*
X185538809Y-81176809D01*
X187634047Y-81224428D02*
X187776904Y-81176809D01*
X187824523Y-81129190D01*
X187872142Y-81033952D01*
X187872142Y-80891095D01*
X187824523Y-80795857D01*
X187776904Y-80748238D01*
X187681666Y-80700619D01*
X187300714Y-80700619D01*
X187300714Y-81700619D01*
X187634047Y-81700619D01*
X187729285Y-81653000D01*
X187776904Y-81605380D01*
X187824523Y-81510142D01*
X187824523Y-81414904D01*
X187776904Y-81319666D01*
X187729285Y-81272047D01*
X187634047Y-81224428D01*
X187300714Y-81224428D01*
X188300714Y-81700619D02*
X188300714Y-80891095D01*
X188348333Y-80795857D01*
X188395952Y-80748238D01*
X188491190Y-80700619D01*
X188681666Y-80700619D01*
X188776904Y-80748238D01*
X188824523Y-80795857D01*
X188872142Y-80891095D01*
X188872142Y-81700619D01*
X189300714Y-80748238D02*
X189443571Y-80700619D01*
X189681666Y-80700619D01*
X189776904Y-80748238D01*
X189824523Y-80795857D01*
X189872142Y-80891095D01*
X189872142Y-80986333D01*
X189824523Y-81081571D01*
X189776904Y-81129190D01*
X189681666Y-81176809D01*
X189491190Y-81224428D01*
X189395952Y-81272047D01*
X189348333Y-81319666D01*
X189300714Y-81414904D01*
X189300714Y-81510142D01*
X189348333Y-81605380D01*
X189395952Y-81653000D01*
X189491190Y-81700619D01*
X189729285Y-81700619D01*
X189872142Y-81653000D01*
D11*
X185416714Y-62281928D02*
X184702428Y-62281928D01*
X184702428Y-63781928D01*
X185916714Y-63067642D02*
X186416714Y-63067642D01*
X186631000Y-62281928D02*
X185916714Y-62281928D01*
X185916714Y-63781928D01*
X186631000Y-63781928D01*
X187273857Y-62281928D02*
X187273857Y-63781928D01*
X187631000Y-63781928D01*
X187845285Y-63710500D01*
X187988142Y-63567642D01*
X188059571Y-63424785D01*
X188131000Y-63139071D01*
X188131000Y-62924785D01*
X188059571Y-62639071D01*
X187988142Y-62496214D01*
X187845285Y-62353357D01*
X187631000Y-62281928D01*
X187273857Y-62281928D01*
X189916714Y-62281928D02*
X189916714Y-63781928D01*
X190273857Y-63781928D01*
X190488142Y-63710500D01*
X190631000Y-63567642D01*
X190702428Y-63424785D01*
X190773857Y-63139071D01*
X190773857Y-62924785D01*
X190702428Y-62639071D01*
X190631000Y-62496214D01*
X190488142Y-62353357D01*
X190273857Y-62281928D01*
X189916714Y-62281928D01*
X192273857Y-62281928D02*
X191773857Y-62996214D01*
X191416714Y-62281928D02*
X191416714Y-63781928D01*
X191988142Y-63781928D01*
X192131000Y-63710500D01*
X192202428Y-63639071D01*
X192273857Y-63496214D01*
X192273857Y-63281928D01*
X192202428Y-63139071D01*
X192131000Y-63067642D01*
X191988142Y-62996214D01*
X191416714Y-62996214D01*
X192916714Y-62281928D02*
X192916714Y-63781928D01*
X193416714Y-63781928D02*
X193916714Y-62281928D01*
X194416714Y-63781928D01*
X194916714Y-63067642D02*
X195416714Y-63067642D01*
X195631000Y-62281928D02*
X194916714Y-62281928D01*
X194916714Y-63781928D01*
X195631000Y-63781928D01*
X197131000Y-62281928D02*
X196631000Y-62996214D01*
X196273857Y-62281928D02*
X196273857Y-63781928D01*
X196845285Y-63781928D01*
X196988142Y-63710500D01*
X197059571Y-63639071D01*
X197131000Y-63496214D01*
X197131000Y-63281928D01*
X197059571Y-63139071D01*
X196988142Y-63067642D01*
X196845285Y-62996214D01*
X196273857Y-62996214D01*
X186059571Y-59931928D02*
X185559571Y-60646214D01*
X185202428Y-59931928D02*
X185202428Y-61431928D01*
X185773857Y-61431928D01*
X185916714Y-61360500D01*
X185988142Y-61289071D01*
X186059571Y-61146214D01*
X186059571Y-60931928D01*
X185988142Y-60789071D01*
X185916714Y-60717642D01*
X185773857Y-60646214D01*
X185202428Y-60646214D01*
X187273857Y-60003357D02*
X187131000Y-59931928D01*
X186845285Y-59931928D01*
X186702428Y-60003357D01*
X186631000Y-60146214D01*
X186631000Y-60717642D01*
X186702428Y-60860500D01*
X186845285Y-60931928D01*
X187131000Y-60931928D01*
X187273857Y-60860500D01*
X187345285Y-60717642D01*
X187345285Y-60574785D01*
X186631000Y-60431928D01*
X187845285Y-60931928D02*
X188202428Y-59931928D01*
X188559571Y-60931928D01*
X189059571Y-60360500D02*
X189773857Y-60360500D01*
X188916714Y-59931928D02*
X189416714Y-61431928D01*
X189916714Y-59931928D01*
X191845285Y-61431928D02*
X191988142Y-61431928D01*
X192131000Y-61360500D01*
X192202428Y-61289071D01*
X192273857Y-61146214D01*
X192345285Y-60860500D01*
X192345285Y-60503357D01*
X192273857Y-60217642D01*
X192202428Y-60074785D01*
X192131000Y-60003357D01*
X191988142Y-59931928D01*
X191845285Y-59931928D01*
X191702428Y-60003357D01*
X191631000Y-60074785D01*
X191559571Y-60217642D01*
X191488142Y-60503357D01*
X191488142Y-60860500D01*
X191559571Y-61146214D01*
X191631000Y-61289071D01*
X191702428Y-61360500D01*
X191845285Y-61431928D01*
X193631000Y-61431928D02*
X193345285Y-61431928D01*
X193202428Y-61360500D01*
X193131000Y-61289071D01*
X192988142Y-61074785D01*
X192916714Y-60789071D01*
X192916714Y-60217642D01*
X192988142Y-60074785D01*
X193059571Y-60003357D01*
X193202428Y-59931928D01*
X193488142Y-59931928D01*
X193631000Y-60003357D01*
X193702428Y-60074785D01*
X193773857Y-60217642D01*
X193773857Y-60574785D01*
X193702428Y-60717642D01*
X193631000Y-60789071D01*
X193488142Y-60860500D01*
X193202428Y-60860500D01*
X193059571Y-60789071D01*
X192988142Y-60717642D01*
X192916714Y-60574785D01*
X194345285Y-61289071D02*
X194416714Y-61360500D01*
X194559571Y-61431928D01*
X194916714Y-61431928D01*
X195059571Y-61360500D01*
X195131000Y-61289071D01*
X195202428Y-61146214D01*
X195202428Y-61003357D01*
X195131000Y-60789071D01*
X194273857Y-59931928D01*
X195202428Y-59931928D01*
X196131000Y-61431928D02*
X196273857Y-61431928D01*
X196416714Y-61360500D01*
X196488142Y-61289071D01*
X196559571Y-61146214D01*
X196631000Y-60860500D01*
X196631000Y-60503357D01*
X196559571Y-60217642D01*
X196488142Y-60074785D01*
X196416714Y-60003357D01*
X196273857Y-59931928D01*
X196131000Y-59931928D01*
X195988142Y-60003357D01*
X195916714Y-60074785D01*
X195845285Y-60217642D01*
X195773857Y-60503357D01*
X195773857Y-60860500D01*
X195845285Y-61146214D01*
X195916714Y-61289071D01*
X195988142Y-61360500D01*
X196131000Y-61431928D01*
D12*
X160718476Y-88225285D02*
X160718476Y-87558619D01*
X160480380Y-88606238D02*
X160242285Y-87891952D01*
X160861333Y-87891952D01*
X162671166Y-88622119D02*
X163290214Y-88622119D01*
X162956880Y-88241166D01*
X163099738Y-88241166D01*
X163194976Y-88193547D01*
X163242595Y-88145928D01*
X163290214Y-88050690D01*
X163290214Y-87812595D01*
X163242595Y-87717357D01*
X163194976Y-87669738D01*
X163099738Y-87622119D01*
X162814023Y-87622119D01*
X162718785Y-87669738D01*
X162671166Y-87717357D01*
X168433714Y-87558619D02*
X167862285Y-87558619D01*
X168148000Y-87558619D02*
X168148000Y-88558619D01*
X168052761Y-88415761D01*
X167957523Y-88320523D01*
X167862285Y-88272904D01*
X165258785Y-88526880D02*
X165306404Y-88574500D01*
X165401642Y-88622119D01*
X165639738Y-88622119D01*
X165734976Y-88574500D01*
X165782595Y-88526880D01*
X165830214Y-88431642D01*
X165830214Y-88336404D01*
X165782595Y-88193547D01*
X165211166Y-87622119D01*
X165830214Y-87622119D01*
X158226095Y-88622119D02*
X157749904Y-88622119D01*
X157702285Y-88145928D01*
X157749904Y-88193547D01*
X157845142Y-88241166D01*
X158083238Y-88241166D01*
X158178476Y-88193547D01*
X158226095Y-88145928D01*
X158273714Y-88050690D01*
X158273714Y-87812595D01*
X158226095Y-87717357D01*
X158178476Y-87669738D01*
X158083238Y-87622119D01*
X157845142Y-87622119D01*
X157749904Y-87669738D01*
X157702285Y-87717357D01*
D13*
X203200000Y-58420000D02*
X203200000Y-92456000D01*
X148336000Y-58420000D02*
X203200000Y-58420000D01*
X148336000Y-92456000D02*
X148336000Y-58420000D01*
X203200000Y-92456000D02*
X148336000Y-92456000D01*
D10*
X162412400Y-75378000D02*
X162712400Y-75978000D01*
X163012400Y-75378000D02*
X162412400Y-75378000D01*
X162712400Y-75978000D02*
X163012400Y-75378000D01*
X164822400Y-78278000D02*
X166102400Y-78278000D01*
X164822400Y-77678000D02*
X166102400Y-77678000D01*
X148702400Y-80788000D02*
X148702400Y-77978000D01*
X161722400Y-80788000D02*
X148702400Y-80788000D01*
X161722400Y-79978000D02*
X161722400Y-80788000D01*
X148702400Y-75168000D02*
X148702400Y-77978000D01*
X161722400Y-75168000D02*
X148702400Y-75168000D01*
X161722400Y-75978000D02*
X161722400Y-75168000D01*
X156658000Y-81982000D02*
X156658000Y-83312000D01*
X157988000Y-81982000D02*
X156658000Y-81982000D01*
X156658000Y-84582000D02*
X156658000Y-87182000D01*
X159258000Y-84582000D02*
X156658000Y-84582000D01*
X159258000Y-81982000D02*
X159258000Y-84582000D01*
X156658000Y-87182000D02*
X169478000Y-87182000D01*
X159258000Y-81982000D02*
X169478000Y-81982000D01*
X169478000Y-81982000D02*
X169478000Y-87182000D01*
X174311000Y-84014000D02*
X174311000Y-85344000D01*
X175641000Y-84014000D02*
X174311000Y-84014000D01*
X174311000Y-86614000D02*
X174311000Y-89214000D01*
X176911000Y-86614000D02*
X174311000Y-86614000D01*
X176911000Y-84014000D02*
X176911000Y-86614000D01*
X174311000Y-89214000D02*
X194751000Y-89214000D01*
X176911000Y-84014000D02*
X194751000Y-84014000D01*
X194751000Y-84014000D02*
X194751000Y-89214000D01*
D12*
X173458095Y-78430380D02*
X173458095Y-77430380D01*
X173220000Y-77430380D01*
X173077142Y-77478000D01*
X172981904Y-77573238D01*
X172934285Y-77668476D01*
X172886666Y-77858952D01*
X172886666Y-78001809D01*
X172934285Y-78192285D01*
X172981904Y-78287523D01*
X173077142Y-78382761D01*
X173220000Y-78430380D01*
X173458095Y-78430380D01*
X171934285Y-78430380D02*
X172505714Y-78430380D01*
X172220000Y-78430380D02*
X172220000Y-77430380D01*
X172315238Y-77573238D01*
X172410476Y-77668476D01*
X172505714Y-77716095D01*
X155273333Y-84288380D02*
X155273333Y-85002666D01*
X155320952Y-85145523D01*
X155416190Y-85240761D01*
X155559047Y-85288380D01*
X155654285Y-85288380D01*
X154844761Y-84383619D02*
X154797142Y-84336000D01*
X154701904Y-84288380D01*
X154463809Y-84288380D01*
X154368571Y-84336000D01*
X154320952Y-84383619D01*
X154273333Y-84478857D01*
X154273333Y-84574095D01*
X154320952Y-84716952D01*
X154892380Y-85288380D01*
X154273333Y-85288380D01*
X195286380Y-88058666D02*
X196000666Y-88058666D01*
X196143523Y-88011047D01*
X196238761Y-87915809D01*
X196286380Y-87772952D01*
X196286380Y-87677714D01*
X196286380Y-89058666D02*
X196286380Y-88487238D01*
X196286380Y-88772952D02*
X195286380Y-88772952D01*
X195429238Y-88677714D01*
X195524476Y-88582476D01*
X195572095Y-88487238D01*
M02*
