G04 #@! TF.GenerationSoftware,KiCad,Pcbnew,5.1.6-c6e7f7d~86~ubuntu18.04.1*
G04 #@! TF.CreationDate,2020-06-27T17:21:00+01:00*
G04 #@! TF.ProjectId,UV_LED_Driver,55565f4c-4544-45f4-9472-697665722e6b,rev?*
G04 #@! TF.SameCoordinates,Original*
G04 #@! TF.FileFunction,Paste,Top*
G04 #@! TF.FilePolarity,Positive*
%FSLAX46Y46*%
G04 Gerber Fmt 4.6, Leading zero omitted, Abs format (unit mm)*
G04 Created by KiCad (PCBNEW 5.1.6-c6e7f7d~86~ubuntu18.04.1) date 2020-06-27 17:21:00*
%MOMM*%
%LPD*%
G01*
G04 APERTURE LIST*
G04 #@! TA.AperFunction,Profile*
%ADD10C,0.050000*%
G04 #@! TD*
%ADD11R,1.060000X0.650000*%
%ADD12R,3.050000X2.750000*%
%ADD13R,2.200000X1.200000*%
G04 APERTURE END LIST*
D10*
X203200000Y-58420000D02*
X203200000Y-92456000D01*
X148336000Y-58420000D02*
X203200000Y-58420000D01*
X148336000Y-92456000D02*
X148336000Y-58420000D01*
X203200000Y-92456000D02*
X148336000Y-92456000D01*
D11*
X188384000Y-69149000D03*
X188384000Y-67249000D03*
X190584000Y-67249000D03*
X190584000Y-68199000D03*
X190584000Y-69149000D03*
G36*
G01*
X180607000Y-69713000D02*
X180607000Y-68463000D01*
G75*
G02*
X180857000Y-68213000I250000J0D01*
G01*
X181782000Y-68213000D01*
G75*
G02*
X182032000Y-68463000I0J-250000D01*
G01*
X182032000Y-69713000D01*
G75*
G02*
X181782000Y-69963000I-250000J0D01*
G01*
X180857000Y-69963000D01*
G75*
G02*
X180607000Y-69713000I0J250000D01*
G01*
G37*
G36*
G01*
X177632000Y-69713000D02*
X177632000Y-68463000D01*
G75*
G02*
X177882000Y-68213000I250000J0D01*
G01*
X178807000Y-68213000D01*
G75*
G02*
X179057000Y-68463000I0J-250000D01*
G01*
X179057000Y-69713000D01*
G75*
G02*
X178807000Y-69963000I-250000J0D01*
G01*
X177882000Y-69963000D01*
G75*
G02*
X177632000Y-69713000I0J250000D01*
G01*
G37*
G36*
G01*
X180607000Y-65776000D02*
X180607000Y-64526000D01*
G75*
G02*
X180857000Y-64276000I250000J0D01*
G01*
X181782000Y-64276000D01*
G75*
G02*
X182032000Y-64526000I0J-250000D01*
G01*
X182032000Y-65776000D01*
G75*
G02*
X181782000Y-66026000I-250000J0D01*
G01*
X180857000Y-66026000D01*
G75*
G02*
X180607000Y-65776000I0J250000D01*
G01*
G37*
G36*
G01*
X177632000Y-65776000D02*
X177632000Y-64526000D01*
G75*
G02*
X177882000Y-64276000I250000J0D01*
G01*
X178807000Y-64276000D01*
G75*
G02*
X179057000Y-64526000I0J-250000D01*
G01*
X179057000Y-65776000D01*
G75*
G02*
X178807000Y-66026000I-250000J0D01*
G01*
X177882000Y-66026000D01*
G75*
G02*
X177632000Y-65776000I0J250000D01*
G01*
G37*
G36*
G01*
X180607000Y-73777000D02*
X180607000Y-72527000D01*
G75*
G02*
X180857000Y-72277000I250000J0D01*
G01*
X181782000Y-72277000D01*
G75*
G02*
X182032000Y-72527000I0J-250000D01*
G01*
X182032000Y-73777000D01*
G75*
G02*
X181782000Y-74027000I-250000J0D01*
G01*
X180857000Y-74027000D01*
G75*
G02*
X180607000Y-73777000I0J250000D01*
G01*
G37*
G36*
G01*
X177632000Y-73777000D02*
X177632000Y-72527000D01*
G75*
G02*
X177882000Y-72277000I250000J0D01*
G01*
X178807000Y-72277000D01*
G75*
G02*
X179057000Y-72527000I0J-250000D01*
G01*
X179057000Y-73777000D01*
G75*
G02*
X178807000Y-74027000I-250000J0D01*
G01*
X177882000Y-74027000D01*
G75*
G02*
X177632000Y-73777000I0J250000D01*
G01*
G37*
D12*
X170771000Y-65912000D03*
X167421000Y-68962000D03*
X170771000Y-68962000D03*
X167421000Y-65912000D03*
D13*
X175396000Y-65157000D03*
X175396000Y-67437000D03*
X175396000Y-69717000D03*
G36*
G01*
X187719000Y-72507000D02*
X187719000Y-71257000D01*
G75*
G02*
X187969000Y-71007000I250000J0D01*
G01*
X188894000Y-71007000D01*
G75*
G02*
X189144000Y-71257000I0J-250000D01*
G01*
X189144000Y-72507000D01*
G75*
G02*
X188894000Y-72757000I-250000J0D01*
G01*
X187969000Y-72757000D01*
G75*
G02*
X187719000Y-72507000I0J250000D01*
G01*
G37*
G36*
G01*
X184744000Y-72507000D02*
X184744000Y-71257000D01*
G75*
G02*
X184994000Y-71007000I250000J0D01*
G01*
X185919000Y-71007000D01*
G75*
G02*
X186169000Y-71257000I0J-250000D01*
G01*
X186169000Y-72507000D01*
G75*
G02*
X185919000Y-72757000I-250000J0D01*
G01*
X184994000Y-72757000D01*
G75*
G02*
X184744000Y-72507000I0J250000D01*
G01*
G37*
G36*
G01*
X196332000Y-73012000D02*
X195082000Y-73012000D01*
G75*
G02*
X194832000Y-72762000I0J250000D01*
G01*
X194832000Y-71837000D01*
G75*
G02*
X195082000Y-71587000I250000J0D01*
G01*
X196332000Y-71587000D01*
G75*
G02*
X196582000Y-71837000I0J-250000D01*
G01*
X196582000Y-72762000D01*
G75*
G02*
X196332000Y-73012000I-250000J0D01*
G01*
G37*
G36*
G01*
X196332000Y-75987000D02*
X195082000Y-75987000D01*
G75*
G02*
X194832000Y-75737000I0J250000D01*
G01*
X194832000Y-74812000D01*
G75*
G02*
X195082000Y-74562000I250000J0D01*
G01*
X196332000Y-74562000D01*
G75*
G02*
X196582000Y-74812000I0J-250000D01*
G01*
X196582000Y-75737000D01*
G75*
G02*
X196332000Y-75987000I-250000J0D01*
G01*
G37*
G36*
G01*
X196332000Y-65392000D02*
X195082000Y-65392000D01*
G75*
G02*
X194832000Y-65142000I0J250000D01*
G01*
X194832000Y-64217000D01*
G75*
G02*
X195082000Y-63967000I250000J0D01*
G01*
X196332000Y-63967000D01*
G75*
G02*
X196582000Y-64217000I0J-250000D01*
G01*
X196582000Y-65142000D01*
G75*
G02*
X196332000Y-65392000I-250000J0D01*
G01*
G37*
G36*
G01*
X196332000Y-68367000D02*
X195082000Y-68367000D01*
G75*
G02*
X194832000Y-68117000I0J250000D01*
G01*
X194832000Y-67192000D01*
G75*
G02*
X195082000Y-66942000I250000J0D01*
G01*
X196332000Y-66942000D01*
G75*
G02*
X196582000Y-67192000I0J-250000D01*
G01*
X196582000Y-68117000D01*
G75*
G02*
X196332000Y-68367000I-250000J0D01*
G01*
G37*
M02*
