G04 #@! TF.GenerationSoftware,KiCad,Pcbnew,5.1.6-c6e7f7d~86~ubuntu18.04.1*
G04 #@! TF.CreationDate,2020-06-27T17:21:00+01:00*
G04 #@! TF.ProjectId,UV_LED_Driver,55565f4c-4544-45f4-9472-697665722e6b,rev?*
G04 #@! TF.SameCoordinates,Original*
G04 #@! TF.FileFunction,Legend,Top*
G04 #@! TF.FilePolarity,Positive*
%FSLAX46Y46*%
G04 Gerber Fmt 4.6, Leading zero omitted, Abs format (unit mm)*
G04 Created by KiCad (PCBNEW 5.1.6-c6e7f7d~86~ubuntu18.04.1) date 2020-06-27 17:21:00*
%MOMM*%
%LPD*%
G01*
G04 APERTURE LIST*
%ADD10C,0.150000*%
G04 #@! TA.AperFunction,Profile*
%ADD11C,0.050000*%
G04 #@! TD*
%ADD12C,0.120000*%
G04 APERTURE END LIST*
D10*
X160718476Y-87860214D02*
X160718476Y-88526880D01*
X160480380Y-87479261D02*
X160242285Y-88193547D01*
X160861333Y-88193547D01*
X165258785Y-87622119D02*
X165306404Y-87574500D01*
X165401642Y-87526880D01*
X165639738Y-87526880D01*
X165734976Y-87574500D01*
X165782595Y-87622119D01*
X165830214Y-87717357D01*
X165830214Y-87812595D01*
X165782595Y-87955452D01*
X165211166Y-88526880D01*
X165830214Y-88526880D01*
X168433714Y-88463380D02*
X167862285Y-88463380D01*
X168148000Y-88463380D02*
X168148000Y-87463380D01*
X168052761Y-87606238D01*
X167957523Y-87701476D01*
X167862285Y-87749095D01*
X162734666Y-87526880D02*
X163353714Y-87526880D01*
X163020380Y-87907833D01*
X163163238Y-87907833D01*
X163258476Y-87955452D01*
X163306095Y-88003071D01*
X163353714Y-88098309D01*
X163353714Y-88336404D01*
X163306095Y-88431642D01*
X163258476Y-88479261D01*
X163163238Y-88526880D01*
X162877523Y-88526880D01*
X162782285Y-88479261D01*
X162734666Y-88431642D01*
X158162595Y-87526880D02*
X157686404Y-87526880D01*
X157638785Y-88003071D01*
X157686404Y-87955452D01*
X157781642Y-87907833D01*
X158019738Y-87907833D01*
X158114976Y-87955452D01*
X158162595Y-88003071D01*
X158210214Y-88098309D01*
X158210214Y-88336404D01*
X158162595Y-88431642D01*
X158114976Y-88479261D01*
X158019738Y-88526880D01*
X157781642Y-88526880D01*
X157686404Y-88479261D01*
X157638785Y-88431642D01*
D11*
X203200000Y-58420000D02*
X203200000Y-92456000D01*
X148336000Y-58420000D02*
X203200000Y-58420000D01*
X148336000Y-92456000D02*
X148336000Y-58420000D01*
X203200000Y-92456000D02*
X148336000Y-92456000D01*
D12*
X188584000Y-69809000D02*
X191034000Y-69809000D01*
X190384000Y-66589000D02*
X188584000Y-66589000D01*
X179229936Y-69998000D02*
X180434064Y-69998000D01*
X179229936Y-68178000D02*
X180434064Y-68178000D01*
X179229936Y-66061000D02*
X180434064Y-66061000D01*
X179229936Y-64241000D02*
X180434064Y-64241000D01*
X179229936Y-74062000D02*
X180434064Y-74062000D01*
X179229936Y-72242000D02*
X180434064Y-72242000D01*
X173666000Y-64257000D02*
X174766000Y-64257000D01*
X173666000Y-63987000D02*
X173666000Y-64257000D01*
X172166000Y-63987000D02*
X173666000Y-63987000D01*
X173666000Y-70617000D02*
X176496000Y-70617000D01*
X173666000Y-70887000D02*
X173666000Y-70617000D01*
X172166000Y-70887000D02*
X173666000Y-70887000D01*
X186341936Y-72792000D02*
X187546064Y-72792000D01*
X186341936Y-70972000D02*
X187546064Y-70972000D01*
X196617000Y-74389064D02*
X196617000Y-73184936D01*
X194797000Y-74389064D02*
X194797000Y-73184936D01*
X196617000Y-66769064D02*
X196617000Y-65564936D01*
X194797000Y-66769064D02*
X194797000Y-65564936D01*
D10*
X188722095Y-64730380D02*
X188722095Y-65539904D01*
X188769714Y-65635142D01*
X188817333Y-65682761D01*
X188912571Y-65730380D01*
X189103047Y-65730380D01*
X189198285Y-65682761D01*
X189245904Y-65635142D01*
X189293523Y-65539904D01*
X189293523Y-64730380D01*
X190293523Y-65730380D02*
X189722095Y-65730380D01*
X190007809Y-65730380D02*
X190007809Y-64730380D01*
X189912571Y-64873238D01*
X189817333Y-64968476D01*
X189722095Y-65016095D01*
X183221333Y-69540380D02*
X182888000Y-69064190D01*
X182649904Y-69540380D02*
X182649904Y-68540380D01*
X183030857Y-68540380D01*
X183126095Y-68588000D01*
X183173714Y-68635619D01*
X183221333Y-68730857D01*
X183221333Y-68873714D01*
X183173714Y-68968952D01*
X183126095Y-69016571D01*
X183030857Y-69064190D01*
X182649904Y-69064190D01*
X184078476Y-68873714D02*
X184078476Y-69540380D01*
X183840380Y-68492761D02*
X183602285Y-69207047D01*
X184221333Y-69207047D01*
X179665333Y-63190380D02*
X179332000Y-62714190D01*
X179093904Y-63190380D02*
X179093904Y-62190380D01*
X179474857Y-62190380D01*
X179570095Y-62238000D01*
X179617714Y-62285619D01*
X179665333Y-62380857D01*
X179665333Y-62523714D01*
X179617714Y-62618952D01*
X179570095Y-62666571D01*
X179474857Y-62714190D01*
X179093904Y-62714190D01*
X179998666Y-62190380D02*
X180617714Y-62190380D01*
X180284380Y-62571333D01*
X180427238Y-62571333D01*
X180522476Y-62618952D01*
X180570095Y-62666571D01*
X180617714Y-62761809D01*
X180617714Y-62999904D01*
X180570095Y-63095142D01*
X180522476Y-63142761D01*
X180427238Y-63190380D01*
X180141523Y-63190380D01*
X180046285Y-63142761D01*
X179998666Y-63095142D01*
X179665333Y-75890380D02*
X179332000Y-75414190D01*
X179093904Y-75890380D02*
X179093904Y-74890380D01*
X179474857Y-74890380D01*
X179570095Y-74938000D01*
X179617714Y-74985619D01*
X179665333Y-75080857D01*
X179665333Y-75223714D01*
X179617714Y-75318952D01*
X179570095Y-75366571D01*
X179474857Y-75414190D01*
X179093904Y-75414190D01*
X180617714Y-75890380D02*
X180046285Y-75890380D01*
X180332000Y-75890380D02*
X180332000Y-74890380D01*
X180236761Y-75033238D01*
X180141523Y-75128476D01*
X180046285Y-75176095D01*
X175164761Y-63285619D02*
X175069523Y-63238000D01*
X174974285Y-63142761D01*
X174831428Y-62999904D01*
X174736190Y-62952285D01*
X174640952Y-62952285D01*
X174688571Y-63190380D02*
X174593333Y-63142761D01*
X174498095Y-63047523D01*
X174450476Y-62857047D01*
X174450476Y-62523714D01*
X174498095Y-62333238D01*
X174593333Y-62238000D01*
X174688571Y-62190380D01*
X174879047Y-62190380D01*
X174974285Y-62238000D01*
X175069523Y-62333238D01*
X175117142Y-62523714D01*
X175117142Y-62857047D01*
X175069523Y-63047523D01*
X174974285Y-63142761D01*
X174879047Y-63190380D01*
X174688571Y-63190380D01*
X176069523Y-63190380D02*
X175498095Y-63190380D01*
X175783809Y-63190380D02*
X175783809Y-62190380D01*
X175688571Y-62333238D01*
X175593333Y-62428476D01*
X175498095Y-62476095D01*
X186777333Y-74271142D02*
X186729714Y-74318761D01*
X186586857Y-74366380D01*
X186491619Y-74366380D01*
X186348761Y-74318761D01*
X186253523Y-74223523D01*
X186205904Y-74128285D01*
X186158285Y-73937809D01*
X186158285Y-73794952D01*
X186205904Y-73604476D01*
X186253523Y-73509238D01*
X186348761Y-73414000D01*
X186491619Y-73366380D01*
X186586857Y-73366380D01*
X186729714Y-73414000D01*
X186777333Y-73461619D01*
X187158285Y-73461619D02*
X187205904Y-73414000D01*
X187301142Y-73366380D01*
X187539238Y-73366380D01*
X187634476Y-73414000D01*
X187682095Y-73461619D01*
X187729714Y-73556857D01*
X187729714Y-73652095D01*
X187682095Y-73794952D01*
X187110666Y-74366380D01*
X187729714Y-74366380D01*
X197699333Y-74144142D02*
X197651714Y-74191761D01*
X197508857Y-74239380D01*
X197413619Y-74239380D01*
X197270761Y-74191761D01*
X197175523Y-74096523D01*
X197127904Y-74001285D01*
X197080285Y-73810809D01*
X197080285Y-73667952D01*
X197127904Y-73477476D01*
X197175523Y-73382238D01*
X197270761Y-73287000D01*
X197413619Y-73239380D01*
X197508857Y-73239380D01*
X197651714Y-73287000D01*
X197699333Y-73334619D01*
X198651714Y-74239380D02*
X198080285Y-74239380D01*
X198366000Y-74239380D02*
X198366000Y-73239380D01*
X198270761Y-73382238D01*
X198175523Y-73477476D01*
X198080285Y-73525095D01*
X197699333Y-66619380D02*
X197366000Y-66143190D01*
X197127904Y-66619380D02*
X197127904Y-65619380D01*
X197508857Y-65619380D01*
X197604095Y-65667000D01*
X197651714Y-65714619D01*
X197699333Y-65809857D01*
X197699333Y-65952714D01*
X197651714Y-66047952D01*
X197604095Y-66095571D01*
X197508857Y-66143190D01*
X197127904Y-66143190D01*
X198080285Y-65714619D02*
X198127904Y-65667000D01*
X198223142Y-65619380D01*
X198461238Y-65619380D01*
X198556476Y-65667000D01*
X198604095Y-65714619D01*
X198651714Y-65809857D01*
X198651714Y-65905095D01*
X198604095Y-66047952D01*
X198032666Y-66619380D01*
X198651714Y-66619380D01*
M02*
