G04 #@! TF.GenerationSoftware,KiCad,Pcbnew,5.1.6-c6e7f7d~86~ubuntu18.04.1*
G04 #@! TF.CreationDate,2020-06-27T17:21:00+01:00*
G04 #@! TF.ProjectId,UV_LED_Driver,55565f4c-4544-45f4-9472-697665722e6b,rev?*
G04 #@! TF.SameCoordinates,Original*
G04 #@! TF.FileFunction,Copper,L1,Top*
G04 #@! TF.FilePolarity,Positive*
%FSLAX46Y46*%
G04 Gerber Fmt 4.6, Leading zero omitted, Abs format (unit mm)*
G04 Created by KiCad (PCBNEW 5.1.6-c6e7f7d~86~ubuntu18.04.1) date 2020-06-27 17:21:00*
%MOMM*%
%LPD*%
G01*
G04 APERTURE LIST*
G04 #@! TA.AperFunction,Profile*
%ADD10C,0.050000*%
G04 #@! TD*
G04 #@! TA.AperFunction,ComponentPad*
%ADD11O,3.700000X2.700000*%
G04 #@! TD*
G04 #@! TA.AperFunction,SMDPad,CuDef*
%ADD12R,1.060000X0.650000*%
G04 #@! TD*
G04 #@! TA.AperFunction,SMDPad,CuDef*
%ADD13R,6.400000X5.800000*%
G04 #@! TD*
G04 #@! TA.AperFunction,SMDPad,CuDef*
%ADD14R,2.200000X1.200000*%
G04 #@! TD*
G04 #@! TA.AperFunction,ComponentPad*
%ADD15O,1.700000X1.700000*%
G04 #@! TD*
G04 #@! TA.AperFunction,ComponentPad*
%ADD16R,1.700000X1.700000*%
G04 #@! TD*
G04 #@! TA.AperFunction,ViaPad*
%ADD17C,0.800000*%
G04 #@! TD*
G04 #@! TA.AperFunction,ViaPad*
%ADD18C,2.000000*%
G04 #@! TD*
G04 #@! TA.AperFunction,Conductor*
%ADD19C,1.000000*%
G04 #@! TD*
G04 #@! TA.AperFunction,Conductor*
%ADD20C,4.000000*%
G04 #@! TD*
G04 #@! TA.AperFunction,Conductor*
%ADD21C,0.650000*%
G04 #@! TD*
G04 #@! TA.AperFunction,Conductor*
%ADD22C,0.250000*%
G04 #@! TD*
G04 #@! TA.AperFunction,Conductor*
%ADD23C,0.254000*%
G04 #@! TD*
G04 APERTURE END LIST*
D10*
X203200000Y-58420000D02*
X203200000Y-92456000D01*
X148336000Y-58420000D02*
X203200000Y-58420000D01*
X148336000Y-92456000D02*
X148336000Y-58420000D01*
X203200000Y-92456000D02*
X148336000Y-92456000D01*
D11*
X168212400Y-77978000D03*
G04 #@! TA.AperFunction,ComponentPad*
G36*
G01*
X161112401Y-76628000D02*
X164312399Y-76628000D01*
G75*
G02*
X164562400Y-76878001I0J-250001D01*
G01*
X164562400Y-79077999D01*
G75*
G02*
X164312399Y-79328000I-250001J0D01*
G01*
X161112401Y-79328000D01*
G75*
G02*
X160862400Y-79077999I0J250001D01*
G01*
X160862400Y-76878001D01*
G75*
G02*
X161112401Y-76628000I250001J0D01*
G01*
G37*
G04 #@! TD.AperFunction*
D12*
X188384000Y-69149000D03*
X188384000Y-67249000D03*
X190584000Y-67249000D03*
X190584000Y-68199000D03*
X190584000Y-69149000D03*
G04 #@! TA.AperFunction,SMDPad,CuDef*
G36*
G01*
X180607000Y-69713000D02*
X180607000Y-68463000D01*
G75*
G02*
X180857000Y-68213000I250000J0D01*
G01*
X181782000Y-68213000D01*
G75*
G02*
X182032000Y-68463000I0J-250000D01*
G01*
X182032000Y-69713000D01*
G75*
G02*
X181782000Y-69963000I-250000J0D01*
G01*
X180857000Y-69963000D01*
G75*
G02*
X180607000Y-69713000I0J250000D01*
G01*
G37*
G04 #@! TD.AperFunction*
G04 #@! TA.AperFunction,SMDPad,CuDef*
G36*
G01*
X177632000Y-69713000D02*
X177632000Y-68463000D01*
G75*
G02*
X177882000Y-68213000I250000J0D01*
G01*
X178807000Y-68213000D01*
G75*
G02*
X179057000Y-68463000I0J-250000D01*
G01*
X179057000Y-69713000D01*
G75*
G02*
X178807000Y-69963000I-250000J0D01*
G01*
X177882000Y-69963000D01*
G75*
G02*
X177632000Y-69713000I0J250000D01*
G01*
G37*
G04 #@! TD.AperFunction*
G04 #@! TA.AperFunction,SMDPad,CuDef*
G36*
G01*
X180607000Y-65776000D02*
X180607000Y-64526000D01*
G75*
G02*
X180857000Y-64276000I250000J0D01*
G01*
X181782000Y-64276000D01*
G75*
G02*
X182032000Y-64526000I0J-250000D01*
G01*
X182032000Y-65776000D01*
G75*
G02*
X181782000Y-66026000I-250000J0D01*
G01*
X180857000Y-66026000D01*
G75*
G02*
X180607000Y-65776000I0J250000D01*
G01*
G37*
G04 #@! TD.AperFunction*
G04 #@! TA.AperFunction,SMDPad,CuDef*
G36*
G01*
X177632000Y-65776000D02*
X177632000Y-64526000D01*
G75*
G02*
X177882000Y-64276000I250000J0D01*
G01*
X178807000Y-64276000D01*
G75*
G02*
X179057000Y-64526000I0J-250000D01*
G01*
X179057000Y-65776000D01*
G75*
G02*
X178807000Y-66026000I-250000J0D01*
G01*
X177882000Y-66026000D01*
G75*
G02*
X177632000Y-65776000I0J250000D01*
G01*
G37*
G04 #@! TD.AperFunction*
G04 #@! TA.AperFunction,SMDPad,CuDef*
G36*
G01*
X180607000Y-73777000D02*
X180607000Y-72527000D01*
G75*
G02*
X180857000Y-72277000I250000J0D01*
G01*
X181782000Y-72277000D01*
G75*
G02*
X182032000Y-72527000I0J-250000D01*
G01*
X182032000Y-73777000D01*
G75*
G02*
X181782000Y-74027000I-250000J0D01*
G01*
X180857000Y-74027000D01*
G75*
G02*
X180607000Y-73777000I0J250000D01*
G01*
G37*
G04 #@! TD.AperFunction*
G04 #@! TA.AperFunction,SMDPad,CuDef*
G36*
G01*
X177632000Y-73777000D02*
X177632000Y-72527000D01*
G75*
G02*
X177882000Y-72277000I250000J0D01*
G01*
X178807000Y-72277000D01*
G75*
G02*
X179057000Y-72527000I0J-250000D01*
G01*
X179057000Y-73777000D01*
G75*
G02*
X178807000Y-74027000I-250000J0D01*
G01*
X177882000Y-74027000D01*
G75*
G02*
X177632000Y-73777000I0J250000D01*
G01*
G37*
G04 #@! TD.AperFunction*
D13*
X169096000Y-67437000D03*
D14*
X175396000Y-65157000D03*
X175396000Y-67437000D03*
X175396000Y-69717000D03*
D15*
X168148000Y-85852000D03*
X168148000Y-83312000D03*
X165608000Y-85852000D03*
X165608000Y-83312000D03*
X163068000Y-85852000D03*
X163068000Y-83312000D03*
X160528000Y-85852000D03*
X160528000Y-83312000D03*
X157988000Y-85852000D03*
D16*
X157988000Y-83312000D03*
D15*
X193421000Y-87884000D03*
X193421000Y-85344000D03*
X190881000Y-87884000D03*
X190881000Y-85344000D03*
X188341000Y-87884000D03*
X188341000Y-85344000D03*
X185801000Y-87884000D03*
X185801000Y-85344000D03*
X183261000Y-87884000D03*
X183261000Y-85344000D03*
X180721000Y-87884000D03*
X180721000Y-85344000D03*
X178181000Y-87884000D03*
X178181000Y-85344000D03*
X175641000Y-87884000D03*
D16*
X175641000Y-85344000D03*
G04 #@! TA.AperFunction,SMDPad,CuDef*
G36*
G01*
X187719000Y-72507000D02*
X187719000Y-71257000D01*
G75*
G02*
X187969000Y-71007000I250000J0D01*
G01*
X188894000Y-71007000D01*
G75*
G02*
X189144000Y-71257000I0J-250000D01*
G01*
X189144000Y-72507000D01*
G75*
G02*
X188894000Y-72757000I-250000J0D01*
G01*
X187969000Y-72757000D01*
G75*
G02*
X187719000Y-72507000I0J250000D01*
G01*
G37*
G04 #@! TD.AperFunction*
G04 #@! TA.AperFunction,SMDPad,CuDef*
G36*
G01*
X184744000Y-72507000D02*
X184744000Y-71257000D01*
G75*
G02*
X184994000Y-71007000I250000J0D01*
G01*
X185919000Y-71007000D01*
G75*
G02*
X186169000Y-71257000I0J-250000D01*
G01*
X186169000Y-72507000D01*
G75*
G02*
X185919000Y-72757000I-250000J0D01*
G01*
X184994000Y-72757000D01*
G75*
G02*
X184744000Y-72507000I0J250000D01*
G01*
G37*
G04 #@! TD.AperFunction*
G04 #@! TA.AperFunction,SMDPad,CuDef*
G36*
G01*
X196332000Y-73012000D02*
X195082000Y-73012000D01*
G75*
G02*
X194832000Y-72762000I0J250000D01*
G01*
X194832000Y-71837000D01*
G75*
G02*
X195082000Y-71587000I250000J0D01*
G01*
X196332000Y-71587000D01*
G75*
G02*
X196582000Y-71837000I0J-250000D01*
G01*
X196582000Y-72762000D01*
G75*
G02*
X196332000Y-73012000I-250000J0D01*
G01*
G37*
G04 #@! TD.AperFunction*
G04 #@! TA.AperFunction,SMDPad,CuDef*
G36*
G01*
X196332000Y-75987000D02*
X195082000Y-75987000D01*
G75*
G02*
X194832000Y-75737000I0J250000D01*
G01*
X194832000Y-74812000D01*
G75*
G02*
X195082000Y-74562000I250000J0D01*
G01*
X196332000Y-74562000D01*
G75*
G02*
X196582000Y-74812000I0J-250000D01*
G01*
X196582000Y-75737000D01*
G75*
G02*
X196332000Y-75987000I-250000J0D01*
G01*
G37*
G04 #@! TD.AperFunction*
G04 #@! TA.AperFunction,SMDPad,CuDef*
G36*
G01*
X196332000Y-65392000D02*
X195082000Y-65392000D01*
G75*
G02*
X194832000Y-65142000I0J250000D01*
G01*
X194832000Y-64217000D01*
G75*
G02*
X195082000Y-63967000I250000J0D01*
G01*
X196332000Y-63967000D01*
G75*
G02*
X196582000Y-64217000I0J-250000D01*
G01*
X196582000Y-65142000D01*
G75*
G02*
X196332000Y-65392000I-250000J0D01*
G01*
G37*
G04 #@! TD.AperFunction*
G04 #@! TA.AperFunction,SMDPad,CuDef*
G36*
G01*
X196332000Y-68367000D02*
X195082000Y-68367000D01*
G75*
G02*
X194832000Y-68117000I0J250000D01*
G01*
X194832000Y-67192000D01*
G75*
G02*
X195082000Y-66942000I250000J0D01*
G01*
X196332000Y-66942000D01*
G75*
G02*
X196582000Y-67192000I0J-250000D01*
G01*
X196582000Y-68117000D01*
G75*
G02*
X196332000Y-68367000I-250000J0D01*
G01*
G37*
G04 #@! TD.AperFunction*
D17*
X166116000Y-72898000D03*
X163576000Y-72898000D03*
X161036000Y-72898000D03*
X158496000Y-72898000D03*
X155956000Y-72898000D03*
X163576000Y-70358000D03*
X161036000Y-70358000D03*
X158496000Y-70358000D03*
X155956000Y-70358000D03*
X163576000Y-67818000D03*
X161036000Y-67818000D03*
X158496000Y-67818000D03*
X155956000Y-67818000D03*
X163576000Y-65278000D03*
X161036000Y-65278000D03*
X158496000Y-65278000D03*
X155956000Y-65278000D03*
X170942000Y-72898000D03*
X168402000Y-72898000D03*
X168402000Y-62738000D03*
X155956000Y-62738000D03*
X170942000Y-62738000D03*
X166116000Y-62738000D03*
X158496000Y-62738000D03*
X161036000Y-62738000D03*
X163576000Y-62738000D03*
X161036000Y-60198000D03*
X168402000Y-60198000D03*
X163576000Y-60198000D03*
X170942000Y-60198000D03*
X166116000Y-60198000D03*
X158496000Y-60198000D03*
X155956000Y-60198000D03*
D18*
X190500000Y-71882000D03*
X195707000Y-69977000D03*
X183261000Y-65151000D03*
X186499500Y-67246500D03*
D19*
X175641000Y-67437000D02*
X167436000Y-67437000D01*
D20*
X162712400Y-77520800D02*
X162712400Y-74015600D01*
D19*
X168148000Y-83312000D02*
X157988000Y-83312000D01*
D21*
X195707000Y-64679500D02*
X195199000Y-64679500D01*
X195670500Y-64643000D02*
X195707000Y-64679500D01*
X190627000Y-64643000D02*
X195670500Y-64643000D01*
X170688000Y-80772000D02*
X168148000Y-83312000D01*
X179324000Y-80772000D02*
X170688000Y-80772000D01*
X179832000Y-80264000D02*
X179324000Y-80772000D01*
X179832000Y-71247000D02*
X179832000Y-80264000D01*
X182753000Y-71247000D02*
X179832000Y-71247000D01*
X190584000Y-64727000D02*
X190500000Y-64643000D01*
X183896000Y-67183000D02*
X183896000Y-70104000D01*
X190584000Y-67249000D02*
X190584000Y-64727000D01*
X190500000Y-64643000D02*
X186436000Y-64643000D01*
X183896000Y-70104000D02*
X182753000Y-71247000D01*
X186436000Y-64643000D02*
X183896000Y-67183000D01*
D19*
X193421000Y-85344000D02*
X193421000Y-87884000D01*
X193421000Y-87884000D02*
X188341000Y-87884000D01*
X190881000Y-85344000D02*
X190881000Y-87884000D01*
X190881000Y-85344000D02*
X193421000Y-85344000D01*
X188431500Y-71882000D02*
X190500000Y-71882000D01*
X195707000Y-67654500D02*
X195707000Y-69977000D01*
X195707000Y-72299500D02*
X195707000Y-69977000D01*
X183261000Y-65151000D02*
X181319500Y-65151000D01*
X181319500Y-69088000D02*
X181319500Y-65151000D01*
D21*
X186502000Y-67249000D02*
X188384000Y-67249000D01*
X186499500Y-67246500D02*
X186502000Y-67249000D01*
D19*
X188341000Y-85344000D02*
X184531000Y-85344000D01*
X183261000Y-85344000D02*
X185801000Y-85344000D01*
X183261000Y-85344000D02*
X183261000Y-87884000D01*
X183261000Y-87884000D02*
X185801000Y-87884000D01*
X185801000Y-87884000D02*
X185801000Y-85344000D01*
X188341000Y-85344000D02*
X185801000Y-85344000D01*
X185801000Y-87884000D02*
X185801000Y-91186000D01*
X195707000Y-75274500D02*
X195199000Y-75274500D01*
D21*
X192786000Y-68199000D02*
X190584000Y-68199000D01*
X195707000Y-75274500D02*
X192876500Y-75274500D01*
X192786000Y-75184000D02*
X192786000Y-68199000D01*
X192876500Y-75274500D02*
X192786000Y-75184000D01*
D19*
X168212400Y-79183600D02*
X166624000Y-80772000D01*
X155448000Y-80772000D02*
X155448000Y-91186000D01*
X168212400Y-77978000D02*
X168212400Y-79183600D01*
X166624000Y-80772000D02*
X155448000Y-80772000D01*
X155448000Y-91186000D02*
X195453000Y-91186000D01*
X195707000Y-90932000D02*
X195707000Y-75274500D01*
X195453000Y-91186000D02*
X195707000Y-90932000D01*
D21*
X185463000Y-71875500D02*
X185456500Y-71882000D01*
D19*
X184912000Y-73152000D02*
X181319500Y-73152000D01*
X185456500Y-71882000D02*
X185456500Y-72607500D01*
X185456500Y-72607500D02*
X184912000Y-73152000D01*
D21*
X185456500Y-69813500D02*
X185456500Y-71882000D01*
X188384000Y-69149000D02*
X186121000Y-69149000D01*
X186121000Y-69149000D02*
X185456500Y-69813500D01*
D22*
X180721000Y-87884000D02*
X180721000Y-89154000D01*
X180721000Y-89154000D02*
X179705000Y-90170000D01*
X179705000Y-90170000D02*
X159385000Y-90170000D01*
X157988000Y-88773000D02*
X157988000Y-85852000D01*
X159385000Y-90170000D02*
X157988000Y-88773000D01*
X161798000Y-89408000D02*
X160528000Y-88138000D01*
X160528000Y-88138000D02*
X160528000Y-85852000D01*
X177927000Y-89408000D02*
X161798000Y-89408000D01*
X178181000Y-87884000D02*
X178181000Y-89154000D01*
X178181000Y-89154000D02*
X177927000Y-89408000D01*
X174879000Y-88646000D02*
X164338000Y-88646000D01*
X175641000Y-87884000D02*
X174879000Y-88646000D01*
X163068000Y-87376000D02*
X163068000Y-85852000D01*
X164338000Y-88646000D02*
X163068000Y-87376000D01*
X165608000Y-86868000D02*
X166624000Y-87884000D01*
X165608000Y-85852000D02*
X165608000Y-86868000D01*
X166624000Y-87884000D02*
X170561000Y-87884000D01*
X170561000Y-87884000D02*
X173101000Y-85344000D01*
X173101000Y-85344000D02*
X175641000Y-85344000D01*
X178181000Y-83566000D02*
X178181000Y-85344000D01*
X172593000Y-83185000D02*
X177800000Y-83185000D01*
X168148000Y-85852000D02*
X169926000Y-85852000D01*
X177800000Y-83185000D02*
X178181000Y-83566000D01*
X169926000Y-85852000D02*
X172593000Y-83185000D01*
D19*
X175402000Y-65151000D02*
X175396000Y-65157000D01*
X178344500Y-65151000D02*
X175402000Y-65151000D01*
X178344500Y-65151000D02*
X178344500Y-69088000D01*
X178344500Y-73152000D02*
X177292000Y-73152000D01*
X175396000Y-71256000D02*
X175396000Y-69717000D01*
X177292000Y-73152000D02*
X175396000Y-71256000D01*
D23*
G36*
X172360867Y-74549000D02*
G01*
X154895192Y-74549000D01*
X154851529Y-59080000D01*
X172317204Y-59080000D01*
X172360867Y-74549000D01*
G37*
X172360867Y-74549000D02*
X154895192Y-74549000D01*
X154851529Y-59080000D01*
X172317204Y-59080000D01*
X172360867Y-74549000D01*
M02*
