<?xml version="1.0" standalone="no"?>
 <!DOCTYPE svg PUBLIC "-//W3C//DTD SVG 1.1//EN" 
 "http://www.w3.org/Graphics/SVG/1.1/DTD/svg11.dtd"> 
<svg xmlns="http://www.w3.org/2000/svg" version="1.1" 
    width="29.7002cm" height="21.0007cm" viewBox="0 0 116930 82680 ">
<title>SVG Picture created as LED_Driver-UV_LED_Driver_Module4.svg date 2020/04/25 12:51:00 </title>
  <desc>Picture generated by Eeschema-SVG </desc>
<g style="fill:#000000; fill-opacity:1;stroke:#000000; stroke-opacity:1;
stroke-linecap:round; stroke-linejoin:round; "
 transform="translate(0 0) scale(1 1)">
</g>
<g style="fill:#000000; fill-opacity:0.0; 
stroke:#000000; stroke-width:-10; stroke-opacity:1; 
stroke-linecap:round; stroke-linejoin:round;">
</g>
<g style="fill:#840000; fill-opacity:0.0; 
stroke:#840000; stroke-width:-10; stroke-opacity:1; 
stroke-linecap:round; stroke-linejoin:round;">
</g>
<g style="fill:#840000; fill-opacity:0.0; 
stroke:#840000; stroke-width:100; stroke-opacity:1; 
stroke-linecap:round; stroke-linejoin:round;">
</g>
<g style="fill:#840000; fill-opacity:0.0; 
stroke:#840000; stroke-width:60; stroke-opacity:1; 
stroke-linecap:round; stroke-linejoin:round;">
<rect x="69690" y="65360" width="42520" height="12600" rx="0" />
</g>
<g style="fill:#840000; fill-opacity:0.0; 
stroke:#840000; stroke-width:100; stroke-opacity:1; 
stroke-linecap:round; stroke-linejoin:round;">
</g>
<g style="fill:#840000; fill-opacity:0.0; 
stroke:#840000; stroke-width:60; stroke-opacity:1; 
stroke-linecap:round; stroke-linejoin:round;">
<rect x="3940" y="3940" width="109050" height="74800" rx="0" />
</g>
<g style="fill:#840000; fill-opacity:0.0; 
stroke:#840000; stroke-width:100; stroke-opacity:1; 
stroke-linecap:round; stroke-linejoin:round;">
</g>
<g style="fill:#840000; fill-opacity:0.0; 
stroke:#840000; stroke-width:60; stroke-opacity:1; 
stroke-linecap:round; stroke-linejoin:round;">
<rect x="4720" y="4720" width="107490" height="73240" rx="0" />
</g>
<g style="fill:#840000; fill-opacity:0.0; 
stroke:#840000; stroke-width:100; stroke-opacity:1; 
stroke-linecap:round; stroke-linejoin:round;">
</g>
<g style="fill:#840000; fill-opacity:0.0; 
stroke:#840000; stroke-width:60; stroke-opacity:1; 
stroke-linecap:round; stroke-linejoin:round;">
<path d="M23620 4720
L23620 3940
" />
</g>
<g style="fill:#840000; fill-opacity:0.0; 
stroke:#840000; stroke-width:100; stroke-opacity:1; 
stroke-linecap:round; stroke-linejoin:round;">
</g>
<g style="fill:#840000; fill-opacity:0.0; 
stroke:#840000; stroke-width:60; stroke-opacity:1; 
stroke-linecap:round; stroke-linejoin:round;">
<path d="M43310 4720
L43310 3940
" />
</g>
<g style="fill:#840000; fill-opacity:0.0; 
stroke:#840000; stroke-width:100; stroke-opacity:1; 
stroke-linecap:round; stroke-linejoin:round;">
</g>
<g style="fill:#840000; fill-opacity:0.0; 
stroke:#840000; stroke-width:60; stroke-opacity:1; 
stroke-linecap:round; stroke-linejoin:round;">
<path d="M62990 4720
L62990 3940
" />
</g>
<g style="fill:#840000; fill-opacity:0.0; 
stroke:#840000; stroke-width:100; stroke-opacity:1; 
stroke-linecap:round; stroke-linejoin:round;">
</g>
<g style="fill:#840000; fill-opacity:0.0; 
stroke:#840000; stroke-width:60; stroke-opacity:1; 
stroke-linecap:round; stroke-linejoin:round;">
<path d="M82680 4720
L82680 3940
" />
</g>
<g style="fill:#840000; fill-opacity:0.0; 
stroke:#840000; stroke-width:100; stroke-opacity:1; 
stroke-linecap:round; stroke-linejoin:round;">
</g>
<g style="fill:#840000; fill-opacity:0.0; 
stroke:#840000; stroke-width:60; stroke-opacity:1; 
stroke-linecap:round; stroke-linejoin:round;">
<path d="M102360 4720
L102360 3940
" />
</g>
<g style="fill:#840000; fill-opacity:0.0; 
stroke:#840000; stroke-width:100; stroke-opacity:1; 
stroke-linecap:round; stroke-linejoin:round;">
</g>
<g style="fill:#840000; fill-opacity:0.0; 
stroke:#840000; stroke-width:60; stroke-opacity:1; 
stroke-linecap:round; stroke-linejoin:round;">
<text x="13780" y="4580"
textLength="550" font-size="680" lengthAdjust="spacingAndGlyphs"
text-anchor="start" opacity="0">1</text>
<path d="M14190 4560
L13900 4560
" />
<path d="M14050 4560
L14050 4050
L14000 4120
L13950 4170
L13900 4190
" />
</g>
<g style="fill:#840000; fill-opacity:0.0; 
stroke:#840000; stroke-width:100; stroke-opacity:1; 
stroke-linecap:round; stroke-linejoin:round;">
</g>
<g style="fill:#840000; fill-opacity:0.0; 
stroke:#840000; stroke-width:60; stroke-opacity:1; 
stroke-linecap:round; stroke-linejoin:round;">
<text x="33460" y="4580"
textLength="550" font-size="680" lengthAdjust="spacingAndGlyphs"
text-anchor="start" opacity="0">2</text>
<path d="M33580 4090
L33610 4070
L33660 4050
L33780 4050
L33830 4070
L33850 4090
L33870 4140
L33870 4190
L33850 4260
L33560 4560
L33870 4560
" />
</g>
<g style="fill:#840000; fill-opacity:0.0; 
stroke:#840000; stroke-width:100; stroke-opacity:1; 
stroke-linecap:round; stroke-linejoin:round;">
</g>
<g style="fill:#840000; fill-opacity:0.0; 
stroke:#840000; stroke-width:60; stroke-opacity:1; 
stroke-linecap:round; stroke-linejoin:round;">
<text x="53150" y="4580"
textLength="550" font-size="680" lengthAdjust="spacingAndGlyphs"
text-anchor="start" opacity="0">3</text>
<path d="M53250 4050
L53560 4050
L53390 4240
L53470 4240
L53520 4260
L53540 4290
L53560 4340
L53560 4460
L53540 4510
L53520 4530
L53470 4560
L53320 4560
L53270 4530
L53250 4510
" />
</g>
<g style="fill:#840000; fill-opacity:0.0; 
stroke:#840000; stroke-width:100; stroke-opacity:1; 
stroke-linecap:round; stroke-linejoin:round;">
</g>
<g style="fill:#840000; fill-opacity:0.0; 
stroke:#840000; stroke-width:60; stroke-opacity:1; 
stroke-linecap:round; stroke-linejoin:round;">
<text x="72830" y="4580"
textLength="550" font-size="680" lengthAdjust="spacingAndGlyphs"
text-anchor="start" opacity="0">4</text>
<path d="M73200 4220
L73200 4560
" />
<path d="M73070 4020
L72950 4390
L73270 4390
" />
</g>
<g style="fill:#840000; fill-opacity:0.0; 
stroke:#840000; stroke-width:100; stroke-opacity:1; 
stroke-linecap:round; stroke-linejoin:round;">
</g>
<g style="fill:#840000; fill-opacity:0.0; 
stroke:#840000; stroke-width:60; stroke-opacity:1; 
stroke-linecap:round; stroke-linejoin:round;">
<text x="92520" y="4580"
textLength="550" font-size="680" lengthAdjust="spacingAndGlyphs"
text-anchor="start" opacity="0">5</text>
<path d="M92910 4050
L92670 4050
L92640 4290
L92670 4260
L92720 4240
L92840 4240
L92890 4260
L92910 4290
L92930 4340
L92930 4460
L92910 4510
L92890 4530
L92840 4560
L92720 4560
L92670 4530
L92640 4510
" />
</g>
<g style="fill:#840000; fill-opacity:0.0; 
stroke:#840000; stroke-width:100; stroke-opacity:1; 
stroke-linecap:round; stroke-linejoin:round;">
</g>
<g style="fill:#840000; fill-opacity:0.0; 
stroke:#840000; stroke-width:60; stroke-opacity:1; 
stroke-linecap:round; stroke-linejoin:round;">
<text x="112200" y="4580"
textLength="550" font-size="680" lengthAdjust="spacingAndGlyphs"
text-anchor="start" opacity="0">6</text>
<path d="M112570 4050
L112470 4050
L112420 4070
L112400 4090
L112350 4170
L112320 4260
L112320 4460
L112350 4510
L112370 4530
L112420 4560
L112520 4560
L112570 4530
L112590 4510
L112610 4460
L112610 4340
L112590 4290
L112570 4260
L112520 4240
L112420 4240
L112370 4260
L112350 4290
L112320 4340
" />
</g>
<g style="fill:#840000; fill-opacity:0.0; 
stroke:#840000; stroke-width:100; stroke-opacity:1; 
stroke-linecap:round; stroke-linejoin:round;">
</g>
<g style="fill:#840000; fill-opacity:0.0; 
stroke:#840000; stroke-width:60; stroke-opacity:1; 
stroke-linecap:round; stroke-linejoin:round;">
<path d="M23620 77960
L23620 78740
" />
</g>
<g style="fill:#840000; fill-opacity:0.0; 
stroke:#840000; stroke-width:100; stroke-opacity:1; 
stroke-linecap:round; stroke-linejoin:round;">
</g>
<g style="fill:#840000; fill-opacity:0.0; 
stroke:#840000; stroke-width:60; stroke-opacity:1; 
stroke-linecap:round; stroke-linejoin:round;">
<path d="M43310 77960
L43310 78740
" />
</g>
<g style="fill:#840000; fill-opacity:0.0; 
stroke:#840000; stroke-width:100; stroke-opacity:1; 
stroke-linecap:round; stroke-linejoin:round;">
</g>
<g style="fill:#840000; fill-opacity:0.0; 
stroke:#840000; stroke-width:60; stroke-opacity:1; 
stroke-linecap:round; stroke-linejoin:round;">
<path d="M62990 77960
L62990 78740
" />
</g>
<g style="fill:#840000; fill-opacity:0.0; 
stroke:#840000; stroke-width:100; stroke-opacity:1; 
stroke-linecap:round; stroke-linejoin:round;">
</g>
<g style="fill:#840000; fill-opacity:0.0; 
stroke:#840000; stroke-width:60; stroke-opacity:1; 
stroke-linecap:round; stroke-linejoin:round;">
<path d="M82680 77960
L82680 78740
" />
</g>
<g style="fill:#840000; fill-opacity:0.0; 
stroke:#840000; stroke-width:100; stroke-opacity:1; 
stroke-linecap:round; stroke-linejoin:round;">
</g>
<g style="fill:#840000; fill-opacity:0.0; 
stroke:#840000; stroke-width:60; stroke-opacity:1; 
stroke-linecap:round; stroke-linejoin:round;">
<path d="M102360 77960
L102360 78740
" />
</g>
<g style="fill:#840000; fill-opacity:0.0; 
stroke:#840000; stroke-width:100; stroke-opacity:1; 
stroke-linecap:round; stroke-linejoin:round;">
</g>
<g style="fill:#840000; fill-opacity:0.0; 
stroke:#840000; stroke-width:60; stroke-opacity:1; 
stroke-linecap:round; stroke-linejoin:round;">
<text x="13780" y="78600"
textLength="550" font-size="680" lengthAdjust="spacingAndGlyphs"
text-anchor="start" opacity="0">1</text>
<path d="M14190 78580
L13900 78580
" />
<path d="M14050 78580
L14050 78070
L14000 78140
L13950 78190
L13900 78210
" />
</g>
<g style="fill:#840000; fill-opacity:0.0; 
stroke:#840000; stroke-width:100; stroke-opacity:1; 
stroke-linecap:round; stroke-linejoin:round;">
</g>
<g style="fill:#840000; fill-opacity:0.0; 
stroke:#840000; stroke-width:60; stroke-opacity:1; 
stroke-linecap:round; stroke-linejoin:round;">
<text x="33460" y="78600"
textLength="550" font-size="680" lengthAdjust="spacingAndGlyphs"
text-anchor="start" opacity="0">2</text>
<path d="M33580 78110
L33610 78090
L33660 78070
L33780 78070
L33830 78090
L33850 78110
L33870 78160
L33870 78210
L33850 78280
L33560 78580
L33870 78580
" />
</g>
<g style="fill:#840000; fill-opacity:0.0; 
stroke:#840000; stroke-width:100; stroke-opacity:1; 
stroke-linecap:round; stroke-linejoin:round;">
</g>
<g style="fill:#840000; fill-opacity:0.0; 
stroke:#840000; stroke-width:60; stroke-opacity:1; 
stroke-linecap:round; stroke-linejoin:round;">
<text x="53150" y="78600"
textLength="550" font-size="680" lengthAdjust="spacingAndGlyphs"
text-anchor="start" opacity="0">3</text>
<path d="M53250 78070
L53560 78070
L53390 78260
L53470 78260
L53520 78280
L53540 78310
L53560 78360
L53560 78480
L53540 78530
L53520 78550
L53470 78580
L53320 78580
L53270 78550
L53250 78530
" />
</g>
<g style="fill:#840000; fill-opacity:0.0; 
stroke:#840000; stroke-width:100; stroke-opacity:1; 
stroke-linecap:round; stroke-linejoin:round;">
</g>
<g style="fill:#840000; fill-opacity:0.0; 
stroke:#840000; stroke-width:60; stroke-opacity:1; 
stroke-linecap:round; stroke-linejoin:round;">
<text x="72830" y="78600"
textLength="550" font-size="680" lengthAdjust="spacingAndGlyphs"
text-anchor="start" opacity="0">4</text>
<path d="M73200 78240
L73200 78580
" />
<path d="M73070 78040
L72950 78410
L73270 78410
" />
</g>
<g style="fill:#840000; fill-opacity:0.0; 
stroke:#840000; stroke-width:100; stroke-opacity:1; 
stroke-linecap:round; stroke-linejoin:round;">
</g>
<g style="fill:#840000; fill-opacity:0.0; 
stroke:#840000; stroke-width:60; stroke-opacity:1; 
stroke-linecap:round; stroke-linejoin:round;">
<text x="92520" y="78600"
textLength="550" font-size="680" lengthAdjust="spacingAndGlyphs"
text-anchor="start" opacity="0">5</text>
<path d="M92910 78070
L92670 78070
L92640 78310
L92670 78280
L92720 78260
L92840 78260
L92890 78280
L92910 78310
L92930 78360
L92930 78480
L92910 78530
L92890 78550
L92840 78580
L92720 78580
L92670 78550
L92640 78530
" />
</g>
<g style="fill:#840000; fill-opacity:0.0; 
stroke:#840000; stroke-width:100; stroke-opacity:1; 
stroke-linecap:round; stroke-linejoin:round;">
</g>
<g style="fill:#840000; fill-opacity:0.0; 
stroke:#840000; stroke-width:60; stroke-opacity:1; 
stroke-linecap:round; stroke-linejoin:round;">
<text x="112200" y="78600"
textLength="550" font-size="680" lengthAdjust="spacingAndGlyphs"
text-anchor="start" opacity="0">6</text>
<path d="M112570 78070
L112470 78070
L112420 78090
L112400 78110
L112350 78190
L112320 78280
L112320 78480
L112350 78530
L112370 78550
L112420 78580
L112520 78580
L112570 78550
L112590 78530
L112610 78480
L112610 78360
L112590 78310
L112570 78280
L112520 78260
L112420 78260
L112370 78280
L112350 78310
L112320 78360
" />
</g>
<g style="fill:#840000; fill-opacity:0.0; 
stroke:#840000; stroke-width:100; stroke-opacity:1; 
stroke-linecap:round; stroke-linejoin:round;">
</g>
<g style="fill:#840000; fill-opacity:0.0; 
stroke:#840000; stroke-width:60; stroke-opacity:1; 
stroke-linecap:round; stroke-linejoin:round;">
<path d="M3940 23620
L4720 23620
" />
</g>
<g style="fill:#840000; fill-opacity:0.0; 
stroke:#840000; stroke-width:100; stroke-opacity:1; 
stroke-linecap:round; stroke-linejoin:round;">
</g>
<g style="fill:#840000; fill-opacity:0.0; 
stroke:#840000; stroke-width:60; stroke-opacity:1; 
stroke-linecap:round; stroke-linejoin:round;">
<path d="M3940 43310
L4720 43310
" />
</g>
<g style="fill:#840000; fill-opacity:0.0; 
stroke:#840000; stroke-width:100; stroke-opacity:1; 
stroke-linecap:round; stroke-linejoin:round;">
</g>
<g style="fill:#840000; fill-opacity:0.0; 
stroke:#840000; stroke-width:60; stroke-opacity:1; 
stroke-linecap:round; stroke-linejoin:round;">
<path d="M3940 62990
L4720 62990
" />
</g>
<g style="fill:#840000; fill-opacity:0.0; 
stroke:#840000; stroke-width:100; stroke-opacity:1; 
stroke-linecap:round; stroke-linejoin:round;">
</g>
<g style="fill:#840000; fill-opacity:0.0; 
stroke:#840000; stroke-width:60; stroke-opacity:1; 
stroke-linecap:round; stroke-linejoin:round;">
<text x="4330" y="14030"
textLength="500" font-size="680" lengthAdjust="spacingAndGlyphs"
text-anchor="middle" opacity="0">A</text>
<path d="M4200 13860
L4450 13860
" />
<path d="M4160 14010
L4330 13500
L4500 14010
" />
</g>
<g style="fill:#840000; fill-opacity:0.0; 
stroke:#840000; stroke-width:100; stroke-opacity:1; 
stroke-linecap:round; stroke-linejoin:round;">
</g>
<g style="fill:#840000; fill-opacity:0.0; 
stroke:#840000; stroke-width:60; stroke-opacity:1; 
stroke-linecap:round; stroke-linejoin:round;">
<text x="4330" y="33710"
textLength="570" font-size="680" lengthAdjust="spacingAndGlyphs"
text-anchor="middle" opacity="0">B</text>
<path d="M4360 33420
L4430 33440
L4460 33470
L4480 33520
L4480 33590
L4460 33640
L4430 33660
L4390 33690
L4190 33690
L4190 33180
L4360 33180
L4410 33200
L4430 33220
L4460 33270
L4460 33320
L4430 33370
L4410 33390
L4360 33420
L4190 33420
" />
</g>
<g style="fill:#840000; fill-opacity:0.0; 
stroke:#840000; stroke-width:100; stroke-opacity:1; 
stroke-linecap:round; stroke-linejoin:round;">
</g>
<g style="fill:#840000; fill-opacity:0.0; 
stroke:#840000; stroke-width:60; stroke-opacity:1; 
stroke-linecap:round; stroke-linejoin:round;">
<text x="4330" y="53400"
textLength="570" font-size="680" lengthAdjust="spacingAndGlyphs"
text-anchor="middle" opacity="0">C</text>
<path d="M4480 53330
L4460 53350
L4390 53380
L4340 53380
L4260 53350
L4220 53300
L4190 53250
L4170 53160
L4170 53080
L4190 52990
L4220 52940
L4260 52890
L4340 52870
L4390 52870
L4460 52890
L4480 52910
" />
</g>
<g style="fill:#840000; fill-opacity:0.0; 
stroke:#840000; stroke-width:100; stroke-opacity:1; 
stroke-linecap:round; stroke-linejoin:round;">
</g>
<g style="fill:#840000; fill-opacity:0.0; 
stroke:#840000; stroke-width:60; stroke-opacity:1; 
stroke-linecap:round; stroke-linejoin:round;">
<text x="4330" y="73080"
textLength="570" font-size="680" lengthAdjust="spacingAndGlyphs"
text-anchor="middle" opacity="0">D</text>
<path d="M4190 73060
L4190 72550
L4310 72550
L4390 72570
L4430 72620
L4460 72670
L4480 72760
L4480 72840
L4460 72930
L4430 72980
L4390 73030
L4310 73060
L4190 73060
" />
</g>
<g style="fill:#840000; fill-opacity:0.0; 
stroke:#840000; stroke-width:100; stroke-opacity:1; 
stroke-linecap:round; stroke-linejoin:round;">
</g>
<g style="fill:#840000; fill-opacity:0.0; 
stroke:#840000; stroke-width:60; stroke-opacity:1; 
stroke-linecap:round; stroke-linejoin:round;">
<path d="M112990 23620
L112210 23620
" />
</g>
<g style="fill:#840000; fill-opacity:0.0; 
stroke:#840000; stroke-width:100; stroke-opacity:1; 
stroke-linecap:round; stroke-linejoin:round;">
</g>
<g style="fill:#840000; fill-opacity:0.0; 
stroke:#840000; stroke-width:60; stroke-opacity:1; 
stroke-linecap:round; stroke-linejoin:round;">
<path d="M112990 43310
L112210 43310
" />
</g>
<g style="fill:#840000; fill-opacity:0.0; 
stroke:#840000; stroke-width:100; stroke-opacity:1; 
stroke-linecap:round; stroke-linejoin:round;">
</g>
<g style="fill:#840000; fill-opacity:0.0; 
stroke:#840000; stroke-width:60; stroke-opacity:1; 
stroke-linecap:round; stroke-linejoin:round;">
<path d="M112990 62990
L112210 62990
" />
</g>
<g style="fill:#840000; fill-opacity:0.0; 
stroke:#840000; stroke-width:100; stroke-opacity:1; 
stroke-linecap:round; stroke-linejoin:round;">
</g>
<g style="fill:#840000; fill-opacity:0.0; 
stroke:#840000; stroke-width:60; stroke-opacity:1; 
stroke-linecap:round; stroke-linejoin:round;">
<text x="112600" y="14030"
textLength="500" font-size="680" lengthAdjust="spacingAndGlyphs"
text-anchor="middle" opacity="0">A</text>
<path d="M112470 13860
L112720 13860
" />
<path d="M112430 14010
L112600 13500
L112770 14010
" />
</g>
<g style="fill:#840000; fill-opacity:0.0; 
stroke:#840000; stroke-width:100; stroke-opacity:1; 
stroke-linecap:round; stroke-linejoin:round;">
</g>
<g style="fill:#840000; fill-opacity:0.0; 
stroke:#840000; stroke-width:60; stroke-opacity:1; 
stroke-linecap:round; stroke-linejoin:round;">
<text x="112600" y="33710"
textLength="570" font-size="680" lengthAdjust="spacingAndGlyphs"
text-anchor="middle" opacity="0">B</text>
<path d="M112630 33420
L112700 33440
L112730 33470
L112750 33520
L112750 33590
L112730 33640
L112700 33660
L112660 33690
L112460 33690
L112460 33180
L112630 33180
L112680 33200
L112700 33220
L112730 33270
L112730 33320
L112700 33370
L112680 33390
L112630 33420
L112460 33420
" />
</g>
<g style="fill:#840000; fill-opacity:0.0; 
stroke:#840000; stroke-width:100; stroke-opacity:1; 
stroke-linecap:round; stroke-linejoin:round;">
</g>
<g style="fill:#840000; fill-opacity:0.0; 
stroke:#840000; stroke-width:60; stroke-opacity:1; 
stroke-linecap:round; stroke-linejoin:round;">
<text x="112600" y="53400"
textLength="570" font-size="680" lengthAdjust="spacingAndGlyphs"
text-anchor="middle" opacity="0">C</text>
<path d="M112750 53330
L112730 53350
L112660 53380
L112610 53380
L112530 53350
L112490 53300
L112460 53250
L112440 53160
L112440 53080
L112460 52990
L112490 52940
L112530 52890
L112610 52870
L112660 52870
L112730 52890
L112750 52910
" />
</g>
<g style="fill:#840000; fill-opacity:0.0; 
stroke:#840000; stroke-width:100; stroke-opacity:1; 
stroke-linecap:round; stroke-linejoin:round;">
</g>
<g style="fill:#840000; fill-opacity:0.0; 
stroke:#840000; stroke-width:60; stroke-opacity:1; 
stroke-linecap:round; stroke-linejoin:round;">
<text x="112600" y="73080"
textLength="570" font-size="680" lengthAdjust="spacingAndGlyphs"
text-anchor="middle" opacity="0">D</text>
<path d="M112460 73060
L112460 72550
L112580 72550
L112660 72570
L112700 72620
L112730 72670
L112750 72760
L112750 72840
L112730 72930
L112700 72980
L112660 73030
L112580 73060
L112460 73060
" />
</g>
<g style="fill:#840000; fill-opacity:0.0; 
stroke:#840000; stroke-width:100; stroke-opacity:1; 
stroke-linecap:round; stroke-linejoin:round;">
</g>
<g style="fill:#840000; fill-opacity:0.0; 
stroke:#840000; stroke-width:60; stroke-opacity:1; 
stroke-linecap:round; stroke-linejoin:round;">
<text x="78740" y="76320"
textLength="2760" font-size="780" lengthAdjust="spacingAndGlyphs"
text-anchor="start" opacity="0">Date: </text>
<path d="M78910 76290
L78910 75700
L79050 75700
L79130 75730
L79190 75790
L79210 75840
L79240 75950
L79240 76040
L79210 76150
L79190 76210
L79130 76260
L79050 76290
L78910 76290
" />
<path d="M79750 76290
L79750 75980
L79720 75930
L79660 75900
L79550 75900
L79500 75930
" />
<path d="M79750 76260
L79690 76290
L79550 76290
L79500 76260
L79470 76210
L79470 76150
L79500 76100
L79550 76070
L79690 76070
L79750 76040
" />
<path d="M79950 75900
L80170 75900
" />
<path d="M80030 75700
L80030 76210
L80060 76260
L80110 76290
L80170 76290
" />
<path d="M80590 76260
L80540 76290
L80420 76290
L80370 76260
L80340 76210
L80340 75980
L80370 75930
L80420 75900
L80540 75900
L80590 75930
L80620 75980
L80620 76040
L80340 76100
" />
<path d="M80870 76240
L80900 76260
L80870 76290
L80840 76260
L80870 76240
L80870 76290
" />
<path d="M80870 75930
L80900 75950
L80870 75980
L80840 75950
L80870 75930
L80870 75980
" />
</g>
<g style="fill:#840000; fill-opacity:0.0; 
stroke:#840000; stroke-width:100; stroke-opacity:1; 
stroke-linecap:round; stroke-linejoin:round;">
</g>
<g style="fill:#840000; fill-opacity:0.0; 
stroke:#840000; stroke-width:60; stroke-opacity:1; 
stroke-linecap:round; stroke-linejoin:round;">
<path d="M69690 76580
L112210 76580
" />
</g>
<g style="fill:#840000; fill-opacity:0.0; 
stroke:#840000; stroke-width:100; stroke-opacity:1; 
stroke-linecap:round; stroke-linejoin:round;">
</g>
<g style="fill:#840000; fill-opacity:0.0; 
stroke:#840000; stroke-width:60; stroke-opacity:1; 
stroke-linecap:round; stroke-linejoin:round;">
<text x="70080" y="77420"
textLength="23550" font-size="780" lengthAdjust="spacingAndGlyphs"
text-anchor="start" opacity="0">KiCad E.D.A.  kicad 5.1.5-52549c5~86~ubuntu18.04.1</text>
<path d="M70250 77390
L70250 76800
" />
<path d="M70580 77390
L70330 77050
" />
<path d="M70580 76800
L70250 77140
" />
<path d="M70840 77390
L70840 77000
" />
<path d="M70840 76800
L70810 76830
L70840 76860
L70860 76830
L70840 76800
L70840 76860
" />
<path d="M71450 77340
L71430 77360
L71340 77390
L71290 77390
L71200 77360
L71140 77310
L71120 77250
L71090 77140
L71090 77050
L71120 76940
L71140 76890
L71200 76830
L71290 76800
L71340 76800
L71430 76830
L71450 76860
" />
<path d="M71960 77390
L71960 77080
L71930 77030
L71880 77000
L71760 77000
L71710 77030
" />
<path d="M71960 77360
L71900 77390
L71760 77390
L71710 77360
L71680 77310
L71680 77250
L71710 77200
L71760 77170
L71900 77170
L71960 77140
" />
<path d="M72490 77390
L72490 76800
" />
<path d="M72490 77360
L72440 77390
L72320 77390
L72270 77360
L72240 77340
L72210 77280
L72210 77110
L72240 77050
L72270 77030
L72320 77000
L72440 77000
L72490 77030
" />
<path d="M73220 77080
L73420 77080
" />
<path d="M73500 77390
L73220 77390
L73220 76800
L73500 76800
" />
<path d="M73760 77340
L73790 77360
L73760 77390
L73730 77360
L73760 77340
L73760 77390
" />
<path d="M74040 77390
L74040 76800
L74180 76800
L74260 76830
L74320 76890
L74350 76940
L74380 77050
L74380 77140
L74350 77250
L74320 77310
L74260 77360
L74180 77390
L74040 77390
" />
<path d="M74630 77340
L74660 77360
L74630 77390
L74600 77360
L74630 77340
L74630 77390
" />
<path d="M74880 77220
L75160 77220
" />
<path d="M74830 77390
L75020 76800
L75220 77390
" />
<path d="M75420 77340
L75440 77360
L75420 77390
L75390 77360
L75420 77340
L75420 77390
" />
<path d="M76600 77390
L76600 76800
" />
<path d="M76650 77170
L76820 77390
" />
<path d="M76820 77000
L76600 77220
" />
<path d="M77070 77390
L77070 77000
" />
<path d="M77070 76800
L77040 76830
L77070 76860
L77100 76830
L77070 76800
L77070 76860
" />
<path d="M77610 77360
L77550 77390
L77440 77390
L77380 77360
L77350 77340
L77330 77280
L77330 77110
L77350 77050
L77380 77030
L77440 77000
L77550 77000
L77610 77030
" />
<path d="M78110 77390
L78110 77080
L78080 77030
L78030 77000
L77920 77000
L77860 77030
" />
<path d="M78110 77360
L78060 77390
L77920 77390
L77860 77360
L77830 77310
L77830 77250
L77860 77200
L77920 77170
L78060 77170
L78110 77140
" />
<path d="M78650 77390
L78650 76800
" />
<path d="M78650 77360
L78590 77390
L78480 77390
L78420 77360
L78390 77340
L78370 77280
L78370 77110
L78390 77050
L78420 77030
L78480 77000
L78590 77000
L78650 77030
" />
<path d="M79660 76800
L79380 76800
L79350 77080
L79380 77050
L79430 77030
L79570 77030
L79630 77050
L79660 77080
L79690 77140
L79690 77280
L79660 77340
L79630 77360
L79570 77390
L79430 77390
L79380 77360
L79350 77340
" />
<path d="M79940 77340
L79970 77360
L79940 77390
L79910 77360
L79940 77340
L79940 77390
" />
<path d="M80530 77390
L80190 77390
" />
<path d="M80360 77390
L80360 76800
L80300 76890
L80250 76940
L80190 76970
" />
<path d="M80780 77340
L80810 77360
L80780 77390
L80750 77360
L80780 77340
L80780 77390
" />
<path d="M81340 76800
L81060 76800
L81030 77080
L81060 77050
L81120 77030
L81260 77030
L81320 77050
L81340 77080
L81370 77140
L81370 77280
L81340 77340
L81320 77360
L81260 77390
L81120 77390
L81060 77360
L81030 77340
" />
<path d="M81620 77170
L82070 77170
" />
<path d="M82640 76800
L82350 76800
L82330 77080
L82350 77050
L82410 77030
L82550 77030
L82610 77050
L82640 77080
L82660 77140
L82660 77280
L82640 77340
L82610 77360
L82550 77390
L82410 77390
L82350 77360
L82330 77340
" />
<path d="M82890 76860
L82920 76830
L82970 76800
L83110 76800
L83170 76830
L83200 76860
L83230 76910
L83230 76970
L83200 77050
L82860 77390
L83230 77390
" />
<path d="M83760 76800
L83480 76800
L83450 77080
L83480 77050
L83530 77030
L83680 77030
L83730 77050
L83760 77080
L83790 77140
L83790 77280
L83760 77340
L83730 77360
L83680 77390
L83530 77390
L83480 77360
L83450 77340
" />
<path d="M84290 77000
L84290 77390
" />
<path d="M84150 76770
L84010 77200
L84380 77200
" />
<path d="M84630 77390
L84740 77390
L84800 77360
L84830 77340
L84880 77250
L84910 77140
L84910 76910
L84880 76860
L84860 76830
L84800 76800
L84690 76800
L84630 76830
L84600 76860
L84570 76910
L84570 77050
L84600 77110
L84630 77140
L84690 77170
L84800 77170
L84860 77140
L84880 77110
L84910 77050
" />
<path d="M85420 77360
L85360 77390
L85250 77390
L85190 77360
L85160 77340
L85140 77280
L85140 77110
L85160 77050
L85190 77030
L85250 77000
L85360 77000
L85420 77030
" />
<path d="M85950 76800
L85670 76800
L85640 77080
L85670 77050
L85730 77030
L85870 77030
L85920 77050
L85950 77080
L85980 77140
L85980 77280
L85950 77340
L85920 77360
L85870 77390
L85730 77390
L85670 77360
L85640 77340
" />
<path d="M86090 76640
L86650 76640
" />
<path d="M86320 77050
L86260 77030
L86230 77000
L86200 76940
L86200 76910
L86230 76860
L86260 76830
L86320 76800
L86430 76800
L86480 76830
L86510 76860
L86540 76910
L86540 76940
L86510 77000
L86480 77030
L86430 77050
L86320 77050
L86260 77080
L86230 77110
L86200 77170
L86200 77280
L86230 77340
L86260 77360
L86320 77390
L86430 77390
L86480 77360
L86510 77340
L86540 77280
L86540 77170
L86510 77110
L86480 77080
L86430 77050
" />
<path d="M86650 76640
L87220 76640
" />
<path d="M87050 76800
L86930 76800
L86880 76830
L86850 76860
L86790 76940
L86770 77050
L86770 77280
L86790 77340
L86820 77360
L86880 77390
L86990 77390
L87050 77360
L87070 77340
L87100 77280
L87100 77140
L87070 77080
L87050 77050
L86990 77030
L86880 77030
L86820 77050
L86790 77080
L86770 77140
" />
<path d="M87610 77000
L87610 77390
" />
<path d="M87360 77000
L87360 77310
L87380 77360
L87440 77390
L87520 77390
L87580 77360
L87610 77340
" />
<path d="M87890 77390
L87890 76800
" />
<path d="M87890 77030
L87950 77000
L88060 77000
L88110 77030
L88140 77050
L88170 77110
L88170 77280
L88140 77340
L88110 77360
L88060 77390
L87950 77390
L87890 77360
" />
<path d="M88680 77000
L88680 77390
" />
<path d="M88420 77000
L88420 77310
L88450 77360
L88510 77390
L88590 77390
L88650 77360
L88680 77340
" />
<path d="M88960 77000
L88960 77390
" />
<path d="M88960 77050
L88990 77030
L89040 77000
L89130 77000
L89180 77030
L89210 77080
L89210 77390
" />
<path d="M89410 77000
L89630 77000
" />
<path d="M89490 76800
L89490 77310
L89520 77360
L89580 77390
L89630 77390
" />
<path d="M90080 77000
L90080 77390
" />
<path d="M89830 77000
L89830 77310
L89860 77360
L89910 77390
L90000 77390
L90050 77360
L90080 77340
" />
<path d="M90670 77390
L90330 77390
" />
<path d="M90500 77390
L90500 76800
L90450 76890
L90390 76940
L90330 76970
" />
<path d="M91010 77050
L90950 77030
L90920 77000
L90900 76940
L90900 76910
L90920 76860
L90950 76830
L91010 76800
L91120 76800
L91180 76830
L91200 76860
L91230 76910
L91230 76940
L91200 77000
L91180 77030
L91120 77050
L91010 77050
L90950 77080
L90920 77110
L90900 77170
L90900 77280
L90920 77340
L90950 77360
L91010 77390
L91120 77390
L91180 77360
L91200 77340
L91230 77280
L91230 77170
L91200 77110
L91180 77080
L91120 77050
" />
<path d="M91490 77340
L91510 77360
L91490 77390
L91460 77360
L91490 77340
L91490 77390
" />
<path d="M91880 76800
L91940 76800
L91990 76830
L92020 76860
L92050 76910
L92080 77030
L92080 77170
L92050 77280
L92020 77340
L91990 77360
L91940 77390
L91880 77390
L91820 77360
L91790 77340
L91770 77280
L91740 77170
L91740 77030
L91770 76910
L91790 76860
L91820 76830
L91880 76800
" />
<path d="M92580 77000
L92580 77390
" />
<path d="M92440 76770
L92300 77200
L92670 77200
" />
<path d="M92890 77340
L92920 77360
L92890 77390
L92860 77360
L92890 77340
L92890 77390
" />
<path d="M93480 77390
L93140 77390
" />
<path d="M93310 77390
L93310 76800
L93260 76890
L93200 76940
L93140 76970
" />
</g>
<g style="fill:#840000; fill-opacity:0.0; 
stroke:#840000; stroke-width:100; stroke-opacity:1; 
stroke-linecap:round; stroke-linejoin:round;">
</g>
<g style="fill:#840000; fill-opacity:0.0; 
stroke:#840000; stroke-width:60; stroke-opacity:1; 
stroke-linecap:round; stroke-linejoin:round;">
<path d="M69690 75400
L112210 75400
" />
</g>
<g style="fill:#840000; fill-opacity:0.0; 
stroke:#840000; stroke-width:100; stroke-opacity:1; 
stroke-linecap:round; stroke-linejoin:round;">
</g>
<g style="fill:#840000; fill-opacity:0.0; 
stroke:#840000; stroke-width:120; stroke-opacity:1; 
stroke-linecap:round; stroke-linejoin:round;">
<text x="103540" y="76320"
textLength="2340" font-size="780" lengthAdjust="spacingAndGlyphs"
text-anchor="start" opacity="0">Rev: </text>
<path d="M104090 76290
L103890 76010
" />
<path d="M103750 76290
L103750 75700
L103980 75700
L104030 75730
L104060 75760
L104090 75810
L104090 75900
L104060 75950
L104030 75980
L103980 76010
L103750 76010
" />
<path d="M104570 76260
L104510 76290
L104400 76290
L104340 76260
L104320 76210
L104320 75980
L104340 75930
L104400 75900
L104510 75900
L104570 75930
L104600 75980
L104600 76040
L104320 76100
" />
<path d="M104790 75900
L104930 76290
L105070 75900
" />
<path d="M105300 76240
L105330 76260
L105300 76290
L105270 76260
L105300 76240
L105300 76290
" />
<path d="M105300 75930
L105330 75950
L105300 75980
L105270 75950
L105300 75930
L105300 75980
" />
</g>
<g style="fill:#840000; fill-opacity:0.0; 
stroke:#840000; stroke-width:100; stroke-opacity:1; 
stroke-linecap:round; stroke-linejoin:round;">
</g>
<g style="fill:#840000; fill-opacity:0.0; 
stroke:#840000; stroke-width:60; stroke-opacity:1; 
stroke-linecap:round; stroke-linejoin:round;">
<text x="70080" y="76320"
textLength="3780" font-size="780" lengthAdjust="spacingAndGlyphs"
text-anchor="start" opacity="0">Size: A4</text>
<path d="M70220 76260
L70300 76290
L70440 76290
L70500 76260
L70530 76240
L70550 76180
L70550 76120
L70530 76070
L70500 76040
L70440 76010
L70330 75980
L70270 75950
L70250 75930
L70220 75870
L70220 75810
L70250 75760
L70270 75730
L70330 75700
L70470 75700
L70550 75730
" />
<path d="M70810 76290
L70810 75900
" />
<path d="M70810 75700
L70780 75730
L70810 75760
L70840 75730
L70810 75700
L70810 75760
" />
<path d="M71030 75900
L71340 75900
L71030 76290
L71340 76290
" />
<path d="M71790 76260
L71730 76290
L71620 76290
L71570 76260
L71540 76210
L71540 75980
L71570 75930
L71620 75900
L71730 75900
L71790 75930
L71820 75980
L71820 76040
L71540 76100
" />
<path d="M72070 76240
L72100 76260
L72070 76290
L72040 76260
L72070 76240
L72070 76290
" />
<path d="M72070 75930
L72100 75950
L72070 75980
L72040 75950
L72070 75930
L72070 75980
" />
<path d="M72770 76120
L73060 76120
" />
<path d="M72720 76290
L72910 75700
L73110 76290
" />
<path d="M73560 75900
L73560 76290
" />
<path d="M73420 75670
L73280 76100
L73650 76100
" />
</g>
<g style="fill:#840000; fill-opacity:0.0; 
stroke:#840000; stroke-width:100; stroke-opacity:1; 
stroke-linecap:round; stroke-linejoin:round;">
</g>
<g style="fill:#840000; fill-opacity:0.0; 
stroke:#840000; stroke-width:60; stroke-opacity:1; 
stroke-linecap:round; stroke-linejoin:round;">
<text x="103540" y="77420"
textLength="3350" font-size="780" lengthAdjust="spacingAndGlyphs"
text-anchor="start" opacity="0">Id: 4/7</text>
<path d="M103710 77390
L103710 76800
" />
<path d="M104240 77390
L104240 76800
" />
<path d="M104240 77360
L104180 77390
L104070 77390
L104010 77360
L103990 77340
L103960 77280
L103960 77110
L103990 77050
L104010 77030
L104070 77000
L104180 77000
L104240 77030
" />
<path d="M104520 77340
L104550 77360
L104520 77390
L104490 77360
L104520 77340
L104520 77390
" />
<path d="M104520 77030
L104550 77050
L104520 77080
L104490 77050
L104520 77030
L104520 77080
" />
<path d="M105500 77000
L105500 77390
" />
<path d="M105360 76770
L105220 77200
L105590 77200
" />
<path d="M106230 76770
L105730 77530
" />
<path d="M106370 76800
L106770 76800
L106520 77390
" />
</g>
<g style="fill:#840000; fill-opacity:0.0; 
stroke:#840000; stroke-width:100; stroke-opacity:1; 
stroke-linecap:round; stroke-linejoin:round;">
</g>
<g style="fill:#840000; fill-opacity:0.0; 
stroke:#840000; stroke-width:60; stroke-opacity:1; 
stroke-linecap:round; stroke-linejoin:round;">
<path d="M69690 73820
L112210 73820
" />
</g>
<g style="fill:#840000; fill-opacity:0.0; 
stroke:#840000; stroke-width:100; stroke-opacity:1; 
stroke-linecap:round; stroke-linejoin:round;">
</g>
<g style="fill:#840000; fill-opacity:0.0; 
stroke:#840000; stroke-width:160; stroke-opacity:1; 
stroke-linecap:round; stroke-linejoin:round;">
<text x="70080" y="74920"
textLength="3710" font-size="1050" lengthAdjust="spacingAndGlyphs"
text-anchor="start" opacity="0">Title: </text>
<path d="M70360 74090
L70810 74090
" />
<path d="M70480 74880
L70580 74090
" />
<path d="M70970 74880
L71040 74360
" />
<path d="M71070 74090
L71030 74130
L71060 74170
L71110 74130
L71070 74090
L71060 74170
" />
<path d="M71300 74360
L71600 74360
" />
<path d="M71450 74090
L71360 74770
L71390 74840
L71460 74880
L71540 74880
" />
<path d="M71910 74880
L71840 74840
L71820 74770
L71900 74090
" />
<path d="M72520 74840
L72440 74880
L72290 74880
L72220 74840
L72190 74770
L72230 74470
L72280 74390
L72360 74360
L72510 74360
L72580 74390
L72610 74470
L72600 74540
L72210 74620
" />
<path d="M72900 74810
L72930 74840
L72890 74880
L72860 74840
L72900 74810
L72890 74880
" />
<path d="M72950 74390
L72990 74430
L72940 74470
L72910 74430
L72950 74390
L72940 74470
" />
</g>
<g style="fill:#840000; fill-opacity:0.0; 
stroke:#840000; stroke-width:100; stroke-opacity:1; 
stroke-linecap:round; stroke-linejoin:round;">
</g>
<g style="fill:#840000; fill-opacity:0.0; 
stroke:#840000; stroke-width:60; stroke-opacity:1; 
stroke-linecap:round; stroke-linejoin:round;">
<text x="70080" y="73400"
textLength="8950" font-size="780" lengthAdjust="spacingAndGlyphs"
text-anchor="start" opacity="0">File: LED_Driver.sch</text>
<path d="M70440 73060
L70250 73060
" />
<path d="M70250 73370
L70250 72780
L70530 72780
" />
<path d="M70750 73370
L70750 72980
" />
<path d="M70750 72780
L70720 72810
L70750 72840
L70780 72810
L70750 72780
L70750 72840
" />
<path d="M71120 73370
L71060 73340
L71030 73290
L71030 72780
" />
<path d="M71570 73340
L71510 73370
L71400 73370
L71340 73340
L71310 73290
L71310 73060
L71340 73010
L71400 72980
L71510 72980
L71570 73010
L71590 73060
L71590 73120
L71310 73180
" />
<path d="M71850 73320
L71880 73340
L71850 73370
L71820 73340
L71850 73320
L71850 73370
" />
<path d="M71850 73010
L71880 73030
L71850 73060
L71820 73030
L71850 73010
L71850 73060
" />
<path d="M72860 73370
L72580 73370
L72580 72780
" />
<path d="M73060 73060
L73250 73060
" />
<path d="M73340 73370
L73060 73370
L73060 72780
L73340 72780
" />
<path d="M73590 73370
L73590 72780
L73730 72780
L73810 72810
L73870 72870
L73900 72920
L73930 73030
L73930 73120
L73900 73230
L73870 73290
L73810 73340
L73730 73370
L73590 73370
" />
<path d="M74040 73430
L74490 73430
" />
<path d="M74630 73370
L74630 72780
L74770 72780
L74850 72810
L74910 72870
L74940 72920
L74970 73030
L74970 73120
L74940 73230
L74910 73290
L74850 73340
L74770 73370
L74630 73370
" />
<path d="M75220 73370
L75220 72980
" />
<path d="M75220 73090
L75250 73030
L75270 73010
L75330 72980
L75390 72980
" />
<path d="M75580 73370
L75580 72980
" />
<path d="M75580 72780
L75560 72810
L75580 72840
L75610 72810
L75580 72780
L75580 72840
" />
<path d="M75810 72980
L75950 73370
L76090 72980
" />
<path d="M76540 73340
L76480 73370
L76370 73370
L76310 73340
L76290 73290
L76290 73060
L76310 73010
L76370 72980
L76480 72980
L76540 73010
L76570 73060
L76570 73120
L76290 73180
" />
<path d="M76820 73370
L76820 72980
" />
<path d="M76820 73090
L76850 73030
L76880 73010
L76930 72980
L76990 72980
" />
<path d="M77190 73320
L77210 73340
L77190 73370
L77160 73340
L77190 73320
L77190 73370
" />
<path d="M77440 73340
L77490 73370
L77610 73370
L77660 73340
L77690 73290
L77690 73260
L77660 73200
L77610 73180
L77520 73180
L77470 73150
L77440 73090
L77440 73060
L77470 73010
L77520 72980
L77610 72980
L77660 73010
" />
<path d="M78200 73340
L78140 73370
L78030 73370
L77970 73340
L77940 73320
L77920 73260
L77920 73090
L77940 73030
L77970 73010
L78030 72980
L78140 72980
L78200 73010
" />
<path d="M78450 73370
L78450 72780
" />
<path d="M78700 73370
L78700 73060
L78670 73010
L78620 72980
L78530 72980
L78480 73010
L78450 73030
" />
</g>
<g style="fill:#840000; fill-opacity:0.0; 
stroke:#840000; stroke-width:100; stroke-opacity:1; 
stroke-linecap:round; stroke-linejoin:round;">
</g>
<g style="fill:#840000; fill-opacity:0.0; 
stroke:#840000; stroke-width:60; stroke-opacity:1; 
stroke-linecap:round; stroke-linejoin:round;">
<path d="M69690 71460
L112210 71460
" />
</g>
<g style="fill:#840000; fill-opacity:0.0; 
stroke:#840000; stroke-width:100; stroke-opacity:1; 
stroke-linecap:round; stroke-linejoin:round;">
</g>
<g style="fill:#840000; fill-opacity:0.0; 
stroke:#840000; stroke-width:60; stroke-opacity:1; 
stroke-linecap:round; stroke-linejoin:round;">
<text x="70080" y="72340"
textLength="14750" font-size="780" lengthAdjust="spacingAndGlyphs"
text-anchor="start" opacity="0">Sheet: /UV_LED_Driver_Module4/</text>
<path d="M70220 72280
L70300 72310
L70440 72310
L70500 72280
L70530 72260
L70550 72200
L70550 72140
L70530 72090
L70500 72060
L70440 72030
L70330 72000
L70270 71970
L70250 71950
L70220 71890
L70220 71830
L70250 71780
L70270 71750
L70330 71720
L70470 71720
L70550 71750
" />
<path d="M70810 72310
L70810 71720
" />
<path d="M71060 72310
L71060 72000
L71030 71950
L70980 71920
L70890 71920
L70840 71950
L70810 71970
" />
<path d="M71570 72280
L71510 72310
L71400 72310
L71340 72280
L71310 72230
L71310 72000
L71340 71950
L71400 71920
L71510 71920
L71570 71950
L71590 72000
L71590 72060
L71310 72120
" />
<path d="M72070 72280
L72020 72310
L71900 72310
L71850 72280
L71820 72230
L71820 72000
L71850 71950
L71900 71920
L72020 71920
L72070 71950
L72100 72000
L72100 72060
L71820 72120
" />
<path d="M72270 71920
L72490 71920
" />
<path d="M72350 71720
L72350 72230
L72380 72280
L72440 72310
L72490 72310
" />
<path d="M72690 72260
L72720 72280
L72690 72310
L72660 72280
L72690 72260
L72690 72310
" />
<path d="M72690 71950
L72720 71970
L72690 72000
L72660 71970
L72690 71950
L72690 72000
" />
<path d="M73840 71690
L73340 72450
" />
<path d="M74040 71720
L74040 72200
L74070 72260
L74090 72280
L74150 72310
L74260 72310
L74320 72280
L74350 72260
L74380 72200
L74380 71720
" />
<path d="M74570 71720
L74770 72310
L74970 71720
" />
<path d="M75020 72370
L75470 72370
" />
<path d="M75890 72310
L75610 72310
L75610 71720
" />
<path d="M76090 72000
L76290 72000
" />
<path d="M76370 72310
L76090 72310
L76090 71720
L76370 71720
" />
<path d="M76620 72310
L76620 71720
L76760 71720
L76850 71750
L76900 71810
L76930 71860
L76960 71970
L76960 72060
L76930 72170
L76900 72230
L76850 72280
L76760 72310
L76620 72310
" />
<path d="M77070 72370
L77520 72370
" />
<path d="M77660 72310
L77660 71720
L77800 71720
L77890 71750
L77940 71810
L77970 71860
L78000 71970
L78000 72060
L77970 72170
L77940 72230
L77890 72280
L77800 72310
L77660 72310
" />
<path d="M78250 72310
L78250 71920
" />
<path d="M78250 72030
L78280 71970
L78310 71950
L78370 71920
L78420 71920
" />
<path d="M78620 72310
L78620 71920
" />
<path d="M78620 71720
L78590 71750
L78620 71780
L78650 71750
L78620 71720
L78620 71780
" />
<path d="M78840 71920
L78980 72310
L79120 71920
" />
<path d="M79570 72280
L79520 72310
L79400 72310
L79350 72280
L79320 72230
L79320 72000
L79350 71950
L79400 71920
L79520 71920
L79570 71950
L79600 72000
L79600 72060
L79320 72120
" />
<path d="M79850 72310
L79850 71920
" />
<path d="M79850 72030
L79880 71970
L79910 71950
L79970 71920
L80020 71920
" />
<path d="M80080 72370
L80530 72370
" />
<path d="M80670 72310
L80670 71720
L80870 72140
L81060 71720
L81060 72310
" />
<path d="M81430 72310
L81370 72280
L81340 72260
L81320 72200
L81320 72030
L81340 71970
L81370 71950
L81430 71920
L81510 71920
L81570 71950
L81600 71970
L81620 72030
L81620 72200
L81600 72260
L81570 72280
L81510 72310
L81430 72310
" />
<path d="M82130 72310
L82130 71720
" />
<path d="M82130 72280
L82070 72310
L81960 72310
L81910 72280
L81880 72260
L81850 72200
L81850 72030
L81880 71970
L81910 71950
L81960 71920
L82070 71920
L82130 71950
" />
<path d="M82660 71920
L82660 72310
" />
<path d="M82410 71920
L82410 72230
L82440 72280
L82500 72310
L82580 72310
L82640 72280
L82660 72260
" />
<path d="M83030 72310
L82970 72280
L82940 72230
L82940 71720
" />
<path d="M83480 72280
L83420 72310
L83310 72310
L83250 72280
L83230 72230
L83230 72000
L83250 71950
L83310 71920
L83420 71920
L83480 71950
L83510 72000
L83510 72060
L83230 72120
" />
<path d="M84010 71920
L84010 72310
" />
<path d="M83870 71690
L83730 72120
L84100 72120
" />
<path d="M84740 71690
L84240 72450
" />
</g>
<g style="fill:#840000; fill-opacity:0.0; 
stroke:#840000; stroke-width:100; stroke-opacity:1; 
stroke-linecap:round; stroke-linejoin:round;">
</g>
<g style="fill:#840000; fill-opacity:0.0; 
stroke:#840000; stroke-width:60; stroke-opacity:1; 
stroke-linecap:round; stroke-linejoin:round;">
<path d="M77560 75400
L77560 76580
" />
</g>
<g style="fill:#840000; fill-opacity:0.0; 
stroke:#840000; stroke-width:100; stroke-opacity:1; 
stroke-linecap:round; stroke-linejoin:round;">
</g>
<g style="fill:#840000; fill-opacity:0.0; 
stroke:#840000; stroke-width:60; stroke-opacity:1; 
stroke-linecap:round; stroke-linejoin:round;">
<path d="M102760 75400
L102760 77960
" />
</g>
<g style="fill:#840000; fill-opacity:0.0; 
stroke:#840000; stroke-width:0; stroke-opacity:1; 
stroke-linecap:round; stroke-linejoin:round;">
<g >
</g>
<g style="fill:#840000; fill-opacity:0.0; 
stroke:#840000; stroke-width:60; stroke-opacity:1; 
stroke-linecap:round; stroke-linejoin:round;">
<path style="fill:#840000; fill-opacity:0.0; 
stroke:#840000; stroke-width:60; stroke-opacity:1; 
stroke-linecap:round; stroke-linejoin:round;fill:none"
d="M 71000,48000
71000,48500
71500,48500
71000,49000
70500,48500
71000,48500
" /> 
</g>
<g style="fill:#008484; fill-opacity:0.0; 
stroke:#008484; stroke-width:60; stroke-opacity:1; 
stroke-linecap:round; stroke-linejoin:round;">
<text x="71050" y="50000"
textLength="2060" font-size="660" lengthAdjust="spacingAndGlyphs"
text-anchor="middle" opacity="0">GNDS</text>
<path d="M70430 49500
L70380 49470
L70310 49470
L70240 49500
L70190 49540
L70160 49590
L70140 49690
L70140 49760
L70160 49850
L70190 49900
L70240 49950
L70310 49970
L70350 49970
L70430 49950
L70450 49920
L70450 49760
L70350 49760
" />
<path d="M70660 49970
L70660 49470
L70950 49970
L70950 49470
" />
<path d="M71190 49970
L71190 49470
L71310 49470
L71380 49500
L71430 49540
L71450 49590
L71470 49690
L71470 49760
L71450 49850
L71430 49900
L71380 49950
L71310 49970
L71190 49970
" />
<path d="M71660 49950
L71740 49970
L71850 49970
L71900 49950
L71930 49920
L71950 49880
L71950 49830
L71930 49780
L71900 49760
L71850 49730
L71760 49710
L71710 49690
L71690 49660
L71660 49610
L71660 49570
L71690 49520
L71710 49500
L71760 49470
L71880 49470
L71950 49500
" />
</g>
</g>
<g style="fill:#008484; fill-opacity:0.0; 
stroke:#008484; stroke-width:0; stroke-opacity:1; 
stroke-linecap:round; stroke-linejoin:round;">
<g >
</g>
<g style="fill:#840000; fill-opacity:0.0; 
stroke:#840000; stroke-width:0; stroke-opacity:1; 
stroke-linecap:round; stroke-linejoin:round;">
</g>
<g style="fill:#840000; fill-opacity:0.0; 
stroke:#840000; stroke-width:60; stroke-opacity:1; 
stroke-linecap:round; stroke-linejoin:round;">
<path style="fill:#840000; fill-opacity:0.0; 
stroke:#840000; stroke-width:60; stroke-opacity:1; 
stroke-linecap:round; stroke-linejoin:round;fill:none"
d="M 46250,48000
46250,48500
46750,48500
46250,49000
45750,48500
46250,48500
" /> 
</g>
<g style="fill:#008484; fill-opacity:0.0; 
stroke:#008484; stroke-width:60; stroke-opacity:1; 
stroke-linecap:round; stroke-linejoin:round;">
<text x="46300" y="50000"
textLength="2060" font-size="660" lengthAdjust="spacingAndGlyphs"
text-anchor="middle" opacity="0">GNDS</text>
<path d="M45680 49500
L45630 49470
L45560 49470
L45490 49500
L45440 49540
L45410 49590
L45390 49690
L45390 49760
L45410 49850
L45440 49900
L45490 49950
L45560 49970
L45600 49970
L45680 49950
L45700 49920
L45700 49760
L45600 49760
" />
<path d="M45910 49970
L45910 49470
L46200 49970
L46200 49470
" />
<path d="M46440 49970
L46440 49470
L46560 49470
L46630 49500
L46680 49540
L46700 49590
L46720 49690
L46720 49760
L46700 49850
L46680 49900
L46630 49950
L46560 49970
L46440 49970
" />
<path d="M46910 49950
L46990 49970
L47100 49970
L47150 49950
L47180 49920
L47200 49880
L47200 49830
L47180 49780
L47150 49760
L47100 49730
L47010 49710
L46960 49690
L46940 49660
L46910 49610
L46910 49570
L46940 49520
L46960 49500
L47010 49470
L47130 49470
L47200 49500
" />
</g>
</g>
<g style="fill:#008484; fill-opacity:0.0; 
stroke:#008484; stroke-width:0; stroke-opacity:1; 
stroke-linecap:round; stroke-linejoin:round;">
<g >
</g>
<g style="fill:#840000; fill-opacity:0.0; 
stroke:#840000; stroke-width:0; stroke-opacity:1; 
stroke-linecap:round; stroke-linejoin:round;">
</g>
<g style="fill:#840000; fill-opacity:0.0; 
stroke:#840000; stroke-width:100; stroke-opacity:1; 
stroke-linecap:round; stroke-linejoin:round;">
<circle cx="70650" cy="32500" r="1100" /> 
</g>
<g style="fill:#840000; fill-opacity:1.0; 
stroke:#840000; stroke-width:60; stroke-opacity:1; 
stroke-linecap:round; stroke-linejoin:round;">
<circle cx="71000" cy="33200" r="100" /> 
<circle cx="71000" cy="31800" r="100" /> 
</g>
<g style="fill:#840000; fill-opacity:0.0; 
stroke:#840000; stroke-width:60; stroke-opacity:1; 
stroke-linecap:round; stroke-linejoin:round;">
<path style="fill:#840000; fill-opacity:0.0; 
stroke:#840000; stroke-width:60; stroke-opacity:1; 
stroke-linecap:round; stroke-linejoin:round;fill:none"
d="M 70100,32500
69000,32500
" /> 
</g>
<g style="fill:#840000; fill-opacity:0.0; 
stroke:#840000; stroke-width:100; stroke-opacity:1; 
stroke-linecap:round; stroke-linejoin:round;">
<path style="fill:#840000; fill-opacity:0.0; 
stroke:#840000; stroke-width:100; stroke-opacity:1; 
stroke-linecap:round; stroke-linejoin:round;fill:none"
d="M 70100,31750
70100,33250
" /> 
<path style="fill:#840000; fill-opacity:0.0; 
stroke:#840000; stroke-width:100; stroke-opacity:1; 
stroke-linecap:round; stroke-linejoin:round;fill:none"
d="M 70300,33000
70300,33400
" /> 
<path style="fill:#840000; fill-opacity:0.0; 
stroke:#840000; stroke-width:100; stroke-opacity:1; 
stroke-linecap:round; stroke-linejoin:round;fill:none"
d="M 70300,32300
70300,32700
" /> 
<path style="fill:#840000; fill-opacity:0.0; 
stroke:#840000; stroke-width:100; stroke-opacity:1; 
stroke-linecap:round; stroke-linejoin:round;fill:none"
d="M 70300,31600
70300,32000
" /> 
</g>
<g style="fill:#840000; fill-opacity:0.0; 
stroke:#840000; stroke-width:60; stroke-opacity:1; 
stroke-linecap:round; stroke-linejoin:round;">
<path style="fill:#840000; fill-opacity:0.0; 
stroke:#840000; stroke-width:60; stroke-opacity:1; 
stroke-linecap:round; stroke-linejoin:round;fill:none"
d="M 71000,31500
71000,31800
" /> 
<path style="fill:#840000; fill-opacity:0.0; 
stroke:#840000; stroke-width:60; stroke-opacity:1; 
stroke-linecap:round; stroke-linejoin:round;fill:none"
d="M 71000,33500
71000,32500
70300,32500
" /> 
<path style="fill:#840000; fill-opacity:0.0; 
stroke:#840000; stroke-width:60; stroke-opacity:1; 
stroke-linecap:round; stroke-linejoin:round;fill:none"
d="M 70300,33200
71300,33200
71300,31800
70300,31800
" /> 
</g>
<g style="fill:#840000; fill-opacity:1.0; 
stroke:#840000; stroke-width:60; stroke-opacity:1; 
stroke-linecap:round; stroke-linejoin:round;">
<path style="fill:#840000; fill-opacity:1.0; 
stroke:#840000; stroke-width:60; stroke-opacity:1; 
stroke-linecap:round; stroke-linejoin:round;fill-rule:evenodd;"
d="M 70400,32500
70800,32350
70800,32650
Z" /> 
</g>
<g style="fill:#840000; fill-opacity:0.0; 
stroke:#840000; stroke-width:60; stroke-opacity:1; 
stroke-linecap:round; stroke-linejoin:round;">
<path style="fill:#840000; fill-opacity:0.0; 
stroke:#840000; stroke-width:60; stroke-opacity:1; 
stroke-linecap:round; stroke-linejoin:round;fill:none"
d="M 71100,32300
71150,32350
71450,32350
71500,32400
" /> 
<path style="fill:#840000; fill-opacity:0.0; 
stroke:#840000; stroke-width:60; stroke-opacity:1; 
stroke-linecap:round; stroke-linejoin:round;fill:none"
d="M 71300,32350
71150,32600
71450,32600
Z" /> 
<path d="M69000 32500
L68000 32500
" />
<text x="68500" y="33100"
textLength="540" font-size="660" lengthAdjust="spacingAndGlyphs"
text-anchor="middle" opacity="0">1</text>
<path d="M68640 33070
L68350 33070
" />
<path d="M68500 33070
L68500 32570
L68450 32640
L68400 32690
L68350 32710
" />
<path d="M71000 31500
L71000 30500
" />
<g transform="rotate(-90 71100 31000)">
<text x="71100" y="31500"
textLength="540" font-size="660" lengthAdjust="spacingAndGlyphs"
text-anchor="middle" opacity="0">2</text>
</g>
<path d="M71120 31140
L71100 31110
L71070 31070
L71070 30950
L71100 30900
L71120 30880
L71170 30850
L71210 30850
L71290 30880
L71570 31160
L71570 30850
" />
<path d="M71000 33500
L71000 34500
" />
<g transform="rotate(-90 71100 34000)">
<text x="71100" y="34500"
textLength="540" font-size="660" lengthAdjust="spacingAndGlyphs"
text-anchor="middle" opacity="0">3</text>
</g>
<path d="M71070 34160
L71070 33850
L71260 34020
L71260 33950
L71290 33900
L71310 33880
L71360 33850
L71480 33850
L71520 33880
L71550 33900
L71570 33950
L71570 34090
L71550 34140
L71520 34160
" />
</g>
<g style="fill:#008484; fill-opacity:0.0; 
stroke:#008484; stroke-width:60; stroke-opacity:1; 
stroke-linecap:round; stroke-linejoin:round;">
<text x="72570" y="32310"
textLength="1060" font-size="660" lengthAdjust="spacingAndGlyphs"
text-anchor="middle" opacity="0">Q4</text>
<path d="M72520 32330
L72470 32310
L72420 32260
L72350 32190
L72300 32160
L72260 32160
" />
<path d="M72280 32280
L72230 32260
L72180 32210
L72160 32110
L72160 31950
L72180 31850
L72230 31810
L72280 31780
L72370 31780
L72420 31810
L72470 31850
L72490 31950
L72490 32110
L72470 32210
L72420 32260
L72370 32280
L72280 32280
" />
<path d="M72920 31950
L72920 32280
" />
<path d="M72800 31760
L72680 32110
L72990 32110
" />
<text x="75370" y="33220"
textLength="6660" font-size="660" lengthAdjust="spacingAndGlyphs"
text-anchor="middle" opacity="0">IPP80N03S4L-03</text>
<path d="M72190 33190
L72190 32690
" />
<path d="M72420 33190
L72420 32690
L72620 32690
L72660 32720
L72690 32740
L72710 32790
L72710 32860
L72690 32910
L72660 32930
L72620 32950
L72420 32950
" />
<path d="M72920 33190
L72920 32690
L73120 32690
L73160 32720
L73190 32740
L73210 32790
L73210 32860
L73190 32910
L73160 32930
L73120 32950
L72920 32950
" />
<path d="M73500 32910
L73450 32880
L73420 32860
L73400 32810
L73400 32790
L73420 32740
L73450 32720
L73500 32690
L73590 32690
L73640 32720
L73660 32740
L73690 32790
L73690 32810
L73660 32860
L73640 32880
L73590 32910
L73500 32910
L73450 32930
L73420 32950
L73400 33000
L73400 33100
L73420 33140
L73450 33170
L73500 33190
L73590 33190
L73640 33170
L73660 33140
L73690 33100
L73690 33000
L73660 32950
L73640 32930
L73590 32910
" />
<path d="M74000 32690
L74040 32690
L74090 32720
L74120 32740
L74140 32790
L74160 32880
L74160 33000
L74140 33100
L74120 33140
L74090 33170
L74040 33190
L74000 33190
L73950 33170
L73920 33140
L73900 33100
L73880 33000
L73880 32880
L73900 32790
L73920 32740
L73950 32720
L74000 32690
" />
<path d="M74380 33190
L74380 32690
L74660 33190
L74660 32690
" />
<path d="M75000 32690
L75040 32690
L75090 32720
L75120 32740
L75140 32790
L75160 32880
L75160 33000
L75140 33100
L75120 33140
L75090 33170
L75040 33190
L75000 33190
L74950 33170
L74920 33140
L74900 33100
L74880 33000
L74880 32880
L74900 32790
L74920 32740
L74950 32720
L75000 32690
" />
<path d="M75330 32690
L75640 32690
L75470 32880
L75540 32880
L75590 32910
L75620 32930
L75640 32980
L75640 33100
L75620 33140
L75590 33170
L75540 33190
L75400 33190
L75350 33170
L75330 33140
" />
<path d="M75830 33170
L75900 33190
L76020 33190
L76070 33170
L76090 33140
L76120 33100
L76120 33050
L76090 33000
L76070 32980
L76020 32950
L75920 32930
L75880 32910
L75850 32880
L75830 32830
L75830 32790
L75850 32740
L75880 32720
L75920 32690
L76040 32690
L76120 32720
" />
<path d="M76540 32860
L76540 33190
" />
<path d="M76420 32670
L76310 33020
L76620 33020
" />
<path d="M77040 33190
L76810 33190
L76810 32690
" />
<path d="M77210 33000
L77590 33000
" />
<path d="M77920 32690
L77970 32690
L78020 32720
L78040 32740
L78070 32790
L78090 32880
L78090 33000
L78070 33100
L78040 33140
L78020 33170
L77970 33190
L77920 33190
L77880 33170
L77850 33140
L77830 33100
L77810 33000
L77810 32880
L77830 32790
L77850 32740
L77880 32720
L77920 32690
" />
<path d="M78260 32690
L78570 32690
L78400 32880
L78470 32880
L78520 32910
L78540 32930
L78570 32980
L78570 33100
L78540 33140
L78520 33170
L78470 33190
L78330 33190
L78280 33170
L78260 33140
" />
</g>
</g>
<g style="fill:#008484; fill-opacity:0.0; 
stroke:#008484; stroke-width:0; stroke-opacity:1; 
stroke-linecap:round; stroke-linejoin:round;">
<g >
</g>
<g style="fill:#840000; fill-opacity:0.0; 
stroke:#840000; stroke-width:0; stroke-opacity:1; 
stroke-linecap:round; stroke-linejoin:round;">
</g>
<g style="fill:#840000; fill-opacity:0.0; 
stroke:#840000; stroke-width:100; stroke-opacity:1; 
stroke-linecap:round; stroke-linejoin:round;">
<rect x="42250" y="32100" width="2000" height="800" rx="0" />
</g>
<g style="fill:#840000; fill-opacity:0.0; 
stroke:#840000; stroke-width:60; stroke-opacity:1; 
stroke-linecap:round; stroke-linejoin:round;">
<path d="M44250 32500
L44750 32500
" />
<path d="M42250 32500
L41750 32500
" />
</g>
<g style="fill:#008484; fill-opacity:0.0; 
stroke:#008484; stroke-width:60; stroke-opacity:1; 
stroke-linecap:round; stroke-linejoin:round;">
<text x="43250" y="30700"
textLength="1040" font-size="660" lengthAdjust="spacingAndGlyphs"
text-anchor="middle" opacity="0">R7</text>
<path d="M43160 30670
L43000 30430
" />
<path d="M42880 30670
L42880 30170
L43070 30170
L43110 30200
L43140 30220
L43160 30270
L43160 30340
L43140 30390
L43110 30410
L43070 30430
L42880 30430
" />
<path d="M43330 30170
L43660 30170
L43450 30670
" />
<text x="43250" y="31610"
textLength="1990" font-size="660" lengthAdjust="spacingAndGlyphs"
text-anchor="middle" opacity="0">100R</text>
<path d="M42660 31580
L42380 31580
" />
<path d="M42520 31580
L42520 31080
L42470 31150
L42420 31200
L42380 31220
" />
<path d="M42970 31080
L43020 31080
L43070 31110
L43090 31130
L43110 31180
L43140 31270
L43140 31390
L43110 31490
L43090 31530
L43070 31560
L43020 31580
L42970 31580
L42920 31560
L42900 31530
L42880 31490
L42850 31390
L42850 31270
L42880 31180
L42900 31130
L42920 31110
L42970 31080
" />
<path d="M43450 31080
L43500 31080
L43540 31110
L43570 31130
L43590 31180
L43610 31270
L43610 31390
L43590 31490
L43570 31530
L43540 31560
L43500 31580
L43450 31580
L43400 31560
L43380 31530
L43350 31490
L43330 31390
L43330 31270
L43350 31180
L43380 31130
L43400 31110
L43450 31080
" />
<path d="M44110 31580
L43950 31340
" />
<path d="M43830 31580
L43830 31080
L44020 31080
L44070 31110
L44090 31130
L44110 31180
L44110 31250
L44090 31300
L44070 31320
L44020 31340
L43830 31340
" />
</g>
</g>
<g style="fill:#008484; fill-opacity:0.0; 
stroke:#008484; stroke-width:0; stroke-opacity:1; 
stroke-linecap:round; stroke-linejoin:round;">
<g >
</g>
<g style="fill:#840000; fill-opacity:0.0; 
stroke:#840000; stroke-width:0; stroke-opacity:1; 
stroke-linecap:round; stroke-linejoin:round;">
</g>
<g style="fill:#840000; fill-opacity:0.0; 
stroke:#840000; stroke-width:100; stroke-opacity:1; 
stroke-linecap:round; stroke-linejoin:round;">
<rect x="70600" y="40000" width="800" height="2000" rx="0" />
</g>
<g style="fill:#840000; fill-opacity:0.0; 
stroke:#840000; stroke-width:60; stroke-opacity:1; 
stroke-linecap:round; stroke-linejoin:round;">
<path d="M71000 40000
L71000 39500
" />
<path d="M71000 42000
L71000 42500
" />
</g>
<g style="fill:#008484; fill-opacity:0.0; 
stroke:#008484; stroke-width:60; stroke-opacity:1; 
stroke-linecap:round; stroke-linejoin:round;">
<text x="72220" y="40810"
textLength="1040" font-size="660" lengthAdjust="spacingAndGlyphs"
text-anchor="middle" opacity="0">R9</text>
<path d="M72130 40780
L71970 40540
" />
<path d="M71850 40780
L71850 40280
L72040 40280
L72080 40310
L72110 40330
L72130 40380
L72130 40450
L72110 40500
L72080 40520
L72040 40540
L71850 40540
" />
<path d="M72370 40780
L72470 40780
L72510 40760
L72540 40730
L72580 40660
L72610 40570
L72610 40380
L72580 40330
L72560 40310
L72510 40280
L72420 40280
L72370 40310
L72350 40330
L72320 40380
L72320 40500
L72350 40540
L72370 40570
L72420 40590
L72510 40590
L72560 40570
L72580 40540
L72610 40500
" />
<text x="72690" y="41720"
textLength="1990" font-size="660" lengthAdjust="spacingAndGlyphs"
text-anchor="middle" opacity="0">R100</text>
<path d="M72130 41690
L71960 41450
" />
<path d="M71840 41690
L71840 41190
L72030 41190
L72080 41220
L72100 41240
L72130 41290
L72130 41360
L72100 41410
L72080 41430
L72030 41450
L71840 41450
" />
<path d="M72600 41690
L72320 41690
" />
<path d="M72460 41690
L72460 41190
L72410 41260
L72360 41310
L72320 41330
" />
<path d="M72910 41190
L72960 41190
L73010 41220
L73030 41240
L73050 41290
L73080 41380
L73080 41500
L73050 41600
L73030 41640
L73010 41670
L72960 41690
L72910 41690
L72860 41670
L72840 41640
L72820 41600
L72790 41500
L72790 41380
L72820 41290
L72840 41240
L72860 41220
L72910 41190
" />
<path d="M73390 41190
L73440 41190
L73480 41220
L73510 41240
L73530 41290
L73550 41380
L73550 41500
L73530 41600
L73510 41640
L73480 41670
L73440 41690
L73390 41690
L73340 41670
L73320 41640
L73290 41600
L73270 41500
L73270 41380
L73290 41290
L73320 41240
L73340 41220
L73390 41190
" />
</g>
</g>
<g style="fill:#008484; fill-opacity:0.0; 
stroke:#008484; stroke-width:0; stroke-opacity:1; 
stroke-linecap:round; stroke-linejoin:round;">
<g >
</g>
<g style="fill:#840000; fill-opacity:0.0; 
stroke:#840000; stroke-width:0; stroke-opacity:1; 
stroke-linecap:round; stroke-linejoin:round;">
</g>
<g style="fill:#840000; fill-opacity:0.0; 
stroke:#840000; stroke-width:100; stroke-opacity:1; 
stroke-linecap:round; stroke-linejoin:round;">
<rect x="45850" y="40000" width="800" height="2000" rx="0" />
</g>
<g style="fill:#840000; fill-opacity:0.0; 
stroke:#840000; stroke-width:60; stroke-opacity:1; 
stroke-linecap:round; stroke-linejoin:round;">
<path d="M46250 42000
L46250 42500
" />
<path d="M46250 40000
L46250 39500
" />
</g>
<g style="fill:#008484; fill-opacity:0.0; 
stroke:#008484; stroke-width:60; stroke-opacity:1; 
stroke-linecap:round; stroke-linejoin:round;">
<text x="47470" y="40760"
textLength="1040" font-size="660" lengthAdjust="spacingAndGlyphs"
text-anchor="middle" opacity="0">R8</text>
<path d="M47380 40730
L47220 40490
" />
<path d="M47100 40730
L47100 40230
L47290 40230
L47330 40260
L47360 40280
L47380 40330
L47380 40400
L47360 40450
L47330 40470
L47290 40490
L47100 40490
" />
<path d="M47670 40450
L47620 40420
L47600 40400
L47570 40350
L47570 40330
L47600 40280
L47620 40260
L47670 40230
L47760 40230
L47810 40260
L47830 40280
L47860 40330
L47860 40350
L47830 40400
L47810 40420
L47760 40450
L47670 40450
L47620 40470
L47600 40490
L47570 40540
L47570 40640
L47600 40680
L47620 40710
L47670 40730
L47760 40730
L47810 40710
L47830 40680
L47860 40640
L47860 40540
L47830 40490
L47810 40470
L47760 40450
" />
<text x="47700" y="41670"
textLength="1510" font-size="660" lengthAdjust="spacingAndGlyphs"
text-anchor="middle" opacity="0">10K</text>
<path d="M47350 41640
L47060 41640
" />
<path d="M47210 41640
L47210 41140
L47160 41210
L47110 41260
L47060 41280
" />
<path d="M47660 41140
L47710 41140
L47750 41170
L47780 41190
L47800 41240
L47830 41330
L47830 41450
L47800 41550
L47780 41590
L47750 41620
L47710 41640
L47660 41640
L47610 41620
L47590 41590
L47560 41550
L47540 41450
L47540 41330
L47560 41240
L47590 41190
L47610 41170
L47660 41140
" />
<path d="M48040 41640
L48040 41140
" />
<path d="M48330 41640
L48110 41360
" />
<path d="M48330 41140
L48040 41430
" />
</g>
</g>
<g style="fill:#008484; fill-opacity:0.0; 
stroke:#008484; stroke-width:60; stroke-opacity:1; 
stroke-linecap:round; stroke-linejoin:round;">
</g>
<g style="fill:#008400; fill-opacity:0.0; 
stroke:#008400; stroke-width:60; stroke-opacity:1; 
stroke-linecap:round; stroke-linejoin:round;">
<path d="M71000 34500
L71000 39500
" />
<path d="M61500 18000
L76750 18000
" />
<path d="M61500 23750
L61500 18000
" />
<path d="M56500 14750
L76750 14750
" />
<path d="M56500 23750
L56500 14750
" />
<path d="M46250 42500
L46250 48000
" />
<path d="M46250 15500
L46250 23750
" />
<path d="M61500 23750
L71000 23750
" />
<path d="M46250 23750
L56500 23750
" />
<path d="M34000 32500
L41750 32500
" />
<path d="M71000 23750
L71000 30500
" />
<path d="M46250 32500
L44750 32500
" />
<path d="M46250 39500
L46250 32500
" />
<path d="M71000 42500
L71000 48000
" />
<path d="M68000 32500
L46250 32500
" />
</g>
<g style="fill:#848400; fill-opacity:0.0; 
stroke:#848400; stroke-width:60; stroke-opacity:1; 
stroke-linecap:round; stroke-linejoin:round;">
<text x="33400" y="32750"
textLength="3580" font-size="660" lengthAdjust="spacingAndGlyphs"
text-anchor="end" opacity="0">LED_CTRL</text>
<path d="M30200 32720
L29960 32720
L29960 32220
" />
<path d="M30370 32460
L30530 32460
" />
<path d="M30600 32720
L30370 32720
L30370 32220
L30600 32220
" />
<path d="M30820 32720
L30820 32220
L30940 32220
L31010 32250
L31060 32290
L31080 32340
L31100 32440
L31100 32510
L31080 32600
L31060 32650
L31010 32700
L30940 32720
L30820 32720
" />
<path d="M31200 32770
L31580 32770
" />
<path d="M31980 32670
L31960 32700
L31890 32720
L31840 32720
L31770 32700
L31720 32650
L31700 32600
L31670 32510
L31670 32440
L31700 32340
L31720 32290
L31770 32250
L31840 32220
L31890 32220
L31960 32250
L31980 32270
" />
<path d="M32130 32220
L32410 32220
" />
<path d="M32270 32720
L32270 32220
" />
<path d="M32870 32720
L32700 32480
" />
<path d="M32580 32720
L32580 32220
L32770 32220
L32820 32250
L32840 32270
L32870 32320
L32870 32390
L32840 32440
L32820 32460
L32770 32480
L32580 32480
" />
<path d="M33320 32720
L33080 32720
L33080 32220
" />
</g>
<g style="fill:#848400; fill-opacity:0.0; 
stroke:#848400; stroke-width:100; stroke-opacity:1; 
stroke-linecap:round; stroke-linejoin:round;">
<path style="fill:#848400; fill-opacity:0.0; 
stroke:#848400; stroke-width:100; stroke-opacity:1; 
stroke-linecap:round; stroke-linejoin:round;fill:none"
d="M 34000,32500
33750,32250
33500,32250
33500,32750
33750,32750
Z" /> 
</g>
<g style="fill:#848400; fill-opacity:0.0; 
stroke:#848400; stroke-width:60; stroke-opacity:1; 
stroke-linecap:round; stroke-linejoin:round;">
<g transform="rotate(-90 46250 14900)">
<text x="46250" y="15150"
textLength="1580" font-size="660" lengthAdjust="spacingAndGlyphs"
text-anchor="start" opacity="0">+5V</text>
</g>
<path d="M46280 14750
L46280 14370
" />
<path d="M46470 14560
L46090 14560
" />
<path d="M45970 13890
L45970 14130
L46210 14150
L46190 14130
L46160 14080
L46160 13960
L46190 13910
L46210 13890
L46260 13870
L46380 13870
L46420 13890
L46450 13910
L46470 13960
L46470 14080
L46450 14130
L46420 14150
" />
<path d="M45970 13720
L46470 13560
L45970 13390
" />
</g>
<g style="fill:#848400; fill-opacity:0.0; 
stroke:#848400; stroke-width:100; stroke-opacity:1; 
stroke-linecap:round; stroke-linejoin:round;">
<path style="fill:#848400; fill-opacity:0.0; 
stroke:#848400; stroke-width:100; stroke-opacity:1; 
stroke-linecap:round; stroke-linejoin:round;fill:none"
d="M 46250,15500
46500,15250
46500,15000
46000,15000
46000,15250
Z" /> 
</g>
<g style="fill:#848400; fill-opacity:0.0; 
stroke:#848400; stroke-width:60; stroke-opacity:1; 
stroke-linecap:round; stroke-linejoin:round;">
<text x="77350" y="15000"
textLength="6040" font-size="660" lengthAdjust="spacingAndGlyphs"
text-anchor="start" opacity="0">LED_ANODE_OUT</text>
<path d="M77730 14970
L77490 14970
L77490 14470
" />
<path d="M77900 14710
L78070 14710
" />
<path d="M78140 14970
L77900 14970
L77900 14470
L78140 14470
" />
<path d="M78350 14970
L78350 14470
L78470 14470
L78540 14500
L78590 14540
L78610 14590
L78640 14690
L78640 14760
L78610 14850
L78590 14900
L78540 14950
L78470 14970
L78350 14970
" />
<path d="M78730 15020
L79110 15020
" />
<path d="M79210 14830
L79450 14830
" />
<path d="M79160 14970
L79330 14470
L79490 14970
" />
<path d="M79660 14970
L79660 14470
L79950 14970
L79950 14470
" />
<path d="M80280 14470
L80380 14470
L80420 14500
L80470 14540
L80490 14640
L80490 14800
L80470 14900
L80420 14950
L80380 14970
L80280 14970
L80230 14950
L80180 14900
L80160 14800
L80160 14640
L80180 14540
L80230 14500
L80280 14470
" />
<path d="M80710 14970
L80710 14470
L80830 14470
L80900 14500
L80950 14540
L80970 14590
L80990 14690
L80990 14760
L80970 14850
L80950 14900
L80900 14950
L80830 14970
L80710 14970
" />
<path d="M81210 14710
L81380 14710
" />
<path d="M81450 14970
L81210 14970
L81210 14470
L81450 14470
" />
<path d="M81540 15020
L81920 15020
" />
<path d="M82140 14470
L82230 14470
L82280 14500
L82330 14540
L82350 14640
L82350 14800
L82330 14900
L82280 14950
L82230 14970
L82140 14970
L82090 14950
L82040 14900
L82020 14800
L82020 14640
L82040 14540
L82090 14500
L82140 14470
" />
<path d="M82570 14470
L82570 14880
L82590 14920
L82610 14950
L82660 14970
L82760 14970
L82800 14950
L82830 14920
L82850 14880
L82850 14470
" />
<path d="M83020 14470
L83300 14470
" />
<path d="M83160 14970
L83160 14470
" />
</g>
<g style="fill:#848400; fill-opacity:0.0; 
stroke:#848400; stroke-width:100; stroke-opacity:1; 
stroke-linecap:round; stroke-linejoin:round;">
<path style="fill:#848400; fill-opacity:0.0; 
stroke:#848400; stroke-width:100; stroke-opacity:1; 
stroke-linecap:round; stroke-linejoin:round;fill:none"
d="M 76750,14750
77000,15000
77250,15000
77250,14500
77000,14500
Z" /> 
</g>
<g style="fill:#848400; fill-opacity:0.0; 
stroke:#848400; stroke-width:60; stroke-opacity:1; 
stroke-linecap:round; stroke-linejoin:round;">
<text x="77350" y="18250"
textLength="6920" font-size="660" lengthAdjust="spacingAndGlyphs"
text-anchor="start" opacity="0">LED_CATHODE_OUT</text>
<path d="M77730 18220
L77490 18220
L77490 17720
" />
<path d="M77900 17960
L78070 17960
" />
<path d="M78140 18220
L77900 18220
L77900 17720
L78140 17720
" />
<path d="M78350 18220
L78350 17720
L78470 17720
L78540 17750
L78590 17790
L78610 17840
L78640 17940
L78640 18010
L78610 18100
L78590 18150
L78540 18200
L78470 18220
L78350 18220
" />
<path d="M78730 18270
L79110 18270
" />
<path d="M79520 18170
L79490 18200
L79420 18220
L79380 18220
L79300 18200
L79260 18150
L79230 18100
L79210 18010
L79210 17940
L79230 17840
L79260 17790
L79300 17750
L79380 17720
L79420 17720
L79490 17750
L79520 17770
" />
<path d="M79710 18080
L79950 18080
" />
<path d="M79660 18220
L79830 17720
L79990 18220
" />
<path d="M80090 17720
L80380 17720
" />
<path d="M80230 18220
L80230 17720
" />
<path d="M80540 18220
L80540 17720
" />
<path d="M80540 17960
L80830 17960
" />
<path d="M80830 18220
L80830 17720
" />
<path d="M81160 17720
L81260 17720
L81300 17750
L81350 17790
L81380 17890
L81380 18050
L81350 18150
L81300 18200
L81260 18220
L81160 18220
L81110 18200
L81070 18150
L81040 18050
L81040 17890
L81070 17790
L81110 17750
L81160 17720
" />
<path d="M81590 18220
L81590 17720
L81710 17720
L81780 17750
L81830 17790
L81850 17840
L81880 17940
L81880 18010
L81850 18100
L81830 18150
L81780 18200
L81710 18220
L81590 18220
" />
<path d="M82090 17960
L82260 17960
" />
<path d="M82330 18220
L82090 18220
L82090 17720
L82330 17720
" />
<path d="M82420 18270
L82800 18270
" />
<path d="M83020 17720
L83110 17720
L83160 17750
L83210 17790
L83230 17890
L83230 18050
L83210 18150
L83160 18200
L83110 18220
L83020 18220
L82970 18200
L82920 18150
L82900 18050
L82900 17890
L82920 17790
L82970 17750
L83020 17720
" />
<path d="M83450 17720
L83450 18130
L83470 18170
L83490 18200
L83540 18220
L83640 18220
L83680 18200
L83710 18170
L83730 18130
L83730 17720
" />
<path d="M83900 17720
L84180 17720
" />
<path d="M84040 18220
L84040 17720
" />
</g>
<g style="fill:#848400; fill-opacity:0.0; 
stroke:#848400; stroke-width:100; stroke-opacity:1; 
stroke-linecap:round; stroke-linejoin:round;">
<path style="fill:#848400; fill-opacity:0.0; 
stroke:#848400; stroke-width:100; stroke-opacity:1; 
stroke-linecap:round; stroke-linejoin:round;fill:none"
d="M 76750,18000
77000,18250
77250,18250
77250,17750
77000,17750
Z" /> 
</g>
<g style="fill:#848400; fill-opacity:0.0; 
stroke:#848400; stroke-width:0; stroke-opacity:1; 
stroke-linecap:round; stroke-linejoin:round;">
</g>
<g style="fill:#008400; fill-opacity:0.0; 
stroke:#008400; stroke-width:0; stroke-opacity:1; 
stroke-linecap:round; stroke-linejoin:round;">
</g>
<g style="fill:#008400; fill-opacity:1.0; 
stroke:#008400; stroke-width:100; stroke-opacity:1; 
stroke-linecap:round; stroke-linejoin:round;">
<circle cx="46250" cy="32500" r="200" /> 
</g> 
</svg>
