G04 #@! TF.GenerationSoftware,KiCad,Pcbnew,5.1.6-c6e7f7d~86~ubuntu18.04.1*
G04 #@! TF.CreationDate,2020-06-27T17:17:55+01:00*
G04 #@! TF.ProjectId,Controller,436f6e74-726f-46c6-9c65-722e6b696361,rev?*
G04 #@! TF.SameCoordinates,Original*
G04 #@! TF.FileFunction,Legend,Top*
G04 #@! TF.FilePolarity,Positive*
%FSLAX46Y46*%
G04 Gerber Fmt 4.6, Leading zero omitted, Abs format (unit mm)*
G04 Created by KiCad (PCBNEW 5.1.6-c6e7f7d~86~ubuntu18.04.1) date 2020-06-27 17:17:55*
%MOMM*%
%LPD*%
G01*
G04 APERTURE LIST*
%ADD10C,0.100000*%
%ADD11C,0.120000*%
%ADD12C,0.150000*%
G04 APERTURE END LIST*
D10*
X159277200Y-103765733D02*
X159277200Y-103999066D01*
X159643866Y-103999066D02*
X158943866Y-103999066D01*
X158943866Y-103665733D01*
X159643866Y-103399066D02*
X158943866Y-103399066D01*
X158943866Y-103165733D02*
X158943866Y-102765733D01*
X159643866Y-102965733D02*
X158943866Y-102965733D01*
X158943866Y-101999066D02*
X159510533Y-101999066D01*
X159577200Y-101965733D01*
X159610533Y-101932400D01*
X159643866Y-101865733D01*
X159643866Y-101732400D01*
X159610533Y-101665733D01*
X159577200Y-101632400D01*
X159510533Y-101599066D01*
X158943866Y-101599066D01*
X159010533Y-101299066D02*
X158977200Y-101265733D01*
X158943866Y-101199066D01*
X158943866Y-101032400D01*
X158977200Y-100965733D01*
X159010533Y-100932400D01*
X159077200Y-100899066D01*
X159143866Y-100899066D01*
X159243866Y-100932400D01*
X159643866Y-101332400D01*
X159643866Y-100899066D01*
X158943866Y-100132400D02*
X159643866Y-99965733D01*
X159143866Y-99832400D01*
X159643866Y-99699066D01*
X158943866Y-99532400D01*
X159643866Y-99265733D02*
X158943866Y-99265733D01*
X159277200Y-99265733D02*
X159277200Y-98865733D01*
X159643866Y-98865733D02*
X158943866Y-98865733D01*
X159277200Y-98532400D02*
X159277200Y-98299066D01*
X159643866Y-98199066D02*
X159643866Y-98532400D01*
X158943866Y-98532400D01*
X158943866Y-98199066D01*
X159643866Y-97899066D02*
X158943866Y-97899066D01*
X159643866Y-97499066D01*
X158943866Y-97499066D01*
X160093866Y-104949066D02*
X160793866Y-104715733D01*
X160093866Y-104482400D01*
X160793866Y-104249066D02*
X160093866Y-104249066D01*
X160793866Y-103915733D02*
X160093866Y-103915733D01*
X160793866Y-103515733D01*
X160093866Y-103515733D01*
X160327200Y-103182400D02*
X160527200Y-102649066D01*
X160727200Y-103182400D01*
X160093866Y-101982400D02*
X160093866Y-102315733D01*
X160427200Y-102349066D01*
X160393866Y-102315733D01*
X160360533Y-102249066D01*
X160360533Y-102082400D01*
X160393866Y-102015733D01*
X160427200Y-101982400D01*
X160493866Y-101949066D01*
X160660533Y-101949066D01*
X160727200Y-101982400D01*
X160760533Y-102015733D01*
X160793866Y-102082400D01*
X160793866Y-102249066D01*
X160760533Y-102315733D01*
X160727200Y-102349066D01*
X160093866Y-101749066D02*
X160793866Y-101515733D01*
X160093866Y-101282400D01*
X160760533Y-101015733D02*
X160793866Y-101015733D01*
X160860533Y-101049066D01*
X160893866Y-101082400D01*
X160727200Y-99782400D02*
X160760533Y-99815733D01*
X160793866Y-99915733D01*
X160793866Y-99982400D01*
X160760533Y-100082400D01*
X160693866Y-100149066D01*
X160627200Y-100182400D01*
X160493866Y-100215733D01*
X160393866Y-100215733D01*
X160260533Y-100182400D01*
X160193866Y-100149066D01*
X160127200Y-100082400D01*
X160093866Y-99982400D01*
X160093866Y-99915733D01*
X160127200Y-99815733D01*
X160160533Y-99782400D01*
X160093866Y-99482400D02*
X160660533Y-99482400D01*
X160727200Y-99449066D01*
X160760533Y-99415733D01*
X160793866Y-99349066D01*
X160793866Y-99215733D01*
X160760533Y-99149066D01*
X160727200Y-99115733D01*
X160660533Y-99082400D01*
X160093866Y-99082400D01*
X160093866Y-98849066D02*
X160093866Y-98449066D01*
X160793866Y-98649066D02*
X160093866Y-98649066D01*
X160093866Y-97482400D02*
X160593866Y-97482400D01*
X160693866Y-97515733D01*
X160760533Y-97582400D01*
X160793866Y-97682400D01*
X160793866Y-97749066D01*
X160793866Y-97149066D02*
X160093866Y-97149066D01*
X160093866Y-96882400D01*
X160127200Y-96815733D01*
X160160533Y-96782400D01*
X160227200Y-96749066D01*
X160327200Y-96749066D01*
X160393866Y-96782400D01*
X160427200Y-96815733D01*
X160460533Y-96882400D01*
X160460533Y-97149066D01*
X160793866Y-96082400D02*
X160793866Y-96482400D01*
X160793866Y-96282400D02*
X160093866Y-96282400D01*
X160193866Y-96349066D01*
X160260533Y-96415733D01*
X160293866Y-96482400D01*
X161243866Y-102232400D02*
X161743866Y-102232400D01*
X161843866Y-102265733D01*
X161910533Y-102332400D01*
X161943866Y-102432400D01*
X161943866Y-102499066D01*
X161243866Y-101765733D02*
X161243866Y-101632400D01*
X161277200Y-101565733D01*
X161343866Y-101499066D01*
X161477200Y-101465733D01*
X161710533Y-101465733D01*
X161843866Y-101499066D01*
X161910533Y-101565733D01*
X161943866Y-101632400D01*
X161943866Y-101765733D01*
X161910533Y-101832400D01*
X161843866Y-101899066D01*
X161710533Y-101932400D01*
X161477200Y-101932400D01*
X161343866Y-101899066D01*
X161277200Y-101832400D01*
X161243866Y-101765733D01*
X161943866Y-101165733D02*
X161243866Y-101165733D01*
X161943866Y-100832400D02*
X161243866Y-100832400D01*
X161943866Y-100432400D01*
X161243866Y-100432400D01*
X161243866Y-99365733D02*
X161743866Y-99365733D01*
X161843866Y-99399066D01*
X161910533Y-99465733D01*
X161943866Y-99565733D01*
X161943866Y-99632400D01*
X161943866Y-99032400D02*
X161243866Y-99032400D01*
X161243866Y-98765733D01*
X161277200Y-98699066D01*
X161310533Y-98665733D01*
X161377200Y-98632400D01*
X161477200Y-98632400D01*
X161543866Y-98665733D01*
X161577200Y-98699066D01*
X161610533Y-98765733D01*
X161610533Y-99032400D01*
X161310533Y-98365733D02*
X161277200Y-98332400D01*
X161243866Y-98265733D01*
X161243866Y-98099066D01*
X161277200Y-98032400D01*
X161310533Y-97999066D01*
X161377200Y-97965733D01*
X161443866Y-97965733D01*
X161543866Y-97999066D01*
X161943866Y-98399066D01*
X161943866Y-97965733D01*
X110026880Y-122516357D02*
X109760214Y-122516357D01*
X109760214Y-122935404D02*
X109760214Y-122135404D01*
X110141166Y-122135404D01*
X110445928Y-122935404D02*
X110445928Y-122135404D01*
X110712595Y-122135404D02*
X111169738Y-122135404D01*
X110941166Y-122935404D02*
X110941166Y-122135404D01*
X112045928Y-122135404D02*
X112045928Y-122783023D01*
X112084023Y-122859214D01*
X112122119Y-122897309D01*
X112198309Y-122935404D01*
X112350690Y-122935404D01*
X112426880Y-122897309D01*
X112464976Y-122859214D01*
X112503071Y-122783023D01*
X112503071Y-122135404D01*
X113226880Y-122402071D02*
X113226880Y-122935404D01*
X113036404Y-122097309D02*
X112845928Y-122668738D01*
X113341166Y-122668738D01*
X114179261Y-122135404D02*
X114369738Y-122935404D01*
X114522119Y-122363976D01*
X114674500Y-122935404D01*
X114864976Y-122135404D01*
X115169738Y-122935404D02*
X115169738Y-122135404D01*
X115169738Y-122516357D02*
X115626880Y-122516357D01*
X115626880Y-122935404D02*
X115626880Y-122135404D01*
X116007833Y-122516357D02*
X116274500Y-122516357D01*
X116388785Y-122935404D02*
X116007833Y-122935404D01*
X116007833Y-122135404D01*
X116388785Y-122135404D01*
X116731642Y-122935404D02*
X116731642Y-122135404D01*
X117188785Y-122935404D01*
X117188785Y-122135404D01*
X111188785Y-123435404D02*
X111455452Y-124235404D01*
X111722119Y-123435404D01*
X111988785Y-124235404D02*
X111988785Y-123435404D01*
X112369738Y-124235404D02*
X112369738Y-123435404D01*
X112826880Y-124235404D01*
X112826880Y-123435404D01*
X113207833Y-123702071D02*
X113817357Y-123930642D01*
X113207833Y-124159214D01*
X114579261Y-123435404D02*
X114198309Y-123435404D01*
X114160214Y-123816357D01*
X114198309Y-123778261D01*
X114274500Y-123740166D01*
X114464976Y-123740166D01*
X114541166Y-123778261D01*
X114579261Y-123816357D01*
X114617357Y-123892547D01*
X114617357Y-124083023D01*
X114579261Y-124159214D01*
X114541166Y-124197309D01*
X114464976Y-124235404D01*
X114274500Y-124235404D01*
X114198309Y-124197309D01*
X114160214Y-124159214D01*
X114845928Y-123435404D02*
X115112595Y-124235404D01*
X115379261Y-123435404D01*
X115684023Y-124197309D02*
X115684023Y-124235404D01*
X115645928Y-124311595D01*
X115607833Y-124349690D01*
X111417357Y-125459214D02*
X111379261Y-125497309D01*
X111264976Y-125535404D01*
X111188785Y-125535404D01*
X111074500Y-125497309D01*
X110998309Y-125421119D01*
X110960214Y-125344928D01*
X110922119Y-125192547D01*
X110922119Y-125078261D01*
X110960214Y-124925880D01*
X110998309Y-124849690D01*
X111074500Y-124773500D01*
X111188785Y-124735404D01*
X111264976Y-124735404D01*
X111379261Y-124773500D01*
X111417357Y-124811595D01*
X111760214Y-124735404D02*
X111760214Y-125383023D01*
X111798309Y-125459214D01*
X111836404Y-125497309D01*
X111912595Y-125535404D01*
X112064976Y-125535404D01*
X112141166Y-125497309D01*
X112179261Y-125459214D01*
X112217357Y-125383023D01*
X112217357Y-124735404D01*
X112484023Y-124735404D02*
X112941166Y-124735404D01*
X112712595Y-125535404D02*
X112712595Y-124735404D01*
X114045928Y-124735404D02*
X114045928Y-125306833D01*
X114007833Y-125421119D01*
X113931642Y-125497309D01*
X113817357Y-125535404D01*
X113741166Y-125535404D01*
X114426880Y-125535404D02*
X114426880Y-124735404D01*
X114731642Y-124735404D01*
X114807833Y-124773500D01*
X114845928Y-124811595D01*
X114884023Y-124887785D01*
X114884023Y-125002071D01*
X114845928Y-125078261D01*
X114807833Y-125116357D01*
X114731642Y-125154452D01*
X114426880Y-125154452D01*
X115150690Y-124735404D02*
X115645928Y-124735404D01*
X115379261Y-125040166D01*
X115493547Y-125040166D01*
X115569738Y-125078261D01*
X115607833Y-125116357D01*
X115645928Y-125192547D01*
X115645928Y-125383023D01*
X115607833Y-125459214D01*
X115569738Y-125497309D01*
X115493547Y-125535404D01*
X115264976Y-125535404D01*
X115188785Y-125497309D01*
X115150690Y-125459214D01*
X116026880Y-125497309D02*
X116026880Y-125535404D01*
X115988785Y-125611595D01*
X115950690Y-125649690D01*
X111169738Y-126035404D02*
X111169738Y-126606833D01*
X111131642Y-126721119D01*
X111055452Y-126797309D01*
X110941166Y-126835404D01*
X110864976Y-126835404D01*
X111703071Y-126035404D02*
X111855452Y-126035404D01*
X111931642Y-126073500D01*
X112007833Y-126149690D01*
X112045928Y-126302071D01*
X112045928Y-126568738D01*
X112007833Y-126721119D01*
X111931642Y-126797309D01*
X111855452Y-126835404D01*
X111703071Y-126835404D01*
X111626880Y-126797309D01*
X111550690Y-126721119D01*
X111512595Y-126568738D01*
X111512595Y-126302071D01*
X111550690Y-126149690D01*
X111626880Y-126073500D01*
X111703071Y-126035404D01*
X112388785Y-126835404D02*
X112388785Y-126035404D01*
X112769738Y-126835404D02*
X112769738Y-126035404D01*
X113226880Y-126835404D01*
X113226880Y-126035404D01*
X114445928Y-126035404D02*
X114445928Y-126606833D01*
X114407833Y-126721119D01*
X114331642Y-126797309D01*
X114217357Y-126835404D01*
X114141166Y-126835404D01*
X114826880Y-126835404D02*
X114826880Y-126035404D01*
X115131642Y-126035404D01*
X115207833Y-126073500D01*
X115245928Y-126111595D01*
X115284023Y-126187785D01*
X115284023Y-126302071D01*
X115245928Y-126378261D01*
X115207833Y-126416357D01*
X115131642Y-126454452D01*
X114826880Y-126454452D01*
X115969738Y-126302071D02*
X115969738Y-126835404D01*
X115779261Y-125997309D02*
X115588785Y-126568738D01*
X116084023Y-126568738D01*
X109957380Y-96335904D02*
X110452619Y-96335904D01*
X110185952Y-96640666D01*
X110300238Y-96640666D01*
X110376428Y-96678761D01*
X110414523Y-96716857D01*
X110452619Y-96793047D01*
X110452619Y-96983523D01*
X110414523Y-97059714D01*
X110376428Y-97097809D01*
X110300238Y-97135904D01*
X110071666Y-97135904D01*
X109995476Y-97097809D01*
X109957380Y-97059714D01*
X110681190Y-96335904D02*
X110947857Y-97135904D01*
X111214523Y-96335904D01*
X111405000Y-96335904D02*
X111900238Y-96335904D01*
X111633571Y-96640666D01*
X111747857Y-96640666D01*
X111824047Y-96678761D01*
X111862142Y-96716857D01*
X111900238Y-96793047D01*
X111900238Y-96983523D01*
X111862142Y-97059714D01*
X111824047Y-97097809D01*
X111747857Y-97135904D01*
X111519285Y-97135904D01*
X111443095Y-97097809D01*
X111405000Y-97059714D01*
X113309761Y-97059714D02*
X113271666Y-97097809D01*
X113157380Y-97135904D01*
X113081190Y-97135904D01*
X112966904Y-97097809D01*
X112890714Y-97021619D01*
X112852619Y-96945428D01*
X112814523Y-96793047D01*
X112814523Y-96678761D01*
X112852619Y-96526380D01*
X112890714Y-96450190D01*
X112966904Y-96374000D01*
X113081190Y-96335904D01*
X113157380Y-96335904D01*
X113271666Y-96374000D01*
X113309761Y-96412095D01*
X114033571Y-97135904D02*
X113652619Y-97135904D01*
X113652619Y-96335904D01*
X114300238Y-97135904D02*
X114300238Y-96335904D01*
X114757380Y-97135904D02*
X114414523Y-96678761D01*
X114757380Y-96335904D02*
X114300238Y-96793047D01*
X116128809Y-96374000D02*
X116052619Y-96335904D01*
X115938333Y-96335904D01*
X115824047Y-96374000D01*
X115747857Y-96450190D01*
X115709761Y-96526380D01*
X115671666Y-96678761D01*
X115671666Y-96793047D01*
X115709761Y-96945428D01*
X115747857Y-97021619D01*
X115824047Y-97097809D01*
X115938333Y-97135904D01*
X116014523Y-97135904D01*
X116128809Y-97097809D01*
X116166904Y-97059714D01*
X116166904Y-96793047D01*
X116014523Y-96793047D01*
X116509761Y-97135904D02*
X116509761Y-96335904D01*
X116966904Y-97135904D01*
X116966904Y-96335904D01*
X117347857Y-97135904D02*
X117347857Y-96335904D01*
X117538333Y-96335904D01*
X117652619Y-96374000D01*
X117728809Y-96450190D01*
X117766904Y-96526380D01*
X117805000Y-96678761D01*
X117805000Y-96793047D01*
X117766904Y-96945428D01*
X117728809Y-97021619D01*
X117652619Y-97097809D01*
X117538333Y-97135904D01*
X117347857Y-97135904D01*
X118757380Y-97135904D02*
X118757380Y-96335904D01*
X119290714Y-96335904D02*
X119443095Y-96335904D01*
X119519285Y-96374000D01*
X119595476Y-96450190D01*
X119633571Y-96602571D01*
X119633571Y-96869238D01*
X119595476Y-97021619D01*
X119519285Y-97097809D01*
X119443095Y-97135904D01*
X119290714Y-97135904D01*
X119214523Y-97097809D01*
X119138333Y-97021619D01*
X119100238Y-96869238D01*
X119100238Y-96602571D01*
X119138333Y-96450190D01*
X119214523Y-96374000D01*
X119290714Y-96335904D01*
X121043095Y-97135904D02*
X120776428Y-96754952D01*
X120585952Y-97135904D02*
X120585952Y-96335904D01*
X120890714Y-96335904D01*
X120966904Y-96374000D01*
X121005000Y-96412095D01*
X121043095Y-96488285D01*
X121043095Y-96602571D01*
X121005000Y-96678761D01*
X120966904Y-96716857D01*
X120890714Y-96754952D01*
X120585952Y-96754952D01*
X121347857Y-97097809D02*
X121462142Y-97135904D01*
X121652619Y-97135904D01*
X121728809Y-97097809D01*
X121766904Y-97059714D01*
X121805000Y-96983523D01*
X121805000Y-96907333D01*
X121766904Y-96831142D01*
X121728809Y-96793047D01*
X121652619Y-96754952D01*
X121500238Y-96716857D01*
X121424047Y-96678761D01*
X121385952Y-96640666D01*
X121347857Y-96564476D01*
X121347857Y-96488285D01*
X121385952Y-96412095D01*
X121424047Y-96374000D01*
X121500238Y-96335904D01*
X121690714Y-96335904D01*
X121805000Y-96374000D01*
X122033571Y-96335904D02*
X122490714Y-96335904D01*
X122262142Y-97135904D02*
X122262142Y-96335904D01*
D11*
X125670000Y-115249000D02*
X128330000Y-115249000D01*
X125670000Y-115189000D02*
X125670000Y-115249000D01*
X128330000Y-115189000D02*
X128330000Y-115249000D01*
X125670000Y-115189000D02*
X128330000Y-115189000D01*
X125670000Y-113919000D02*
X125670000Y-112589000D01*
X125670000Y-112589000D02*
X127000000Y-112589000D01*
X125670000Y-120329000D02*
X128330000Y-120329000D01*
X125670000Y-120269000D02*
X125670000Y-120329000D01*
X128330000Y-120269000D02*
X128330000Y-120329000D01*
X125670000Y-120269000D02*
X128330000Y-120269000D01*
X125670000Y-118999000D02*
X125670000Y-117669000D01*
X125670000Y-117669000D02*
X127000000Y-117669000D01*
X124585800Y-105010852D02*
X124585800Y-104488348D01*
X123165800Y-105010852D02*
X123165800Y-104488348D01*
X123165800Y-108298348D02*
X123165800Y-108820852D01*
X124585800Y-108298348D02*
X124585800Y-108820852D01*
X106470000Y-112575000D02*
X106470000Y-112805000D01*
X106470000Y-117295000D02*
X106470000Y-117065000D01*
X106470000Y-117295000D02*
X103750000Y-117295000D01*
X103750000Y-117295000D02*
X103750000Y-115985000D01*
X107610000Y-117065000D02*
X106470000Y-117065000D01*
X103750000Y-112575000D02*
X106470000Y-112575000D01*
X103750000Y-113885000D02*
X103750000Y-112575000D01*
X120813000Y-119996000D02*
X114803000Y-119996000D01*
X118563000Y-113176000D02*
X114803000Y-113176000D01*
X114803000Y-119996000D02*
X114803000Y-118736000D01*
X114803000Y-113176000D02*
X114803000Y-114436000D01*
X158278000Y-104502000D02*
X152268000Y-104502000D01*
X156028000Y-97682000D02*
X152268000Y-97682000D01*
X152268000Y-104502000D02*
X152268000Y-103242000D01*
X152268000Y-97682000D02*
X152268000Y-98942000D01*
X122825000Y-119764000D02*
X122825000Y-116964000D01*
X122825000Y-116964000D02*
X124825000Y-116964000D01*
X124825000Y-116964000D02*
X124825000Y-119764000D01*
X124825000Y-119764000D02*
X122825000Y-119764000D01*
X124825000Y-113408000D02*
X124825000Y-116208000D01*
X124825000Y-116208000D02*
X122825000Y-116208000D01*
X122825000Y-116208000D02*
X122825000Y-113408000D01*
X122825000Y-113408000D02*
X124825000Y-113408000D01*
X154302000Y-105680000D02*
X157102000Y-105680000D01*
X157102000Y-105680000D02*
X157102000Y-107680000D01*
X157102000Y-107680000D02*
X154302000Y-107680000D01*
X154302000Y-107680000D02*
X154302000Y-105680000D01*
X161054000Y-107680000D02*
X158254000Y-107680000D01*
X158254000Y-107680000D02*
X158254000Y-105680000D01*
X158254000Y-105680000D02*
X161054000Y-105680000D01*
X161054000Y-105680000D02*
X161054000Y-107680000D01*
X106139064Y-119105000D02*
X104934936Y-119105000D01*
X106139064Y-120925000D02*
X104934936Y-120925000D01*
X120925000Y-123538064D02*
X120925000Y-122333936D01*
X119105000Y-123538064D02*
X119105000Y-122333936D01*
X150093000Y-107601936D02*
X150093000Y-108806064D01*
X151913000Y-107601936D02*
X151913000Y-108806064D01*
X106012064Y-108945000D02*
X104807936Y-108945000D01*
X106012064Y-110765000D02*
X104807936Y-110765000D01*
X120925000Y-110457064D02*
X120925000Y-109252936D01*
X119105000Y-110457064D02*
X119105000Y-109252936D01*
X150220000Y-93758936D02*
X150220000Y-94963064D01*
X152040000Y-93758936D02*
X152040000Y-94963064D01*
X129973000Y-122611248D02*
X129973000Y-123133752D01*
X131393000Y-122611248D02*
X131393000Y-123133752D01*
X136854000Y-118879252D02*
X136854000Y-118356748D01*
X135434000Y-118879252D02*
X135434000Y-118356748D01*
X133466000Y-124482500D02*
X135916000Y-124482500D01*
X135266000Y-121262500D02*
X133466000Y-121262500D01*
X133215500Y-117858000D02*
X133215500Y-119318000D01*
X130055500Y-117858000D02*
X130055500Y-120018000D01*
X130055500Y-117858000D02*
X130985500Y-117858000D01*
X133215500Y-117858000D02*
X132285500Y-117858000D01*
X130261000Y-112284000D02*
X134111000Y-112284000D01*
X130261000Y-114284000D02*
X134111000Y-114284000D01*
X130261000Y-112284000D02*
X130261000Y-114284000D01*
X139425300Y-116259000D02*
X139425300Y-117574000D01*
X139125300Y-116259000D02*
X139425300Y-116259000D01*
X139125300Y-115959000D02*
X139125300Y-116259000D01*
X139125300Y-109039000D02*
X139425300Y-109039000D01*
X139125300Y-109339000D02*
X139125300Y-109039000D01*
X146345300Y-116259000D02*
X146045300Y-116259000D01*
X146345300Y-115959000D02*
X146345300Y-116259000D01*
X146345300Y-109039000D02*
X146045300Y-109039000D01*
X146345300Y-109339000D02*
X146345300Y-109039000D01*
D12*
X122575580Y-104890866D02*
X122099390Y-105224200D01*
X122575580Y-105462295D02*
X121575580Y-105462295D01*
X121575580Y-105081342D01*
X121623200Y-104986104D01*
X121670819Y-104938485D01*
X121766057Y-104890866D01*
X121908914Y-104890866D01*
X122004152Y-104938485D01*
X122051771Y-104986104D01*
X122099390Y-105081342D01*
X122099390Y-105462295D01*
X121575580Y-104557533D02*
X121575580Y-103938485D01*
X121956533Y-104271819D01*
X121956533Y-104128961D01*
X122004152Y-104033723D01*
X122051771Y-103986104D01*
X122147009Y-103938485D01*
X122385104Y-103938485D01*
X122480342Y-103986104D01*
X122527961Y-104033723D01*
X122575580Y-104128961D01*
X122575580Y-104414676D01*
X122527961Y-104509914D01*
X122480342Y-104557533D01*
X122677180Y-108726266D02*
X122200990Y-109059600D01*
X122677180Y-109297695D02*
X121677180Y-109297695D01*
X121677180Y-108916742D01*
X121724800Y-108821504D01*
X121772419Y-108773885D01*
X121867657Y-108726266D01*
X122010514Y-108726266D01*
X122105752Y-108773885D01*
X122153371Y-108821504D01*
X122200990Y-108916742D01*
X122200990Y-109297695D01*
X121772419Y-108345314D02*
X121724800Y-108297695D01*
X121677180Y-108202457D01*
X121677180Y-107964361D01*
X121724800Y-107869123D01*
X121772419Y-107821504D01*
X121867657Y-107773885D01*
X121962895Y-107773885D01*
X122105752Y-107821504D01*
X122677180Y-108392933D01*
X122677180Y-107773885D01*
X108418380Y-115696904D02*
X109227904Y-115696904D01*
X109323142Y-115649285D01*
X109370761Y-115601666D01*
X109418380Y-115506428D01*
X109418380Y-115315952D01*
X109370761Y-115220714D01*
X109323142Y-115173095D01*
X109227904Y-115125476D01*
X108418380Y-115125476D01*
X108418380Y-114173095D02*
X108418380Y-114649285D01*
X108894571Y-114696904D01*
X108846952Y-114649285D01*
X108799333Y-114554047D01*
X108799333Y-114315952D01*
X108846952Y-114220714D01*
X108894571Y-114173095D01*
X108989809Y-114125476D01*
X109227904Y-114125476D01*
X109323142Y-114173095D01*
X109370761Y-114220714D01*
X109418380Y-114315952D01*
X109418380Y-114554047D01*
X109370761Y-114649285D01*
X109323142Y-114696904D01*
X112903095Y-110450380D02*
X112903095Y-111259904D01*
X112950714Y-111355142D01*
X112998333Y-111402761D01*
X113093571Y-111450380D01*
X113284047Y-111450380D01*
X113379285Y-111402761D01*
X113426904Y-111355142D01*
X113474523Y-111259904D01*
X113474523Y-110450380D01*
X114379285Y-110783714D02*
X114379285Y-111450380D01*
X114141190Y-110402761D02*
X113903095Y-111117047D01*
X114522142Y-111117047D01*
X154432095Y-96099380D02*
X154432095Y-96908904D01*
X154479714Y-97004142D01*
X154527333Y-97051761D01*
X154622571Y-97099380D01*
X154813047Y-97099380D01*
X154908285Y-97051761D01*
X154955904Y-97004142D01*
X155003523Y-96908904D01*
X155003523Y-96099380D01*
X155432095Y-96194619D02*
X155479714Y-96147000D01*
X155574952Y-96099380D01*
X155813047Y-96099380D01*
X155908285Y-96147000D01*
X155955904Y-96194619D01*
X156003523Y-96289857D01*
X156003523Y-96385095D01*
X155955904Y-96527952D01*
X155384476Y-97099380D01*
X156003523Y-97099380D01*
X122991666Y-120229380D02*
X122991666Y-120943666D01*
X122944047Y-121086523D01*
X122848809Y-121181761D01*
X122705952Y-121229380D01*
X122610714Y-121229380D01*
X123467857Y-121229380D02*
X123467857Y-120229380D01*
X123848809Y-120229380D01*
X123944047Y-120277000D01*
X123991666Y-120324619D01*
X124039285Y-120419857D01*
X124039285Y-120562714D01*
X123991666Y-120657952D01*
X123944047Y-120705571D01*
X123848809Y-120753190D01*
X123467857Y-120753190D01*
X124896428Y-120562714D02*
X124896428Y-121229380D01*
X124658333Y-120181761D02*
X124420238Y-120896047D01*
X125039285Y-120896047D01*
X122991666Y-111974380D02*
X122991666Y-112688666D01*
X122944047Y-112831523D01*
X122848809Y-112926761D01*
X122705952Y-112974380D01*
X122610714Y-112974380D01*
X123467857Y-112974380D02*
X123467857Y-111974380D01*
X123848809Y-111974380D01*
X123944047Y-112022000D01*
X123991666Y-112069619D01*
X124039285Y-112164857D01*
X124039285Y-112307714D01*
X123991666Y-112402952D01*
X123944047Y-112450571D01*
X123848809Y-112498190D01*
X123467857Y-112498190D01*
X124372619Y-111974380D02*
X124991666Y-111974380D01*
X124658333Y-112355333D01*
X124801190Y-112355333D01*
X124896428Y-112402952D01*
X124944047Y-112450571D01*
X124991666Y-112545809D01*
X124991666Y-112783904D01*
X124944047Y-112879142D01*
X124896428Y-112926761D01*
X124801190Y-112974380D01*
X124515476Y-112974380D01*
X124420238Y-112926761D01*
X124372619Y-112879142D01*
X152741380Y-107640333D02*
X153455666Y-107640333D01*
X153598523Y-107687952D01*
X153693761Y-107783190D01*
X153741380Y-107926047D01*
X153741380Y-108021285D01*
X153741380Y-107164142D02*
X152741380Y-107164142D01*
X152741380Y-106783190D01*
X152789000Y-106687952D01*
X152836619Y-106640333D01*
X152931857Y-106592714D01*
X153074714Y-106592714D01*
X153169952Y-106640333D01*
X153217571Y-106687952D01*
X153265190Y-106783190D01*
X153265190Y-107164142D01*
X152836619Y-106211761D02*
X152789000Y-106164142D01*
X152741380Y-106068904D01*
X152741380Y-105830809D01*
X152789000Y-105735571D01*
X152836619Y-105687952D01*
X152931857Y-105640333D01*
X153027095Y-105640333D01*
X153169952Y-105687952D01*
X153741380Y-106259380D01*
X153741380Y-105640333D01*
X161377380Y-107513333D02*
X162091666Y-107513333D01*
X162234523Y-107560952D01*
X162329761Y-107656190D01*
X162377380Y-107799047D01*
X162377380Y-107894285D01*
X162377380Y-107037142D02*
X161377380Y-107037142D01*
X161377380Y-106656190D01*
X161425000Y-106560952D01*
X161472619Y-106513333D01*
X161567857Y-106465714D01*
X161710714Y-106465714D01*
X161805952Y-106513333D01*
X161853571Y-106560952D01*
X161901190Y-106656190D01*
X161901190Y-107037142D01*
X162377380Y-105513333D02*
X162377380Y-106084761D01*
X162377380Y-105799047D02*
X161377380Y-105799047D01*
X161520238Y-105894285D01*
X161615476Y-105989523D01*
X161663095Y-106084761D01*
X109196142Y-120181666D02*
X109243761Y-120229285D01*
X109291380Y-120372142D01*
X109291380Y-120467380D01*
X109243761Y-120610238D01*
X109148523Y-120705476D01*
X109053285Y-120753095D01*
X108862809Y-120800714D01*
X108719952Y-120800714D01*
X108529476Y-120753095D01*
X108434238Y-120705476D01*
X108339000Y-120610238D01*
X108291380Y-120467380D01*
X108291380Y-120372142D01*
X108339000Y-120229285D01*
X108386619Y-120181666D01*
X108291380Y-119324523D02*
X108291380Y-119515000D01*
X108339000Y-119610238D01*
X108386619Y-119657857D01*
X108529476Y-119753095D01*
X108719952Y-119800714D01*
X109100904Y-119800714D01*
X109196142Y-119753095D01*
X109243761Y-119705476D01*
X109291380Y-119610238D01*
X109291380Y-119419761D01*
X109243761Y-119324523D01*
X109196142Y-119276904D01*
X109100904Y-119229285D01*
X108862809Y-119229285D01*
X108767571Y-119276904D01*
X108719952Y-119324523D01*
X108672333Y-119419761D01*
X108672333Y-119610238D01*
X108719952Y-119705476D01*
X108767571Y-119753095D01*
X108862809Y-119800714D01*
X119848333Y-126722142D02*
X119800714Y-126769761D01*
X119657857Y-126817380D01*
X119562619Y-126817380D01*
X119419761Y-126769761D01*
X119324523Y-126674523D01*
X119276904Y-126579285D01*
X119229285Y-126388809D01*
X119229285Y-126245952D01*
X119276904Y-126055476D01*
X119324523Y-125960238D01*
X119419761Y-125865000D01*
X119562619Y-125817380D01*
X119657857Y-125817380D01*
X119800714Y-125865000D01*
X119848333Y-125912619D01*
X120753095Y-125817380D02*
X120276904Y-125817380D01*
X120229285Y-126293571D01*
X120276904Y-126245952D01*
X120372142Y-126198333D01*
X120610238Y-126198333D01*
X120705476Y-126245952D01*
X120753095Y-126293571D01*
X120800714Y-126388809D01*
X120800714Y-126626904D01*
X120753095Y-126722142D01*
X120705476Y-126769761D01*
X120610238Y-126817380D01*
X120372142Y-126817380D01*
X120276904Y-126769761D01*
X120229285Y-126722142D01*
X150836333Y-111913942D02*
X150788714Y-111961561D01*
X150645857Y-112009180D01*
X150550619Y-112009180D01*
X150407761Y-111961561D01*
X150312523Y-111866323D01*
X150264904Y-111771085D01*
X150217285Y-111580609D01*
X150217285Y-111437752D01*
X150264904Y-111247276D01*
X150312523Y-111152038D01*
X150407761Y-111056800D01*
X150550619Y-111009180D01*
X150645857Y-111009180D01*
X150788714Y-111056800D01*
X150836333Y-111104419D01*
X151693476Y-111342514D02*
X151693476Y-112009180D01*
X151455380Y-110961561D02*
X151217285Y-111675847D01*
X151836333Y-111675847D01*
X109323142Y-110021666D02*
X109370761Y-110069285D01*
X109418380Y-110212142D01*
X109418380Y-110307380D01*
X109370761Y-110450238D01*
X109275523Y-110545476D01*
X109180285Y-110593095D01*
X108989809Y-110640714D01*
X108846952Y-110640714D01*
X108656476Y-110593095D01*
X108561238Y-110545476D01*
X108466000Y-110450238D01*
X108418380Y-110307380D01*
X108418380Y-110212142D01*
X108466000Y-110069285D01*
X108513619Y-110021666D01*
X108418380Y-109688333D02*
X108418380Y-109069285D01*
X108799333Y-109402619D01*
X108799333Y-109259761D01*
X108846952Y-109164523D01*
X108894571Y-109116904D01*
X108989809Y-109069285D01*
X109227904Y-109069285D01*
X109323142Y-109116904D01*
X109370761Y-109164523D01*
X109418380Y-109259761D01*
X109418380Y-109545476D01*
X109370761Y-109640714D01*
X109323142Y-109688333D01*
X119848333Y-107164142D02*
X119800714Y-107211761D01*
X119657857Y-107259380D01*
X119562619Y-107259380D01*
X119419761Y-107211761D01*
X119324523Y-107116523D01*
X119276904Y-107021285D01*
X119229285Y-106830809D01*
X119229285Y-106687952D01*
X119276904Y-106497476D01*
X119324523Y-106402238D01*
X119419761Y-106307000D01*
X119562619Y-106259380D01*
X119657857Y-106259380D01*
X119800714Y-106307000D01*
X119848333Y-106354619D01*
X120229285Y-106354619D02*
X120276904Y-106307000D01*
X120372142Y-106259380D01*
X120610238Y-106259380D01*
X120705476Y-106307000D01*
X120753095Y-106354619D01*
X120800714Y-106449857D01*
X120800714Y-106545095D01*
X120753095Y-106687952D01*
X120181666Y-107259380D01*
X120800714Y-107259380D01*
X150963333Y-91543142D02*
X150915714Y-91590761D01*
X150772857Y-91638380D01*
X150677619Y-91638380D01*
X150534761Y-91590761D01*
X150439523Y-91495523D01*
X150391904Y-91400285D01*
X150344285Y-91209809D01*
X150344285Y-91066952D01*
X150391904Y-90876476D01*
X150439523Y-90781238D01*
X150534761Y-90686000D01*
X150677619Y-90638380D01*
X150772857Y-90638380D01*
X150915714Y-90686000D01*
X150963333Y-90733619D01*
X151915714Y-91638380D02*
X151344285Y-91638380D01*
X151630000Y-91638380D02*
X151630000Y-90638380D01*
X151534761Y-90781238D01*
X151439523Y-90876476D01*
X151344285Y-90924095D01*
X130516333Y-126118880D02*
X130183000Y-125642690D01*
X129944904Y-126118880D02*
X129944904Y-125118880D01*
X130325857Y-125118880D01*
X130421095Y-125166500D01*
X130468714Y-125214119D01*
X130516333Y-125309357D01*
X130516333Y-125452214D01*
X130468714Y-125547452D01*
X130421095Y-125595071D01*
X130325857Y-125642690D01*
X129944904Y-125642690D01*
X131373476Y-125452214D02*
X131373476Y-126118880D01*
X131135380Y-125071261D02*
X130897285Y-125785547D01*
X131516333Y-125785547D01*
X136040833Y-116530380D02*
X135707500Y-116054190D01*
X135469404Y-116530380D02*
X135469404Y-115530380D01*
X135850357Y-115530380D01*
X135945595Y-115578000D01*
X135993214Y-115625619D01*
X136040833Y-115720857D01*
X136040833Y-115863714D01*
X135993214Y-115958952D01*
X135945595Y-116006571D01*
X135850357Y-116054190D01*
X135469404Y-116054190D01*
X136993214Y-116530380D02*
X136421785Y-116530380D01*
X136707500Y-116530380D02*
X136707500Y-115530380D01*
X136612261Y-115673238D01*
X136517023Y-115768476D01*
X136421785Y-115816095D01*
X133604095Y-125182380D02*
X133604095Y-125991904D01*
X133651714Y-126087142D01*
X133699333Y-126134761D01*
X133794571Y-126182380D01*
X133985047Y-126182380D01*
X134080285Y-126134761D01*
X134127904Y-126087142D01*
X134175523Y-125991904D01*
X134175523Y-125182380D01*
X134556476Y-125182380D02*
X135175523Y-125182380D01*
X134842190Y-125563333D01*
X134985047Y-125563333D01*
X135080285Y-125610952D01*
X135127904Y-125658571D01*
X135175523Y-125753809D01*
X135175523Y-125991904D01*
X135127904Y-126087142D01*
X135080285Y-126134761D01*
X134985047Y-126182380D01*
X134699333Y-126182380D01*
X134604095Y-126134761D01*
X134556476Y-126087142D01*
X131540261Y-116625619D02*
X131445023Y-116578000D01*
X131349785Y-116482761D01*
X131206928Y-116339904D01*
X131111690Y-116292285D01*
X131016452Y-116292285D01*
X131064071Y-116530380D02*
X130968833Y-116482761D01*
X130873595Y-116387523D01*
X130825976Y-116197047D01*
X130825976Y-115863714D01*
X130873595Y-115673238D01*
X130968833Y-115578000D01*
X131064071Y-115530380D01*
X131254547Y-115530380D01*
X131349785Y-115578000D01*
X131445023Y-115673238D01*
X131492642Y-115863714D01*
X131492642Y-116197047D01*
X131445023Y-116387523D01*
X131349785Y-116482761D01*
X131254547Y-116530380D01*
X131064071Y-116530380D01*
X132445023Y-116530380D02*
X131873595Y-116530380D01*
X132159309Y-116530380D02*
X132159309Y-115530380D01*
X132064071Y-115673238D01*
X131968833Y-115768476D01*
X131873595Y-115816095D01*
X131722904Y-111704380D02*
X131722904Y-110704380D01*
X131961000Y-110704380D01*
X132103857Y-110752000D01*
X132199095Y-110847238D01*
X132246714Y-110942476D01*
X132294333Y-111132952D01*
X132294333Y-111275809D01*
X132246714Y-111466285D01*
X132199095Y-111561523D01*
X132103857Y-111656761D01*
X131961000Y-111704380D01*
X131722904Y-111704380D01*
X133246714Y-111704380D02*
X132675285Y-111704380D01*
X132961000Y-111704380D02*
X132961000Y-110704380D01*
X132865761Y-110847238D01*
X132770523Y-110942476D01*
X132675285Y-110990095D01*
X139687395Y-106259380D02*
X139687395Y-107068904D01*
X139735014Y-107164142D01*
X139782633Y-107211761D01*
X139877871Y-107259380D01*
X140068347Y-107259380D01*
X140163585Y-107211761D01*
X140211204Y-107164142D01*
X140258823Y-107068904D01*
X140258823Y-106259380D01*
X141258823Y-107259380D02*
X140687395Y-107259380D01*
X140973109Y-107259380D02*
X140973109Y-106259380D01*
X140877871Y-106402238D01*
X140782633Y-106497476D01*
X140687395Y-106545095D01*
M02*
