G04 #@! TF.GenerationSoftware,KiCad,Pcbnew,5.1.6-c6e7f7d~86~ubuntu18.04.1*
G04 #@! TF.CreationDate,2020-06-27T17:17:55+01:00*
G04 #@! TF.ProjectId,Controller,436f6e74-726f-46c6-9c65-722e6b696361,rev?*
G04 #@! TF.SameCoordinates,Original*
G04 #@! TF.FileFunction,Copper,L2,Bot*
G04 #@! TF.FilePolarity,Positive*
%FSLAX46Y46*%
G04 Gerber Fmt 4.6, Leading zero omitted, Abs format (unit mm)*
G04 Created by KiCad (PCBNEW 5.1.6-c6e7f7d~86~ubuntu18.04.1) date 2020-06-27 17:17:55*
%MOMM*%
%LPD*%
G01*
G04 APERTURE LIST*
G04 #@! TA.AperFunction,ComponentPad*
%ADD10R,1.700000X1.700000*%
G04 #@! TD*
G04 #@! TA.AperFunction,ComponentPad*
%ADD11O,2.190000X1.740000*%
G04 #@! TD*
G04 #@! TA.AperFunction,ComponentPad*
%ADD12C,2.000000*%
G04 #@! TD*
G04 #@! TA.AperFunction,ComponentPad*
%ADD13R,2.000000X2.000000*%
G04 #@! TD*
G04 #@! TA.AperFunction,ComponentPad*
%ADD14O,1.700000X1.700000*%
G04 #@! TD*
G04 #@! TA.AperFunction,WasherPad*
%ADD15C,5.000000*%
G04 #@! TD*
G04 #@! TA.AperFunction,ViaPad*
%ADD16C,0.800000*%
G04 #@! TD*
G04 #@! TA.AperFunction,Conductor*
%ADD17C,0.450000*%
G04 #@! TD*
G04 #@! TA.AperFunction,Conductor*
%ADD18C,1.000000*%
G04 #@! TD*
G04 #@! TA.AperFunction,Conductor*
%ADD19C,0.254000*%
G04 #@! TD*
G04 APERTURE END LIST*
D10*
X127000000Y-113919000D03*
X127000000Y-118999000D03*
D11*
X105410000Y-105410000D03*
G04 #@! TA.AperFunction,ComponentPad*
G36*
G01*
X104564999Y-102000000D02*
X106255001Y-102000000D01*
G75*
G02*
X106505000Y-102249999I0J-249999D01*
G01*
X106505000Y-103490001D01*
G75*
G02*
X106255001Y-103740000I-249999J0D01*
G01*
X104564999Y-103740000D01*
G75*
G02*
X104315000Y-103490001I0J249999D01*
G01*
X104315000Y-102249999D01*
G75*
G02*
X104564999Y-102000000I249999J0D01*
G01*
G37*
G04 #@! TD.AperFunction*
D12*
X127000000Y-124059000D03*
D13*
X127000000Y-116459000D03*
D14*
X144907000Y-122555000D03*
D10*
X144907000Y-125095000D03*
D14*
X147447000Y-122555000D03*
D10*
X147447000Y-125095000D03*
D14*
X142367000Y-122555000D03*
D10*
X142367000Y-125095000D03*
D14*
X156337000Y-117665500D03*
X158877000Y-117665500D03*
X156337000Y-115125500D03*
X158877000Y-115125500D03*
X156337000Y-112585500D03*
X158877000Y-112585500D03*
X156337000Y-110045500D03*
D10*
X158877000Y-110045500D03*
D15*
X157670500Y-92646500D03*
X105410000Y-125730000D03*
X157683200Y-125730000D03*
X105410000Y-92710000D03*
D14*
X127025400Y-104114600D03*
X127025400Y-106654600D03*
D10*
X127025400Y-109194600D03*
D14*
X121285000Y-99060000D03*
X118745000Y-99060000D03*
X116205000Y-99060000D03*
X113665000Y-99060000D03*
D10*
X111125000Y-99060000D03*
D14*
X147866100Y-95961200D03*
X147866100Y-93421200D03*
X145326100Y-95961200D03*
X145326100Y-93421200D03*
X142786100Y-95961200D03*
X142786100Y-93421200D03*
X140246100Y-95961200D03*
X140246100Y-93421200D03*
X137706100Y-95961200D03*
X137706100Y-93421200D03*
X135166100Y-95961200D03*
X135166100Y-93421200D03*
X132626100Y-95961200D03*
X132626100Y-93421200D03*
X130086100Y-95961200D03*
D10*
X130086100Y-93421200D03*
D16*
X146910300Y-108486700D03*
X138557000Y-117094000D03*
X133905500Y-119618000D03*
X118110000Y-121412000D03*
X118110000Y-108367500D03*
X152363500Y-109691500D03*
X157353000Y-104775000D03*
X142335300Y-118738592D03*
X123825000Y-99060000D03*
X121905000Y-114158000D03*
X124841000Y-126301500D03*
D17*
X142335300Y-118738592D02*
X142328900Y-118732192D01*
X142328900Y-118732192D02*
X142328900Y-116928900D01*
X123825000Y-99060000D02*
X126365000Y-99060000D01*
X142328900Y-115023900D02*
X142328900Y-118732192D01*
X126365000Y-99060000D02*
X142328900Y-115023900D01*
D18*
X121905000Y-109205000D02*
X115570000Y-102870000D01*
X121905000Y-124445000D02*
X121905000Y-109205000D01*
X124841000Y-126301500D02*
X123761500Y-126301500D01*
X115570000Y-102870000D02*
X105410000Y-102870000D01*
X123761500Y-126301500D02*
X121905000Y-124445000D01*
D19*
G36*
X156756054Y-89631976D02*
G01*
X156185521Y-89868299D01*
X155672054Y-90211386D01*
X155235386Y-90648054D01*
X154892299Y-91161521D01*
X154655976Y-91732054D01*
X154535500Y-92337729D01*
X154535500Y-92955271D01*
X154655976Y-93560946D01*
X154892299Y-94131479D01*
X155235386Y-94644946D01*
X155672054Y-95081614D01*
X156185521Y-95424701D01*
X156756054Y-95661024D01*
X157361729Y-95781500D01*
X157979271Y-95781500D01*
X158584946Y-95661024D01*
X159155479Y-95424701D01*
X159668946Y-95081614D01*
X160105614Y-94644946D01*
X160448701Y-94131479D01*
X160685024Y-93560946D01*
X160805500Y-92955271D01*
X160805500Y-92337729D01*
X160685024Y-91732054D01*
X160448701Y-91161521D01*
X160105614Y-90648054D01*
X159668946Y-90211386D01*
X159155479Y-89868299D01*
X158584946Y-89631976D01*
X158223097Y-89560000D01*
X161900000Y-89560000D01*
X161900001Y-128880000D01*
X102260000Y-128880000D01*
X102260000Y-125421229D01*
X102275000Y-125421229D01*
X102275000Y-126038771D01*
X102395476Y-126644446D01*
X102631799Y-127214979D01*
X102974886Y-127728446D01*
X103411554Y-128165114D01*
X103925021Y-128508201D01*
X104495554Y-128744524D01*
X105101229Y-128865000D01*
X105718771Y-128865000D01*
X106324446Y-128744524D01*
X106894979Y-128508201D01*
X107408446Y-128165114D01*
X107845114Y-127728446D01*
X108188201Y-127214979D01*
X108424524Y-126644446D01*
X108545000Y-126038771D01*
X108545000Y-125421229D01*
X108424524Y-124815554D01*
X108188201Y-124245021D01*
X107845114Y-123731554D01*
X107408446Y-123294886D01*
X106894979Y-122951799D01*
X106324446Y-122715476D01*
X105718771Y-122595000D01*
X105101229Y-122595000D01*
X104495554Y-122715476D01*
X103925021Y-122951799D01*
X103411554Y-123294886D01*
X102974886Y-123731554D01*
X102631799Y-124245021D01*
X102395476Y-124815554D01*
X102275000Y-125421229D01*
X102260000Y-125421229D01*
X102260000Y-102249999D01*
X103676928Y-102249999D01*
X103676928Y-103490001D01*
X103693992Y-103663255D01*
X103744528Y-103829851D01*
X103826595Y-103983387D01*
X103937038Y-104117962D01*
X104071613Y-104228405D01*
X104225149Y-104310472D01*
X104391745Y-104361008D01*
X104564999Y-104378072D01*
X106255001Y-104378072D01*
X106428255Y-104361008D01*
X106594851Y-104310472D01*
X106748387Y-104228405D01*
X106882962Y-104117962D01*
X106975668Y-104005000D01*
X115099869Y-104005000D01*
X120770001Y-109675133D01*
X120770000Y-124389249D01*
X120764509Y-124445000D01*
X120770000Y-124500751D01*
X120786423Y-124667498D01*
X120851324Y-124881446D01*
X120956716Y-125078623D01*
X121098551Y-125251449D01*
X121141865Y-125286996D01*
X122919509Y-127064640D01*
X122955051Y-127107949D01*
X123127877Y-127249784D01*
X123325053Y-127355176D01*
X123539001Y-127420077D01*
X123705748Y-127436500D01*
X123705757Y-127436500D01*
X123761499Y-127441990D01*
X123817241Y-127436500D01*
X124896752Y-127436500D01*
X125063499Y-127420077D01*
X125277447Y-127355176D01*
X125474623Y-127249784D01*
X125647449Y-127107949D01*
X125789284Y-126935123D01*
X125894676Y-126737947D01*
X125959577Y-126523999D01*
X125981491Y-126301500D01*
X125959577Y-126079001D01*
X125894676Y-125865053D01*
X125789284Y-125667877D01*
X125647449Y-125495051D01*
X125474623Y-125353216D01*
X125277447Y-125247824D01*
X125063499Y-125182923D01*
X124896752Y-125166500D01*
X124231632Y-125166500D01*
X123040000Y-123974869D01*
X123040000Y-123897967D01*
X125365000Y-123897967D01*
X125365000Y-124220033D01*
X125427832Y-124535912D01*
X125551082Y-124833463D01*
X125730013Y-125101252D01*
X125957748Y-125328987D01*
X126225537Y-125507918D01*
X126523088Y-125631168D01*
X126838967Y-125694000D01*
X127161033Y-125694000D01*
X127476912Y-125631168D01*
X127774463Y-125507918D01*
X128042252Y-125328987D01*
X128269987Y-125101252D01*
X128448918Y-124833463D01*
X128572168Y-124535912D01*
X128630033Y-124245000D01*
X140878928Y-124245000D01*
X140878928Y-125945000D01*
X140891188Y-126069482D01*
X140927498Y-126189180D01*
X140986463Y-126299494D01*
X141065815Y-126396185D01*
X141162506Y-126475537D01*
X141272820Y-126534502D01*
X141392518Y-126570812D01*
X141517000Y-126583072D01*
X143217000Y-126583072D01*
X143341482Y-126570812D01*
X143461180Y-126534502D01*
X143571494Y-126475537D01*
X143637000Y-126421778D01*
X143702506Y-126475537D01*
X143812820Y-126534502D01*
X143932518Y-126570812D01*
X144057000Y-126583072D01*
X145757000Y-126583072D01*
X145881482Y-126570812D01*
X146001180Y-126534502D01*
X146111494Y-126475537D01*
X146177000Y-126421778D01*
X146242506Y-126475537D01*
X146352820Y-126534502D01*
X146472518Y-126570812D01*
X146597000Y-126583072D01*
X148297000Y-126583072D01*
X148421482Y-126570812D01*
X148541180Y-126534502D01*
X148651494Y-126475537D01*
X148748185Y-126396185D01*
X148827537Y-126299494D01*
X148886502Y-126189180D01*
X148922812Y-126069482D01*
X148935072Y-125945000D01*
X148935072Y-125421229D01*
X154548200Y-125421229D01*
X154548200Y-126038771D01*
X154668676Y-126644446D01*
X154904999Y-127214979D01*
X155248086Y-127728446D01*
X155684754Y-128165114D01*
X156198221Y-128508201D01*
X156768754Y-128744524D01*
X157374429Y-128865000D01*
X157991971Y-128865000D01*
X158597646Y-128744524D01*
X159168179Y-128508201D01*
X159681646Y-128165114D01*
X160118314Y-127728446D01*
X160461401Y-127214979D01*
X160697724Y-126644446D01*
X160818200Y-126038771D01*
X160818200Y-125421229D01*
X160697724Y-124815554D01*
X160461401Y-124245021D01*
X160118314Y-123731554D01*
X159681646Y-123294886D01*
X159168179Y-122951799D01*
X158597646Y-122715476D01*
X157991971Y-122595000D01*
X157374429Y-122595000D01*
X156768754Y-122715476D01*
X156198221Y-122951799D01*
X155684754Y-123294886D01*
X155248086Y-123731554D01*
X154904999Y-124245021D01*
X154668676Y-124815554D01*
X154548200Y-125421229D01*
X148935072Y-125421229D01*
X148935072Y-124245000D01*
X148922812Y-124120518D01*
X148886502Y-124000820D01*
X148827537Y-123890506D01*
X148748185Y-123793815D01*
X148651494Y-123714463D01*
X148541180Y-123655498D01*
X148468620Y-123633487D01*
X148600475Y-123501632D01*
X148762990Y-123258411D01*
X148874932Y-122988158D01*
X148932000Y-122701260D01*
X148932000Y-122408740D01*
X148874932Y-122121842D01*
X148762990Y-121851589D01*
X148600475Y-121608368D01*
X148393632Y-121401525D01*
X148150411Y-121239010D01*
X147880158Y-121127068D01*
X147593260Y-121070000D01*
X147300740Y-121070000D01*
X147013842Y-121127068D01*
X146743589Y-121239010D01*
X146500368Y-121401525D01*
X146293525Y-121608368D01*
X146177000Y-121782760D01*
X146060475Y-121608368D01*
X145853632Y-121401525D01*
X145610411Y-121239010D01*
X145340158Y-121127068D01*
X145053260Y-121070000D01*
X144760740Y-121070000D01*
X144473842Y-121127068D01*
X144203589Y-121239010D01*
X143960368Y-121401525D01*
X143753525Y-121608368D01*
X143637000Y-121782760D01*
X143520475Y-121608368D01*
X143313632Y-121401525D01*
X143070411Y-121239010D01*
X142800158Y-121127068D01*
X142513260Y-121070000D01*
X142220740Y-121070000D01*
X141933842Y-121127068D01*
X141663589Y-121239010D01*
X141420368Y-121401525D01*
X141213525Y-121608368D01*
X141051010Y-121851589D01*
X140939068Y-122121842D01*
X140882000Y-122408740D01*
X140882000Y-122701260D01*
X140939068Y-122988158D01*
X141051010Y-123258411D01*
X141213525Y-123501632D01*
X141345380Y-123633487D01*
X141272820Y-123655498D01*
X141162506Y-123714463D01*
X141065815Y-123793815D01*
X140986463Y-123890506D01*
X140927498Y-124000820D01*
X140891188Y-124120518D01*
X140878928Y-124245000D01*
X128630033Y-124245000D01*
X128635000Y-124220033D01*
X128635000Y-123897967D01*
X128572168Y-123582088D01*
X128448918Y-123284537D01*
X128269987Y-123016748D01*
X128042252Y-122789013D01*
X127774463Y-122610082D01*
X127476912Y-122486832D01*
X127161033Y-122424000D01*
X126838967Y-122424000D01*
X126523088Y-122486832D01*
X126225537Y-122610082D01*
X125957748Y-122789013D01*
X125730013Y-123016748D01*
X125551082Y-123284537D01*
X125427832Y-123582088D01*
X125365000Y-123897967D01*
X123040000Y-123897967D01*
X123040000Y-115459000D01*
X125361928Y-115459000D01*
X125361928Y-117459000D01*
X125374188Y-117583482D01*
X125410498Y-117703180D01*
X125469463Y-117813494D01*
X125548815Y-117910185D01*
X125556866Y-117916792D01*
X125524188Y-118024518D01*
X125511928Y-118149000D01*
X125511928Y-119849000D01*
X125524188Y-119973482D01*
X125560498Y-120093180D01*
X125619463Y-120203494D01*
X125698815Y-120300185D01*
X125795506Y-120379537D01*
X125905820Y-120438502D01*
X126025518Y-120474812D01*
X126150000Y-120487072D01*
X127850000Y-120487072D01*
X127974482Y-120474812D01*
X128094180Y-120438502D01*
X128204494Y-120379537D01*
X128301185Y-120300185D01*
X128380537Y-120203494D01*
X128439502Y-120093180D01*
X128475812Y-119973482D01*
X128488072Y-119849000D01*
X128488072Y-118149000D01*
X128475812Y-118024518D01*
X128443134Y-117916792D01*
X128451185Y-117910185D01*
X128530537Y-117813494D01*
X128589502Y-117703180D01*
X128625812Y-117583482D01*
X128638072Y-117459000D01*
X128638072Y-115459000D01*
X128625812Y-115334518D01*
X128589502Y-115214820D01*
X128530537Y-115104506D01*
X128451185Y-115007815D01*
X128443134Y-115001208D01*
X128475812Y-114893482D01*
X128488072Y-114769000D01*
X128488072Y-113069000D01*
X128475812Y-112944518D01*
X128439502Y-112824820D01*
X128380537Y-112714506D01*
X128301185Y-112617815D01*
X128204494Y-112538463D01*
X128094180Y-112479498D01*
X127974482Y-112443188D01*
X127850000Y-112430928D01*
X126150000Y-112430928D01*
X126025518Y-112443188D01*
X125905820Y-112479498D01*
X125795506Y-112538463D01*
X125698815Y-112617815D01*
X125619463Y-112714506D01*
X125560498Y-112824820D01*
X125524188Y-112944518D01*
X125511928Y-113069000D01*
X125511928Y-114769000D01*
X125524188Y-114893482D01*
X125556866Y-115001208D01*
X125548815Y-115007815D01*
X125469463Y-115104506D01*
X125410498Y-115214820D01*
X125374188Y-115334518D01*
X125361928Y-115459000D01*
X123040000Y-115459000D01*
X123040000Y-109260751D01*
X123045491Y-109205000D01*
X123023577Y-108982501D01*
X122958676Y-108768553D01*
X122853284Y-108571377D01*
X122711449Y-108398551D01*
X122668141Y-108363009D01*
X122649732Y-108344600D01*
X125537328Y-108344600D01*
X125537328Y-110044600D01*
X125549588Y-110169082D01*
X125585898Y-110288780D01*
X125644863Y-110399094D01*
X125724215Y-110495785D01*
X125820906Y-110575137D01*
X125931220Y-110634102D01*
X126050918Y-110670412D01*
X126175400Y-110682672D01*
X127875400Y-110682672D01*
X127999882Y-110670412D01*
X128119580Y-110634102D01*
X128229894Y-110575137D01*
X128326585Y-110495785D01*
X128405937Y-110399094D01*
X128464902Y-110288780D01*
X128501212Y-110169082D01*
X128513472Y-110044600D01*
X128513472Y-108344600D01*
X128501212Y-108220118D01*
X128464902Y-108100420D01*
X128405937Y-107990106D01*
X128326585Y-107893415D01*
X128229894Y-107814063D01*
X128119580Y-107755098D01*
X127999882Y-107718788D01*
X127875400Y-107706528D01*
X126175400Y-107706528D01*
X126050918Y-107718788D01*
X125931220Y-107755098D01*
X125820906Y-107814063D01*
X125724215Y-107893415D01*
X125644863Y-107990106D01*
X125585898Y-108100420D01*
X125549588Y-108220118D01*
X125537328Y-108344600D01*
X122649732Y-108344600D01*
X118273472Y-103968340D01*
X125540400Y-103968340D01*
X125540400Y-104260860D01*
X125597468Y-104547758D01*
X125709410Y-104818011D01*
X125871925Y-105061232D01*
X126078768Y-105268075D01*
X126321989Y-105430590D01*
X126592242Y-105542532D01*
X126879140Y-105599600D01*
X127171660Y-105599600D01*
X127458558Y-105542532D01*
X127728811Y-105430590D01*
X127972032Y-105268075D01*
X128178875Y-105061232D01*
X128341390Y-104818011D01*
X128453332Y-104547758D01*
X128510400Y-104260860D01*
X128510400Y-103968340D01*
X128453332Y-103681442D01*
X128341390Y-103411189D01*
X128178875Y-103167968D01*
X127972032Y-102961125D01*
X127728811Y-102798610D01*
X127458558Y-102686668D01*
X127171660Y-102629600D01*
X126879140Y-102629600D01*
X126592242Y-102686668D01*
X126321989Y-102798610D01*
X126078768Y-102961125D01*
X125871925Y-103167968D01*
X125709410Y-103411189D01*
X125597468Y-103681442D01*
X125540400Y-103968340D01*
X118273472Y-103968340D01*
X116411996Y-102106865D01*
X116376449Y-102063551D01*
X116203623Y-101921716D01*
X116006447Y-101816324D01*
X115792499Y-101751423D01*
X115625752Y-101735000D01*
X115625751Y-101735000D01*
X115570000Y-101729509D01*
X115514249Y-101735000D01*
X106975668Y-101735000D01*
X106882962Y-101622038D01*
X106748387Y-101511595D01*
X106594851Y-101429528D01*
X106428255Y-101378992D01*
X106255001Y-101361928D01*
X104564999Y-101361928D01*
X104391745Y-101378992D01*
X104225149Y-101429528D01*
X104071613Y-101511595D01*
X103937038Y-101622038D01*
X103826595Y-101756613D01*
X103744528Y-101910149D01*
X103693992Y-102076745D01*
X103676928Y-102249999D01*
X102260000Y-102249999D01*
X102260000Y-98210000D01*
X109636928Y-98210000D01*
X109636928Y-99910000D01*
X109649188Y-100034482D01*
X109685498Y-100154180D01*
X109744463Y-100264494D01*
X109823815Y-100361185D01*
X109920506Y-100440537D01*
X110030820Y-100499502D01*
X110150518Y-100535812D01*
X110275000Y-100548072D01*
X111975000Y-100548072D01*
X112099482Y-100535812D01*
X112219180Y-100499502D01*
X112329494Y-100440537D01*
X112426185Y-100361185D01*
X112505537Y-100264494D01*
X112564502Y-100154180D01*
X112586513Y-100081620D01*
X112718368Y-100213475D01*
X112961589Y-100375990D01*
X113231842Y-100487932D01*
X113518740Y-100545000D01*
X113811260Y-100545000D01*
X114098158Y-100487932D01*
X114368411Y-100375990D01*
X114611632Y-100213475D01*
X114818475Y-100006632D01*
X114980990Y-99763411D01*
X115092932Y-99493158D01*
X115150000Y-99206260D01*
X115150000Y-98913740D01*
X117260000Y-98913740D01*
X117260000Y-99206260D01*
X117317068Y-99493158D01*
X117429010Y-99763411D01*
X117591525Y-100006632D01*
X117798368Y-100213475D01*
X118041589Y-100375990D01*
X118311842Y-100487932D01*
X118598740Y-100545000D01*
X118891260Y-100545000D01*
X119178158Y-100487932D01*
X119448411Y-100375990D01*
X119691632Y-100213475D01*
X119898475Y-100006632D01*
X120015000Y-99832240D01*
X120131525Y-100006632D01*
X120338368Y-100213475D01*
X120581589Y-100375990D01*
X120851842Y-100487932D01*
X121138740Y-100545000D01*
X121431260Y-100545000D01*
X121718158Y-100487932D01*
X121988411Y-100375990D01*
X122231632Y-100213475D01*
X122438475Y-100006632D01*
X122600990Y-99763411D01*
X122712932Y-99493158D01*
X122770000Y-99206260D01*
X122770000Y-98958061D01*
X122790000Y-98958061D01*
X122790000Y-99161939D01*
X122829774Y-99361898D01*
X122907795Y-99550256D01*
X123021063Y-99719774D01*
X123165226Y-99863937D01*
X123334744Y-99977205D01*
X123523102Y-100055226D01*
X123723061Y-100095000D01*
X123926939Y-100095000D01*
X124126898Y-100055226D01*
X124315256Y-99977205D01*
X124400870Y-99920000D01*
X126008777Y-99920000D01*
X141468900Y-115380124D01*
X141468901Y-116886654D01*
X141468900Y-118172300D01*
X141418095Y-118248336D01*
X141340074Y-118436694D01*
X141300300Y-118636653D01*
X141300300Y-118840531D01*
X141340074Y-119040490D01*
X141418095Y-119228848D01*
X141531363Y-119398366D01*
X141675526Y-119542529D01*
X141845044Y-119655797D01*
X142033402Y-119733818D01*
X142233361Y-119773592D01*
X142437239Y-119773592D01*
X142637198Y-119733818D01*
X142825556Y-119655797D01*
X142995074Y-119542529D01*
X143139237Y-119398366D01*
X143252505Y-119228848D01*
X143330526Y-119040490D01*
X143370300Y-118840531D01*
X143370300Y-118636653D01*
X143330526Y-118436694D01*
X143252505Y-118248336D01*
X143188900Y-118153144D01*
X143188900Y-115066139D01*
X143193060Y-115023900D01*
X143188900Y-114981661D01*
X143188900Y-114981654D01*
X143176456Y-114855311D01*
X143165070Y-114817774D01*
X143127281Y-114693201D01*
X143127281Y-114693200D01*
X143047424Y-114543798D01*
X142939954Y-114412846D01*
X142907142Y-114385918D01*
X138420464Y-109899240D01*
X154852000Y-109899240D01*
X154852000Y-110191760D01*
X154909068Y-110478658D01*
X155021010Y-110748911D01*
X155183525Y-110992132D01*
X155390368Y-111198975D01*
X155564760Y-111315500D01*
X155390368Y-111432025D01*
X155183525Y-111638868D01*
X155021010Y-111882089D01*
X154909068Y-112152342D01*
X154852000Y-112439240D01*
X154852000Y-112731760D01*
X154909068Y-113018658D01*
X155021010Y-113288911D01*
X155183525Y-113532132D01*
X155390368Y-113738975D01*
X155564760Y-113855500D01*
X155390368Y-113972025D01*
X155183525Y-114178868D01*
X155021010Y-114422089D01*
X154909068Y-114692342D01*
X154852000Y-114979240D01*
X154852000Y-115271760D01*
X154909068Y-115558658D01*
X155021010Y-115828911D01*
X155183525Y-116072132D01*
X155390368Y-116278975D01*
X155564760Y-116395500D01*
X155390368Y-116512025D01*
X155183525Y-116718868D01*
X155021010Y-116962089D01*
X154909068Y-117232342D01*
X154852000Y-117519240D01*
X154852000Y-117811760D01*
X154909068Y-118098658D01*
X155021010Y-118368911D01*
X155183525Y-118612132D01*
X155390368Y-118818975D01*
X155633589Y-118981490D01*
X155903842Y-119093432D01*
X156190740Y-119150500D01*
X156483260Y-119150500D01*
X156770158Y-119093432D01*
X157040411Y-118981490D01*
X157283632Y-118818975D01*
X157490475Y-118612132D01*
X157607000Y-118437740D01*
X157723525Y-118612132D01*
X157930368Y-118818975D01*
X158173589Y-118981490D01*
X158443842Y-119093432D01*
X158730740Y-119150500D01*
X159023260Y-119150500D01*
X159310158Y-119093432D01*
X159580411Y-118981490D01*
X159823632Y-118818975D01*
X160030475Y-118612132D01*
X160192990Y-118368911D01*
X160304932Y-118098658D01*
X160362000Y-117811760D01*
X160362000Y-117519240D01*
X160304932Y-117232342D01*
X160192990Y-116962089D01*
X160030475Y-116718868D01*
X159823632Y-116512025D01*
X159649240Y-116395500D01*
X159823632Y-116278975D01*
X160030475Y-116072132D01*
X160192990Y-115828911D01*
X160304932Y-115558658D01*
X160362000Y-115271760D01*
X160362000Y-114979240D01*
X160304932Y-114692342D01*
X160192990Y-114422089D01*
X160030475Y-114178868D01*
X159823632Y-113972025D01*
X159580411Y-113809510D01*
X159310158Y-113697568D01*
X159023260Y-113640500D01*
X158730740Y-113640500D01*
X158443842Y-113697568D01*
X158173589Y-113809510D01*
X157930368Y-113972025D01*
X157723525Y-114178868D01*
X157607000Y-114353260D01*
X157490475Y-114178868D01*
X157283632Y-113972025D01*
X157109240Y-113855500D01*
X157283632Y-113738975D01*
X157490475Y-113532132D01*
X157652990Y-113288911D01*
X157764932Y-113018658D01*
X157822000Y-112731760D01*
X157822000Y-112439240D01*
X157764932Y-112152342D01*
X157652990Y-111882089D01*
X157490475Y-111638868D01*
X157283632Y-111432025D01*
X157109240Y-111315500D01*
X157283632Y-111198975D01*
X157415487Y-111067120D01*
X157437498Y-111139680D01*
X157496463Y-111249994D01*
X157575815Y-111346685D01*
X157672506Y-111426037D01*
X157782820Y-111485002D01*
X157902518Y-111521312D01*
X158027000Y-111533572D01*
X159727000Y-111533572D01*
X159851482Y-111521312D01*
X159971180Y-111485002D01*
X160081494Y-111426037D01*
X160178185Y-111346685D01*
X160257537Y-111249994D01*
X160316502Y-111139680D01*
X160352812Y-111019982D01*
X160365072Y-110895500D01*
X160365072Y-109195500D01*
X160352812Y-109071018D01*
X160316502Y-108951320D01*
X160257537Y-108841006D01*
X160178185Y-108744315D01*
X160081494Y-108664963D01*
X159971180Y-108605998D01*
X159851482Y-108569688D01*
X159727000Y-108557428D01*
X158027000Y-108557428D01*
X157902518Y-108569688D01*
X157782820Y-108605998D01*
X157672506Y-108664963D01*
X157575815Y-108744315D01*
X157496463Y-108841006D01*
X157437498Y-108951320D01*
X157415487Y-109023880D01*
X157283632Y-108892025D01*
X157040411Y-108729510D01*
X156770158Y-108617568D01*
X156483260Y-108560500D01*
X156190740Y-108560500D01*
X155903842Y-108617568D01*
X155633589Y-108729510D01*
X155390368Y-108892025D01*
X155183525Y-109098868D01*
X155021010Y-109342089D01*
X154909068Y-109612342D01*
X154852000Y-109899240D01*
X138420464Y-109899240D01*
X127002988Y-98481765D01*
X126976054Y-98448946D01*
X126845102Y-98341476D01*
X126695700Y-98261619D01*
X126533589Y-98212444D01*
X126407246Y-98200000D01*
X126407239Y-98200000D01*
X126365000Y-98195840D01*
X126322761Y-98200000D01*
X124400870Y-98200000D01*
X124315256Y-98142795D01*
X124126898Y-98064774D01*
X123926939Y-98025000D01*
X123723061Y-98025000D01*
X123523102Y-98064774D01*
X123334744Y-98142795D01*
X123165226Y-98256063D01*
X123021063Y-98400226D01*
X122907795Y-98569744D01*
X122829774Y-98758102D01*
X122790000Y-98958061D01*
X122770000Y-98958061D01*
X122770000Y-98913740D01*
X122712932Y-98626842D01*
X122600990Y-98356589D01*
X122438475Y-98113368D01*
X122231632Y-97906525D01*
X121988411Y-97744010D01*
X121718158Y-97632068D01*
X121431260Y-97575000D01*
X121138740Y-97575000D01*
X120851842Y-97632068D01*
X120581589Y-97744010D01*
X120338368Y-97906525D01*
X120131525Y-98113368D01*
X120015000Y-98287760D01*
X119898475Y-98113368D01*
X119691632Y-97906525D01*
X119448411Y-97744010D01*
X119178158Y-97632068D01*
X118891260Y-97575000D01*
X118598740Y-97575000D01*
X118311842Y-97632068D01*
X118041589Y-97744010D01*
X117798368Y-97906525D01*
X117591525Y-98113368D01*
X117429010Y-98356589D01*
X117317068Y-98626842D01*
X117260000Y-98913740D01*
X115150000Y-98913740D01*
X115092932Y-98626842D01*
X114980990Y-98356589D01*
X114818475Y-98113368D01*
X114611632Y-97906525D01*
X114368411Y-97744010D01*
X114098158Y-97632068D01*
X113811260Y-97575000D01*
X113518740Y-97575000D01*
X113231842Y-97632068D01*
X112961589Y-97744010D01*
X112718368Y-97906525D01*
X112586513Y-98038380D01*
X112564502Y-97965820D01*
X112505537Y-97855506D01*
X112426185Y-97758815D01*
X112329494Y-97679463D01*
X112219180Y-97620498D01*
X112099482Y-97584188D01*
X111975000Y-97571928D01*
X110275000Y-97571928D01*
X110150518Y-97584188D01*
X110030820Y-97620498D01*
X109920506Y-97679463D01*
X109823815Y-97758815D01*
X109744463Y-97855506D01*
X109685498Y-97965820D01*
X109649188Y-98085518D01*
X109636928Y-98210000D01*
X102260000Y-98210000D01*
X102260000Y-92401229D01*
X102275000Y-92401229D01*
X102275000Y-93018771D01*
X102395476Y-93624446D01*
X102631799Y-94194979D01*
X102974886Y-94708446D01*
X103411554Y-95145114D01*
X103925021Y-95488201D01*
X104495554Y-95724524D01*
X105101229Y-95845000D01*
X105718771Y-95845000D01*
X106324446Y-95724524D01*
X106894979Y-95488201D01*
X107408446Y-95145114D01*
X107845114Y-94708446D01*
X108188201Y-94194979D01*
X108424524Y-93624446D01*
X108545000Y-93018771D01*
X108545000Y-92571200D01*
X128598028Y-92571200D01*
X128598028Y-94271200D01*
X128610288Y-94395682D01*
X128646598Y-94515380D01*
X128705563Y-94625694D01*
X128784915Y-94722385D01*
X128881606Y-94801737D01*
X128991920Y-94860702D01*
X129064480Y-94882713D01*
X128932625Y-95014568D01*
X128770110Y-95257789D01*
X128658168Y-95528042D01*
X128601100Y-95814940D01*
X128601100Y-96107460D01*
X128658168Y-96394358D01*
X128770110Y-96664611D01*
X128932625Y-96907832D01*
X129139468Y-97114675D01*
X129382689Y-97277190D01*
X129652942Y-97389132D01*
X129939840Y-97446200D01*
X130232360Y-97446200D01*
X130519258Y-97389132D01*
X130789511Y-97277190D01*
X131032732Y-97114675D01*
X131239575Y-96907832D01*
X131356100Y-96733440D01*
X131472625Y-96907832D01*
X131679468Y-97114675D01*
X131922689Y-97277190D01*
X132192942Y-97389132D01*
X132479840Y-97446200D01*
X132772360Y-97446200D01*
X133059258Y-97389132D01*
X133329511Y-97277190D01*
X133572732Y-97114675D01*
X133779575Y-96907832D01*
X133896100Y-96733440D01*
X134012625Y-96907832D01*
X134219468Y-97114675D01*
X134462689Y-97277190D01*
X134732942Y-97389132D01*
X135019840Y-97446200D01*
X135312360Y-97446200D01*
X135599258Y-97389132D01*
X135869511Y-97277190D01*
X136112732Y-97114675D01*
X136319575Y-96907832D01*
X136436100Y-96733440D01*
X136552625Y-96907832D01*
X136759468Y-97114675D01*
X137002689Y-97277190D01*
X137272942Y-97389132D01*
X137559840Y-97446200D01*
X137852360Y-97446200D01*
X138139258Y-97389132D01*
X138409511Y-97277190D01*
X138652732Y-97114675D01*
X138859575Y-96907832D01*
X138976100Y-96733440D01*
X139092625Y-96907832D01*
X139299468Y-97114675D01*
X139542689Y-97277190D01*
X139812942Y-97389132D01*
X140099840Y-97446200D01*
X140392360Y-97446200D01*
X140679258Y-97389132D01*
X140949511Y-97277190D01*
X141192732Y-97114675D01*
X141399575Y-96907832D01*
X141562090Y-96664611D01*
X141674032Y-96394358D01*
X141731100Y-96107460D01*
X141731100Y-95814940D01*
X141674032Y-95528042D01*
X141562090Y-95257789D01*
X141399575Y-95014568D01*
X141192732Y-94807725D01*
X141018340Y-94691200D01*
X141192732Y-94574675D01*
X141399575Y-94367832D01*
X141516100Y-94193440D01*
X141632625Y-94367832D01*
X141839468Y-94574675D01*
X142082689Y-94737190D01*
X142352942Y-94849132D01*
X142639840Y-94906200D01*
X142932360Y-94906200D01*
X143219258Y-94849132D01*
X143489511Y-94737190D01*
X143732732Y-94574675D01*
X143939575Y-94367832D01*
X144102090Y-94124611D01*
X144214032Y-93854358D01*
X144271100Y-93567460D01*
X144271100Y-93274940D01*
X144214032Y-92988042D01*
X144102090Y-92717789D01*
X143939575Y-92474568D01*
X143732732Y-92267725D01*
X143489511Y-92105210D01*
X143219258Y-91993268D01*
X142932360Y-91936200D01*
X142639840Y-91936200D01*
X142352942Y-91993268D01*
X142082689Y-92105210D01*
X141839468Y-92267725D01*
X141632625Y-92474568D01*
X141516100Y-92648960D01*
X141399575Y-92474568D01*
X141192732Y-92267725D01*
X140949511Y-92105210D01*
X140679258Y-91993268D01*
X140392360Y-91936200D01*
X140099840Y-91936200D01*
X139812942Y-91993268D01*
X139542689Y-92105210D01*
X139299468Y-92267725D01*
X139092625Y-92474568D01*
X138976100Y-92648960D01*
X138859575Y-92474568D01*
X138652732Y-92267725D01*
X138409511Y-92105210D01*
X138139258Y-91993268D01*
X137852360Y-91936200D01*
X137559840Y-91936200D01*
X137272942Y-91993268D01*
X137002689Y-92105210D01*
X136759468Y-92267725D01*
X136552625Y-92474568D01*
X136436100Y-92648960D01*
X136319575Y-92474568D01*
X136112732Y-92267725D01*
X135869511Y-92105210D01*
X135599258Y-91993268D01*
X135312360Y-91936200D01*
X135019840Y-91936200D01*
X134732942Y-91993268D01*
X134462689Y-92105210D01*
X134219468Y-92267725D01*
X134012625Y-92474568D01*
X133896100Y-92648960D01*
X133779575Y-92474568D01*
X133572732Y-92267725D01*
X133329511Y-92105210D01*
X133059258Y-91993268D01*
X132772360Y-91936200D01*
X132479840Y-91936200D01*
X132192942Y-91993268D01*
X131922689Y-92105210D01*
X131679468Y-92267725D01*
X131547613Y-92399580D01*
X131525602Y-92327020D01*
X131466637Y-92216706D01*
X131387285Y-92120015D01*
X131290594Y-92040663D01*
X131180280Y-91981698D01*
X131060582Y-91945388D01*
X130936100Y-91933128D01*
X129236100Y-91933128D01*
X129111618Y-91945388D01*
X128991920Y-91981698D01*
X128881606Y-92040663D01*
X128784915Y-92120015D01*
X128705563Y-92216706D01*
X128646598Y-92327020D01*
X128610288Y-92446718D01*
X128598028Y-92571200D01*
X108545000Y-92571200D01*
X108545000Y-92401229D01*
X108424524Y-91795554D01*
X108188201Y-91225021D01*
X107845114Y-90711554D01*
X107408446Y-90274886D01*
X106894979Y-89931799D01*
X106324446Y-89695476D01*
X105718771Y-89575000D01*
X105101229Y-89575000D01*
X104495554Y-89695476D01*
X103925021Y-89931799D01*
X103411554Y-90274886D01*
X102974886Y-90711554D01*
X102631799Y-91225021D01*
X102395476Y-91795554D01*
X102275000Y-92401229D01*
X102260000Y-92401229D01*
X102260000Y-89560000D01*
X157117903Y-89560000D01*
X156756054Y-89631976D01*
G37*
X156756054Y-89631976D02*
X156185521Y-89868299D01*
X155672054Y-90211386D01*
X155235386Y-90648054D01*
X154892299Y-91161521D01*
X154655976Y-91732054D01*
X154535500Y-92337729D01*
X154535500Y-92955271D01*
X154655976Y-93560946D01*
X154892299Y-94131479D01*
X155235386Y-94644946D01*
X155672054Y-95081614D01*
X156185521Y-95424701D01*
X156756054Y-95661024D01*
X157361729Y-95781500D01*
X157979271Y-95781500D01*
X158584946Y-95661024D01*
X159155479Y-95424701D01*
X159668946Y-95081614D01*
X160105614Y-94644946D01*
X160448701Y-94131479D01*
X160685024Y-93560946D01*
X160805500Y-92955271D01*
X160805500Y-92337729D01*
X160685024Y-91732054D01*
X160448701Y-91161521D01*
X160105614Y-90648054D01*
X159668946Y-90211386D01*
X159155479Y-89868299D01*
X158584946Y-89631976D01*
X158223097Y-89560000D01*
X161900000Y-89560000D01*
X161900001Y-128880000D01*
X102260000Y-128880000D01*
X102260000Y-125421229D01*
X102275000Y-125421229D01*
X102275000Y-126038771D01*
X102395476Y-126644446D01*
X102631799Y-127214979D01*
X102974886Y-127728446D01*
X103411554Y-128165114D01*
X103925021Y-128508201D01*
X104495554Y-128744524D01*
X105101229Y-128865000D01*
X105718771Y-128865000D01*
X106324446Y-128744524D01*
X106894979Y-128508201D01*
X107408446Y-128165114D01*
X107845114Y-127728446D01*
X108188201Y-127214979D01*
X108424524Y-126644446D01*
X108545000Y-126038771D01*
X108545000Y-125421229D01*
X108424524Y-124815554D01*
X108188201Y-124245021D01*
X107845114Y-123731554D01*
X107408446Y-123294886D01*
X106894979Y-122951799D01*
X106324446Y-122715476D01*
X105718771Y-122595000D01*
X105101229Y-122595000D01*
X104495554Y-122715476D01*
X103925021Y-122951799D01*
X103411554Y-123294886D01*
X102974886Y-123731554D01*
X102631799Y-124245021D01*
X102395476Y-124815554D01*
X102275000Y-125421229D01*
X102260000Y-125421229D01*
X102260000Y-102249999D01*
X103676928Y-102249999D01*
X103676928Y-103490001D01*
X103693992Y-103663255D01*
X103744528Y-103829851D01*
X103826595Y-103983387D01*
X103937038Y-104117962D01*
X104071613Y-104228405D01*
X104225149Y-104310472D01*
X104391745Y-104361008D01*
X104564999Y-104378072D01*
X106255001Y-104378072D01*
X106428255Y-104361008D01*
X106594851Y-104310472D01*
X106748387Y-104228405D01*
X106882962Y-104117962D01*
X106975668Y-104005000D01*
X115099869Y-104005000D01*
X120770001Y-109675133D01*
X120770000Y-124389249D01*
X120764509Y-124445000D01*
X120770000Y-124500751D01*
X120786423Y-124667498D01*
X120851324Y-124881446D01*
X120956716Y-125078623D01*
X121098551Y-125251449D01*
X121141865Y-125286996D01*
X122919509Y-127064640D01*
X122955051Y-127107949D01*
X123127877Y-127249784D01*
X123325053Y-127355176D01*
X123539001Y-127420077D01*
X123705748Y-127436500D01*
X123705757Y-127436500D01*
X123761499Y-127441990D01*
X123817241Y-127436500D01*
X124896752Y-127436500D01*
X125063499Y-127420077D01*
X125277447Y-127355176D01*
X125474623Y-127249784D01*
X125647449Y-127107949D01*
X125789284Y-126935123D01*
X125894676Y-126737947D01*
X125959577Y-126523999D01*
X125981491Y-126301500D01*
X125959577Y-126079001D01*
X125894676Y-125865053D01*
X125789284Y-125667877D01*
X125647449Y-125495051D01*
X125474623Y-125353216D01*
X125277447Y-125247824D01*
X125063499Y-125182923D01*
X124896752Y-125166500D01*
X124231632Y-125166500D01*
X123040000Y-123974869D01*
X123040000Y-123897967D01*
X125365000Y-123897967D01*
X125365000Y-124220033D01*
X125427832Y-124535912D01*
X125551082Y-124833463D01*
X125730013Y-125101252D01*
X125957748Y-125328987D01*
X126225537Y-125507918D01*
X126523088Y-125631168D01*
X126838967Y-125694000D01*
X127161033Y-125694000D01*
X127476912Y-125631168D01*
X127774463Y-125507918D01*
X128042252Y-125328987D01*
X128269987Y-125101252D01*
X128448918Y-124833463D01*
X128572168Y-124535912D01*
X128630033Y-124245000D01*
X140878928Y-124245000D01*
X140878928Y-125945000D01*
X140891188Y-126069482D01*
X140927498Y-126189180D01*
X140986463Y-126299494D01*
X141065815Y-126396185D01*
X141162506Y-126475537D01*
X141272820Y-126534502D01*
X141392518Y-126570812D01*
X141517000Y-126583072D01*
X143217000Y-126583072D01*
X143341482Y-126570812D01*
X143461180Y-126534502D01*
X143571494Y-126475537D01*
X143637000Y-126421778D01*
X143702506Y-126475537D01*
X143812820Y-126534502D01*
X143932518Y-126570812D01*
X144057000Y-126583072D01*
X145757000Y-126583072D01*
X145881482Y-126570812D01*
X146001180Y-126534502D01*
X146111494Y-126475537D01*
X146177000Y-126421778D01*
X146242506Y-126475537D01*
X146352820Y-126534502D01*
X146472518Y-126570812D01*
X146597000Y-126583072D01*
X148297000Y-126583072D01*
X148421482Y-126570812D01*
X148541180Y-126534502D01*
X148651494Y-126475537D01*
X148748185Y-126396185D01*
X148827537Y-126299494D01*
X148886502Y-126189180D01*
X148922812Y-126069482D01*
X148935072Y-125945000D01*
X148935072Y-125421229D01*
X154548200Y-125421229D01*
X154548200Y-126038771D01*
X154668676Y-126644446D01*
X154904999Y-127214979D01*
X155248086Y-127728446D01*
X155684754Y-128165114D01*
X156198221Y-128508201D01*
X156768754Y-128744524D01*
X157374429Y-128865000D01*
X157991971Y-128865000D01*
X158597646Y-128744524D01*
X159168179Y-128508201D01*
X159681646Y-128165114D01*
X160118314Y-127728446D01*
X160461401Y-127214979D01*
X160697724Y-126644446D01*
X160818200Y-126038771D01*
X160818200Y-125421229D01*
X160697724Y-124815554D01*
X160461401Y-124245021D01*
X160118314Y-123731554D01*
X159681646Y-123294886D01*
X159168179Y-122951799D01*
X158597646Y-122715476D01*
X157991971Y-122595000D01*
X157374429Y-122595000D01*
X156768754Y-122715476D01*
X156198221Y-122951799D01*
X155684754Y-123294886D01*
X155248086Y-123731554D01*
X154904999Y-124245021D01*
X154668676Y-124815554D01*
X154548200Y-125421229D01*
X148935072Y-125421229D01*
X148935072Y-124245000D01*
X148922812Y-124120518D01*
X148886502Y-124000820D01*
X148827537Y-123890506D01*
X148748185Y-123793815D01*
X148651494Y-123714463D01*
X148541180Y-123655498D01*
X148468620Y-123633487D01*
X148600475Y-123501632D01*
X148762990Y-123258411D01*
X148874932Y-122988158D01*
X148932000Y-122701260D01*
X148932000Y-122408740D01*
X148874932Y-122121842D01*
X148762990Y-121851589D01*
X148600475Y-121608368D01*
X148393632Y-121401525D01*
X148150411Y-121239010D01*
X147880158Y-121127068D01*
X147593260Y-121070000D01*
X147300740Y-121070000D01*
X147013842Y-121127068D01*
X146743589Y-121239010D01*
X146500368Y-121401525D01*
X146293525Y-121608368D01*
X146177000Y-121782760D01*
X146060475Y-121608368D01*
X145853632Y-121401525D01*
X145610411Y-121239010D01*
X145340158Y-121127068D01*
X145053260Y-121070000D01*
X144760740Y-121070000D01*
X144473842Y-121127068D01*
X144203589Y-121239010D01*
X143960368Y-121401525D01*
X143753525Y-121608368D01*
X143637000Y-121782760D01*
X143520475Y-121608368D01*
X143313632Y-121401525D01*
X143070411Y-121239010D01*
X142800158Y-121127068D01*
X142513260Y-121070000D01*
X142220740Y-121070000D01*
X141933842Y-121127068D01*
X141663589Y-121239010D01*
X141420368Y-121401525D01*
X141213525Y-121608368D01*
X141051010Y-121851589D01*
X140939068Y-122121842D01*
X140882000Y-122408740D01*
X140882000Y-122701260D01*
X140939068Y-122988158D01*
X141051010Y-123258411D01*
X141213525Y-123501632D01*
X141345380Y-123633487D01*
X141272820Y-123655498D01*
X141162506Y-123714463D01*
X141065815Y-123793815D01*
X140986463Y-123890506D01*
X140927498Y-124000820D01*
X140891188Y-124120518D01*
X140878928Y-124245000D01*
X128630033Y-124245000D01*
X128635000Y-124220033D01*
X128635000Y-123897967D01*
X128572168Y-123582088D01*
X128448918Y-123284537D01*
X128269987Y-123016748D01*
X128042252Y-122789013D01*
X127774463Y-122610082D01*
X127476912Y-122486832D01*
X127161033Y-122424000D01*
X126838967Y-122424000D01*
X126523088Y-122486832D01*
X126225537Y-122610082D01*
X125957748Y-122789013D01*
X125730013Y-123016748D01*
X125551082Y-123284537D01*
X125427832Y-123582088D01*
X125365000Y-123897967D01*
X123040000Y-123897967D01*
X123040000Y-115459000D01*
X125361928Y-115459000D01*
X125361928Y-117459000D01*
X125374188Y-117583482D01*
X125410498Y-117703180D01*
X125469463Y-117813494D01*
X125548815Y-117910185D01*
X125556866Y-117916792D01*
X125524188Y-118024518D01*
X125511928Y-118149000D01*
X125511928Y-119849000D01*
X125524188Y-119973482D01*
X125560498Y-120093180D01*
X125619463Y-120203494D01*
X125698815Y-120300185D01*
X125795506Y-120379537D01*
X125905820Y-120438502D01*
X126025518Y-120474812D01*
X126150000Y-120487072D01*
X127850000Y-120487072D01*
X127974482Y-120474812D01*
X128094180Y-120438502D01*
X128204494Y-120379537D01*
X128301185Y-120300185D01*
X128380537Y-120203494D01*
X128439502Y-120093180D01*
X128475812Y-119973482D01*
X128488072Y-119849000D01*
X128488072Y-118149000D01*
X128475812Y-118024518D01*
X128443134Y-117916792D01*
X128451185Y-117910185D01*
X128530537Y-117813494D01*
X128589502Y-117703180D01*
X128625812Y-117583482D01*
X128638072Y-117459000D01*
X128638072Y-115459000D01*
X128625812Y-115334518D01*
X128589502Y-115214820D01*
X128530537Y-115104506D01*
X128451185Y-115007815D01*
X128443134Y-115001208D01*
X128475812Y-114893482D01*
X128488072Y-114769000D01*
X128488072Y-113069000D01*
X128475812Y-112944518D01*
X128439502Y-112824820D01*
X128380537Y-112714506D01*
X128301185Y-112617815D01*
X128204494Y-112538463D01*
X128094180Y-112479498D01*
X127974482Y-112443188D01*
X127850000Y-112430928D01*
X126150000Y-112430928D01*
X126025518Y-112443188D01*
X125905820Y-112479498D01*
X125795506Y-112538463D01*
X125698815Y-112617815D01*
X125619463Y-112714506D01*
X125560498Y-112824820D01*
X125524188Y-112944518D01*
X125511928Y-113069000D01*
X125511928Y-114769000D01*
X125524188Y-114893482D01*
X125556866Y-115001208D01*
X125548815Y-115007815D01*
X125469463Y-115104506D01*
X125410498Y-115214820D01*
X125374188Y-115334518D01*
X125361928Y-115459000D01*
X123040000Y-115459000D01*
X123040000Y-109260751D01*
X123045491Y-109205000D01*
X123023577Y-108982501D01*
X122958676Y-108768553D01*
X122853284Y-108571377D01*
X122711449Y-108398551D01*
X122668141Y-108363009D01*
X122649732Y-108344600D01*
X125537328Y-108344600D01*
X125537328Y-110044600D01*
X125549588Y-110169082D01*
X125585898Y-110288780D01*
X125644863Y-110399094D01*
X125724215Y-110495785D01*
X125820906Y-110575137D01*
X125931220Y-110634102D01*
X126050918Y-110670412D01*
X126175400Y-110682672D01*
X127875400Y-110682672D01*
X127999882Y-110670412D01*
X128119580Y-110634102D01*
X128229894Y-110575137D01*
X128326585Y-110495785D01*
X128405937Y-110399094D01*
X128464902Y-110288780D01*
X128501212Y-110169082D01*
X128513472Y-110044600D01*
X128513472Y-108344600D01*
X128501212Y-108220118D01*
X128464902Y-108100420D01*
X128405937Y-107990106D01*
X128326585Y-107893415D01*
X128229894Y-107814063D01*
X128119580Y-107755098D01*
X127999882Y-107718788D01*
X127875400Y-107706528D01*
X126175400Y-107706528D01*
X126050918Y-107718788D01*
X125931220Y-107755098D01*
X125820906Y-107814063D01*
X125724215Y-107893415D01*
X125644863Y-107990106D01*
X125585898Y-108100420D01*
X125549588Y-108220118D01*
X125537328Y-108344600D01*
X122649732Y-108344600D01*
X118273472Y-103968340D01*
X125540400Y-103968340D01*
X125540400Y-104260860D01*
X125597468Y-104547758D01*
X125709410Y-104818011D01*
X125871925Y-105061232D01*
X126078768Y-105268075D01*
X126321989Y-105430590D01*
X126592242Y-105542532D01*
X126879140Y-105599600D01*
X127171660Y-105599600D01*
X127458558Y-105542532D01*
X127728811Y-105430590D01*
X127972032Y-105268075D01*
X128178875Y-105061232D01*
X128341390Y-104818011D01*
X128453332Y-104547758D01*
X128510400Y-104260860D01*
X128510400Y-103968340D01*
X128453332Y-103681442D01*
X128341390Y-103411189D01*
X128178875Y-103167968D01*
X127972032Y-102961125D01*
X127728811Y-102798610D01*
X127458558Y-102686668D01*
X127171660Y-102629600D01*
X126879140Y-102629600D01*
X126592242Y-102686668D01*
X126321989Y-102798610D01*
X126078768Y-102961125D01*
X125871925Y-103167968D01*
X125709410Y-103411189D01*
X125597468Y-103681442D01*
X125540400Y-103968340D01*
X118273472Y-103968340D01*
X116411996Y-102106865D01*
X116376449Y-102063551D01*
X116203623Y-101921716D01*
X116006447Y-101816324D01*
X115792499Y-101751423D01*
X115625752Y-101735000D01*
X115625751Y-101735000D01*
X115570000Y-101729509D01*
X115514249Y-101735000D01*
X106975668Y-101735000D01*
X106882962Y-101622038D01*
X106748387Y-101511595D01*
X106594851Y-101429528D01*
X106428255Y-101378992D01*
X106255001Y-101361928D01*
X104564999Y-101361928D01*
X104391745Y-101378992D01*
X104225149Y-101429528D01*
X104071613Y-101511595D01*
X103937038Y-101622038D01*
X103826595Y-101756613D01*
X103744528Y-101910149D01*
X103693992Y-102076745D01*
X103676928Y-102249999D01*
X102260000Y-102249999D01*
X102260000Y-98210000D01*
X109636928Y-98210000D01*
X109636928Y-99910000D01*
X109649188Y-100034482D01*
X109685498Y-100154180D01*
X109744463Y-100264494D01*
X109823815Y-100361185D01*
X109920506Y-100440537D01*
X110030820Y-100499502D01*
X110150518Y-100535812D01*
X110275000Y-100548072D01*
X111975000Y-100548072D01*
X112099482Y-100535812D01*
X112219180Y-100499502D01*
X112329494Y-100440537D01*
X112426185Y-100361185D01*
X112505537Y-100264494D01*
X112564502Y-100154180D01*
X112586513Y-100081620D01*
X112718368Y-100213475D01*
X112961589Y-100375990D01*
X113231842Y-100487932D01*
X113518740Y-100545000D01*
X113811260Y-100545000D01*
X114098158Y-100487932D01*
X114368411Y-100375990D01*
X114611632Y-100213475D01*
X114818475Y-100006632D01*
X114980990Y-99763411D01*
X115092932Y-99493158D01*
X115150000Y-99206260D01*
X115150000Y-98913740D01*
X117260000Y-98913740D01*
X117260000Y-99206260D01*
X117317068Y-99493158D01*
X117429010Y-99763411D01*
X117591525Y-100006632D01*
X117798368Y-100213475D01*
X118041589Y-100375990D01*
X118311842Y-100487932D01*
X118598740Y-100545000D01*
X118891260Y-100545000D01*
X119178158Y-100487932D01*
X119448411Y-100375990D01*
X119691632Y-100213475D01*
X119898475Y-100006632D01*
X120015000Y-99832240D01*
X120131525Y-100006632D01*
X120338368Y-100213475D01*
X120581589Y-100375990D01*
X120851842Y-100487932D01*
X121138740Y-100545000D01*
X121431260Y-100545000D01*
X121718158Y-100487932D01*
X121988411Y-100375990D01*
X122231632Y-100213475D01*
X122438475Y-100006632D01*
X122600990Y-99763411D01*
X122712932Y-99493158D01*
X122770000Y-99206260D01*
X122770000Y-98958061D01*
X122790000Y-98958061D01*
X122790000Y-99161939D01*
X122829774Y-99361898D01*
X122907795Y-99550256D01*
X123021063Y-99719774D01*
X123165226Y-99863937D01*
X123334744Y-99977205D01*
X123523102Y-100055226D01*
X123723061Y-100095000D01*
X123926939Y-100095000D01*
X124126898Y-100055226D01*
X124315256Y-99977205D01*
X124400870Y-99920000D01*
X126008777Y-99920000D01*
X141468900Y-115380124D01*
X141468901Y-116886654D01*
X141468900Y-118172300D01*
X141418095Y-118248336D01*
X141340074Y-118436694D01*
X141300300Y-118636653D01*
X141300300Y-118840531D01*
X141340074Y-119040490D01*
X141418095Y-119228848D01*
X141531363Y-119398366D01*
X141675526Y-119542529D01*
X141845044Y-119655797D01*
X142033402Y-119733818D01*
X142233361Y-119773592D01*
X142437239Y-119773592D01*
X142637198Y-119733818D01*
X142825556Y-119655797D01*
X142995074Y-119542529D01*
X143139237Y-119398366D01*
X143252505Y-119228848D01*
X143330526Y-119040490D01*
X143370300Y-118840531D01*
X143370300Y-118636653D01*
X143330526Y-118436694D01*
X143252505Y-118248336D01*
X143188900Y-118153144D01*
X143188900Y-115066139D01*
X143193060Y-115023900D01*
X143188900Y-114981661D01*
X143188900Y-114981654D01*
X143176456Y-114855311D01*
X143165070Y-114817774D01*
X143127281Y-114693201D01*
X143127281Y-114693200D01*
X143047424Y-114543798D01*
X142939954Y-114412846D01*
X142907142Y-114385918D01*
X138420464Y-109899240D01*
X154852000Y-109899240D01*
X154852000Y-110191760D01*
X154909068Y-110478658D01*
X155021010Y-110748911D01*
X155183525Y-110992132D01*
X155390368Y-111198975D01*
X155564760Y-111315500D01*
X155390368Y-111432025D01*
X155183525Y-111638868D01*
X155021010Y-111882089D01*
X154909068Y-112152342D01*
X154852000Y-112439240D01*
X154852000Y-112731760D01*
X154909068Y-113018658D01*
X155021010Y-113288911D01*
X155183525Y-113532132D01*
X155390368Y-113738975D01*
X155564760Y-113855500D01*
X155390368Y-113972025D01*
X155183525Y-114178868D01*
X155021010Y-114422089D01*
X154909068Y-114692342D01*
X154852000Y-114979240D01*
X154852000Y-115271760D01*
X154909068Y-115558658D01*
X155021010Y-115828911D01*
X155183525Y-116072132D01*
X155390368Y-116278975D01*
X155564760Y-116395500D01*
X155390368Y-116512025D01*
X155183525Y-116718868D01*
X155021010Y-116962089D01*
X154909068Y-117232342D01*
X154852000Y-117519240D01*
X154852000Y-117811760D01*
X154909068Y-118098658D01*
X155021010Y-118368911D01*
X155183525Y-118612132D01*
X155390368Y-118818975D01*
X155633589Y-118981490D01*
X155903842Y-119093432D01*
X156190740Y-119150500D01*
X156483260Y-119150500D01*
X156770158Y-119093432D01*
X157040411Y-118981490D01*
X157283632Y-118818975D01*
X157490475Y-118612132D01*
X157607000Y-118437740D01*
X157723525Y-118612132D01*
X157930368Y-118818975D01*
X158173589Y-118981490D01*
X158443842Y-119093432D01*
X158730740Y-119150500D01*
X159023260Y-119150500D01*
X159310158Y-119093432D01*
X159580411Y-118981490D01*
X159823632Y-118818975D01*
X160030475Y-118612132D01*
X160192990Y-118368911D01*
X160304932Y-118098658D01*
X160362000Y-117811760D01*
X160362000Y-117519240D01*
X160304932Y-117232342D01*
X160192990Y-116962089D01*
X160030475Y-116718868D01*
X159823632Y-116512025D01*
X159649240Y-116395500D01*
X159823632Y-116278975D01*
X160030475Y-116072132D01*
X160192990Y-115828911D01*
X160304932Y-115558658D01*
X160362000Y-115271760D01*
X160362000Y-114979240D01*
X160304932Y-114692342D01*
X160192990Y-114422089D01*
X160030475Y-114178868D01*
X159823632Y-113972025D01*
X159580411Y-113809510D01*
X159310158Y-113697568D01*
X159023260Y-113640500D01*
X158730740Y-113640500D01*
X158443842Y-113697568D01*
X158173589Y-113809510D01*
X157930368Y-113972025D01*
X157723525Y-114178868D01*
X157607000Y-114353260D01*
X157490475Y-114178868D01*
X157283632Y-113972025D01*
X157109240Y-113855500D01*
X157283632Y-113738975D01*
X157490475Y-113532132D01*
X157652990Y-113288911D01*
X157764932Y-113018658D01*
X157822000Y-112731760D01*
X157822000Y-112439240D01*
X157764932Y-112152342D01*
X157652990Y-111882089D01*
X157490475Y-111638868D01*
X157283632Y-111432025D01*
X157109240Y-111315500D01*
X157283632Y-111198975D01*
X157415487Y-111067120D01*
X157437498Y-111139680D01*
X157496463Y-111249994D01*
X157575815Y-111346685D01*
X157672506Y-111426037D01*
X157782820Y-111485002D01*
X157902518Y-111521312D01*
X158027000Y-111533572D01*
X159727000Y-111533572D01*
X159851482Y-111521312D01*
X159971180Y-111485002D01*
X160081494Y-111426037D01*
X160178185Y-111346685D01*
X160257537Y-111249994D01*
X160316502Y-111139680D01*
X160352812Y-111019982D01*
X160365072Y-110895500D01*
X160365072Y-109195500D01*
X160352812Y-109071018D01*
X160316502Y-108951320D01*
X160257537Y-108841006D01*
X160178185Y-108744315D01*
X160081494Y-108664963D01*
X159971180Y-108605998D01*
X159851482Y-108569688D01*
X159727000Y-108557428D01*
X158027000Y-108557428D01*
X157902518Y-108569688D01*
X157782820Y-108605998D01*
X157672506Y-108664963D01*
X157575815Y-108744315D01*
X157496463Y-108841006D01*
X157437498Y-108951320D01*
X157415487Y-109023880D01*
X157283632Y-108892025D01*
X157040411Y-108729510D01*
X156770158Y-108617568D01*
X156483260Y-108560500D01*
X156190740Y-108560500D01*
X155903842Y-108617568D01*
X155633589Y-108729510D01*
X155390368Y-108892025D01*
X155183525Y-109098868D01*
X155021010Y-109342089D01*
X154909068Y-109612342D01*
X154852000Y-109899240D01*
X138420464Y-109899240D01*
X127002988Y-98481765D01*
X126976054Y-98448946D01*
X126845102Y-98341476D01*
X126695700Y-98261619D01*
X126533589Y-98212444D01*
X126407246Y-98200000D01*
X126407239Y-98200000D01*
X126365000Y-98195840D01*
X126322761Y-98200000D01*
X124400870Y-98200000D01*
X124315256Y-98142795D01*
X124126898Y-98064774D01*
X123926939Y-98025000D01*
X123723061Y-98025000D01*
X123523102Y-98064774D01*
X123334744Y-98142795D01*
X123165226Y-98256063D01*
X123021063Y-98400226D01*
X122907795Y-98569744D01*
X122829774Y-98758102D01*
X122790000Y-98958061D01*
X122770000Y-98958061D01*
X122770000Y-98913740D01*
X122712932Y-98626842D01*
X122600990Y-98356589D01*
X122438475Y-98113368D01*
X122231632Y-97906525D01*
X121988411Y-97744010D01*
X121718158Y-97632068D01*
X121431260Y-97575000D01*
X121138740Y-97575000D01*
X120851842Y-97632068D01*
X120581589Y-97744010D01*
X120338368Y-97906525D01*
X120131525Y-98113368D01*
X120015000Y-98287760D01*
X119898475Y-98113368D01*
X119691632Y-97906525D01*
X119448411Y-97744010D01*
X119178158Y-97632068D01*
X118891260Y-97575000D01*
X118598740Y-97575000D01*
X118311842Y-97632068D01*
X118041589Y-97744010D01*
X117798368Y-97906525D01*
X117591525Y-98113368D01*
X117429010Y-98356589D01*
X117317068Y-98626842D01*
X117260000Y-98913740D01*
X115150000Y-98913740D01*
X115092932Y-98626842D01*
X114980990Y-98356589D01*
X114818475Y-98113368D01*
X114611632Y-97906525D01*
X114368411Y-97744010D01*
X114098158Y-97632068D01*
X113811260Y-97575000D01*
X113518740Y-97575000D01*
X113231842Y-97632068D01*
X112961589Y-97744010D01*
X112718368Y-97906525D01*
X112586513Y-98038380D01*
X112564502Y-97965820D01*
X112505537Y-97855506D01*
X112426185Y-97758815D01*
X112329494Y-97679463D01*
X112219180Y-97620498D01*
X112099482Y-97584188D01*
X111975000Y-97571928D01*
X110275000Y-97571928D01*
X110150518Y-97584188D01*
X110030820Y-97620498D01*
X109920506Y-97679463D01*
X109823815Y-97758815D01*
X109744463Y-97855506D01*
X109685498Y-97965820D01*
X109649188Y-98085518D01*
X109636928Y-98210000D01*
X102260000Y-98210000D01*
X102260000Y-92401229D01*
X102275000Y-92401229D01*
X102275000Y-93018771D01*
X102395476Y-93624446D01*
X102631799Y-94194979D01*
X102974886Y-94708446D01*
X103411554Y-95145114D01*
X103925021Y-95488201D01*
X104495554Y-95724524D01*
X105101229Y-95845000D01*
X105718771Y-95845000D01*
X106324446Y-95724524D01*
X106894979Y-95488201D01*
X107408446Y-95145114D01*
X107845114Y-94708446D01*
X108188201Y-94194979D01*
X108424524Y-93624446D01*
X108545000Y-93018771D01*
X108545000Y-92571200D01*
X128598028Y-92571200D01*
X128598028Y-94271200D01*
X128610288Y-94395682D01*
X128646598Y-94515380D01*
X128705563Y-94625694D01*
X128784915Y-94722385D01*
X128881606Y-94801737D01*
X128991920Y-94860702D01*
X129064480Y-94882713D01*
X128932625Y-95014568D01*
X128770110Y-95257789D01*
X128658168Y-95528042D01*
X128601100Y-95814940D01*
X128601100Y-96107460D01*
X128658168Y-96394358D01*
X128770110Y-96664611D01*
X128932625Y-96907832D01*
X129139468Y-97114675D01*
X129382689Y-97277190D01*
X129652942Y-97389132D01*
X129939840Y-97446200D01*
X130232360Y-97446200D01*
X130519258Y-97389132D01*
X130789511Y-97277190D01*
X131032732Y-97114675D01*
X131239575Y-96907832D01*
X131356100Y-96733440D01*
X131472625Y-96907832D01*
X131679468Y-97114675D01*
X131922689Y-97277190D01*
X132192942Y-97389132D01*
X132479840Y-97446200D01*
X132772360Y-97446200D01*
X133059258Y-97389132D01*
X133329511Y-97277190D01*
X133572732Y-97114675D01*
X133779575Y-96907832D01*
X133896100Y-96733440D01*
X134012625Y-96907832D01*
X134219468Y-97114675D01*
X134462689Y-97277190D01*
X134732942Y-97389132D01*
X135019840Y-97446200D01*
X135312360Y-97446200D01*
X135599258Y-97389132D01*
X135869511Y-97277190D01*
X136112732Y-97114675D01*
X136319575Y-96907832D01*
X136436100Y-96733440D01*
X136552625Y-96907832D01*
X136759468Y-97114675D01*
X137002689Y-97277190D01*
X137272942Y-97389132D01*
X137559840Y-97446200D01*
X137852360Y-97446200D01*
X138139258Y-97389132D01*
X138409511Y-97277190D01*
X138652732Y-97114675D01*
X138859575Y-96907832D01*
X138976100Y-96733440D01*
X139092625Y-96907832D01*
X139299468Y-97114675D01*
X139542689Y-97277190D01*
X139812942Y-97389132D01*
X140099840Y-97446200D01*
X140392360Y-97446200D01*
X140679258Y-97389132D01*
X140949511Y-97277190D01*
X141192732Y-97114675D01*
X141399575Y-96907832D01*
X141562090Y-96664611D01*
X141674032Y-96394358D01*
X141731100Y-96107460D01*
X141731100Y-95814940D01*
X141674032Y-95528042D01*
X141562090Y-95257789D01*
X141399575Y-95014568D01*
X141192732Y-94807725D01*
X141018340Y-94691200D01*
X141192732Y-94574675D01*
X141399575Y-94367832D01*
X141516100Y-94193440D01*
X141632625Y-94367832D01*
X141839468Y-94574675D01*
X142082689Y-94737190D01*
X142352942Y-94849132D01*
X142639840Y-94906200D01*
X142932360Y-94906200D01*
X143219258Y-94849132D01*
X143489511Y-94737190D01*
X143732732Y-94574675D01*
X143939575Y-94367832D01*
X144102090Y-94124611D01*
X144214032Y-93854358D01*
X144271100Y-93567460D01*
X144271100Y-93274940D01*
X144214032Y-92988042D01*
X144102090Y-92717789D01*
X143939575Y-92474568D01*
X143732732Y-92267725D01*
X143489511Y-92105210D01*
X143219258Y-91993268D01*
X142932360Y-91936200D01*
X142639840Y-91936200D01*
X142352942Y-91993268D01*
X142082689Y-92105210D01*
X141839468Y-92267725D01*
X141632625Y-92474568D01*
X141516100Y-92648960D01*
X141399575Y-92474568D01*
X141192732Y-92267725D01*
X140949511Y-92105210D01*
X140679258Y-91993268D01*
X140392360Y-91936200D01*
X140099840Y-91936200D01*
X139812942Y-91993268D01*
X139542689Y-92105210D01*
X139299468Y-92267725D01*
X139092625Y-92474568D01*
X138976100Y-92648960D01*
X138859575Y-92474568D01*
X138652732Y-92267725D01*
X138409511Y-92105210D01*
X138139258Y-91993268D01*
X137852360Y-91936200D01*
X137559840Y-91936200D01*
X137272942Y-91993268D01*
X137002689Y-92105210D01*
X136759468Y-92267725D01*
X136552625Y-92474568D01*
X136436100Y-92648960D01*
X136319575Y-92474568D01*
X136112732Y-92267725D01*
X135869511Y-92105210D01*
X135599258Y-91993268D01*
X135312360Y-91936200D01*
X135019840Y-91936200D01*
X134732942Y-91993268D01*
X134462689Y-92105210D01*
X134219468Y-92267725D01*
X134012625Y-92474568D01*
X133896100Y-92648960D01*
X133779575Y-92474568D01*
X133572732Y-92267725D01*
X133329511Y-92105210D01*
X133059258Y-91993268D01*
X132772360Y-91936200D01*
X132479840Y-91936200D01*
X132192942Y-91993268D01*
X131922689Y-92105210D01*
X131679468Y-92267725D01*
X131547613Y-92399580D01*
X131525602Y-92327020D01*
X131466637Y-92216706D01*
X131387285Y-92120015D01*
X131290594Y-92040663D01*
X131180280Y-91981698D01*
X131060582Y-91945388D01*
X130936100Y-91933128D01*
X129236100Y-91933128D01*
X129111618Y-91945388D01*
X128991920Y-91981698D01*
X128881606Y-92040663D01*
X128784915Y-92120015D01*
X128705563Y-92216706D01*
X128646598Y-92327020D01*
X128610288Y-92446718D01*
X128598028Y-92571200D01*
X108545000Y-92571200D01*
X108545000Y-92401229D01*
X108424524Y-91795554D01*
X108188201Y-91225021D01*
X107845114Y-90711554D01*
X107408446Y-90274886D01*
X106894979Y-89931799D01*
X106324446Y-89695476D01*
X105718771Y-89575000D01*
X105101229Y-89575000D01*
X104495554Y-89695476D01*
X103925021Y-89931799D01*
X103411554Y-90274886D01*
X102974886Y-90711554D01*
X102631799Y-91225021D01*
X102395476Y-91795554D01*
X102275000Y-92401229D01*
X102260000Y-92401229D01*
X102260000Y-89560000D01*
X157117903Y-89560000D01*
X156756054Y-89631976D01*
M02*
