M48
; DRILL file {KiCad 5.1.6-c6e7f7d~86~ubuntu18.04.1} date Sat Jun 27 17:17:57 2020
; FORMAT={-:-/ absolute / inch / decimal}
; #@! TF.CreationDate,2020-06-27T17:17:57+01:00
; #@! TF.GenerationSoftware,Kicad,Pcbnew,5.1.6-c6e7f7d~86~ubuntu18.04.1
; #@! TF.FileFunction,Plated,1,2,PTH
FMAT,2
INCH
T1C0.0157
T2C0.0394
T3C0.0469
%
G90
G05
T1
X4.65Y-4.2664
X4.65Y-4.78
X4.7994Y-4.4944
X4.875Y-3.9
X4.915Y-4.9725
X5.2719Y-4.7094
X5.455Y-4.61
X5.6038Y-4.6747
X5.7839Y-4.2711
X5.9986Y-4.3186
X6.195Y-4.125
T2
X5.605Y-4.825
X5.605Y-4.925
X5.001Y-4.099
X5.001Y-4.199
X5.001Y-4.299
X5.0Y-4.685
X6.155Y-4.3325
X6.155Y-4.4325
X6.155Y-4.5325
X6.155Y-4.6325
X6.255Y-4.3325
X6.255Y-4.4325
X6.255Y-4.5325
X6.255Y-4.6325
X5.0Y-4.485
X5.0Y-4.585
X5.0Y-4.8842
X4.375Y-3.9
X4.475Y-3.9
X4.575Y-3.9
X4.675Y-3.9
X4.775Y-3.9
X5.705Y-4.825
X5.705Y-4.925
X5.805Y-4.825
X5.805Y-4.925
X5.1215Y-3.678
X5.1215Y-3.778
X5.2215Y-3.678
X5.2215Y-3.778
X5.3215Y-3.678
X5.3215Y-3.778
X5.4215Y-3.678
X5.4215Y-3.778
X5.5215Y-3.678
X5.5215Y-3.778
X5.6215Y-3.678
X5.6215Y-3.778
X5.7215Y-3.678
X5.7215Y-3.778
X5.8215Y-3.678
X5.8215Y-3.778
T3
X4.15Y-4.05
X4.15Y-4.15
T0
M30
