G04 #@! TF.GenerationSoftware,KiCad,Pcbnew,5.1.6-c6e7f7d~86~ubuntu18.04.1*
G04 #@! TF.CreationDate,2020-06-27T17:17:55+01:00*
G04 #@! TF.ProjectId,Controller,436f6e74-726f-46c6-9c65-722e6b696361,rev?*
G04 #@! TF.SameCoordinates,Original*
G04 #@! TF.FileFunction,Soldermask,Bot*
G04 #@! TF.FilePolarity,Negative*
%FSLAX46Y46*%
G04 Gerber Fmt 4.6, Leading zero omitted, Abs format (unit mm)*
G04 Created by KiCad (PCBNEW 5.1.6-c6e7f7d~86~ubuntu18.04.1) date 2020-06-27 17:17:55*
%MOMM*%
%LPD*%
G01*
G04 APERTURE LIST*
%ADD10C,0.100000*%
G04 APERTURE END LIST*
D10*
G36*
X106154098Y-123277033D02*
G01*
X106618350Y-123469332D01*
X106618352Y-123469333D01*
X107036168Y-123748509D01*
X107391491Y-124103832D01*
X107670667Y-124521648D01*
X107670668Y-124521650D01*
X107862967Y-124985902D01*
X107961000Y-125478747D01*
X107961000Y-125981253D01*
X107862967Y-126474098D01*
X107670668Y-126938350D01*
X107670667Y-126938352D01*
X107391491Y-127356168D01*
X107036168Y-127711491D01*
X106618352Y-127990667D01*
X106618351Y-127990668D01*
X106618350Y-127990668D01*
X106154098Y-128182967D01*
X105661253Y-128281000D01*
X105158747Y-128281000D01*
X104665902Y-128182967D01*
X104201650Y-127990668D01*
X104201649Y-127990668D01*
X104201648Y-127990667D01*
X103783832Y-127711491D01*
X103428509Y-127356168D01*
X103149333Y-126938352D01*
X103149332Y-126938350D01*
X102957033Y-126474098D01*
X102859000Y-125981253D01*
X102859000Y-125478747D01*
X102957033Y-124985902D01*
X103149332Y-124521650D01*
X103149333Y-124521648D01*
X103428509Y-124103832D01*
X103783832Y-123748509D01*
X104201648Y-123469333D01*
X104201650Y-123469332D01*
X104665902Y-123277033D01*
X105158747Y-123179000D01*
X105661253Y-123179000D01*
X106154098Y-123277033D01*
G37*
G36*
X158427298Y-123277033D02*
G01*
X158891550Y-123469332D01*
X158891552Y-123469333D01*
X159309368Y-123748509D01*
X159664691Y-124103832D01*
X159943867Y-124521648D01*
X159943868Y-124521650D01*
X160136167Y-124985902D01*
X160234200Y-125478747D01*
X160234200Y-125981253D01*
X160136167Y-126474098D01*
X159943868Y-126938350D01*
X159943867Y-126938352D01*
X159664691Y-127356168D01*
X159309368Y-127711491D01*
X158891552Y-127990667D01*
X158891551Y-127990668D01*
X158891550Y-127990668D01*
X158427298Y-128182967D01*
X157934453Y-128281000D01*
X157431947Y-128281000D01*
X156939102Y-128182967D01*
X156474850Y-127990668D01*
X156474849Y-127990668D01*
X156474848Y-127990667D01*
X156057032Y-127711491D01*
X155701709Y-127356168D01*
X155422533Y-126938352D01*
X155422532Y-126938350D01*
X155230233Y-126474098D01*
X155132200Y-125981253D01*
X155132200Y-125478747D01*
X155230233Y-124985902D01*
X155422532Y-124521650D01*
X155422533Y-124521648D01*
X155701709Y-124103832D01*
X156057032Y-123748509D01*
X156474848Y-123469333D01*
X156474850Y-123469332D01*
X156939102Y-123277033D01*
X157431947Y-123179000D01*
X157934453Y-123179000D01*
X158427298Y-123277033D01*
G37*
G36*
X145808000Y-125996000D02*
G01*
X144006000Y-125996000D01*
X144006000Y-124194000D01*
X145808000Y-124194000D01*
X145808000Y-125996000D01*
G37*
G36*
X148348000Y-125996000D02*
G01*
X146546000Y-125996000D01*
X146546000Y-124194000D01*
X148348000Y-124194000D01*
X148348000Y-125996000D01*
G37*
G36*
X143268000Y-125996000D02*
G01*
X141466000Y-125996000D01*
X141466000Y-124194000D01*
X143268000Y-124194000D01*
X143268000Y-125996000D01*
G37*
G36*
X127306564Y-123048389D02*
G01*
X127497833Y-123127615D01*
X127497835Y-123127616D01*
X127669973Y-123242635D01*
X127816365Y-123389027D01*
X127931385Y-123561167D01*
X128010611Y-123752436D01*
X128051000Y-123955484D01*
X128051000Y-124162516D01*
X128010611Y-124365564D01*
X127945959Y-124521648D01*
X127931384Y-124556835D01*
X127816365Y-124728973D01*
X127669973Y-124875365D01*
X127497835Y-124990384D01*
X127497834Y-124990385D01*
X127497833Y-124990385D01*
X127306564Y-125069611D01*
X127103516Y-125110000D01*
X126896484Y-125110000D01*
X126693436Y-125069611D01*
X126502167Y-124990385D01*
X126502166Y-124990385D01*
X126502165Y-124990384D01*
X126330027Y-124875365D01*
X126183635Y-124728973D01*
X126068616Y-124556835D01*
X126054041Y-124521648D01*
X125989389Y-124365564D01*
X125949000Y-124162516D01*
X125949000Y-123955484D01*
X125989389Y-123752436D01*
X126068615Y-123561167D01*
X126183635Y-123389027D01*
X126330027Y-123242635D01*
X126502165Y-123127616D01*
X126502167Y-123127615D01*
X126693436Y-123048389D01*
X126896484Y-123008000D01*
X127103516Y-123008000D01*
X127306564Y-123048389D01*
G37*
G36*
X145020512Y-121658927D02*
G01*
X145169812Y-121688624D01*
X145333784Y-121756544D01*
X145481354Y-121855147D01*
X145606853Y-121980646D01*
X145705456Y-122128216D01*
X145773376Y-122292188D01*
X145808000Y-122466259D01*
X145808000Y-122643741D01*
X145773376Y-122817812D01*
X145705456Y-122981784D01*
X145606853Y-123129354D01*
X145481354Y-123254853D01*
X145333784Y-123353456D01*
X145169812Y-123421376D01*
X145020512Y-123451073D01*
X144995742Y-123456000D01*
X144818258Y-123456000D01*
X144793488Y-123451073D01*
X144644188Y-123421376D01*
X144480216Y-123353456D01*
X144332646Y-123254853D01*
X144207147Y-123129354D01*
X144108544Y-122981784D01*
X144040624Y-122817812D01*
X144006000Y-122643741D01*
X144006000Y-122466259D01*
X144040624Y-122292188D01*
X144108544Y-122128216D01*
X144207147Y-121980646D01*
X144332646Y-121855147D01*
X144480216Y-121756544D01*
X144644188Y-121688624D01*
X144793488Y-121658927D01*
X144818258Y-121654000D01*
X144995742Y-121654000D01*
X145020512Y-121658927D01*
G37*
G36*
X147560512Y-121658927D02*
G01*
X147709812Y-121688624D01*
X147873784Y-121756544D01*
X148021354Y-121855147D01*
X148146853Y-121980646D01*
X148245456Y-122128216D01*
X148313376Y-122292188D01*
X148348000Y-122466259D01*
X148348000Y-122643741D01*
X148313376Y-122817812D01*
X148245456Y-122981784D01*
X148146853Y-123129354D01*
X148021354Y-123254853D01*
X147873784Y-123353456D01*
X147709812Y-123421376D01*
X147560512Y-123451073D01*
X147535742Y-123456000D01*
X147358258Y-123456000D01*
X147333488Y-123451073D01*
X147184188Y-123421376D01*
X147020216Y-123353456D01*
X146872646Y-123254853D01*
X146747147Y-123129354D01*
X146648544Y-122981784D01*
X146580624Y-122817812D01*
X146546000Y-122643741D01*
X146546000Y-122466259D01*
X146580624Y-122292188D01*
X146648544Y-122128216D01*
X146747147Y-121980646D01*
X146872646Y-121855147D01*
X147020216Y-121756544D01*
X147184188Y-121688624D01*
X147333488Y-121658927D01*
X147358258Y-121654000D01*
X147535742Y-121654000D01*
X147560512Y-121658927D01*
G37*
G36*
X142480512Y-121658927D02*
G01*
X142629812Y-121688624D01*
X142793784Y-121756544D01*
X142941354Y-121855147D01*
X143066853Y-121980646D01*
X143165456Y-122128216D01*
X143233376Y-122292188D01*
X143268000Y-122466259D01*
X143268000Y-122643741D01*
X143233376Y-122817812D01*
X143165456Y-122981784D01*
X143066853Y-123129354D01*
X142941354Y-123254853D01*
X142793784Y-123353456D01*
X142629812Y-123421376D01*
X142480512Y-123451073D01*
X142455742Y-123456000D01*
X142278258Y-123456000D01*
X142253488Y-123451073D01*
X142104188Y-123421376D01*
X141940216Y-123353456D01*
X141792646Y-123254853D01*
X141667147Y-123129354D01*
X141568544Y-122981784D01*
X141500624Y-122817812D01*
X141466000Y-122643741D01*
X141466000Y-122466259D01*
X141500624Y-122292188D01*
X141568544Y-122128216D01*
X141667147Y-121980646D01*
X141792646Y-121855147D01*
X141940216Y-121756544D01*
X142104188Y-121688624D01*
X142253488Y-121658927D01*
X142278258Y-121654000D01*
X142455742Y-121654000D01*
X142480512Y-121658927D01*
G37*
G36*
X127901000Y-119900000D02*
G01*
X126099000Y-119900000D01*
X126099000Y-118098000D01*
X127901000Y-118098000D01*
X127901000Y-119900000D01*
G37*
G36*
X156450512Y-116769427D02*
G01*
X156599812Y-116799124D01*
X156763784Y-116867044D01*
X156911354Y-116965647D01*
X157036853Y-117091146D01*
X157135456Y-117238716D01*
X157203376Y-117402688D01*
X157238000Y-117576759D01*
X157238000Y-117754241D01*
X157203376Y-117928312D01*
X157135456Y-118092284D01*
X157036853Y-118239854D01*
X156911354Y-118365353D01*
X156763784Y-118463956D01*
X156599812Y-118531876D01*
X156450512Y-118561573D01*
X156425742Y-118566500D01*
X156248258Y-118566500D01*
X156223488Y-118561573D01*
X156074188Y-118531876D01*
X155910216Y-118463956D01*
X155762646Y-118365353D01*
X155637147Y-118239854D01*
X155538544Y-118092284D01*
X155470624Y-117928312D01*
X155436000Y-117754241D01*
X155436000Y-117576759D01*
X155470624Y-117402688D01*
X155538544Y-117238716D01*
X155637147Y-117091146D01*
X155762646Y-116965647D01*
X155910216Y-116867044D01*
X156074188Y-116799124D01*
X156223488Y-116769427D01*
X156248258Y-116764500D01*
X156425742Y-116764500D01*
X156450512Y-116769427D01*
G37*
G36*
X158990512Y-116769427D02*
G01*
X159139812Y-116799124D01*
X159303784Y-116867044D01*
X159451354Y-116965647D01*
X159576853Y-117091146D01*
X159675456Y-117238716D01*
X159743376Y-117402688D01*
X159778000Y-117576759D01*
X159778000Y-117754241D01*
X159743376Y-117928312D01*
X159675456Y-118092284D01*
X159576853Y-118239854D01*
X159451354Y-118365353D01*
X159303784Y-118463956D01*
X159139812Y-118531876D01*
X158990512Y-118561573D01*
X158965742Y-118566500D01*
X158788258Y-118566500D01*
X158763488Y-118561573D01*
X158614188Y-118531876D01*
X158450216Y-118463956D01*
X158302646Y-118365353D01*
X158177147Y-118239854D01*
X158078544Y-118092284D01*
X158010624Y-117928312D01*
X157976000Y-117754241D01*
X157976000Y-117576759D01*
X158010624Y-117402688D01*
X158078544Y-117238716D01*
X158177147Y-117091146D01*
X158302646Y-116965647D01*
X158450216Y-116867044D01*
X158614188Y-116799124D01*
X158763488Y-116769427D01*
X158788258Y-116764500D01*
X158965742Y-116764500D01*
X158990512Y-116769427D01*
G37*
G36*
X128051000Y-117510000D02*
G01*
X125949000Y-117510000D01*
X125949000Y-115408000D01*
X128051000Y-115408000D01*
X128051000Y-117510000D01*
G37*
G36*
X156450512Y-114229427D02*
G01*
X156599812Y-114259124D01*
X156763784Y-114327044D01*
X156911354Y-114425647D01*
X157036853Y-114551146D01*
X157135456Y-114698716D01*
X157203376Y-114862688D01*
X157238000Y-115036759D01*
X157238000Y-115214241D01*
X157203376Y-115388312D01*
X157135456Y-115552284D01*
X157036853Y-115699854D01*
X156911354Y-115825353D01*
X156763784Y-115923956D01*
X156599812Y-115991876D01*
X156450512Y-116021573D01*
X156425742Y-116026500D01*
X156248258Y-116026500D01*
X156223488Y-116021573D01*
X156074188Y-115991876D01*
X155910216Y-115923956D01*
X155762646Y-115825353D01*
X155637147Y-115699854D01*
X155538544Y-115552284D01*
X155470624Y-115388312D01*
X155436000Y-115214241D01*
X155436000Y-115036759D01*
X155470624Y-114862688D01*
X155538544Y-114698716D01*
X155637147Y-114551146D01*
X155762646Y-114425647D01*
X155910216Y-114327044D01*
X156074188Y-114259124D01*
X156223488Y-114229427D01*
X156248258Y-114224500D01*
X156425742Y-114224500D01*
X156450512Y-114229427D01*
G37*
G36*
X158990512Y-114229427D02*
G01*
X159139812Y-114259124D01*
X159303784Y-114327044D01*
X159451354Y-114425647D01*
X159576853Y-114551146D01*
X159675456Y-114698716D01*
X159743376Y-114862688D01*
X159778000Y-115036759D01*
X159778000Y-115214241D01*
X159743376Y-115388312D01*
X159675456Y-115552284D01*
X159576853Y-115699854D01*
X159451354Y-115825353D01*
X159303784Y-115923956D01*
X159139812Y-115991876D01*
X158990512Y-116021573D01*
X158965742Y-116026500D01*
X158788258Y-116026500D01*
X158763488Y-116021573D01*
X158614188Y-115991876D01*
X158450216Y-115923956D01*
X158302646Y-115825353D01*
X158177147Y-115699854D01*
X158078544Y-115552284D01*
X158010624Y-115388312D01*
X157976000Y-115214241D01*
X157976000Y-115036759D01*
X158010624Y-114862688D01*
X158078544Y-114698716D01*
X158177147Y-114551146D01*
X158302646Y-114425647D01*
X158450216Y-114327044D01*
X158614188Y-114259124D01*
X158763488Y-114229427D01*
X158788258Y-114224500D01*
X158965742Y-114224500D01*
X158990512Y-114229427D01*
G37*
G36*
X127901000Y-114820000D02*
G01*
X126099000Y-114820000D01*
X126099000Y-113018000D01*
X127901000Y-113018000D01*
X127901000Y-114820000D01*
G37*
G36*
X158990512Y-111689427D02*
G01*
X159139812Y-111719124D01*
X159303784Y-111787044D01*
X159451354Y-111885647D01*
X159576853Y-112011146D01*
X159675456Y-112158716D01*
X159743376Y-112322688D01*
X159778000Y-112496759D01*
X159778000Y-112674241D01*
X159743376Y-112848312D01*
X159675456Y-113012284D01*
X159576853Y-113159854D01*
X159451354Y-113285353D01*
X159303784Y-113383956D01*
X159139812Y-113451876D01*
X158990512Y-113481573D01*
X158965742Y-113486500D01*
X158788258Y-113486500D01*
X158763488Y-113481573D01*
X158614188Y-113451876D01*
X158450216Y-113383956D01*
X158302646Y-113285353D01*
X158177147Y-113159854D01*
X158078544Y-113012284D01*
X158010624Y-112848312D01*
X157976000Y-112674241D01*
X157976000Y-112496759D01*
X158010624Y-112322688D01*
X158078544Y-112158716D01*
X158177147Y-112011146D01*
X158302646Y-111885647D01*
X158450216Y-111787044D01*
X158614188Y-111719124D01*
X158763488Y-111689427D01*
X158788258Y-111684500D01*
X158965742Y-111684500D01*
X158990512Y-111689427D01*
G37*
G36*
X156450512Y-111689427D02*
G01*
X156599812Y-111719124D01*
X156763784Y-111787044D01*
X156911354Y-111885647D01*
X157036853Y-112011146D01*
X157135456Y-112158716D01*
X157203376Y-112322688D01*
X157238000Y-112496759D01*
X157238000Y-112674241D01*
X157203376Y-112848312D01*
X157135456Y-113012284D01*
X157036853Y-113159854D01*
X156911354Y-113285353D01*
X156763784Y-113383956D01*
X156599812Y-113451876D01*
X156450512Y-113481573D01*
X156425742Y-113486500D01*
X156248258Y-113486500D01*
X156223488Y-113481573D01*
X156074188Y-113451876D01*
X155910216Y-113383956D01*
X155762646Y-113285353D01*
X155637147Y-113159854D01*
X155538544Y-113012284D01*
X155470624Y-112848312D01*
X155436000Y-112674241D01*
X155436000Y-112496759D01*
X155470624Y-112322688D01*
X155538544Y-112158716D01*
X155637147Y-112011146D01*
X155762646Y-111885647D01*
X155910216Y-111787044D01*
X156074188Y-111719124D01*
X156223488Y-111689427D01*
X156248258Y-111684500D01*
X156425742Y-111684500D01*
X156450512Y-111689427D01*
G37*
G36*
X159778000Y-110946500D02*
G01*
X157976000Y-110946500D01*
X157976000Y-109144500D01*
X159778000Y-109144500D01*
X159778000Y-110946500D01*
G37*
G36*
X156450512Y-109149427D02*
G01*
X156599812Y-109179124D01*
X156763784Y-109247044D01*
X156911354Y-109345647D01*
X157036853Y-109471146D01*
X157135456Y-109618716D01*
X157203376Y-109782688D01*
X157238000Y-109956759D01*
X157238000Y-110134241D01*
X157203376Y-110308312D01*
X157135456Y-110472284D01*
X157036853Y-110619854D01*
X156911354Y-110745353D01*
X156763784Y-110843956D01*
X156599812Y-110911876D01*
X156450512Y-110941573D01*
X156425742Y-110946500D01*
X156248258Y-110946500D01*
X156223488Y-110941573D01*
X156074188Y-110911876D01*
X155910216Y-110843956D01*
X155762646Y-110745353D01*
X155637147Y-110619854D01*
X155538544Y-110472284D01*
X155470624Y-110308312D01*
X155436000Y-110134241D01*
X155436000Y-109956759D01*
X155470624Y-109782688D01*
X155538544Y-109618716D01*
X155637147Y-109471146D01*
X155762646Y-109345647D01*
X155910216Y-109247044D01*
X156074188Y-109179124D01*
X156223488Y-109149427D01*
X156248258Y-109144500D01*
X156425742Y-109144500D01*
X156450512Y-109149427D01*
G37*
G36*
X127926400Y-110095600D02*
G01*
X126124400Y-110095600D01*
X126124400Y-108293600D01*
X127926400Y-108293600D01*
X127926400Y-110095600D01*
G37*
G36*
X127138912Y-105758527D02*
G01*
X127288212Y-105788224D01*
X127452184Y-105856144D01*
X127599754Y-105954747D01*
X127725253Y-106080246D01*
X127823856Y-106227816D01*
X127891776Y-106391788D01*
X127926400Y-106565859D01*
X127926400Y-106743341D01*
X127891776Y-106917412D01*
X127823856Y-107081384D01*
X127725253Y-107228954D01*
X127599754Y-107354453D01*
X127452184Y-107453056D01*
X127288212Y-107520976D01*
X127138912Y-107550673D01*
X127114142Y-107555600D01*
X126936658Y-107555600D01*
X126911888Y-107550673D01*
X126762588Y-107520976D01*
X126598616Y-107453056D01*
X126451046Y-107354453D01*
X126325547Y-107228954D01*
X126226944Y-107081384D01*
X126159024Y-106917412D01*
X126124400Y-106743341D01*
X126124400Y-106565859D01*
X126159024Y-106391788D01*
X126226944Y-106227816D01*
X126325547Y-106080246D01*
X126451046Y-105954747D01*
X126598616Y-105856144D01*
X126762588Y-105788224D01*
X126911888Y-105758527D01*
X126936658Y-105753600D01*
X127114142Y-105753600D01*
X127138912Y-105758527D01*
G37*
G36*
X105725345Y-104493442D02*
G01*
X105815548Y-104502326D01*
X105989157Y-104554990D01*
X106149156Y-104640511D01*
X106192729Y-104676271D01*
X106289397Y-104755603D01*
X106337692Y-104814452D01*
X106404489Y-104895844D01*
X106490010Y-105055843D01*
X106542674Y-105229452D01*
X106560456Y-105410000D01*
X106542674Y-105590548D01*
X106490010Y-105764157D01*
X106404489Y-105924156D01*
X106368729Y-105967729D01*
X106289397Y-106064397D01*
X106192729Y-106143729D01*
X106149156Y-106179489D01*
X105989157Y-106265010D01*
X105815548Y-106317674D01*
X105725345Y-106326558D01*
X105680245Y-106331000D01*
X105139755Y-106331000D01*
X105094655Y-106326558D01*
X105004452Y-106317674D01*
X104830843Y-106265010D01*
X104670844Y-106179489D01*
X104627271Y-106143729D01*
X104530603Y-106064397D01*
X104451271Y-105967729D01*
X104415511Y-105924156D01*
X104329990Y-105764157D01*
X104277326Y-105590548D01*
X104259544Y-105410000D01*
X104277326Y-105229452D01*
X104329990Y-105055843D01*
X104415511Y-104895844D01*
X104482308Y-104814452D01*
X104530603Y-104755603D01*
X104627271Y-104676271D01*
X104670844Y-104640511D01*
X104830843Y-104554990D01*
X105004452Y-104502326D01*
X105094655Y-104493442D01*
X105139755Y-104489000D01*
X105680245Y-104489000D01*
X105725345Y-104493442D01*
G37*
G36*
X127138912Y-103218527D02*
G01*
X127288212Y-103248224D01*
X127452184Y-103316144D01*
X127599754Y-103414747D01*
X127725253Y-103540246D01*
X127823856Y-103687816D01*
X127891776Y-103851788D01*
X127926400Y-104025859D01*
X127926400Y-104203341D01*
X127891776Y-104377412D01*
X127823856Y-104541384D01*
X127725253Y-104688954D01*
X127599754Y-104814453D01*
X127452184Y-104913056D01*
X127288212Y-104980976D01*
X127138912Y-105010673D01*
X127114142Y-105015600D01*
X126936658Y-105015600D01*
X126911888Y-105010673D01*
X126762588Y-104980976D01*
X126598616Y-104913056D01*
X126451046Y-104814453D01*
X126325547Y-104688954D01*
X126226944Y-104541384D01*
X126159024Y-104377412D01*
X126124400Y-104203341D01*
X126124400Y-104025859D01*
X126159024Y-103851788D01*
X126226944Y-103687816D01*
X126325547Y-103540246D01*
X126451046Y-103414747D01*
X126598616Y-103316144D01*
X126762588Y-103248224D01*
X126911888Y-103218527D01*
X126936658Y-103213600D01*
X127114142Y-103213600D01*
X127138912Y-103218527D01*
G37*
G36*
X106414561Y-101952966D02*
G01*
X106447383Y-101962923D01*
X106477632Y-101979092D01*
X106504148Y-102000852D01*
X106525908Y-102027368D01*
X106542077Y-102057617D01*
X106552034Y-102090439D01*
X106556000Y-102130713D01*
X106556000Y-103609287D01*
X106552034Y-103649561D01*
X106542077Y-103682383D01*
X106525908Y-103712632D01*
X106504148Y-103739148D01*
X106477632Y-103760908D01*
X106447383Y-103777077D01*
X106414561Y-103787034D01*
X106374287Y-103791000D01*
X104445713Y-103791000D01*
X104405439Y-103787034D01*
X104372617Y-103777077D01*
X104342368Y-103760908D01*
X104315852Y-103739148D01*
X104294092Y-103712632D01*
X104277923Y-103682383D01*
X104267966Y-103649561D01*
X104264000Y-103609287D01*
X104264000Y-102130713D01*
X104267966Y-102090439D01*
X104277923Y-102057617D01*
X104294092Y-102027368D01*
X104315852Y-102000852D01*
X104342368Y-101979092D01*
X104372617Y-101962923D01*
X104405439Y-101952966D01*
X104445713Y-101949000D01*
X106374287Y-101949000D01*
X106414561Y-101952966D01*
G37*
G36*
X113778512Y-98163927D02*
G01*
X113927812Y-98193624D01*
X114091784Y-98261544D01*
X114239354Y-98360147D01*
X114364853Y-98485646D01*
X114463456Y-98633216D01*
X114531376Y-98797188D01*
X114566000Y-98971259D01*
X114566000Y-99148741D01*
X114531376Y-99322812D01*
X114463456Y-99486784D01*
X114364853Y-99634354D01*
X114239354Y-99759853D01*
X114091784Y-99858456D01*
X113927812Y-99926376D01*
X113778512Y-99956073D01*
X113753742Y-99961000D01*
X113576258Y-99961000D01*
X113551488Y-99956073D01*
X113402188Y-99926376D01*
X113238216Y-99858456D01*
X113090646Y-99759853D01*
X112965147Y-99634354D01*
X112866544Y-99486784D01*
X112798624Y-99322812D01*
X112764000Y-99148741D01*
X112764000Y-98971259D01*
X112798624Y-98797188D01*
X112866544Y-98633216D01*
X112965147Y-98485646D01*
X113090646Y-98360147D01*
X113238216Y-98261544D01*
X113402188Y-98193624D01*
X113551488Y-98163927D01*
X113576258Y-98159000D01*
X113753742Y-98159000D01*
X113778512Y-98163927D01*
G37*
G36*
X116318512Y-98163927D02*
G01*
X116467812Y-98193624D01*
X116631784Y-98261544D01*
X116779354Y-98360147D01*
X116904853Y-98485646D01*
X117003456Y-98633216D01*
X117071376Y-98797188D01*
X117106000Y-98971259D01*
X117106000Y-99148741D01*
X117071376Y-99322812D01*
X117003456Y-99486784D01*
X116904853Y-99634354D01*
X116779354Y-99759853D01*
X116631784Y-99858456D01*
X116467812Y-99926376D01*
X116318512Y-99956073D01*
X116293742Y-99961000D01*
X116116258Y-99961000D01*
X116091488Y-99956073D01*
X115942188Y-99926376D01*
X115778216Y-99858456D01*
X115630646Y-99759853D01*
X115505147Y-99634354D01*
X115406544Y-99486784D01*
X115338624Y-99322812D01*
X115304000Y-99148741D01*
X115304000Y-98971259D01*
X115338624Y-98797188D01*
X115406544Y-98633216D01*
X115505147Y-98485646D01*
X115630646Y-98360147D01*
X115778216Y-98261544D01*
X115942188Y-98193624D01*
X116091488Y-98163927D01*
X116116258Y-98159000D01*
X116293742Y-98159000D01*
X116318512Y-98163927D01*
G37*
G36*
X121398512Y-98163927D02*
G01*
X121547812Y-98193624D01*
X121711784Y-98261544D01*
X121859354Y-98360147D01*
X121984853Y-98485646D01*
X122083456Y-98633216D01*
X122151376Y-98797188D01*
X122186000Y-98971259D01*
X122186000Y-99148741D01*
X122151376Y-99322812D01*
X122083456Y-99486784D01*
X121984853Y-99634354D01*
X121859354Y-99759853D01*
X121711784Y-99858456D01*
X121547812Y-99926376D01*
X121398512Y-99956073D01*
X121373742Y-99961000D01*
X121196258Y-99961000D01*
X121171488Y-99956073D01*
X121022188Y-99926376D01*
X120858216Y-99858456D01*
X120710646Y-99759853D01*
X120585147Y-99634354D01*
X120486544Y-99486784D01*
X120418624Y-99322812D01*
X120384000Y-99148741D01*
X120384000Y-98971259D01*
X120418624Y-98797188D01*
X120486544Y-98633216D01*
X120585147Y-98485646D01*
X120710646Y-98360147D01*
X120858216Y-98261544D01*
X121022188Y-98193624D01*
X121171488Y-98163927D01*
X121196258Y-98159000D01*
X121373742Y-98159000D01*
X121398512Y-98163927D01*
G37*
G36*
X118858512Y-98163927D02*
G01*
X119007812Y-98193624D01*
X119171784Y-98261544D01*
X119319354Y-98360147D01*
X119444853Y-98485646D01*
X119543456Y-98633216D01*
X119611376Y-98797188D01*
X119646000Y-98971259D01*
X119646000Y-99148741D01*
X119611376Y-99322812D01*
X119543456Y-99486784D01*
X119444853Y-99634354D01*
X119319354Y-99759853D01*
X119171784Y-99858456D01*
X119007812Y-99926376D01*
X118858512Y-99956073D01*
X118833742Y-99961000D01*
X118656258Y-99961000D01*
X118631488Y-99956073D01*
X118482188Y-99926376D01*
X118318216Y-99858456D01*
X118170646Y-99759853D01*
X118045147Y-99634354D01*
X117946544Y-99486784D01*
X117878624Y-99322812D01*
X117844000Y-99148741D01*
X117844000Y-98971259D01*
X117878624Y-98797188D01*
X117946544Y-98633216D01*
X118045147Y-98485646D01*
X118170646Y-98360147D01*
X118318216Y-98261544D01*
X118482188Y-98193624D01*
X118631488Y-98163927D01*
X118656258Y-98159000D01*
X118833742Y-98159000D01*
X118858512Y-98163927D01*
G37*
G36*
X112026000Y-99961000D02*
G01*
X110224000Y-99961000D01*
X110224000Y-98159000D01*
X112026000Y-98159000D01*
X112026000Y-99961000D01*
G37*
G36*
X132739612Y-95065127D02*
G01*
X132888912Y-95094824D01*
X133052884Y-95162744D01*
X133200454Y-95261347D01*
X133325953Y-95386846D01*
X133424556Y-95534416D01*
X133492476Y-95698388D01*
X133527100Y-95872459D01*
X133527100Y-96049941D01*
X133492476Y-96224012D01*
X133424556Y-96387984D01*
X133325953Y-96535554D01*
X133200454Y-96661053D01*
X133052884Y-96759656D01*
X132888912Y-96827576D01*
X132739612Y-96857273D01*
X132714842Y-96862200D01*
X132537358Y-96862200D01*
X132512588Y-96857273D01*
X132363288Y-96827576D01*
X132199316Y-96759656D01*
X132051746Y-96661053D01*
X131926247Y-96535554D01*
X131827644Y-96387984D01*
X131759724Y-96224012D01*
X131725100Y-96049941D01*
X131725100Y-95872459D01*
X131759724Y-95698388D01*
X131827644Y-95534416D01*
X131926247Y-95386846D01*
X132051746Y-95261347D01*
X132199316Y-95162744D01*
X132363288Y-95094824D01*
X132512588Y-95065127D01*
X132537358Y-95060200D01*
X132714842Y-95060200D01*
X132739612Y-95065127D01*
G37*
G36*
X130199612Y-95065127D02*
G01*
X130348912Y-95094824D01*
X130512884Y-95162744D01*
X130660454Y-95261347D01*
X130785953Y-95386846D01*
X130884556Y-95534416D01*
X130952476Y-95698388D01*
X130987100Y-95872459D01*
X130987100Y-96049941D01*
X130952476Y-96224012D01*
X130884556Y-96387984D01*
X130785953Y-96535554D01*
X130660454Y-96661053D01*
X130512884Y-96759656D01*
X130348912Y-96827576D01*
X130199612Y-96857273D01*
X130174842Y-96862200D01*
X129997358Y-96862200D01*
X129972588Y-96857273D01*
X129823288Y-96827576D01*
X129659316Y-96759656D01*
X129511746Y-96661053D01*
X129386247Y-96535554D01*
X129287644Y-96387984D01*
X129219724Y-96224012D01*
X129185100Y-96049941D01*
X129185100Y-95872459D01*
X129219724Y-95698388D01*
X129287644Y-95534416D01*
X129386247Y-95386846D01*
X129511746Y-95261347D01*
X129659316Y-95162744D01*
X129823288Y-95094824D01*
X129972588Y-95065127D01*
X129997358Y-95060200D01*
X130174842Y-95060200D01*
X130199612Y-95065127D01*
G37*
G36*
X135279612Y-95065127D02*
G01*
X135428912Y-95094824D01*
X135592884Y-95162744D01*
X135740454Y-95261347D01*
X135865953Y-95386846D01*
X135964556Y-95534416D01*
X136032476Y-95698388D01*
X136067100Y-95872459D01*
X136067100Y-96049941D01*
X136032476Y-96224012D01*
X135964556Y-96387984D01*
X135865953Y-96535554D01*
X135740454Y-96661053D01*
X135592884Y-96759656D01*
X135428912Y-96827576D01*
X135279612Y-96857273D01*
X135254842Y-96862200D01*
X135077358Y-96862200D01*
X135052588Y-96857273D01*
X134903288Y-96827576D01*
X134739316Y-96759656D01*
X134591746Y-96661053D01*
X134466247Y-96535554D01*
X134367644Y-96387984D01*
X134299724Y-96224012D01*
X134265100Y-96049941D01*
X134265100Y-95872459D01*
X134299724Y-95698388D01*
X134367644Y-95534416D01*
X134466247Y-95386846D01*
X134591746Y-95261347D01*
X134739316Y-95162744D01*
X134903288Y-95094824D01*
X135052588Y-95065127D01*
X135077358Y-95060200D01*
X135254842Y-95060200D01*
X135279612Y-95065127D01*
G37*
G36*
X137819612Y-95065127D02*
G01*
X137968912Y-95094824D01*
X138132884Y-95162744D01*
X138280454Y-95261347D01*
X138405953Y-95386846D01*
X138504556Y-95534416D01*
X138572476Y-95698388D01*
X138607100Y-95872459D01*
X138607100Y-96049941D01*
X138572476Y-96224012D01*
X138504556Y-96387984D01*
X138405953Y-96535554D01*
X138280454Y-96661053D01*
X138132884Y-96759656D01*
X137968912Y-96827576D01*
X137819612Y-96857273D01*
X137794842Y-96862200D01*
X137617358Y-96862200D01*
X137592588Y-96857273D01*
X137443288Y-96827576D01*
X137279316Y-96759656D01*
X137131746Y-96661053D01*
X137006247Y-96535554D01*
X136907644Y-96387984D01*
X136839724Y-96224012D01*
X136805100Y-96049941D01*
X136805100Y-95872459D01*
X136839724Y-95698388D01*
X136907644Y-95534416D01*
X137006247Y-95386846D01*
X137131746Y-95261347D01*
X137279316Y-95162744D01*
X137443288Y-95094824D01*
X137592588Y-95065127D01*
X137617358Y-95060200D01*
X137794842Y-95060200D01*
X137819612Y-95065127D01*
G37*
G36*
X140359612Y-95065127D02*
G01*
X140508912Y-95094824D01*
X140672884Y-95162744D01*
X140820454Y-95261347D01*
X140945953Y-95386846D01*
X141044556Y-95534416D01*
X141112476Y-95698388D01*
X141147100Y-95872459D01*
X141147100Y-96049941D01*
X141112476Y-96224012D01*
X141044556Y-96387984D01*
X140945953Y-96535554D01*
X140820454Y-96661053D01*
X140672884Y-96759656D01*
X140508912Y-96827576D01*
X140359612Y-96857273D01*
X140334842Y-96862200D01*
X140157358Y-96862200D01*
X140132588Y-96857273D01*
X139983288Y-96827576D01*
X139819316Y-96759656D01*
X139671746Y-96661053D01*
X139546247Y-96535554D01*
X139447644Y-96387984D01*
X139379724Y-96224012D01*
X139345100Y-96049941D01*
X139345100Y-95872459D01*
X139379724Y-95698388D01*
X139447644Y-95534416D01*
X139546247Y-95386846D01*
X139671746Y-95261347D01*
X139819316Y-95162744D01*
X139983288Y-95094824D01*
X140132588Y-95065127D01*
X140157358Y-95060200D01*
X140334842Y-95060200D01*
X140359612Y-95065127D01*
G37*
G36*
X145439612Y-95065127D02*
G01*
X145588912Y-95094824D01*
X145752884Y-95162744D01*
X145900454Y-95261347D01*
X146025953Y-95386846D01*
X146124556Y-95534416D01*
X146192476Y-95698388D01*
X146227100Y-95872459D01*
X146227100Y-96049941D01*
X146192476Y-96224012D01*
X146124556Y-96387984D01*
X146025953Y-96535554D01*
X145900454Y-96661053D01*
X145752884Y-96759656D01*
X145588912Y-96827576D01*
X145439612Y-96857273D01*
X145414842Y-96862200D01*
X145237358Y-96862200D01*
X145212588Y-96857273D01*
X145063288Y-96827576D01*
X144899316Y-96759656D01*
X144751746Y-96661053D01*
X144626247Y-96535554D01*
X144527644Y-96387984D01*
X144459724Y-96224012D01*
X144425100Y-96049941D01*
X144425100Y-95872459D01*
X144459724Y-95698388D01*
X144527644Y-95534416D01*
X144626247Y-95386846D01*
X144751746Y-95261347D01*
X144899316Y-95162744D01*
X145063288Y-95094824D01*
X145212588Y-95065127D01*
X145237358Y-95060200D01*
X145414842Y-95060200D01*
X145439612Y-95065127D01*
G37*
G36*
X147979612Y-95065127D02*
G01*
X148128912Y-95094824D01*
X148292884Y-95162744D01*
X148440454Y-95261347D01*
X148565953Y-95386846D01*
X148664556Y-95534416D01*
X148732476Y-95698388D01*
X148767100Y-95872459D01*
X148767100Y-96049941D01*
X148732476Y-96224012D01*
X148664556Y-96387984D01*
X148565953Y-96535554D01*
X148440454Y-96661053D01*
X148292884Y-96759656D01*
X148128912Y-96827576D01*
X147979612Y-96857273D01*
X147954842Y-96862200D01*
X147777358Y-96862200D01*
X147752588Y-96857273D01*
X147603288Y-96827576D01*
X147439316Y-96759656D01*
X147291746Y-96661053D01*
X147166247Y-96535554D01*
X147067644Y-96387984D01*
X146999724Y-96224012D01*
X146965100Y-96049941D01*
X146965100Y-95872459D01*
X146999724Y-95698388D01*
X147067644Y-95534416D01*
X147166247Y-95386846D01*
X147291746Y-95261347D01*
X147439316Y-95162744D01*
X147603288Y-95094824D01*
X147752588Y-95065127D01*
X147777358Y-95060200D01*
X147954842Y-95060200D01*
X147979612Y-95065127D01*
G37*
G36*
X142899612Y-95065127D02*
G01*
X143048912Y-95094824D01*
X143212884Y-95162744D01*
X143360454Y-95261347D01*
X143485953Y-95386846D01*
X143584556Y-95534416D01*
X143652476Y-95698388D01*
X143687100Y-95872459D01*
X143687100Y-96049941D01*
X143652476Y-96224012D01*
X143584556Y-96387984D01*
X143485953Y-96535554D01*
X143360454Y-96661053D01*
X143212884Y-96759656D01*
X143048912Y-96827576D01*
X142899612Y-96857273D01*
X142874842Y-96862200D01*
X142697358Y-96862200D01*
X142672588Y-96857273D01*
X142523288Y-96827576D01*
X142359316Y-96759656D01*
X142211746Y-96661053D01*
X142086247Y-96535554D01*
X141987644Y-96387984D01*
X141919724Y-96224012D01*
X141885100Y-96049941D01*
X141885100Y-95872459D01*
X141919724Y-95698388D01*
X141987644Y-95534416D01*
X142086247Y-95386846D01*
X142211746Y-95261347D01*
X142359316Y-95162744D01*
X142523288Y-95094824D01*
X142672588Y-95065127D01*
X142697358Y-95060200D01*
X142874842Y-95060200D01*
X142899612Y-95065127D01*
G37*
G36*
X106154098Y-90257033D02*
G01*
X106465049Y-90385833D01*
X106618352Y-90449333D01*
X107036168Y-90728509D01*
X107391491Y-91083832D01*
X107628239Y-91438150D01*
X107670668Y-91501650D01*
X107862967Y-91965902D01*
X107961000Y-92458747D01*
X107961000Y-92961253D01*
X107862967Y-93454098D01*
X107670668Y-93918350D01*
X107670667Y-93918352D01*
X107391491Y-94336168D01*
X107036168Y-94691491D01*
X106618352Y-94970667D01*
X106618351Y-94970668D01*
X106618350Y-94970668D01*
X106154098Y-95162967D01*
X105661253Y-95261000D01*
X105158747Y-95261000D01*
X104665902Y-95162967D01*
X104201650Y-94970668D01*
X104201649Y-94970668D01*
X104201648Y-94970667D01*
X103783832Y-94691491D01*
X103428509Y-94336168D01*
X103149333Y-93918352D01*
X103149332Y-93918350D01*
X102957033Y-93454098D01*
X102859000Y-92961253D01*
X102859000Y-92458747D01*
X102957033Y-91965902D01*
X103149332Y-91501650D01*
X103191761Y-91438150D01*
X103428509Y-91083832D01*
X103783832Y-90728509D01*
X104201648Y-90449333D01*
X104354951Y-90385833D01*
X104665902Y-90257033D01*
X105158747Y-90159000D01*
X105661253Y-90159000D01*
X106154098Y-90257033D01*
G37*
G36*
X158414598Y-90193533D02*
G01*
X158878850Y-90385832D01*
X158878852Y-90385833D01*
X159296668Y-90665009D01*
X159651991Y-91020332D01*
X159931167Y-91438148D01*
X159931168Y-91438150D01*
X160123467Y-91902402D01*
X160221500Y-92395247D01*
X160221500Y-92897753D01*
X160123467Y-93390598D01*
X160001931Y-93684012D01*
X159931167Y-93854852D01*
X159651991Y-94272668D01*
X159296668Y-94627991D01*
X158878852Y-94907167D01*
X158878851Y-94907168D01*
X158878850Y-94907168D01*
X158414598Y-95099467D01*
X157921753Y-95197500D01*
X157419247Y-95197500D01*
X156926402Y-95099467D01*
X156462150Y-94907168D01*
X156462149Y-94907168D01*
X156462148Y-94907167D01*
X156044332Y-94627991D01*
X155689009Y-94272668D01*
X155409833Y-93854852D01*
X155339069Y-93684012D01*
X155217533Y-93390598D01*
X155119500Y-92897753D01*
X155119500Y-92395247D01*
X155217533Y-91902402D01*
X155409832Y-91438150D01*
X155409833Y-91438148D01*
X155689009Y-91020332D01*
X156044332Y-90665009D01*
X156462148Y-90385833D01*
X156462150Y-90385832D01*
X156926402Y-90193533D01*
X157419247Y-90095500D01*
X157921753Y-90095500D01*
X158414598Y-90193533D01*
G37*
G36*
X137819612Y-92525127D02*
G01*
X137968912Y-92554824D01*
X138132884Y-92622744D01*
X138280454Y-92721347D01*
X138405953Y-92846846D01*
X138504556Y-92994416D01*
X138572476Y-93158388D01*
X138607100Y-93332459D01*
X138607100Y-93509941D01*
X138572476Y-93684012D01*
X138504556Y-93847984D01*
X138405953Y-93995554D01*
X138280454Y-94121053D01*
X138132884Y-94219656D01*
X137968912Y-94287576D01*
X137819612Y-94317273D01*
X137794842Y-94322200D01*
X137617358Y-94322200D01*
X137592588Y-94317273D01*
X137443288Y-94287576D01*
X137279316Y-94219656D01*
X137131746Y-94121053D01*
X137006247Y-93995554D01*
X136907644Y-93847984D01*
X136839724Y-93684012D01*
X136805100Y-93509941D01*
X136805100Y-93332459D01*
X136839724Y-93158388D01*
X136907644Y-92994416D01*
X137006247Y-92846846D01*
X137131746Y-92721347D01*
X137279316Y-92622744D01*
X137443288Y-92554824D01*
X137592588Y-92525127D01*
X137617358Y-92520200D01*
X137794842Y-92520200D01*
X137819612Y-92525127D01*
G37*
G36*
X130987100Y-94322200D02*
G01*
X129185100Y-94322200D01*
X129185100Y-92520200D01*
X130987100Y-92520200D01*
X130987100Y-94322200D01*
G37*
G36*
X132739612Y-92525127D02*
G01*
X132888912Y-92554824D01*
X133052884Y-92622744D01*
X133200454Y-92721347D01*
X133325953Y-92846846D01*
X133424556Y-92994416D01*
X133492476Y-93158388D01*
X133527100Y-93332459D01*
X133527100Y-93509941D01*
X133492476Y-93684012D01*
X133424556Y-93847984D01*
X133325953Y-93995554D01*
X133200454Y-94121053D01*
X133052884Y-94219656D01*
X132888912Y-94287576D01*
X132739612Y-94317273D01*
X132714842Y-94322200D01*
X132537358Y-94322200D01*
X132512588Y-94317273D01*
X132363288Y-94287576D01*
X132199316Y-94219656D01*
X132051746Y-94121053D01*
X131926247Y-93995554D01*
X131827644Y-93847984D01*
X131759724Y-93684012D01*
X131725100Y-93509941D01*
X131725100Y-93332459D01*
X131759724Y-93158388D01*
X131827644Y-92994416D01*
X131926247Y-92846846D01*
X132051746Y-92721347D01*
X132199316Y-92622744D01*
X132363288Y-92554824D01*
X132512588Y-92525127D01*
X132537358Y-92520200D01*
X132714842Y-92520200D01*
X132739612Y-92525127D01*
G37*
G36*
X135279612Y-92525127D02*
G01*
X135428912Y-92554824D01*
X135592884Y-92622744D01*
X135740454Y-92721347D01*
X135865953Y-92846846D01*
X135964556Y-92994416D01*
X136032476Y-93158388D01*
X136067100Y-93332459D01*
X136067100Y-93509941D01*
X136032476Y-93684012D01*
X135964556Y-93847984D01*
X135865953Y-93995554D01*
X135740454Y-94121053D01*
X135592884Y-94219656D01*
X135428912Y-94287576D01*
X135279612Y-94317273D01*
X135254842Y-94322200D01*
X135077358Y-94322200D01*
X135052588Y-94317273D01*
X134903288Y-94287576D01*
X134739316Y-94219656D01*
X134591746Y-94121053D01*
X134466247Y-93995554D01*
X134367644Y-93847984D01*
X134299724Y-93684012D01*
X134265100Y-93509941D01*
X134265100Y-93332459D01*
X134299724Y-93158388D01*
X134367644Y-92994416D01*
X134466247Y-92846846D01*
X134591746Y-92721347D01*
X134739316Y-92622744D01*
X134903288Y-92554824D01*
X135052588Y-92525127D01*
X135077358Y-92520200D01*
X135254842Y-92520200D01*
X135279612Y-92525127D01*
G37*
G36*
X140359612Y-92525127D02*
G01*
X140508912Y-92554824D01*
X140672884Y-92622744D01*
X140820454Y-92721347D01*
X140945953Y-92846846D01*
X141044556Y-92994416D01*
X141112476Y-93158388D01*
X141147100Y-93332459D01*
X141147100Y-93509941D01*
X141112476Y-93684012D01*
X141044556Y-93847984D01*
X140945953Y-93995554D01*
X140820454Y-94121053D01*
X140672884Y-94219656D01*
X140508912Y-94287576D01*
X140359612Y-94317273D01*
X140334842Y-94322200D01*
X140157358Y-94322200D01*
X140132588Y-94317273D01*
X139983288Y-94287576D01*
X139819316Y-94219656D01*
X139671746Y-94121053D01*
X139546247Y-93995554D01*
X139447644Y-93847984D01*
X139379724Y-93684012D01*
X139345100Y-93509941D01*
X139345100Y-93332459D01*
X139379724Y-93158388D01*
X139447644Y-92994416D01*
X139546247Y-92846846D01*
X139671746Y-92721347D01*
X139819316Y-92622744D01*
X139983288Y-92554824D01*
X140132588Y-92525127D01*
X140157358Y-92520200D01*
X140334842Y-92520200D01*
X140359612Y-92525127D01*
G37*
G36*
X142899612Y-92525127D02*
G01*
X143048912Y-92554824D01*
X143212884Y-92622744D01*
X143360454Y-92721347D01*
X143485953Y-92846846D01*
X143584556Y-92994416D01*
X143652476Y-93158388D01*
X143687100Y-93332459D01*
X143687100Y-93509941D01*
X143652476Y-93684012D01*
X143584556Y-93847984D01*
X143485953Y-93995554D01*
X143360454Y-94121053D01*
X143212884Y-94219656D01*
X143048912Y-94287576D01*
X142899612Y-94317273D01*
X142874842Y-94322200D01*
X142697358Y-94322200D01*
X142672588Y-94317273D01*
X142523288Y-94287576D01*
X142359316Y-94219656D01*
X142211746Y-94121053D01*
X142086247Y-93995554D01*
X141987644Y-93847984D01*
X141919724Y-93684012D01*
X141885100Y-93509941D01*
X141885100Y-93332459D01*
X141919724Y-93158388D01*
X141987644Y-92994416D01*
X142086247Y-92846846D01*
X142211746Y-92721347D01*
X142359316Y-92622744D01*
X142523288Y-92554824D01*
X142672588Y-92525127D01*
X142697358Y-92520200D01*
X142874842Y-92520200D01*
X142899612Y-92525127D01*
G37*
G36*
X145439612Y-92525127D02*
G01*
X145588912Y-92554824D01*
X145752884Y-92622744D01*
X145900454Y-92721347D01*
X146025953Y-92846846D01*
X146124556Y-92994416D01*
X146192476Y-93158388D01*
X146227100Y-93332459D01*
X146227100Y-93509941D01*
X146192476Y-93684012D01*
X146124556Y-93847984D01*
X146025953Y-93995554D01*
X145900454Y-94121053D01*
X145752884Y-94219656D01*
X145588912Y-94287576D01*
X145439612Y-94317273D01*
X145414842Y-94322200D01*
X145237358Y-94322200D01*
X145212588Y-94317273D01*
X145063288Y-94287576D01*
X144899316Y-94219656D01*
X144751746Y-94121053D01*
X144626247Y-93995554D01*
X144527644Y-93847984D01*
X144459724Y-93684012D01*
X144425100Y-93509941D01*
X144425100Y-93332459D01*
X144459724Y-93158388D01*
X144527644Y-92994416D01*
X144626247Y-92846846D01*
X144751746Y-92721347D01*
X144899316Y-92622744D01*
X145063288Y-92554824D01*
X145212588Y-92525127D01*
X145237358Y-92520200D01*
X145414842Y-92520200D01*
X145439612Y-92525127D01*
G37*
G36*
X147979612Y-92525127D02*
G01*
X148128912Y-92554824D01*
X148292884Y-92622744D01*
X148440454Y-92721347D01*
X148565953Y-92846846D01*
X148664556Y-92994416D01*
X148732476Y-93158388D01*
X148767100Y-93332459D01*
X148767100Y-93509941D01*
X148732476Y-93684012D01*
X148664556Y-93847984D01*
X148565953Y-93995554D01*
X148440454Y-94121053D01*
X148292884Y-94219656D01*
X148128912Y-94287576D01*
X147979612Y-94317273D01*
X147954842Y-94322200D01*
X147777358Y-94322200D01*
X147752588Y-94317273D01*
X147603288Y-94287576D01*
X147439316Y-94219656D01*
X147291746Y-94121053D01*
X147166247Y-93995554D01*
X147067644Y-93847984D01*
X146999724Y-93684012D01*
X146965100Y-93509941D01*
X146965100Y-93332459D01*
X146999724Y-93158388D01*
X147067644Y-92994416D01*
X147166247Y-92846846D01*
X147291746Y-92721347D01*
X147439316Y-92622744D01*
X147603288Y-92554824D01*
X147752588Y-92525127D01*
X147777358Y-92520200D01*
X147954842Y-92520200D01*
X147979612Y-92525127D01*
G37*
M02*
