G04 #@! TF.GenerationSoftware,KiCad,Pcbnew,5.1.6-c6e7f7d~86~ubuntu18.04.1*
G04 #@! TF.CreationDate,2020-06-27T17:17:55+01:00*
G04 #@! TF.ProjectId,Controller,436f6e74-726f-46c6-9c65-722e6b696361,rev?*
G04 #@! TF.SameCoordinates,Original*
G04 #@! TF.FileFunction,Copper,L1,Top*
G04 #@! TF.FilePolarity,Positive*
%FSLAX46Y46*%
G04 Gerber Fmt 4.6, Leading zero omitted, Abs format (unit mm)*
G04 Created by KiCad (PCBNEW 5.1.6-c6e7f7d~86~ubuntu18.04.1) date 2020-06-27 17:17:55*
%MOMM*%
%LPD*%
G01*
G04 APERTURE LIST*
G04 #@! TA.AperFunction,EtchedComponent*
%ADD10C,0.100000*%
G04 #@! TD*
G04 #@! TA.AperFunction,ComponentPad*
%ADD11R,1.700000X1.700000*%
G04 #@! TD*
G04 #@! TA.AperFunction,SMDPad,CuDef*
%ADD12C,0.100000*%
G04 #@! TD*
G04 #@! TA.AperFunction,SMDPad,CuDef*
%ADD13R,1.300000X0.900000*%
G04 #@! TD*
G04 #@! TA.AperFunction,SMDPad,CuDef*
%ADD14R,2.000000X1.500000*%
G04 #@! TD*
G04 #@! TA.AperFunction,SMDPad,CuDef*
%ADD15R,2.000000X3.800000*%
G04 #@! TD*
G04 #@! TA.AperFunction,SMDPad,CuDef*
%ADD16R,1.500000X1.000000*%
G04 #@! TD*
G04 #@! TA.AperFunction,SMDPad,CuDef*
%ADD17R,1.000000X1.500000*%
G04 #@! TD*
G04 #@! TA.AperFunction,ComponentPad*
%ADD18O,2.190000X1.740000*%
G04 #@! TD*
G04 #@! TA.AperFunction,ComponentPad*
%ADD19C,2.000000*%
G04 #@! TD*
G04 #@! TA.AperFunction,ComponentPad*
%ADD20R,2.000000X2.000000*%
G04 #@! TD*
G04 #@! TA.AperFunction,SMDPad,CuDef*
%ADD21R,1.060000X0.650000*%
G04 #@! TD*
G04 #@! TA.AperFunction,ComponentPad*
%ADD22O,1.700000X1.700000*%
G04 #@! TD*
G04 #@! TA.AperFunction,SMDPad,CuDef*
%ADD23R,0.800000X0.900000*%
G04 #@! TD*
G04 #@! TA.AperFunction,SMDPad,CuDef*
%ADD24R,1.100000X1.100000*%
G04 #@! TD*
G04 #@! TA.AperFunction,WasherPad*
%ADD25C,5.000000*%
G04 #@! TD*
G04 #@! TA.AperFunction,ViaPad*
%ADD26C,0.800000*%
G04 #@! TD*
G04 #@! TA.AperFunction,Conductor*
%ADD27C,1.000000*%
G04 #@! TD*
G04 #@! TA.AperFunction,Conductor*
%ADD28C,0.450000*%
G04 #@! TD*
G04 #@! TA.AperFunction,Conductor*
%ADD29C,0.650000*%
G04 #@! TD*
G04 #@! TA.AperFunction,Conductor*
%ADD30C,0.254000*%
G04 #@! TD*
G04 APERTURE END LIST*
D10*
G36*
X124125000Y-114558000D02*
G01*
X124125000Y-115058000D01*
X123525000Y-115058000D01*
X123525000Y-114558000D01*
X124125000Y-114558000D01*
G37*
G36*
X159904000Y-106980000D02*
G01*
X159404000Y-106980000D01*
X159404000Y-106380000D01*
X159904000Y-106380000D01*
X159904000Y-106980000D01*
G37*
D11*
X127000000Y-113919000D03*
X127000000Y-118999000D03*
G04 #@! TA.AperFunction,SMDPad,CuDef*
G36*
G01*
X124325801Y-104299600D02*
X123425799Y-104299600D01*
G75*
G02*
X123175800Y-104049601I0J249999D01*
G01*
X123175800Y-103399599D01*
G75*
G02*
X123425799Y-103149600I249999J0D01*
G01*
X124325801Y-103149600D01*
G75*
G02*
X124575800Y-103399599I0J-249999D01*
G01*
X124575800Y-104049601D01*
G75*
G02*
X124325801Y-104299600I-249999J0D01*
G01*
G37*
G04 #@! TD.AperFunction*
G04 #@! TA.AperFunction,SMDPad,CuDef*
G36*
G01*
X124325801Y-106349600D02*
X123425799Y-106349600D01*
G75*
G02*
X123175800Y-106099601I0J249999D01*
G01*
X123175800Y-105449599D01*
G75*
G02*
X123425799Y-105199600I249999J0D01*
G01*
X124325801Y-105199600D01*
G75*
G02*
X124575800Y-105449599I0J-249999D01*
G01*
X124575800Y-106099601D01*
G75*
G02*
X124325801Y-106349600I-249999J0D01*
G01*
G37*
G04 #@! TD.AperFunction*
G04 #@! TA.AperFunction,SMDPad,CuDef*
G36*
G01*
X123425799Y-109009600D02*
X124325801Y-109009600D01*
G75*
G02*
X124575800Y-109259599I0J-249999D01*
G01*
X124575800Y-109909601D01*
G75*
G02*
X124325801Y-110159600I-249999J0D01*
G01*
X123425799Y-110159600D01*
G75*
G02*
X123175800Y-109909601I0J249999D01*
G01*
X123175800Y-109259599D01*
G75*
G02*
X123425799Y-109009600I249999J0D01*
G01*
G37*
G04 #@! TD.AperFunction*
G04 #@! TA.AperFunction,SMDPad,CuDef*
G36*
G01*
X123425799Y-106959600D02*
X124325801Y-106959600D01*
G75*
G02*
X124575800Y-107209599I0J-249999D01*
G01*
X124575800Y-107859601D01*
G75*
G02*
X124325801Y-108109600I-249999J0D01*
G01*
X123425799Y-108109600D01*
G75*
G02*
X123175800Y-107859601I0J249999D01*
G01*
X123175800Y-107209599D01*
G75*
G02*
X123425799Y-106959600I249999J0D01*
G01*
G37*
G04 #@! TD.AperFunction*
G04 #@! TA.AperFunction,SMDPad,CuDef*
D12*
G36*
X103110000Y-114068500D02*
G01*
X106235000Y-114068500D01*
X106235000Y-114485000D01*
X107710000Y-114485000D01*
X107710000Y-115385000D01*
X106235000Y-115385000D01*
X106235000Y-115801500D01*
X103110000Y-115801500D01*
X103110000Y-114068500D01*
G37*
G04 #@! TD.AperFunction*
D13*
X107060000Y-113435000D03*
X107060000Y-116435000D03*
D14*
X119863000Y-118886000D03*
X119863000Y-114286000D03*
X119863000Y-116586000D03*
D15*
X113563000Y-116586000D03*
D14*
X157328000Y-103392000D03*
X157328000Y-98792000D03*
X157328000Y-101092000D03*
D15*
X151028000Y-101092000D03*
D16*
X123825000Y-119014000D03*
X123825000Y-117714000D03*
X123825000Y-115458000D03*
X123825000Y-114158000D03*
D17*
X155052000Y-106680000D03*
X156352000Y-106680000D03*
X159004000Y-106680000D03*
X160304000Y-106680000D03*
D18*
X105410000Y-105410000D03*
G04 #@! TA.AperFunction,ComponentPad*
G36*
G01*
X104564999Y-102000000D02*
X106255001Y-102000000D01*
G75*
G02*
X106505000Y-102249999I0J-249999D01*
G01*
X106505000Y-103490001D01*
G75*
G02*
X106255001Y-103740000I-249999J0D01*
G01*
X104564999Y-103740000D01*
G75*
G02*
X104315000Y-103490001I0J249999D01*
G01*
X104315000Y-102249999D01*
G75*
G02*
X104564999Y-102000000I249999J0D01*
G01*
G37*
G04 #@! TD.AperFunction*
G04 #@! TA.AperFunction,SMDPad,CuDef*
G36*
G01*
X104762000Y-119390000D02*
X104762000Y-120640000D01*
G75*
G02*
X104512000Y-120890000I-250000J0D01*
G01*
X103587000Y-120890000D01*
G75*
G02*
X103337000Y-120640000I0J250000D01*
G01*
X103337000Y-119390000D01*
G75*
G02*
X103587000Y-119140000I250000J0D01*
G01*
X104512000Y-119140000D01*
G75*
G02*
X104762000Y-119390000I0J-250000D01*
G01*
G37*
G04 #@! TD.AperFunction*
G04 #@! TA.AperFunction,SMDPad,CuDef*
G36*
G01*
X107737000Y-119390000D02*
X107737000Y-120640000D01*
G75*
G02*
X107487000Y-120890000I-250000J0D01*
G01*
X106562000Y-120890000D01*
G75*
G02*
X106312000Y-120640000I0J250000D01*
G01*
X106312000Y-119390000D01*
G75*
G02*
X106562000Y-119140000I250000J0D01*
G01*
X107487000Y-119140000D01*
G75*
G02*
X107737000Y-119390000I0J-250000D01*
G01*
G37*
G04 #@! TD.AperFunction*
G04 #@! TA.AperFunction,SMDPad,CuDef*
G36*
G01*
X120640000Y-122161000D02*
X119390000Y-122161000D01*
G75*
G02*
X119140000Y-121911000I0J250000D01*
G01*
X119140000Y-120986000D01*
G75*
G02*
X119390000Y-120736000I250000J0D01*
G01*
X120640000Y-120736000D01*
G75*
G02*
X120890000Y-120986000I0J-250000D01*
G01*
X120890000Y-121911000D01*
G75*
G02*
X120640000Y-122161000I-250000J0D01*
G01*
G37*
G04 #@! TD.AperFunction*
G04 #@! TA.AperFunction,SMDPad,CuDef*
G36*
G01*
X120640000Y-125136000D02*
X119390000Y-125136000D01*
G75*
G02*
X119140000Y-124886000I0J250000D01*
G01*
X119140000Y-123961000D01*
G75*
G02*
X119390000Y-123711000I250000J0D01*
G01*
X120640000Y-123711000D01*
G75*
G02*
X120890000Y-123961000I0J-250000D01*
G01*
X120890000Y-124886000D01*
G75*
G02*
X120640000Y-125136000I-250000J0D01*
G01*
G37*
G04 #@! TD.AperFunction*
G04 #@! TA.AperFunction,SMDPad,CuDef*
G36*
G01*
X150378000Y-108979000D02*
X151628000Y-108979000D01*
G75*
G02*
X151878000Y-109229000I0J-250000D01*
G01*
X151878000Y-110154000D01*
G75*
G02*
X151628000Y-110404000I-250000J0D01*
G01*
X150378000Y-110404000D01*
G75*
G02*
X150128000Y-110154000I0J250000D01*
G01*
X150128000Y-109229000D01*
G75*
G02*
X150378000Y-108979000I250000J0D01*
G01*
G37*
G04 #@! TD.AperFunction*
G04 #@! TA.AperFunction,SMDPad,CuDef*
G36*
G01*
X150378000Y-106004000D02*
X151628000Y-106004000D01*
G75*
G02*
X151878000Y-106254000I0J-250000D01*
G01*
X151878000Y-107179000D01*
G75*
G02*
X151628000Y-107429000I-250000J0D01*
G01*
X150378000Y-107429000D01*
G75*
G02*
X150128000Y-107179000I0J250000D01*
G01*
X150128000Y-106254000D01*
G75*
G02*
X150378000Y-106004000I250000J0D01*
G01*
G37*
G04 #@! TD.AperFunction*
G04 #@! TA.AperFunction,SMDPad,CuDef*
G36*
G01*
X104635000Y-109230000D02*
X104635000Y-110480000D01*
G75*
G02*
X104385000Y-110730000I-250000J0D01*
G01*
X103460000Y-110730000D01*
G75*
G02*
X103210000Y-110480000I0J250000D01*
G01*
X103210000Y-109230000D01*
G75*
G02*
X103460000Y-108980000I250000J0D01*
G01*
X104385000Y-108980000D01*
G75*
G02*
X104635000Y-109230000I0J-250000D01*
G01*
G37*
G04 #@! TD.AperFunction*
G04 #@! TA.AperFunction,SMDPad,CuDef*
G36*
G01*
X107610000Y-109230000D02*
X107610000Y-110480000D01*
G75*
G02*
X107360000Y-110730000I-250000J0D01*
G01*
X106435000Y-110730000D01*
G75*
G02*
X106185000Y-110480000I0J250000D01*
G01*
X106185000Y-109230000D01*
G75*
G02*
X106435000Y-108980000I250000J0D01*
G01*
X107360000Y-108980000D01*
G75*
G02*
X107610000Y-109230000I0J-250000D01*
G01*
G37*
G04 #@! TD.AperFunction*
G04 #@! TA.AperFunction,SMDPad,CuDef*
G36*
G01*
X120640000Y-109080000D02*
X119390000Y-109080000D01*
G75*
G02*
X119140000Y-108830000I0J250000D01*
G01*
X119140000Y-107905000D01*
G75*
G02*
X119390000Y-107655000I250000J0D01*
G01*
X120640000Y-107655000D01*
G75*
G02*
X120890000Y-107905000I0J-250000D01*
G01*
X120890000Y-108830000D01*
G75*
G02*
X120640000Y-109080000I-250000J0D01*
G01*
G37*
G04 #@! TD.AperFunction*
G04 #@! TA.AperFunction,SMDPad,CuDef*
G36*
G01*
X120640000Y-112055000D02*
X119390000Y-112055000D01*
G75*
G02*
X119140000Y-111805000I0J250000D01*
G01*
X119140000Y-110880000D01*
G75*
G02*
X119390000Y-110630000I250000J0D01*
G01*
X120640000Y-110630000D01*
G75*
G02*
X120890000Y-110880000I0J-250000D01*
G01*
X120890000Y-111805000D01*
G75*
G02*
X120640000Y-112055000I-250000J0D01*
G01*
G37*
G04 #@! TD.AperFunction*
G04 #@! TA.AperFunction,SMDPad,CuDef*
G36*
G01*
X150505000Y-95136000D02*
X151755000Y-95136000D01*
G75*
G02*
X152005000Y-95386000I0J-250000D01*
G01*
X152005000Y-96311000D01*
G75*
G02*
X151755000Y-96561000I-250000J0D01*
G01*
X150505000Y-96561000D01*
G75*
G02*
X150255000Y-96311000I0J250000D01*
G01*
X150255000Y-95386000D01*
G75*
G02*
X150505000Y-95136000I250000J0D01*
G01*
G37*
G04 #@! TD.AperFunction*
G04 #@! TA.AperFunction,SMDPad,CuDef*
G36*
G01*
X150505000Y-92161000D02*
X151755000Y-92161000D01*
G75*
G02*
X152005000Y-92411000I0J-250000D01*
G01*
X152005000Y-93336000D01*
G75*
G02*
X151755000Y-93586000I-250000J0D01*
G01*
X150505000Y-93586000D01*
G75*
G02*
X150255000Y-93336000I0J250000D01*
G01*
X150255000Y-92411000D01*
G75*
G02*
X150505000Y-92161000I250000J0D01*
G01*
G37*
G04 #@! TD.AperFunction*
G04 #@! TA.AperFunction,SMDPad,CuDef*
G36*
G01*
X130232999Y-123322500D02*
X131133001Y-123322500D01*
G75*
G02*
X131383000Y-123572499I0J-249999D01*
G01*
X131383000Y-124222501D01*
G75*
G02*
X131133001Y-124472500I-249999J0D01*
G01*
X130232999Y-124472500D01*
G75*
G02*
X129983000Y-124222501I0J249999D01*
G01*
X129983000Y-123572499D01*
G75*
G02*
X130232999Y-123322500I249999J0D01*
G01*
G37*
G04 #@! TD.AperFunction*
G04 #@! TA.AperFunction,SMDPad,CuDef*
G36*
G01*
X130232999Y-121272500D02*
X131133001Y-121272500D01*
G75*
G02*
X131383000Y-121522499I0J-249999D01*
G01*
X131383000Y-122172501D01*
G75*
G02*
X131133001Y-122422500I-249999J0D01*
G01*
X130232999Y-122422500D01*
G75*
G02*
X129983000Y-122172501I0J249999D01*
G01*
X129983000Y-121522499D01*
G75*
G02*
X130232999Y-121272500I249999J0D01*
G01*
G37*
G04 #@! TD.AperFunction*
G04 #@! TA.AperFunction,SMDPad,CuDef*
G36*
G01*
X136594001Y-118168000D02*
X135693999Y-118168000D01*
G75*
G02*
X135444000Y-117918001I0J249999D01*
G01*
X135444000Y-117267999D01*
G75*
G02*
X135693999Y-117018000I249999J0D01*
G01*
X136594001Y-117018000D01*
G75*
G02*
X136844000Y-117267999I0J-249999D01*
G01*
X136844000Y-117918001D01*
G75*
G02*
X136594001Y-118168000I-249999J0D01*
G01*
G37*
G04 #@! TD.AperFunction*
G04 #@! TA.AperFunction,SMDPad,CuDef*
G36*
G01*
X136594001Y-120218000D02*
X135693999Y-120218000D01*
G75*
G02*
X135444000Y-119968001I0J249999D01*
G01*
X135444000Y-119317999D01*
G75*
G02*
X135693999Y-119068000I249999J0D01*
G01*
X136594001Y-119068000D01*
G75*
G02*
X136844000Y-119317999I0J-249999D01*
G01*
X136844000Y-119968001D01*
G75*
G02*
X136594001Y-120218000I-249999J0D01*
G01*
G37*
G04 #@! TD.AperFunction*
D19*
X127000000Y-124059000D03*
D20*
X127000000Y-116459000D03*
D21*
X133266000Y-123822500D03*
X133266000Y-121922500D03*
X135466000Y-121922500D03*
X135466000Y-122872500D03*
X135466000Y-123822500D03*
D22*
X144907000Y-122555000D03*
D11*
X144907000Y-125095000D03*
D23*
X131635500Y-117618000D03*
X132585500Y-119618000D03*
X130685500Y-119618000D03*
D24*
X133861000Y-113284000D03*
X131061000Y-113284000D03*
D22*
X147447000Y-122555000D03*
D11*
X147447000Y-125095000D03*
D22*
X142367000Y-122555000D03*
D11*
X142367000Y-125095000D03*
D22*
X156337000Y-117665500D03*
X158877000Y-117665500D03*
X156337000Y-115125500D03*
X158877000Y-115125500D03*
X156337000Y-112585500D03*
X158877000Y-112585500D03*
X156337000Y-110045500D03*
D11*
X158877000Y-110045500D03*
D25*
X157670500Y-92646500D03*
X105410000Y-125730000D03*
X157683200Y-125730000D03*
X105410000Y-92710000D03*
D22*
X127025400Y-104114600D03*
X127025400Y-106654600D03*
D11*
X127025400Y-109194600D03*
D22*
X121285000Y-99060000D03*
X118745000Y-99060000D03*
X116205000Y-99060000D03*
X113665000Y-99060000D03*
D11*
X111125000Y-99060000D03*
G04 #@! TA.AperFunction,SMDPad,CuDef*
G36*
G01*
X139185300Y-115699000D02*
X137935300Y-115699000D01*
G75*
G02*
X137810300Y-115574000I0J125000D01*
G01*
X137810300Y-115324000D01*
G75*
G02*
X137935300Y-115199000I125000J0D01*
G01*
X139185300Y-115199000D01*
G75*
G02*
X139310300Y-115324000I0J-125000D01*
G01*
X139310300Y-115574000D01*
G75*
G02*
X139185300Y-115699000I-125000J0D01*
G01*
G37*
G04 #@! TD.AperFunction*
G04 #@! TA.AperFunction,SMDPad,CuDef*
G36*
G01*
X139185300Y-114899000D02*
X137935300Y-114899000D01*
G75*
G02*
X137810300Y-114774000I0J125000D01*
G01*
X137810300Y-114524000D01*
G75*
G02*
X137935300Y-114399000I125000J0D01*
G01*
X139185300Y-114399000D01*
G75*
G02*
X139310300Y-114524000I0J-125000D01*
G01*
X139310300Y-114774000D01*
G75*
G02*
X139185300Y-114899000I-125000J0D01*
G01*
G37*
G04 #@! TD.AperFunction*
G04 #@! TA.AperFunction,SMDPad,CuDef*
G36*
G01*
X139185300Y-114099000D02*
X137935300Y-114099000D01*
G75*
G02*
X137810300Y-113974000I0J125000D01*
G01*
X137810300Y-113724000D01*
G75*
G02*
X137935300Y-113599000I125000J0D01*
G01*
X139185300Y-113599000D01*
G75*
G02*
X139310300Y-113724000I0J-125000D01*
G01*
X139310300Y-113974000D01*
G75*
G02*
X139185300Y-114099000I-125000J0D01*
G01*
G37*
G04 #@! TD.AperFunction*
G04 #@! TA.AperFunction,SMDPad,CuDef*
G36*
G01*
X139185300Y-113299000D02*
X137935300Y-113299000D01*
G75*
G02*
X137810300Y-113174000I0J125000D01*
G01*
X137810300Y-112924000D01*
G75*
G02*
X137935300Y-112799000I125000J0D01*
G01*
X139185300Y-112799000D01*
G75*
G02*
X139310300Y-112924000I0J-125000D01*
G01*
X139310300Y-113174000D01*
G75*
G02*
X139185300Y-113299000I-125000J0D01*
G01*
G37*
G04 #@! TD.AperFunction*
G04 #@! TA.AperFunction,SMDPad,CuDef*
G36*
G01*
X139185300Y-112499000D02*
X137935300Y-112499000D01*
G75*
G02*
X137810300Y-112374000I0J125000D01*
G01*
X137810300Y-112124000D01*
G75*
G02*
X137935300Y-111999000I125000J0D01*
G01*
X139185300Y-111999000D01*
G75*
G02*
X139310300Y-112124000I0J-125000D01*
G01*
X139310300Y-112374000D01*
G75*
G02*
X139185300Y-112499000I-125000J0D01*
G01*
G37*
G04 #@! TD.AperFunction*
G04 #@! TA.AperFunction,SMDPad,CuDef*
G36*
G01*
X139185300Y-111699000D02*
X137935300Y-111699000D01*
G75*
G02*
X137810300Y-111574000I0J125000D01*
G01*
X137810300Y-111324000D01*
G75*
G02*
X137935300Y-111199000I125000J0D01*
G01*
X139185300Y-111199000D01*
G75*
G02*
X139310300Y-111324000I0J-125000D01*
G01*
X139310300Y-111574000D01*
G75*
G02*
X139185300Y-111699000I-125000J0D01*
G01*
G37*
G04 #@! TD.AperFunction*
G04 #@! TA.AperFunction,SMDPad,CuDef*
G36*
G01*
X139185300Y-110899000D02*
X137935300Y-110899000D01*
G75*
G02*
X137810300Y-110774000I0J125000D01*
G01*
X137810300Y-110524000D01*
G75*
G02*
X137935300Y-110399000I125000J0D01*
G01*
X139185300Y-110399000D01*
G75*
G02*
X139310300Y-110524000I0J-125000D01*
G01*
X139310300Y-110774000D01*
G75*
G02*
X139185300Y-110899000I-125000J0D01*
G01*
G37*
G04 #@! TD.AperFunction*
G04 #@! TA.AperFunction,SMDPad,CuDef*
G36*
G01*
X139185300Y-110099000D02*
X137935300Y-110099000D01*
G75*
G02*
X137810300Y-109974000I0J125000D01*
G01*
X137810300Y-109724000D01*
G75*
G02*
X137935300Y-109599000I125000J0D01*
G01*
X139185300Y-109599000D01*
G75*
G02*
X139310300Y-109724000I0J-125000D01*
G01*
X139310300Y-109974000D01*
G75*
G02*
X139185300Y-110099000I-125000J0D01*
G01*
G37*
G04 #@! TD.AperFunction*
G04 #@! TA.AperFunction,SMDPad,CuDef*
G36*
G01*
X140060300Y-109224000D02*
X139810300Y-109224000D01*
G75*
G02*
X139685300Y-109099000I0J125000D01*
G01*
X139685300Y-107849000D01*
G75*
G02*
X139810300Y-107724000I125000J0D01*
G01*
X140060300Y-107724000D01*
G75*
G02*
X140185300Y-107849000I0J-125000D01*
G01*
X140185300Y-109099000D01*
G75*
G02*
X140060300Y-109224000I-125000J0D01*
G01*
G37*
G04 #@! TD.AperFunction*
G04 #@! TA.AperFunction,SMDPad,CuDef*
G36*
G01*
X140860300Y-109224000D02*
X140610300Y-109224000D01*
G75*
G02*
X140485300Y-109099000I0J125000D01*
G01*
X140485300Y-107849000D01*
G75*
G02*
X140610300Y-107724000I125000J0D01*
G01*
X140860300Y-107724000D01*
G75*
G02*
X140985300Y-107849000I0J-125000D01*
G01*
X140985300Y-109099000D01*
G75*
G02*
X140860300Y-109224000I-125000J0D01*
G01*
G37*
G04 #@! TD.AperFunction*
G04 #@! TA.AperFunction,SMDPad,CuDef*
G36*
G01*
X141660300Y-109224000D02*
X141410300Y-109224000D01*
G75*
G02*
X141285300Y-109099000I0J125000D01*
G01*
X141285300Y-107849000D01*
G75*
G02*
X141410300Y-107724000I125000J0D01*
G01*
X141660300Y-107724000D01*
G75*
G02*
X141785300Y-107849000I0J-125000D01*
G01*
X141785300Y-109099000D01*
G75*
G02*
X141660300Y-109224000I-125000J0D01*
G01*
G37*
G04 #@! TD.AperFunction*
G04 #@! TA.AperFunction,SMDPad,CuDef*
G36*
G01*
X142460300Y-109224000D02*
X142210300Y-109224000D01*
G75*
G02*
X142085300Y-109099000I0J125000D01*
G01*
X142085300Y-107849000D01*
G75*
G02*
X142210300Y-107724000I125000J0D01*
G01*
X142460300Y-107724000D01*
G75*
G02*
X142585300Y-107849000I0J-125000D01*
G01*
X142585300Y-109099000D01*
G75*
G02*
X142460300Y-109224000I-125000J0D01*
G01*
G37*
G04 #@! TD.AperFunction*
G04 #@! TA.AperFunction,SMDPad,CuDef*
G36*
G01*
X143260300Y-109224000D02*
X143010300Y-109224000D01*
G75*
G02*
X142885300Y-109099000I0J125000D01*
G01*
X142885300Y-107849000D01*
G75*
G02*
X143010300Y-107724000I125000J0D01*
G01*
X143260300Y-107724000D01*
G75*
G02*
X143385300Y-107849000I0J-125000D01*
G01*
X143385300Y-109099000D01*
G75*
G02*
X143260300Y-109224000I-125000J0D01*
G01*
G37*
G04 #@! TD.AperFunction*
G04 #@! TA.AperFunction,SMDPad,CuDef*
G36*
G01*
X144060300Y-109224000D02*
X143810300Y-109224000D01*
G75*
G02*
X143685300Y-109099000I0J125000D01*
G01*
X143685300Y-107849000D01*
G75*
G02*
X143810300Y-107724000I125000J0D01*
G01*
X144060300Y-107724000D01*
G75*
G02*
X144185300Y-107849000I0J-125000D01*
G01*
X144185300Y-109099000D01*
G75*
G02*
X144060300Y-109224000I-125000J0D01*
G01*
G37*
G04 #@! TD.AperFunction*
G04 #@! TA.AperFunction,SMDPad,CuDef*
G36*
G01*
X144860300Y-109224000D02*
X144610300Y-109224000D01*
G75*
G02*
X144485300Y-109099000I0J125000D01*
G01*
X144485300Y-107849000D01*
G75*
G02*
X144610300Y-107724000I125000J0D01*
G01*
X144860300Y-107724000D01*
G75*
G02*
X144985300Y-107849000I0J-125000D01*
G01*
X144985300Y-109099000D01*
G75*
G02*
X144860300Y-109224000I-125000J0D01*
G01*
G37*
G04 #@! TD.AperFunction*
G04 #@! TA.AperFunction,SMDPad,CuDef*
G36*
G01*
X145660300Y-109224000D02*
X145410300Y-109224000D01*
G75*
G02*
X145285300Y-109099000I0J125000D01*
G01*
X145285300Y-107849000D01*
G75*
G02*
X145410300Y-107724000I125000J0D01*
G01*
X145660300Y-107724000D01*
G75*
G02*
X145785300Y-107849000I0J-125000D01*
G01*
X145785300Y-109099000D01*
G75*
G02*
X145660300Y-109224000I-125000J0D01*
G01*
G37*
G04 #@! TD.AperFunction*
G04 #@! TA.AperFunction,SMDPad,CuDef*
G36*
G01*
X147535300Y-110099000D02*
X146285300Y-110099000D01*
G75*
G02*
X146160300Y-109974000I0J125000D01*
G01*
X146160300Y-109724000D01*
G75*
G02*
X146285300Y-109599000I125000J0D01*
G01*
X147535300Y-109599000D01*
G75*
G02*
X147660300Y-109724000I0J-125000D01*
G01*
X147660300Y-109974000D01*
G75*
G02*
X147535300Y-110099000I-125000J0D01*
G01*
G37*
G04 #@! TD.AperFunction*
G04 #@! TA.AperFunction,SMDPad,CuDef*
G36*
G01*
X147535300Y-110899000D02*
X146285300Y-110899000D01*
G75*
G02*
X146160300Y-110774000I0J125000D01*
G01*
X146160300Y-110524000D01*
G75*
G02*
X146285300Y-110399000I125000J0D01*
G01*
X147535300Y-110399000D01*
G75*
G02*
X147660300Y-110524000I0J-125000D01*
G01*
X147660300Y-110774000D01*
G75*
G02*
X147535300Y-110899000I-125000J0D01*
G01*
G37*
G04 #@! TD.AperFunction*
G04 #@! TA.AperFunction,SMDPad,CuDef*
G36*
G01*
X147535300Y-111699000D02*
X146285300Y-111699000D01*
G75*
G02*
X146160300Y-111574000I0J125000D01*
G01*
X146160300Y-111324000D01*
G75*
G02*
X146285300Y-111199000I125000J0D01*
G01*
X147535300Y-111199000D01*
G75*
G02*
X147660300Y-111324000I0J-125000D01*
G01*
X147660300Y-111574000D01*
G75*
G02*
X147535300Y-111699000I-125000J0D01*
G01*
G37*
G04 #@! TD.AperFunction*
G04 #@! TA.AperFunction,SMDPad,CuDef*
G36*
G01*
X147535300Y-112499000D02*
X146285300Y-112499000D01*
G75*
G02*
X146160300Y-112374000I0J125000D01*
G01*
X146160300Y-112124000D01*
G75*
G02*
X146285300Y-111999000I125000J0D01*
G01*
X147535300Y-111999000D01*
G75*
G02*
X147660300Y-112124000I0J-125000D01*
G01*
X147660300Y-112374000D01*
G75*
G02*
X147535300Y-112499000I-125000J0D01*
G01*
G37*
G04 #@! TD.AperFunction*
G04 #@! TA.AperFunction,SMDPad,CuDef*
G36*
G01*
X147535300Y-113299000D02*
X146285300Y-113299000D01*
G75*
G02*
X146160300Y-113174000I0J125000D01*
G01*
X146160300Y-112924000D01*
G75*
G02*
X146285300Y-112799000I125000J0D01*
G01*
X147535300Y-112799000D01*
G75*
G02*
X147660300Y-112924000I0J-125000D01*
G01*
X147660300Y-113174000D01*
G75*
G02*
X147535300Y-113299000I-125000J0D01*
G01*
G37*
G04 #@! TD.AperFunction*
G04 #@! TA.AperFunction,SMDPad,CuDef*
G36*
G01*
X147535300Y-114099000D02*
X146285300Y-114099000D01*
G75*
G02*
X146160300Y-113974000I0J125000D01*
G01*
X146160300Y-113724000D01*
G75*
G02*
X146285300Y-113599000I125000J0D01*
G01*
X147535300Y-113599000D01*
G75*
G02*
X147660300Y-113724000I0J-125000D01*
G01*
X147660300Y-113974000D01*
G75*
G02*
X147535300Y-114099000I-125000J0D01*
G01*
G37*
G04 #@! TD.AperFunction*
G04 #@! TA.AperFunction,SMDPad,CuDef*
G36*
G01*
X147535300Y-114899000D02*
X146285300Y-114899000D01*
G75*
G02*
X146160300Y-114774000I0J125000D01*
G01*
X146160300Y-114524000D01*
G75*
G02*
X146285300Y-114399000I125000J0D01*
G01*
X147535300Y-114399000D01*
G75*
G02*
X147660300Y-114524000I0J-125000D01*
G01*
X147660300Y-114774000D01*
G75*
G02*
X147535300Y-114899000I-125000J0D01*
G01*
G37*
G04 #@! TD.AperFunction*
G04 #@! TA.AperFunction,SMDPad,CuDef*
G36*
G01*
X147535300Y-115699000D02*
X146285300Y-115699000D01*
G75*
G02*
X146160300Y-115574000I0J125000D01*
G01*
X146160300Y-115324000D01*
G75*
G02*
X146285300Y-115199000I125000J0D01*
G01*
X147535300Y-115199000D01*
G75*
G02*
X147660300Y-115324000I0J-125000D01*
G01*
X147660300Y-115574000D01*
G75*
G02*
X147535300Y-115699000I-125000J0D01*
G01*
G37*
G04 #@! TD.AperFunction*
G04 #@! TA.AperFunction,SMDPad,CuDef*
G36*
G01*
X145660300Y-117574000D02*
X145410300Y-117574000D01*
G75*
G02*
X145285300Y-117449000I0J125000D01*
G01*
X145285300Y-116199000D01*
G75*
G02*
X145410300Y-116074000I125000J0D01*
G01*
X145660300Y-116074000D01*
G75*
G02*
X145785300Y-116199000I0J-125000D01*
G01*
X145785300Y-117449000D01*
G75*
G02*
X145660300Y-117574000I-125000J0D01*
G01*
G37*
G04 #@! TD.AperFunction*
G04 #@! TA.AperFunction,SMDPad,CuDef*
G36*
G01*
X144860300Y-117574000D02*
X144610300Y-117574000D01*
G75*
G02*
X144485300Y-117449000I0J125000D01*
G01*
X144485300Y-116199000D01*
G75*
G02*
X144610300Y-116074000I125000J0D01*
G01*
X144860300Y-116074000D01*
G75*
G02*
X144985300Y-116199000I0J-125000D01*
G01*
X144985300Y-117449000D01*
G75*
G02*
X144860300Y-117574000I-125000J0D01*
G01*
G37*
G04 #@! TD.AperFunction*
G04 #@! TA.AperFunction,SMDPad,CuDef*
G36*
G01*
X144060300Y-117574000D02*
X143810300Y-117574000D01*
G75*
G02*
X143685300Y-117449000I0J125000D01*
G01*
X143685300Y-116199000D01*
G75*
G02*
X143810300Y-116074000I125000J0D01*
G01*
X144060300Y-116074000D01*
G75*
G02*
X144185300Y-116199000I0J-125000D01*
G01*
X144185300Y-117449000D01*
G75*
G02*
X144060300Y-117574000I-125000J0D01*
G01*
G37*
G04 #@! TD.AperFunction*
G04 #@! TA.AperFunction,SMDPad,CuDef*
G36*
G01*
X143260300Y-117574000D02*
X143010300Y-117574000D01*
G75*
G02*
X142885300Y-117449000I0J125000D01*
G01*
X142885300Y-116199000D01*
G75*
G02*
X143010300Y-116074000I125000J0D01*
G01*
X143260300Y-116074000D01*
G75*
G02*
X143385300Y-116199000I0J-125000D01*
G01*
X143385300Y-117449000D01*
G75*
G02*
X143260300Y-117574000I-125000J0D01*
G01*
G37*
G04 #@! TD.AperFunction*
G04 #@! TA.AperFunction,SMDPad,CuDef*
G36*
G01*
X142460300Y-117574000D02*
X142210300Y-117574000D01*
G75*
G02*
X142085300Y-117449000I0J125000D01*
G01*
X142085300Y-116199000D01*
G75*
G02*
X142210300Y-116074000I125000J0D01*
G01*
X142460300Y-116074000D01*
G75*
G02*
X142585300Y-116199000I0J-125000D01*
G01*
X142585300Y-117449000D01*
G75*
G02*
X142460300Y-117574000I-125000J0D01*
G01*
G37*
G04 #@! TD.AperFunction*
G04 #@! TA.AperFunction,SMDPad,CuDef*
G36*
G01*
X141660300Y-117574000D02*
X141410300Y-117574000D01*
G75*
G02*
X141285300Y-117449000I0J125000D01*
G01*
X141285300Y-116199000D01*
G75*
G02*
X141410300Y-116074000I125000J0D01*
G01*
X141660300Y-116074000D01*
G75*
G02*
X141785300Y-116199000I0J-125000D01*
G01*
X141785300Y-117449000D01*
G75*
G02*
X141660300Y-117574000I-125000J0D01*
G01*
G37*
G04 #@! TD.AperFunction*
G04 #@! TA.AperFunction,SMDPad,CuDef*
G36*
G01*
X140860300Y-117574000D02*
X140610300Y-117574000D01*
G75*
G02*
X140485300Y-117449000I0J125000D01*
G01*
X140485300Y-116199000D01*
G75*
G02*
X140610300Y-116074000I125000J0D01*
G01*
X140860300Y-116074000D01*
G75*
G02*
X140985300Y-116199000I0J-125000D01*
G01*
X140985300Y-117449000D01*
G75*
G02*
X140860300Y-117574000I-125000J0D01*
G01*
G37*
G04 #@! TD.AperFunction*
G04 #@! TA.AperFunction,SMDPad,CuDef*
G36*
G01*
X140060300Y-117574000D02*
X139810300Y-117574000D01*
G75*
G02*
X139685300Y-117449000I0J125000D01*
G01*
X139685300Y-116199000D01*
G75*
G02*
X139810300Y-116074000I125000J0D01*
G01*
X140060300Y-116074000D01*
G75*
G02*
X140185300Y-116199000I0J-125000D01*
G01*
X140185300Y-117449000D01*
G75*
G02*
X140060300Y-117574000I-125000J0D01*
G01*
G37*
G04 #@! TD.AperFunction*
D22*
X147866100Y-95961200D03*
X147866100Y-93421200D03*
X145326100Y-95961200D03*
X145326100Y-93421200D03*
X142786100Y-95961200D03*
X142786100Y-93421200D03*
X140246100Y-95961200D03*
X140246100Y-93421200D03*
X137706100Y-95961200D03*
X137706100Y-93421200D03*
X135166100Y-95961200D03*
X135166100Y-93421200D03*
X132626100Y-95961200D03*
X132626100Y-93421200D03*
X130086100Y-95961200D03*
D11*
X130086100Y-93421200D03*
D26*
X146910300Y-108486700D03*
X138557000Y-117094000D03*
X133905500Y-119618000D03*
X118110000Y-121412000D03*
X118110000Y-108367500D03*
X152363500Y-109691500D03*
X157353000Y-104775000D03*
X142335300Y-118738592D03*
X123825000Y-99060000D03*
X121905000Y-114158000D03*
X124841000Y-126301500D03*
D27*
X142811500Y-95961200D02*
X147891500Y-95961200D01*
X145351500Y-93421200D02*
X145351500Y-95961200D01*
X147891500Y-95961200D02*
X147891500Y-93421200D01*
X147891500Y-93421200D02*
X145351500Y-93421200D01*
D28*
X146910300Y-109849000D02*
X146910300Y-108486700D01*
X138560300Y-117090700D02*
X138560300Y-114649000D01*
D29*
X132588000Y-119620500D02*
X132585500Y-119618000D01*
X132588000Y-120459500D02*
X132588000Y-119620500D01*
X133266000Y-121922500D02*
X133266000Y-121137500D01*
X133266000Y-121137500D02*
X132588000Y-120459500D01*
X132585500Y-119618000D02*
X133905500Y-119618000D01*
D27*
X103922500Y-119253000D02*
X104049500Y-119380000D01*
X104340000Y-114935000D02*
X103922500Y-114517500D01*
X103922500Y-110490000D02*
X103922500Y-114517500D01*
X106972500Y-114935000D02*
X104340000Y-114935000D01*
X103922500Y-114517500D02*
X103922500Y-119253000D01*
X105410000Y-106680000D02*
X105410000Y-105410000D01*
X103922500Y-110490000D02*
X103922500Y-108167500D01*
X103922500Y-108167500D02*
X105410000Y-106680000D01*
X119863000Y-121423500D02*
X119888000Y-121448500D01*
X120015000Y-118886000D02*
X120015000Y-121423500D01*
X119851500Y-121412000D02*
X119888000Y-121448500D01*
X120015000Y-108367500D02*
X118110000Y-108367500D01*
X119978500Y-121412000D02*
X120015000Y-121448500D01*
X118110000Y-121412000D02*
X119978500Y-121412000D01*
X151130000Y-95848500D02*
X151017300Y-95961200D01*
X148894800Y-95961200D02*
X147866100Y-95961200D01*
X151017300Y-95961200D02*
X148894800Y-95961200D01*
X151003000Y-109691500D02*
X152363500Y-109691500D01*
X157328000Y-104750000D02*
X157353000Y-104775000D01*
X157328000Y-103392000D02*
X157328000Y-104750000D01*
D28*
X142335300Y-118738592D02*
X142335300Y-116824000D01*
X123825000Y-99060000D02*
X121285000Y-99060000D01*
X140735300Y-105810300D02*
X139039600Y-104114600D01*
X139039600Y-104114600D02*
X132181600Y-104114600D01*
X140735300Y-108474000D02*
X140735300Y-105810300D01*
X132181600Y-104114600D02*
X128955800Y-100888800D01*
X118745000Y-100838000D02*
X118745000Y-99060000D01*
X128955800Y-100888800D02*
X118795800Y-100888800D01*
X118795800Y-100888800D02*
X118745000Y-100838000D01*
X139935300Y-108143800D02*
X139893800Y-108143800D01*
X113665000Y-101955600D02*
X113665000Y-99060000D01*
X127990600Y-101955600D02*
X113665000Y-101955600D01*
X131318000Y-105283000D02*
X127990600Y-101955600D01*
X138303000Y-105283000D02*
X131318000Y-105283000D01*
X139935300Y-108474000D02*
X139935300Y-106915300D01*
X139935300Y-106915300D02*
X138303000Y-105283000D01*
X143135300Y-112680800D02*
X143135300Y-116493800D01*
X143135300Y-112680800D02*
X140849300Y-112680800D01*
X139935300Y-113594800D02*
X139935300Y-116824000D01*
X140849300Y-112680800D02*
X139935300Y-113594800D01*
D27*
X123850400Y-105809000D02*
X123850400Y-107569000D01*
X107060000Y-119344500D02*
X107024500Y-119380000D01*
X107060000Y-116435000D02*
X107060000Y-119344500D01*
X111125000Y-107315000D02*
X111125000Y-99060000D01*
X109220000Y-109220000D02*
X111125000Y-107315000D01*
X109220000Y-115570000D02*
X109220000Y-109220000D01*
X107060000Y-116435000D02*
X108355000Y-116435000D01*
X108355000Y-116435000D02*
X109220000Y-115570000D01*
D28*
X143135300Y-112090250D02*
X143135300Y-112680800D01*
X145535300Y-108143800D02*
X145535300Y-109690250D01*
X145535300Y-109690250D02*
X143135300Y-112090250D01*
D27*
X142367000Y-125095000D02*
X147447000Y-125095000D01*
D28*
X139935300Y-125095000D02*
X142367000Y-125095000D01*
X139935300Y-116824000D02*
X139935300Y-125095000D01*
D27*
X142240000Y-125222000D02*
X142367000Y-125095000D01*
X108585000Y-119380000D02*
X109220000Y-120015000D01*
X109220000Y-120015000D02*
X109220000Y-126365000D01*
X109220000Y-126365000D02*
X110490000Y-127635000D01*
X107024500Y-119380000D02*
X108585000Y-119380000D01*
X110490000Y-127635000D02*
X141605000Y-127635000D01*
X142240000Y-127000000D02*
X142240000Y-125222000D01*
X141605000Y-127635000D02*
X142240000Y-127000000D01*
X123875800Y-105774600D02*
X123621800Y-105774600D01*
X111125000Y-106680000D02*
X111125000Y-105765600D01*
X123866800Y-105765600D02*
X123875800Y-105774600D01*
X111125000Y-105765600D02*
X123866800Y-105765600D01*
X140271500Y-96570800D02*
X140246100Y-96596200D01*
X137706100Y-93421200D02*
X142811500Y-93421200D01*
X137706100Y-93421200D02*
X137706100Y-95961200D01*
X137706100Y-95961200D02*
X140246100Y-95961200D01*
X123825000Y-114158000D02*
X121905000Y-114158000D01*
X121905000Y-114158000D02*
X119991000Y-114158000D01*
X107060000Y-110652500D02*
X106897500Y-110490000D01*
X107060000Y-113435000D02*
X107060000Y-110652500D01*
X106897500Y-107732500D02*
X108585000Y-106045000D01*
X106897500Y-110490000D02*
X106897500Y-107732500D01*
X108585000Y-106045000D02*
X108585000Y-102235000D01*
X108585000Y-103505000D02*
X108585000Y-102235000D01*
X105410000Y-102870000D02*
X108585000Y-102870000D01*
X119863000Y-111367500D02*
X119888000Y-111342500D01*
X120015000Y-114286000D02*
X120015000Y-111367500D01*
X150368000Y-90170000D02*
X137795000Y-90170000D01*
X108585000Y-102235000D02*
X108585000Y-96202500D01*
X108585000Y-96202500D02*
X114617500Y-90170000D01*
X137668000Y-93383100D02*
X137706100Y-93421200D01*
X137668000Y-90170000D02*
X137668000Y-93383100D01*
X137668000Y-90170000D02*
X150368000Y-90170000D01*
X114617500Y-90170000D02*
X137668000Y-90170000D01*
X151130000Y-92238500D02*
X151130000Y-90170000D01*
X150368000Y-90170000D02*
X151130000Y-90170000D01*
X157328000Y-98792000D02*
X160133000Y-98792000D01*
X160304000Y-98963000D02*
X160304000Y-106680000D01*
X160133000Y-98792000D02*
X160304000Y-98963000D01*
X157085000Y-98792000D02*
X157328000Y-98792000D01*
X151130000Y-90170000D02*
X153670000Y-90170000D01*
X153670000Y-95377000D02*
X157085000Y-98792000D01*
X153670000Y-90170000D02*
X153670000Y-95377000D01*
D29*
X136842500Y-122872500D02*
X135466000Y-122872500D01*
X124841000Y-126301500D02*
X136842500Y-126301500D01*
X136842500Y-126301500D02*
X136842500Y-122872500D01*
D28*
X148336000Y-107696000D02*
X148336000Y-110490000D01*
X148177000Y-110649000D02*
X146910300Y-110649000D01*
X135166100Y-97243900D02*
X135712200Y-97790000D01*
X135712200Y-97790000D02*
X142240000Y-97790000D01*
X148336000Y-110490000D02*
X148177000Y-110649000D01*
X135166100Y-95961200D02*
X135166100Y-97243900D01*
X146050000Y-101600000D02*
X146050000Y-105410000D01*
X142240000Y-97790000D02*
X146050000Y-101600000D01*
X146050000Y-105410000D02*
X148336000Y-107696000D01*
X141605000Y-99060000D02*
X144735300Y-102190300D01*
X132626100Y-95961200D02*
X132626100Y-96532700D01*
X144735300Y-102190300D02*
X144735300Y-108474000D01*
X135153400Y-99060000D02*
X141605000Y-99060000D01*
X132626100Y-96532700D02*
X135153400Y-99060000D01*
X130086100Y-96354900D02*
X130086100Y-95961200D01*
X134061200Y-100330000D02*
X130086100Y-96354900D01*
X140970000Y-100330000D02*
X134061200Y-100330000D01*
X143935300Y-108474000D02*
X143935300Y-103295300D01*
X143935300Y-103295300D02*
X140970000Y-100330000D01*
X128270000Y-95084900D02*
X130009900Y-93345000D01*
X128270000Y-96799400D02*
X128270000Y-95084900D01*
X140335000Y-101600000D02*
X133070600Y-101600000D01*
X143135300Y-108474000D02*
X143135300Y-104400300D01*
X133070600Y-101600000D02*
X128270000Y-96799400D01*
X143135300Y-104400300D02*
X140335000Y-101600000D01*
X130644900Y-91440000D02*
X132626100Y-93421200D01*
X128270000Y-91440000D02*
X130644900Y-91440000D01*
X142335300Y-105505300D02*
X139649200Y-102819200D01*
X127000000Y-97231200D02*
X127000000Y-92710000D01*
X142335300Y-108474000D02*
X142335300Y-105505300D01*
X139649200Y-102819200D02*
X132588000Y-102819200D01*
X132588000Y-102819200D02*
X127000000Y-97231200D01*
X127000000Y-92710000D02*
X128270000Y-91440000D01*
X142113000Y-122555000D02*
X142367000Y-122555000D01*
X140735300Y-116824000D02*
X140735300Y-121177300D01*
X140735300Y-121177300D02*
X142113000Y-122555000D01*
X129895600Y-110642400D02*
X138553700Y-110642400D01*
X138553700Y-110642400D02*
X138560300Y-110649000D01*
X126149100Y-109220000D02*
X128473200Y-109220000D01*
X128473200Y-109220000D02*
X129895600Y-110642400D01*
D27*
X124933600Y-109584600D02*
X123621800Y-109584600D01*
X126117900Y-109220000D02*
X125298200Y-109220000D01*
X125298200Y-109220000D02*
X124933600Y-109584600D01*
D28*
X126949200Y-104241600D02*
X126161800Y-104241600D01*
X130175000Y-107950000D02*
X126365000Y-104140000D01*
X126365000Y-104140000D02*
X126149100Y-104140000D01*
X134874000Y-107950000D02*
X130175000Y-107950000D01*
X138560300Y-109849000D02*
X136773000Y-109849000D01*
X136773000Y-109849000D02*
X134874000Y-107950000D01*
D27*
X125526800Y-104241600D02*
X126161800Y-104241600D01*
X123621800Y-103724600D02*
X125009800Y-103724600D01*
X125009800Y-103724600D02*
X125526800Y-104241600D01*
D28*
X155130500Y-117665500D02*
X156337000Y-117665500D01*
X146910300Y-113849000D02*
X151314000Y-113849000D01*
X151314000Y-113849000D02*
X155130500Y-117665500D01*
X154749500Y-115125500D02*
X156337000Y-115125500D01*
X146910300Y-112249000D02*
X151873000Y-112249000D01*
X151873000Y-112249000D02*
X154749500Y-115125500D01*
X158877000Y-119507000D02*
X158877000Y-117335300D01*
X146910300Y-114649000D02*
X150082000Y-114649000D01*
X151638000Y-116205000D02*
X151638000Y-118872000D01*
X151638000Y-118872000D02*
X152654000Y-119888000D01*
X152654000Y-119888000D02*
X158496000Y-119888000D01*
X150082000Y-114649000D02*
X151638000Y-116205000D01*
X158496000Y-119888000D02*
X158877000Y-119507000D01*
X153359000Y-111449000D02*
X146910300Y-111449000D01*
X156337000Y-112585500D02*
X154495500Y-112585500D01*
X154495500Y-112585500D02*
X153359000Y-111449000D01*
X160909000Y-115125500D02*
X158877000Y-115125500D01*
X160909000Y-119761000D02*
X160909000Y-115125500D01*
X149104000Y-115449000D02*
X149479000Y-115824000D01*
X146910300Y-115449000D02*
X149104000Y-115449000D01*
X149479000Y-115824000D02*
X149479000Y-119888000D01*
X149479000Y-119888000D02*
X150876000Y-121285000D01*
X150876000Y-121285000D02*
X159385000Y-121285000D01*
X159385000Y-121285000D02*
X160909000Y-119761000D01*
D29*
X129001200Y-124059000D02*
X127000000Y-124059000D01*
X129032000Y-124028200D02*
X129001200Y-124059000D01*
X129032000Y-117618000D02*
X129032000Y-124028200D01*
X132191000Y-117618000D02*
X129032000Y-117618000D01*
X133861000Y-113284000D02*
X133861000Y-115948000D01*
X133861000Y-115948000D02*
X132191000Y-117618000D01*
X130683000Y-121911000D02*
X130683000Y-119684000D01*
D28*
X147447000Y-120777000D02*
X147447000Y-122555000D01*
X145535300Y-116824000D02*
X145535300Y-118865300D01*
X145535300Y-118865300D02*
X147447000Y-120777000D01*
X144735300Y-122383300D02*
X144907000Y-122555000D01*
X144735300Y-116824000D02*
X144735300Y-122383300D01*
X136144000Y-112388500D02*
X136144000Y-117593000D01*
X138560300Y-111449000D02*
X137083500Y-111449000D01*
X137083500Y-111449000D02*
X136144000Y-112388500D01*
D29*
X136144000Y-120650000D02*
X136144000Y-119643000D01*
X135466000Y-121922500D02*
X135466000Y-121328000D01*
X135466000Y-121328000D02*
X136144000Y-120650000D01*
X130758000Y-123822500D02*
X130683000Y-123897500D01*
X133266000Y-123822500D02*
X130758000Y-123822500D01*
D27*
X123825000Y-115458000D02*
X123825000Y-117714000D01*
X127000000Y-118999000D02*
X127000000Y-116459000D01*
X127000000Y-113919000D02*
X127000000Y-116459000D01*
X123825000Y-116382800D02*
X123825000Y-115760500D01*
X127000000Y-116459000D02*
X123901200Y-116459000D01*
X123901200Y-116459000D02*
X123825000Y-116382800D01*
X128930400Y-113919000D02*
X127000000Y-113919000D01*
X131061000Y-113284000D02*
X129565400Y-113284000D01*
X129565400Y-113284000D02*
X128930400Y-113919000D01*
X151003000Y-101117000D02*
X151028000Y-101092000D01*
X151003000Y-106716500D02*
X151003000Y-101117000D01*
X155052000Y-101361000D02*
X155321000Y-101092000D01*
X155052000Y-106680000D02*
X155052000Y-101361000D01*
X157328000Y-101092000D02*
X155321000Y-101092000D01*
X155321000Y-101092000D02*
X151028000Y-101092000D01*
X123825000Y-119014000D02*
X122159000Y-119014000D01*
X122047000Y-118902000D02*
X122047000Y-116586000D01*
X122047000Y-116586000D02*
X113563000Y-116586000D01*
X119888000Y-124423500D02*
X122337500Y-124423500D01*
X123825000Y-122936000D02*
X123825000Y-119014000D01*
X122337500Y-124423500D02*
X123825000Y-122936000D01*
X158877000Y-110045500D02*
X156337000Y-110045500D01*
X156352000Y-106680000D02*
X159004000Y-106680000D01*
X156337000Y-106695000D02*
X156352000Y-106680000D01*
X156337000Y-110045500D02*
X156337000Y-106695000D01*
D30*
G36*
X116713000Y-121158000D02*
G01*
X110617000Y-121158000D01*
X110617000Y-111887000D01*
X116713000Y-111887000D01*
X116713000Y-121158000D01*
G37*
X116713000Y-121158000D02*
X110617000Y-121158000D01*
X110617000Y-111887000D01*
X116713000Y-111887000D01*
X116713000Y-121158000D01*
G36*
X105791000Y-112838062D02*
G01*
X105784188Y-112860518D01*
X105771928Y-112985000D01*
X105771928Y-113885000D01*
X105784188Y-114009482D01*
X105791000Y-114031938D01*
X105791000Y-115838062D01*
X105784188Y-115860518D01*
X105771928Y-115985000D01*
X105771928Y-116885000D01*
X105784188Y-117009482D01*
X105791000Y-117031938D01*
X105791000Y-117983000D01*
X102362000Y-117983000D01*
X102362000Y-111887000D01*
X105791000Y-111887000D01*
X105791000Y-112838062D01*
G37*
X105791000Y-112838062D02*
X105784188Y-112860518D01*
X105771928Y-112985000D01*
X105771928Y-113885000D01*
X105784188Y-114009482D01*
X105791000Y-114031938D01*
X105791000Y-115838062D01*
X105784188Y-115860518D01*
X105771928Y-115985000D01*
X105771928Y-116885000D01*
X105784188Y-117009482D01*
X105791000Y-117031938D01*
X105791000Y-117983000D01*
X102362000Y-117983000D01*
X102362000Y-111887000D01*
X105791000Y-111887000D01*
X105791000Y-112838062D01*
G36*
X153543000Y-104648000D02*
G01*
X147320000Y-104648000D01*
X147320000Y-97536000D01*
X153543000Y-97536000D01*
X153543000Y-104648000D01*
G37*
X153543000Y-104648000D02*
X147320000Y-104648000D01*
X147320000Y-97536000D01*
X153543000Y-97536000D01*
X153543000Y-104648000D01*
M02*
